<?xml version="1.0" encoding="utf-8"?>
<!-- Generator: Adobe Illustrator 15.0.0, SVG Export Plug-In . SVG Version: 6.00 Build 0)  -->
<!DOCTYPE svg PUBLIC "-//W3C//DTD SVG 1.1//EN" "http://www.w3.org/Graphics/SVG/1.1/DTD/svg11.dtd">
<svg version="1.1" id="Calque_1" xmlns="http://www.w3.org/2000/svg" xmlns:xlink="http://www.w3.org/1999/xlink" x="0px" y="0px"
	 width="520.187px" height="246px" viewBox="4.101 0 520.187 246" enable-background="new 4.101 0 520.187 246"
	 xml:space="preserve">
<g>
	<polygon fill="#FFF134" points="524.288,74.953 453.821,0 294.288,0 363.907,74.953 322.101,123 363.907,171.047 294.288,246 
		453.821,246 524.288,171.047 476.288,123 	"/>
</g>
<polygon id="F" points="159.899,1.265 152.109,42.162 97.579,42.162 85.895,102.535 128.09,102.535 118.354,151.87 76.808,151.87 
	59.279,246 4.101,246 47.595,1.265 "/>
<path id="R" d="M291.135,49.037C288.867,24.1,280.178,1.265,246.173,1.265c-27.959,0-78.012,0-78.012,0l-47.388,244.734h56.475
	l17.528-87.636l11.684,87.636h57.129l-10.388-101.27C277.259,122.811,292.561,96.266,291.135,49.037L291.135,49.037z
	 M203.216,112.272l12.982-68.163c4.545,0,22.797,0.771,20.125,34.081C231.131,111.626,203.216,112.272,203.216,112.272z"/>
<polygon fill="#CCB333" points="363.907,74.953 322.101,123 476.288,123 524.288,74.953 "/>
<polygon fill="#CCB333" points="363.907,171.047 294.288,246 453.821,246 524.288,171.047 "/>
<polygon fill="#F2D43D" points="363.907,74.953 294.288,0 343.101,74.953 302.101,123 343.101,171.047 294.288,246 363.907,171.047 
	322.101,123 "/>
</svg>
