<?xml version="1.0" encoding="utf-8"?>
<!-- Generator: Adobe Illustrator 15.0.0, SVG Export Plug-In . SVG Version: 6.00 Build 0)  -->
<!DOCTYPE svg PUBLIC "-//W3C//DTD SVG 1.1//EN" "http://www.w3.org/Graphics/SVG/1.1/DTD/svg11.dtd">
<svg version="1.1" id="Calque_2" xmlns="http://www.w3.org/2000/svg" xmlns:xlink="http://www.w3.org/1999/xlink" x="0px" y="0px"
	 width="369.031px" height="232.086px" viewBox="0.486 3.957 369.031 232.086" enable-background="new 0.486 3.957 369.031 232.086"
	 xml:space="preserve">
<path d="M185,3.966C111.955,3.277,39.275,41.958,0.486,120C39.275,198.044,111.955,236.723,185,236.034
	c73.045,0.688,145.725-37.99,184.517-116.034C330.725,41.958,258.045,3.277,185,3.966z"/>
<path fill="#FFFFFF" d="M185,33.964C125.629,33.453,66.553,62.134,35.025,120c31.529,57.867,90.604,86.547,149.976,86.036
	c59.371,0.511,118.447-28.169,149.976-86.036C303.448,62.134,244.371,33.453,185,33.964z"/>
<polygon fill="#187CC0" points="185,33.957 110.485,76.979 110.485,163.021 184.999,206.043 259.515,163.021 259.516,76.979 "/>
<g id="FR3">
	<path id="_x33_" fill="#FFFFFF" d="M226.639,143.37c-0.58-0.271-2.731-0.46-3.895-0.984c-2.239-1.01-9.019-3.856-6.083-6.587
		c1.047-0.975,2.365,0.428,3.78,1.331c2.465,1.569,5.186,2.456,8.125,1.634c2.62-0.731,5.254-1.797,6.532-4.378
		c0.2-0.401,0.637-0.715,0.809-1.137c0.738-1.821,1.183-3.521,1.28-5.541c0.018-0.375,0.128-0.459-0.406-2.242
		c-0.955-3.183-2.331-4.532-5.421-5.191c-2.219-0.472-5.887,0.925-5.609-2.126c0.036-0.388,0.35-0.786,0.661-1.06
		c1.029-0.905,1.856-1.406,2.081-1.545c4.234-2.584,6.474-6.79,4.643-11.476c-0.431-1.104-1.469-2.426-2.552-2.862
		c-2.531-1.021-2.652-0.892-3.2-0.753c-2.715,0.687-4.062,2.296-6.421,3.478c-0.33,0.166-0.978,0.167-1.148-0.046
		c-0.763-0.951-0.57-1.433,0.013-2.553c0.042-0.082,3.721-3.494,4.198-3.787c1.152-0.708,2.305-1.341,3.528-1.85
		c1.419-0.588,3.06-0.957,4.621-0.931c4.284,0.071,7.878,0.93,10.029,4.855c0.357,0.652,0.633,1.408,0.709,2.193
		c0.47,4.785-1.091,7.49-4.409,10.729c-0.193,0.188-0.421,0.589-0.354,0.667c0.34,0.397,0.519,0.144,1.329,0.422
		c1.479,0.508,2.956,1.298,4.292,2.22c0.641,0.443,0.712,0.444,1.033,0.874c2.307,3.1,3.195,6.031,2.782,9.865
		c-0.292,2.708-1.145,4.925-2.542,7.257c-1.129,1.88-1.154,1.898-1.488,2.259c-0.841,0.908-1.013,0.758-1.906,1.907
		c-1.822,2.344-5.082,3.915-7.853,4.581C231.438,143.158,229.038,143.318,226.639,143.37L226.639,143.37z"/>
	<path id="R" fill="#FFFFFF" d="M207.823,136.03c-3.401-4.429-6.328-9.24-8.883-14.151c-1.18-2.27-2.319-3.021,0.415-4.131
		c3.529-1.432,5.524-6.024,6.155-9.389c0.223-1.194-0.197-4.697-0.847-5.664c-0.678-1.009-1.288-2.533-2.148-3.521
		c-1.697-1.945-5.155-3.318-8.011-3.924h-14.607c-2.419,0.112-4.834,0.155-7.245,0h-6.207c-0.959,0.218-1.74,0.602-1.944,1.254
		c-0.471,1.502,0.855,1.971,2.454,2.343c2.997,0.696,3.742,2.271,3.844,5.085c0.329,9.188-0.078,18.451-0.176,27.623
		c-0.034,3.319-0.15,6.246-3.562,8.142c-1.336,0.744-1.286,1.498-0.411,2.731h6.707c0.592-0.015,1.178-0.015,1.659,0h13.355
		c0.77-0.498,0.757-1.264-0.195-2.22c-1.635-1.641-4.68-1.405-5.557-3.826c-1.527-4.216-0.622-9.665-0.189-14.054
		c0.055-0.561,0.106-0.724,1.022-1.19c0.409-0.208,1.111-0.099,1.599,0.153c1.582,0.82,2.618,2.603,3.281,4.19
		c1.805,4.333,4.72,9.152,7.294,13.236c1.157,1.838,1.23,1.824,2.159,2.514c0.963,0.716,3.141,1.671,3.553,1.748
		c1.47,0.274,3.064,0.285,4.604,0.16c1.071-0.09,2.212-0.345,3.242-0.744c2.079-0.809,5.127-2.522,2.95-4.41
		C210.992,136.993,208.789,137.29,207.823,136.03z M193.92,112.4c-0.095,0.372-0.053,0.457-0.605,1.201
		c-1.556,2.093-2.969,2.904-5.548,3.294c-1.35,0.204-2.72,0.041-4.066,0.041c-1.595-1.521-1.511-2.735-1.389-4.882
		c0.06-1.044-0.426-1.077,0.275-10.625c0.168-2.29,1.066-2.37,3.348-2.409c1.212-0.021,2.505,0.124,3.645,0.605
		C194.006,101.501,194.973,108.264,193.92,112.4z"/>
	<path id="F" fill="#FFFFFF" d="M159.41,95.25h-5.807c-6.466,0.434-13.104,0.176-19.642,0h-8.45
		c-1.162,0.212-2.173,0.776-1.81,2.118c0.251,0.935,0.566,1.012,1.566,1.36c3.495,1.22,4.738,1.16,5.179,4.942
		c1.124,9.643,0.344,19.629,0.324,29.353c-0.004,2.014-0.103,3.892-1.531,5.343c-0.701,0.713-1.923,0.887-2.575,1.626
		c-0.855,0.968-0.604,1.942,0.375,2.436h21.522c1.3-2.658-1.684-2.647-3.719-3.908c-2.445-1.517-2.814-4.435-2.851-7.217
		c-0.04-2.939-0.215-3.754,0.154-8.613c0.198-2.611,1.11-2.763,3.652-2.911c1.251-0.074,2.537,0.018,3.809,0.279
		c0.652,0.135,1.293,0.479,1.897,0.886c1.623,1.093,2.052,3.48,3.301,4.887c0.132,0.148,0.67,0.102,0.911-0.046
		c2.632-1.616,1.035-11.33,0.795-14.222c-0.036-0.44-0.221-0.92-0.492-1.25c-1.392-1.697-3.044,0.836-3.652,2.065
		c-1.501,3.039-6.218,3.745-9.295,2.402c-0.451-0.197-0.703-0.293-0.834-1.579c-0.419-4.116-1.182-8.668,0.678-12.207
		c1.492-2.836,6.316-1.581,9.276-1.088c2.314,0.384,3.992,1.253,5.103,3.344c0.48,0.903-0.222,1.633,1.671,3.25
		c3.68,3.14,2.135-8.682,1.514-10.009C160.192,95.878,159.83,95.491,159.41,95.25z"/>
</g>
</svg>
