<?xml version="1.0" encoding="UTF-8" standalone="no"?>
<!-- Created with Inkscape (http://www.inkscape.org/) -->

<svg
   xmlns:dc="http://purl.org/dc/elements/1.1/"
   xmlns:cc="http://creativecommons.org/ns#"
   xmlns:rdf="http://www.w3.org/1999/02/22-rdf-syntax-ns#"
   xmlns:svg="http://www.w3.org/2000/svg"
   xmlns="http://www.w3.org/2000/svg"
   xmlns:sodipodi="http://sodipodi.sourceforge.net/DTD/sodipodi-0.dtd"
   xmlns:inkscape="http://www.inkscape.org/namespaces/inkscape"
   width="450"
   height="175"
   id="svg2"
   version="1.1"
   inkscape:version="0.47 r22583">
  <g
     inkscape:label="Layer 1"
     inkscape:groupmode="layer"
     id="layer1"
     transform="translate(-4.78677,-284.37348)">
    <path
       id="path2897"
       d="m 279.78779,459.37348 174.99898,0 0,-174.99933 -174.99898,0 z"
       style="fill:#4dbc37;fill-rule:nonzero;stroke:none" />
    <path
       style="fill:#1c62b7;fill-rule:nonzero;stroke:none"
       d="m 229.78501,334.37023 49.98902,0 0,-24.98781 -49.98902,0 z"
       id="path2899" />
    <path
       style="fill:#575500;fill-rule:nonzero;stroke:none"
       d="m 304.77524,334.37023 0,50.02324 25.02909,0 0,-75.01105 -50.0303,0 0,24.98781"
       id="path2901" />
    <path
       style="fill:#100b0c;fill-rule:nonzero;stroke:none"
       d="m 304.83381,334.41821 -300.04704,0 0,75.01106 300.04704,0"
       id="path2903" />
    <path
       style="fill:#ffffff;fill-rule:nonzero;stroke:none"
       d="m 94.8584,347.43589 -0.12738,-0.24804 -0.44103,-0.19299 -14.47876,0 -0.44103,0 -0.31684,0.31684 -22.68947,45.62698 -0.0618,0.44103 c 0,0 0.0618,0.18947 0.44104,0.12385 l 13.08295,0 0.37894,-0.12385 0.193,-0.31719 3.1596,-6.76023 c 0.18947,-0.44457 0.44104,-0.63404 0.44104,-0.63404 l 0.50631,-0.25157 15.86361,0 0.193,0 0.12419,0.25157 1.77086,7.27043 c 0.0621,0.44103 0.1242,0.50278 0.1242,0.50278 l 0.44456,0.12772 11.24965,-0.0656 0.18947,-0.0621 0.12772,-0.25474 -9.73388,-45.75083 z m -6.50867,27.80587 -0.1309,0.0621 -9.28967,-0.0621 -0.37894,-0.0617 0.0621,-0.31719 6.32272,-14.34397 0.12737,-0.12737 0.0621,0.12737 3.22522,14.47099"
       id="path2905" />
    <path
       style="fill:#ffffff;fill-rule:nonzero;stroke:none"
       d="m 154.84311,393.63446 -11.57037,0 -0.37894,0 -0.1242,-0.1309 -16.05661,-28.4953 -0.18594,-0.1309 -0.1309,0.193 -3.97993,27.99216 -0.12737,0.37894 -0.31684,0.0621 -11.50157,0 -0.31684,-0.12385 -0.18983,-0.50313 6.32273,-45.30979 0.18629,-0.31719 0.37894,-0.19265 12.83139,0 0.31719,0.1309 0.19265,0.24804 14.47169,25.4045 c 0.2551,0.50632 0.44104,0.44386 0.44104,0.44386 0,0 0.193,0 0.31684,-0.56805 l 3.66626,-25.28031 0.1242,-0.24804 0.25474,-0.1309 12.07351,0.1309 0.31719,0.0618 0.0617,0.18629 -6.50866,45.68873 -0.18947,0.44456"
       id="path2907" />
    <path
       style="fill:#ffffff;fill-rule:nonzero;stroke:none"
       d="m 199.71856,347.43589 -0.12385,-0.24804 -0.51019,-0.19299 -14.21977,0 c -0.3793,0 -0.50314,0.0621 -0.50314,0.0621 l -0.2551,0.25475 -22.94421,45.81292 -0.1242,0.37894 0.44104,0.1309 13.02121,0 0.37894,-0.0653 0.18947,-0.25156 3.41117,-7.27043 c 0.12737,-0.37894 0.37894,-0.63051 0.37894,-0.63051 l 0.50984,-0.18947 15.0401,0 c 0.37929,0 0.69614,0.18947 0.69614,0.18947 0,0 0.12737,0.18947 0.25156,0.56877 l 1.51612,7.13917 c 0.0653,0.37894 0.1309,0.44456 0.1309,0.44456 l 0.44103,0.12738 11.56332,0 0.193,-0.0621 0.0621,-0.193 -9.54441,-46.00557 z m -6.44657,27.86797 -0.12772,0 -9.35142,0.0656 -0.31684,-0.12772 c 0,0 -0.0656,-0.0617 0.0621,-0.50279 l 6.3192,-14.28575 0.1309,-0.24804 0.12419,0.1863 3.1596,14.66081"
       id="path2909" />
    <path
       style="fill:#ffffff;fill-rule:nonzero;stroke:none"
       d="m 242.19617,393.00042 c -0.0656,0.37929 -0.12772,0.50314 -0.12772,0.50314 l -0.37894,0.1309 -26.04172,0 c -0.75823,0 -0.9477,-0.193 -0.9477,-0.193 0,0 -0.12737,-0.25474 -0.0653,-0.81998 l 6.44656,-44.86874 c 0.0656,-0.56489 0.193,-0.75788 0.193,-0.75788 0,0 0.0621,0 0.69614,0 l 11.81841,0 0.44103,0.0621 0,0.44422 -4.86518,35.07311 c -0.0621,0.37894 0.12385,0.44104 0.12385,0.44104 0,0 0.1309,0.0617 0.63403,0.0617 l 12.89349,0 0.37894,0.12773 0.0656,0.37894"
       id="path2911" />
    <path
       style="fill:#ffffff;fill-rule:nonzero;stroke:none"
       d="m 292.31927,375.24176 -0.25157,0.12772 -16.18045,0 -0.37894,0.12702 -0.18947,0.37929 0,17.24883 -0.1309,0.31684 -0.25157,0.12772 -12.83139,0 -0.31719,-0.12772 -0.0621,-0.37894 0,-17.24882 -0.18947,-0.3172 -0.25157,-0.12702 -16.55939,0 -0.37894,-0.0656 c 0,0 -0.12772,-0.12385 -0.12772,-0.50314 l 0,-12.63839 0.12772,-0.31684 0.18947,-0.0621 16.93833,0 0.1242,-0.0621 0.12737,-0.19299 0,-15.09868 0.0621,-0.31684 c 0,0 0.12737,-0.0621 0.50666,-0.0621 l 12.57982,0 0.31367,0.0621 0.1309,0.37859 0,15.16465 16.43202,0 c 0.44104,0 0.56841,0.0653 0.56841,0.0653 0,0 0.18947,0.0621 0.18947,0.44104 l 0,12.76259"
       id="path2913" />
    <path
       style="fill:#ffffff;fill-rule:nonzero;stroke:none"
       d="m 52.7015,391.9257 c -0.0656,0.50278 -0.31719,0.88208 -0.31719,0.88208 0,0 -0.2551,0.25474 -0.69613,0.37894 -6.07116,2.46663 -12.83139,1.64701 -12.83139,1.64701 -10.93633,-1.19927 -17.88956,-7.89741 -20.10146,-16.55975 -3.28732,-12.95205 3.22487,-22.17927 4.80308,-24.13995 3.85573,-4.61009 9.86126,-7.89741 15.73942,-8.65529 7.52199,-1.07542 13.08648,0.69614 15.36047,1.45402 0,0 2.52909,0.81998 4.42414,2.08452 0.94771,0.63051 1.07508,0.88525 1.07508,0.88525 0,0 0.0621,0.12455 -0.193,1.13753 l -1.76733,9.28932 c -0.0621,0.37894 -0.31366,0.56841 -0.31366,0.56841 0,0 -0.12738,0.0656 -1.01298,-0.50631 -5.69221,-4.04521 -12.32507,-3.53537 -12.32507,-3.53537 -5.05818,0.31014 -10.93281,2.9666 -12.70402,9.66509 -1.58138,5.94025 0.0621,10.93281 3.60064,13.90293 2.40171,2.08805 6.13007,3.1596 10.05108,2.97013 4.29994,-0.3172 7.71111,-2.01925 7.45636,-1.89505 l 0.37894,-0.1242 c 0.88878,-0.44774 1.07508,-0.37929 1.07508,-0.37929 0,0 0.193,0.18629 0.0653,0.75823"
       id="path2915" />
    <path
       style="fill:#ffffff;fill-rule:nonzero;stroke:none"
       d="m 441.24549,333.53614 0.15524,0.49608 c 0,0.76493 0.0353,1.54328 0.003,2.32585 0.0247,0.4167 -0.0618,1.88835 0.0282,2.07077 l 0.0318,3.16312 c 0.0282,0.4548 0.0353,0.87537 -0.0353,1.32312 0.11713,0.12419 -0.0212,2.04006 0.0141,2.65328 l -0.0141,0.67532 0.26532,0.45444 c 0.68908,0.0282 5.92967,0.1863 6.21935,0.0692 l 0.28226,0.20005 c 0.0932,0.63404 0.0141,2.58414 0.0381,2.94226 0.0377,1.33723 -0.0448,5.40289 0.0653,5.80935 l -0.1997,0.33766 c -0.55465,0.0212 -5.32704,0.13055 -5.50275,0.007 -0.36165,0.0688 -0.8235,-0.22758 -0.98192,0.26885 l -0.12067,1.2402 c 0.0141,0.82668 0.0247,1.75745 0.0586,2.61201 -0.007,0.42022 0.0448,0.85773 -0.007,1.27477 l -0.0106,0.43751 c 0.0247,0.40329 0.0617,0.91313 0.0106,1.30265 l 0.0515,0.52713 c -0.007,0.26851 -0.13443,2.54956 0.004,3.23863 -0.12384,0.2551 -0.0586,1.5641 -0.0212,1.98467 l 0.0212,0.6411 c -0.0282,1.66747 0.0353,3.21111 -0.0247,4.87894 l 0.0317,0.72365 -0.007,0.44774 -0.0141,0.70284 c -0.0586,1.70911 0.0759,3.42493 0.0656,5.04442 -0.0353,0.40681 0.0317,0.76494 -0.007,1.17175 l -0.0176,0.14784 c 0.0931,0.8856 -0.0176,2.05735 0.0247,2.98741 -0.004,0.37224 0.0826,1.35064 -0.0247,1.46778 l 0.0282,0.84079 c -0.0586,0.13443 0,0.94418 -0.0212,1.27513 -0.0212,0.54089 0.0106,1.1093 0.0928,1.66748 -0.0826,0.42022 -0.0896,2.65328 -0.0106,3.12184 l -0.004,0.34436 0.59981,0.0967 0.85103,0.004 c 0.3927,0.0653 4.94774,-0.0141 4.94774,-0.0141 0.35847,0.21734 0.39623,0.6238 0.38952,0.99604 -0.0176,1.12306 0.0378,2.08805 0.0176,3.14901 0.0692,0.34824 -0.0413,0.79598 0.0727,1.16152 -0.11044,0.34083 0.0176,0.72012 -0.004,1.06096 0.0861,0.33448 -0.11714,0.67531 0,1.02356 -0.0282,0.57194 -0.007,1.19892 -0.0483,1.78461 l -0.5169,0.36518 -0.57193,0.11009 c -0.55465,-0.0106 -4.31371,-0.0519 -5.30269,-0.096 -0.45127,0.0212 -0.94771,-0.0212 -1.36793,0.003 l -0.80621,-0.0896 c -0.34472,0.0381 -0.61358,-0.12737 -0.92689,-0.14854 l -0.4481,-0.17183 -0.6545,-0.29955 -0.61004,-0.24839 -0.80269,-0.42022 -0.35495,-0.23075 -0.6238,-0.47562 -0.25122,-0.24451 -0.37223,-0.39623 -0.24804,-0.20005 c -0.20323,-0.39306 -0.53066,-0.64074 -0.67214,-1.06132 l -0.52713,-0.9096 -0.24099,-0.61992 -0.24133,-0.81327 -0.0723,-0.21029 -0.0656,-0.52713 -0.1309,-1.02003 c -0.12737,-0.42375 0.0554,-0.75153 -0.0586,-1.1714 0.0106,-0.45127 -0.0723,-0.91983 -0.0353,-1.36792 l -0.004,-0.56841 c -0.0967,-0.51337 0.0586,-0.95794 -0.0353,-1.52988 l 0.0353,-0.18276 -0.0212,-0.85456 c -0.0317,-1.44343 0.0692,-2.8805 -0.0586,-4.32076 l -0.007,-0.63051 c -0.0106,-0.9784 -0.0106,-1.89152 -0.007,-2.86674 l -0.0318,-0.0621 c -0.0377,-0.43398 0.0932,-0.86832 -0.0212,-1.35064 l 0.048,-0.0413 c -0.0723,-0.37541 0.0554,-0.75118 -0.0282,-1.09554 l 0.0554,-0.75117 c -0.0967,-0.3793 0.0413,-0.71696 -0.0381,-1.10966 -0.007,-0.57193 0.004,-1.14422 0.0282,-1.68123 l -0.0106,-0.3172 c 0.0247,-0.53736 -0.0282,-1.04755 0.0141,-1.58844 l 0.007,-0.29955 c 0.007,-0.5102 -0.0759,-0.96499 -0.0381,-1.50236 l 0.004,-0.22404 c -0.0448,-0.76847 -0.0413,-1.68159 -0.0448,-2.41866 l 0.0141,-0.78222 -0.0212,-0.47562 c 0.0759,-0.22722 0.0317,-7.35298 -0.0653,-8.614 0.0551,-0.46503 0.0177,-1.05143 0.0106,-1.54363 -0.0212,-0.33413 0.0723,-0.61322 0,-0.96147 l -0.004,-1.53304 -0.22052,-0.13796 c -0.35812,0.0413 -2.02242,-0.004 -2.48745,0.0353 -0.17924,-0.0625 -0.51337,0.15489 -0.53772,-0.20676 l -0.0963,-0.26885 c 0.0928,-0.34472 -0.0967,-7.70441 -0.0413,-8.14898 l 0.17571,-0.70283 0.65803,-0.004 c 0.36165,-0.007 2.26023,0.11396 2.3876,-0.0653 l 0.13125,-0.6859 -0.0282,-1.01968 c 0.15524,-0.40328 0,-0.89936 0.0519,-1.27478 0.007,-0.66155 -0.0106,-2.01254 0.004,-2.07429 0.0212,-0.32742 -0.0932,-0.64109 -0.0282,-0.94417 l -0.0177,-0.62698 c 0.0515,-0.58605 -0.0586,-1.03732 -0.007,-1.64031 l 0.0282,-1.37816 c -0.0617,-0.67531 -0.007,-1.57468 -0.007,-2.23271 l -0.0586,-0.99251 0.6926,-0.21346 c 0.42022,0.0377 2.30857,0.0413 2.67375,-0.0762 0.43398,0.0864 0.91313,0.0353 1.39545,0.0282 0.62698,0.055 2.65646,0.0141 2.89074,-0.0282 0.39305,0.0554 0.88913,0.0176 1.26454,0.0692"
       id="path2917" />
    <path
       style="fill:#ffffff;fill-rule:nonzero;stroke:none"
       d="m 426.20538,347.01532 c 0.0141,1.30265 -0.0317,2.443 0.0448,3.76258 l -0.0212,0.59982 c -0.10691,0.34436 0.0963,0.6926 0.003,1.03696 l 0.0212,0.61675 c -0.0353,0.49291 0.0826,0.91666 0,1.39545 l -0.004,0.56876 c -0.004,0.3306 0.0656,0.64427 0.0794,1.00592 -0.33095,0.10338 -0.76846,0.0353 -1.11282,0.0483 l -0.92689,-0.0282 c -0.57229,0.0999 -1.08213,-0.0106 -1.66783,0.0282 -0.49255,-0.0829 -0.8856,0.0826 -1.37815,-0.0141 l -0.68908,-0.0106 -0.21382,0.0448 -0.49608,0.27591 -0.0967,0.40646 0.0896,0.22758 -0.0653,0.4615 c -0.0967,0.38953 0.079,0.90289 -0.0448,1.27478 0.11009,0.87537 0.007,1.81602 0.0448,2.62576 -0.0176,0.5236 0.0353,1.06802 -0.004,1.68124 l -0.004,0.17924 -0.007,0.84079 0.0515,0.70637 c -0.0413,0.95793 0.0413,1.84671 -0.0317,2.86322 l 0.0247,0.57194 -0.0247,0.8856 -0.007,0.37576 c -0.0353,0.43399 0.0377,0.79246 0.0318,1.21268 l 0,0.19653 -0.0212,1.91904 -0.0378,0.63051 0.0378,0.45163 c -0.079,0.40293 -0.0247,0.9163 0,1.32311 -0.0515,0.88208 -0.004,1.79838 -0.0141,2.69774 l -0.0212,0.64427 0.0519,0.63051 c -0.007,0.46538 -0.11714,1.06484 0.0723,1.50235 l -0.0515,0.79563 -0.004,0.26921 c 0.0106,0.50984 -0.0413,1.03344 0.0282,1.52988 l -0.0519,0.39234 -0.003,0.4481 c -0.0353,0.43433 0.0378,0.82315 0.0617,1.24408 l -0.0176,0.18241 c 0.1309,0.46186 -0.0554,0.9717 0.0723,1.46813 l -0.0483,0.52325 -0.0212,0.36553 c -0.0353,0.50984 0.0483,1.04755 -0.0141,1.55739 0.007,0.66156 0.0416,1.45402 -0.0106,2.11557 0.17218,0.5102 -0.0586,1.07825 0.0413,1.60574 l 0.0176,0.98898 c 0.0688,0.80975 -0.0759,1.49882 0.0353,2.25 l 0.0617,0 -0.079,0.40646 c -0.007,0.35848 -0.0519,0.73389 0.0318,1.0786 -0.1069,0.40294 0.0826,0.79599 -0.0413,1.18516 l 0.007,0.57194 c 0.0621,1.25784 0.004,2.53226 0.0483,3.752 l -0.20006,0.34154 c -0.37188,-0.0353 -0.68908,0.0378 -1.0472,0.0317 l -0.0621,-0.0448 c -1.52634,-0.004 -2.92531,0.0141 -4.3758,0.0106 -0.37929,-0.0621 -0.69261,0.0247 -1.06837,-0.0106 l -0.80975,0.007 c -0.29955,-0.0176 -0.68908,-0.0688 -1.01968,0.0176 -0.35847,-0.15172 -0.97522,0.1997 -1.09236,-0.34436 -0.0378,-0.49291 -0.0621,-1.09236 -0.0378,-1.58844 0.007,-0.64463 -0.004,-1.27831 -0.0141,-1.89188 l -0.0247,-0.43398 0,-0.0759 0.0317,0 c -0.0688,-0.29991 0.0515,-0.56524 -0.0377,-0.91313 0.007,-0.52712 0.0282,-0.98898 -0.0282,-1.48506 0.0656,-0.37541 -0.048,-0.79951 0.0448,-1.1714 l -0.0688,-0.49643 0.0621,-0.38917 c 0.0963,-0.43081 -0.0932,-0.91313 0.0353,-1.33335 -0.0247,-0.61357 0,-1.27513 -0.0586,-1.88835 0.12384,-0.3306 0.007,-0.6926 0.0586,-1.02003 l -0.0381,-0.76458 -0.0212,-0.90325 0.0353,-0.34436 c -0.12738,-0.40646 0.0282,-0.7787 0.0141,-1.18551 l -0.0106,-0.43363 c -0.0967,-0.72366 0,-1.42649 -0.0656,-2.13286 l 0.0317,-0.22405 0.007,-0.47914 -0.0247,-0.34789 -0.0247,-0.64427 0.0381,-0.72013 -0.0247,-0.53806 c 0.007,-0.53737 -0.0176,-1.14353 -0.0282,-1.66713 l -0.0317,-0.0282 0.0353,-0.42057 -0.0247,-0.48232 0.004,-0.35812 0.007,-0.43434 c 0.0106,-1.00592 0.0377,-1.93633 -0.0141,-2.82193 0.079,-0.51337 -0.0353,-1.00628 -0.0141,-1.50236 0.0353,-0.40646 0.0247,-0.84079 0.0141,-1.24372 l 0,-0.12067 c 0.0141,-1.00627 0.0377,-1.93281 -0.0416,-2.93908 l 0.0483,-0.10691 c 0.0353,-0.36165 -0.0653,-0.80974 -0.0317,-1.17139 0.0794,-0.32743 0.0212,-0.63051 0.0106,-0.97523 0.007,-0.72012 0.0448,-1.55739 -0.007,-2.28105 0.0519,-0.4615 -0.0212,-0.93006 0.0177,-1.36439 0.0794,-0.44774 -0.0826,-0.90254 0.0141,-1.3644 l 0.004,-0.42022 -0.0413,-0.0317 c 0.0176,-1.70911 0.0515,-3.40446 -0.007,-5.10299 l 0.0212,-0.20676 c 0.0317,-0.43433 -0.0212,-0.97522 -0.0448,-1.37816 l 0.007,-0.49643 0.0413,-0.048 c -0.0212,-0.7787 0.004,-1.54364 -0.0653,-2.30857 l 0.0282,-0.61357 c 0.0759,-0.54478 0.0247,-1.05109 0,-1.57786 0.0688,-0.85103 -0.11714,-1.63325 0,-2.46029 l -0.0317,-0.29955 0.40328,-0.76176 0.88208,-0.0212 0.77869,0.0861 0.75118,-0.0519 c 0.40646,-0.1309 0.86832,0.11397 1.22997,0.0141 l 0.80974,0.007 c 0.36165,-0.14466 0.72013,-0.0212 1.08178,-0.0759 l 0.193,0 0.56841,0.0826 c 0.37576,-0.0826 0.72013,0.0829 1.06484,-0.0353 0.49608,0.11008 0.86126,-0.13796 1.36793,0 l 0.40328,0.0688 0.42693,0.76494 -0.12738,0.70637 -0.0653,0.46503 0.12384,0.86831 0.49961,-0.20323 c 0.40682,-0.44456 0.74095,-0.81645 1.21303,-1.18515 l 0.91983,-0.58923 c 0.33096,-0.11714 0.55818,-0.35495 0.92018,-0.35142 l 0.72013,-0.24804 0.36165,-0.0416 0.43751,-0.14467 c 0.36201,0.0829 0.65133,-0.21699 0.99251,-0.12384"
       id="path2919" />
    <path
       style="fill:#ffffff;fill-rule:nonzero;stroke:none"
       d="m 406.6,392.29758 0.0378,-0.61357 0.004,-0.50949 -0.0212,-0.64779 -0.0617,-0.8408 0.048,-0.44809 c -0.007,-0.61675 0.0318,-1.45755 -0.0212,-2.16356 l 0.0483,-0.31367 -0.0416,-0.47914 -0.0141,-0.24098 c 0.0519,-0.33096 -0.007,-0.63051 0,-0.95794 l 0,-0.24133 c -0.0212,-0.93006 0.007,-1.84672 -0.0413,-2.71503 l 0,-0.16548 c -0.0212,-1.06449 0.0826,-2.10181 0.0353,-3.18359 0.0317,-1.36122 -0.0318,-2.72879 0.0176,-4.1073 l 0,-0.10338 -0.0448,-0.0963 c 0.007,-0.53772 0.0141,-1.06132 0.003,-1.54364 0.0896,-1.27477 0.0318,-2.5499 0.0448,-3.83879 -0.0413,-0.39235 0.0247,-0.90254 -0.048,-1.27443 l 0.0688,-0.61674 0.0212,-0.64462 c -0.13125,-0.33061 -0.0212,-0.72331 -0.0794,-1.05109 l 0.0515,-0.65767 -0.055,-0.43822 0.0829,-0.46468 c -0.26886,-0.3306 0.15842,-0.71659 -0.0621,-1.06448 0.0621,-0.55501 -0.004,-1.15447 0,-1.70912 l 0.0282,-0.84079 0,-0.14819 0.004,-0.36165 -0.0247,-0.51019 0.0353,-0.4167 c -0.0967,-0.64779 -0.0896,-1.38521 -0.0519,-2.02948 l -0.0106,-0.47914 c -0.0247,-0.45127 -0.004,-0.82668 0,-1.2335 0.0212,-0.41669 -0.16865,-0.80621 -0.0932,-1.25748 l -0.16865,-0.94771 c 0.15489,-0.4615 -0.30308,-0.84397 -0.13443,-1.29559 l -0.10338,-0.20676 -0.23075,-0.7854 -0.27909,-0.55818 c -0.15842,-0.5243 -0.44104,-0.97875 -0.68908,-1.46107 l -0.5617,-0.60651 c -0.16548,-0.34437 -0.56524,-0.59241 -0.86161,-0.86126 l -0.81998,-0.56841 -0.6545,-0.36871 -0.24134,-0.12102 -0.37188,-0.18242 -0.80657,-0.32425 -0.26851,-0.0614 -0.86831,-0.17571 -0.42058,-0.0656 -0.0723,-0.0758 c -0.34789,-0.007 -0.77869,-0.0247 -1.08177,0.004 l -0.26533,-0.0176 c -0.7099,0.0829 -1.35417,-0.0759 -2.02948,0.0519 -0.37577,-0.0794 -0.72013,0.0515 -1.10613,0.003 l -0.36518,-0.0212 c -1.42296,-0.0141 -2.84946,0.10338 -4.28618,-0.0176 -0.62028,0.0688 -1.23032,0.004 -1.86436,0.0378 l -0.52007,-0.0617 -0.2311,0.0684 c -0.86832,-0.007 -1.58845,-0.0317 -2.47052,-0.0106 -0.36165,-0.0794 -0.57512,0.21699 -0.9163,0.079 l -0.79952,0.17253 -0.87184,0.16866 c -0.63051,0.0998 -1.16117,0.46503 -1.70523,0.77516 l -0.40681,0.31014 c -0.4548,0.37224 -0.78893,0.75824 -1.1714,1.15764 l -0.34789,0.53771 c -0.22758,0.29638 -0.44104,0.53419 -0.50667,0.92336 l -0.48937,0.84715 0.0448,0.0762 c -0.18242,0.34471 -0.23428,0.75117 -0.386,1.09201 l -0.0755,0.2865 -0.16195,0.83726 -0.0483,0.23746 -0.0794,0.49643 -0.0653,0.49255 -0.0106,0.80975 c 0.0106,0.49608 0.0318,1.02003 0.0448,1.48859 -0.0212,0.35812 -0.055,0.76141 0.004,1.15093 -0.0861,0.84045 0.0381,1.68124 0.004,2.57037 -0.11714,0.50631 0.14819,1.12306 -0.0519,1.63326 0.0381,0.43398 -0.0247,0.93006 0.0448,1.31605 -0.055,0.75118 -0.0212,1.64031 -0.0141,2.41901 l 0.0247,0.80939 c -0.0829,0.58252 0.0758,1.1407 -0.0967,1.69535 l 0.0381,0.5857 c -0.0212,0.59981 0.0176,1.25784 0.0141,1.8573 l -0.0282,0.94417 0.0141,0.22723 c 0.0653,0.79951 -0.004,1.57821 0.0317,2.37067 l -0.0483,0.37223 c 0.0723,0.36518 -0.0688,0.72366 0.0353,1.07155 l -0.004,0.17924 -0.0483,0.42022 c 0.0106,1.6329 0.0794,3.38717 0.0317,5.1305 l 0.0515,0.91313 -0.0688,0.81327 0.0212,0.78152 c -0.0519,0.48973 -0.0413,1.09272 0.0247,1.64737 l 0.0106,0.64462 -0.0413,0.76494 0.0282,0.23745 -0.0141,1.39898 0.0483,0.0483 c -0.0656,0.41352 0.0317,0.85456 -0.0353,1.24055 -0.0378,0.85421 0.0141,1.61914 -0.0106,2.47723 l 0.0247,0.59946 -0.0247,0.87184 0.0247,0.0896 c -0.10338,0.35848 0.1309,0.57194 0.0692,0.89936 0.0826,0.4788 0.18242,1.00945 0.16195,1.47131 l 0.15842,0.50948 c -0.0176,0.36201 0.12738,0.71025 0.20323,1.05462 l 0.16901,0.63403 c 0.25122,0.40646 0.28932,0.91666 0.64427,1.28183 l 0.36871,0.66156 0.52007,0.62381 0.62027,0.70954 0.50667,0.32037 0.35459,0.33448 c 0.4481,0.29285 0.94418,0.43045 1.39227,0.70637 l 0.386,0.15136 0.46503,0.15878 c 0.41705,0.0212 0.80622,0.18594 1.21621,0.10338 l 0.44456,0.18594 c 0.43398,0.0353 0.79246,0.17218 1.24373,0.1309 l 0.73389,0.15842 c 0.97522,-0.004 1.89187,-0.0378 2.91155,0.0212 0.82351,-0.12773 1.8573,0.048 2.66705,-0.0483 l 0.28579,0.0176 c 1.10966,-0.0176 2.16074,-0.0794 3.25628,0.007 l 0.28261,0.004 c 0.66156,-0.0653 1.35064,0 1.98467,-0.0378 l 0.68908,-0.0381 0.57194,-0.17218 0.67532,-0.22052 0.3927,-0.12737 c 0.37576,-0.0413 0.63403,-0.35495 0.96499,-0.48232 l 0.46856,-0.25157 c 0.43398,-0.0861 0.75117,-0.41352 1.07507,-0.7099 l 0.34789,-0.22052 0.24134,-0.18947 0.12032,-0.18276 0.42727,-0.35495 0.36201,-0.52007 0.4548,-0.45833 0.4308,-0.76141 0.50278,-0.75823 0.33766,-0.76494 0.29638,-0.75788 0.24804,-1.04755 0.0967,-0.42022 c -0.0861,-0.37894 0.15842,-0.62733 0.0861,-1.04755 0.18241,-0.29638 -0.0381,-0.63404 0.055,-0.96147 l -0.0106,-0.64427 z m -9.44456,-0.34436 c -0.1549,0.4615 0.12772,0.94735 0.0317,1.40532 l -0.21346,0.19336 c -0.73389,-0.0212 -1.40921,-0.0723 -2.12933,0.055 l -0.68943,-0.0826 -0.33413,0.0247 c -0.52008,-0.0515 -0.98899,0.004 -1.52635,0.0176 -0.72365,-0.0282 -1.35416,0 -2.03971,-0.0547 -0.49643,0.0826 -0.85456,-0.0106 -1.35064,-0.0177 l -0.44809,0.072 c -0.36518,-0.19935 -0.7099,0.0381 -1.08178,-0.10338 l -0.8856,0.007 c -0.1309,-0.34824 -0.0483,-0.75118 -0.0483,-1.11318 l -0.0378,-0.73389 c 0.0963,-0.42022 -0.0212,-0.82703 0.0318,-1.21268 0.0212,-0.64779 0.0586,-1.45401 0.007,-2.1191 l 0.0247,-0.61004 c -0.0794,-1.11636 -0.0519,-2.36008 -0.0353,-3.54207 l 0.004,-0.48232 c 0.0999,-2.39818 -0.15525,-4.76885 0.0515,-7.22879 -0.0896,-0.42057 0.007,-0.84079 -0.0176,-1.27513 l -0.0282,-0.36165 c 0.0519,-0.55465 -0.0758,-1.12658 0.004,-1.68159 l -0.0519,-0.67849 c 0.0656,-0.37224 0.0381,-0.73071 0.0554,-1.10612 l 0.007,-0.3172 c 0.055,-1.01615 0.0794,-1.84318 -0.0141,-2.75984 0.0656,-0.67532 -0.0176,-1.35099 0.0212,-2.01254 l -0.0212,-0.77835 0.004,-0.16547 c 0.0515,-0.86832 0,-1.70912 0.055,-2.57708 l -0.0247,-0.40681 0.004,-0.40646 c 0.0247,-1.00628 -0.007,-2.02596 -0.0106,-2.95284 -0.0282,-0.33448 0.0829,-0.67532 -0.0515,-0.99251 0.15489,-0.31332 -0.007,-0.68908 0.0723,-1.03344 l 0.055,-0.58253 -0.0413,-0.67884 0.004,-0.20994 0.055,-0.64109 c 0.94417,0.0413 1.82625,-0.0282 2.80465,-0.0141 0.65803,0.007 1.36439,-0.0621 2.06758,0.0212 l 0.84045,-0.0353 0.42057,0.0212 c 0.51337,-0.0691 1.21621,-0.004 1.70911,-0.042 l 0.2685,-0.0141 c 0.33449,0.11044 0.62028,-0.0688 0.93042,0.0282 l 0.62027,-0.0247 0.59593,0.0656 0.17924,0.1376 0.0723,0.37577 c 0.0381,0.46503 0.0212,0.86831 -0.0176,1.31958 l 0.0519,0.73742 -0.0519,0.68908 0.0247,0.5236 c 0.0247,0.55147 0.0176,1.03379 -0.0176,1.58844 l 0.055,0.49961 -0.004,0.34118 c -0.048,0.37577 -0.0212,0.69261 -0.0282,1.11248 -0.055,0.64145 -0.0176,1.46848 -0.007,2.1438 l -0.007,0.53736 c 0.0353,0.72365 0.0106,1.5334 0.0621,2.28069 -0.0282,1.09942 -0.0247,2.3435 0.007,3.47009 l -0.0318,0.28579 c 0.0247,0.55148 -0.0282,1.19928 -0.0212,1.78145 l -0.0377,0.45162 0.0515,0.90254 c -0.0963,0.39976 0.0656,0.85455 -0.0282,1.27442 0.0653,2.14698 0.0723,4.21809 0.0621,6.43704 l -0.0483,0.36165 c 0.0353,0.86832 0.0378,1.61597 0.0317,2.48781 l -0.0212,0.51302 c 0.0381,0.67214 0.0932,1.31641 0.007,2.06758 l 0.0483,0.86832 c 0.0413,0.49573 0.0353,1.17175 -0.0141,1.66783 0.0416,0.34436 0.0353,0.75117 0.0483,1.09554 l 0.0212,0.68908"
       id="path2921" />
    <path
       style="fill:#ffffff;fill-rule:nonzero;stroke:none"
       d="m 331.21354,341.66112 0.29637,0.0176 0.7166,0.14148 0.26886,0.004 0.53383,0.17571 c 0.47562,0.0963 0.89266,0.37188 1.26102,0.73001 l 0.62733,0.34154 0.62345,0.51337 0.0141,0.10338 0.64779,0.78892 0.29638,0.39976 0.47209,0.74095 0.3927,0.81292 0.22052,0.64779 0.12772,0.48938 0.0861,0.61322 0.18947,0.49608 0.14113,0.90289 0.10021,0.64427 c 0.0688,0.44421 -0.0829,0.90642 0.0353,1.33299 l -0.0653,0.41387 0.0515,0.68908 0.0586,0.47562 c -0.0759,0.3239 0.0247,0.63051 0.007,0.96428 -0.007,0.70672 0,1.41309 -0.0353,2.11628 l 0.0688,0.68908 -0.0653,0.59946 c 0.0861,0.41351 -0.0212,0.82703 0.004,1.22608 l 0.0586,0.41387 -0.37929,0.42728 -0.68555,0.0353 -0.56524,-0.0621 -0.80939,0.0829 -0.71342,-0.0829 c -0.62698,0.055 -1.37463,0.0212 -2.01219,0 l -0.24134,-0.0353 -0.62345,0.055 c -0.5857,-0.0212 -1.2716,-0.1309 -1.85377,0.0177 l -0.99569,-0.0381 -0.45162,-0.0688 -0.13443,-0.1242 -0.0378,-0.56488 c 0.004,-0.42728 0.007,-0.87537 0.0106,-1.30265 l 0.0931,-0.42728 -0.007,-0.73706 -0.0282,-0.52043 0.004,-0.35141 c -0.0515,-0.69261 0.0896,-1.3644 -0.0247,-2.08453 0.0448,-0.46185 -0.0381,-0.96499 -0.0794,-1.41273 l -0.0413,-0.36518 -0.55148,-0.007 c -0.43398,-0.0963 -0.83374,0.0688 -1.26772,-0.0106 -1.31641,-0.0106 -2.58448,0.0586 -3.82115,0.0448 l -0.6411,-0.007 c -0.35812,0 -0.65802,0.0413 -1.0165,0.0381 l -0.53383,-0.0176 c -0.34472,0.0547 -0.76176,-0.0413 -1.06132,0.0621 -0.56841,-0.0797 -1.13364,-0.1002 -1.71264,-0.0727 l -0.24451,0.25863 0.0378,0.81327 0.0317,0.0282 c -0.0515,0.33765 0.11396,0.75435 -0.15842,1.02673 0.0247,0.386 0.11044,0.73742 0.0519,1.07508 l 0.0247,0.36518 -0.0448,0.2618 0.0999,0.2618 -0.0318,0.38247 0.007,0.48937 0.0723,0.50667 -0.0794,0.70283 0.0723,0.31014 -0.048,0.10656 0.0586,0.35142 -0.007,0.79598 c -0.13796,0.35142 0.0967,0.59981 -0.007,0.97875 l -0.0483,0.29285 c 0.1309,0.30661 -0.0967,0.59593 0.0515,0.91983 l -0.079,0.56524 0.0378,0.62698 -0.0483,0.27908 0.0416,0.38247 -0.0353,0.9029 0.0656,0.72365 0.055,0.70566 0.7166,0.0353 c 0.4308,-0.0106 0.87854,0.0247 1.3404,-0.004 l 0.0759,0.0317 0.68555,-0.0377 c 0.39975,0.31014 0.85103,-0.0688 1.33017,0.11714 l 0.53736,-0.0413 c 0.64074,-0.0416 1.25431,-0.0353 1.85024,-0.10691 0.48585,0.0653 0.98193,-0.0247 1.50588,0.0106 l 0.46151,0.0967 0.28614,-0.10338 0.68202,0.0963 0.13443,-0.0759 0.0621,0.0759 c 0.66861,0.0413 1.37145,0.0141 2.06053,0.0381 l 0.48937,0.0176 0.52008,0.17254 0.77552,0.0999 0.49255,0.12737 0.69931,0.2685 0.45833,0.23111 0.52042,0.32707 0.59276,0.34154 0.48902,0.45127 0.52042,0.29285 0.71307,0.67885 0.15878,0.29284 0.28226,0.37224 0.35142,0.32707 0.53066,0.84433 c -0.0755,0.32037 0.37224,0.43433 0.3239,0.76846 l 0.17571,0.43398 0.15877,0.55148 0.0586,0.24804 0.25827,0.93712 0.0282,0.28932 0.11361,0.61357 c -0.0317,0.3239 0.0692,0.64427 0.0247,0.96817 l 0.055,0.33413 -0.004,0.64426 c -0.11008,0.43046 0.0656,0.86162 0,1.30265 l 0,0.10656 c -0.0617,0.4929 0.0519,1.01333 -0.0413,1.4713 l 0.0282,0.26216 -0.0176,0.1997 c 0.0106,0.50631 0.0519,1.00945 0.004,1.51611 l 0.0586,0.0928 c -0.11008,0.61005 0.10691,1.19222 -0.0758,1.80579 l 0.0416,0.50984 0.0282,0.38247 c 0.0377,0.40999 -0.0247,0.87184 0,1.31606 l -0.0318,0.42727 0.0377,0.73742 c 0.0282,0.30661 -0.007,0.70284 -0.007,1.02356 l 0.0515,0.83021 c -0.0353,0.29285 -0.0212,0.62698 -0.0247,0.98193 l -0.007,0.76494 c 0.0282,0.41351 -0.007,0.79598 0.004,1.17845 l -0.20323,1.07507 -0.0931,0.33096 c 0,0.33766 -0.13761,0.59946 -0.24452,0.88878 l -0.21381,0.53418 -0.25827,0.67179 c -0.24134,0.39976 -0.44104,0.74765 -0.69614,1.14388 -0.15136,0.28967 -0.46856,0.42375 -0.57193,0.74447 l -0.57194,0.64039 c -0.37541,0.0589 -0.53066,0.59311 -0.88878,0.68273 l -0.42058,0.34789 -0.40646,0.28579 -0.72012,0.39305 -0.35848,0.18242 -0.0723,0.1069 -0.13796,-0.0621 -0.56841,0.26885 -0.89583,0.26886 -0.60299,0.1309 -1.02674,0.193 c -0.46185,-0.0353 -0.89936,0.0688 -1.32664,-0.10338 l -0.79246,0.0378 -0.38917,0.0586 c -0.35848,0.0759 -0.64109,-0.0963 -0.95476,0.007 -0.59593,-0.0656 -1.20915,0.1309 -1.80543,-0.0141 -0.43046,0.13408 -0.92689,0.0353 -1.35734,0.0826 l -0.193,0.055 -0.0586,-0.0759 -0.55818,0.10338 -0.69966,0.007 -0.81998,-0.12738 -0.0723,0.0586 -0.81998,0.055 -0.73071,-0.0999 c -0.37188,-0.18629 -0.72013,0.20994 -1.07472,0.0247 l -0.88208,0.0515 c -0.42057,0.0141 -0.76176,-0.0999 -1.16469,-0.0515 l -0.57899,-0.17571 -0.64074,-0.11361 -0.46186,-0.0483 -0.50631,-0.25156 -0.71342,-0.26533 -0.99569,-0.56171 -0.47209,-0.29285 c -0.26886,-0.37188 -0.77517,-0.3306 -0.9784,-0.77869 l -0.59275,-0.67532 -0.44104,-0.65133 -0.193,-0.36835 -0.24804,-0.33837 -0.11714,-0.5991 -0.21699,-0.56877 -0.18982,-0.67143 c -0.0413,-0.37259 -0.11361,-0.72366 -0.12385,-1.10965 l -0.0826,-0.73389 -0.0282,-0.15489 c 0.0896,-0.36554 -0.0826,-0.9029 0.0416,-1.26808 l 0.0448,-0.27556 c 0.0176,-0.37223 -0.0519,-0.64779 -0.0794,-0.99921 l 0.0176,-0.35178 c 0.0353,-0.59945 -0.004,-1.22643 0.0448,-1.85341 l -0.0692,-0.55148 c -0.0723,-0.35177 0.0794,-0.72012 -0.048,-1.08883 0.15137,-0.44457 -0.0554,-0.87502 -0.007,-1.37816 l 0.11043,-0.56841 -0.0416,-0.55147 0.007,-0.85809 0.0483,-0.41316 0.079,-0.16901 0.65485,0.0378 0.38917,0.0483 c 0.83409,-0.1309 1.68512,-0.0317 2.56367,-0.055 0.7166,0.0413 1.4332,-0.0176 2.13639,0.0176 l 0.67179,-0.0381 c 0.46503,0.004 0.94064,-0.0413 1.38521,-0.003 l 0.25474,0.003 0.56876,-0.0413 0.62698,0.0212 0.29638,0.27909 c 0.0413,0.32037 -0.12737,0.57864 -0.007,0.87149 l 0.0381,0.50631 -0.0483,0.41034 c -0.11008,0.61322 0.11044,1.22997 -0.0759,1.79167 l 0.0551,0.772 c -0.1549,0.42727 -0.0515,0.86831 -0.0413,1.32982 l 0.0381,0.73741 0.0106,0.25863 -0.0177,0.49255 0.0967,0.81327 -0.0176,0.53383 0.0999,0.20359 c 0.70284,0.003 1.44731,0.0413 2.13639,-0.0141 l 0.60969,0.0353 0.80304,-0.007 c 0.37894,-0.16548 0.73389,-0.0554 1.12306,-0.0554 l 0.44809,-0.0826 0.40294,0 c 0.28261,0.18595 0.64109,0.0378 0.98192,0.14466 0.46539,-0.14466 1.03027,0.10338 1.43708,-0.13831 l 0.56488,0.0833 0.61005,0.0353 0.47879,-0.0586 0.31367,-0.0727 0.22404,0.0759 0.58217,-0.11714 0.22758,-0.50349 c 0.0515,-0.64039 -0.0483,-1.36404 -0.0282,-1.99102 l -0.0444,-0.0483 c -0.0247,-0.39623 0.0826,-0.76493 -0.004,-1.13011 l 0.0353,-0.6478 0.0353,-0.64074 c -0.0247,-0.68908 -0.0353,-1.3644 -0.0413,-2.02278 0.0653,-0.6926 -0.0212,-1.3471 0.0176,-2.03618 l -0.0247,-0.59946 c 0.0106,-0.95123 0.0141,-1.92963 -0.048,-2.89498 0.0755,-0.37153 -0.1002,-0.75399 -0.007,-1.13646 -0.0758,-0.32037 0.0519,-0.68908 -0.11008,-1.01298 l -0.11714,-0.0448 c -0.37576,0.0586 -0.76176,-0.0519 -1.0786,0.079 l 0,0.0621 -0.61005,-0.12384 c -0.53736,-0.18947 -0.95758,0.17218 -1.46071,0.0176 l -0.62734,0.007 c -1.02991,-0.0247 -2.01536,0.10691 -3.13525,0.0378 l -0.34471,0.0282 c -0.74412,0.007 -1.50906,0.048 -2.25,-0.007 l -0.37189,0.0282 -0.71695,-0.12737 c -0.34118,-0.0177 -0.65803,0.0378 -0.9544,-0.055 l -0.7166,-0.004 -0.65486,-0.14466 c -0.40293,-0.0829 -0.75788,-0.29638 -1.19186,-0.24134 -0.3239,-0.1997 -0.71695,-0.12737 -1.04402,-0.36165 l -0.47209,-0.15525 -0.23781,-0.18594 -0.75823,-0.33095 -0.35812,-0.19971 c -0.34119,-0.14466 -0.56171,-0.46503 -0.84433,-0.69613 l -0.34118,-0.22052 c -0.27909,-0.30661 -0.54442,-0.73742 -0.78188,-1.07507 l -0.36553,-0.77164 -0.18947,-0.61675 -0.21699,-0.46186 -0.20323,-0.6926 c -0.0723,-0.35142 -0.25157,-0.67532 -0.23075,-1.05779 l -0.0861,-0.41669 -0.11397,-0.71695 -0.007,-0.66156 -0.0759,-0.0928 c 0.0483,-0.54794 -0.0826,-0.99604 -0.0353,-1.56092 l -0.007,-0.37223 0.1376,-0.86832 -0.0515,-0.84397 c -0.0247,-0.39976 -0.0247,-0.7547 0.0247,-1.16822 l -0.0282,-0.0282 -0.007,-0.9784 0.007,-0.66155 0.004,-0.59982 c -0.0106,-0.64074 -0.0656,-1.19221 -0.0141,-1.79167 l -0.0381,-1.0405 c -0.079,-1.06131 0.11044,-2.12933 0.0141,-3.23192 l 0.0212,-0.73742 0.007,-0.7787 0.055,-0.81327 0,-0.33766 0.0963,-0.81292 0.12419,-0.53066 0.10691,-0.39975 0.20323,-0.9029 0.36518,-0.88878 0.25827,-0.4548 0.34824,-0.67214 0.33414,-0.65803 0.36165,-0.4996 0.57193,-0.48585 0.12067,-0.10338 c 0.36201,-0.22722 0.51337,-0.7166 0.92018,-0.85103 l 0.62698,-0.47209 c 0.40294,-0.13442 0.63051,-0.46855 1.04756,-0.54441 l 0.46856,-0.17959 0.59593,-0.20606 0.23781,-0.0896 0.70283,-0.0554 0.59946,-0.17889 c 0.52396,-0.0282 1.19222,0.0688 1.68512,-0.0621 0.31367,0.079 0.68908,0.0515 1.01651,0.0826 l 0.62698,-0.0247 0.68554,0.007 0.56877,-0.0861 0.3239,0.0483 0.58217,-0.10338 0.67531,0.0826 0.35495,-0.0586 c 0.7787,-0.0378 1.44731,0.0586 2.23977,-0.0247 l 0.9096,0.0515 0.28261,0.004 c 0.38918,-0.0586 0.76141,-0.10338 1.13682,0.055 0.81998,-0.1309 1.60926,0.0448 2.44653,-0.1309 l 0.24098,0.0621 0.3239,-0.0413"
       id="path2923" />
    <path
       style="fill:#ffffff;fill-rule:nonzero;stroke:none"
       d="m 373.15344,352.05974 0,-2.05383 -0.12067,-0.75788 c -0.0318,-0.3306 -0.0621,-0.69578 -0.0931,-1.05778 -0.33413,-0.24099 0.0621,-0.75436 -0.33413,-0.99922 -0.14819,-0.93359 -0.75435,-1.72252 -1.29559,-2.47758 -0.12385,-0.66826 -0.75788,-0.90924 -1.11989,-1.45366 -0.45479,0 -0.36518,-0.63439 -0.81997,-0.63439 -0.72366,-0.48584 -1.54011,-0.96781 -2.41866,-0.99886 l -0.0896,-0.11714 -0.36165,0 -0.78575,-0.1242 c -0.42728,-0.20993 -0.9096,0.0318 -1.3023,-0.12031 -0.57229,0.30308 -1.29912,0.0928 -1.84354,0.12031 l -0.63403,-0.0282 -4.32429,0.0282 c -0.39623,-0.0586 -0.78893,0.1242 -1.15094,0.27239 -1.38838,0.18241 -2.59789,0.93712 -3.56958,1.90528 -0.24099,0.30344 -0.26851,0.84785 -0.72331,0.84785 -0.15171,-0.93747 0.0353,-1.90563 -0.0282,-2.84275 l -0.18241,-0.18277 c -1.12342,0.0621 -2.50863,-0.0586 -3.60064,-0.0282 -0.4548,0.0282 -0.93747,-0.0318 -1.35769,0.0282 -0.30308,-0.362 -0.60652,0.30344 -0.87855,-0.0896 -0.33413,0.17924 -0.66509,-0.0317 -1.08883,0 -0.78893,0.27239 -1.60221,0 -2.39114,0 l -0.27238,0.63404 c 0.0317,1.03027 -0.0282,1.90881 -0.0896,2.87381 0.18277,0.69542 -0.0586,1.36086 0.0621,2.02595 l -0.0621,0.69613 0,3.35577 c -0.12067,1.60221 0.21029,3.29403 -0.0282,4.96186 -0.0621,1.41944 0.0896,2.80818 0,4.29324 l 0.0586,0.0586 c 0,0.4548 -0.15171,0.87502 -0.0318,1.24055 l -0.12067,1.05779 c 0.18277,1.05778 -0.0282,2.02595 0.0931,3.11478 0.0896,1.54364 -0.0621,3.14584 0,4.68595 l -0.0931,0.0621 0.0317,0.17924 c -0.12066,0.36518 0.15172,0.81998 -0.0896,1.08848 l 0.15171,0.1242 -0.0621,2.99412 c 0.0896,0.4241 0.0318,0.85103 -0.0586,1.2716 0.0586,1.3023 0.0282,2.48075 0.0282,3.77635 l 0,0.42727 c 0.0932,1.45049 -0.0282,3.08374 -0.0282,4.62385 l -0.0317,0.362 c 0.0896,0.51337 -0.0617,1.18163 0.0317,1.69853 -0.0621,1.81249 0.12067,3.90054 0,5.61953 0.23781,0.51372 -0.0317,0.96852 0.12067,1.54398 l -0.0621,0.57547 -0.0896,0.63404 c 0.15171,1.08883 0,2.17767 0.0896,3.2044 l 0,0.30308 c 0.0318,0.45127 -0.0317,0.96817 -0.0586,1.39192 l 0.5102,0.33096 2.63564,0.0317 0.33096,-0.0931 c 0.42375,-0.15171 0.84397,0.1242 1.23702,-0.0896 0.63721,0.18277 1.39192,0.15172 2.02948,0.1242 0.7233,0.0282 1.32982,-0.21381 2.08452,-0.0621 0.33413,-0.18276 0.72366,0.21347 1.02674,-0.18276 0.15489,-1.05779 0.0317,-2.14662 0.12384,-3.17336 l -0.0617,-0.0896 c 0.0928,-0.36518 -0.0318,-0.78893 -0.0621,-1.06096 0.0621,-1.90564 0.0621,-3.80739 0,-5.74408 l 0.15489,-0.18241 0.5102,0.45479 c 1.24019,0.93677 2.54284,1.87424 4.23467,1.72288 l 0.51337,0 c 0.75788,-0.0586 1.39191,0.12031 2.08805,0 0.72683,0.12031 1.63325,0.0893 2.3876,0.0282 1.24055,-0.0282 2.60142,0 3.81445,-0.21029 l 0.59946,-0.0586 c 0.33413,0.15172 0.54795,-0.30308 0.87855,-0.12066 2.3569,-0.75788 4.14505,-2.5118 5.23036,-4.71699 l 0.15171,-0.33413 0.18277,-0.42375 c 0.0928,-0.33096 0.0586,-0.81681 0.27203,-1.15094 0.27239,-2.17414 0.0586,-4.47248 0.18277,-6.67767 -0.21382,-1.27477 -0.0318,-2.93555 -0.0318,-4.38956 -0.0586,-1.72287 0.12067,-3.35612 0,-4.96186 l 0.0621,-0.48231 -0.0621,-0.81328 c 0.0318,-4.44813 0.0318,-9.10303 0.0621,-13.48977 l 0,-0.63721 c -0.0621,-0.59946 0.17924,-1.08531 -0.0621,-1.66077 z m -9.37224,3.29755 -0.12384,0.42375 0.0621,0.81327 c 0.12031,1.2402 -0.0621,2.60495 0.0617,3.81093 -0.0928,1.32981 0.0586,2.29798 0,3.6592 -0.24451,0.78893 0.0586,1.63325 -0.12384,2.32904 0.0621,0.63403 -0.0318,1.39226 0.0621,2.1191 -0.21382,3.2044 0.0896,6.98392 -0.12067,10.25078 -0.0353,1.15093 0.12067,2.30151 0,3.44892 -0.39623,0.20993 -0.94065,0.0586 -1.3644,0.14819 l -0.6926,0 c -0.66862,-0.0282 -1.30265,0.0617 -1.96739,-0.0586 -1.81249,0.0896 -3.71812,0.18276 -5.47169,0 l -0.0621,0.0586 -1.9949,-0.0282 c 0.0282,-0.60652 0.0617,-1.11988 0.0617,-1.66077 l 0,-0.81998 c -0.0928,-0.36201 0.0932,-0.75471 -0.0617,-1.11636 0,-0.4548 -0.0318,-0.8789 0.0282,-1.2716 -0.11714,-4.14505 0.18242,-8.28658 0.0353,-12.33883 0.0931,-3.32825 -0.0353,-6.50514 0.12066,-9.9784 l 0,-0.63404 c -0.18241,-0.57864 0.0621,-1.21268 -0.12066,-1.7885 0.21028,-0.45091 -0.12385,-0.81609 0.14819,-1.23667 2.23976,-0.0353 4.5381,-0.0353 6.86396,-0.15171 1.3023,0.24133 2.66316,0 4.08295,0.0896 l 0.48585,0 c 0.17924,0.39306 0.0586,0.84786 0.0928,1.29877 l -0.0928,0.066 0.0928,0.14466 c -0.0353,0.57865 0.0586,1.33335 -0.0618,1.84672"
       id="path2925" />
  </g>
</svg>
