<?xml version="1.0" encoding="UTF-8" standalone="no"?>
<!-- Created with Inkscape (http://www.inkscape.org/) -->
<svg
   xmlns:dc="http://purl.org/dc/elements/1.1/"
   xmlns:cc="http://web.resource.org/cc/"
   xmlns:rdf="http://www.w3.org/1999/02/22-rdf-syntax-ns#"
   xmlns:svg="http://www.w3.org/2000/svg"
   xmlns="http://www.w3.org/2000/svg"
   xmlns:sodipodi="http://sodipodi.sourceforge.net/DTD/sodipodi-0.dtd"
   xmlns:inkscape="http://www.inkscape.org/namespaces/inkscape"
   width="657"
   height="151"
   id="svg2"
   sodipodi:version="0.32"
   inkscape:version="0.45.1"
   version="1.0"
   inkscape:output_extension="org.inkscape.output.svg.inkscape">
  <g
     inkscape:label="Layer 1"
     inkscape:groupmode="layer"
     id="layer1"
     transform="translate(-8.4801917,-265.55021)">
    <g
       id="g4520"
       transform="matrix(4.56621,0,0,4.56621,-1416.3181,-1052.7937)">
      <path
         style="fill:#4dbc37;fill-rule:nonzero;stroke:none"
         d="M 382.34583,321.78632 L 408.80283,321.78632 L 408.80283,301.94332 L 382.34583,301.94332 L 382.34583,321.78632 z "
         id="path2256" />
      <path
         style="fill:#548f1e;fill-rule:nonzero;stroke:none"
         d="M 394.43683,298.00532 C 393.31083,297.40532 392.21883,296.76332 391.16583,296.08332 L 391.16583,301.20032 C 392.18183,300.10632 393.27283,299.03932 394.43683,298.00532"
         id="path2258" />
      <path
         style="fill:#221e1f;fill-rule:nonzero;stroke:none"
         d="M 408.80283,303.07532 C 407.23483,302.76032 405.69283,302.38332 404.18183,301.94432 L 391.16583,301.94432 L 391.16583,308.55732 L 408.80283,308.55732 L 408.80283,303.07532"
         id="path2260" />
      <path
         style="fill:#221e1f;fill-rule:nonzero;stroke:none"
         d="M 404.18183,301.94432 C 405.69283,302.38332 407.23483,302.76032 408.80283,303.07532 L 408.80283,301.94432 L 404.18183,301.94432"
         id="path2262" />
      <path
         style="fill:#595801;fill-rule:nonzero;stroke:none"
         d="M 426.60383,303.86832 C 420.53383,304.51632 414.49683,304.21432 408.80283,303.07532 L 408.80283,308.55732 L 429.34583,308.55732 C 428.78883,307.77332 428.26583,306.96732 427.78483,306.14032 C 427.34983,305.39532 426.95683,304.63732 426.60383,303.86832"
         id="path2264" />
      <path
         style="fill:#548f1e;fill-rule:nonzero;stroke:none"
         d="M 433.57383,302.70032 C 431.25783,303.23432 428.92783,303.61932 426.60383,303.86832 C 426.95683,304.63732 427.34983,305.39532 427.78483,306.14032 C 428.26583,306.96732 428.78883,307.77332 429.34583,308.55732 L 455.83783,308.55732 L 455.83783,300.55032 C 454.23783,297.81032 452.39483,295.37932 450.34183,293.28132 C 446.33783,297.79032 440.69783,301.06132 433.57383,302.70032"
         id="path2266" />
      <path
         style="fill:#4dbc37;fill-rule:nonzero;stroke:none"
         d="M 455.83783,300.55032 L 455.83783,288.71732 L 453.60283,288.71732 C 452.67883,290.35132 451.58783,291.87532 450.34183,293.28132 C 452.39483,295.37932 454.23783,297.81032 455.83783,300.55032"
         id="path2268" />
      <path
         style="fill:#548f1e;fill-rule:nonzero;stroke:none"
         d="M 450.34183,293.28132 C 451.58783,291.87532 452.67883,290.35132 453.60283,288.71732 L 444.75683,288.71732 C 446.75283,289.99632 448.62183,291.52232 450.34183,293.28132"
         id="path2270" />
      <path
         style="fill:#4dbc37;fill-rule:nonzero;stroke:none"
         d="M 408.80383,288.71732 L 391.16583,288.71732 L 391.16583,296.08332 C 392.21883,296.76332 393.31083,297.40532 394.43683,298.00532 C 398.41883,294.46932 403.24883,291.31332 408.80383,288.71732"
         id="path2272" />
      <path
         style="fill:#548f1e;fill-rule:nonzero;stroke:none"
         d="M 404.18183,301.94432 L 408.80283,301.94432 L 408.80283,303.07532 C 414.49683,304.21432 420.53383,304.51632 426.60383,303.86832 C 424.42583,299.11932 423.80183,293.96032 424.59083,288.71732 L 408.80383,288.71732 C 403.24883,291.31332 398.41883,294.46932 394.43683,298.00532 C 397.46283,299.61932 400.73683,300.94232 404.18183,301.94432"
         id="path2274" />
      <path
         style="fill:#595801;fill-rule:nonzero;stroke:none"
         d="M 426.60383,303.86832 C 428.92783,303.61932 431.25783,303.23432 433.57383,302.70032 C 440.69783,301.06132 446.33783,297.79032 450.34183,293.28132 C 448.62183,291.52232 446.75283,289.99632 444.75683,288.71732 L 424.59083,288.71732 C 423.80183,293.96032 424.42583,299.11932 426.60383,303.86832"
         id="path2276" />
      <path
         style="fill:#595801;fill-rule:nonzero;stroke:none"
         d="M 394.43683,298.00532 C 393.27283,299.03932 392.18183,300.10632 391.16583,301.20032 L 391.16583,301.94432 L 404.18183,301.94432 C 400.73683,300.94232 397.46283,299.61932 394.43683,298.00532"
         id="path2278" />
      <path
         style="fill:#ffffff;fill-rule:nonzero;stroke:none"
         d="M 437.37583,297.44932 L 437.93883,297.44932 C 439.25483,297.44932 440.15783,296.82132 440.15783,295.88032 C 440.15783,295.07432 439.51983,294.63032 438.36583,294.63032 L 437.77283,294.63032 L 437.37583,297.44932 z M 443.75383,304.33132 L 440.11083,304.33132 L 437.16283,299.44132 L 436.57083,304.33132 L 433.44083,304.33132 L 434.95683,291.98132 L 438.97683,291.98132 C 441.90783,291.98132 443.33983,293.21532 443.33983,295.73632 C 443.33983,297.03532 443.00983,297.94132 442.25383,298.64932 C 441.85783,299.02932 441.52983,299.20732 440.72083,299.53632 L 443.75383,304.33132"
         id="path2280" />
      <path
         style="fill:#ffffff;fill-rule:nonzero;stroke:none"
         d="M 450.14083,304.33132 L 446.93083,304.33132 L 446.93083,294.69832 L 444.33083,294.69832 L 444.33083,291.98132 L 452.81083,291.98132 L 452.81083,294.69832 L 450.14083,294.69832 L 450.14083,304.33132"
         id="path2282" />
      <path
         style="fill:#ffffff;fill-rule:nonzero;stroke:none"
         d="M 404.42083,295.19532 C 403.74983,294.61732 403.09283,294.35332 402.38883,294.35332 C 401.61983,294.35332 401.04283,294.81432 401.04283,295.42432 C 401.04283,295.65432 401.13783,295.86832 401.33183,296.03332 C 401.53983,296.23032 401.82683,296.37932 402.13083,296.47832 C 402.30783,296.54332 402.67583,296.64432 403.20583,296.80632 C 404.30983,297.15432 404.87283,297.46632 405.38183,298.04332 C 405.92583,298.63532 406.15083,299.29432 406.15083,300.24832 C 406.15083,301.00632 405.95783,301.96232 405.70283,302.49132 C 405.02983,303.82432 403.41183,304.66332 401.47483,304.66332 C 400.52983,304.66332 399.73083,304.48232 398.75183,304.07132 C 398.11083,303.80832 397.87183,303.65932 397.29683,303.24632 L 398.62483,300.68032 C 399.58383,301.53232 400.46483,301.93032 401.37983,301.93032 C 402.30783,301.93032 402.88383,301.45132 402.88383,300.71132 C 402.88383,300.46432 402.78983,300.21832 402.62783,300.05132 C 402.30783,299.72232 402.01983,299.59232 401.00983,299.29432 C 400.01683,298.99832 399.63183,298.85132 399.18483,298.60332 C 398.23983,298.11032 397.77483,297.18532 397.77483,295.85332 C 397.77483,293.36632 399.42383,291.68532 401.85883,291.68532 C 403.12483,291.68532 404.46883,292.03232 405.67083,292.69032 L 404.42083,295.19532"
         id="path2284" />
      <path
         style="fill:#ffffff;fill-rule:nonzero;stroke:none"
         d="M 412.34083,297.64832 C 413.52283,297.64832 414.05383,297.17032 414.05383,296.11532 C 414.05383,295.07932 413.49383,294.56832 412.35583,294.56832 L 411.31583,294.56832 L 411.31583,297.64832 L 412.34083,297.64832 z M 411.31583,304.33432 L 408.19083,304.33432 L 408.19083,291.98232 L 413.15683,291.98232 C 414.56583,291.98232 415.36683,292.26232 416.14983,293.02032 C 416.93683,293.77732 417.31983,294.79832 417.31983,296.08132 C 417.31983,298.76932 415.89483,300.23332 413.26883,300.23332 L 411.31583,300.23332 L 411.31583,304.33432"
         id="path2286" />
      <path
         style="fill:#ffffff;fill-rule:nonzero;stroke:none"
         d="M 425.53283,301.64932 C 423.51183,301.64932 421.88983,300.01532 421.88983,297.99032 C 421.88983,296.03132 423.54683,294.41532 425.53283,294.41532 C 427.55183,294.41532 429.17383,296.03132 429.17383,298.02332 C 429.17383,300.03332 427.55183,301.64932 425.53283,301.64932 z M 425.46683,291.55032 C 421.54983,291.55032 418.63683,294.43232 418.63683,298.28032 C 418.63683,301.94932 421.64783,304.79632 425.53283,304.79632 C 429.46483,304.79632 432.43183,301.94932 432.43183,298.16532 C 432.43183,294.36532 429.46483,291.55032 425.46683,291.55032"
         id="path2288" />
      <path
         style="fill:#221e1f;fill-rule:nonzero;stroke:none"
         d="M 376.35183,315.17132 L 395.57283,315.17132 L 395.57283,295.32932 L 376.35183,295.32932 L 376.35183,315.17132 z "
         id="path2290" />
      <g
         transform="matrix(1,0,0,-1,-29.544171,940.21332)"
         clip-path="url(#id182)"
         id="g2292">
        <path
           style="fill:#ffffff;fill-rule:nonzero;stroke:none"
           d="M 421.847,634.089 C 421.847,634.089 421.831,634.054 421.781,634.054 L 417.497,634.054 C 417.43,634.054 417.396,634.021 417.396,634.021 C 417.396,634.021 417.346,634.006 417.346,633.922 L 417.346,629.358 C 417.346,629.289 417.314,629.273 417.314,629.273 C 417.314,629.273 417.296,629.238 417.247,629.238 L 413.849,629.238 C 413.801,629.238 413.766,629.273 413.766,629.273 C 413.766,629.273 413.751,629.289 413.751,629.372 L 413.751,633.937 C 413.751,633.987 413.701,634.021 413.701,634.021 C 413.701,634.021 413.683,634.054 413.632,634.054 L 409.251,634.054 C 409.167,634.054 409.15,634.071 409.15,634.071 C 409.15,634.071 409.116,634.104 409.116,634.206 L 409.116,637.55 C 409.116,637.583 409.15,637.632 409.15,637.632 C 409.15,637.632 409.167,637.649 409.2,637.649 L 413.683,637.649 C 413.718,637.649 413.718,637.668 413.718,637.668 C 413.718,637.668 413.751,637.682 413.751,637.717 L 413.751,641.712 C 413.751,641.762 413.766,641.797 413.766,641.797 C 413.766,641.797 413.801,641.812 413.9,641.812 L 417.23,641.812 C 417.296,641.812 417.314,641.797 417.314,641.797 C 417.314,641.797 417.346,641.762 417.346,641.696 L 417.346,637.682 L 421.697,637.682 C 421.813,637.682 421.847,637.668 421.847,637.668 C 421.847,637.668 421.897,637.649 421.897,637.55 L 421.897,634.173 C 421.897,634.138 421.847,634.089 421.847,634.089"
           id="path2294" />
        <path
           style="fill:#a7a5a5;fill-rule:nonzero;stroke:none"
           d="M 341.575,625.042 L 405.897,625.042 L 405.897,644.882 L 341.575,644.882 L 341.575,625.042 z "
           id="path2296" />
      </g>
      <path
         style="fill:#ffffff;fill-rule:nonzero;stroke:none"
         d="M 374.58083,310.82532 C 374.56383,310.92832 374.54683,310.96032 374.54683,310.96032 C 374.54683,310.96032 374.52983,310.99432 374.44683,310.99432 L 367.55783,310.99432 C 367.35783,310.99432 367.30883,310.94232 367.30883,310.94232 C 367.30883,310.94232 367.27583,310.87632 367.29183,310.72732 L 368.99683,298.85932 C 369.01183,298.70732 369.04583,298.65932 369.04583,298.65932 C 369.04583,298.65932 369.06483,298.65932 369.23083,298.65932 L 372.35783,298.65932 C 372.44083,298.65932 372.47483,298.67532 372.47483,298.67532 C 372.47483,298.67532 372.48983,298.72332 372.47483,298.79232 L 371.18783,308.06932 C 371.16983,308.16932 371.21983,308.18632 371.21983,308.18632 C 371.21983,308.18632 371.25283,308.20232 371.38683,308.20232 L 374.79683,308.20232 C 374.86483,308.20232 374.89783,308.23632 374.89783,308.23632 C 374.89783,308.23632 374.91583,308.25332 374.91583,308.33532 L 374.58083,310.82532 z M 365.80483,311.01132 L 362.74583,311.01132 C 362.67883,311.04432 362.62683,310.97732 362.62683,310.97732 C 362.62683,310.97732 362.61183,310.96032 362.59383,310.86132 L 362.19283,308.97132 C 362.15983,308.87132 362.12483,308.82232 362.12483,308.82232 C 362.12483,308.82232 362.04183,308.77132 361.94383,308.77132 L 357.96283,308.77132 C 357.88083,308.77132 357.82983,308.82232 357.82983,308.82232 C 357.82983,308.82232 357.76283,308.88832 357.73083,308.99032 L 356.82783,310.90932 C 356.81183,310.96032 356.77883,310.97732 356.77883,310.97732 C 356.77883,310.97732 356.71083,310.99432 356.67583,310.99432 L 353.23283,310.99432 C 353.15083,311.01132 353.11683,310.96032 353.11683,310.96032 C 353.11683,310.96032 353.09883,310.92832 353.15083,310.86132 L 359.21783,298.74232 C 359.25083,298.72332 359.28483,298.67532 359.28483,298.67532 C 359.28483,298.67532 359.31883,298.65932 359.41783,298.65932 L 363.17983,298.65932 C 363.26183,298.65932 363.31283,298.70732 363.31283,298.70732 C 363.31283,298.70732 363.32883,298.72332 363.34683,298.77332 L 365.86983,310.94232 C 365.86983,310.97732 365.85383,310.99432 365.85383,310.99432 C 365.85383,310.99432 365.85383,311.01132 365.80483,311.01132 z M 351.47783,310.99432 L 348.41983,310.99432 C 348.36883,310.99432 348.31983,310.99432 348.31983,310.99432 C 348.31983,310.99432 348.30183,310.97732 348.28483,310.96032 L 344.03983,303.42232 C 344.00583,303.39032 343.99083,303.39032 343.99083,303.39032 C 343.99083,303.39032 343.95583,303.39032 343.95583,303.43932 L 342.90383,310.84432 C 342.88483,310.92832 342.87083,310.94232 342.87083,310.94232 C 342.87083,310.94232 342.83583,310.96032 342.78583,310.96032 L 339.74383,310.96032 C 339.69283,310.96032 339.66183,310.92832 339.66183,310.92832 C 339.66183,310.92832 339.59283,310.86132 339.60983,310.79232 L 341.28183,298.81032 C 341.29683,298.74232 341.33083,298.72332 341.33083,298.72332 C 341.33083,298.72332 341.38083,298.67532 341.43283,298.67532 L 344.82483,298.67532 C 344.87483,298.67532 344.90883,298.70732 344.90883,298.70732 C 344.90883,298.70732 344.94283,298.72332 344.95983,298.77332 L 348.78883,305.49532 C 348.85483,305.62732 348.90383,305.61332 348.90383,305.61332 C 348.90383,305.61332 348.95583,305.61332 348.98683,305.46132 L 349.95783,298.77332 C 349.95783,298.72332 349.99183,298.70732 349.99183,298.70732 C 349.99183,298.70732 350.00683,298.67532 350.05783,298.67532 L 353.25083,298.70732 C 353.31683,298.70732 353.33283,298.72332 353.33283,298.72332 C 353.33283,298.72332 353.34883,298.74232 353.34883,298.77332 L 351.62783,310.86132 C 351.61183,310.92832 351.57883,310.97732 351.57883,310.97732 C 351.57883,310.97732 351.56183,310.99432 351.47783,310.99432 z M 338.10583,310.96032 L 335.13083,310.97732 C 335.06483,310.97732 335.01383,310.94232 335.01383,310.94232 C 335.01383,310.94232 334.99783,310.92832 334.97983,310.81132 L 334.51183,308.88832 C 334.51183,308.83632 334.47983,308.82232 334.47983,308.82232 C 334.47983,308.82232 334.46183,308.82232 334.42783,308.82232 L 330.23083,308.82232 C 330.14883,308.82232 330.09983,308.88832 330.09983,308.88832 C 330.09983,308.88832 330.03183,308.93932 329.98183,309.05532 L 329.14683,310.84432 C 329.11383,310.90932 329.09583,310.92832 329.09583,310.92832 C 329.09583,310.92832 329.04583,310.96032 328.99783,310.96032 L 325.53583,310.96032 C 325.43483,310.97732 325.41783,310.92832 325.41783,310.92832 C 325.41783,310.92832 325.40183,310.87632 325.43483,310.81132 L 331.43583,298.74232 C 331.47083,298.67532 331.51983,298.65932 331.51983,298.65932 C 331.51983,298.65932 331.55383,298.65932 331.63783,298.65932 L 335.46583,298.65932 C 335.53183,298.65932 335.58183,298.70732 335.58183,298.70732 C 335.58183,298.70732 335.59883,298.72332 335.61583,298.77332 L 338.18883,310.87632 C 338.18883,310.92832 338.15583,310.94232 338.15583,310.94232 C 338.15583,310.94232 338.13983,310.96032 338.10583,310.96032 z M 360.77283,302.15232 C 360.77283,302.15232 360.75383,302.15232 360.74083,302.21732 L 359.06683,305.99632 C 359.03283,306.11432 359.05083,306.12932 359.05083,306.12932 C 359.05083,306.12932 359.09983,306.16432 359.13383,306.16432 L 361.60683,306.14832 C 361.62483,306.14832 361.64083,306.14832 361.64083,306.14832 C 361.64083,306.14832 361.65783,306.12932 361.64083,306.08132 L 360.80683,302.20232 C 360.78883,302.15232 360.77283,302.15232 360.77283,302.15232 z M 333.02683,302.20232 C 333.02683,302.20232 333.00783,302.20232 332.99183,302.23632 L 331.31883,306.03032 C 331.28583,306.08132 331.30383,306.11432 331.30383,306.11432 C 331.30383,306.11432 331.31883,306.12932 331.40383,306.12932 L 333.86183,306.14832 C 333.87683,306.14832 333.89283,306.12932 333.89283,306.12932 C 333.89283,306.12932 333.91083,306.11432 333.89283,306.06432 L 333.04183,302.23632 C 333.04183,302.20232 333.02683,302.20232 333.02683,302.20232 z M 324.46483,310.54332 C 324.44983,310.67532 324.38283,310.77832 324.38283,310.77832 C 324.38283,310.77832 324.31583,310.84432 324.19883,310.87632 C 322.59383,311.53232 320.80483,311.31232 320.80483,311.31232 C 317.91483,310.99432 316.07483,309.22232 315.48883,306.93232 C 314.62183,303.50732 316.34283,301.06632 316.75983,300.54632 C 317.77983,299.32632 319.36683,298.45832 320.92183,298.25732 C 322.91183,297.97332 324.38283,298.44132 324.98483,298.64232 C 324.98483,298.64232 325.65283,298.85932 326.15383,299.19432 C 326.40683,299.36032 326.43983,299.42832 326.43983,299.42832 C 326.43983,299.42832 326.45483,299.45832 326.38783,299.72732 L 325.91983,302.18432 C 325.90283,302.28632 325.83583,302.33832 325.83583,302.33832 C 325.83583,302.33832 325.80183,302.35332 325.56883,302.20232 C 324.06483,301.13332 322.30883,301.26832 322.30883,301.26832 C 320.97083,301.35032 319.41783,302.05232 318.95083,303.82232 C 318.53183,305.39632 318.96483,306.71632 319.90183,307.50232 C 320.53783,308.05332 321.52383,308.33532 322.55983,308.28632 C 323.69583,308.20232 324.59883,307.75232 324.53183,307.78432 C 324.53183,307.78432 324.58283,307.76732 324.63283,307.75232 C 324.86683,307.63632 324.91683,307.65232 324.91683,307.65232 C 324.91683,307.65232 324.96683,307.70132 324.93283,307.85032 L 324.46483,310.54332"
         id="path2298" />
    </g>
  </g>
</svg>
