<?xml version="1.0" encoding="utf-8"?>
<!-- Generator: Adobe Illustrator 15.0.0, SVG Export Plug-In . SVG Version: 6.00 Build 0)  -->
<!DOCTYPE svg PUBLIC "-//W3C//DTD SVG 1.1//EN" "http://www.w3.org/Graphics/SVG/1.1/DTD/svg11.dtd">
<svg version="1.1"
	 id="logo_cinq" xmlns:dc="http://purl.org/dc/elements/1.1/" xmlns:rdf="http://www.w3.org/1999/02/22-rdf-syntax-ns#" xmlns:cc="http://creativecommons.org/ns#" xmlns:svg="http://www.w3.org/2000/svg"
	 xmlns="http://www.w3.org/2000/svg" xmlns:xlink="http://www.w3.org/1999/xlink" x="0px" y="0px" width="177px" height="149px"
	 viewBox="0 0 177 149" enable-background="new 0 0 177 149" xml:space="preserve">
<g id="layer">
	<path id="path3606" fill="#303090" stroke="#000000" d="M41.719,31.5L32,95.5h45.844c4.968-2.648,12.502-3,18.656-3
		c13.004,0,21,5.699,21,11.5c0,7.364-12.898,11.5-22,11.5c-9,0-22.969-4.423-22.969-12h-44c-1.583,31.449,39.191,42,68.969,42
		c27.277,0,74-5.943,74-41c0-25.352-26.734-38-72-38c-9.029,0-18.49,0.785-27.469,2.5l1.125-7.5H164.5v-30H41.719z"/>
	
		<linearGradient id="path3623_1_" gradientUnits="userSpaceOnUse" x1="92.5957" y1="5.063" x2="99.0958" y2="65.9635" gradientTransform="matrix(1 0 0 -1 4 144)">
		<stop  offset="0" style="stop-color:#8090D0"/>
		<stop  offset="1" style="stop-color:#2030A0"/>
	</linearGradient>
	<path id="path3623" fill="url(#path3623_1_)" stroke="#7EA1F5" d="M44.313,34.5l-8.813,58h41.844c5.856-2.771,13.184-3,19.156-3
		c6.939,0,12.689,1.498,16.906,4s7.094,6.222,7.094,10.5c0,2.717-1.236,5.144-2.969,6.969s-3.977,3.192-6.406,4.281
		c-4.86,2.178-10.62,3.25-15.625,3.25c-4.991,0-10.967-1.141-16.063-3.406c-2.548-1.133-4.888-2.568-6.719-4.438
		c-1.134-1.157-1.942-2.594-2.5-4.156H31.625c0.506,12.769,8.744,21.255,20.938,27.094c13.097,6.271,30.403,8.906,44.938,8.906
		c13.422,0,31.678-1.526,46.156-7.156c7.238-2.814,13.498-6.629,17.875-11.625s6.969-11.121,6.969-19.219
		c0-11.621-5.758-19.868-17.406-25.844S121.854,69.5,99.5,69.5c-8.785,0-21.401,1.291-31.098,3.57l2.21-14.57H161.5v-24H44.313z"/>
	<path id="path3644" fill="#0A2282" d="M40.011,5.478l-8.698,22.554L9.906,23.656l14.75,15.75L14.031,58.563l19.75-9.313
		l14.438,16.094l-2.531-21.438l19.781-9.094l-21.281-4.125L40.011,5.478z"/>
	
		<linearGradient id="path3640_1_" gradientUnits="userSpaceOnUse" x1="30.3501" y1="128.0654" x2="26.2501" y2="80.3654" gradientTransform="matrix(1 0 0 -1 4 144)">
		<stop  offset="0" style="stop-color:#000000"/>
		<stop  offset="0.25" style="stop-color:#931518"/>
		<stop  offset="0.5" style="stop-color:#E0300C"/>
		<stop  offset="0.75" style="stop-color:#F49612"/>
		<stop  offset="1" style="stop-color:#F0D050"/>
	</linearGradient>
	<path id="path3640" fill="url(#path3640_1_)" stroke="#000000" d="M39.531,6.813L26.75,25.781L4.719,19.25L18.75,37.125
		L5.844,56.219l21.594-7.938l13.656,18.188L40.375,43.75l21.594-7.719L40.031,29.75L39.531,6.813z"/>
	
		<linearGradient id="path2829_1_" gradientUnits="userSpaceOnUse" x1="101.25" y1="115.5996" x2="101.25" y2="133.9996" gradientTransform="matrix(1 0 0 -1 4 144)">
		<stop  offset="0" style="stop-color:#8090D0"/>
		<stop  offset="1" style="stop-color:#2030A0"/>
	</linearGradient>
	<path id="path2829" fill="url(#path2829_1_)" stroke="#000000" d="M47.5,4.5l-5.5,22h18l2.469-4h8.719l0.813,4h6l-4.5-22h-6
		l-9.813,16H49.5l4-16H47.5z M101.5,4.5c-7.168,0-13,5.383-13,12c0,5.993,3.993,10,9,10c4.857,0,10.451-3.53,12.344-9H104
		c-1.238,2.216-3.492,4-6,4c-2.043,0-3.5-1.867-3.5-5c0-3.086,3.045-7,7-7c1.422,0,2.5,0.689,3.063,2h5.813
		C109.688,6.667,106.389,4.5,101.5,4.5z M116.5,4.5l-5.5,22h6l5.5-22H116.5z M126.5,4.5l-5.5,22h6l3.156-12.563L135,26.5h6l5.5-22
		h-6l-3.156,12.563L132.5,4.5H126.5z M159.5,4.5c-7.168,0-13,5.383-13,12c0,5.993,3.993,10,9,10c1.945,0,4.012-0.561,5.906-1.594
		L164.5,28l3-3l-2.688-2.688c2.19-2.247,3.688-5.282,3.688-8.813C168.5,7.263,165.017,4.5,159.5,4.5z M159.5,9.5
		c2.152,0,3.5,1.575,3.5,4.5c0,1.606-0.674,3.333-1.781,4.719L159.5,17l-3,3l1.188,1.188c-0.549,0.177-1.102,0.313-1.688,0.313
		c-2.043,0-3.5-1.867-3.5-5C152.5,13.414,155.545,9.5,159.5,9.5z M69,11.844l1.375,6.656h-5.469L69,11.844z"/>
</g>
</svg>
