<?xml version="1.0" encoding="UTF-8"?>
<svg id="Calque_2" data-name="Calque 2" xmlns="http://www.w3.org/2000/svg" viewBox="0 0 68.32 70">
  <g id="Calque_2-2" data-name="Calque 2">
    <g>
      <path d="M61.46,0c3.79,0,6.86,3.07,6.86,6.86s-3.07,6.86-6.86,6.86-6.86-3.07-6.86-6.86,3.07-6.86,6.86-6.86ZM68.32,13.79l-16.03,5.53v6.58l4.48-1.61v18.27c0,5.32-6.02,3.64-7.84,2.24-.56-.42-4.69-3.29-4.69-3.29,4.06-1.33,10.36-6.51,7.28-13.51-3.92-7.14-10.78-4.83-10.78-4.83l-18.83,6.58v6.51l2.73-.98v9.03l-12.18-11.34L0,37.38v6.51l3.78-1.4v18.48l-3.71,1.33v7.7l14.21-4.97v-16.17l8.96,8.4v9.45l22.4-7.84v-5.39c2.87,3.22,9.17,3.71,13.23,2.52,5.04-1.47,9.45-4.69,9.45-11.2V13.79ZM40.11,36.33c-1.33.49-5.25,1.96-5.25,1.96v-6.23s2.73-.98,4.06-1.4c1.33-.42,2.52.84,2.59,2.17.07,1.05.28,2.73-1.4,3.5Z" style="fill: #fe0000; stroke-width: 0px;"/>
      <path d="M24.85,47.95v16.52l4.55-1.54v-16.59l-4.55,1.61ZM39.83,53.06c2.17-2.1,4.34-4.13,4.34-7.14,0-3.99-3.22-4.41-6.58-3.22-4.27,1.47-6.86,4.48-7,9.52l4.34-1.54c0-1.61.49-3.43,2.38-4.13.98-.35,1.96-.14,1.96,1.05,0,2.87-4.34,5.53-7.07,9.45-1.33,1.89-1.61,3.43-1.61,5.39l13.37-4.69v-4.06l-7.56,2.66c.98-.98,2.24-2.1,3.43-3.29Z" style="fill: #fff; stroke-width: 0px;"/>
    </g>
  </g>
</svg>