<?xml version="1.0" encoding="UTF-8" standalone="no"?>
<svg
   width="700"
   height="444.94159"
   viewBox="0 0 699.99999 444.9416"
   fill="none"
   version="1.1"
   id="svg834"
   sodipodi:docname="Logo Culturebox TV - 2021.svg"
   inkscape:version="1.1.1 (c3084ef, 2021-09-22)"
   xmlns:inkscape="http://www.inkscape.org/namespaces/inkscape"
   xmlns:sodipodi="http://sodipodi.sourceforge.net/DTD/sodipodi-0.dtd"
   xmlns="http://www.w3.org/2000/svg"
   xmlns:svg="http://www.w3.org/2000/svg">
  <defs
     id="defs838">
    <rect
       x="-34.333281"
       y="476.62673"
       width="809.86152"
       height="181.76443"
       id="rect1192" />
  </defs>
  <sodipodi:namedview
     id="namedview836"
     pagecolor="#ffffff"
     bordercolor="#666666"
     borderopacity="1.0"
     inkscape:pageshadow="2"
     inkscape:pageopacity="0.0"
     inkscape:pagecheckerboard="0"
     showgrid="false"
     inkscape:zoom="0.70024273"
     inkscape:cx="329.17157"
     inkscape:cy="108.53379"
     inkscape:window-width="1440"
     inkscape:window-height="752"
     inkscape:window-x="0"
     inkscape:window-y="25"
     inkscape:window-maximized="0"
     inkscape:current-layer="svg834" />
  <g
     id="g2755"
     style="fill:#000000">
    <g
       aria-label="culturebox"
       transform="matrix(3.3926543,0,0,3.3926543,111.78442,-1295.0637)"
       id="text1190"
       style="font-size:40px;line-height:1.25;font-family:'Arial Black';-inkscape-font-specification:'Arial Black, ';white-space:pre;shape-inside:url(#rect1192)">
      <path
         d="m -17.732422,505.53699 4.003906,2.98828 q -3.261718,4.35547 -8.808593,4.35547 -4.453125,0 -7.421875,-2.91016 -2.96875,-2.92969 -2.96875,-7.16797 0,-2.79297 1.347656,-5.09766 1.367187,-2.32421 3.769531,-3.67187 2.402344,-1.34766 5.3125,-1.34766 2.460938,0 4.609375,1.05469 2.167969,1.05469 3.554688,2.83203 l -3.671875,3.24219 q -0.800782,-1.07422 -1.972657,-1.69922 -1.152343,-0.625 -2.519531,-0.625 -2.246094,0 -3.75,1.54297 -1.484375,1.52344 -1.484375,3.76953 0,2.30469 1.484375,3.80859 1.503906,1.48438 3.867188,1.48438 1.484375,0 2.714843,-0.74219 1.230469,-0.74219 1.933594,-1.8164 z"
         style="font-weight:bold;font-family:Brown;-inkscape-font-specification:'Brown Bold'"
         id="path2888" />
      <path
         d="m 3.2636719,493.09558 h 5.2148437 v 19.39453 h -5 v -1.5625 q -2.1679687,1.95313 -5.2539062,1.95313 -1.9726563,0 -3.7109375,-0.82032 -1.71875,-0.83984 -2.890625,-2.28515 -1.9531249,-2.42188 -1.9531249,-6.40625 v -10.27344 h 5.1953124 v 10.46875 q 0,2.22656 0.9765625,3.32031 1.09375,1.21094 2.9101562,1.21094 1.46484378,0 2.6171875,-0.74219 1.171875,-0.74219 1.8945313,-1.66015 z"
         style="font-weight:bold;font-family:Brown;-inkscape-font-specification:'Brown Bold'"
         id="path2890" />
      <path
         d="m 19.650391,484.09167 v 28.39844 h -5.195313 v -28.39844 z"
         style="font-weight:bold;font-family:Brown;-inkscape-font-specification:'Brown Bold'"
         id="path2892" />
      <path
         d="m 39.416016,508.09558 0.800781,4.39453 q -1.132813,0.39063 -3.242188,0.39063 -4.609375,0 -6.71875,-2.79297 -1.445312,-1.9336 -1.445312,-5.80078 v -6.79688 h -5.390625 v -4.39453 h 5.390625 v -5.41016 h 5.214844 v 5.41016 h 6.386718 v 4.39453 h -6.386718 v 7.40234 q 0,1.69922 0.625,2.44141 0.839843,0.95703 2.65625,0.95703 1.230468,0 2.109375,-0.19531 z"
         style="font-weight:bold;font-family:Brown;-inkscape-font-specification:'Brown Bold'"
         id="path2894" />
      <path
         d="m 58.576172,493.09558 h 5.214844 v 19.39453 h -5 v -1.5625 q -2.167969,1.95313 -5.253907,1.95313 -1.972656,0 -3.710937,-0.82032 -1.71875,-0.83984 -2.890625,-2.28515 -1.953125,-2.42188 -1.953125,-6.40625 v -10.27344 h 5.195312 v 10.46875 q 0,2.22656 0.976563,3.32031 1.09375,1.21094 2.910156,1.21094 1.464844,0 2.617188,-0.74219 1.171875,-0.74219 1.894531,-1.66015 z"
         style="font-weight:bold;font-family:Brown;-inkscape-font-specification:'Brown Bold'"
         id="path2896" />
      <path
         d="m 82.150391,492.84167 -0.585938,4.84375 q -0.585937,-0.19531 -1.875,-0.19531 -1.5625,0 -2.851562,0.87891 -1.289063,0.8789 -1.875,1.91406 v 12.20703 h -5.195313 v -19.39453 h 5 v 1.95312 q 0.878906,-1.09375 2.363281,-1.71875 1.503907,-0.64453 3.261719,-0.64453 0.625,0 1.757813,0.15625 z"
         style="font-weight:bold;font-family:Brown;-inkscape-font-specification:'Brown Bold'"
         id="path2898" />
      <path
         d="m 99.103516,506.45495 2.949214,2.94922 q -1.38671,1.66016 -3.515621,2.57813 -2.128906,0.89844 -4.433593,0.89844 -4.414063,0 -7.285157,-2.79297 -2.871093,-2.79297 -2.871093,-7.28516 0,-2.01172 0.664062,-3.84766 0.683594,-1.83593 1.875,-3.22265 1.210938,-1.40625 2.988281,-2.22656 1.796875,-0.82032 3.90625,-0.82032 2.617188,0 4.726563,1.36719 2.109378,1.34766 3.261718,3.61328 1.17188,2.26563 1.17188,4.94141 0,0.82031 -0.11719,1.48437 H 88.986328 q 0.195313,2.03125 1.679688,3.32032 1.484375,1.26953 3.554687,1.26953 1.503906,0 2.773438,-0.66407 1.289062,-0.66406 2.109375,-1.5625 z m -9.882813,-6.17187 h 8.007813 q -0.117188,-1.34766 -1.210938,-2.36328 -1.09375,-1.03516 -2.636719,-1.03516 -1.582031,0 -2.792968,1.01563 -1.191407,1.01562 -1.367188,2.38281 z"
         style="font-weight:bold;font-family:Brown;-inkscape-font-specification:'Brown Bold'"
         id="path2900" />
      <path
         d="m 112.15039,499.89245 v 5.80079 q 0.76172,1.11328 1.99219,1.75781 1.23047,0.64453 2.67578,0.64453 2.20703,0 3.67187,-1.50391 1.46485,-1.5039 1.46485,-3.78906 0,-2.16797 -1.40625,-3.73047 -1.38672,-1.58203 -3.59375,-1.58203 -1.46485,0 -2.73438,0.64453 -1.25,0.64453 -2.07031,1.75781 z m -0.19531,12.59766 h -5 v -28.39844 h 5.19531 v 10.39063 q 2.30469,-1.79688 5.46875,-1.79688 2.59766,0 4.78516,1.32813 2.1875,1.32812 3.45703,3.65234 1.28906,2.32422 1.28906,5.13672 0,3.94531 -2.48047,6.81641 -1.30859,1.5039 -3.26172,2.38281 -1.93359,0.87891 -4.0625,0.87891 -3.10547,0 -5.39062,-1.95313 z"
         style="font-weight:bold;font-family:Brown;-inkscape-font-specification:'Brown Bold'"
         id="path2902" />
      <path
         d="m 131.68164,507.88074 q -1.32812,-2.30469 -1.32812,-5.07813 0,-2.77344 1.32812,-5.07812 1.34766,-2.32422 3.71094,-3.67188 2.38281,-1.36719 5.27344,-1.36719 2.89062,0 5.2539,1.36719 2.38281,1.34766 3.71094,3.67188 1.34766,2.30468 1.34766,5.07812 0,2.77344 -1.34766,5.07813 -1.32813,2.30468 -3.71094,3.65234 -2.36328,1.34766 -5.2539,1.34766 -2.89063,0 -5.27344,-1.34766 -2.36328,-1.34766 -3.71094,-3.65234 z m 5.29297,-8.84766 q -1.42578,1.52344 -1.42578,3.76953 0,2.24609 1.42578,3.76953 1.44531,1.52344 3.69141,1.52344 2.24609,0 3.67187,-1.52344 1.44531,-1.52344 1.44531,-3.76953 0,-2.24609 -1.44531,-3.76953 -1.42578,-1.54297 -3.67187,-1.54297 -2.2461,0 -3.69141,1.54297 z"
         style="font-weight:bold;font-family:Brown;-inkscape-font-specification:'Brown Bold'"
         id="path2904" />
      <path
         d="m 158.83008,493.09558 3.84765,5.50781 3.84766,-5.50781 h 5.95703 l -6.52344,9.04297 7.44141,10.35156 h -6.15234 l -4.57032,-6.5625 -4.55078,6.5625 h -6.17187 l 7.4414,-10.35156 -6.52343,-9.04297 z"
         style="font-weight:bold;font-family:Brown;-inkscape-font-specification:'Brown Bold'"
         id="path2906" />
    </g>
    <g
       id="g2748"
       transform="translate(0.33762563)"
       style="fill:#000000">
      <path
         id="rect2189"
         style="fill:#000000;fill-rule:evenodd;stroke-width:1.06218"
         d="M 153.53125,0.50585938 248.39648,131.7793 138.77539,283.05273 h 89.31836 L 330.69336,131.7793 240.20703,0.50585938 Z" />
      <path
         id="path2744"
         style="fill:#000000;fill-rule:evenodd;stroke-width:1.06218"
         d="M 545.9375,0.50585938 451.07227,131.7793 560.69336,283.05273 H 471.375 L 368.77539,131.7793 459.26172,0.50585938 Z" />
    </g>
  </g>
</svg>
