<svg xmlns="http://www.w3.org/2000/svg" viewBox="0 0 454.23 333.02"><path d="M453.13,333L0.73,248.46a0.91,0.91,0,0,1-.45-1.55L266.78,0.24a0.91,0.91,0,0,1,1.41.22l185.9,331.17A0.91,0.91,0,0,1,453.13,333Z" style="fill:#ffce00"/><path d="M205.21,261.29L197.37,267l-33.66.45s-17-.13-42.75-2.38c0,0-5-.69-11.8-6.43H172.8Z" style="fill:#001689"/><path d="M214.08,249.82a55.11,55.11,0,0,1-5.24,7.19H142.71s-19.64-1.34-38.77-4.1l-4.43-6.24h83.81Z" style="fill:#001689"/><polygon points="415.46 230.79 415.46 236.67 304.08 236.91 294.71 234.29 294.71 236.91 231.34 236.91 217.84 234.04 217.84 235.54 196.3 236.11 217.46 239.91 215.84 246.04 191.4 245.6 185.98 245.61 135.96 245.67 126.21 244.41 96.27 240.54 94.16 234.67 122.71 234.67 92.3 228.54 91.74 222.41 117.58 222.79 91.21 217.17 91.21 210.85 114.56 210.85 91.21 204.91 91.21 198.91 111.24 198.91 91.21 192.67 91.21 186.67 105.96 186.67 91.24 180.79 91.24 174.79 104.46 174.79 94.09 169.48 91.24 169.48 91.24 167.41 59.21 157.29 59.21 151.29 73.58 151.29 59.21 145.04 59.21 139.1 70.52 139.1 59.21 132.54 59.21 126.67 78.21 126.67 63.84 121.54 68.96 115.67 87.84 115.67 75.08 109.41 79.96 103.04 96.34 103.04 85.84 96.29 90.58 90.41 156.34 90.41 184.21 107.29 184.21 113.41 177.08 113.41 177.08 114.54 184.21 118.17 184.21 124.29 177.21 124.29 177.21 126.67 188.46 126.67 198.96 131.71 198.96 126.79 207.71 126.79 198.96 121.17 198.96 114.67 206.84 114.67 199.71 108.91 199.71 102.67 207.9 102.67 200.1 96.66 202.08 91.29 210.58 91.29 203.01 84.79 206.16 78.54 216.31 78.74 210.71 73.41 215.34 67.04 231.58 67.04 226.08 61.17 273.19 61.17 278.96 67.04 281.34 70.79 288.15 73.17 305.21 92.29 372.96 90.21 388.34 118.54 388.34 123.92 385.34 123.92 385.34 124.36 387.96 128.04 387.96 134.29 385.46 134.29 387.96 138.17 387.96 143.87 384.88 143.87 385.34 145.1 387.96 148.1 387.96 154.42 384.52 154.42 387.9 158.29 387.9 164.35 383.82 164.35 387.84 168.98 387.84 174.98 383.66 174.98 387.77 179.29 387.77 185.42 383.39 185.42 387.52 189.48 387.52 195.73 382.83 195.73 386.08 198.67 404.59 198.67 415.34 210.04 415.34 215.95 410.09 215.95 415.46 220.79 415.46 226.54 409.96 226.54 415.46 230.79" style="fill:#001689"/><polygon points="156.34 96.29 184.21 113.42 184.21 107.29 156.34 90.42 156.34 96.29" style="fill:#0071ce"/><polygon points="155.71 109.42 184.21 124.29 184.21 118.17 155.71 103.04 155.71 109.42" style="fill:#0071ce"/><polygon points="155.71 121.54 165.53 126.67 176.44 126.67 155.71 115.67 155.71 121.54" style="fill:#0071ce"/><polygon points="198.96 133.04 198.96 131.71 188.46 126.67 188.46 132.67 201.32 138.85 209.46 138.85 198.96 133.04" style="fill:#0071ce"/><polygon points="198.96 145.1 198.96 144.06 188.46 139.01 188.46 145.01 201.52 151.29 210.15 151.29 198.96 145.1" style="fill:#0071ce"/><polygon points="198.96 157.54 198.96 156.34 188.46 151.29 188.46 157.29 201.08 163.35 209.46 163.35 198.96 157.54" style="fill:#0071ce"/><polygon points="167.09 167.31 156.24 163.48 156.24 169.48 171.27 174.79 181.76 174.79 167.09 169.6 167.09 167.31" style="fill:#0071ce"/><polygon points="167.09 178.63 156.24 174.79 156.24 180.79 172.2 186.43 182.71 186.43 167.09 181.04 167.09 178.63" style="fill:#0071ce"/><polygon points="167.09 190.51 156.21 186.67 156.21 192.67 173.19 198.67 183.65 198.67 167.09 192.73 167.09 190.51" style="fill:#0071ce"/><polygon points="172.09 204.92 169.93 202.39 156.34 198.92 162.09 204.92 185.51 210.85 193.07 210.85 172.09 204.92" style="fill:#0071ce"/><polygon points="166.59 210.85 172.34 217.17 202.09 223.79 210.96 223.79 182.59 217.1 179.84 213.98 166.59 210.85" style="fill:#0071ce"/><polygon points="178.09 222.42 190.53 225.48 193.46 228.67 217.84 234.04 217.84 235.54 183.23 228.54 178.09 222.42" style="fill:#0071ce"/><path d="M188.27,234.67l29.19,5.25a27.86,27.86,0,0,1-1.62,6.13L186,240.54Z" style="fill:#0071ce"/><path d="M214.08,249.82a55.11,55.11,0,0,1-5.24,7.19h0l-30.49-4.1a62,62,0,0,0,5-6.24Z" style="fill:#0071ce"/><path d="M205.21,261.29L197.37,267l-33.17-2.18a43.6,43.6,0,0,0,8.6-6.18Z" style="fill:#0071ce"/><polygon points="291.39 78.54 307.59 96.29 305.21 96.29 294.54 84.79 291.39 78.54" style="fill:#0071ce"/><polygon points="301.96 96.66 309.27 103.17 299.46 103.17 291.91 96.66 296.99 90.21 303.17 96.58 301.96 96.66" style="fill:#0071ce"/><polygon points="293.62 109.34 285.77 102.67 280.71 108.92 288.5 115.29 298.74 115.29 291.71 109.42 293.62 109.34" style="fill:#0071ce"/><polygon points="279.96 121.79 285.3 121.79 275.84 114.67 270.09 121.17 278.21 126.78 287.04 126.91 279.96 121.79" style="fill:#0071ce"/><polygon points="264.71 138.85 264.71 145.1 282.71 157.35 283.71 151.78 264.71 138.85" style="fill:#0071ce"/><polygon points="264.71 151.29 264.71 157.54 283.71 169.79 283.71 163.54 264.71 151.29" style="fill:#0071ce"/><polygon points="264.71 126.79 264.71 133.04 279.73 143.87 281.71 139.04 264.71 126.79" style="fill:#0071ce"/><polygon points="314.95 174.79 297.21 163.35 297.21 169.6 306.96 175.89 306.96 174.67 314.95 174.79" style="fill:#0071ce"/><polygon points="315.86 186.35 306.96 186.35 306.96 186.79 297.21 181.04 297.21 174.79 307.22 180.9 306.96 180.91 315.86 186.35" style="fill:#0071ce"/><polygon points="316.94 198.67 307.28 198.67 297.21 192.73 297.21 186.48 307.19 192.57 306.96 192.57 316.94 198.67" style="fill:#0071ce"/><polygon points="275.96 204.92 275.96 203.02 265.02 198.67 265.02 204.92 280.84 210.85 291.19 210.98 275.96 204.92" style="fill:#0071ce"/><polygon points="275.46 217.23 288.5 222.42 280.18 222.42 265.02 217.1 265.02 210.85 275.46 214.66 275.46 217.23" style="fill:#0071ce"/><polygon points="275.46 225.32 265.02 222.42 265.02 228.67 294.71 236.91 294.71 234.01 275.46 228.67 275.46 225.32" style="fill:#0071ce"/><polygon points="372.96 90.21 388.34 118.54 388.34 123.92 372.96 96.67 372.96 90.21" style="fill:#0071ce"/><polygon points="372.46 103.17 387.96 128.04 387.96 134.29 372.46 109.42 372.46 103.17" style="fill:#0071ce"/><polygon points="372.46 115.29 387.96 138.17 387.96 143.87 372.46 121.79 372.46 115.29" style="fill:#0071ce"/><polygon points="372.46 126.79 387.96 148.1 387.96 154.42 372.46 133.04 372.46 126.79" style="fill:#0071ce"/><polygon points="372.46 138.85 387.9 158.29 387.9 164.35 372.46 145.1 372.46 138.85" style="fill:#0071ce"/><polygon points="372.46 151.29 387.84 168.98 387.84 174.98 372.46 157.54 372.46 151.29" style="fill:#0071ce"/><polygon points="372.46 163.23 387.77 179.29 387.77 185.42 372.46 169.48 372.46 163.23" style="fill:#0071ce"/><polygon points="372.46 174.67 387.52 189.48 387.52 195.73 372.46 180.92 372.46 174.67" style="fill:#0071ce"/><polygon points="372.46 186.35 372.46 192.6 379.27 198.76 386.08 198.67 372.46 186.35" style="fill:#0071ce"/><polygon points="404.59 198.67 415.34 210.04 415.34 215.95 404.59 204.92 404.59 198.67" style="fill:#0071ce"/><polygon points="404.59 210.98 415.46 220.79 415.46 226.54 404.59 217.23 404.59 210.98" style="fill:#0071ce"/><polygon points="404.59 222.42 415.46 230.79 415.46 236.67 404.59 228.67 404.59 222.42" style="fill:#0071ce"/><rect x="306.96" y="163.23" width="65.5" height="6.25" style="fill:#8db8e9"/><rect x="306.96" y="174.67" width="65.5" height="6.25" style="fill:#8db8e9"/><rect x="306.96" y="186.35" width="65.5" height="6.25" style="fill:#8db8e9"/><rect x="275.96" y="198.67" width="128.63" height="6.25" style="fill:#8db8e9"/><rect x="275.46" y="210.98" width="129.13" height="6.25" style="fill:#8db8e9"/><rect x="275.46" y="222.42" width="129.13" height="6.25" style="fill:#8db8e9"/><rect x="275.84" y="126.79" width="96.63" height="6.25" style="fill:#8db8e9"/><rect x="275.84" y="138.85" width="96.63" height="6.25" style="fill:#8db8e9"/><rect x="275.84" y="151.29" width="96.63" height="6.25" style="fill:#8db8e9"/><polygon points="372.46 121.79 372.46 115.29 286.21 115.29 279.96 121.79 372.46 121.79" style="fill:#8db8e9"/><polygon points="291.71 109.42 297.46 103.17 372.46 103.17 372.46 109.42 291.71 109.42" style="fill:#8db8e9"/><polygon points="301.96 96.67 307.09 90.21 372.96 90.21 372.96 96.67 301.96 96.67" style="fill:#8db8e9"/><path d="M291.39,78.54H206.16A49.38,49.38,0,0,0,203,84.79h91.52A49.38,49.38,0,0,0,291.39,78.54Z" style="fill:#8db8e9"/><polygon points="282.9 67.17 215.34 67.04 210.71 73.42 288.15 73.17 282.9 67.17" style="fill:#8db8e9"/><path d="M249.77,55.29a53.58,53.58,0,0,0-23.68,5.49v0.39H273.2A49.37,49.37,0,0,0,249.77,55.29Z" style="fill:#8db8e9"/><polygon points="285.77 102.67 199.71 102.67 199.71 108.92 280.71 108.92 285.77 102.67" style="fill:#8db8e9"/><polygon points="275.84 114.67 198.96 114.67 198.96 121.17 270.09 121.17 275.84 114.67" style="fill:#8db8e9"/><rect x="198.96" y="126.79" width="65.75" height="6.25" style="fill:#8db8e9"/><rect x="198.96" y="138.85" width="65.75" height="6.25" style="fill:#8db8e9"/><rect x="198.96" y="151.29" width="65.75" height="6.25" style="fill:#8db8e9"/><rect x="167.09" y="163.35" width="130.13" height="6.25" style="fill:#8db8e9"/><rect x="167.09" y="174.79" width="130.13" height="6.25" style="fill:#8db8e9"/><rect x="167.09" y="186.48" width="130.13" height="6.25" style="fill:#8db8e9"/><polygon points="172.09 204.92 265.02 204.92 265.02 198.67 166.59 198.67 172.09 204.92" style="fill:#8db8e9"/><polygon points="182.59 217.1 265.02 217.1 265.02 210.85 177.09 210.85 182.59 217.1" style="fill:#8db8e9"/><polygon points="193.46 228.67 265.02 228.67 265.02 222.42 187.71 222.42 193.46 228.67" style="fill:#8db8e9"/><path d="M200.1,96.45a50.19,50.19,0,0,1,1-5.24l0.32-1H297l-5.08,6.46H200.1V96.45Z" style="fill:#8db8e9"/><path d="M96.27,240.54H186a50.79,50.79,0,0,0,2.3-5.87H94.16A49.31,49.31,0,0,0,96.27,240.54Z" style="fill:#8db8e9"/><path d="M99.45,246.67a49.62,49.62,0,0,0,4.49,6.24h74.39a62,62,0,0,0,5-6.24H99.45Z" style="fill:#8db8e9"/><path d="M91.74,222.42a50,50,0,0,0,.57,6.13h90.93l-5.15-6.12H91.74Z" style="fill:#8db8e9"/><path d="M172.8,258.61a43.6,43.6,0,0,1-8.6,6.18H119.89a29.72,29.72,0,0,1-10.74-6.18H172.8Z" style="fill:#8db8e9"/><polygon points="91.21 210.85 166.59 210.85 172.34 217.17 91.21 217.17 91.21 210.85" style="fill:#8db8e9"/><polygon points="91.21 198.92 156.34 198.92 162.09 204.92 91.21 204.92 91.21 198.92" style="fill:#8db8e9"/><rect x="91.21" y="186.67" width="65" height="6" style="fill:#8db8e9"/><rect x="91.24" y="174.79" width="65" height="6" style="fill:#8db8e9"/><rect x="91.24" y="163.48" width="65" height="6" style="fill:#8db8e9"/><rect x="59.21" y="151.29" width="129.25" height="6" style="fill:#8db8e9"/><rect x="59.21" y="139.04" width="129.25" height="6" style="fill:#8db8e9"/><rect x="59.21" y="126.67" width="129.25" height="6" style="fill:#8db8e9"/><polygon points="68.96 115.67 63.84 121.54 155.71 121.54 155.71 115.67 68.96 115.67" style="fill:#8db8e9"/><polygon points="75.09 109.42 79.96 103.04 155.71 103.04 155.71 109.42 75.09 109.42" style="fill:#8db8e9"/><polygon points="85.84 96.29 90.59 90.42 156.34 90.42 156.34 96.29 85.84 96.29" style="fill:#8db8e9"/></svg>