<svg xmlns="http://www.w3.org/2000/svg" viewBox="0 0 357.5 213"><title>Logo TF1 1985</title><path d="M146,206l-9.75,7h-27s-21.75,0-47.5-2.25c0,0-5.5-.75-12.75-7.25h64.75Z" transform="translate(0 0)" style="fill:#174999"/><path d="M357.5,169.63v-5.25l-4-3.37v-1.12h3.38v-6.5l-12-9H328.5l-3.25-3.59H329v-6.91l-3.75-4.12h3.88V123.9l-2.75-3v-2.5H329v-5.5l-2.75-2.62V108h3.13v-5.62l-3-2.87V97.63h3.25V92.5l-3.12-3.12V87.13h2.88v-6l-2.12-1.75V77.13h2.5V72.25l-2-2.5V66.88h1.38v-6.5l-15.37-24.5L246,38,228.94,18.88l-6.81-2.37-1.37-3.75L213,5.88H166.88l5.5,6.88H156.13l-4.62,6.38,5.6,5.33L147,24.27l-3.2,6.23,7.57,6.5h-8.5l-2,5.37,7.8,6.5H140.5v6.25L146.63,61h-6.87v6.5l8.75,5h-8.62V77l-11-4.62H118V70h7V63.88l-7.12-3.62V59.13H125V53L97.13,36.13H31.38L26.63,42l10.5,6.75H20.75l-4.87,6.38,12.75,6.25H9.75L4.63,67.25,19,72.38H0v5.88l11.31,6.56H0v5.94L14.38,97H0v6l32,10.13v2.06h2.85l10.37,5.31H32v6l14.72,5.88H32v6l20,6.25H32v6l23.35,5.94H32v6.31l26.38,5.63-25.85-.37,0.57,6.13,30.41,6.13H35l2.11,5.88,39.32,5.63-36.52-.12,4.88,6.88c19.13,2.75,75.89,2.69,75.89,2.69h29.94a28.2,28.2,0,0,0,4.25-6.19l-22.62-3.44v-0.37l26.19-1v-4.69l-18.19-4.12-0.44-1.12h19.13v-2.5l15.88,3.63H236V179l8.88,1.88H357.5v-7.25l-5-2.75v-1.25h5Z" transform="translate(0 0)" style="fill:#174999"/><rect x="248.75" y="108.94" width="64.5" height="6.25" style="fill:#8db8e9"/><rect x="248.75" y="120.38" width="64.5" height="6.25" style="fill:#8db8e9"/><rect x="248.75" y="132.06" width="64.5" height="6.25" style="fill:#8db8e9"/><rect x="217.75" y="144.38" width="127.13" height="6.25" style="fill:#8db8e9"/><rect x="217.25" y="156.69" width="127.13" height="6.25" style="fill:#8db8e9"/><rect x="217.25" y="168.13" width="127.13" height="6.25" style="fill:#8db8e9"/><rect x="217" y="72.5" width="96.25" height="6.25" style="fill:#8db8e9"/><rect x="217" y="84.56" width="96.25" height="6.25" style="fill:#8db8e9"/><rect x="217" y="97" width="96.25" height="6.25" style="fill:#8db8e9"/><polygon points="313.25 67.5 313.25 61 227 61 220.75 67.5 313.25 67.5" style="fill:#8db8e9"/><polygon points="232.5 55.13 238.25 48.88 313.25 48.88 313.25 55.13 232.5 55.13" style="fill:#8db8e9"/><polygon points="242.75 42.37 247.88 35.92 313.75 35.92 313.75 42.37 242.75 42.37" style="fill:#8db8e9"/><path d="M232.18,24.25H146.95a49.38,49.38,0,0,0-3.15,6.25h91.52A49.38,49.38,0,0,0,232.18,24.25Z" transform="translate(0 0)" style="fill:#8db8e9"/><polygon points="223.69 12.88 156.13 12.75 151.5 19.13 228.94 18.88 223.69 12.88" style="fill:#8db8e9"/><path d="M189.56,0a49.37,49.37,0,0,0-22.68,5.49V5.88H213A49.37,49.37,0,0,0,189.56,0Z" transform="translate(0 0)" style="fill:#8db8e9"/><polygon points="225.56 48.88 140.5 48.88 140.5 55.13 220.5 55.13 225.56 48.88" style="fill:#8db8e9"/><polygon points="214.63 61 139.75 61 139.75 67.5 208.88 67.5 214.63 61" style="fill:#8db8e9"/><rect x="139.75" y="72.5" width="64.75" height="6.25" style="fill:#8db8e9"/><rect x="139.75" y="84.56" width="64.75" height="6.25" style="fill:#8db8e9"/><rect x="139.75" y="97" width="64.75" height="6.25" style="fill:#8db8e9"/><rect x="108.88" y="109.06" width="127.13" height="6.25" style="fill:#8db8e9"/><rect x="108.88" y="120.5" width="127.13" height="6.25" style="fill:#8db8e9"/><rect x="108.88" y="132.19" width="127.13" height="6.25" style="fill:#8db8e9"/><polygon points="113.88 150.63 203.81 150.63 203.81 144.38 108.38 144.38 113.88 150.63" style="fill:#8db8e9"/><polygon points="124.38 162.81 203.81 162.81 203.81 156.56 119.88 156.56 124.38 162.81" style="fill:#8db8e9"/><polygon points="135.25 174.38 203.81 174.38 203.81 168.13 129.5 168.13 135.25 174.38" style="fill:#8db8e9"/><path d="M140.89,42.16a50.19,50.19,0,0,1,1-5.24l0.32-1H235.8l-4.08,6.46H140.89V42.16Z" transform="translate(0 0)" style="fill:#8db8e9"/><path d="M37.06,186.25h89.71c1.32-1.87,2.3-3.44,2.3-5.87H35A49.31,49.31,0,0,0,37.06,186.25Z" transform="translate(0 0)" style="fill:#8db8e9"/><path d="M39.85,191.75a49.82,49.82,0,0,0,4.88,6.88h74.39a53.39,53.39,0,0,0,5.38-6.87H39.85Z" transform="translate(0 0)" style="fill:#8db8e9"/><path d="M32.53,168.13a50,50,0,0,0,.57,6.13H125l-7.15-6.12H32.53Z" transform="translate(0 0)" style="fill:#8db8e9"/><path d="M49,203.5c5.34,4.78,9.72,6.45,11.67,7H105a46.34,46.34,0,0,0,9.45-6.95Z" transform="translate(0 0)" style="fill:#8db8e9"/><polygon points="32 156.56 107.38 156.56 113.13 162.88 32 162.88 32 156.56" style="fill:#8db8e9"/><polygon points="32 144.63 97.13 144.63 102.88 150.63 32 150.63 32 144.63" style="fill:#8db8e9"/><rect x="32" y="132.38" width="65" height="6" style="fill:#8db8e9"/><rect x="32.03" y="120.5" width="65" height="6" style="fill:#8db8e9"/><rect x="32.03" y="109.19" width="65" height="6" style="fill:#8db8e9"/><rect y="97" width="128.94" height="6" style="fill:#8db8e9"/><rect y="84.75" width="128.94" height="6" style="fill:#8db8e9"/><rect y="72.38" width="128.94" height="6" style="fill:#8db8e9"/><polygon points="9.75 61.38 4.63 67.25 96.5 67.25 96.5 61.38 9.75 61.38" style="fill:#8db8e9"/><polygon points="15.88 55.13 20.75 48.75 96.5 48.75 96.5 55.13 15.88 55.13" style="fill:#8db8e9"/><polygon points="26.63 42 31.38 36.13 97.13 36.13 97.13 42 26.63 42" style="fill:#8db8e9"/></svg>