<?xml version="1.0" encoding="UTF-8" standalone="no"?>
<svg
   xmlns:dc="http://purl.org/dc/elements/1.1/"
   xmlns:cc="http://creativecommons.org/ns#"
   xmlns:rdf="http://www.w3.org/1999/02/22-rdf-syntax-ns#"
   xmlns:svg="http://www.w3.org/2000/svg"
   xmlns="http://www.w3.org/2000/svg"
   xmlns:sodipodi="http://sodipodi.sourceforge.net/DTD/sodipodi-0.dtd"
   xmlns:inkscape="http://www.inkscape.org/namespaces/inkscape"
   inkscape:version="1.0 (4035a4f, 2020-05-01)"
   height="750.99982"
   width="650"
   sodipodi:docname="Logo_LCP-AN_(2019).svg"
   xml:space="preserve"
   viewBox="0 0 649.99997 750.99982"
   y="0px"
   x="0px"
   id="Calque_1"
   version="1.1"><metadata
   id="metadata57"><rdf:RDF><cc:Work
       rdf:about=""><dc:format>image/svg+xml</dc:format><dc:type
         rdf:resource="http://purl.org/dc/dcmitype/StillImage" /><dc:title></dc:title></cc:Work></rdf:RDF></metadata><defs
   id="defs55" /><sodipodi:namedview
   inkscape:current-layer="Calque_1"
   inkscape:window-maximized="0"
   inkscape:window-y="0"
   inkscape:window-x="0"
   inkscape:cy="407.97366"
   inkscape:cx="260.26806"
   inkscape:zoom="0.78786453"
   showgrid="false"
   id="namedview53"
   inkscape:window-height="900"
   inkscape:window-width="1440"
   inkscape:pageshadow="2"
   inkscape:pageopacity="0"
   guidetolerance="10"
   gridtolerance="10"
   objecttolerance="10"
   borderopacity="1"
   bordercolor="#666666"
   pagecolor="#ffffff" />
<rect
   y="0"
   x="0"
   height="370"
   width="650"
   id="rect59"
   style="fill:#ffffff;stroke:none;stroke-width:6.72071;stroke-linecap:round;stroke-linejoin:round" />



















<g
   transform="translate(27.360001,25.43)"
   id="g109"><g
     id="g84"><path
       id="path10"
       d="M 559.41,25.78 C 557.25,23 552.93,18.37 545.2,13.42 530.07,3.85 517.1,2.62 500.42,2.62 H 430.3 l -49.1,218.03 h 54.04 l 16.37,-71.95 h 23.81 c 14.51,0 27.17,-0.62 41.07,-4.63 13.28,-4.02 22.24,-10.51 26.56,-13.9 26.87,-21 29.34,-50.34 29.34,-62.38 -0.01,-22.25 -7.42,-35.22 -12.98,-42.01 m -56.52,75.66 c -8.65,6.79 -16.99,8.03 -27.48,8.03 H 460.56 L 476,41.53 h 8.98 c 11.73,0 23.16,2.16 29.34,13.59 3.09,5.87 3.4,12.35 3.4,14.51 0,11.74 -5.88,24.71 -14.83,31.81" /><path
       id="path12"
       d="m 360.49,169.83 c 0,0 -22.48,4.25 -44.56,-2.63 -22.07,-6.88 -37.69,-27.5 -33.43,-55.65 4.69,-28.86 24.19,-49.34 48.65,-57.49 24.45,-8.15 46.01,-2.49 56.85,1.2 L 399.11,9.01 C 385.01,3.3 370.75,0 354.63,0 324.99,0 292.84,12.86 268.8,34.11 c -23.2,20.69 -38.58,48.36 -43.05,77.15 -5.04,31.32 1.12,58.72 20.96,79.69 18.73,19.85 45.02,31.03 74.36,31.03 9.82,0 18.53,-1.4 27.78,-3.64 z" /><polygon
       id="polygon14"
       points="144.44,2.61 95.38,220.45 199.18,220.45 209.42,176.11 159.57,176.11 198.71,2.61 " /></g><g
     id="g79"><path
       id="path16"
       d="m 31.08,266.35 4.27,51.96 H 24.4 l -0.56,-8.75 h -10.4 l -3.25,8.75 H 0 l 20.26,-51.96 z m -7.86,21.22 0.07,-7.86 h -0.14 l -2.34,7.86 -4.41,13.85 h 7.24 z" /><path
       id="path18"
       d="m 67.19,278.06 c -1.72,-1.79 -4.07,-3.31 -6.9,-3.31 -3.16,0 -5.45,1.93 -5.99,5.1 -1.31,8.55 14.27,9.03 11.99,23.08 -1.44,9.24 -7.85,16.21 -17.5,16.21 -2.89,0 -6.34,-0.9 -8.41,-2.63 l 1.58,-9.79 c 2.14,1.65 4.28,2.76 7.31,2.76 3.31,0 6.27,-2.2 6.82,-5.65 0.62,-4 -2.27,-5.52 -4.83,-7.59 -5.3,-4 -8.35,-7.85 -7.17,-15.43 1.31,-8.2 7.17,-15.3 15.99,-15.3 3.31,0 6.14,0.89 8.68,2.55 z" /><path
       id="path20"
       d="m 97.51,278.06 c -1.72,-1.79 -4.07,-3.31 -6.9,-3.31 -3.16,0 -5.45,1.93 -5.99,5.1 -1.31,8.55 14.27,9.03 11.99,23.08 -1.44,9.24 -7.85,16.21 -17.5,16.21 -2.89,0 -6.34,-0.9 -8.41,-2.63 l 1.58,-9.79 c 2.14,1.65 4.28,2.76 7.31,2.76 3.31,0 6.28,-2.2 6.82,-5.65 0.62,-4 -2.27,-5.52 -4.83,-7.59 -5.31,-4 -8.34,-7.85 -7.17,-15.43 1.31,-8.2 7.17,-15.3 15.99,-15.3 3.31,0 6.14,0.89 8.68,2.55 z" /><polygon
       id="polygon22"
       points="111.91,308.66 122.46,308.66 120.95,318.31 100.13,318.31 108.33,266.35 129.01,266.35 127.5,275.99 117.08,275.99 115.3,287.3 124.45,287.3 122.94,296.94 113.78,296.94 " /><polygon
       id="polygon24"
       points="164.57,280.89 164.43,280.89 160.78,293.71 152.44,318.31 144.51,318.31 143.41,293.43 143.55,281.85 143.68,280.89 143.55,280.89 136.1,318.31 125.07,318.31 137.83,266.35 151.34,266.35 151.54,297.01 151.68,297.01 160.64,266.35 174.43,266.35 171.67,318.31 161.12,318.31 " /><path
       id="path26"
       d="m 176.9,318.31 8.2,-51.96 h 10.06 c 4,0 7.44,0.13 10.33,2.82 3.03,2.76 4.14,7.37 3.45,11.71 -0.76,4.62 -3.03,8.13 -7.3,10.76 4,2.07 5.23,7.58 4.54,12.06 -1.65,10.27 -9.93,14.61 -19.3,14.61 z m 13.85,-22.67 -2.21,14.06 c 4.07,0.2 6.97,-2.82 7.66,-7.16 0.69,-4.07 -1.38,-7.04 -5.45,-6.9 m 3.31,-20.68 -2.07,12.69 c 3.86,0 6.62,-2.63 7.24,-6.55 0.55,-3.8 -1.24,-6.34 -5.17,-6.14" /><polygon
       id="polygon28"
       points="221.7,308.66 232.45,308.66 230.92,318.31 209.9,318.31 218.11,266.35 228.38,266.35 " /><path
       id="path30"
       d="m 264.49,266.35 -1.51,9.64 h -10.41 l -1.78,11.31 h 9.17 l -1.52,9.65 h -9.17 l -1.86,11.71 h 10.55 l -1.52,9.65 h -20.82 l 8.2,-51.97 h 20.67 z m 0.42,-12.28 -10.4,9.51 -4.34,-2.76 8.19,-9.92 z" /><polygon
       id="polygon32"
       points="274.41,308.66 284.96,308.66 283.44,318.31 262.62,318.31 270.83,266.35 291.51,266.35 289.99,275.99 279.58,275.99 277.79,287.3 286.95,287.3 285.44,296.94 276.27,296.94 " /><path
       id="path34"
       d="m 324.58,266.35 7.86,31.36 0.2,-0.14 c -0.27,-2.47 0,-5.16 0.42,-7.85 l 3.65,-23.36 h 10.27 l -8.2,51.96 h -9.72 l -7.73,-31.36 -0.13,0.14 -0.34,5.23 -0.27,2.14 -3.79,23.84 h -10.27 l 8.2,-51.96 z" /><path
       id="path36"
       d="m 374,266.35 4.27,51.96 h -10.95 l -0.56,-8.75 h -10.4 l -3.25,8.75 h -10.19 l 20.26,-51.96 z m -7.86,21.22 0.07,-7.86 h -0.14 l -2.34,7.86 -4.41,13.85 h 7.24 z" /><polygon
       id="polygon38"
       points="384.19,266.35 410.66,266.35 409.14,275.99 401.01,275.99 394.32,318.31 384.05,318.31 390.74,275.99 382.67,275.99 " /><polygon
       id="polygon40"
       points="415.34,266.35 425.61,266.35 417.41,318.31 407.14,318.31 " /><path
       id="path42"
       d="m 463.52,292.33 c -3.1,19.5 -13.38,26.81 -22.54,26.81 -9.16,0 -17.09,-7.31 -13.98,-26.81 3.1,-19.5 13.29,-26.81 22.46,-26.81 9.16,-0.01 17.16,7.31 14.06,26.81 m -21.02,17.3 c 6.82,0 9.37,-13.16 10.06,-17.3 0.69,-4.61 2.21,-17.3 -4.61,-17.3 -6.82,0 -9.31,12.69 -10,17.3 -0.69,4.14 -2.28,17.3 4.55,17.3" /><path
       id="path44"
       d="m 482.88,266.35 7.86,31.36 0.2,-0.14 c -0.27,-2.47 0,-5.16 0.42,-7.85 l 3.65,-23.36 h 10.27 l -8.2,51.96 h -9.72 l -7.73,-31.36 -0.13,0.14 -0.34,5.23 -0.27,2.14 -3.79,23.84 h -10.27 l 8.2,-51.96 z" /><path
       id="path46"
       d="m 532.29,266.35 4.27,51.96 h -10.95 l -0.56,-8.75 h -10.4 l -3.25,8.75 h -10.19 l 20.26,-51.96 z m -7.85,21.22 0.07,-7.86 h -0.14 l -2.34,7.86 -4.41,13.85 h 7.24 z" /><polygon
       id="polygon48"
       points="552.49,308.66 563.24,308.66 561.71,318.31 540.69,318.31 548.9,266.35 559.17,266.35 " /><polygon
       id="polygon50"
       points="578.18,308.66 588.73,308.66 587.22,318.31 566.4,318.31 574.6,266.35 595.28,266.35 593.76,275.99 583.35,275.99 581.57,287.3 590.73,287.3 589.22,296.94 580.05,296.94 " /></g></g>
<style
   type="text/css"
   id="style233">
	.st0{fill:#CD2D1D;}
	.st1{fill:#FFFFFF;}
	.st2{fill-rule:evenodd;clip-rule:evenodd;fill:#FFFFFF;}
</style><g
   transform="matrix(1.0920769,0,0,1.0920769,6.1035156e-7,370.411)"
   id="g263">
	<path
   class="st0"
   d="M 0,261.2 214.4,0 583.8,46.3 c 0,0 0.4,0.2 0.8,1.9 6.4,28.5 9.9,57.3 10.5,86.5 1,47.9 -5.8,94.6 -20.3,140.2 -7.8,24.3 -17.8,47.7 -29.8,70.3 -1.2,2.2 -1.7,3.3 -1.7,3.3 z"
   id="path237" />
	<path
   class="st1"
   d="m 318.2,188.9 h -8.8 c -0.2,0 -0.4,-0.2 -0.4,-0.4 l -0.7,-6 c -0.1,-0.7 -0.6,-1.2 -1.3,-1.2 -0.1,0 -0.1,0 -0.2,0 l -22.7,2.6 c -0.7,0 -1.2,0.6 -1.2,1.3 0,0.1 0,0.1 0,0.2 l 0.4,3 c 0,0 0,0 0,0 0,0.2 -0.2,0.4 -0.4,0.4 h -9.6 c -0.7,0 -1.3,0.6 -1.3,1.3 v 83.4 c 0,0.7 0.6,1.3 1.3,1.3 h 45 c 0.7,0 1.3,-0.6 1.3,-1.3 v -13.8 c 0,-0.7 -0.6,-1.3 -1.3,-1.3 h -28.4 c -0.7,0 -1.3,-0.6 -1.3,-1.3 v -16.3 c 0,-0.7 0.6,-1.3 1.3,-1.3 h 13.9 c 0.7,0 1.3,-0.6 1.3,-1.3 v -14.1 c 0,-0.7 -0.6,-1.3 -1.3,-1.3 h -13.9 c -0.7,0 -1.3,-0.6 -1.3,-1.3 v -14.7 c 0,-0.7 0.6,-1.3 1.3,-1.3 h 28.4 c 0.7,0 1.3,-0.6 1.3,-1.3 v -14 c 0,0 0,0 0,0 -0.1,-0.7 -0.7,-1.3 -1.4,-1.3 0,0 0,0 0,0 z"
   id="path239" />
	<path
   class="st1"
   d="m 202.5,171.1 v -33.2 c 0,0 0,0 0,0 0,-0.6 0.5,-1 1,-1 h 14.3 c 13.6,0 25.3,-10.4 26,-24 0,-0.4 0,-0.9 0,-1.3 0,-13.9 -11.4,-25.3 -25.3,-25.3 0,0 0,0 0,0 h -31.3 c -0.7,0 -1.3,0.6 -1.3,1.3 v 14 c 0,0.7 0.6,1.3 1.3,1.3 h 31.3 c 0.1,0 0.2,0 0.3,0 4.8,0 8.7,3.9 8.7,8.7 0,4.8 -3.9,8.7 -8.7,8.7 -0.1,0 -0.2,0 -0.3,0 h -31.3 c -0.7,0 -1.3,0.6 -1.3,1.3 V 171 c 0,0.7 0.6,1.3 1.3,1.3 h 13.9 c 0,0 0,0 0.1,0 0.7,0 1.2,-0.5 1.3,-1.2 z"
   id="path241" />
	<path
   class="st1"
   d="m 232.5,222.8 h -6.6 c -4.6,-0.2 -8.3,-4 -8.3,-8.7 0,-4.7 3.7,-8.5 8.3,-8.7 h 19.3 c 0.7,0 1.3,-0.6 1.3,-1.3 v -14 c 0,-0.7 -0.6,-1.3 -1.3,-1.3 h -19.3 c -13.9,0 -25.2,11.4 -25.2,25.2 0,13.9 11.4,25.3 25.2,25.3 h 6.6 c 5.1,0.2 9.1,4.4 9.1,9.5 0,5.1 -4.1,9.3 -9.1,9.5 h -28.8 c -0.7,0 -1.3,0.6 -1.3,1.3 v 13.9 c 0,0.7 0.6,1.3 1.3,1.3 h 28.7 c 14.3,0 26.1,-11.8 26.1,-26.1 0.1,-14.2 -11.7,-26 -26,-25.9 z"
   id="path243" />
	<path
   class="st2"
   d="m 482.4,87.7 c 0,-0.7 -0.6,-1.4 -1.4,-1.4 h -13.9 c -0.7,0 -1.4,0.6 -1.4,1.4 v 13.9 c 0,0.7 0.6,1.4 1.4,1.4 H 481 c 0.7,0 1.4,-0.6 1.4,-1.4 0,0 0,-13.9 0,-13.9 z"
   id="path245" />
	<path
   class="st1"
   d="m 336.4,136.8 h 32.4 c 5.2,-0.1 9.6,4 9.9,9.2 0,0.1 0,0.2 0,0.3 0,5.2 -4.3,9.5 -9.5,9.5 0,0 0,0 0,0 H 353 c -0.7,0 -1.3,0.6 -1.3,1.3 V 171 c 0,0.7 0.6,1.3 1.3,1.3 h 15.6 c 12.8,0 24.1,-8.9 26.3,-21.5 1.5,-8.6 -1.4,-17.4 -7.7,-23.5 3.6,-4.5 5.6,-10.1 5.6,-15.9 0,-13.8 -11.4,-25.2 -25.2,-25.2 0,0 0,0 0,0 h -31.2 c -0.7,0 -1.3,0.6 -1.3,1.3 v 14 c 0,0.7 0.6,1.3 1.3,1.3 h 30.8 c 4.5,-0.1 8.4,3.3 9,7.8 0,0.3 0,0.6 0,0.9 0,4.7 -3.9,8.6 -8.6,8.6 0,0 0,0 0,0 h -31.2 c -0.7,0 -1.3,0.6 -1.3,1.3 v 14 c 0,0 0,0 0,0.1 0,0.7 0.6,1.3 1.3,1.3 0,0 0,0 0,0 z"
   id="path247" />
	<path
   class="st2"
   d="m 482.4,121.6 c 0,-0.7 -0.6,-1.4 -1.4,-1.4 h -13.9 c -0.7,0 -1.4,0.6 -1.4,1.4 v 49.5 c 0,0.7 0.6,1.4 1.4,1.4 H 481 c 0.7,0 1.4,-0.6 1.4,-1.4 z"
   id="path249" />
	<path
   class="st1"
   d="m 405.8,188.9 h -13.9 c -0.7,0 -1.3,0.6 -1.3,1.3 v 56 c 0,0 0,0 0,0 0,0.2 -0.1,0.3 -0.3,0.3 -0.1,0 -0.2,-0.1 -0.2,-0.1 l -34.2,-56.1 c -0.5,-0.8 -1.4,-1.3 -2.3,-1.3 h -17.1 c -0.7,0 -1.3,0.6 -1.3,1.3 V 257 c 0,0.7 0.6,1.3 1.3,1.3 h 13.9 c 0.7,0 1.3,-0.6 1.3,-1.3 v -40.2 c 0,-0.1 0.1,-0.3 0.3,-0.3 0.1,0 0.2,0 0.2,0.1 l 34.8,57 c 0.5,0.8 1.4,1.3 2.3,1.3 h 16.6 c 0.7,0 1.3,-0.6 1.3,-1.3 v -83.4 c 0,0 0,-0.1 0,-0.1 -0.1,-0.6 -0.7,-1.2 -1.4,-1.2 z"
   id="path251" />
	<path
   class="st1"
   d="m 537.4,188.9 h -53.7 c -0.7,0 -1.3,0.6 -1.3,1.3 v 13.9 c 0,0.7 0.6,1.3 1.3,1.3 h 17.2 c 0.7,0 1.3,0.6 1.3,1.3 v 50.2 c 0,0.7 0.6,1.3 1.3,1.3 h 13.9 c 0.7,0 1.3,-0.6 1.3,-1.3 v -50.1 c 0,-0.7 0.6,-1.3 1.3,-1.3 h 17.2 c 0.7,0 1.3,-0.6 1.3,-1.3 v -14 c 0,-0.7 -0.5,-1.2 -1.1,-1.3 z"
   id="path253" />
	<path
   class="st1"
   d="m 553.8,155.8 h -14.2 c -14.7,0 -27.2,-11.7 -27.2,-26.4 0,0 0,-0.1 0,-0.1 0,-14.5 11.9,-26.4 26.4,-26.4 0,0 0.1,0 0.1,0 h 6.9 c 0.7,0 1.3,-0.6 1.3,-1.3 v -14 c 0,-0.7 -0.6,-1.3 -1.3,-1.3 h -5.7 c -23.8,0 -44,18.8 -44.3,42.6 0,0.1 0,0.3 0,0.4 0,23.6 19.4,43 43,43.1 h 15 c 0.7,0 1.3,-0.6 1.3,-1.3 v -14 c 0,-0.6 -0.6,-1.2 -1.3,-1.3 z"
   id="path255" />
	<path
   class="st1"
   d="m 318.2,86.3 h -13.8 c -0.7,0 -1.3,0.6 -1.3,1.3 v 52.1 c 0.1,8.3 -6.2,15.3 -14.5,16.1 -0.3,0 -0.7,0 -1,0 -8.5,0 -15.6,-7 -15.6,-15.5 v -36 c 0,-0.7 -0.6,-1.3 -1.3,-1.3 h -14.1 c -0.7,0 -1.3,0.6 -1.3,1.3 v 35.2 c 0,17.8 14.1,32.9 31.9,33 0.1,0 0.1,0 0.2,0 17.6,0 32.1,-14.5 32.1,-32.1 V 87.8 c 0,0 0,-0.1 0,-0.1 0,-0.7 -0.6,-1.3 -1.3,-1.3 0.1,-0.1 0,-0.1 0,-0.1 z"
   id="path257" />
	<path
   class="st1"
   d="m 452.9,188.1 c -0.1,-0.4 -0.5,-0.6 -0.9,-0.6 -0.4,0 -0.8,0.3 -0.9,0.6 l -33.6,85.8 c 0,0.1 -0.1,0.2 -0.1,0.3 0,0.4 0.4,0.8 0.8,0.8 0,0 0,0 0,0 h 15.5 c 0.7,0 1.3,-0.4 1.5,-1 l 16.3,-41.6 c 0.1,-0.2 0.2,-0.3 0.4,-0.3 0.2,0 0.4,0.1 0.4,0.3 l 16.3,41.6 c 0.2,0.6 0.8,1 1.5,1 h 15.5 c 0,0 0,0 0,0 0.4,0 0.8,-0.4 0.8,-0.8 0,-0.1 0,-0.2 -0.1,-0.3 z"
   id="path259" />
	<path
   class="st1"
   d="m 451.9,171.1 v -13.9 c 0,-0.7 -0.6,-1.3 -1.3,-1.3 h -25.5 c -0.7,0 -1.3,-0.6 -1.3,-1.3 v -50.3 c 0,-0.7 -0.6,-1.3 -1.3,-1.3 h -14 c -0.7,0 -1.3,0.6 -1.3,1.3 v 66.8 c 0,0.7 0.6,1.3 1.3,1.3 h 42 c 0.8,0 1.4,-0.6 1.4,-1.3 z"
   id="path261" />
</g></svg>
