<?xml version="1.0" encoding="UTF-8" standalone="no"?>
<!-- Generator: Adobe Illustrator 13.0.0, SVG Export Plug-In . SVG Version: 6.00 Build 14948)  -->

<svg
   xmlns:dc="http://purl.org/dc/elements/1.1/"
   xmlns:cc="http://creativecommons.org/ns#"
   xmlns:rdf="http://www.w3.org/1999/02/22-rdf-syntax-ns#"
   xmlns:svg="http://www.w3.org/2000/svg"
   xmlns="http://www.w3.org/2000/svg"
   xmlns:xlink="http://www.w3.org/1999/xlink"
   xmlns:sodipodi="http://sodipodi.sourceforge.net/DTD/sodipodi-0.dtd"
   xmlns:inkscape="http://www.inkscape.org/namespaces/inkscape"
   version="1.0"
   id="Layer_1"
   inkscape:output_extension="org.inkscape.output.svg.inkscape"
   sodipodi:version="0.32"
   sodipodi:docname="Logo_AB1_2009.svg"
   inkscape:version="0.91 r13725"
   x="0px"
   y="0px"
   width="923.5"
   height="350"
   viewBox="0 0 923.49998 350.00001"
   enable-background="new 0 0 497.893 193.75"
   xml:space="preserve"><metadata
     id="metadata13"><rdf:RDF><cc:Work
         rdf:about=""><dc:format>image/svg+xml</dc:format><dc:type
           rdf:resource="http://purl.org/dc/dcmitype/StillImage" /><dc:title></dc:title></cc:Work></rdf:RDF></metadata><defs
     id="defs11"><linearGradient
       inkscape:collect="always"
       id="linearGradient4330"><stop
         style="stop-color:#ffcacf;stop-opacity:1"
         offset="0"
         id="stop4332" /><stop
         id="stop4338"
         offset="0.18607488"
         style="stop-color:#ffc3c8;stop-opacity:1" /><stop
         style="stop-color:#ffa6af;stop-opacity:1"
         offset="0.38018134"
         id="stop4340" /><stop
         id="stop4342"
         offset="0.65546411"
         style="stop-color:#ff7b86;stop-opacity:1" /><stop
         style="stop-color:#ff7b86;stop-opacity:1"
         offset="1"
         id="stop4334" /></linearGradient><radialGradient
       inkscape:collect="always"
       xlink:href="#linearGradient4330"
       id="radialGradient4336"
       cx="-153.40739"
       cy="25.460152"
       fx="-153.40739"
       fy="25.460152"
       r="94.566139"
       gradientTransform="matrix(-1.012252,0.07200622,-0.05378385,-0.75607492,-271.54847,55.192348)"
       gradientUnits="userSpaceOnUse" /></defs><sodipodi:namedview
     id="base"
     width="497.892px"
     height="193.75px"
     inkscape:current-layer="g12003"
     inkscape:window-y="1"
     inkscape:window-x="0"
     inkscape:window-width="1280"
     inkscape:pageopacity="0.0"
     inkscape:pageshadow="2"
     inkscape:window-height="691"
     pagecolor="#ffffff"
     bordercolor="#666666"
     borderopacity="1.0"
     objecttolerance="10.0"
     gridtolerance="10.0"
     inkscape:cy="-18.473171"
     guidetolerance="10.0"
     inkscape:cx="-69.017729"
     inkscape:zoom="0.48495946"
     showgrid="false"
     inkscape:object-nodes="true"
     inkscape:snap-smooth-nodes="true"
     inkscape:snap-midpoints="false"
     inkscape:object-paths="true"
     inkscape:snap-intersection-paths="true"
     inkscape:window-maximized="1" /><g
     id="g12003"
     transform="matrix(0.989831,0,0,0.989831,2.47458,157.20821)"><g
       id="g4383"
       transform="matrix(1.5411862,0,0,1.5411862,1019.6438,-105.40812)"><g
         id="g4368"><path
           id="path4280"
           sodipodi:nodetypes="ccccccccc"
           d="m -499.3473,-19.477808 -128.17737,-14.962869 c -19.39704,-2.265809 -35.6941,13.440627 -35.6941,35.15954261 l 0,158.68187439 c 0,21.71892 16.29706,37.41281 35.6941,35.15577 l 128.17737,-14.96286 c 14.1377,-1.65264 25.25999,-17.27884 25.25999,-34.95641 l 0,-129.15864 c 0,-17.6738133 -11.12229,-33.307521 -25.25999,-34.956408 z"
           style="fill:#ed0a13;fill-opacity:1;stroke:none;stroke-width:7.63920021;stroke-opacity:1"
           inkscape:connector-curvature="0" /><path
           inkscape:connector-curvature="0"
           style="fill:#ff7b86;fill-opacity:1;stroke:none;stroke-width:7.63920021;stroke-opacity:1"
           d="m -634.62734,-34.471257 c -16.11387,1.785334 -28.59153,16.185826 -28.59153,35.18987815 l 0,55.88864585 c 5.46989,1.566089 10.93984,3.197716 16.40905,4.544258 8.41764,2.072457 16.83809,3.868716 25.2746,5.335506 4.21826,0.733398 8.44222,1.385014 12.66985,1.947545 4.22763,0.56252 8.45935,1.036096 12.69945,1.414777 4.24011,0.37867 8.48719,0.660688 12.74287,0.842547 4.25568,0.18186 8.51979,0.262742 12.79417,0.234808 4.27436,-0.02798 8.55918,-0.163674 12.85534,-0.414363 4.29615,-0.2507 8.60334,-0.616591 12.92439,-1.103017 4.32104,-0.486427 8.65625,-1.094015 13.00529,-1.829151 4.34905,-0.735125 8.71199,-1.597935 13.09213,-2.594744 4.38014,-0.996807 8.77841,-2.126377 13.19275,-3.397833 4.41435,-1.271456 8.84568,-2.683284 13.29733,-4.24236 4.45165,-1.559075 8.92366,-3.266681 13.41572,-5.126348 1.57896,-0.653675 3.17512,-1.43323 4.75933,-2.125127 l 0,-34.615679 c 0,-17.6738139 -11.12308,-33.306182 -25.26078,-34.955069 l -128.17648,-14.964676 c -2.42462,-0.283226 -4.8015,-0.284645 -7.10348,-0.0296 z"
           id="path4297" /><path
           id="path2276"
           d="m -582.06268,23.372863 -56.62039,117.866067 37.95859,-0.81569 9.23196,-21.54911 60.98513,-2.81738 8.75552,18.46197 30.16592,-0.23458 -46.86809,-108.255514 z m 3.75632,70.164329 18.51736,-42.411991 17.42161,41.669251 z"
           style="fill:#ffffff"
           inkscape:connector-curvature="0"
           sodipodi:nodetypes="ccccccccccccc" /></g><g
         id="g4373"><path
           inkscape:connector-curvature="0"
           style="fill:#ed0a13;fill-opacity:1;stroke:none;stroke-width:7.63920021;stroke-opacity:1"
           d="m -291.23095,-19.477808 -128.17737,-14.962869 c -19.39704,-2.265809 -35.6941,13.440627 -35.6941,35.15954261 l 0,158.68187439 c 0,21.71892 16.29706,37.41281 35.6941,35.15577 l 128.17737,-14.96286 c 14.1377,-1.65264 25.25999,-17.27884 25.25999,-34.95641 l 0,-129.15864 c 0,-17.6738133 -11.12229,-33.307521 -25.25999,-34.956408 z"
           sodipodi:nodetypes="ccccccccc"
           id="path4282" /><path
           inkscape:connector-curvature="0"
           style="fill:#ff7b86;fill-opacity:1;stroke:none;stroke-width:7.63920021;stroke-opacity:1"
           d="m -426.511,-34.471257 c -16.11386,1.785334 -28.59153,16.185826 -28.59153,35.18987815 l 0,55.88864585 c 5.46888,1.565763 10.93888,3.197965 16.40707,4.544258 8.41765,2.072457 16.83809,3.868716 25.2746,5.335506 4.21826,0.733398 8.44026,1.385014 12.66789,1.947545 4.22762,0.56252 8.46132,1.036096 12.70142,1.414777 4.24011,0.37867 8.48718,0.660688 12.74287,0.842547 4.25568,0.18186 8.51979,0.262742 12.79416,0.234808 4.27438,-0.02798 8.55918,-0.163674 12.85534,-0.414363 4.29615,-0.2507 8.60334,-0.616591 12.92439,-1.103017 4.32106,-0.486427 8.65626,-1.094015 13.00531,-1.829151 4.34904,-0.735125 8.71197,-1.597935 13.09211,-2.594744 4.38014,-0.996807 8.77644,-2.126377 13.19078,-3.397833 4.41435,-1.271456 8.84765,-2.683284 13.29931,-4.24236 4.45165,-1.559075 8.92168,-3.266681 13.41374,-5.126348 1.5803,-0.654228 3.17773,-1.434584 4.76328,-2.1271 l 0,-34.613706 c 0,-17.6738139 -11.12308,-33.306182 -25.26078,-34.955069 l -128.17648,-14.964676 c -2.42462,-0.283226 -4.8015,-0.284645 -7.10348,-0.0296 z"
           id="path4304" /><path
           id="path2278"
           d="m -308.03793,79.937535 c 9.85148,-4.171322 12.28009,-9.095097 12.28009,-25.015029 0,-12.102573 -2.16088,-18.888734 -7.32898,-23.307355 -3.98296,-3.270015 -9.53425,-4.546375 -22.44117,-5.440649 l -17.56618,-0.991553 -77.03925,-4.340096 0,120.842887 96.61658,-6.06536 c 14.92187,-1.09704 20.7003,-2.74612 25.32785,-7.65699 3.63531,-3.85369 5.64772,-12.20924 5.64772,-23.46675 0,-8.882966 -1.47568,-15.371415 -4.70369,-19.321225 -2.16721,-2.694536 -4.47147,-3.804467 -10.79297,-5.23788 z m -35.96153,-28.589778 7.69186,0.379744 c 10.73589,0.301216 12.32196,1.504911 12.32196,8.717696 0,8.042596 -1.72057,8.674329 -19.85903,8.498523 l -42.41274,-0.425454 0,-17.796768 z m 8.6625,58.696183 -50.92045,0.74284 0,-17.653048 51.50159,-0.784111 c 9.28482,0.431187 12.9011,-0.290765 12.9011,7.723699 10e-4,8.16566 -1.07018,9.54165 -13.48224,9.97062 z"
           style="fill:#ffffff"
           sodipodi:nodetypes="cscccccccsccccsccccccccsc"
           inkscape:connector-curvature="0" /></g><g
         id="g4378"><path
           id="path4284"
           sodipodi:nodetypes="ccccccccc"
           d="M -83.114625,-19.477808 -211.29199,-34.440677 c -19.39704,-2.265809 -35.6941,13.440627 -35.6941,35.15954261 l 0,158.68187439 c 0,21.71892 16.29706,37.41281 35.6941,35.15577 l 128.177365,-14.96286 c 14.137699,-1.65264 25.259989,-17.27884 25.259989,-34.95641 l 0,-129.15864 c 0,-17.6738133 -11.12229,-33.307521 -25.259989,-34.956408 z"
           style="fill:#ed0a13;fill-opacity:1;stroke:none;stroke-width:7.63920021;stroke-opacity:1"
           inkscape:connector-curvature="0" /><path
           inkscape:connector-curvature="0"
           style="fill:url(#radialGradient4336);fill-opacity:1;stroke:none;stroke-width:7.63920021;stroke-opacity:1"
           d="m -218.39466,-34.471257 c -16.11386,1.785334 -28.59153,16.185826 -28.59153,35.18987815 l 0,55.88864585 c 5.46888,1.565763 10.93888,3.197965 16.40707,4.544258 8.41765,2.072457 16.83809,3.868716 25.2746,5.335506 4.21826,0.733398 8.44026,1.385014 12.66789,1.947545 4.22762,0.56252 8.46132,1.036096 12.70142,1.414777 4.24011,0.37867 8.48718,0.660688 12.74287,0.842547 4.25568,0.18186 8.51979,0.262742 12.79416,0.234808 4.27438,-0.02798 8.55918,-0.163674 12.85534,-0.414363 4.29615,-0.2507 8.60334,-0.616591 12.9244,-1.103017 4.32105,-0.486427 8.65625,-1.094015 13.0053,-1.829151 4.34904,-0.735125 8.71197,-1.597935 13.09211,-2.594744 4.380148,-0.996807 8.776438,-2.126377 13.190782,-3.397833 4.414346,-1.271456 8.847653,-2.683284 13.299304,-4.24236 4.451651,-1.559075 8.921687,-3.266681 13.413749,-5.126348 1.580299,-0.654228 3.177721,-1.434584 4.763281,-2.1271 l 0,-34.613706 c 0,-17.6738139 -11.123084,-33.306182 -25.260784,-34.955069 L -211.29118,-34.441659 c -2.42462,-0.283226 -4.8015,-0.284645 -7.10348,-0.0296 z"
           id="path4306" /><path
           style="fill:#ffffff;fill-rule:evenodd;stroke:none;stroke-width:1.01027346px;stroke-linecap:butt;stroke-linejoin:miter;stroke-opacity:1"
           d="m -145.37201,136.53733 27.74114,0 0,-111.641051 -36.87541,-2.029839 -43.97983,30.44758 15.22379,25.034678 38.22861,-27.064515 z"
           id="path4230"
           inkscape:connector-curvature="0"
           sodipodi:nodetypes="cccccccc" /></g></g></g></svg>