<?xml version="1.0" encoding="UTF-8" standalone="no"?>
<!-- Generator: Adobe Illustrator 13.0.0, SVG Export Plug-In . SVG Version: 6.00 Build 14948)  -->

<svg
   xmlns:dc="http://purl.org/dc/elements/1.1/"
   xmlns:cc="http://creativecommons.org/ns#"
   xmlns:rdf="http://www.w3.org/1999/02/22-rdf-syntax-ns#"
   xmlns:svg="http://www.w3.org/2000/svg"
   xmlns="http://www.w3.org/2000/svg"
   xmlns:sodipodi="http://sodipodi.sourceforge.net/DTD/sodipodi-0.dtd"
   xmlns:inkscape="http://www.inkscape.org/namespaces/inkscape"
   version="1.0"
   id="Layer_1"
   inkscape:output_extension="org.inkscape.output.svg.inkscape"
   sodipodi:version="0.32"
   sodipodi:docname="Logo_AB3.svg"
   inkscape:version="0.47 r22583"
   x="0px"
   y="0px"
   width="497.893px"
   height="193.75px"
   viewBox="0 0 497.893 193.75"
   enable-background="new 0 0 497.893 193.75"
   xml:space="preserve"><metadata
   id="metadata13"><rdf:RDF><cc:Work
       rdf:about=""><dc:format>image/svg+xml</dc:format><dc:type
         rdf:resource="http://purl.org/dc/dcmitype/StillImage" /></cc:Work></rdf:RDF></metadata><defs
   id="defs11"><inkscape:perspective
     sodipodi:type="inkscape:persp3d"
     inkscape:vp_x="0 : 96.875 : 1"
     inkscape:vp_y="0 : 1000 : 0"
     inkscape:vp_z="497.89301 : 96.875 : 1"
     inkscape:persp3d-origin="248.9465 : 64.583333 : 1"
     id="perspective15" /><inkscape:perspective
     id="perspective2395"
     inkscape:persp3d-origin="372.04724 : 350.78739 : 1"
     inkscape:vp_z="744.09448 : 526.18109 : 1"
     inkscape:vp_y="0 : 1000 : 0"
     inkscape:vp_x="0 : 526.18109 : 1"
     sodipodi:type="inkscape:persp3d" /><inkscape:perspective
     id="perspective2826"
     inkscape:persp3d-origin="0.5 : 0.33333333 : 1"
     inkscape:vp_z="1 : 0.5 : 1"
     inkscape:vp_y="0 : 1000 : 0"
     inkscape:vp_x="0 : 0.5 : 1"
     sodipodi:type="inkscape:persp3d" /></defs>
<sodipodi:namedview
   id="base"
   width="497.892px"
   height="193.75px"
   inkscape:current-layer="g12003"
   inkscape:window-y="-8"
   inkscape:window-x="-8"
   inkscape:window-width="1280"
   inkscape:pageopacity="0.0"
   inkscape:pageshadow="2"
   inkscape:window-height="944"
   pagecolor="#ffffff"
   bordercolor="#666666"
   borderopacity="1.0"
   objecttolerance="10.0"
   gridtolerance="10.0"
   inkscape:cy="-67.218707"
   guidetolerance="10.0"
   inkscape:cx="213.86775"
   inkscape:zoom="0.96991893"
   showgrid="false"
   inkscape:object-nodes="true"
   inkscape:snap-smooth-nodes="true"
   inkscape:snap-midpoints="false"
   inkscape:object-paths="true"
   inkscape:snap-intersection-paths="true">
	</sodipodi:namedview>
<g
   id="g12003"
   transform="matrix(0.989831, 0, 0, 0.989831, 2.47458, 0.958219)">
	<path
   id="path12001"
   sodipodi:nodetypes="ccccccccc"
   d="M131.758,17.521   L31.738,5.588C16.602,3.781,3.885,16.307,3.885,33.628v126.55c0,17.321,12.717,29.837,27.853,28.037l100.02-11.933   c11.032-1.318,19.711-13.78,19.711-27.878V45.399C151.469,31.304,142.79,18.836,131.758,17.521z"
   stroke-width="7.6392"
   stroke="#ED9B47"
   fill="#FFFFFF"
   style="fill:#9f000b;fill-opacity:1;stroke:#9f000b;stroke-opacity:1" />
	<path
   id="path2270"
   sodipodi:nodetypes="ccccccccc"
   fill="#FFFFFF"
   stroke="#ED9B47"
   stroke-width="7.6392"
   d="M303.053,17.521   L203.033,5.588c-15.135-1.807-27.854,10.719-27.854,28.041v126.55c0,17.321,12.718,29.837,27.854,28.037l100.02-11.933   c11.032-1.318,19.711-13.78,19.711-27.878V45.399C322.764,31.304,314.085,18.836,303.053,17.521z"
   style="fill:#9f000b;fill-opacity:1;stroke:#9f000b;stroke-opacity:1" />
	<path
   id="path2274"
   fill="#ED9B47"
   d="M 477.175,14.171 371.921,1.736 c -15.927,-1.883 -29.303,11.171 -29.303,29.223 l 0,131.888 c 0,18.052 13.376,31.096 29.303,29.22 l 105.255,-12.436 c 11.608,-1.374 20.742,-14.362 20.742,-29.054 l 0,-107.351 c 0,-14.689 -9.134,-27.683 -20.743,-29.055 z"
   style="fill:#9f000b;fill-opacity:1"
   sodipodi:nodetypes="ccccccccc" />
	<path
   id="path2276"
   fill="#ED9B47"
   d="M67.079,51.46L19.431,153.725l31.95-2.17l7.471-17.342l53.206-2.458l6.472,15.232   l24.568-1.663l-37.973-91.547L67.079,51.46z M68.093,112.108l16.003-37.074l4.831,0.144l15.047,36.282L68.093,112.108z"
   style="fill: rgb(255, 255, 255);" />
	<path
   id="path2278"
   fill="#ED9B47"
   d="m 295.116,99.947 c 7.764,-3.559 9.678,-7.76 9.678,-21.343 0,-10.326 -1.703,-16.116 -5.776,-19.886 -3.139,-2.79 -7.514,-3.879 -17.686,-4.642 l -13.844,-0.846 -60.715,-3.703 0,103.104 76.144,-5.175 c 11.76,-0.936 16.314,-2.343 19.961,-6.533 2.865,-3.288 4.451,-10.417 4.451,-20.022 0,-7.579 -1.163,-13.115 -3.707,-16.485 -1.708,-2.299 -3.524,-3.246 -8.506,-4.469 z m -27.627,-24.393 6.062,0.324 c 8.461,0.257 9.711,1.284 9.711,7.438 0,6.862 -1.356,7.401 -15.651,7.251 l -35.365,-0.363 0,-15.737 35.243,1.087 z m 7.338,50.08 -7.216,0.41 -35.365,1.329 0,-16.941 35.477,-0.551 7.562,-0.118 c 9.885,-0.015 10.78,0.526 10.78,7.364 10e-4,6.967 -1.456,8.141 -11.238,8.507 z"
   style="fill: rgb(255, 255, 255);"
   sodipodi:nodetypes="cscccccccsccccsccccccccccsc" />
	
<path
   style="fill:#ffffff;fill-opacity:1;stroke:none"
   d="m 416.06891,51.503017 -33.56002,23.488859 14.61739,20.868462 32.45504,-22.731154 0,76.244076 25.47783,-1.76798 0,-93.797577 -17.14308,-1.010273 -8.33475,-0.505137 -13.51241,-0.789276 z"
   id="rect3624" /></g>
</svg>