<?xml version="1.0" encoding="UTF-8" standalone="no"?>
<!-- Created with Inkscape (http://www.inkscape.org/) -->

<svg
   xmlns:dc="http://purl.org/dc/elements/1.1/"
   xmlns:cc="http://creativecommons.org/ns#"
   xmlns:rdf="http://www.w3.org/1999/02/22-rdf-syntax-ns#"
   xmlns:svg="http://www.w3.org/2000/svg"
   xmlns="http://www.w3.org/2000/svg"
   xmlns:xlink="http://www.w3.org/1999/xlink"
   xmlns:sodipodi="http://sodipodi.sourceforge.net/DTD/sodipodi-0.dtd"
   xmlns:inkscape="http://www.inkscape.org/namespaces/inkscape"
   width="1000"
   height="256.63821"
   id="svg2"
   version="1.1"
   inkscape:version="0.48.5 r10040"
   sodipodi:docname="drawing.svg">
  <defs
     id="defs4">
    <linearGradient
       id="linearGradient4284">
      <stop
         id="stop4286"
         offset="0"
         style="stop-color:#02018a;stop-opacity:1" />
      <stop
         style="stop-color:#0d0b9d;stop-opacity:1"
         offset="0.1"
         id="stop4288" />
      <stop
         style="stop-color:#3c3abe;stop-opacity:1"
         offset="0.2"
         id="stop4290" />
      <stop
         style="stop-color:#5351d4;stop-opacity:1"
         offset="0.30000001"
         id="stop4292" />
      <stop
         style="stop-color:#6462e4;stop-opacity:1"
         offset="0.40000001"
         id="stop4294" />
      <stop
         style="stop-color:#625ff0;stop-opacity:1"
         offset="0.5"
         id="stop4296" />
      <stop
         style="stop-color:#4e63ee;stop-opacity:1"
         offset="0.60000002"
         id="stop4298" />
      <stop
         style="stop-color:#3c6dec;stop-opacity:1"
         offset="0.69999999"
         id="stop4300" />
      <stop
         style="stop-color:#277de9;stop-opacity:1"
         offset="0.80000001"
         id="stop4302" />
      <stop
         style="stop-color:#1491e7;stop-opacity:1"
         offset="0.89999998"
         id="stop4304" />
      <stop
         id="stop4306"
         offset="1"
         style="stop-color:#02a7e6;stop-opacity:1" />
    </linearGradient>
    <linearGradient
       id="linearGradient4258">
      <stop
         id="stop4260"
         offset="0"
         style="stop-color:#020188;stop-opacity:1" />
      <stop
         style="stop-color:#03019a;stop-opacity:1"
         offset="0.1"
         id="stop4262" />
      <stop
         style="stop-color:#0301ad;stop-opacity:1"
         offset="0.2"
         id="stop4264" />
      <stop
         style="stop-color:#0400c2;stop-opacity:1"
         offset="0.30000001"
         id="stop4266" />
      <stop
         style="stop-color:#0400d4;stop-opacity:1"
         offset="0.40000001"
         id="stop4268" />
      <stop
         style="stop-color:#0500e7;stop-opacity:1"
         offset="0.5"
         id="stop4270" />
      <stop
         style="stop-color:#0426e7;stop-opacity:1"
         offset="0.60000002"
         id="stop4272" />
      <stop
         style="stop-color:#0446e7;stop-opacity:1"
         offset="0.69999999"
         id="stop4274" />
      <stop
         style="stop-color:#0368e6;stop-opacity:1"
         offset="0.80000001"
         id="stop4276" />
      <stop
         style="stop-color:#038be6;stop-opacity:1"
         offset="0.89999998"
         id="stop4278" />
      <stop
         id="stop4280"
         offset="1"
         style="stop-color:#02a7e6;stop-opacity:1" />
    </linearGradient>
    <linearGradient
       id="linearGradient3132">
      <stop
         id="stop3134"
         offset="0"
         style="stop-color:#fa4700;stop-opacity:1" />
      <stop
         style="stop-color:#fe5e25;stop-opacity:1"
         offset="0.1"
         id="stop3136" />
      <stop
         style="stop-color:#fd6f34;stop-opacity:1"
         offset="0.2"
         id="stop3138" />
      <stop
         style="stop-color:#ff743e;stop-opacity:1"
         offset="0.30000001"
         id="stop3140" />
      <stop
         style="stop-color:#fe763f;stop-opacity:1"
         offset="0.40000001"
         id="stop3142" />
      <stop
         style="stop-color:#ff7239;stop-opacity:1"
         offset="0.5"
         id="stop3144" />
      <stop
         style="stop-color:#fe6d31;stop-opacity:1"
         offset="0.60000002"
         id="stop3146" />
      <stop
         style="stop-color:#ff6526;stop-opacity:1"
         offset="0.69999999"
         id="stop3148" />
      <stop
         style="stop-color:#fe5c1a;stop-opacity:1"
         offset="0.80000001"
         id="stop3150" />
      <stop
         style="stop-color:#fe530e;stop-opacity:1"
         offset="0.89999998"
         id="stop3152" />
      <stop
         id="stop3154"
         offset="1"
         style="stop-color:#ff4700;stop-opacity:1" />
    </linearGradient>
    <linearGradient
       id="linearGradient3104">
      <stop
         style="stop-color:#fa4700;stop-opacity:1"
         offset="0"
         id="stop3106" />
      <stop
         id="stop3128"
         offset="0.1"
         style="stop-color:#fe4a00;stop-opacity:1" />
      <stop
         id="stop3126"
         offset="0.2"
         style="stop-color:#fe4a00;stop-opacity:1" />
      <stop
         id="stop3124"
         offset="0.30000001"
         style="stop-color:#fe4a00;stop-opacity:1" />
      <stop
         id="stop3122"
         offset="0.40000001"
         style="stop-color:#fe4a00;stop-opacity:1" />
      <stop
         id="stop3120"
         offset="0.5"
         style="stop-color:#fe4a00;stop-opacity:1" />
      <stop
         id="stop3118"
         offset="0.60000002"
         style="stop-color:#fe4a00;stop-opacity:1" />
      <stop
         id="stop3116"
         offset="0.69999999"
         style="stop-color:#fe4a00;stop-opacity:1" />
      <stop
         id="stop3114"
         offset="0.80000001"
         style="stop-color:#fe4a00;stop-opacity:1" />
      <stop
         id="stop3112"
         offset="0.89999998"
         style="stop-color:#fe4a00;stop-opacity:1" />
      <stop
         style="stop-color:#ff4700;stop-opacity:1"
         offset="1"
         id="stop3108" />
    </linearGradient>
    <radialGradient
       id="radialGradient-3"
       gradientTransform="scale(1.6123002,0.62023189)"
       r="31.962198"
       fy="1.3400294"
       fx="16.859776"
       cy="1.3400294"
       cx="16.859776"
       gradientUnits="userSpaceOnUse">
      <stop
         id="stop2995"
         offset="0%"
         stop-color="#FFFFFF" />
      <stop
         id="stop2997"
         offset="99.2028061%"
         stop-opacity="0"
         stop-color="#FFFFFF" />
    </radialGradient>
    <path
       id="path-1"
       d="M 0,0.83112892 0,17.258696 c 0,0 23.599665,-10.1742934 59.148148,-13.0549706 l 0,-3.37259648 -59.148148,0"
       inkscape:connector-curvature="0" />
    <radialGradient
       inkscape:collect="always"
       xlink:href="#radialGradient-3"
       id="radialGradient3064"
       gradientUnits="userSpaceOnUse"
       gradientTransform="scale(1.6123002,0.62023189)"
       cx="16.859776"
       cy="1.3400294"
       fx="16.859776"
       fy="1.3400294"
       r="31.962198" />
    <linearGradient
       inkscape:collect="always"
       xlink:href="#linearGradient3104"
       id="linearGradient3110"
       x1="283.80545"
       y1="1840.9181"
       x2="843.96472"
       y2="1840.9181"
       gradientUnits="userSpaceOnUse"
       gradientTransform="matrix(1.7857143,0,0,1.7857143,-223.14286,-1448.3675)" />
    <linearGradient
       inkscape:collect="always"
       xlink:href="#linearGradient3132"
       id="linearGradient3130"
       x1="284.88019"
       y1="1645.9871"
       x2="844.06927"
       y2="1645.9871"
       gradientUnits="userSpaceOnUse"
       gradientTransform="matrix(1.7857143,0,0,1.7857143,-223.14286,-1448.3675)" />
    <linearGradient
       inkscape:collect="always"
       xlink:href="#linearGradient4258"
       id="linearGradient4256"
       x1="378.37759"
       y1="1438.3881"
       x2="557.69232"
       y2="1438.3881"
       gradientUnits="userSpaceOnUse"
       gradientTransform="matrix(3.8884573,0,0,3.8884573,-807.83685,-2685.2271)" />
    <linearGradient
       inkscape:collect="always"
       xlink:href="#linearGradient4284"
       id="linearGradient4282"
       x1="378.09311"
       y1="1377.8328"
       x2="557.25189"
       y2="1377.8328"
       gradientUnits="userSpaceOnUse"
       gradientTransform="matrix(3.8884573,0,0,3.8884573,-807.83685,-2685.2271)" />
  </defs>
  <sodipodi:namedview
     id="base"
     pagecolor="#ffffff"
     bordercolor="#666666"
     borderopacity="1.0"
     inkscape:pageopacity="0.0"
     inkscape:pageshadow="2"
     inkscape:zoom="0.2008418"
     inkscape:cx="1064.0555"
     inkscape:cy="-374.69453"
     inkscape:document-units="px"
     inkscape:current-layer="layer1"
     showgrid="true"
     fit-margin-top="0"
     fit-margin-left="0"
     fit-margin-right="0"
     fit-margin-bottom="0"
     inkscape:window-width="1031"
     inkscape:window-height="1036"
     inkscape:window-x="882"
     inkscape:window-y="-19"
     inkscape:window-maximized="0">
    <inkscape:grid
       type="xygrid"
       id="grid3049"
       empspacing="5"
       visible="true"
       enabled="true"
       snapvisiblegridlinesonly="true"
       originx="-662px"
       originy="1866px" />
  </sodipodi:namedview>
  <metadata
     id="metadata7">
    <rdf:RDF>
      <cc:Work
         rdf:about="">
        <dc:format>image/svg+xml</dc:format>
        <dc:type
           rdf:resource="http://purl.org/dc/dcmitype/StillImage" />
        <dc:title />
      </cc:Work>
    </rdf:RDF>
  </metadata>
  <g
     inkscape:label="Layer 1"
     inkscape:groupmode="layer"
     id="layer1"
     transform="translate(-662,-2661.724)">
    <path
       style="fill:url(#linearGradient4282);stroke:none"
       d="m 662,2840.5931 0,-178.8691 697.9781,0 0,38.8846 -157.4825,155.5383 -509.38794,0 z"
       id="path4254"
       inkscape:connector-curvature="0"
       sodipodi:nodetypes="ccccccc" />
    <path
       style="fill:url(#linearGradient4256);stroke:none"
       d="m 662,2918.3622 0,-77.7691 c 0,0 356.1637,-129.2345 697.9781,-139.9845 l 0,0.4962 -40.8288,46.1653 40.8288,131.0394 0,40.0527 z"
       id="path4252"
       inkscape:connector-curvature="0"
       sodipodi:nodetypes="cccccccc" />
    <path
       inkscape:connector-curvature="0"
       style="fill:#ffffff;fill-rule:evenodd;stroke:none"
       id="Fill-1"
       d="m 1359.9792,2878.467 -80.7697,0 0,-154.633 80.7697,-22.7292 z m -342.0352,-176.4539 144.8466,0 0,44.1954 -66.9375,0 0,32.511 47.8622,0 0,44.1943 -47.8622,0 0,55.5532 -77.9091,0 z m -275.73706,0 159.31954,0 0,60.9251 -40.70492,0 0,115.5288 -77.90975,0 0,-115.5288 -40.70487,0 z"
       sodipodi:nodetypes="ccccccccccccccccccccccccc" />
    <path
       style="fill:#bdbdc4;fill-opacity:1;fill-rule:evenodd;stroke:none"
       d="m 1471.9427,2688.4883 -6.0601,10.8445 8.5719,0 8.6118,-10.8445 -11.1236,0 z m -52.1489,13.8347 c -8.1375,0 -12.2001,3.8659 -12.2001,11.602 l 0,21.7688 c 0,7.8305 3.9647,11.761 11.921,11.761 l 9.7281,0 c 1.5787,0 2.5882,0.2372 3.0698,0.7182 0.4792,0.4891 0.7178,1.5243 0.7178,3.1092 l 0,20.1745 c 0,1.5861 -0.238,2.6301 -0.7178,3.1096 -0.4819,0.486 -1.4911,0.7178 -3.0698,0.7178 l -5.542,0 c -1.5743,0 -2.6221,-0.2294 -3.1495,-0.7178 -0.5239,-0.4795 -0.7576,-1.5235 -0.7576,-3.1096 l 0,-10.2869 -11.961,0 0,12.1603 c 0,7.7443 4.0627,11.602 12.2,11.602 l 12.7185,0 c 8.2206,0 12.3594,-3.8577 12.3594,-11.602 l 0,-23.7623 c 0,-7.7396 -4.0358,-11.6016 -12.0805,-11.6016 l -9.5686,0 c -1.5743,0 -2.6265,-0.2683 -3.1496,-0.7575 -0.5231,-0.4818 -0.7972,-1.4873 -0.7972,-3.0703 l 0,-18.3395 c 0,-1.5799 0.2737,-2.6271 0.7972,-3.1096 0.5231,-0.4865 1.5754,-0.7179 3.1496,-0.7179 l 5.502,0 c 1.5788,0 2.6266,0.2295 3.1497,0.7179 0.5282,0.4825 0.7973,1.5297 0.7973,3.1096 l 0,10.2865 11.921,0 0,-12.1604 c 0,-7.7361 -4.0677,-11.602 -12.2,-11.602 l -12.838,0 z m 36.2411,0 0,82.6091 35.6831,0 0,-9.648 -23.7622,0 0,-28.2279 18.898,0 0,-9.6484 -18.898,0 0,-25.4364 22.8451,0 0,-9.6484 -34.766,0 z m 45.7302,0 0,82.6091 11.8411,0 0,-33.3707 6.4189,0 12.3197,33.3707 12.7581,0 -12.9974,-33.6499 c 5.8633,-0.9628 8.7713,-4.7976 8.7713,-11.4822 l 0,-25.875 c 0,-7.7361 -4.0619,-11.602 -12.2,-11.602 l -26.9117,0 z m 53.026,0 0,82.6091 11.8013,0 0,-82.6091 -11.8013,0 z m 24.9981,0 0,82.6091 35.7229,0 0,-9.648 -23.7621,0 0,-28.2279 18.8982,0 0,-9.6484 -18.8982,0 0,-25.4364 22.8452,0 0,-9.6484 -34.806,0 z m 56.8936,0 c -8.133,0 -12.2398,3.8659 -12.2398,11.602 l 0,21.7688 c 0,7.8305 4.0012,11.761 11.9608,11.761 l 9.728,0 c 1.5714,0 2.5863,0.2372 3.0699,0.7182 0.4791,0.4891 0.7178,1.5243 0.7178,3.1092 l 0,20.1745 c 0,1.5861 -0.238,2.6301 -0.7178,3.1096 -0.4836,0.486 -1.4987,0.7178 -3.0699,0.7178 l -5.5418,0 c -1.5719,0 -2.6273,-0.2294 -3.1498,-0.7178 -0.5261,-0.4795 -0.7573,-1.5235 -0.7573,-3.1096 l 0,-10.2869 -11.9608,0 0,12.1603 c 0,7.7443 4.0677,11.602 12.2,11.602 l 12.7182,0 c 8.2234,0 12.3597,-3.8577 12.3597,-11.602 l 0,-23.7623 c 0,-7.7396 -4.0359,-11.6016 -12.0805,-11.6016 l -9.5686,0 c -1.5761,0 -2.6248,-0.2683 -3.1498,-0.7575 -0.5281,-0.4818 -0.7972,-1.4873 -0.7972,-3.0703 l 0,-18.3395 c 0,-1.5799 0.2691,-2.6271 0.7972,-3.1096 0.5249,-0.4865 1.5738,-0.7179 3.1498,-0.7179 l 5.502,0 c 1.571,0 2.6265,0.2295 3.1495,0.7179 0.5223,0.4825 0.7974,1.5297 0.7974,3.1096 l 0,10.2865 11.9209,0 0,-12.1604 c 0,-7.7361 -4.0644,-11.602 -12.2,-11.602 l -12.8379,0 z m -123.0766,9.6484 11.5223,0 c 1.5743,0 2.6222,0.2295 3.1496,0.7179 0.5231,0.4825 0.7973,1.5297 0.7973,3.1096 l 0,22.4068 c 0,1.581 -0.2742,2.6239 -0.7973,3.1096 -0.5274,0.4818 -1.5754,0.7174 -3.1496,0.7174 l -11.5223,0 0,-30.0613 z m -106.0125,86.1574 0,82.6095 11.921,0 0,-36.4411 18.898,0 0,-9.3685 -18.898,0 0,-27.1515 23.8816,0 0,-9.6484 -35.8026,0 z m 45.3314,0 0,82.6095 11.8013,0 0,-82.6095 -11.8013,0 z m 23.5229,0 0,82.6095 32.1746,0 0,-9.6485 -20.3733,0 0,-72.961 -11.8013,0 z m 41.7431,0 0,82.6095 10.3661,0 0,-60.3228 11.283,42.3814 10.7647,0 11.2831,-42.5004 0,60.4418 10.3659,0 0,-82.6095 -12.9973,0 -14.034,51.1923 -14.0341,-51.1923 -12.9974,0 z m 77.3068,0 c -8.1331,0 -12.2002,3.8585 -12.2002,11.602 l 0,21.7687 c 0,7.8321 3.9988,11.7614 11.9608,11.7614 l 9.6883,0 c 1.5739,0 2.6262,0.2372 3.1098,0.7178 0.4791,0.4908 0.7178,1.5266 0.7178,3.1096 l 0,20.1741 c 0,1.5904 -0.238,2.6317 -0.7178,3.11 -0.4836,0.4907 -1.5362,0.7174 -3.1098,0.7174 l -5.502,0 c -1.5743,0 -2.6221,-0.2255 -3.1496,-0.7174 -0.5231,-0.4783 -0.7973,-1.5196 -0.7973,-3.11 l 0,-10.2861 -11.9209,0 0,12.1596 c 0,7.7435 4.0644,11.6024 12.2,11.6024 l 12.7183,0 c 8.2188,0 12.3196,-3.8589 12.3196,-11.6024 l 0,-23.762 c 0,-7.7419 -3.9959,-11.602 -12.0405,-11.602 l -9.6085,0 c -1.577,0 -2.6215,-0.2333 -3.1497,-0.7174 -0.5248,-0.4868 -0.7577,-1.532 -0.7577,-3.11 l 0,-18.3399 c 0,-1.5826 0.2333,-2.6282 0.7577,-3.11 0.5282,-0.481 1.5728,-0.7174 3.1497,-0.7174 l 5.5418,0 c 1.5756,0 2.6266,0.2372 3.1497,0.7174 0.5223,0.4818 0.7574,1.5274 0.7574,3.11 l 0,10.2861 11.9608,0 0,-12.1599 c 0,-7.7435 -4.0645,-11.602 -12.2001,-11.602 l -12.8778,0 z"
       id="Fill-2-1"
       inkscape:connector-curvature="0" />
  </g>
</svg>
