<?xml version="1.0" encoding="UTF-8" standalone="no"?>
<!-- Created with Inkscape (http://www.inkscape.org/) -->
<svg
   xmlns:svg="http://www.w3.org/2000/svg"
   xmlns="http://www.w3.org/2000/svg"
   version="1.0"
   width="950.50391"
   height="119.91351"
   id="svg2">
  <defs
     id="defs4" />
  <g
     transform="translate(-48.487295,-880.10458)"
     id="layer1">
    <path
       d="M 158.33346,884.21102 L 158.33346,937.92496 L 197.69127,999.62307 C 201.54643,999.62307 217.03519,1000.8156 233.18496,996.48826 C 258.41924,987.58509 264.13249,956.06267 243.90728,936.85018 L 238.48215,931.69374 L 243.05001,926.2686 C 252.88338,912.48965 246.73651,895.78399 232.63477,887.58893 C 226.84456,884.63372 221.90374,884.21102 192.18937,884.21102 L 158.33346,884.21102 z M 120.34473,886.77005 L 48.487295,999.8022 L 101.38236,999.8022 L 120.34473,972.66374 L 141.4311,999.62307 L 192.1126,999.62307 L 120.34473,886.77005 z"
       id="rect2446"
       style="fill:#12631f;fill-opacity:1;fill-rule:nonzero;stroke:none;stroke-width:1;stroke-linecap:round;stroke-linejoin:round;stroke-miterlimit:4;stroke-opacity:1" />
    <path
       d="M 531.86143,880.10458 C 523.65091,880.10458 516.98026,886.88579 516.98026,895.23688 C 516.98026,903.58798 523.65087,910.35663 531.86143,910.35663 C 540.0719,910.35663 546.73001,903.58798 546.73001,895.23688 C 546.73001,886.88579 540.0719,880.10458 531.86143,880.10458 z M 339.03442,884.63799 L 257.28231,999.45513 L 294.59191,999.45513 L 308.02889,979.92755 L 347.07149,979.92755 L 348.55333,999.45513 L 379.55885,999.45513 L 376.33536,938.68733 L 373.46826,884.63799 L 339.03442,884.63799 z M 744.21595,916.68582 C 675.79051,917.28771 684.91753,1023.7787 735.9403,993.02547 L 741.45321,999.45513 L 767.38535,999.45513 L 784.84087,924.42151 L 763.26635,919.08439 C 756.35366,917.37994 750.01482,916.63482 744.21595,916.68582 z M 617.53157,916.71094 C 608.69119,916.80221 597.64222,919.8891 586.04887,927.69913 L 588.71115,919.08439 L 555.45775,919.08439 L 533.40603,999.45513 L 563.87156,999.45513 L 577.84852,952.37546 C 581.76663,934.29051 602.77398,935.30337 597.25054,952.37546 L 584.27818,999.45513 L 618.37297,999.45513 L 630.65463,951.81035 C 635.72682,933.75532 654.33996,937.58926 651.55102,951.81035 L 640.41216,999.45513 L 672.33437,999.45513 L 687.49181,938.0343 C 692.73274,915.73982 668.20448,908.17937 637.08429,928.77911 C 637.60368,922.08877 629.64621,916.58586 617.53157,916.71094 z M 469.59918,918.41882 C 461.09648,918.59136 450.07797,921.71713 436.6221,929.53259 L 439.54808,919.08439 L 411.93319,919.08439 L 384.3811,999.45513 L 418.24983,999.45513 L 430.88311,951.23268 C 436.90312,930.43204 457.64206,939.71968 454.41666,951.23268 L 442.36105,999.45513 L 472.78893,999.45513 L 490.5835,935.7362 C 491.85436,927.54699 485.35003,918.88266 471.49135,918.42977 C 470.87514,918.40963 470.24439,918.40573 469.59918,918.41882 z M 511.25385,919.08439 L 487.14262,999.45513 L 519.85605,999.45513 L 543.40214,919.08439 L 511.25385,919.08439 z M 964.54482,919.08439 L 945.1428,937.7957 L 934.45602,919.08439 L 901.05193,919.08439 L 924.69849,956.97166 L 881.64992,999.45513 L 915.63171,999.45513 L 936.86715,977.86805 L 950.19113,999.45513 L 981.30963,999.45513 L 957.6505,958.46605 L 998.9912,919.08439 L 964.54482,919.08439 z M 804.02938,919.08439 L 787.95523,974.20114 C 780.15124,1003.3067 808.9979,1002.715 824.66734,996.71585 C 828.704,995.17036 831.86619,993.26601 833.30193,991.41805 L 836.75534,999.45513 L 868.32597,999.45513 L 891.85953,919.08439 L 858.68149,919.08439 L 846.39983,963.51434 C 842.56703,976.60986 820.0541,984.74402 825.15182,963.51434 L 836.98139,919.08439 L 804.02938,919.08439 z M 342.47529,928.8419 L 345.3385,952.95312 L 325.92394,952.95312 L 342.47529,928.8419 z M 742.483,942.31656 C 744.84493,942.235 752.22305,942.72673 754.97811,943.93653 L 747.11685,971.5263 C 716.88013,991.52742 719.71762,942.66961 742.483,942.31656 z"
       id="path2474"
       style="fill:#12631f;fill-opacity:1;fill-rule:evenodd;stroke:none;stroke-width:4.01853704;stroke-linecap:butt;stroke-linejoin:miter;stroke-miterlimit:4;stroke-dasharray:none;stroke-opacity:1" />
    <path
       d="M 523.8125,42 C 523.69457,42.017454 523.56883,42.050113 523.40625,42.09375 C 522.76269,42.26649 521.94915,42.636881 521.375,42.96875 C 517.71842,45.08217 514.08134,47.239741 510.4375,49.375 C 509.3549,50.058424 508.274,50.727611 507.25,51.5 C 510.86041,49.3394 516.50637,46.025856 514.53125,47.375 C 510.88407,49.86625 506.84352,51.741562 503.125,54.125 C 502.10771,55.08763 501.24324,56.09589 500.40625,57.21875 L 507.0625,58.09375 C 509.49548,57.87122 511.85339,57.25881 514.0625,56.21875 C 520.19037,52.61473 525.84652,52.088931 526.9375,45.625 C 527.25252,43.86933 526.59798,42.539429 524.875,42.03125 C 524.37448,41.997358 524.16628,41.947639 523.8125,42 z M 507.25,51.5 C 506.20447,52.125682 505.2652,52.709371 504.84375,52.96875 C 508.09498,51.083201 504.79419,52.987818 506.875,51.78125 C 506.99838,51.683548 507.12479,51.594444 507.25,51.5 z M 346.9375,57.65625 L 336.25,63.125 C 336.39933,65.855438 336.31863,68.587684 336.1875,71.3125 C 335.96784,70.707214 335.74751,70.107027 335.53125,69.5 C 334.89058,68.09456 334.30659,66.70707 333.25,65.5625 C 332.18553,64.3485 330.91926,63.362161 329.625,62.40625 C 328.31548,61.57442 326.88287,60.971388 325.46875,60.34375 C 323.98282,59.5995 322.35364,59.329412 320.71875,59.15625 C 319.07521,59.01971 317.39791,59.03409 315.75,59.03125 C 314.12398,59.03275 312.50101,59.028689 310.875,59.03125 C 309.03805,58.89221 307.33849,59.484028 305.6875,60.21875 C 304.24909,60.93627 302.76271,61.327528 301,62.65625 C 298.86722,64.26393 296.33313,67.259036 293,73.96875 C 292.18432,75.37 291.77328,76.949329 291,78.375 C 290.43684,79.88467 289.76927,81.322622 289.15625,82.8125 C 288.53957,84.42027 288.37365,86.139956 288.28125,87.84375 C 288.21221,89.55617 288.24115,91.286808 288.25,93 C 288.15557,95.03358 288.71244,96.898063 289.6875,98.65625 C 294.21859,106.4364 301.8991,114.43943 310.875,116.3125 C 313.16497,116.86049 317.07602,117.39521 319.375,117.90625 C 321.7117,118.44845 324.11024,118.69735 326.5,118.84375 C 328.35596,118.9421 330.20478,118.9179 332.0625,118.90625 C 334.36388,118.98694 336.64032,118.79267 338.90625,118.40625 C 341.16587,117.87445 343.42312,117.35471 345.71875,117 L 355.25,113.09375 C 352.95269,113.34019 350.69655,113.7578 348.46875,114.375 C 346.27744,114.89751 344.03526,115.15709 341.78125,115.0625 C 339.93687,115.05597 338.09406,115.07248 336.25,115.03125 C 333.88879,114.94958 331.5035,114.80801 329.1875,114.3125 C 326.89545,113.81531 324.64152,113.25051 322.375,112.65625 C 320.52048,112.22166 318.58463,112.11162 316.84375,111.25 C 315.03987,110.69919 313.32995,109.88736 311.59375,109.15625 C 309.83315,108.15964 308.0711,107.09913 306.53125,105.78125 C 304.73388,104.37687 303.0101,102.97585 301.46875,101.28125 C 300.06093,99.91807 298.72086,98.463799 297.53125,96.90625 C 296.41961,95.57545 295.34728,94.170933 294.5,92.65625 C 293.62701,91.05398 293.24409,89.365112 293.34375,87.53125 C 293.34617,85.83953 293.34408,84.158391 293.4375,82.46875 C 293.56734,80.87137 293.79569,79.25378 294.46875,77.78125 C 295.11312,76.31704 295.68803,74.819577 296.375,73.375 C 297.01556,71.9507 297.47189,70.458362 298.40625,69.1875 C 299.10166,68.193635 299.82818,67.196362 300.625,66.28125 C 300.82633,66.216003 300.90139,66.199184 301.125,66.125 C 302.75094,66.12321 304.40535,66.099202 306.03125,66.09375 C 307.6592,66.08997 309.27942,66.086057 310.90625,66.15625 C 312.42545,66.24917 313.96031,66.390683 315.375,67 C 331.32614,74.85907 337.1902,83.793336 342.5,99.53125 C 343.26104,102.28309 343.98094,105.10096 344.53125,107.96875 C 344.47577,106.92702 344.34868,105.88089 344.21875,104.84375 C 344.33767,105.231 344.44299,105.60521 344.5625,106 C 344.63745,104.24163 344.77919,102.47329 345.15625,100.75 C 345.60215,98.60961 346.03493,96.47338 346.125,94.28125 C 346.1174,92.19568 346.14065,90.085528 346.125,88 C 346.11355,85.48199 346.09441,82.986612 346.125,80.46875 C 346.17294,77.12448 346.30944,73.776777 346.5,70.4375 C 346.75353,66.18465 346.93347,61.9175 346.9375,57.65625 z M 752.3125,73.625 L 741.625,79.25 C 741.97208,81.8289 742.2858,84.427606 742.15625,87.03125 C 742.1304,87.534644 742.07327,88.035994 742,88.53125 C 741.6166,87.938476 741.22032,87.347569 740.84375,86.75 C 739.76931,85.0294 738.37938,83.635037 736.78125,82.40625 C 734.72424,80.69612 732.18272,79.858199 729.65625,79.125 C 726.37447,78.25292 722.97091,78.041851 719.59375,77.90625 C 716.64467,77.84117 713.69807,77.744868 710.75,77.875 C 704.49318,79.53555 695.82502,86.665961 691.21875,91.65625 C 689.31328,93.59579 688.65665,96.086938 688,98.625 C 687.4532,101.09883 687.25445,103.63107 687.125,106.15625 C 686.87227,116.43387 687.65215,118.48432 698.21875,124.90625 C 700.79913,126.76688 703.52106,128.38438 706.34375,129.84375 C 709.39265,131.52283 712.69526,132.61359 716,133.65625 C 720.98351,135.31236 726.14305,136.29806 731.34375,136.9375 C 735.85701,137.52521 740.38901,137.34568 744.84375,136.46875 C 750.57743,135.08221 753.47231,134.1099 758.5625,131.3125 C 758.74578,131.15909 758.94165,130.99716 759.125,130.84375 C 750.70175,135.69161 745.11887,135.06546 739.3125,134.15625 C 734.18448,133.58145 729.08653,132.69634 724.1875,131.03125 C 720.96367,129.98899 717.73778,128.9407 714.75,127.3125 C 711.96154,125.90935 709.20225,124.39679 706.6875,122.53125 C 702.41708,118.18085 700.61853,116.80507 697.84375,106.03125 C 697.69169,104.28149 697.81253,102.50341 697.84375,100.75 C 697.97013,98.29705 698.17371,95.849982 698.8125,93.46875 C 699.48059,91.03531 700.41176,88.831531 702.1875,86.96875 C 702.3897,86.620707 702.56788,86.296751 702.71875,86 C 703.46445,85.702818 704.19789,85.378537 705.125,84.96875 C 708.04997,84.65061 707.00013,84.904827 709.9375,84.875 C 713.24921,84.96795 716.57446,85.11 719.8125,85.875 C 722.20108,86.51674 724.64031,87.229307 726.59375,88.8125 C 728.09548,89.93194 729.45588,91.192828 730.4375,92.8125 C 731.35598,94.31429 732.31449,95.780402 733.375,97.1875 C 734.70389,98.98057 735.60475,101.04073 736.59375,103.03125 C 740.5069,105.88289 743.44412,117.11504 746.6875,118.125 C 747.4329,118.64112 748.36815,118.99656 749.53125,119.125 C 749.38129,118.32535 749.26363,117.52825 749.1875,116.71875 C 749.39218,116.41292 749.57195,116.0689 749.78125,115.65625 C 749.796,113.32797 749.8526,111.01181 750,108.6875 C 750.18875,106.09029 750.55606,103.51014 750.59375,100.90625 C 750.58724,99.07037 750.56719,97.210221 750.625,95.375 C 750.71695,93.29736 750.89722,91.24222 751.40625,89.21875 C 752.03628,86.72765 752.76635,84.215936 752.8125,81.625 C 752.84722,78.94942 752.55968,76.286361 752.3125,73.625 z M 901.6875,73.65625 C 901.40784,73.655815 901.12712,73.69369 900.84375,73.71875 L 891.28125,81.03125 C 892.28203,80.57116 893.17846,80.579159 894.25,80.84375 C 895.93767,81.23464 897.51793,81.949423 899.09375,82.65625 C 900.60223,83.44074 902.30606,83.841672 903.53125,85.09375 C 912.61306,93.42622 910.62478,93.469654 910.6875,104.9375 C 910.70916,106.5702 910.74084,108.23331 911.03125,109.84375 C 909.91807,110.65758 908.78523,111.45314 907.8125,112.4375 C 906.2699,114.0562 904.62883,115.56553 902.96875,117.0625 C 901.4006,118.57374 899.97827,120.24027 898.875,122.125 C 897.70802,124.11076 896.76862,126.23644 896.28125,128.5 C 895.65849,131.26705 894.97948,134.00992 894.71875,136.84375 L 906.3125,133.90625 C 906.4474,131.10738 907.26826,128.43649 907.875,125.71875 C 908.40999,123.53435 909.49716,121.58679 910.65625,119.6875 C 911.77939,117.85751 913.28967,116.33113 914.875,114.90625 C 915.01446,114.79223 915.1448,114.67961 915.28125,114.5625 C 917.52698,117.39415 918.79528,119.87894 921.53125,124.25 C 922.63603,125.64572 924.01126,126.79551 925.34375,127.96875 C 926.64218,129.21652 936.01701,137.72852 937.75,138.34375 C 939.91647,139.44334 942.1135,140.43521 944.28125,141.53125 L 950.375,138.1875 C 948.17928,137.09963 945.91438,136.11951 943.75,134.96875 C 942.14179,134.33351 940.84739,133.25107 939.59375,132.09375 C 938.31087,130.94048 928.96418,120.97181 927.84375,119.65625 C 926.40082,118.15237 925.33308,116.3512 924.34375,114.53125 C 923.51312,112.90763 923.23507,111.0921 922.78125,109.34375 C 922.72055,108.94868 922.64308,108.57817 922.5625,108.1875 C 923.03046,107.83514 923.50197,107.46057 923.9375,107.0625 C 925.13221,106.01117 925.64349,102.62 926.71875,101.4375 C 927.86801,100.09193 928.97283,98.735159 930.0625,97.34375 C 931.07931,96.11841 931.71935,94.626223 932.5625,93.28125 C 933.18505,91.65953 934.41881,90.55594 935.65625,89.40625 C 936.83904,88.12669 938.2696,87.119383 939.5625,85.96875 C 940.44695,85.676891 941.32131,85.382354 942.25,85.21875 C 943.42458,85.08138 944.61904,85.268932 945.5625,86 C 946.70546,86.8647 947.48268,87.854143 947.90625,89.21875 C 948.38012,90.95671 948.06308,91.903713 946.90625,93.21875 L 957.9375,88.40625 C 958.85839,86.80393 959.0425,85.18116 958.46875,83.40625 C 957.93505,81.88245 957.1108,80.6165 955.8125,79.625 C 954.69539,78.54089 953.4495,78.126159 951.90625,78 C 950.44885,78.13667 949.02107,78.379196 947.71875,79.09375 C 942.32636,80.28483 937.50589,83.219009 933.09375,86.5625 C 931.75329,87.6666 930.36841,88.723802 929.09375,89.90625 C 927.53709,91.22156 925.97047,92.552949 924.53125,94 C 923.30013,95.24117 922.33266,96.61134 921.5625,98.1875 C 921.45506,98.372832 921.35669,98.563968 921.25,98.75 C 919.50371,91.243585 919.64336,90.129497 915.75,83.375 C 915.95169,81.4758 915.08735,80.023632 913.78125,78.75 C 912.49283,77.40402 910.76981,76.795646 909.125,76.03125 C 907.51264,75.26657 905.89762,74.54646 904.1875,74.03125 C 903.36497,73.785062 902.52649,73.657555 901.6875,73.65625 z M 802.84375,74.125 L 791.25,77.40625 C 789.3068,78.78838 787.75721,80.558207 786.28125,82.40625 C 784.88975,83.82578 784.03108,85.524421 783.46875,87.40625 C 783.03008,89.09165 782.83664,90.83818 782.625,92.5625 C 782.3951,94.57057 782.1295,96.557441 781.875,98.5625 C 781.66451,100.47005 781.82892,102.42432 781.78125,104.34375 C 781.88754,106.15657 782.07458,107.92807 782.53125,109.6875 C 782.75918,111.3717 783.47167,112.88615 784.03125,114.46875 C 784.64163,115.80125 785.19437,117.19012 785.96875,118.4375 C 786.96289,119.92483 787.83144,121.42607 788.96875,122.8125 C 790.17708,124.23999 791.46008,125.64499 792.78125,126.96875 C 797.825,133.00928 804.30763,137.05872 812.4375,137.15625 C 814.5304,137.61302 816.65792,137.8883 818.78125,138.15625 C 821.14214,138.44603 823.51584,138.75896 825.875,139.0625 C 827.62142,139.28557 829.34595,139.50628 831.09375,139.71875 C 837.62814,140.58045 836.274,140.4746 846.09375,135.28125 C 846.41688,135.11038 845.95038,134.54513 845.875,134.1875 C 845.04425,132.57323 843.82697,131.19138 842.96875,129.59375 C 842.18758,128.1635 841.40638,126.73918 840.8125,125.21875 C 840.26919,123.31308 839.89078,121.37578 839.6875,119.40625 C 839.48601,117.03271 839.72724,114.64162 839.96875,112.28125 C 840.21135,110.17863 840.51051,108.0679 840.78125,105.96875 C 841.03598,104.0731 841.26156,102.17899 841.5,100.28125 C 841.72994,98.47923 841.95701,96.676967 842.1875,94.875 C 842.39542,93.24694 842.60659,91.628309 842.8125,90 C 842.81434,89.967937 842.81052,89.938134 842.8125,89.90625 L 850,86.875 C 849.23005,85.21113 848.22512,83.505258 846.8125,82.3125 C 842.07348,79.86553 835.37631,84.852553 832.71875,89.09375 C 831.89466,90.66548 831.61137,92.33558 831.46875,94.09375 C 831.2634,95.72119 831.0784,97.341049 830.875,98.96875 C 830.65053,100.76794 830.41434,102.5761 830.1875,104.375 C 829.94422,106.27046 829.70364,108.16596 829.46875,110.0625 C 829.19863,112.16768 828.92895,114.26271 828.71875,116.375 C 828.48162,118.81241 828.28811,121.27332 828.53125,123.71875 C 828.76585,125.79191 829.07704,127.87515 829.6875,129.875 C 830.05955,130.80415 830.47271,131.70312 830.9375,132.59375 C 830.38608,132.52437 829.83234,132.44703 829.28125,132.375 C 827.20134,132.10326 825.12698,131.84367 823.0625,131.46875 C 815.1455,129.66956 804.26386,124.34232 799.9375,117.84375 C 798.81512,116.50889 797.94318,115.02422 797,113.5625 C 796.25822,112.39387 795.75603,111.11927 795.15625,109.875 C 794.59362,108.33398 793.94698,106.83338 793.71875,105.1875 C 793.31778,103.52494 793.12303,101.83377 793.0625,100.125 C 793.08195,98.24574 792.95498,96.367122 793.21875,94.5 C 793.45994,92.49522 793.66976,90.470212 793.9375,88.46875 C 794.15768,86.81182 794.37236,85.162631 794.875,83.5625 C 795.51958,81.82717 796.52835,80.333029 797.78125,78.96875 C 799.28141,77.15094 801.00358,75.595857 802.84375,74.125 z M 503.6875,75.59375 C 499.66134,75.55801 496.32291,77.451944 488.75,81.90625 C 488.59138,83.4274 488.81207,84.948122 488.90625,86.46875 C 488.83091,88.28369 492.57336,89.932382 493.3125,91.5625 C 494.00188,93.18091 495.01016,94.629301 495.875,96.15625 C 496.59845,97.69108 497.6072,99.069797 498.21875,100.65625 C 498.75695,102.39533 498.7495,104.22845 498.78125,106.03125 C 498.81453,108.30696 498.78233,110.56795 498.78125,112.84375 C 498.53889,114.83482 498.22677,116.81252 498.0625,118.8125 C 498.06825,120.86678 497.65712,122.90562 497.40625,124.9375 C 497.17655,126.82669 496.36349,128.51283 495.90625,130.34375 C 495.79441,131.43962 495.38495,132.39219 494.71875,133.25 L 502.53125,128.375 C 503.02505,127.35552 503.36094,126.30593 503.5625,125.1875 C 504.10187,123.3477 504.77389,121.51834 504.96875,119.59375 C 505.22803,117.54673 505.56592,115.53508 505.625,113.46875 C 505.80957,111.45134 506.13761,109.42978 506.25,107.40625 C 506.26161,105.11931 506.27202,102.84937 506.25,100.5625 C 506.19639,98.61835 506.20504,96.633102 505.53125,94.78125 C 505.50591,94.725862 505.49339,94.679372 505.46875,94.625 C 509.69096,93.66715 513.64548,85.668518 518.6875,76.40625 C 515.89642,77.62963 512.95774,77.423518 510.0625,76.78125 C 507.47207,76.028991 505.51757,75.609996 503.6875,75.59375 z M 624.375,79.8125 C 623.0941,79.789347 621.95311,80.003308 620.625,80.53125 C 618.84816,81.23259 616.9758,81.706838 615.21875,82.46875 C 610.10315,84.93045 605.00023,87.605261 600.53125,91.125 C 599.33558,92.08272 598.20975,93.074947 597.28125,94.3125 C 596.32805,95.51306 595.37606,96.721764 594.625,98.0625 C 593.43214,99.9292 592.64919,101.96893 591.78125,104 C 591.50058,104.58772 591.20704,105.18833 590.9375,105.78125 C 590.38986,104.81241 589.77953,103.86808 589.15625,102.9375 C 588.12288,101.43868 586.85944,100.11933 585.90625,98.5625 C 584.77001,97.0525 583.65822,95.518829 582.625,93.9375 C 581.77415,92.50592 581.00673,91.057287 580.15625,89.625 C 579.24686,88.18104 578.39895,86.702771 577.3125,85.375 C 576.19442,84.04888 575.15385,82.656712 573.53125,81.90625 C 571.52624,81.11484 570.32312,81.029769 568.1875,81.46875 C 562.53008,82.71041 557.56176,86.208491 554.0625,90.65625 C 552.82045,92.17858 551.89363,93.92479 550.59375,95.40625 C 548.98247,97.32721 547.38065,99.26316 545.8125,101.21875 C 543.94738,103.2359 542.07764,105.22527 540.1875,107.21875 C 538.43172,109.14995 536.73694,111.16006 535.09375,113.1875 C 533.4889,115.06592 532.01381,117.04148 530.46875,118.96875 C 528.66499,121.42311 526.89255,123.91845 524.96875,126.28125 L 536.0625,121.5625 C 537.84999,119.12946 539.56645,116.61906 541.4375,114.25 C 543.01614,112.34195 544.50641,110.38074 546.15625,108.53125 C 547.71347,106.45556 549.42137,104.52258 551.1875,102.625 C 553.09064,100.64309 554.9959,100.24822 556.8125,98.1875 C 559.8771,96.489622 562.27958,95.011239 564.15625,93.71875 C 565.29589,94.830779 567.06561,96.023511 569.75,97.28125 C 570.5787,98.71502 571.37809,98.541726 572.21875,99.96875 C 573.27659,101.58779 574.42914,103.17385 575.59375,104.71875 C 576.53626,106.25968 577.75561,107.58217 578.78125,109.0625 C 579.67963,110.37235 580.53806,111.68909 581.21875,113.125 C 582.23122,114.73213 582.90994,116.46725 583.6875,118.1875 C 584.3209,119.58915 584.78841,121.06843 585.34375,122.5 C 585.99552,124.03475 586.44534,125.66792 587.375,127.0625 C 590.21904,131.60384 591.81492,126.45 598.59375,121.59375 C 598.7575,121.47644 598.50859,121.19745 598.46875,121 C 598.42391,120.77752 598.38413,120.56708 598.34375,120.34375 C 598.03259,118.1434 597.89781,115.90533 598.03125,113.6875 C 598.0773,111.10275 598.77719,108.68651 599.65625,106.28125 C 601.6697,100.01062 605.02564,97.867241 610,96.96875 C 613.6273,97.9595 619.1605,96.4088 624.15625,98.96875 C 629.50219,102.95903 634.73305,102.74847 639.6875,107.21875 C 640.90547,108.12449 642.10334,109.06842 643.25,110.0625 C 644.05443,110.60969 644.81019,111.22447 645.53125,111.875 L 655.78125,105.53125 C 655.06817,104.85078 654.33802,104.13888 653.46875,103.65625 C 652.2656,102.65879 651.10386,101.64792 649.84375,100.71875 C 648.16778,99.6825 646.71147,98.296018 645.15625,97.09375 C 643.40569,95.51847 641.75846,93.816397 640,92.25 C 638.09653,90.31329 636.22257,88.360094 634.4375,86.3125 C 633.06557,84.77166 631.62323,83.309027 629.96875,82.0625 C 628.76427,80.98419 627.37179,80.04195 625.71875,79.90625 C 625.25193,79.847795 624.80197,79.820218 624.375,79.8125 z M 945.8125,81.34375 C 945.84138,81.342953 945.00381,81.817988 943.78125,82.5 C 943.94891,82.374464 944.11022,82.246127 944.28125,82.125 C 945.30291,81.61666 945.7887,81.344407 945.8125,81.34375 z M 490.75,82.53125 C 490.47717,82.660404 490.16762,82.777096 489.9375,82.90625 C 490.34922,82.673549 490.49205,82.572118 490.75,82.53125 z M 846.3125,83.625 C 846.46041,83.587578 846.56211,83.584876 846.46875,83.625 C 846.06195,83.799795 845.73119,83.930142 845.34375,84.09375 C 845.50479,83.968343 845.68382,83.869541 845.875,83.78125 C 845.96729,83.738645 846.16459,83.662422 846.3125,83.625 z M 456.78125,88.9375 C 455.25079,88.9451 453.72907,88.937623 452.21875,89.21875 C 447.20567,90.52041 441.89654,93.574943 438.8125,97.90625 C 437.90246,99.38814 437.31245,100.98383 436.75,102.625 C 435.95558,104.45179 435.1399,106.26399 434.59375,108.1875 C 434.02018,109.81687 431.43542,115.93237 431.0625,117.625 C 430.75604,118.84306 430.60584,119.94305 430.53125,120.9375 C 428.00421,118.08919 426.50457,115.52992 424.15625,111.5 C 422.81201,109.80457 421.75261,107.88931 420.25,106.3125 C 418.94257,104.64082 417.62866,102.95422 416.40625,101.21875 C 415.23119,99.55879 413.88143,98.076809 412.5625,96.53125 C 411.36329,95.26103 410.20972,93.860524 408.6875,92.96875 C 403.46622,91.48037 397.12193,96.738137 395.8125,101.78125 C 395.39642,103.54274 395.03399,105.32396 394.65625,107.09375 C 394.24977,108.95921 393.76488,110.71964 392.5,112.21875 C 391.25554,113.94759 390.10787,115.72271 388.84375,117.4375 C 387.62657,119.48264 386.54952,121.61923 385.625,123.8125 C 384.75893,125.85094 384.25744,128.03994 383.28125,130.03125 C 382.31575,131.65016 381.16006,133.15337 379.65625,134.3125 C 376.81984,136.39852 375.37748,137.16674 383.09375,132.6875 L 374.15625,139.8125 C 379.88809,136.84141 385.70776,133.85303 390.8125,129.875 C 392.25901,128.50554 393.351,126.89215 394.25,125.125 C 395.01566,123.02432 395.54185,120.84223 396.5625,118.84375 C 397.45719,116.69256 398.46279,114.5293 399.8125,112.625 C 401.15405,110.96911 402.25822,109.17795 403.53125,107.46875 C 404.02013,106.85651 404.34805,106.19435 404.59375,105.5 C 405.09766,106.10048 405.6027,106.7044 406.0625,107.34375 C 418.04767,114.57719 434.04239,137.78183 441.96875,125.6875 C 442.37704,121.97851 442.83174,118.2924 443.53125,114.625 C 444.03799,112.36162 443.2363,110.19165 443.875,107.96875 C 444.19813,106.26658 444.96153,104.70875 445.46875,103.0625 C 442.36294,100.58077 476.19891,114.79464 464.375,91.28125 C 462.77631,90.51402 458.58501,88.760537 456.78125,88.9375 z M 408.34375,94.46875 C 408.01538,94.664264 407.75257,94.814042 407.4375,95 C 407.55572,94.871134 407.69019,94.757735 407.84375,94.65625 C 408.00124,94.55218 408.50588,94.37219 408.34375,94.46875 z M 598.09375,121.09375 C 598.23485,121.01825 598.26449,121.37189 598.25,121.53125 C 598.24037,121.63745 598.08485,121.41734 597.9375,121.1875 C 597.99104,121.15861 598.0401,121.12246 598.09375,121.09375 z M 833.96875,137.625 C 834.16812,137.92589 834.37192,138.22427 834.5625,138.53125 C 832.91029,137.9609 832.79916,137.8774 833.96875,137.625 z"
       transform="translate(20.693254,850.17801)"
       id="path3308"
       style="fill:#f3eb2b;fill-opacity:1;fill-rule:nonzero;stroke:none;stroke-width:10;stroke-linecap:round;stroke-linejoin:miter;stroke-miterlimit:4;stroke-dasharray:none;stroke-opacity:1" />
  </g>
</svg>
