<?xml version="1.0" encoding="UTF-8" ?>
<!DOCTYPE svg PUBLIC "-//W3C//DTD SVG 1.1//EN" "http://www.w3.org/Graphics/SVG/1.1/DTD/svg11.dtd">
<svg width="380pt" height="324pt" viewBox="0 0 380 324" version="1.1" xmlns="http://www.w3.org/2000/svg">
<g id="#003f7dff">
<path fill="#003f7d" opacity="1.00" d=" M 0.00 0.00 L 380.00 0.00 L 380.00 162.00 C 253.33 162.00 126.67 162.00 0.00 162.00 L 0.00 0.00 M 166.26 39.14 C 155.95 42.65 146.25 49.06 140.41 58.42 C 132.89 70.56 132.70 86.85 139.79 99.22 C 145.46 108.99 155.32 115.72 165.84 119.37 C 181.60 124.92 198.96 123.83 214.89 119.57 C 221.58 117.88 227.83 114.82 234.55 113.25 C 229.67 105.94 224.89 98.57 220.07 91.23 C 217.82 93.62 215.26 95.83 212.11 96.92 C 205.32 99.43 198.15 101.07 190.93 101.62 C 182.21 101.69 172.91 99.67 166.24 93.74 C 159.58 87.85 158.22 77.26 162.51 69.61 C 165.68 63.95 171.67 60.53 177.74 58.77 C 187.74 55.91 198.48 56.80 208.43 59.43 C 212.64 60.42 216.37 62.78 219.23 66.01 C 223.37 58.35 227.54 50.72 231.72 43.09 C 224.43 41.53 217.54 38.44 210.14 37.31 C 195.64 34.92 180.34 34.27 166.26 39.14 M 41.93 38.51 C 42.47 42.99 42.27 47.51 42.29 52.01 C 42.30 72.65 42.27 93.30 42.30 113.95 C 42.31 116.02 42.13 118.09 41.94 120.16 C 67.29 120.15 92.65 120.17 118.01 120.15 C 119.90 120.16 121.78 120.33 123.66 120.54 C 123.60 113.98 123.63 107.41 123.63 100.85 C 119.13 101.40 114.59 101.20 110.06 101.22 C 95.23 101.22 80.41 101.22 65.58 101.22 C 65.56 82.47 65.59 63.72 65.56 44.97 C 65.55 42.81 65.73 40.65 65.91 38.50 C 57.92 38.53 49.92 38.51 41.93 38.51 M 259.73 38.50 C 260.27 43.31 260.05 48.15 260.08 52.98 C 260.09 73.32 260.07 93.67 260.09 114.02 C 260.09 116.07 259.91 118.12 259.72 120.17 C 267.73 120.15 275.73 120.14 283.74 120.17 C 282.92 110.21 283.57 100.19 283.36 90.20 C 292.90 90.17 302.45 90.25 311.99 90.17 C 320.16 90.11 328.75 87.61 334.44 81.48 C 343.07 72.39 343.08 56.68 334.60 47.49 C 328.94 41.22 320.27 38.61 312.02 38.54 C 294.59 38.46 277.16 38.56 259.73 38.50 M 57.25 133.63 C 55.45 138.49 53.59 143.32 51.72 148.15 C 53.01 148.14 54.30 148.14 55.59 148.15 C 55.82 147.38 56.27 145.86 56.50 145.09 C 58.72 145.06 60.95 144.95 63.18 144.99 C 63.58 146.04 63.99 147.09 64.39 148.14 C 65.84 148.14 67.30 148.14 68.75 148.16 C 66.77 143.32 64.77 138.50 62.87 133.63 C 61.00 133.63 59.12 133.63 57.25 133.63 M 166.38 135.29 C 164.64 135.26 162.89 135.25 161.15 135.23 C 161.15 139.27 161.15 143.32 161.16 147.36 C 165.34 147.33 169.52 147.33 173.69 147.36 C 173.69 146.75 173.69 145.53 173.69 144.92 C 170.74 144.93 167.79 144.93 164.84 144.93 C 164.84 144.25 164.84 142.88 164.84 142.20 C 166.84 142.20 168.84 142.21 170.83 142.22 C 170.83 141.63 170.83 140.47 170.83 139.89 C 168.83 139.89 166.84 139.90 164.84 139.90 C 164.84 139.34 164.84 138.23 164.85 137.67 C 167.81 137.67 170.77 137.67 173.74 137.67 C 173.72 137.11 173.67 135.98 173.64 135.42 C 171.68 134.82 169.79 133.98 167.73 133.84 C 167.39 134.20 166.72 134.93 166.38 135.29 M 197.74 133.63 C 197.75 138.47 197.75 143.31 197.74 148.15 C 198.67 148.15 200.52 148.15 201.45 148.15 C 201.44 144.99 201.44 141.83 201.44 138.68 C 204.29 141.84 207.22 144.94 210.05 148.13 C 210.85 148.14 212.46 148.15 213.26 148.15 C 213.24 143.31 213.24 138.48 213.26 133.64 C 212.33 133.64 210.48 133.63 209.55 133.63 C 209.55 136.36 209.55 139.09 209.55 141.82 C 207.05 139.14 204.56 136.44 202.20 133.64 C 200.71 133.63 199.22 133.63 197.74 133.63 M 71.01 137.14 C 69.21 138.84 70.34 142.00 72.81 142.20 C 74.92 143.18 78.87 141.88 79.15 144.98 C 76.27 145.38 73.36 145.03 70.67 143.93 C 70.42 144.80 70.17 145.68 69.92 146.56 C 73.42 147.24 77.28 148.50 80.69 146.81 C 82.99 145.85 83.49 142.08 81.01 141.04 C 78.63 140.08 75.98 140.16 73.58 139.28 C 74.70 136.38 78.92 138.18 81.19 138.70 C 81.50 138.04 82.12 136.74 82.43 136.08 C 78.70 135.53 74.04 134.10 71.01 137.14 M 86.04 137.16 C 84.30 138.82 85.35 141.95 87.78 142.17 C 89.90 143.18 93.95 141.85 94.16 145.02 C 91.29 145.35 88.41 145.02 85.73 143.93 C 85.47 144.81 85.22 145.69 84.98 146.57 C 88.66 147.27 92.95 148.71 96.37 146.40 C 98.53 144.97 98.00 141.21 95.33 140.75 C 93.19 139.65 89.24 141.03 88.73 137.98 C 91.28 137.58 93.84 137.82 96.26 138.69 C 96.57 138.04 97.18 136.73 97.49 136.08 C 93.75 135.52 89.07 134.10 86.04 137.16 M 100.11 135.24 C 100.12 139.28 100.12 143.31 100.11 147.35 C 104.30 147.34 108.50 147.33 112.69 147.36 C 112.62 146.54 112.59 145.71 112.59 144.89 C 109.67 144.93 106.74 144.93 103.81 144.93 C 103.80 144.02 103.79 143.12 103.78 142.21 C 105.79 142.20 107.79 142.21 109.79 142.21 C 109.79 141.63 109.79 140.47 109.79 139.88 C 107.80 139.89 105.81 139.89 103.83 139.90 C 103.80 139.17 103.77 138.45 103.74 137.72 C 106.71 137.66 109.68 137.66 112.66 137.67 C 112.66 137.07 112.67 135.85 112.67 135.25 C 108.48 135.25 104.30 135.26 100.11 135.24 M 115.64 135.20 C 115.65 139.25 115.65 143.30 115.64 147.34 C 116.37 147.35 117.83 147.35 118.56 147.35 C 118.56 144.45 118.56 141.55 118.57 138.64 C 119.91 141.30 121.24 143.98 122.58 146.64 C 123.95 143.97 125.33 141.30 126.72 138.64 C 126.73 141.54 126.73 144.44 126.72 147.35 C 127.55 147.34 129.20 147.34 130.03 147.34 C 130.01 143.31 130.01 139.28 130.03 135.25 C 128.51 135.25 126.98 135.25 125.46 135.25 C 124.55 137.04 123.63 138.83 122.69 140.61 C 121.86 138.86 121.06 137.10 120.28 135.34 C 118.73 135.29 117.18 135.25 115.64 135.20 M 133.13 135.24 C 133.14 139.27 133.14 143.31 133.13 147.34 C 136.64 147.16 140.30 147.85 143.71 146.79 C 146.38 145.70 145.79 142.26 143.88 140.75 C 145.23 139.37 145.90 136.44 143.62 135.62 C 140.18 134.91 136.62 135.35 133.13 135.24 M 147.94 135.25 C 147.94 139.29 147.93 143.32 147.98 147.36 C 151.58 147.34 155.17 147.33 158.77 147.36 C 158.77 146.41 158.78 145.47 158.78 144.53 C 156.40 144.54 154.01 144.54 151.63 144.54 C 151.62 141.44 151.62 138.34 151.64 135.24 C 150.40 135.24 149.17 135.25 147.94 135.25 M 176.73 135.18 C 176.67 139.24 176.68 143.29 176.69 147.34 C 180.87 147.34 185.05 147.34 189.23 147.35 C 189.22 146.74 189.22 145.53 189.21 144.92 C 186.26 144.93 183.31 144.93 180.36 144.92 C 180.36 144.24 180.36 142.88 180.37 142.21 C 182.36 142.20 184.36 142.21 186.36 142.21 C 186.36 141.63 186.36 140.48 186.36 139.90 C 184.33 139.89 182.31 139.88 180.29 139.85 C 180.32 139.30 180.39 138.21 180.43 137.66 C 183.36 137.67 186.29 137.67 189.23 137.67 C 189.23 137.06 189.23 135.85 189.23 135.24 C 185.07 135.25 180.90 135.28 176.73 135.18 M 221.08 135.24 C 219.33 139.29 217.51 143.30 215.73 147.33 C 216.52 147.34 218.08 147.35 218.87 147.35 C 219.17 146.74 219.76 145.51 220.06 144.90 C 222.16 144.89 224.26 144.89 226.36 144.89 C 226.77 145.71 227.17 146.54 227.58 147.36 C 228.47 147.35 230.25 147.33 231.15 147.33 C 229.29 143.29 227.32 139.30 225.50 135.25 C 224.03 135.25 222.55 135.25 221.08 135.24 M 231.04 135.35 C 231.04 136.06 231.04 137.48 231.05 138.19 C 232.63 138.18 234.21 138.17 235.80 138.17 C 235.80 141.26 235.80 144.36 235.79 147.46 C 236.71 147.46 238.56 147.47 239.49 147.47 C 239.48 144.37 239.48 141.27 239.48 138.18 C 241.06 138.18 242.64 138.17 244.22 138.17 C 244.23 137.24 244.24 136.30 244.25 135.37 C 239.85 135.37 235.44 135.38 231.04 135.35 M 257.42 135.62 C 254.21 136.33 251.90 139.77 252.90 143.01 C 254.69 149.65 266.68 149.11 267.33 142.02 C 267.96 136.81 261.70 134.13 257.42 135.62 M 291.07 135.24 C 289.32 139.29 287.49 143.29 285.73 147.33 C 286.51 147.34 288.07 147.35 288.85 147.36 C 289.15 146.74 289.75 145.51 290.04 144.90 C 292.14 144.89 294.24 144.89 296.35 144.89 C 296.75 145.71 297.16 146.54 297.57 147.36 C 298.46 147.35 300.24 147.34 301.14 147.33 C 299.28 143.29 297.31 139.31 295.49 135.26 C 294.02 135.25 292.54 135.25 291.07 135.24 M 316.81 135.25 C 316.83 139.28 316.83 143.31 316.81 147.34 C 321.00 147.34 325.18 147.34 329.37 147.35 C 329.36 146.74 329.35 145.53 329.35 144.92 C 326.39 144.93 323.44 144.93 320.49 144.91 C 320.49 144.23 320.50 142.88 320.51 142.21 C 322.50 142.20 324.50 142.21 326.50 142.21 C 326.50 141.63 326.50 140.48 326.49 139.91 C 324.46 139.90 322.44 139.87 320.41 139.84 C 320.45 139.30 320.53 138.21 320.57 137.67 C 323.50 137.67 326.43 137.67 329.37 137.67 C 329.37 137.07 329.37 135.85 329.37 135.25 C 325.18 135.25 320.99 135.25 316.81 135.25 M 246.61 135.25 C 246.63 139.28 246.62 143.31 246.62 147.35 C 247.54 147.35 249.39 147.34 250.31 147.34 C 250.29 143.31 250.29 139.28 250.32 135.25 C 249.39 135.25 247.53 135.25 246.61 135.25 M 269.73 135.25 C 269.75 139.28 269.75 143.31 269.74 147.34 C 270.57 147.34 272.22 147.34 273.05 147.34 C 273.04 144.63 273.03 141.93 273.03 139.23 C 275.62 141.87 277.92 144.82 280.74 147.22 C 281.36 147.29 282.61 147.42 283.24 147.49 C 283.24 143.41 283.23 139.33 283.25 135.25 C 282.42 135.25 280.76 135.25 279.93 135.25 C 279.94 137.33 279.94 139.40 279.94 141.48 C 278.00 139.44 276.07 137.38 274.23 135.25 C 272.73 135.25 271.23 135.25 269.73 135.25 M 303.60 135.25 C 303.62 139.28 303.61 143.31 303.60 147.35 C 307.21 147.34 310.83 147.34 314.44 147.35 C 314.44 146.65 314.45 145.24 314.45 144.53 C 312.06 144.54 309.68 144.54 307.30 144.54 C 307.29 141.45 307.29 138.35 307.31 135.25 C 306.38 135.25 304.53 135.25 303.60 135.25 Z" />
<path fill="#003f7d" opacity="1.00" d=" M 283.36 55.90 C 291.58 55.92 299.81 55.83 308.03 55.94 C 311.65 56.08 315.95 56.55 318.25 59.74 C 321.53 64.85 318.47 72.77 312.08 73.26 C 302.56 74.32 292.93 73.48 283.36 73.74 C 283.36 67.80 283.36 61.85 283.36 55.90 Z" />
<path fill="#003f7d" opacity="1.00" d=" M 57.35 142.80 C 58.16 140.61 58.97 138.42 59.80 136.24 C 60.70 138.42 61.59 140.61 62.47 142.80 C 60.76 142.80 59.05 142.80 57.35 142.80 Z" />
<path fill="#003f7d" opacity="1.00" d=" M 136.87 137.46 C 138.66 137.85 143.05 136.67 141.69 139.87 C 140.08 140.26 138.42 140.19 136.79 140.22 C 136.81 139.53 136.85 138.15 136.87 137.46 Z" />
<path fill="#003f7d" opacity="1.00" d=" M 220.90 142.92 C 221.64 141.10 222.40 139.29 223.16 137.48 C 223.93 139.29 224.71 141.10 225.47 142.92 C 223.94 142.91 222.42 142.92 220.90 142.92 Z" />
<path fill="#003f7d" opacity="1.00" d=" M 258.42 138.44 C 260.76 137.39 264.28 139.07 263.75 141.94 C 263.29 145.43 257.59 145.75 256.43 142.56 C 255.83 140.93 256.73 138.95 258.42 138.44 Z" />
<path fill="#003f7d" opacity="1.00" d=" M 290.89 142.92 C 291.64 141.09 292.39 139.27 293.15 137.45 C 293.92 139.27 294.69 141.09 295.45 142.92 C 293.93 142.91 292.41 142.91 290.89 142.92 Z" />
<path fill="#003f7d" opacity="1.00" d=" M 136.82 145.13 C 136.83 144.08 136.83 143.03 136.83 141.98 C 138.63 142.16 143.39 141.37 141.74 144.58 C 140.18 145.17 138.46 144.97 136.82 145.13 Z" />
</g>
<g id="#ffffffff">
<path fill="#ffffff" opacity="1.00" d=" M 166.26 39.14 C 180.34 34.27 195.64 34.92 210.14 37.31 C 217.54 38.44 224.43 41.53 231.72 43.09 C 227.54 50.72 223.37 58.35 219.23 66.01 C 216.37 62.78 212.64 60.42 208.43 59.43 C 198.48 56.80 187.74 55.91 177.74 58.77 C 171.67 60.53 165.68 63.95 162.51 69.61 C 158.22 77.26 159.58 87.85 166.24 93.74 C 172.91 99.67 182.21 101.69 190.93 101.62 C 198.15 101.07 205.32 99.43 212.11 96.92 C 215.26 95.83 217.82 93.62 220.07 91.23 C 224.89 98.57 229.67 105.94 234.55 113.25 C 227.83 114.82 221.58 117.88 214.89 119.57 C 198.96 123.83 181.60 124.92 165.84 119.37 C 155.32 115.72 145.46 108.99 139.79 99.22 C 132.70 86.85 132.89 70.56 140.41 58.42 C 146.25 49.06 155.95 42.65 166.26 39.14 Z" />
<path fill="#ffffff" opacity="1.00" d=" M 41.93 38.51 C 49.92 38.51 57.92 38.53 65.91 38.50 C 65.73 40.65 65.55 42.81 65.56 44.97 C 65.59 63.72 65.56 82.47 65.58 101.22 C 80.41 101.22 95.23 101.22 110.06 101.22 C 114.59 101.20 119.13 101.40 123.63 100.85 C 123.63 107.41 123.60 113.98 123.66 120.54 C 121.78 120.33 119.90 120.16 118.01 120.15 C 92.65 120.17 67.29 120.15 41.94 120.16 C 42.13 118.09 42.31 116.02 42.30 113.95 C 42.27 93.30 42.30 72.65 42.29 52.01 C 42.27 47.51 42.47 42.99 41.93 38.51 Z" />
<path fill="#ffffff" opacity="1.00" d=" M 259.73 38.50 C 277.16 38.56 294.59 38.46 312.02 38.54 C 320.27 38.61 328.94 41.22 334.60 47.49 C 343.08 56.68 343.07 72.39 334.44 81.48 C 328.75 87.61 320.16 90.11 311.99 90.17 C 302.45 90.25 292.90 90.17 283.36 90.20 C 283.57 100.19 282.92 110.21 283.74 120.17 C 275.73 120.14 267.73 120.15 259.72 120.17 C 259.91 118.12 260.09 116.07 260.09 114.02 C 260.07 93.67 260.09 73.32 260.08 52.98 C 260.05 48.15 260.27 43.31 259.73 38.50 M 283.36 55.90 C 283.36 61.85 283.36 67.80 283.36 73.74 C 292.93 73.48 302.56 74.32 312.08 73.26 C 318.47 72.77 321.53 64.85 318.25 59.74 C 315.95 56.55 311.65 56.08 308.03 55.94 C 299.81 55.83 291.58 55.92 283.36 55.90 Z" />
<path fill="#ffffff" opacity="1.00" d=" M 57.25 133.63 C 59.12 133.63 61.00 133.63 62.87 133.63 C 64.77 138.50 66.77 143.32 68.75 148.16 C 67.30 148.14 65.84 148.14 64.39 148.14 C 63.99 147.09 63.58 146.04 63.18 144.99 C 60.95 144.95 58.72 145.06 56.50 145.09 C 56.27 145.86 55.82 147.38 55.59 148.15 C 54.30 148.14 53.01 148.14 51.72 148.15 C 53.59 143.32 55.45 138.49 57.25 133.63 M 57.35 142.80 C 59.05 142.80 60.76 142.80 62.47 142.80 C 61.59 140.61 60.70 138.42 59.80 136.24 C 58.97 138.42 58.16 140.61 57.35 142.80 Z" />
<path fill="#ffffff" opacity="1.00" d=" M 166.38 135.29 C 166.72 134.93 167.39 134.20 167.73 133.84 C 169.79 133.98 171.68 134.82 173.64 135.42 C 173.67 135.98 173.72 137.11 173.74 137.67 C 170.77 137.67 167.81 137.67 164.85 137.67 C 164.84 138.23 164.84 139.34 164.84 139.90 C 166.84 139.90 168.83 139.89 170.83 139.89 C 170.83 140.47 170.83 141.63 170.83 142.22 C 168.84 142.21 166.84 142.20 164.84 142.20 C 164.84 142.88 164.84 144.25 164.84 144.93 C 167.79 144.93 170.74 144.93 173.69 144.92 C 173.69 145.53 173.69 146.75 173.69 147.36 C 169.52 147.33 165.34 147.33 161.16 147.36 C 161.15 143.32 161.15 139.27 161.15 135.23 C 162.89 135.25 164.64 135.26 166.38 135.29 Z" />
<path fill="#ffffff" opacity="1.00" d=" M 197.74 133.63 C 199.22 133.63 200.71 133.63 202.20 133.64 C 204.56 136.44 207.05 139.14 209.55 141.82 C 209.55 139.09 209.55 136.36 209.55 133.63 C 210.48 133.63 212.33 133.64 213.26 133.64 C 213.24 138.48 213.24 143.31 213.26 148.15 C 212.46 148.15 210.85 148.14 210.05 148.13 C 207.22 144.94 204.29 141.84 201.44 138.68 C 201.44 141.83 201.44 144.99 201.45 148.15 C 200.52 148.15 198.67 148.15 197.74 148.15 C 197.75 143.31 197.75 138.47 197.74 133.63 Z" />
<path fill="#ffffff" opacity="1.00" d=" M 71.01 137.14 C 74.04 134.10 78.70 135.53 82.43 136.08 C 82.12 136.74 81.50 138.04 81.19 138.70 C 78.92 138.18 74.70 136.38 73.58 139.28 C 75.98 140.16 78.63 140.08 81.01 141.04 C 83.49 142.08 82.99 145.85 80.69 146.81 C 77.28 148.50 73.42 147.24 69.92 146.56 C 70.17 145.68 70.42 144.80 70.67 143.93 C 73.36 145.03 76.27 145.38 79.15 144.98 C 78.87 141.88 74.92 143.18 72.81 142.20 C 70.34 142.00 69.21 138.84 71.01 137.14 Z" />
<path fill="#ffffff" opacity="1.00" d=" M 86.04 137.16 C 89.07 134.10 93.75 135.52 97.49 136.08 C 97.18 136.73 96.57 138.04 96.26 138.69 C 93.84 137.82 91.28 137.58 88.73 137.98 C 89.24 141.03 93.19 139.65 95.33 140.75 C 98.00 141.21 98.53 144.97 96.37 146.40 C 92.95 148.71 88.66 147.27 84.98 146.57 C 85.22 145.69 85.47 144.81 85.73 143.93 C 88.41 145.02 91.29 145.35 94.16 145.02 C 93.95 141.85 89.90 143.18 87.78 142.17 C 85.35 141.95 84.30 138.82 86.04 137.16 Z" />
<path fill="#ffffff" opacity="1.00" d=" M 100.11 135.24 C 104.30 135.26 108.48 135.25 112.67 135.25 C 112.67 135.85 112.66 137.07 112.66 137.67 C 109.68 137.66 106.71 137.66 103.74 137.72 C 103.77 138.45 103.80 139.17 103.83 139.90 C 105.81 139.89 107.80 139.89 109.79 139.88 C 109.79 140.47 109.79 141.63 109.79 142.21 C 107.79 142.21 105.79 142.20 103.78 142.21 C 103.79 143.12 103.80 144.02 103.81 144.93 C 106.74 144.93 109.67 144.93 112.59 144.89 C 112.59 145.71 112.62 146.54 112.69 147.36 C 108.50 147.33 104.30 147.34 100.11 147.35 C 100.12 143.31 100.12 139.28 100.11 135.24 Z" />
<path fill="#ffffff" opacity="1.00" d=" M 115.64 135.20 C 117.18 135.25 118.73 135.29 120.28 135.34 C 121.06 137.10 121.86 138.86 122.69 140.61 C 123.63 138.83 124.55 137.04 125.46 135.25 C 126.98 135.25 128.51 135.25 130.03 135.25 C 130.01 139.28 130.01 143.31 130.03 147.34 C 129.20 147.34 127.55 147.34 126.72 147.35 C 126.73 144.44 126.73 141.54 126.72 138.64 C 125.33 141.30 123.95 143.97 122.58 146.64 C 121.24 143.98 119.91 141.30 118.57 138.64 C 118.56 141.55 118.56 144.45 118.56 147.35 C 117.83 147.35 116.37 147.35 115.64 147.34 C 115.65 143.30 115.65 139.25 115.64 135.20 Z" />
<path fill="#ffffff" opacity="1.00" d=" M 133.13 135.24 C 136.62 135.35 140.18 134.91 143.62 135.62 C 145.90 136.44 145.23 139.37 143.88 140.75 C 145.79 142.26 146.38 145.70 143.71 146.79 C 140.30 147.85 136.64 147.16 133.13 147.34 C 133.14 143.31 133.14 139.27 133.13 135.24 M 136.87 137.46 C 136.85 138.15 136.81 139.53 136.79 140.22 C 138.42 140.19 140.08 140.26 141.69 139.87 C 143.05 136.67 138.66 137.85 136.87 137.46 M 136.82 145.13 C 138.46 144.97 140.18 145.17 141.74 144.58 C 143.39 141.37 138.63 142.16 136.83 141.98 C 136.83 143.03 136.83 144.08 136.82 145.13 Z" />
<path fill="#ffffff" opacity="1.00" d=" M 147.94 135.25 C 149.17 135.25 150.40 135.24 151.64 135.24 C 151.62 138.34 151.62 141.44 151.63 144.54 C 154.01 144.54 156.40 144.54 158.78 144.53 C 158.78 145.47 158.77 146.41 158.77 147.36 C 155.17 147.33 151.58 147.34 147.98 147.36 C 147.93 143.32 147.94 139.29 147.94 135.25 Z" />
<path fill="#ffffff" opacity="1.00" d=" M 176.73 135.18 C 180.90 135.28 185.07 135.25 189.23 135.24 C 189.23 135.85 189.23 137.06 189.23 137.67 C 186.29 137.67 183.36 137.67 180.43 137.66 C 180.39 138.21 180.32 139.30 180.29 139.85 C 182.31 139.88 184.33 139.89 186.36 139.90 C 186.36 140.48 186.36 141.63 186.36 142.21 C 184.36 142.21 182.36 142.20 180.37 142.21 C 180.36 142.88 180.36 144.24 180.36 144.92 C 183.31 144.93 186.26 144.93 189.21 144.92 C 189.22 145.53 189.22 146.74 189.23 147.35 C 185.05 147.34 180.87 147.34 176.69 147.34 C 176.68 143.29 176.67 139.24 176.73 135.18 Z" />
<path fill="#ffffff" opacity="1.00" d=" M 221.08 135.24 C 222.55 135.25 224.03 135.25 225.50 135.25 C 227.32 139.30 229.29 143.29 231.15 147.33 C 230.25 147.33 228.47 147.35 227.58 147.36 C 227.17 146.54 226.77 145.71 226.36 144.89 C 224.26 144.89 222.16 144.89 220.06 144.90 C 219.76 145.51 219.17 146.74 218.87 147.35 C 218.08 147.35 216.52 147.34 215.73 147.33 C 217.51 143.30 219.33 139.29 221.08 135.24 M 220.90 142.92 C 222.42 142.92 223.94 142.91 225.47 142.92 C 224.71 141.10 223.93 139.29 223.16 137.48 C 222.40 139.29 221.64 141.10 220.90 142.92 Z" />
<path fill="#ffffff" opacity="1.00" d=" M 231.04 135.35 C 235.44 135.38 239.85 135.37 244.25 135.37 C 244.24 136.30 244.23 137.24 244.22 138.17 C 242.64 138.17 241.06 138.18 239.48 138.18 C 239.48 141.27 239.48 144.37 239.49 147.47 C 238.56 147.47 236.71 147.46 235.79 147.46 C 235.80 144.36 235.80 141.26 235.80 138.17 C 234.21 138.17 232.63 138.18 231.05 138.19 C 231.04 137.48 231.04 136.06 231.04 135.35 Z" />
<path fill="#ffffff" opacity="1.00" d=" M 257.42 135.62 C 261.70 134.13 267.96 136.81 267.33 142.02 C 266.68 149.11 254.69 149.65 252.90 143.01 C 251.90 139.77 254.21 136.33 257.42 135.62 M 258.42 138.44 C 256.73 138.95 255.83 140.93 256.43 142.56 C 257.59 145.75 263.29 145.43 263.75 141.94 C 264.28 139.07 260.76 137.39 258.42 138.44 Z" />
<path fill="#ffffff" opacity="1.00" d=" M 291.07 135.24 C 292.54 135.25 294.02 135.25 295.49 135.26 C 297.31 139.31 299.28 143.29 301.14 147.33 C 300.24 147.34 298.46 147.35 297.57 147.36 C 297.16 146.54 296.75 145.71 296.35 144.89 C 294.24 144.89 292.14 144.89 290.04 144.90 C 289.75 145.51 289.15 146.74 288.85 147.36 C 288.07 147.35 286.51 147.34 285.73 147.33 C 287.49 143.29 289.32 139.29 291.07 135.24 M 290.89 142.92 C 292.41 142.91 293.93 142.91 295.45 142.92 C 294.69 141.09 293.92 139.27 293.15 137.45 C 292.39 139.27 291.64 141.09 290.89 142.92 Z" />
<path fill="#ffffff" opacity="1.00" d=" M 316.81 135.25 C 320.99 135.25 325.18 135.25 329.37 135.25 C 329.37 135.85 329.37 137.07 329.37 137.67 C 326.43 137.67 323.50 137.67 320.57 137.67 C 320.53 138.21 320.45 139.30 320.41 139.84 C 322.44 139.87 324.46 139.90 326.49 139.91 C 326.50 140.48 326.50 141.63 326.50 142.21 C 324.50 142.21 322.50 142.20 320.51 142.21 C 320.50 142.88 320.49 144.23 320.49 144.91 C 323.44 144.93 326.39 144.93 329.35 144.92 C 329.35 145.53 329.36 146.74 329.37 147.35 C 325.18 147.34 321.00 147.34 316.81 147.34 C 316.83 143.31 316.83 139.28 316.81 135.25 Z" />
<path fill="#ffffff" opacity="1.00" d=" M 246.61 135.25 C 247.53 135.25 249.39 135.25 250.32 135.25 C 250.29 139.28 250.29 143.31 250.31 147.34 C 249.39 147.34 247.54 147.35 246.62 147.35 C 246.62 143.31 246.63 139.28 246.61 135.25 Z" />
<path fill="#ffffff" opacity="1.00" d=" M 269.73 135.25 C 271.23 135.25 272.73 135.25 274.23 135.25 C 276.07 137.38 278.00 139.44 279.94 141.48 C 279.94 139.40 279.94 137.33 279.93 135.25 C 280.76 135.25 282.42 135.25 283.25 135.25 C 283.23 139.33 283.24 143.41 283.24 147.49 C 282.61 147.42 281.36 147.29 280.74 147.22 C 277.92 144.82 275.62 141.87 273.03 139.23 C 273.03 141.93 273.04 144.63 273.05 147.34 C 272.22 147.34 270.57 147.34 269.74 147.34 C 269.75 143.31 269.75 139.28 269.73 135.25 Z" />
<path fill="#ffffff" opacity="1.00" d=" M 303.60 135.25 C 304.53 135.25 306.38 135.25 307.31 135.25 C 307.29 138.35 307.29 141.45 307.30 144.54 C 309.68 144.54 312.06 144.54 314.45 144.53 C 314.45 145.24 314.44 146.65 314.44 147.35 C 310.83 147.34 307.21 147.34 303.60 147.35 C 303.61 143.31 303.62 139.28 303.60 135.25 Z" />
<path fill="#ffffff" opacity="1.00" d=" M 26.84 188.42 C 38.24 188.44 49.64 188.40 61.05 188.43 C 66.72 188.39 72.75 190.04 76.67 194.38 C 82.63 200.77 82.31 211.96 75.79 217.86 C 71.59 221.80 65.60 223.00 60.00 222.89 C 54.18 222.88 48.36 222.87 42.54 222.88 C 42.60 229.55 42.36 236.22 42.71 242.88 C 37.42 242.82 32.12 242.85 26.82 242.86 C 27.15 224.72 27.12 206.56 26.84 188.42 M 42.53 200.01 C 42.54 203.97 42.54 207.94 42.53 211.90 C 48.98 211.72 55.49 212.34 61.91 211.54 C 66.14 211.08 68.02 205.63 65.64 202.35 C 64.07 200.41 61.37 200.15 59.05 200.04 C 53.55 199.92 48.04 200.03 42.53 200.01 Z" />
<path fill="#ffffff" opacity="1.00" d=" M 127.79 194.46 C 132.50 194.48 137.21 194.48 141.93 194.45 C 141.54 203.63 141.96 212.81 141.70 221.99 C 141.53 228.26 138.18 234.53 132.44 237.37 C 124.86 241.11 115.85 241.08 107.75 239.26 C 100.47 237.67 94.44 231.45 93.80 223.91 C 93.11 214.11 93.90 204.25 93.37 194.44 C 98.09 194.49 102.80 194.49 107.51 194.44 C 107.15 202.95 107.45 211.46 107.32 219.97 C 107.31 222.59 107.18 225.71 109.41 227.57 C 112.65 230.20 117.20 230.16 121.13 229.64 C 124.47 229.25 127.95 226.80 127.90 223.14 C 127.98 213.59 128.12 204.02 127.79 194.46 Z" />
<path fill="#ffffff" opacity="1.00" d=" M 156.86 194.47 C 167.19 194.52 177.52 194.39 187.85 194.53 C 192.38 194.79 198.08 195.00 200.72 199.35 C 203.94 205.12 201.35 212.73 195.47 215.62 C 198.10 216.71 200.89 218.07 202.26 220.73 C 204.88 225.95 203.80 233.37 198.66 236.67 C 193.75 239.87 187.63 239.86 181.98 239.83 C 173.60 239.81 165.22 239.81 156.84 239.83 C 157.17 224.72 157.13 209.58 156.86 194.47 M 170.83 203.14 C 170.84 206.44 170.84 209.73 170.85 213.02 C 176.11 212.81 181.46 213.54 186.66 212.55 C 191.07 211.63 191.09 203.94 186.47 203.41 C 181.29 202.79 176.04 203.26 170.83 203.14 M 170.84 220.03 C 170.84 223.74 170.84 227.45 170.84 231.16 C 176.31 230.88 181.99 231.92 187.31 230.32 C 191.88 228.99 191.72 221.28 186.94 220.43 C 181.62 219.60 176.20 220.20 170.84 220.03 Z" />
<path fill="#ffffff" opacity="1.00" d=" M 216.02 194.47 C 220.74 194.47 225.46 194.48 230.17 194.47 C 229.79 206.08 230.10 217.70 230.00 229.31 C 240.45 229.22 250.91 229.50 261.35 229.15 C 261.32 232.76 261.33 236.37 261.33 239.98 C 246.25 239.64 231.15 239.89 216.06 239.85 C 216.24 224.73 216.32 209.59 216.02 194.47 Z" />
<path fill="#ffffff" opacity="1.00" d=" M 271.76 194.46 C 276.47 194.48 281.18 194.49 285.90 194.44 C 285.63 209.58 285.63 224.73 285.90 239.86 C 281.18 239.80 276.46 239.82 271.74 239.84 C 272.07 224.72 272.03 209.58 271.76 194.46 Z" />
<path fill="#ffffff" opacity="1.00" d=" M 306.23 200.22 C 313.24 194.96 322.41 193.51 330.97 193.98 C 337.65 194.37 343.99 196.64 350.50 197.94 C 348.43 202.13 346.34 206.30 344.33 210.51 C 340.13 206.16 333.83 204.86 328.01 204.80 C 322.57 204.95 316.45 206.58 313.29 211.37 C 309.96 216.46 311.94 223.94 317.33 226.74 C 326.15 231.66 339.26 230.08 345.11 221.33 C 347.87 225.37 350.65 229.40 353.48 233.38 C 347.20 236.12 340.96 239.30 334.04 240.03 C 324.43 241.15 313.86 239.91 305.97 233.88 C 295.57 225.94 295.68 207.99 306.23 200.22 Z" />
<path fill="#ffffff" opacity="1.00" d=" M 50.96 248.94 C 58.16 242.27 68.77 241.68 78.06 242.55 C 86.11 243.15 93.81 245.70 101.65 247.44 C 99.68 251.27 97.78 255.13 95.89 259.00 C 92.36 255.12 87.02 254.17 82.10 253.34 C 76.75 252.59 71.22 252.10 65.88 253.22 C 63.77 253.71 61.33 254.64 60.61 256.92 C 60.25 259.82 63.64 260.65 65.82 261.11 C 74.80 262.64 84.19 262.10 92.87 265.21 C 96.70 266.57 100.42 269.04 102.14 272.86 C 104.64 278.54 103.45 285.70 99.10 290.16 C 94.87 294.58 88.74 296.46 82.85 297.32 C 74.74 298.34 66.45 297.97 58.44 296.34 C 53.65 295.38 49.12 293.49 44.41 292.27 C 46.46 287.33 48.57 282.42 50.52 277.45 C 54.61 282.59 61.30 284.28 67.46 285.36 C 73.07 286.09 78.99 286.31 84.42 284.47 C 87.06 283.64 89.43 281.12 88.89 278.18 C 87.15 275.76 83.78 275.78 81.11 275.28 C 71.04 273.88 59.99 274.48 51.08 268.86 C 44.27 264.41 45.34 253.92 50.96 248.94 Z" />
<path fill="#ffffff" opacity="1.00" d=" M 139.76 244.42 C 145.10 244.30 150.44 244.38 155.78 244.36 C 154.26 245.87 152.74 247.38 151.22 248.89 C 155.24 248.92 159.27 248.96 163.29 248.73 C 163.27 251.86 163.27 255.00 163.28 258.13 C 152.22 257.77 141.15 258.06 130.09 257.97 C 130.09 260.75 130.09 263.53 130.09 266.32 C 137.59 266.25 145.10 266.49 152.59 266.15 C 152.55 269.15 152.55 272.15 152.56 275.15 C 145.08 274.80 137.58 275.04 130.09 274.98 C 130.09 278.38 130.09 281.78 130.09 285.18 C 141.15 285.10 152.22 285.36 163.28 285.03 C 163.27 288.16 163.27 291.28 163.29 294.42 C 147.57 294.03 131.84 294.34 116.11 294.26 C 116.38 279.14 116.39 264.01 116.11 248.90 C 123.02 248.91 129.94 248.90 136.85 248.90 C 137.84 247.42 138.78 245.91 139.76 244.42 Z" />
<path fill="#ffffff" opacity="1.00" d=" M 177.75 248.90 C 183.56 248.91 189.37 248.88 195.18 248.92 C 201.28 257.44 209.25 264.42 216.16 272.28 C 216.10 264.48 216.34 256.69 216.00 248.90 C 220.24 248.90 224.48 248.90 228.72 248.89 C 228.41 264.01 228.43 279.15 228.71 294.26 C 225.12 294.23 221.52 294.25 217.93 294.23 C 215.26 289.99 211.54 286.59 208.17 282.94 C 202.09 276.66 196.05 270.35 190.30 263.78 C 190.37 273.94 190.10 284.10 190.46 294.26 C 186.23 294.23 181.99 294.24 177.76 294.25 C 178.03 279.14 178.05 264.01 177.75 248.90 Z" />
<path fill="#ffffff" opacity="1.00" d=" M 246.39 275.35 C 250.21 266.54 254.55 257.93 257.86 248.90 C 263.52 248.89 269.18 248.89 274.83 248.91 C 281.29 264.28 289.07 279.07 295.93 294.27 C 291.35 294.23 286.76 294.25 282.18 294.24 C 280.93 291.12 279.47 288.10 278.01 285.07 C 270.08 285.06 262.14 285.09 254.21 285.06 C 252.74 288.08 251.30 291.11 250.08 294.24 C 246.02 294.25 241.97 294.23 237.92 294.26 C 240.95 288.05 243.50 281.63 246.39 275.35 M 265.88 257.06 C 263.05 263.92 260.25 270.79 257.43 277.65 C 263.13 277.66 268.83 277.66 274.54 277.66 C 271.66 270.79 268.79 263.92 265.88 257.06 Z" />
<path fill="#ffffff" opacity="1.00" d=" M 293.08 248.70 C 309.57 249.04 326.09 249.01 342.59 248.72 C 342.56 252.34 342.56 255.95 342.60 259.57 C 336.65 259.27 330.69 259.45 324.74 259.41 C 324.83 271.03 324.54 282.64 324.90 294.25 C 320.19 294.24 315.47 294.24 310.76 294.25 C 311.14 282.64 310.83 271.02 310.93 259.41 C 304.98 259.46 299.02 259.24 293.07 259.59 C 293.11 255.96 293.10 252.33 293.08 248.70 Z" />
</g>
<g id="#b51621ff">
<path fill="#b51621" opacity="1.00" d=" M 0.00 162.00 C 126.67 162.00 253.33 162.00 380.00 162.00 L 380.00 324.00 L 0.00 324.00 L 0.00 162.00 M 26.84 188.42 C 27.12 206.56 27.15 224.72 26.82 242.86 C 32.12 242.85 37.42 242.82 42.71 242.88 C 42.36 236.22 42.60 229.55 42.54 222.88 C 48.36 222.87 54.18 222.88 60.00 222.89 C 65.60 223.00 71.59 221.80 75.79 217.86 C 82.31 211.96 82.63 200.77 76.67 194.38 C 72.75 190.04 66.72 188.39 61.05 188.43 C 49.64 188.40 38.24 188.44 26.84 188.42 M 127.79 194.46 C 128.12 204.02 127.98 213.59 127.90 223.14 C 127.95 226.80 124.47 229.25 121.13 229.64 C 117.20 230.16 112.65 230.20 109.41 227.57 C 107.18 225.71 107.31 222.59 107.32 219.97 C 107.45 211.46 107.15 202.95 107.51 194.44 C 102.80 194.49 98.09 194.49 93.37 194.44 C 93.90 204.25 93.11 214.11 93.80 223.91 C 94.44 231.45 100.47 237.67 107.75 239.26 C 115.85 241.08 124.86 241.11 132.44 237.37 C 138.18 234.53 141.53 228.26 141.70 221.99 C 141.96 212.81 141.54 203.63 141.93 194.45 C 137.21 194.48 132.50 194.48 127.79 194.46 M 156.86 194.47 C 157.13 209.58 157.17 224.72 156.84 239.83 C 165.22 239.81 173.60 239.81 181.98 239.83 C 187.63 239.86 193.75 239.87 198.66 236.67 C 203.80 233.37 204.88 225.95 202.26 220.73 C 200.89 218.07 198.10 216.71 195.47 215.62 C 201.35 212.73 203.94 205.12 200.72 199.35 C 198.08 195.00 192.38 194.79 187.85 194.53 C 177.52 194.39 167.19 194.52 156.86 194.47 M 216.02 194.47 C 216.32 209.59 216.24 224.73 216.06 239.85 C 231.15 239.89 246.25 239.64 261.33 239.98 C 261.33 236.37 261.32 232.76 261.35 229.15 C 250.91 229.50 240.45 229.22 230.00 229.31 C 230.10 217.70 229.79 206.08 230.17 194.47 C 225.46 194.48 220.74 194.47 216.02 194.47 M 271.76 194.46 C 272.03 209.58 272.07 224.72 271.74 239.84 C 276.46 239.82 281.18 239.80 285.90 239.86 C 285.63 224.73 285.63 209.58 285.90 194.44 C 281.18 194.49 276.47 194.48 271.76 194.46 M 306.23 200.22 C 295.68 207.99 295.57 225.94 305.97 233.88 C 313.86 239.91 324.43 241.15 334.04 240.03 C 340.96 239.30 347.20 236.12 353.48 233.38 C 350.65 229.40 347.87 225.37 345.11 221.33 C 339.26 230.08 326.15 231.66 317.33 226.74 C 311.94 223.94 309.96 216.46 313.29 211.37 C 316.45 206.58 322.57 204.95 328.01 204.80 C 333.83 204.86 340.13 206.16 344.33 210.51 C 346.34 206.30 348.43 202.13 350.50 197.94 C 343.99 196.64 337.65 194.37 330.97 193.98 C 322.41 193.51 313.24 194.96 306.23 200.22 M 50.96 248.94 C 45.34 253.92 44.27 264.41 51.08 268.86 C 59.99 274.48 71.04 273.88 81.11 275.28 C 83.78 275.78 87.15 275.76 88.89 278.18 C 89.43 281.12 87.06 283.64 84.42 284.47 C 78.99 286.31 73.07 286.09 67.46 285.36 C 61.30 284.28 54.61 282.59 50.52 277.45 C 48.57 282.42 46.46 287.33 44.41 292.27 C 49.12 293.49 53.65 295.38 58.44 296.34 C 66.45 297.97 74.74 298.34 82.85 297.32 C 88.74 296.46 94.87 294.58 99.10 290.16 C 103.45 285.70 104.64 278.54 102.14 272.86 C 100.42 269.04 96.70 266.57 92.87 265.21 C 84.19 262.10 74.80 262.64 65.82 261.11 C 63.64 260.65 60.25 259.82 60.61 256.92 C 61.33 254.64 63.77 253.71 65.88 253.22 C 71.22 252.10 76.75 252.59 82.10 253.34 C 87.02 254.17 92.36 255.12 95.89 259.00 C 97.78 255.13 99.68 251.27 101.65 247.44 C 93.81 245.70 86.11 243.15 78.06 242.55 C 68.77 241.68 58.16 242.27 50.96 248.94 M 139.76 244.42 C 138.78 245.91 137.84 247.42 136.85 248.90 C 129.94 248.90 123.02 248.91 116.11 248.90 C 116.39 264.01 116.38 279.14 116.11 294.26 C 131.84 294.34 147.57 294.03 163.29 294.42 C 163.27 291.28 163.27 288.16 163.28 285.03 C 152.22 285.36 141.15 285.10 130.09 285.18 C 130.09 281.78 130.09 278.38 130.09 274.98 C 137.58 275.04 145.08 274.80 152.56 275.15 C 152.55 272.15 152.55 269.15 152.59 266.15 C 145.10 266.49 137.59 266.25 130.09 266.32 C 130.09 263.53 130.09 260.75 130.09 257.97 C 141.15 258.06 152.22 257.77 163.28 258.13 C 163.27 255.00 163.27 251.86 163.29 248.73 C 159.27 248.96 155.24 248.92 151.22 248.89 C 152.74 247.38 154.26 245.87 155.78 244.36 C 150.44 244.38 145.10 244.30 139.76 244.42 M 177.75 248.90 C 178.05 264.01 178.03 279.14 177.76 294.25 C 181.99 294.24 186.23 294.23 190.46 294.26 C 190.10 284.10 190.37 273.94 190.30 263.78 C 196.05 270.35 202.09 276.66 208.17 282.94 C 211.54 286.59 215.26 289.99 217.93 294.23 C 221.52 294.25 225.12 294.23 228.71 294.26 C 228.43 279.15 228.41 264.01 228.72 248.89 C 224.48 248.90 220.24 248.90 216.00 248.90 C 216.34 256.69 216.10 264.48 216.16 272.28 C 209.25 264.42 201.28 257.44 195.18 248.92 C 189.37 248.88 183.56 248.91 177.75 248.90 M 246.39 275.35 C 243.50 281.63 240.95 288.05 237.92 294.26 C 241.97 294.23 246.02 294.25 250.08 294.24 C 251.30 291.11 252.74 288.08 254.21 285.06 C 262.14 285.09 270.08 285.06 278.01 285.07 C 279.47 288.10 280.93 291.12 282.18 294.24 C 286.76 294.25 291.35 294.23 295.93 294.27 C 289.07 279.07 281.29 264.28 274.83 248.91 C 269.18 248.89 263.52 248.89 257.86 248.90 C 254.55 257.93 250.21 266.54 246.39 275.35 M 293.08 248.70 C 293.10 252.33 293.11 255.96 293.07 259.59 C 299.02 259.24 304.98 259.46 310.93 259.41 C 310.83 271.02 311.14 282.64 310.76 294.25 C 315.47 294.24 320.19 294.24 324.90 294.25 C 324.54 282.64 324.83 271.03 324.74 259.41 C 330.69 259.45 336.65 259.27 342.60 259.57 C 342.56 255.95 342.56 252.34 342.59 248.72 C 326.09 249.01 309.57 249.04 293.08 248.70 Z" />
<path fill="#b51621" opacity="1.00" d=" M 42.53 200.01 C 48.04 200.03 53.55 199.92 59.05 200.04 C 61.37 200.15 64.07 200.41 65.64 202.35 C 68.02 205.63 66.14 211.08 61.91 211.54 C 55.49 212.34 48.98 211.72 42.53 211.90 C 42.54 207.94 42.54 203.97 42.53 200.01 Z" />
<path fill="#b51621" opacity="1.00" d=" M 170.83 203.14 C 176.04 203.26 181.29 202.79 186.47 203.41 C 191.09 203.94 191.07 211.63 186.66 212.55 C 181.46 213.54 176.11 212.81 170.85 213.02 C 170.84 209.73 170.84 206.44 170.83 203.14 Z" />
<path fill="#b51621" opacity="1.00" d=" M 170.84 220.03 C 176.20 220.20 181.62 219.60 186.94 220.43 C 191.72 221.28 191.88 228.99 187.31 230.32 C 181.99 231.92 176.31 230.88 170.84 231.16 C 170.84 227.45 170.84 223.74 170.84 220.03 Z" />
<path fill="#b51621" opacity="1.00" d=" M 265.88 257.06 C 268.79 263.92 271.66 270.79 274.54 277.66 C 268.83 277.66 263.13 277.66 257.43 277.65 C 260.25 270.79 263.05 263.92 265.88 257.06 Z" />
</g>
</svg>
