<?xml version="1.0" encoding="utf-8"?>
<!-- Generator: Adobe Illustrator 24.3.0, SVG Export Plug-In . SVG Version: 6.00 Build 0)  -->
<svg version="1.1" id="Слой_1" xmlns="http://www.w3.org/2000/svg" xmlns:xlink="http://www.w3.org/1999/xlink" x="0px" y="0px"
	 width="512px" height="228.2px" viewBox="0 0 512 228.2" style="enable-background:new 0 0 512 228.2;" xml:space="preserve">
<style type="text/css">
	.st0{fill:#4F2680;}
	.st1{fill:#C2A4CD;}
	.st2{fill:#EE8926;}
	.st3{fill:#FFDB00;}
	.st4{fill:#F6A40D;}
	.st5{fill:#0D0E0D;}
	.st6{clip-path:url(#SVGID_2_);fill:#FFFFFF;}
</style>
<g>
	<polygon class="st0" points="380,161.2 352.6,163.6 380,163.6 	"/>
	<polygon class="st1" points="321,163.6 321.2,166.4 352.6,163.6 	"/>
	<polygon class="st2" points="359.3,108 199.4,108 199.4,216.2 225.3,216.2 217,120.5 	"/>
	<polygon class="st2" points="486.2,205.5 364,216.2 486.2,216.2 	"/>
	<polygon class="st3" points="359.3,108 486.2,108 486.2,205.5 512,203.3 502.6,95.5 	"/>
	<polygon class="st3" points="225.3,216.2 226.4,228.2 364.1,216.2 	"/>
	<polygon class="st4" points="486.2,108 359.3,108 217,120.5 225.3,216.2 364,216.2 486.2,205.5 	"/>
	<rect y="0" class="st5" width="432.2" height="108"/>
	<g>
		<defs>
			<rect id="SVGID_1_" width="512" height="228.2"/>
		</defs>
		<clipPath id="SVGID_2_">
			<use xlink:href="#SVGID_1_"  style="overflow:visible;"/>
		</clipPath>
		<path class="st6" d="M413.7,58.8c0,0-0.1,0.2-0.4,0.2H390c-0.4,0-0.6,0.2-0.6,0.2s-0.2,0.1-0.2,0.5v24.9c0,0.4-0.2,0.5-0.2,0.5
			s-0.1,0.2-0.4,0.2h-18.5c-0.3,0-0.5-0.2-0.5-0.2s-0.1-0.1-0.1-0.6V59.6c0-0.3-0.3-0.5-0.3-0.5s-0.1-0.2-0.4-0.2h-23.9
			c-0.5,0-0.6-0.1-0.6-0.1s-0.2-0.2-0.2-0.8V39.9c0-0.2,0.2-0.5,0.2-0.5s0.1-0.1,0.3-0.1h24.4c0.2,0,0.2-0.1,0.2-0.1
			s0.2-0.1,0.2-0.3V17.2c0-0.2,0.1-0.4,0.1-0.4s0.2-0.1,0.7-0.1h18.1c0.4,0,0.5,0.1,0.5,0.1s0.2,0.2,0.2,0.5v21.8h23.7
			c0.6,0,0.8,0.1,0.8,0.1s0.3,0.1,0.3,0.6v18.4C414,58.5,413.7,58.8,413.7,58.8 M341.5,84.3c-0.1,0.5-0.2,0.7-0.2,0.7
			s-0.1,0.2-0.5,0.2h-37.5c-1.1,0-1.4-0.3-1.4-0.3s-0.2-0.4-0.1-1.2l9.3-64.6c0.1-0.8,0.3-1.1,0.3-1.1h1h17c0.5,0,0.6,0.1,0.6,0.1
			s0.1,0.3,0,0.6l-7,50.5c-0.1,0.5,0.2,0.6,0.2,0.6s0.2,0.1,0.9,0.1h18.6c0.4,0,0.5,0.2,0.5,0.2s0.1,0.1,0.1,0.5L341.5,84.3z
			 M293.7,85.3H277c-0.3,0.2-0.6-0.2-0.6-0.2s-0.1-0.1-0.2-0.6L274,74.2c-0.2-0.6-0.4-0.8-0.4-0.8s-0.5-0.3-1-0.3H251
			c-0.4,0-0.7,0.3-0.7,0.3s-0.4,0.4-0.5,0.9l-4.9,10.5c-0.1,0.3-0.3,0.4-0.3,0.4s-0.4,0.1-0.6,0.1h-18.7c-0.4,0.1-0.6-0.2-0.6-0.2
			s-0.1-0.2,0.2-0.5l33-66c0.2-0.1,0.4-0.4,0.4-0.4s0.2-0.1,0.7-0.1h20.5c0.5,0,0.7,0.3,0.7,0.3s0.1,0.1,0.2,0.4L294,85
			c0,0.2-0.1,0.3-0.1,0.3S294,85.3,293.7,85.3 M215.6,85.2H199h-0.5c0,0-0.1-0.1-0.2-0.2L175.1,44c-0.2-0.2-0.3-0.2-0.3-0.2
			s-0.2,0-0.2,0.3l-5.7,40.3c-0.1,0.5-0.2,0.6-0.2,0.6s-0.2,0.1-0.5,0.1h-16.6c-0.3,0-0.4-0.2-0.4-0.2s-0.4-0.4-0.3-0.7l9.1-65.3
			c0.1-0.4,0.3-0.5,0.3-0.5s0.3-0.3,0.6-0.3h18.5c0.3,0,0.5,0.2,0.5,0.2s0.2,0.1,0.3,0.4L201,55.3c0.3,0.8,0.6,0.7,0.6,0.7
			s0.3,0,0.5-0.8l5.3-36.4c0-0.3,0.2-0.4,0.2-0.4s0.1-0.2,0.4-0.2l17.4,0.2c0.4,0,0.5,0.1,0.5,0.1s0.1,0.1,0.1,0.3l-9.4,65.8
			c-0.1,0.4-0.3,0.6-0.3,0.6S216.1,85.2,215.6,85.2 M142.8,85.1l-16.2,0.1c-0.4,0-0.6-0.2-0.6-0.2s-0.1-0.1-0.2-0.7l-2.5-10.5
			c0-0.3-0.2-0.4-0.2-0.4h-0.3H99.9c-0.5,0-0.7,0.4-0.7,0.4s-0.4,0.3-0.7,0.9L94,84.4c-0.2,0.3-0.3,0.5-0.3,0.5s-0.3,0.2-0.5,0.2
			H74.3c-0.5,0.1-0.6-0.2-0.6-0.2s-0.1-0.3,0.1-0.7l32.7-65.7c0.2-0.4,0.4-0.4,0.4-0.4h0.6h20.9c0.3,0,0.6,0.3,0.6,0.3
			s0.1,0.1,0.2,0.4l14,65.9c0,0.3-0.2,0.4-0.2,0.4S143,85.1,142.8,85.1 M266.3,37.1c0,0-0.1,0-0.2,0.3L257,58
			c-0.2,0.6-0.1,0.7-0.1,0.7s0.3,0.2,0.5,0.2l13.5-0.1h0.2c0,0,0.1-0.1,0-0.4l-4.6-21.1C266.4,37.1,266.3,37.1,266.3,37.1
			 M115.1,37.4c0,0-0.1,0-0.2,0.2l-9.1,20.7c-0.2,0.3-0.1,0.5-0.1,0.5s0.1,0.1,0.5,0.1l13.4,0.1c0.1,0,0.2-0.1,0.2-0.1
			s0.1-0.1,0-0.4l-4.7-20.9C115.2,37.4,115.1,37.4,115.1,37.4 M68.5,82.8c-0.1,0.7-0.5,1.3-0.5,1.3s-0.3,0.4-1,0.5
			C58.3,88.2,48.6,87,48.6,87c-15.8-1.7-25.8-11.4-29-23.8c-4.7-18.7,4.7-32,6.9-34.8c5.6-6.6,14.2-11.4,22.7-12.5
			C60,14.3,68,16.9,71.3,18c0,0,3.7,1.2,6.4,3c1.4,0.9,1.5,1.3,1.5,1.3s0.1,0.2-0.3,1.6l-2.6,13.4c-0.1,0.6-0.4,0.8-0.4,0.8
			s-0.2,0.1-1.4-0.7c-8.2-5.8-17.8-5.1-17.8-5.1c-7.3,0.5-15.7,4.3-18.3,13.9c-2.3,8.6,0.1,15.7,5.2,20c3.5,3,8.9,4.5,14.5,4.3
			c6.2-0.5,11.1-2.9,10.8-2.8c0,0,0.3-0.1,0.6-0.2C70.7,66.9,71,67,71,67s0.3,0.3,0.1,1.1L68.5,82.8z"/>
		<polygon class="st6" points="293,197.8 272.4,175.9 272.4,197.8 253.8,197.8 253.8,122.5 272.4,122.5 272.4,163.3 292,143.9 
			317.5,143.9 291.1,168.8 319,197.8 		"/>
		<path class="st6" d="M389.9,197.8v-6c-0.9,1.2-1.6,1.9-2,2.3c-3.6,3.5-8.4,5.3-14.3,5.3c-7.8,0-14.1-2.8-19.1-8.4
			c-5.1-5.7-7.5-12.4-7.5-20.4c0-7.9,2.5-14.6,7.5-20.2c5.1-5.7,11.4-8.4,18.9-8.4c5,0,9.1,1.1,12.4,3.3c1.1,0.8,2.5,2,4,3.7v-26.7
			h18.6v75.4H389.9z M378.4,158.6c-3.3,0-6.1,1.2-8.5,3.6c-2.4,2.3-3.5,5.2-3.5,8.5c0,6.9,5.3,12.4,12,12.4c6.6,0,12-5.4,12-12.3
			C390.4,164,385.1,158.6,378.4,158.6"/>
		<path class="st6" d="M444.8,163.6c4.4,1,7.8,2.2,9.9,4.1c3.6,2.9,5.4,6.9,5.4,11.9c0,9.5-4.9,15.8-14.7,18.9
			c-3.1,1-6.5,1.4-10.3,1.4c-7.1,0-14.2-2.1-21.1-6.3l6.7-13.4c5.5,3.7,10.4,5.5,14.9,5.5c1.4,0,2.7-0.3,3.8-1
			c1.3-0.7,2.1-1.8,2.1-3.2c0-2.1-1.2-3.4-5-4.4c-0.5-0.1-1.6-0.3-3-0.6c-5.1-1.1-8.7-2.6-11-4.4c-3-2.5-4.5-6-4.5-10.7
			c0-6.5,2.4-11.5,7.2-15c4.2-3,9.6-4.5,16.2-4.5c5.5,0,10.2,0.7,14.2,2.2c0.8,0.3,1.8,0.7,2.9,1.3l-6.3,12.4
			c-2.8-1.5-5.6-2.3-8.2-2.6c-0.7-0.1-1.4-0.1-2-0.1c-3.8,0-5.7,1.3-5.7,3.8c0,1.7,1.4,2.9,4.2,3.6c0.3,0.1,0.9,0.2,1.8,0.4
			L444.8,163.6z"/>
		<path class="st6" d="M343,129.4c0,5.8-4.9,10.3-10.5,10.3c-2.8,0-5.3-1-7.3-3c-2.1-2.1-3.1-4.4-3.1-7.2c0-5.9,4.6-10.5,10.4-10.5
			C338.3,119,343,123.6,343,129.4 M323.2,143.9h18.6v54h-18.6V143.9z"/>
	</g>
</g>
</svg>
