<?xml version="1.0" encoding="UTF-8" standalone="no"?>
<!-- Created with Inkscape (http://www.inkscape.org/) -->

<svg
   xmlns:dc="http://purl.org/dc/elements/1.1/"
   xmlns:cc="http://creativecommons.org/ns#"
   xmlns:rdf="http://www.w3.org/1999/02/22-rdf-syntax-ns#"
   xmlns:svg="http://www.w3.org/2000/svg"
   xmlns="http://www.w3.org/2000/svg"
   xmlns:sodipodi="http://sodipodi.sourceforge.net/DTD/sodipodi-0.dtd"
   xmlns:inkscape="http://www.inkscape.org/namespaces/inkscape"
   id="svg2"
   version="1.1"
   inkscape:version="0.91 r13725"
   xml:space="preserve"
   width="800"
   height="498"
   viewBox="0 0 800 497.99998"
   sodipodi:docname="Logo NumeÌro 23.svg"><metadata
     id="metadata8"><rdf:RDF><cc:Work
         rdf:about=""><dc:format>image/svg+xml</dc:format><dc:type
           rdf:resource="http://purl.org/dc/dcmitype/StillImage" /><dc:title></dc:title></cc:Work></rdf:RDF></metadata><defs
     id="defs6" /><sodipodi:namedview
     pagecolor="#ffffff"
     bordercolor="#666666"
     borderopacity="1"
     objecttolerance="10"
     gridtolerance="10"
     guidetolerance="10"
     inkscape:pageopacity="0"
     inkscape:pageshadow="2"
     inkscape:window-width="1280"
     inkscape:window-height="691"
     id="namedview4"
     showgrid="false"
     inkscape:zoom="0.19165168"
     inkscape:cx="807.06861"
     inkscape:cy="594.67167"
     inkscape:window-x="0"
     inkscape:window-y="1"
     inkscape:window-maximized="1"
     inkscape:current-layer="g10" /><g
     id="g10"
     inkscape:groupmode="layer"
     inkscape:label="Logo WiBox"
     transform="matrix(1.25,0,0,-1.25,0,497.99996)"><g
       id="g4333"
       transform="matrix(0.32311001,0,0,0.32311001,269.77127,200.37725)"><g
         id="g4257"><path
           style="fill:#000000;fill-rule:evenodd;stroke:none;stroke-width:1.60000002;stroke-linecap:butt;stroke-linejoin:miter;stroke-miterlimit:4;stroke-dasharray:none;stroke-opacity:1"
           d="m -383.71229,106.25875 -405.88531,0 c 7.72251,431.96643 308.23556,507.88503 492.20269,506.40922 148.80125,0.26583 474.49289,-50.61895 492.20269,-435.57002 C 198.37305,118.46908 190.62992,52.637077 151.11789,-9.8877856 101.13457,-88.982701 26.269769,-168.15577 -62.79222,-274.50189 l 255.38818,0 0,-330.58294 -1027.51676,0 492.53137,587.375007 c 183.93111,199.363223 90.1389,242.608133 76.88912,253.910243 -11.84197,10.10125 -124.77993,50.74782 -118.21198,-129.94167 z"
           id="path4253"
           inkscape:connector-curvature="0"
           sodipodi:nodetypes="ccccscccccsc" /><path
           style="fill:#000000;fill-rule:evenodd;stroke:none;stroke-width:2.4000001;stroke-linecap:butt;stroke-linejoin:miter;stroke-miterlimit:4;stroke-dasharray:none;stroke-opacity:1"
           d="m 114.79158,599.49757 1031.03712,0 -324.54711,-387.65495 c 251.48991,-63.26461 287.84241,-245.133131 295.84251,-356.58356 8.9823,-125.13333 -28.3408,-469.12004 -550.4711,-475.41093 -138.08859,3.03913 -287.01841,22.94239 -474.819732,103.31243 l 55.865112,342.35695 c 195.39859,-85.74765 504.09637,-164.50053 554.60067,-47.33481 19.70801,45.72093 27.21576,202.867985 -385.68262,137.28892 l 0,235.91385 100.45903,117.85294 -302.28388,0 z"
           id="path4255"
           inkscape:connector-curvature="0"
           sodipodi:nodetypes="cccscccsccccc" /></g><g
         id="g4325"><path
           style="fill:#ffffff;fill-rule:evenodd;stroke:none;stroke-width:0.80000001px;stroke-linecap:butt;stroke-linejoin:miter;stroke-opacity:1"
           d="m 169.35,542.42341 0,-121.01719 35.05,0 0.002,71.57657 50.80626,-71.57657 35.05,0 0,121.01719 -35.05,0 0,-71.57812 -50.80626,71.57812 z"
           id="path4261"
           inkscape:connector-curvature="0"
           sodipodi:nodetypes="ccccccccccc" /><path
           style="opacity:1;fill:#ffffff;fill-opacity:1;fill-rule:nonzero;stroke:none;stroke-width:3;stroke-linecap:round;stroke-linejoin:round;stroke-miterlimit:4;stroke-dasharray:none;stroke-dashoffset:8.40254879;stroke-opacity:1"
           d="m 594.01562,542.97653 0,-122.12343 77.11251,0 0,29.88437 -42.42969,0 0,16.23437 39.47812,0 0,29.88595 -39.47812,0 0,16.2328 42.42969,0 0,29.88594 z"
           id="rect4266"
           inkscape:connector-curvature="0"
           sodipodi:nodetypes="ccccccccccccc" /><path
           inkscape:connector-curvature="0"
           style="opacity:1;fill:#ffffff;fill-opacity:1;fill-rule:nonzero;stroke:none;stroke-width:3;stroke-linecap:round;stroke-linejoin:round;stroke-miterlimit:4;stroke-dasharray:none;stroke-dashoffset:8.40254879;stroke-opacity:1"
           d="m 850.99216,546.18903 a 65.073776,64.274162 0 0 1 -65.07341,-64.275 65.073776,64.274162 0 0 1 65.07341,-64.27343 65.073776,64.274162 0 0 1 65.07504,64.27343 65.073776,64.274162 0 0 1 -65.07504,64.275 z m 0,-30.65468 a 29.33185,33.619587 0 0 0 29.3328,-33.62032 29.33185,33.619587 0 0 0 -29.3328,-33.61874 29.33185,33.619587 0 0 0 -29.3312,33.61874 29.33185,33.619587 0 0 0 29.3312,33.62032 z"
           id="ellipse4278" /><path
           style="opacity:1;fill:#ffffff;fill-opacity:1;fill-rule:nonzero;stroke:none;stroke-width:3;stroke-linecap:round;stroke-linejoin:round;stroke-miterlimit:4;stroke-dasharray:none;stroke-dashoffset:8.40254879;stroke-opacity:1"
           d="m 686.81562,542.94778 0,-122.12367 34.68282,0 0,40.48437 24.51718,-40.48437 41.08282,0 -31.7125,48 c 19.84772,6.28928 23.85618,22.60697 23.97656,32.16249 -0.15152,12.02724 -0.38059,42.2588 -43.47968,41.96118 -16.40377,0.1299 -32.78658,0 -49.0672,0 z m 34.68282,-28.86118 9.275,0 c 10.1631,-0.0368 12.80565,-5.24696 12.99374,-13.1 -0.2078,-7.65329 -1.84372,-12.54141 -12.99374,-13.1 l -9.275,0 z"
           id="path4283"
           inkscape:connector-curvature="0"
           sodipodi:nodetypes="cccccccccccccccc" /><path
           style="fill:#ffffff;fill-rule:evenodd;stroke:none;stroke-width:0.80000001px;stroke-linecap:butt;stroke-linejoin:miter;stroke-opacity:1"
           d="m 450.87656,542.75857 -19.2,-121.68751 33.575,0 9.22344,67.88751 20.05782,-67.88751 22.61249,0 20.05782,67.88751 9.22343,-67.88751 33.575,0 -19.2,121.68751 -36.14218,0 -18.82032,-68.55782 -18.82031,68.55782 z"
           id="path4296"
           inkscape:connector-curvature="0"
           sodipodi:nodetypes="cccccccccccccc" /><path
           style="opacity:1;fill:#ffffff;fill-opacity:1;fill-rule:nonzero;stroke:none;stroke-width:3;stroke-linecap:round;stroke-linejoin:round;stroke-miterlimit:4;stroke-dasharray:none;stroke-dashoffset:8.40254879;stroke-opacity:1"
           d="m 310.09531,544.57653 0,-79.65312 c 0.97429,-45.0839 39.2173,-45.46606 54.92656,-45.67031 15.70927,0.20425 53.95227,0.58641 54.92657,45.67031 l 0,79.65312 -35.72657,0 0,-68.45312 c -0.38884,-24.60111 -8.94281,-25.88864 -19.2,-26.14219 -9.99629,0.2801 -18.81116,1.61745 -19.2,26.14219 l 0,68.45312 z"
           id="path4303"
           inkscape:connector-curvature="0"
           sodipodi:nodetypes="ccccccccccc" /></g></g></g></svg>