<svg version="1.2" xmlns="http://www.w3.org/2000/svg" viewBox="0 0 181 76" width="181" height="76">
	<title>bfm-business-2011</title>
	<defs>
		<linearGradient id="g1" x2="1" gradientUnits="userSpaceOnUse" gradientTransform="matrix(178.583,0,0,73.701,1.13,1.312)">
			<stop offset="0" stop-color="#2e3092"/>
			<stop offset="1" stop-color="#008ccf"/>
		</linearGradient>
		<linearGradient id="g2" x2="1" gradientUnits="userSpaceOnUse" gradientTransform="matrix(-193.302,0,0,-71.908,172.461,69.041)">
			<stop offset="0" stop-color="#feca07"/>
			<stop offset="1" stop-color="#e07e27"/>
		</linearGradient>
	</defs>
	<style>
		.s0 { fill: url(#g1) } 
		.s1 { fill: #fefefe } 
		.s2 { fill: url(#g2) } 
	</style>
	<g id="Calque 1">
		<g id="&lt;Group&gt;">
			<g id="&lt;Group&gt;">
				<path id="&lt;Path&gt;" class="s0" d="m1.1 1.3v73.7h178.6v-73.7z"/>
				<path id="&lt;Compound Path&gt;" fill-rule="evenodd" class="s1" d="m0.6 75.5v-74.7h179.6v74.7zm1-1h177.6v-72.7h-177.6zm-0.5-72.7v-0.5z"/>
			</g>
			<g id="&lt;Group&gt;">
				<g id="&lt;Group&gt;">
					<path id="&lt;Compound Path&gt;" fill-rule="evenodd" class="s2" d="m27.2 41.1h-18.8v-33.1h18.1c8.7 0 10.6 4.9 10.6 8.3 0 3.4-1.6 5.2-4.1 6.5 2.1 0.7 4.1 2.2 5.1 4.7v-19.5h39.1l4.7 19.5h0.1l4.7-19.5h14.6v33.1h-9.7v-21.2h-0.1l-5.7 21.2h-7.6l-5.8-21.2h-0.1v21.2h-9.6v-25.2h-14.4v5h9.4v7.6h-9.4v12.6h-10.2v-6.6c-1.6 4.3-6.2 6.6-10.9 6.6zm-8.6-20.2h5.4c2.1 0 3.5-0.6 3.5-2.7 0-1.7-1.4-2.3-3.5-2.3h-5.4zm6 12.3c2.1 0 4-0.6 4-3.1 0-2-1.2-3-3.6-3h-6.4v6.1zm21 11.3h7.7v14.7q0 4.9-2.8 7.4c-1.8 1.6-4.5 2.4-8.1 2.4-3.7 0-6.4-0.8-8.2-2.4q-2.8-2.5-2.8-7.4v-14.7h7.7v13.1c0 1.1 0 2.5 0.4 3.5 0.5 0.9 1.2 1.6 2.9 1.6 1.6 0 2.3-0.7 2.8-1.6 0.4-1 0.4-2.4 0.4-3.5zm-15.2 16.5c0 4.9-4.2 7.4-8.4 7.4h-13.6v-23.9h13.1c3.1-0.1 5.1 0.8 6.2 2.1 1.2 1.2 1.5 2.7 1.5 4 0 2.2-1 3.6-2.6 4.5 2 0.9 3.8 2.6 3.8 5.9zm-14.3-7.4h3.6c1.5-0.1 2.2-0.3 2.2-1.7 0-0.5-0.2-0.8-0.6-1.1-0.3-0.2-0.9-0.3-1.6-0.3h-3.6zm6.6 6.8c0-1.3-0.6-1.9-2.3-1.9h-4.3v3.9h4c1.5-0.1 2.6-0.4 2.6-2zm127.9 0.3c0 3.1-1.5 5.2-3.6 6.5-2.1 1.3-4.9 1.8-7.5 1.8-1.4 0-4-0.3-6.3-1.5-2.3-1.2-4.2-3.4-4.3-7.2v-0.2h7.7v0.2q0 0.8 0.3 1.5c0.4 1.2 1.9 1.5 3.2 1.5 0.6 0 1.3-0.1 1.8-0.4 0.6-0.3 0.9-0.7 1-1.5-0.1-0.5-0.2-0.8-0.9-1.1-0.7-0.4-2-0.8-4-1.4-1.9-0.5-3.9-1-5.5-2-1.5-1-2.7-2.5-2.7-5 0-2.8 1.2-4.8 3.1-6.1 1.8-1.3 4.2-1.9 6.6-1.9 5.2 0 9.9 2 10.1 7.9v0.3h-7.4l0.1-0.3q0-0.2 0-0.3c0-0.6-0.3-1-0.8-1.4-0.5-0.3-1.3-0.5-2-0.5-0.5 0-1.1 0.1-1.6 0.3-0.4 0.2-0.7 0.5-0.7 1 0 0.7 0.7 1.2 2 1.6 1.2 0.4 2.9 0.7 4.6 1.2 3.3 0.9 6.8 2.5 6.8 7zm21.9 0c0 3.1-1.5 5.2-3.6 6.5-2.1 1.3-4.9 1.8-7.5 1.8-1.4 0-4-0.3-6.2-1.5-2.3-1.2-4.3-3.4-4.4-7.2v-0.2h7.7v0.2q0.1 0.8 0.3 1.5c0.4 1.2 1.9 1.5 3.2 1.5 0.6 0 1.3-0.1 1.8-0.4 0.6-0.3 1-0.7 1-1.5 0-0.5-0.2-0.8-0.9-1.1-0.7-0.4-2-0.8-4-1.4-1.9-0.5-3.9-1-5.4-2-1.6-1-2.7-2.5-2.7-5 0-2.8 1.2-4.8 3-6.1 1.8-1.3 4.2-1.9 6.7-1.9 5.1 0 9.8 2 10 7.9v0.3h-7.4l0.1-0.3q0-0.2 0-0.3c0-0.6-0.3-1-0.8-1.4-0.5-0.3-1.3-0.5-2-0.5-0.4 0-1.1 0.1-1.5 0.3-0.5 0.2-0.8 0.5-0.8 1 0 0.7 0.7 1.2 2 1.6 1.3 0.4 2.9 0.7 4.6 1.2 3.3 0.9 6.8 2.5 6.8 7zm-56.3 1.2h12.6v6.5h-20.3v-23.9h19.9v6.5h-12.2v2.4h11.1v6.1h-11.1zm-40.3-17.5h7.7v24h-7.7zm-0.5 16.1c0 3.2-1.5 5.3-3.6 6.6-2.1 1.3-4.9 1.8-7.5 1.8-1.4 0-4-0.3-6.3-1.5-2.3-1.2-4.3-3.4-4.3-7.2v-0.3h7.7v0.3q0 0.8 0.3 1.4c0.4 1.3 1.9 1.6 3.2 1.6 0.6 0 1.3-0.1 1.8-0.4 0.6-0.3 0.9-0.7 0.9-1.5 0-0.5-0.1-0.8-0.8-1.2-0.8-0.3-2-0.7-4-1.3-1.9-0.5-3.9-1-5.5-2-1.5-1-2.7-2.6-2.7-5 0-2.8 1.2-4.8 3.1-6.1 1.8-1.3 4.2-1.9 6.6-1.9 5.2 0 9.9 2 10.1 7.9v0.2h-7.4l0.1-0.2q0-0.2 0-0.3c0-0.6-0.3-1-0.8-1.4-0.5-0.4-1.3-0.5-2-0.5-0.5 0-1.1 0-1.6 0.3-0.4 0.2-0.7 0.5-0.7 1 0 0.6 0.7 1.1 2 1.6 1.2 0.4 2.9 0.7 4.6 1.1 3.3 1 6.8 2.6 6.8 7zm24.1-16.1h7.3v23.9h-7.4l-6.9-12.3v12.3h-7.3v-23.9h7.8l6.5 11.9z"/>
				</g>
			</g>
		</g>
	</g>
</svg>