<?xml version="1.0" encoding="UTF-8" ?>
<!DOCTYPE svg PUBLIC "-//W3C//DTD SVG 1.1//EN" "http://www.w3.org/Graphics/SVG/1.1/DTD/svg11.dtd">
<svg width="349pt" height="165pt" viewBox="0 0 349 165" version="1.1" xmlns="http://www.w3.org/2000/svg">
<g id="#000000ff">
<path fill="#000000" opacity="1.00" d=" M 0.00 0.00 L 349.00 0.00 L 349.00 82.52 C 232.67 82.52 116.33 82.52 0.00 82.52 L 0.00 0.00 M 30.50 18.46 C 21.54 24.44 15.97 35.18 16.47 45.96 C 16.87 54.69 21.90 63.30 29.85 67.20 C 38.31 71.41 48.51 70.26 56.93 66.55 C 57.55 61.47 58.07 56.38 58.69 51.30 C 52.89 56.83 43.17 58.40 36.57 53.41 C 30.05 48.28 30.72 37.78 36.10 32.06 C 42.17 24.77 54.65 23.84 61.00 31.28 C 61.59 26.22 62.15 21.16 62.72 16.10 C 52.59 10.89 39.83 12.15 30.50 18.46 M 60.12 69.13 C 65.33 69.14 70.53 69.14 75.73 69.13 C 77.27 65.80 78.81 62.47 80.34 59.14 C 87.21 59.13 94.08 59.13 100.95 59.13 C 101.84 62.47 102.72 65.80 103.62 69.14 C 108.87 69.13 114.12 69.14 119.37 69.13 C 114.26 50.66 109.16 32.20 104.03 13.74 C 98.25 13.73 92.48 13.73 86.71 13.73 C 77.84 32.20 68.94 50.64 60.12 69.13 M 128.89 13.74 C 126.81 32.18 124.75 50.62 122.69 69.06 C 127.73 69.07 132.77 69.07 137.81 69.06 C 139.06 57.88 140.29 46.69 141.55 35.51 C 148.94 46.69 156.28 57.90 163.69 69.07 C 168.60 69.06 173.50 69.07 178.41 69.06 C 180.48 50.60 182.52 32.13 184.61 13.67 C 179.67 13.67 174.73 13.66 169.79 13.67 C 168.49 25.00 167.25 36.33 165.95 47.65 C 158.39 36.35 150.83 25.03 143.26 13.73 C 138.47 13.73 133.68 13.73 128.89 13.74 M 208.31 13.73 C 199.48 32.20 190.55 50.62 181.80 69.13 C 186.98 69.14 192.16 69.13 197.34 69.14 C 198.91 65.81 200.45 62.46 202.03 59.13 C 208.90 59.14 215.77 59.12 222.64 59.15 C 223.49 62.48 224.36 65.80 225.22 69.13 C 230.50 69.14 235.77 69.14 241.05 69.13 C 235.93 50.66 230.78 32.21 225.65 13.74 C 219.87 13.72 214.09 13.74 208.31 13.73 M 244.37 69.06 C 255.02 69.07 265.68 69.07 276.33 69.06 C 276.84 64.69 277.34 60.31 277.85 55.94 C 272.22 55.93 266.60 55.94 260.99 55.93 C 262.53 41.86 264.12 27.80 265.68 13.74 C 260.62 13.73 255.56 13.74 250.50 13.73 C 248.44 32.17 246.40 50.62 244.37 69.06 M 299.18 13.74 C 299.17 20.51 299.18 27.29 299.17 34.06 C 292.62 34.07 286.08 34.06 279.53 34.07 C 279.53 38.62 279.52 43.18 279.53 47.73 C 286.08 47.74 292.63 47.73 299.17 47.74 C 299.18 54.56 299.17 61.38 299.18 68.20 C 303.84 68.20 308.51 68.20 313.17 68.20 C 313.18 61.38 313.17 54.56 313.18 47.74 C 319.76 47.73 326.35 47.73 332.93 47.74 C 332.95 43.18 332.94 38.62 332.94 34.07 C 326.35 34.06 319.76 34.07 313.18 34.06 C 313.17 27.29 313.18 20.51 313.17 13.74 C 308.51 13.73 303.84 13.73 299.18 13.74 Z" />
<path fill="#000000" opacity="1.00" d=" M 93.95 28.03 C 95.45 34.61 96.87 41.21 98.35 47.80 C 93.99 47.80 89.63 47.80 85.26 47.80 C 88.17 41.21 91.09 34.64 93.95 28.03 Z" />
<path fill="#000000" opacity="1.00" d=" M 206.95 47.80 C 209.83 41.21 212.77 34.64 215.63 28.03 C 217.09 34.62 218.53 41.21 219.95 47.80 C 215.61 47.80 211.28 47.80 206.95 47.80 Z" />
<path fill="#000000" opacity="1.00" d=" M 101.77 95.33 C 106.76 95.31 111.75 95.32 116.73 95.33 C 114.75 107.57 112.92 119.83 110.95 132.07 C 109.84 137.80 108.93 144.22 104.49 148.43 C 96.77 154.98 83.64 154.22 77.01 146.43 C 79.49 143.01 81.81 139.48 84.36 136.11 C 86.22 138.26 88.82 140.61 91.92 139.54 C 94.88 138.39 95.17 134.75 95.87 132.09 C 98.16 119.90 99.82 107.59 101.77 95.33 Z" />
<path fill="#000000" opacity="1.00" d=" M 141.21 95.31 C 147.39 95.33 153.57 95.33 159.75 95.31 C 163.75 113.82 167.63 132.36 171.59 150.87 C 166.57 150.87 161.55 150.87 156.53 150.88 C 155.77 147.39 155.05 143.90 154.29 140.42 C 147.81 140.42 141.33 140.41 134.85 140.43 C 133.10 143.90 131.30 147.34 129.59 150.83 C 124.18 150.93 118.78 150.84 113.37 150.88 C 122.65 132.36 131.89 113.81 141.21 95.31 M 140.43 128.00 C 144.33 128.00 148.22 128.00 152.12 128.00 C 150.94 121.62 149.47 115.29 148.71 108.84 C 146.64 115.51 143.26 121.64 140.43 128.00 Z" />
<path fill="#000000" opacity="1.00" d=" M 182.64 95.33 C 187.62 95.32 192.61 95.31 197.60 95.33 C 195.99 104.87 194.56 114.44 192.99 123.99 C 192.55 127.45 191.75 131.07 192.74 134.50 C 194.27 139.21 201.32 140.35 204.54 136.75 C 207.92 133.30 209.18 128.45 210.39 123.92 C 212.59 114.49 213.65 104.85 215.29 95.32 C 220.22 95.33 225.15 95.31 230.08 95.33 C 228.52 106.50 226.67 117.64 224.88 128.78 C 223.79 134.81 222.39 141.36 217.70 145.71 C 211.60 151.83 202.26 153.26 194.01 152.15 C 187.87 151.39 181.55 148.22 178.70 142.50 C 176.31 137.73 177.06 132.24 177.70 127.16 C 179.13 116.52 180.99 105.94 182.64 95.33 Z" />
<path fill="#000000" opacity="1.00" d=" M 241.35 95.32 C 247.00 95.33 252.65 95.31 258.30 95.33 C 263.11 107.51 269.24 119.20 273.13 131.71 C 273.80 119.47 276.44 107.42 278.18 95.30 C 283.09 95.34 288.00 95.31 292.91 95.32 C 290.00 113.84 287.08 132.35 284.20 150.87 C 278.76 150.88 273.32 150.87 267.89 150.87 C 263.99 141.95 260.05 133.05 256.11 124.15 C 254.65 120.75 253.22 117.32 252.39 113.71 C 251.64 126.20 249.05 138.48 247.41 150.87 C 242.45 150.87 237.49 150.89 232.54 150.85 C 235.52 132.35 238.39 113.83 241.35 95.32 Z" />
<path fill="#000000" opacity="1.00" d=" M 304.67 95.33 C 315.34 95.32 326.02 95.32 336.69 95.33 C 336.03 99.56 335.31 103.79 334.69 108.03 C 328.98 108.32 323.25 108.09 317.53 108.17 C 317.04 111.17 316.56 114.18 316.12 117.19 C 321.41 117.20 326.70 117.19 331.99 117.19 C 331.39 121.25 330.77 125.31 330.09 129.35 C 324.77 129.36 319.45 129.35 314.14 129.36 C 313.67 132.41 313.19 135.46 312.70 138.51 C 318.41 138.53 324.13 138.51 329.84 138.51 C 329.17 142.65 328.59 146.80 327.81 150.91 C 317.19 150.82 306.56 150.90 295.94 150.87 C 298.77 132.35 301.83 113.85 304.67 95.33 Z" />
</g>
<g id="#ffffffff">
<path fill="#ffffff" opacity="1.00" d=" M 30.50 18.46 C 39.83 12.15 52.59 10.89 62.72 16.10 C 62.15 21.16 61.59 26.22 61.00 31.28 C 54.65 23.84 42.17 24.77 36.10 32.06 C 30.72 37.78 30.05 48.28 36.57 53.41 C 43.17 58.40 52.89 56.83 58.69 51.30 C 58.07 56.38 57.55 61.47 56.93 66.55 C 48.51 70.26 38.31 71.41 29.85 67.20 C 21.90 63.30 16.87 54.69 16.47 45.96 C 15.97 35.18 21.54 24.44 30.50 18.46 Z" />
<path fill="#ffffff" opacity="1.00" d=" M 60.12 69.13 C 68.94 50.64 77.84 32.20 86.71 13.73 C 92.48 13.73 98.25 13.73 104.03 13.74 C 109.16 32.20 114.26 50.66 119.37 69.13 C 114.12 69.14 108.87 69.13 103.62 69.14 C 102.72 65.80 101.84 62.47 100.95 59.13 C 94.08 59.13 87.21 59.13 80.34 59.14 C 78.81 62.47 77.27 65.80 75.73 69.13 C 70.53 69.14 65.33 69.14 60.12 69.13 M 93.95 28.03 C 91.09 34.64 88.17 41.21 85.26 47.80 C 89.63 47.80 93.99 47.80 98.35 47.80 C 96.87 41.21 95.45 34.61 93.95 28.03 Z" />
<path fill="#ffffff" opacity="1.00" d=" M 128.89 13.74 C 133.68 13.73 138.47 13.73 143.26 13.73 C 150.83 25.03 158.39 36.35 165.95 47.65 C 167.25 36.33 168.49 25.00 169.79 13.67 C 174.73 13.66 179.67 13.67 184.61 13.67 C 182.52 32.13 180.48 50.60 178.41 69.06 C 173.50 69.07 168.60 69.06 163.69 69.07 C 156.28 57.90 148.94 46.69 141.55 35.51 C 140.29 46.69 139.06 57.88 137.81 69.06 C 132.77 69.07 127.73 69.07 122.69 69.06 C 124.75 50.62 126.81 32.18 128.89 13.74 Z" />
<path fill="#ffffff" opacity="1.00" d=" M 208.31 13.73 C 214.09 13.74 219.87 13.72 225.65 13.74 C 230.78 32.21 235.93 50.66 241.05 69.13 C 235.77 69.14 230.50 69.14 225.22 69.13 C 224.36 65.80 223.49 62.48 222.64 59.15 C 215.77 59.12 208.90 59.14 202.03 59.13 C 200.45 62.46 198.91 65.81 197.34 69.14 C 192.16 69.13 186.98 69.14 181.80 69.13 C 190.55 50.62 199.48 32.20 208.31 13.73 M 206.95 47.80 C 211.28 47.80 215.61 47.80 219.95 47.80 C 218.53 41.21 217.09 34.62 215.63 28.03 C 212.77 34.64 209.83 41.21 206.95 47.80 Z" />
<path fill="#ffffff" opacity="1.00" d=" M 244.37 69.06 C 246.40 50.62 248.44 32.17 250.50 13.73 C 255.56 13.74 260.62 13.73 265.68 13.74 C 264.12 27.80 262.53 41.86 260.99 55.93 C 266.60 55.94 272.22 55.93 277.85 55.94 C 277.34 60.31 276.84 64.69 276.33 69.06 C 265.68 69.07 255.02 69.07 244.37 69.06 Z" />
<path fill="#ffffff" opacity="1.00" d=" M 299.18 13.74 C 303.84 13.73 308.51 13.73 313.17 13.74 C 313.18 20.51 313.17 27.29 313.18 34.06 C 319.76 34.07 326.35 34.06 332.94 34.07 C 332.94 38.62 332.95 43.18 332.93 47.74 C 326.35 47.73 319.76 47.73 313.18 47.74 C 313.17 54.56 313.18 61.38 313.17 68.20 C 308.51 68.20 303.84 68.20 299.18 68.20 C 299.17 61.38 299.18 54.56 299.17 47.74 C 292.63 47.73 286.08 47.74 279.53 47.73 C 279.52 43.18 279.53 38.62 279.53 34.07 C 286.08 34.06 292.62 34.07 299.17 34.06 C 299.18 27.29 299.17 20.51 299.18 13.74 Z" />
</g>
<g id="#ffed2fff">
<path fill="#ffed2f" opacity="1.00" d=" M 0.00 82.52 C 116.33 82.52 232.67 82.52 349.00 82.52 L 349.00 165.00 L 0.00 165.00 L 0.00 82.52 M 101.77 95.33 C 99.82 107.59 98.16 119.90 95.87 132.09 C 95.17 134.75 94.88 138.39 91.92 139.54 C 88.82 140.61 86.22 138.26 84.36 136.11 C 81.81 139.48 79.49 143.01 77.01 146.43 C 83.64 154.22 96.77 154.98 104.49 148.43 C 108.93 144.22 109.84 137.80 110.95 132.07 C 112.92 119.83 114.75 107.57 116.73 95.33 C 111.75 95.32 106.76 95.31 101.77 95.33 M 141.21 95.31 C 131.89 113.81 122.65 132.36 113.37 150.88 C 118.78 150.84 124.18 150.93 129.59 150.83 C 131.30 147.34 133.10 143.90 134.85 140.43 C 141.33 140.41 147.81 140.42 154.29 140.42 C 155.05 143.90 155.77 147.39 156.53 150.88 C 161.55 150.87 166.57 150.87 171.59 150.87 C 167.63 132.36 163.75 113.82 159.75 95.31 C 153.57 95.33 147.39 95.33 141.21 95.31 M 182.64 95.33 C 180.99 105.94 179.13 116.52 177.70 127.16 C 177.06 132.24 176.31 137.73 178.70 142.50 C 181.55 148.22 187.87 151.39 194.01 152.15 C 202.26 153.26 211.60 151.83 217.70 145.71 C 222.39 141.36 223.79 134.81 224.88 128.78 C 226.67 117.64 228.52 106.50 230.08 95.33 C 225.15 95.31 220.22 95.33 215.29 95.32 C 213.65 104.85 212.59 114.49 210.39 123.92 C 209.18 128.45 207.92 133.30 204.54 136.75 C 201.32 140.35 194.27 139.21 192.74 134.50 C 191.75 131.07 192.55 127.45 192.99 123.99 C 194.56 114.44 195.99 104.87 197.60 95.33 C 192.61 95.31 187.62 95.32 182.64 95.33 M 241.35 95.32 C 238.39 113.83 235.52 132.35 232.54 150.85 C 237.49 150.89 242.45 150.87 247.41 150.87 C 249.05 138.48 251.64 126.20 252.39 113.71 C 253.22 117.32 254.65 120.75 256.11 124.15 C 260.05 133.05 263.99 141.95 267.89 150.87 C 273.32 150.87 278.76 150.88 284.20 150.87 C 287.08 132.35 290.00 113.84 292.91 95.32 C 288.00 95.31 283.09 95.34 278.18 95.30 C 276.44 107.42 273.80 119.47 273.13 131.71 C 269.24 119.20 263.11 107.51 258.30 95.33 C 252.65 95.31 247.00 95.33 241.35 95.32 M 304.67 95.33 C 301.83 113.85 298.77 132.35 295.94 150.87 C 306.56 150.90 317.19 150.82 327.81 150.91 C 328.59 146.80 329.17 142.65 329.84 138.51 C 324.13 138.51 318.41 138.53 312.70 138.51 C 313.19 135.46 313.67 132.41 314.14 129.36 C 319.45 129.35 324.77 129.36 330.09 129.35 C 330.77 125.31 331.39 121.25 331.99 117.19 C 326.70 117.19 321.41 117.20 316.12 117.19 C 316.56 114.18 317.04 111.17 317.53 108.17 C 323.25 108.09 328.98 108.32 334.69 108.03 C 335.31 103.79 336.03 99.56 336.69 95.33 C 326.02 95.32 315.34 95.32 304.67 95.33 Z" />
<path fill="#ffed2f" opacity="1.00" d=" M 140.43 128.00 C 143.26 121.64 146.64 115.51 148.71 108.84 C 149.47 115.29 150.94 121.62 152.12 128.00 C 148.22 128.00 144.33 128.00 140.43 128.00 Z" />
</g>
</svg>
