<?xml version="1.0" encoding="UTF-8" standalone="no"?>
<!-- Created with Inkscape (http://www.inkscape.org/) -->
<svg
   xmlns:dc="http://purl.org/dc/elements/1.1/"
   xmlns:cc="http://web.resource.org/cc/"
   xmlns:rdf="http://www.w3.org/1999/02/22-rdf-syntax-ns#"
   xmlns:svg="http://www.w3.org/2000/svg"
   xmlns="http://www.w3.org/2000/svg"
   xmlns:sodipodi="http://sodipodi.sourceforge.net/DTD/sodipodi-0.dtd"
   xmlns:inkscape="http://www.inkscape.org/namespaces/inkscape"
   width="324"
   height="100"
   id="svg2"
   sodipodi:version="0.32"
   inkscape:version="0.45.1"
   version="1.0"
   inkscape:output_extension="org.inkscape.output.svg.inkscape">
  <g
     inkscape:label="Layer 1"
     inkscape:groupmode="layer"
     id="layer1"
     transform="translate(-321.30347,-703.03263)">
    <g
       clip-path="url(#id97)"
       id="g7268"
       transform="matrix(11.797458,0,0,-11.797458,-172.82223,4566.6773)">
      <g
         transform="matrix(0.1798706,0,0,-0.1798706,-586.31165,105.83687)"
         id="g7270">
        <g
           clip-path="url(#id98)"
           id="g7272">
          <g
             clip-path="url(#id99)"
             id="g7274">
            <g
               clip-path="url(#id100)"
               id="g7276">
              <path
                 style="fill:#e2003b;fill-rule:nonzero;stroke:none"
                 d="M 3513.119,-1195.548 L 3637.737,-1195.548 L 3637.737,-1226.656 L 3513.119,-1226.656 L 3513.119,-1195.548 z "
                 id="path7278" />
              <path
                 style="fill:#9d0c15;fill-rule:nonzero;stroke:none"
                 d="M 3577.614,-1226.656 L 3513.119,-1226.656 L 3513.119,-1195.548 L 3520.558,-1195.548 L 3518.294,-1221.462 L 3577.614,-1226.656 z "
                 id="path7280" />
              <path
                 style="fill:#9d0c15;fill-rule:nonzero;stroke:none"
                 d="M 3637.737,-1200.694 L 3578.972,-1195.548 L 3637.737,-1195.548 L 3637.737,-1200.694 z "
                 id="path7282" />
              <path
                 style="fill:#f08b27;fill-rule:nonzero;stroke:none"
                 d="M 3521,-1190.468 L 3578.972,-1195.548 L 3520.558,-1195.548 L 3521,-1190.468 z "
                 id="path7284" />
              <path
                 style="fill:#f08b27;fill-rule:nonzero;stroke:none"
                 d="M 3637.737,-1200.694 L 3645.143,-1201.343 L 3642.436,-1232.337 L 3577.614,-1226.656 L 3637.737,-1226.656 L 3637.737,-1200.694 z "
                 id="path7286" />
              <path
                 style="fill:#000000;fill-rule:nonzero;stroke:none"
                 d="M 3492.487,-1185.212 L 3523.635,-1185.212 L 3523.635,-1216.361 L 3492.487,-1216.361 L 3492.487,-1185.212 z "
                 id="path7288" />
              <path
                 style="fill:#ffffff;fill-rule:nonzero;stroke:none"
                 d="M 3517.987,-1199.259 C 3517.987,-1199.259 3517.962,-1199.206 3517.885,-1199.206 L 3511.159,-1199.206 C 3511.058,-1199.206 3511.002,-1199.155 3511.002,-1199.155 C 3511.002,-1199.155 3510.927,-1199.131 3510.927,-1198.998 L 3510.927,-1191.832 C 3510.927,-1191.725 3510.872,-1191.699 3510.872,-1191.699 C 3510.872,-1191.699 3510.846,-1191.645 3510.767,-1191.645 L 3505.436,-1191.645 C 3505.359,-1191.645 3505.304,-1191.699 3505.304,-1191.699 C 3505.304,-1191.699 3505.277,-1191.725 3505.277,-1191.854 L 3505.277,-1199.022 C 3505.277,-1199.098 3505.199,-1199.155 3505.199,-1199.155 C 3505.199,-1199.155 3505.172,-1199.206 3505.095,-1199.206 L 3498.215,-1199.206 C 3498.085,-1199.206 3498.057,-1199.234 3498.057,-1199.234 C 3498.057,-1199.234 3498.003,-1199.287 3498.003,-1199.443 L 3498.003,-1204.689 C 3498.003,-1204.744 3498.057,-1204.822 3498.057,-1204.822 C 3498.057,-1204.822 3498.085,-1204.849 3498.136,-1204.849 L 3505.172,-1204.849 C 3505.23,-1204.849 3505.23,-1204.877 3505.23,-1204.877 C 3505.23,-1204.877 3505.277,-1204.901 3505.277,-1204.954 L 3505.277,-1211.227 C 3505.277,-1211.305 3505.304,-1211.357 3505.304,-1211.357 C 3505.304,-1211.357 3505.359,-1211.384 3505.512,-1211.384 L 3510.742,-1211.384 C 3510.846,-1211.384 3510.872,-1211.357 3510.872,-1211.357 C 3510.872,-1211.357 3510.927,-1211.305 3510.927,-1211.2 L 3510.927,-1204.901 L 3517.755,-1204.901 C 3517.935,-1204.901 3517.987,-1204.877 3517.987,-1204.877 C 3517.987,-1204.877 3518.07,-1204.849 3518.07,-1204.689 L 3518.07,-1199.391 C 3518.07,-1199.338 3517.987,-1199.259 3517.987,-1199.259"
                 id="path7290" />
              <path
                 style="fill:#ffffff;fill-rule:nonzero;stroke:none"
                 d="M 3537.725,-1217.732 L 3536.59,-1217.732 L 3536.59,-1206.939 L 3537.725,-1206.939 C 3541.036,-1206.939 3543.192,-1209.073 3543.192,-1212.34 C 3543.192,-1215.6 3541.036,-1217.732 3537.725,-1217.732 M 3538.956,-1202.698 L 3531.58,-1202.698 L 3531.58,-1221.971 L 3538.956,-1221.971 C 3544.043,-1221.971 3548.437,-1217.501 3548.437,-1212.34 C 3548.437,-1207.146 3544.066,-1202.698 3538.956,-1202.698"
                 id="path7292" />
              <path
                 style="fill:#ffffff;fill-rule:nonzero;stroke:none"
                 d="M 3581.609,-1216.654 C 3581.556,-1216.191 3581.531,-1216.165 3581.428,-1216.165 C 3581.375,-1216.165 3581.323,-1216.191 3581.25,-1216.239 L 3580.964,-1216.472 C 3580.039,-1217.241 3578.296,-1217.732 3576.781,-1217.732 C 3573.282,-1217.732 3570.763,-1215.366 3570.763,-1212.133 C 3570.763,-1209.104 3572.949,-1206.939 3576.029,-1206.939 C 3577.601,-1206.939 3579.657,-1207.452 3580.273,-1207.993 C 3580.324,-1208.071 3580.402,-1208.096 3580.426,-1208.096 C 3580.504,-1208.096 3580.529,-1208.047 3580.529,-1207.97 C 3580.529,-1207.891 3580.529,-1207.817 3580.504,-1207.689 L 3580.148,-1203.496 C 3580.148,-1203.374 3580.039,-1203.238 3579.86,-1203.167 C 3578.937,-1202.698 3576.83,-1202.316 3575.336,-1202.316 C 3569.765,-1202.316 3565.754,-1206.324 3565.754,-1211.9 C 3565.754,-1217.757 3570.378,-1222.356 3576.319,-1222.356 C 3577.832,-1222.356 3579.324,-1222.043 3580.918,-1221.381 C 3581.76,-1221.02 3582.07,-1220.793 3582.07,-1220.51 L 3582.07,-1220.433 L 3581.609,-1216.654"
                 id="path7294" />
              <path
                 style="fill:#ffffff;fill-rule:nonzero;stroke:none"
                 d="M 3592.637,-1216.008 L 3590.53,-1209.866 L 3594.695,-1209.866 L 3592.637,-1216.008 z M 3597.316,-1202.698 L 3596.053,-1206.042 L 3589.145,-1206.042 L 3587.831,-1202.698 L 3582.536,-1202.698 L 3589.942,-1221.971 L 3595.387,-1221.971 L 3602.66,-1202.698 L 3597.316,-1202.698 z "
                 id="path7296" />
              <path
                 style="fill:#ffffff;fill-rule:nonzero;stroke:none"
                 d="M 3614.998,-1202.698 L 3603.975,-1202.698 L 3606.339,-1221.971 L 3611.22,-1221.971 L 3609.372,-1206.939 L 3615.513,-1206.939 L 3614.998,-1202.698 z "
                 id="path7298" />
              <path
                 style="fill:#ffffff;fill-rule:nonzero;stroke:none"
                 d="M 3618.522,-1204.42 L 3618.522,-1223.692 L 3620.193,-1223.692 L 3620.471,-1224.487 L 3628.081,-1224.487 L 3627.797,-1223.692 L 3629.466,-1223.692 L 3629.466,-1219.448 L 3623.534,-1219.448 L 3623.534,-1216.239 L 3629.161,-1216.239 L 3629.161,-1212 L 3623.534,-1212 L 3623.534,-1208.658 L 3629.466,-1208.658 L 3629.466,-1204.42 L 3618.522,-1204.42 z "
                 id="path7300" />
              <path
                 style="fill:#ffffff;fill-rule:nonzero;stroke:none"
                 d="M 3551.861,-1199.437 L 3551.861,-1218.709 L 3553.529,-1218.709 L 3553.815,-1219.51 L 3561.417,-1219.51 L 3561.137,-1218.709 L 3562.808,-1218.709 L 3562.808,-1214.469 L 3556.868,-1214.469 L 3556.868,-1211.26 L 3562.5,-1211.26 L 3562.5,-1207.02 L 3556.868,-1207.02 L 3556.868,-1203.68 L 3562.808,-1203.68 L 3562.808,-1199.437 L 3551.861,-1199.437 z "
                 id="path7302" />
            </g>
          </g>
        </g>
      </g>
    </g>
  </g>
</svg>
