<?xml version="1.0" encoding="UTF-8" standalone="no"?>
<svg
   xmlns:dc="http://purl.org/dc/elements/1.1/"
   xmlns:cc="http://creativecommons.org/ns#"
   xmlns:rdf="http://www.w3.org/1999/02/22-rdf-syntax-ns#"
   xmlns:svg="http://www.w3.org/2000/svg"
   xmlns="http://www.w3.org/2000/svg"
   xmlns:sodipodi="http://sodipodi.sourceforge.net/DTD/sodipodi-0.dtd"
   xmlns:inkscape="http://www.inkscape.org/namespaces/inkscape"
   width="320.92636"
   height="145.62169"
   viewBox="0 0 256.74109 116.49735"
   version="1.1"
   id="svg2"
   inkscape:version="0.48.2 r9819"
   sodipodi:docname="Canal+_Décalé_2013.svg">
  <metadata
     id="metadata53">
    <rdf:RDF>
      <cc:Work
         rdf:about="">
        <dc:format>image/svg+xml</dc:format>
        <dc:type
           rdf:resource="http://purl.org/dc/dcmitype/StillImage" />
      </cc:Work>
    </rdf:RDF>
  </metadata>
  <defs
     id="defs51" />
  <sodipodi:namedview
     pagecolor="#ffffff"
     bordercolor="#666666"
     borderopacity="1"
     objecttolerance="10"
     gridtolerance="10"
     guidetolerance="10"
     inkscape:pageopacity="0"
     inkscape:pageshadow="2"
     inkscape:window-width="1366"
     inkscape:window-height="706"
     id="namedview49"
     showgrid="false"
     fit-margin-top="0"
     fit-margin-left="0"
     fit-margin-right="0"
     fit-margin-bottom="0"
     inkscape:zoom="1.4731862"
     inkscape:cx="245.4933"
     inkscape:cy="109.6005"
     inkscape:window-x="-8"
     inkscape:window-y="-8"
     inkscape:window-maximized="1"
     inkscape:current-layer="svg2" />
  <path
     inkscape:connector-curvature="0"
     style="fill:#b1a6ac;fill-opacity:1;fill-rule:nonzero;stroke:none"
     d="m 32.615486,107.87348 211.553094,0 0,-52.809333 -211.553094,0 0,52.809333 z"
     id="path7278" />
  <path
     inkscape:connector-curvature="0"
     style="fill:#5b555a;fill-opacity:1;fill-rule:nonzero;stroke:none"
     d="m 142.10302,55.064147 -109.487534,0 0,52.809333 12.62854,0 -3.84339,-43.991933 100.702384,-8.8174 z"
     id="path7280" />
  <path
     inkscape:connector-curvature="0"
     style="fill:#867d86;fill-opacity:1;fill-rule:nonzero;stroke:none"
     d="m 45.994376,116.49735 98.414004,-8.62387 -99.164354,0 0.75035,8.62387 z"
     id="path7284" />
  <path
     inkscape:connector-curvature="0"
     style="fill:#867d86;fill-opacity:1;fill-rule:nonzero;stroke:none"
     d="m 244.16858,99.137561 12.57252,-1.10175 -4.59543,-52.615802 -110.04265,9.644138 102.06556,0 0,44.073414 z"
     id="path7286" />
  <path
     inkscape:connector-curvature="0"
     style="fill:#ffffff;fill-rule:nonzero;stroke:none"
     d="m 74.386946,70.213642 -1.92679,0 0,18.322329 1.92679,0 c 5.62079,0 9.28085,-3.6227 9.28085,-9.1688 0,-5.53422 -3.66006,-9.153529 -9.28085,-9.153529 m 2.08976,25.521909 -12.52159,0 0,-32.718089 12.52159,0 c 8.63576,0 16.095059,7.58833 16.095059,16.349709 0,8.8174 -7.420259,16.36838 -16.095059,16.36838"
     id="path7292" />
  <path
     inkscape:connector-curvature="0"
     style="fill:#ffffff;fill-rule:nonzero;stroke:none"
     d="m 148.88498,72.043671 c -0.09,0.78599 -0.13242,0.83013 -0.30727,0.83013 -0.09,0 -0.17824,-0.0441 -0.30217,-0.12563 l -0.48552,-0.39554 c -1.57029,-1.305459 -4.52923,-2.138989 -7.10111,-2.138989 -5.93995,0 -10.21623,4.016549 -10.21623,9.504929 0,5.14207 3.71098,8.8174 8.93962,8.8174 2.66865,0 6.15894,-0.87087 7.20467,-1.78928 0.0866,-0.13242 0.21899,-0.17486 0.25974,-0.17486 0.1324,0 0.17485,0.0832 0.17485,0.2139 0,0.13411 0,0.25974 -0.0425,0.47703 l -0.60434,7.11809 c 0,0.20711 -0.18504,0.43799 -0.48891,0.55852 -1.5669,0.79618 -5.14377,1.44467 -7.68,1.44467 -9.4574,0 -16.26653,-6.80403 -16.26653,-16.26992 0,-9.942919 7.84976,-17.75024 17.93528,-17.75024 2.56849,0 5.10133,0.531353 7.80732,1.655172 1.42939,0.612838 1.95565,0.998196 1.95565,1.478621 l 0,0.130716 -0.7826,6.415281"
     id="path7294" />
  <path
     inkscape:connector-curvature="0"
     style="fill:#ffffff;fill-rule:nonzero;stroke:none"
     d="m 167.60625,73.140321 -3.57686,10.42674 7.07055,0 -3.49369,-10.42674 z m 7.94313,22.59523 -2.14408,-5.67682 -11.72711,0 -2.23067,5.67682 -8.98885,0 12.57252,-32.718089 9.2435,0 12.34674,32.718089 -9.07205,0 z"
     id="path7296" />
  <path
     inkscape:connector-curvature="0"
     style="fill:#ffffff;fill-rule:nonzero;stroke:none"
     d="m 205.56657,95.735551 -18.71278,0 4.01315,-32.718089 8.28605,0 -3.13719,25.518509 10.42504,0 -0.87427,7.19958 z"
     id="path7298" />
  <path
     inkscape:connector-curvature="0"
     style="fill:#ffffff;fill-rule:nonzero;stroke:none"
     d="m 211.54895,92.812261 0,-32.71639 2.83672,0 0.47193,-1.349603 12.91883,0 -0.48212,1.349603 2.83332,0 0,7.204668 -10.07024,0 0,5.447632 9.55247,0 0,7.19618 -9.55247,0 0,5.67343 10.07024,0 0,7.19448 -18.57868,0 z"
     id="path7300" />
  <path
     inkscape:connector-curvature="0"
     style="fill:#ffffff;fill-rule:nonzero;stroke:none"
     d="m 98.384395,101.27146 0,-32.716386 2.831625,0 0.48552,-1.359787 12.90525,0 -0.47534,1.359787 2.83671,0 0,7.197877 -10.08381,0 0,5.44764 9.56095,0 0,7.19788 -9.56095,0 0,5.67002 10.08381,0 0,7.202969 -18.583765,0 z"
     id="path7302" />
  <g
     id="#ffffffff"
     transform="translate(-0.53278064,-28.295419)">
    <path
       d="m 21.07,38.24 c 6.48,-3.13 14.03,-1.97 20.44,0.72 0.14,2.01 0.05,4.03 -0.57,5.96 -0.14,0.72 -0.41,2.17 -0.55,2.89 -4.36,-2.77 -10.17,-4.19 -14.92,-1.55 -3.96,2.03 -5.28,6.83 -4.88,10.98 1.04,2.8 2.95,5.41 5.86,6.45 3.74,1.59 7.79,0.26 11.36,-1.11 -0.55,2.94 -1.11,5.88 -1.6,8.83 -6.65,2.37 -15.04,1.95 -20.26,-3.29 -5.32,-4.78 -5.94,-12.76 -4.17,-19.31 1.62,-4.53 4.77,-8.65 9.29,-10.57 z"
       id="path15"
       inkscape:connector-curvature="0"
       style="fill:#ffffff" />
    <path
       d="m 49.23,51.12 c 1.99,-4.58 4.6,-8.85 6.65,-13.41 3.81,-0.03 7.62,-0.02 11.43,-0.02 1.26,5.47 2.53,10.95 3.52,16.49 0.45,1.9 0.78,3.83 1.22,5.73 0.74,3.97 1.66,7.9 2.5,11.84 -2.97,0.02 -5.94,0.02 -8.92,-0.03 -0.45,-2.01 -0.96,-4 -1.41,-6 -3.97,-0.01 -7.94,0.06 -11.91,-0.08 -1.18,1.95 -2.19,4 -3.06,6.11 -3.4,0.02 -6.81,0.02 -10.21,-0.02 0.92,-1.94 1.86,-3.87 2.76,-5.82 2.38,-4.98 5.05,-9.81 7.43,-14.79 m 8.01,2.98 c -0.58,1.48 -1.18,2.96 -2.13,4.26 2.53,0.09 5.06,0.13 7.59,0.11 -0.72,-3.75 -1.64,-7.46 -2.49,-11.18 -1.02,2.26 -2.09,4.49 -2.97,6.81 z"
       id="path19"
       inkscape:connector-curvature="0"
       style="fill:#ffffff" />
    <path
       d="m 83.33,37.68 c 3.28,0.01 6.56,0.01 9.83,0.01 3.83,6.48 7.43,13.1 11.27,19.57 1.2,-6.49 1.81,-13.07 2.99,-19.56 3.04,0.01 6.08,0.02 9.12,0.04 -0.12,1.46 -0.26,2.92 -0.42,4.38 -0.63,2.29 -0.69,4.67 -0.95,7.02 -1.19,7.52 -2.14,15.09 -3.26,22.63 -3.12,0.01 -6.24,0 -9.35,0.03 -3.74,-7.19 -8.12,-14.02 -11.78,-21.25 -1.24,7.05 -2.19,14.15 -3.3,21.22 -3.02,-0.01 -6.04,0 -9.07,-0.05 0.14,-1.54 0.39,-3.07 0.73,-4.58 1.1,-9.86 2.63,-19.67 4.19,-29.46 z"
       id="path21"
       inkscape:connector-curvature="0"
       style="fill:#ffffff" />
    <path
       d="m 115.99,71.71 c 5.66,-11.35 11.47,-22.6 17,-34.01 3.78,-0.02 7.55,-0.02 11.33,0 0.23,1.08 0.48,2.15 0.76,3.22 1.89,10.33 4.44,20.53 6.48,30.83 -3.01,0.05 -6.02,0.05 -9.02,0.05 -0.48,-2.05 -0.96,-4.09 -1.43,-6.14 -4.03,-0.02 -8.06,-0.07 -12.09,0.06 -0.83,2.05 -1.76,4.05 -2.7,6.06 -3.44,0 -6.88,0.03 -10.33,-0.07 m 16.35,-13.22 c 2.44,0.02 4.87,0 7.31,-0.03 -0.78,-3.78 -1.5,-7.59 -2.51,-11.32 -1.25,3.93 -3.19,7.57 -4.8,11.35 z"
       id="path23"
       inkscape:connector-curvature="0"
       style="fill:#ffffff" />
    <path
       d="m 158.83,46.85 c 0.94,-3.02 0.33,-6.33 1.65,-9.24 3.11,0.11 6.22,0.08 9.33,0.09 -1.21,8.83 -2.7,17.63 -3.48,26.5 3.43,0 6.85,-0.04 10.27,0.1 -0.39,2.49 -0.78,4.98 -1.11,7.48 -6.73,-0.01 -13.45,0.04 -20.17,-0.03 1.18,-8.3 2.64,-16.57 3.51,-24.9 z"
       id="path25"
       inkscape:connector-curvature="0"
       style="fill:#ffffff" />
  </g>
  <g
     id="#ffdc00ff"
     transform="translate(-0.53278064,-28.295419)" />
  <g
     id="#ee7f00ff"
     transform="translate(-0.53278064,-28.295419)" />
  <g
     id="#faba00ff"
     transform="translate(-0.53278064,-28.295419)" />
  <g
     id="#000000ff"
     transform="translate(-0.9672,-28)">
    <path
       d="m 0.97,28 c 67.08,0 134.15,0 201.22,0 3.29,0 6.57,0 9.86,0 2.98,0 5.96,0 8.95,0 0,12.26 0,24.52 0,36.78 0,2.71 0,5.42 0,8.12 0,3.38 0,6.75 0,10.13 C 147.66,83.02 74.32,83.03 0.98,83.02 0.98,64.68 0.96,46.34 0.97,28 m 20.1,10.24 c -4.52,1.92 -7.67,6.04 -9.29,10.57 -1.77,6.55 -1.15,14.53 4.17,19.31 5.22,5.24 13.61,5.66 20.26,3.29 0.49,-2.95 1.05,-5.89 1.6,-8.83 -3.57,1.37 -7.62,2.7 -11.36,1.11 -2.91,-1.04 -4.82,-3.65 -5.86,-6.45 -0.4,-4.15 0.92,-8.95 4.88,-10.98 4.75,-2.64 10.56,-1.22 14.92,1.55 0.14,-0.72 0.41,-2.17 0.55,-2.89 0.62,-1.93 0.71,-3.95 0.57,-5.96 C 35.1,36.27 27.55,35.11 21.07,38.24 m 168.61,1.619923 c 0.06,1.85 0.024,1.310077 0.086,3.140077 0.08,1.79 0.004,3.62 0.014,5.44 -4.22,0.02 -8.43,0.01 -12.65,0.02 -0.02,3.35 -0.02,6.7 0.03,10.06 4.18,-0.01 8.35,-0.02 12.53,0.01 0.12,0.61 -0.014,2.031994 0.11601,2.641994 0.008,3.5 0.15399,6.918006 -0.006,10.468006 3.41,0.17 6.83,0.13 10.24,0.11 0.02,-4.41 0,-8.82 0.03,-13.23 4.15,-0.02 8.29,0 12.44,-0.02 0.04,-3.38 0.04,-6.76 0.02,-10.15 -4.16,-0.03 -8.32,-0.01 -12.48,-0.02 0,-3.83 0.09,-7.66 -0.17,-11.49 -3.4,0.15 -6.804,0.145982 -10.2,0.04402 M 49.23,51.12 c -2.38,4.98 -5.05,9.81 -7.43,14.79 -0.9,1.95 -1.84,3.88 -2.76,5.82 3.4,0.04 6.81,0.04 10.21,0.02 0.87,-2.11 1.88,-4.16 3.06,-6.11 3.97,0.14 7.94,0.07 11.91,0.08 0.45,2 0.96,3.99 1.41,6 2.98,0.05 5.95,0.05 8.92,0.03 -0.84,-3.94 -1.76,-7.87 -2.5,-11.84 -0.44,-1.9 -0.77,-3.83 -1.22,-5.73 -0.99,-5.54 -2.26,-11.02 -3.52,-16.49 -3.81,0 -7.62,-0.01 -11.43,0.02 -2.05,4.56 -4.66,8.83 -6.65,13.41 m 34.1,-13.44 c -1.56,9.79 -3.09,19.6 -4.19,29.46 -0.34,1.51 -0.59,3.04 -0.73,4.58 3.03,0.05 6.05,0.04 9.07,0.05 1.11,-7.07 2.06,-14.17 3.3,-21.22 3.66,7.23 8.04,14.06 11.78,21.25 3.11,-0.03 6.23,-0.02 9.35,-0.03 1.12,-7.54 2.07,-15.11 3.26,-22.63 0.26,-2.35 0.32,-4.73 0.95,-7.02 0.16,-1.46 0.3,-2.92 0.42,-4.38 -3.04,-0.02 -6.08,-0.03 -9.12,-0.04 -1.18,6.49 -1.79,13.07 -2.99,19.56 -3.84,-6.47 -7.44,-13.09 -11.27,-19.57 -3.27,0 -6.55,0 -9.83,-0.01 m 32.66,34.03 c 3.45,0.1 6.89,0.07 10.33,0.07 0.94,-2.01 1.87,-4.01 2.7,-6.06 4.03,-0.13 8.06,-0.08 12.09,-0.06 0.47,2.05 0.95,4.09 1.43,6.14 3,0 6.01,0 9.02,-0.05 -2.04,-10.3 -4.59,-20.5 -6.48,-30.83 -0.28,-1.07 -0.53,-2.14 -0.76,-3.22 -3.78,-0.02 -7.55,-0.02 -11.33,0 -5.53,11.41 -11.34,22.66 -17,34.01 m 42.84,-24.86 c -0.87,8.33 -2.33,16.6 -3.51,24.9 6.72,0.07 13.44,0.02 20.17,0.03 0.33,-2.5 0.72,-4.99 1.11,-7.48 -3.42,-0.14 -6.84,-0.1 -10.27,-0.1 0.78,-8.87 2.27,-17.67 3.48,-26.5 -3.11,-0.01 -6.22,0.02 -9.33,-0.09 -1.32,2.91 -0.71,6.22 -1.65,9.24 z"
       id="path43"
       inkscape:connector-curvature="0"
       style="fill:#000000"
       sodipodi:nodetypes="csscssccccccccccccccccccccccccccccccccccccccccccccccccccccccccccccccccccccccccccc" />
    <path
       d="m 57.24,54.1 c 0.88,-2.32 1.95,-4.55 2.97,-6.81 0.85,3.72 1.77,7.43 2.49,11.18 -2.53,0.02 -5.06,-0.02 -7.59,-0.11 0.95,-1.3 1.55,-2.78 2.13,-4.26 z"
       id="path45"
       inkscape:connector-curvature="0"
       style="fill:#000000" />
    <path
       d="m 132.34,58.49 c 1.61,-3.78 3.55,-7.42 4.8,-11.35 1.01,3.73 1.73,7.54 2.51,11.32 -2.44,0.03 -4.87,0.05 -7.31,0.03 z"
       id="path47"
       inkscape:connector-curvature="0"
       style="fill:#000000" />
  </g>
</svg>
