<?xml version="1.0" encoding="UTF-8" ?>
<!DOCTYPE svg PUBLIC "-//W3C//DTD SVG 1.1//EN" "http://www.w3.org/Graphics/SVG/1.1/DTD/svg11.dtd">
<svg width="680pt" height="150pt" viewBox="0 0 680 150" version="1.1" xmlns="http://www.w3.org/2000/svg">
<g id="#ffffffff">
<path fill="#ffffff" opacity="1.00" d=" M 637.23 7.46 C 644.57 7.47 651.90 7.47 659.23 7.46 C 658.99 8.24 658.76 9.01 658.53 9.79 C 660.13 9.80 661.73 9.80 663.35 9.81 C 663.35 13.92 663.36 18.02 663.35 22.13 C 657.58 22.14 651.82 22.13 646.07 22.13 C 646.04 25.25 646.05 28.36 646.08 31.48 C 651.54 31.46 657.00 31.46 662.47 31.47 C 662.47 35.58 662.47 39.69 662.46 43.80 C 656.99 43.80 651.53 43.80 646.07 43.80 C 646.04 47.03 646.05 50.25 646.08 53.47 C 651.83 53.46 657.59 53.46 663.35 53.47 C 663.35 57.58 663.36 61.69 663.35 65.80 C 652.74 65.80 642.14 65.79 631.54 65.81 C 631.51 47.14 631.53 28.48 631.54 9.82 C 633.13 9.80 634.75 9.79 636.36 9.78 C 636.58 9.20 637.02 8.04 637.23 7.46 Z" />
<path fill="#ffffff" opacity="1.00" d=" M 484.42 25.39 C 492.20 15.07 506.77 11.13 518.88 15.30 C 521.14 16.23 524.14 16.67 525.50 18.87 C 525.23 23.22 524.47 27.52 523.98 31.84 C 516.63 26.00 504.86 25.13 497.67 31.67 C 490.82 37.73 490.97 50.13 498.57 55.52 C 505.18 60.17 514.38 58.80 521.10 55.05 C 520.69 59.72 520.29 64.40 519.90 69.07 C 507.04 74.91 489.36 71.88 482.01 58.95 C 475.99 48.64 477.07 34.76 484.42 25.39 Z" />
<path fill="#ffffff" opacity="1.00" d=" M 378.77 14.81 C 386.52 14.87 394.27 14.65 402.01 14.89 C 416.50 15.73 428.59 29.62 427.71 44.06 C 427.23 58.34 414.39 71.00 400.00 70.80 C 392.92 70.82 385.85 70.79 378.77 70.80 C 378.76 67.20 378.76 63.60 378.77 60.00 C 378.77 44.93 378.75 29.87 378.77 14.81 M 393.35 27.04 C 393.36 37.53 393.33 48.01 393.37 58.50 C 397.43 58.53 401.77 58.49 405.36 56.30 C 414.88 50.93 414.97 34.93 405.58 29.39 C 401.95 27.08 397.50 27.09 393.35 27.04 Z" />
<path fill="#ffffff" opacity="1.00" d=" M 526.92 70.80 C 534.19 52.11 541.09 33.26 548.64 14.69 C 553.84 14.92 559.04 14.76 564.25 14.79 C 571.33 33.45 578.34 52.13 585.39 70.79 C 580.22 70.81 575.05 70.80 569.88 70.80 C 568.64 67.56 567.42 64.31 566.18 61.07 C 559.49 61.07 552.81 61.07 546.12 61.07 C 544.85 64.28 543.57 67.49 542.37 70.74 C 537.22 70.87 532.07 70.78 526.92 70.80 M 550.10 49.77 C 554.13 50.09 558.18 49.88 562.23 49.93 C 560.25 43.99 558.26 38.05 556.26 32.12 C 554.19 38.00 552.32 43.95 550.10 49.77 Z" />
<path fill="#ffffff" opacity="1.00" d=" M 596.10 14.80 C 600.82 14.80 605.54 14.80 610.27 14.81 C 608.57 29.38 606.56 43.92 605.00 58.51 C 610.92 58.42 616.83 58.48 622.75 58.47 C 622.27 62.58 621.77 66.69 621.27 70.80 C 610.58 70.79 599.89 70.83 589.20 70.78 C 591.54 52.12 593.78 33.46 596.10 14.80 Z" />
<path fill="#ffffff" opacity="1.00" d=" M 443.45 21.95 C 450.79 21.91 458.12 21.93 465.46 21.94 C 465.28 22.52 464.92 23.68 464.74 24.26 C 466.33 24.26 467.93 24.27 469.53 24.28 C 469.53 28.38 469.53 32.49 469.53 36.59 C 463.79 36.60 458.05 36.60 452.32 36.59 C 452.29 39.70 452.28 42.81 452.29 45.92 C 457.74 45.95 463.19 45.92 468.64 45.94 C 468.62 50.07 468.72 54.20 468.56 58.32 C 463.14 58.21 457.72 58.28 452.30 58.27 C 452.29 61.49 452.29 64.71 452.29 67.92 C 458.04 67.95 463.78 67.91 469.53 67.95 C 469.53 72.06 469.54 76.16 469.51 80.27 C 458.91 80.26 448.31 80.28 437.71 80.26 C 437.71 61.59 437.69 42.92 437.72 24.25 C 439.29 24.27 440.86 24.29 442.44 24.31 C 442.69 23.72 443.20 22.54 443.45 21.95 Z" />
<path fill="#ffffff" opacity="1.00" d=" M 19.12 59.15 C 23.79 48.97 35.04 42.87 46.03 42.87 C 53.16 42.85 60.81 44.14 66.57 48.62 C 65.54 53.01 64.86 57.46 63.91 61.87 C 57.06 57.26 47.75 54.94 40.09 58.97 C 30.19 63.81 28.61 79.92 38.00 86.08 C 44.59 90.35 52.97 88.74 59.76 85.80 C 58.98 90.60 58.17 95.40 57.22 100.17 C 48.91 103.45 39.24 103.55 31.07 99.81 C 24.84 97.02 19.79 91.63 17.58 85.15 C 14.54 76.74 15.19 67.16 19.12 59.15 Z" />
<path fill="#ffffff" opacity="1.00" d=" M 308.41 43.99 C 313.83 43.88 319.26 43.94 324.69 43.95 C 324.72 50.19 324.70 56.42 324.70 62.65 C 331.58 62.70 338.45 62.63 345.33 62.69 C 345.36 68.17 345.39 73.64 345.31 79.11 C 338.46 79.17 331.62 79.10 324.78 79.15 C 324.60 86.41 324.77 93.66 324.69 100.91 C 319.27 100.94 313.85 100.95 308.43 100.91 C 308.35 93.65 308.49 86.39 308.35 79.14 C 301.35 79.02 294.33 79.37 287.34 78.94 C 287.56 73.54 287.22 68.14 287.54 62.74 C 294.49 62.87 301.44 62.77 308.39 62.80 C 308.44 56.53 308.40 50.26 308.41 43.99 Z" />
<path fill="#ffffff" opacity="1.00" d=" M 89.32 45.09 C 95.54 45.07 101.77 45.02 108.00 45.11 C 111.95 63.69 115.93 82.25 119.85 100.83 C 115.03 100.94 110.22 100.96 105.40 100.91 C 104.61 97.68 103.82 94.44 103.04 91.20 C 96.39 91.21 89.74 91.16 83.09 91.24 C 81.49 94.39 80.02 97.60 78.55 100.81 C 72.92 100.93 67.29 100.86 61.66 100.85 C 70.74 82.20 80.12 63.69 89.32 45.09 M 88.44 78.97 C 92.42 79.01 96.39 78.98 100.37 79.04 C 99.05 73.01 97.70 67.00 96.35 60.98 C 93.69 66.97 91.01 72.95 88.44 78.97 Z" />
<path fill="#ffffff" opacity="1.00" d=" M 133.96 45.18 C 139.34 45.06 144.72 45.22 150.10 45.07 C 156.49 55.54 162.08 66.50 168.58 76.90 C 170.33 66.34 171.66 55.72 173.30 45.14 C 178.41 45.19 183.52 45.25 188.63 45.30 C 186.03 63.86 183.37 82.42 180.70 100.98 C 175.72 101.04 170.74 100.95 165.76 101.04 C 159.05 89.65 153.04 77.83 146.04 66.63 C 144.27 78.02 142.82 89.46 141.08 100.86 C 136.12 100.84 131.16 100.94 126.21 100.79 C 128.69 82.24 131.31 63.71 133.96 45.18 Z" />
<path fill="#ffffff" opacity="1.00" d=" M 215.31 45.19 C 221.49 44.94 227.68 45.09 233.86 45.11 C 237.78 63.77 241.63 82.44 245.49 101.11 C 240.57 101.15 235.65 101.14 230.73 101.11 C 230.03 97.78 229.27 94.46 228.62 91.12 C 222.08 90.71 215.53 91.02 208.99 90.95 C 207.37 94.28 205.82 97.66 204.22 101.00 C 198.63 100.99 193.03 101.01 187.44 100.99 C 196.67 82.36 206.13 63.84 215.31 45.19 M 214.30 79.08 C 218.30 79.11 222.30 79.04 226.31 79.06 C 225.01 72.96 223.70 66.86 222.36 60.77 C 219.66 66.87 216.90 72.94 214.30 79.08 Z" />
<path fill="#ffffff" opacity="1.00" d=" M 251.83 100.95 C 254.31 82.30 257.09 63.68 259.81 45.06 C 265.03 45.09 270.26 45.02 275.48 45.11 C 273.52 59.52 271.45 73.92 269.52 88.33 C 275.19 88.48 280.86 88.33 286.53 88.44 C 286.04 92.63 285.44 96.80 284.86 100.98 C 273.85 101.00 262.84 101.05 251.83 100.95 Z" />
</g>
<g id="#f57115ff">
<path fill="#f57115" opacity="1.00" d=" M 320.00 0.00 L 680.00 0.00 L 680.00 90.00 C 586.67 90.00 493.33 90.00 400.00 90.00 C 400.00 83.60 400.00 77.20 400.00 70.80 C 414.39 71.00 427.23 58.34 427.71 44.06 C 428.59 29.62 416.50 15.73 402.01 14.89 C 394.27 14.65 386.52 14.87 378.77 14.81 C 378.75 29.87 378.77 44.93 378.77 60.00 C 372.51 60.00 366.25 60.00 360.00 60.00 C 360.00 50.00 360.01 40.00 360.00 30.00 C 346.66 30.00 333.33 30.00 320.00 30.00 C 320.00 20.00 320.00 10.00 320.00 0.00 M 637.23 7.46 C 637.02 8.04 636.58 9.20 636.36 9.78 C 634.75 9.79 633.13 9.80 631.54 9.82 C 631.53 28.48 631.51 47.14 631.54 65.81 C 642.14 65.79 652.74 65.80 663.35 65.80 C 663.36 61.69 663.35 57.58 663.35 53.47 C 657.59 53.46 651.83 53.46 646.08 53.47 C 646.05 50.25 646.04 47.03 646.07 43.80 C 651.53 43.80 656.99 43.80 662.46 43.80 C 662.47 39.69 662.47 35.58 662.47 31.47 C 657.00 31.46 651.54 31.46 646.08 31.48 C 646.05 28.36 646.04 25.25 646.07 22.13 C 651.82 22.13 657.58 22.14 663.35 22.13 C 663.36 18.02 663.35 13.92 663.35 9.81 C 661.73 9.80 660.13 9.80 658.53 9.79 C 658.76 9.01 658.99 8.24 659.23 7.46 C 651.90 7.47 644.57 7.47 637.23 7.46 M 484.42 25.39 C 477.07 34.76 475.99 48.64 482.01 58.95 C 489.36 71.88 507.04 74.91 519.90 69.07 C 520.29 64.40 520.69 59.72 521.10 55.05 C 514.38 58.80 505.18 60.17 498.57 55.52 C 490.97 50.13 490.82 37.73 497.67 31.67 C 504.86 25.13 516.63 26.00 523.98 31.84 C 524.47 27.52 525.23 23.22 525.50 18.87 C 524.14 16.67 521.14 16.23 518.88 15.30 C 506.77 11.13 492.20 15.07 484.42 25.39 M 526.92 70.80 C 532.07 70.78 537.22 70.87 542.37 70.74 C 543.57 67.49 544.85 64.28 546.12 61.07 C 552.81 61.07 559.49 61.07 566.18 61.07 C 567.42 64.31 568.64 67.56 569.88 70.80 C 575.05 70.80 580.22 70.81 585.39 70.79 C 578.34 52.13 571.33 33.45 564.25 14.79 C 559.04 14.76 553.84 14.92 548.64 14.69 C 541.09 33.26 534.19 52.11 526.92 70.80 M 596.10 14.80 C 593.78 33.46 591.54 52.12 589.20 70.78 C 599.89 70.83 610.58 70.79 621.27 70.80 C 621.77 66.69 622.27 62.58 622.75 58.47 C 616.83 58.48 610.92 58.42 605.00 58.51 C 606.56 43.92 608.57 29.38 610.27 14.81 C 605.54 14.80 600.82 14.80 596.10 14.80 M 443.45 21.95 C 443.20 22.54 442.69 23.72 442.44 24.31 C 440.86 24.29 439.29 24.27 437.72 24.25 C 437.69 42.92 437.71 61.59 437.71 80.26 C 448.31 80.28 458.91 80.26 469.51 80.27 C 469.54 76.16 469.53 72.06 469.53 67.95 C 463.78 67.91 458.04 67.95 452.29 67.92 C 452.29 64.71 452.29 61.49 452.30 58.27 C 457.72 58.28 463.14 58.21 468.56 58.32 C 468.72 54.20 468.62 50.07 468.64 45.94 C 463.19 45.92 457.74 45.95 452.29 45.92 C 452.28 42.81 452.29 39.70 452.32 36.59 C 458.05 36.60 463.79 36.60 469.53 36.59 C 469.53 32.49 469.53 28.38 469.53 24.28 C 467.93 24.27 466.33 24.26 464.74 24.26 C 464.92 23.68 465.28 22.52 465.46 21.94 C 458.12 21.93 450.79 21.91 443.45 21.95 Z" />
<path fill="#f57115" opacity="1.00" d=" M 393.35 27.04 C 397.50 27.09 401.95 27.08 405.58 29.39 C 414.97 34.93 414.88 50.93 405.36 56.30 C 401.77 58.49 397.43 58.53 393.37 58.50 C 393.33 48.01 393.36 37.53 393.35 27.04 Z" />
<path fill="#f57115" opacity="1.00" d=" M 550.10 49.77 C 552.32 43.95 554.19 38.00 556.26 32.12 C 558.26 38.05 560.25 43.99 562.23 49.93 C 558.18 49.88 554.13 50.09 550.10 49.77 Z" />
</g>
<g id="#221e1fff">
<path fill="#221e1f" opacity="1.00" d=" M 0.00 30.00 C 106.67 30.00 213.33 30.00 320.00 30.00 C 333.33 30.00 346.66 30.00 360.00 30.00 C 360.01 40.00 360.00 50.00 360.00 60.00 C 360.00 70.00 360.00 80.00 360.00 90.00 C 359.99 100.00 360.01 110.00 359.99 120.00 C 333.33 120.01 306.67 120.00 280.00 120.00 C 186.67 120.00 93.33 120.00 0.00 120.00 L 0.00 30.00 M 19.12 59.15 C 15.19 67.16 14.54 76.74 17.58 85.15 C 19.79 91.63 24.84 97.02 31.07 99.81 C 39.24 103.55 48.91 103.45 57.22 100.17 C 58.17 95.40 58.98 90.60 59.76 85.80 C 52.97 88.74 44.59 90.35 38.00 86.08 C 28.61 79.92 30.19 63.81 40.09 58.97 C 47.75 54.94 57.06 57.26 63.91 61.87 C 64.86 57.46 65.54 53.01 66.57 48.62 C 60.81 44.14 53.16 42.85 46.03 42.87 C 35.04 42.87 23.79 48.97 19.12 59.15 M 308.41 43.99 C 308.40 50.26 308.44 56.53 308.39 62.80 C 301.44 62.77 294.49 62.87 287.54 62.74 C 287.22 68.14 287.56 73.54 287.34 78.94 C 294.33 79.37 301.35 79.02 308.35 79.14 C 308.49 86.39 308.35 93.65 308.43 100.91 C 313.85 100.95 319.27 100.94 324.69 100.91 C 324.77 93.66 324.60 86.41 324.78 79.15 C 331.62 79.10 338.46 79.17 345.31 79.11 C 345.39 73.64 345.36 68.17 345.33 62.69 C 338.45 62.63 331.58 62.70 324.70 62.65 C 324.70 56.42 324.72 50.19 324.69 43.95 C 319.26 43.94 313.83 43.88 308.41 43.99 M 89.32 45.09 C 80.12 63.69 70.74 82.20 61.66 100.85 C 67.29 100.86 72.92 100.93 78.55 100.81 C 80.02 97.60 81.49 94.39 83.09 91.24 C 89.74 91.16 96.39 91.21 103.04 91.20 C 103.82 94.44 104.61 97.68 105.40 100.91 C 110.22 100.96 115.03 100.94 119.85 100.83 C 115.93 82.25 111.95 63.69 108.00 45.11 C 101.77 45.02 95.54 45.07 89.32 45.09 M 133.96 45.18 C 131.31 63.71 128.69 82.24 126.21 100.79 C 131.16 100.94 136.12 100.84 141.08 100.86 C 142.82 89.46 144.27 78.02 146.04 66.63 C 153.04 77.83 159.05 89.65 165.76 101.04 C 170.74 100.95 175.72 101.04 180.70 100.98 C 183.37 82.42 186.03 63.86 188.63 45.30 C 183.52 45.25 178.41 45.19 173.30 45.14 C 171.66 55.72 170.33 66.34 168.58 76.90 C 162.08 66.50 156.49 55.54 150.10 45.07 C 144.72 45.22 139.34 45.06 133.96 45.18 M 215.31 45.19 C 206.13 63.84 196.67 82.36 187.44 100.99 C 193.03 101.01 198.63 100.99 204.22 101.00 C 205.82 97.66 207.37 94.28 208.99 90.95 C 215.53 91.02 222.08 90.71 228.62 91.12 C 229.27 94.46 230.03 97.78 230.73 101.11 C 235.65 101.14 240.57 101.15 245.49 101.11 C 241.63 82.44 237.78 63.77 233.86 45.11 C 227.68 45.09 221.49 44.94 215.31 45.19 M 251.83 100.95 C 262.84 101.05 273.85 101.00 284.86 100.98 C 285.44 96.80 286.04 92.63 286.53 88.44 C 280.86 88.33 275.19 88.48 269.52 88.33 C 271.45 73.92 273.52 59.52 275.48 45.11 C 270.26 45.02 265.03 45.09 259.81 45.06 C 257.09 63.68 254.31 82.30 251.83 100.95 Z" />
<path fill="#221e1f" opacity="1.00" d=" M 88.44 78.97 C 91.01 72.95 93.69 66.97 96.35 60.98 C 97.70 67.00 99.05 73.01 100.37 79.04 C 96.39 78.98 92.42 79.01 88.44 78.97 Z" />
<path fill="#221e1f" opacity="1.00" d=" M 214.30 79.08 C 216.90 72.94 219.66 66.87 222.36 60.77 C 223.70 66.86 225.01 72.96 226.31 79.06 C 222.30 79.04 218.30 79.11 214.30 79.08 Z" />
</g>
<g id="#6d140dff">
<path fill="#6d140d" opacity="1.00" d=" M 360.00 60.00 C 366.25 60.00 372.51 60.00 378.77 60.00 C 378.76 63.60 378.76 67.20 378.77 70.80 C 385.85 70.79 392.92 70.82 400.00 70.80 C 400.00 77.20 400.00 83.60 400.00 90.00 C 386.67 90.00 373.33 90.00 360.00 90.00 C 360.00 80.00 360.00 70.00 360.00 60.00 Z" />
</g>
<g id="#8f8580ff">
<path fill="#8f8580" opacity="1.00" d=" M 360.00 90.00 C 373.33 90.00 386.67 90.00 400.00 90.00 C 400.00 110.00 400.00 130.00 400.00 150.00 L 280.00 150.00 C 280.01 140.00 280.00 130.00 280.00 120.00 C 306.67 120.00 333.33 120.01 359.99 120.00 C 360.01 110.00 359.99 100.00 360.00 90.00 Z" />
</g>
</svg>
