<?xml version="1.0" encoding="UTF-8" ?>
<!DOCTYPE svg PUBLIC "-//W3C//DTD SVG 1.1//EN" "http://www.w3.org/Graphics/SVG/1.1/DTD/svg11.dtd">
<svg width="698pt" height="151pt" viewBox="0 0 698 151" version="1.1" xmlns="http://www.w3.org/2000/svg">
<g id="#f57115ff">
<path fill="#f57115" opacity="1.00" d=" M 362.41 0.00 L 442.56 0.00 C 443.01 10.15 443.20 20.38 442.43 30.51 C 437.78 21.94 428.94 15.33 418.99 14.96 C 411.35 14.72 403.71 14.94 396.06 14.87 C 396.06 16.95 396.05 19.02 396.06 21.10 C 385.80 19.05 375.56 16.90 365.27 14.99 C 364.55 14.85 363.12 14.55 362.40 14.41 C 362.42 9.61 362.41 4.80 362.41 0.00 Z" />
<path fill="#f57115" opacity="1.00" d=" M 629.53 0.00 L 698.00 0.00 L 698.00 81.09 C 689.80 79.99 681.79 77.86 673.63 76.54 C 672.62 76.36 671.62 76.16 670.63 75.96 C 660.59 73.68 650.44 71.91 640.37 69.77 C 640.87 66.14 641.24 62.50 641.68 58.87 C 635.70 58.86 629.71 58.87 623.73 58.86 C 625.52 44.20 627.35 29.54 629.13 14.87 C 628.42 14.87 626.99 14.87 626.28 14.87 C 627.40 9.92 628.02 4.85 629.53 0.00 M 656.35 7.56 C 656.03 10.81 652.76 9.72 650.53 9.91 C 650.53 28.70 650.52 47.48 650.54 66.26 C 661.20 66.27 671.86 66.26 682.52 66.27 C 682.51 62.11 682.62 57.96 682.42 53.81 C 676.67 53.92 670.92 53.85 665.18 53.86 C 665.17 50.60 665.17 47.34 665.18 44.07 C 670.66 44.06 676.15 44.07 681.64 44.06 C 681.65 39.93 681.65 35.80 681.64 31.67 C 676.15 31.66 670.67 31.67 665.18 31.67 C 665.17 28.53 665.17 25.40 665.18 22.27 C 670.96 22.26 676.74 22.27 682.52 22.26 C 682.53 18.13 682.53 14.00 682.52 9.87 C 680.91 9.87 679.30 9.87 677.70 9.87 C 677.88 9.28 678.25 8.12 678.44 7.54 C 671.07 7.55 663.71 7.50 656.35 7.56 Z" />
<path fill="#f57115" opacity="1.00" d=" M 442.99 60.56 C 447.13 60.54 451.27 60.54 455.41 60.57 C 455.41 67.31 455.41 74.05 455.41 80.79 C 466.10 80.80 476.78 80.81 487.47 80.79 C 487.47 76.66 487.47 72.54 487.47 68.41 C 481.66 68.39 475.86 68.41 470.06 68.40 C 470.05 66.92 470.05 65.45 470.06 63.98 C 481.19 63.98 492.33 63.96 503.46 63.99 C 505.53 66.06 507.90 67.80 510.45 69.22 C 508.93 76.37 506.99 83.42 505.50 90.58 C 484.65 90.62 463.80 90.59 442.96 90.60 C 443.01 80.59 442.95 70.58 442.99 60.56 Z" />
<path fill="#f57115" opacity="1.00" d=" M 382.54 90.83 C 402.67 90.86 422.80 90.83 442.94 90.84 C 442.94 110.90 442.94 130.95 442.94 151.00 L 322.12 151.00 C 322.12 140.93 322.12 130.87 322.12 120.80 C 342.26 120.79 362.39 120.82 382.53 120.79 C 382.53 110.80 382.52 100.82 382.54 90.83 Z" />
</g>
<g id="#ee1c23ff">
<path fill="#ee1c23" opacity="1.00" d=" M 442.56 0.00 L 527.12 0.00 C 525.83 4.58 524.87 9.24 523.75 13.87 C 509.62 15.00 497.40 26.93 496.22 41.10 C 489.38 39.65 482.51 38.37 475.68 36.86 C 479.61 36.82 483.54 36.78 487.47 36.79 C 487.47 32.66 487.47 28.54 487.47 24.41 C 485.86 24.40 484.24 24.40 482.65 24.40 C 482.82 23.81 483.17 22.65 483.34 22.06 C 475.98 22.06 468.61 22.09 461.25 22.05 C 460.99 22.64 460.48 23.81 460.22 24.40 C 458.61 24.40 457.01 24.40 455.41 24.41 C 455.41 27.25 455.41 30.09 455.41 32.93 C 451.11 31.99 446.80 31.10 442.43 30.51 C 443.20 20.38 443.01 10.15 442.56 0.00 Z" />
<path fill="#ee1c23" opacity="1.00" d=" M 362.41 14.61 C 363.12 14.71 364.55 14.90 365.27 14.99 C 375.56 16.90 385.80 19.05 396.06 21.10 C 396.06 34.13 396.06 47.16 396.06 60.20 C 391.55 60.12 387.04 60.10 382.54 60.18 C 382.51 50.19 382.54 40.20 382.53 30.21 C 375.82 30.19 369.12 30.21 362.42 30.20 C 362.41 25.00 362.41 19.81 362.41 14.61 Z" />
<path fill="#ee1c23" opacity="1.00" d=" M 410.68 27.29 C 414.99 27.21 419.61 27.28 423.34 29.75 C 432.57 35.51 432.32 51.45 422.73 56.75 C 419.11 58.89 414.78 58.91 410.71 58.90 C 410.68 48.37 410.74 37.83 410.68 27.29 Z" />
<path fill="#ee1c23" opacity="1.00" d=" M 510.67 43.92 C 510.58 37.57 514.34 31.55 520.12 28.91 C 518.82 34.30 517.60 39.72 516.20 45.09 C 514.35 44.70 512.51 44.31 510.67 43.92 Z" />
<path fill="#ee1c23" opacity="1.00" d=" M 537.81 69.68 C 538.37 67.84 538.47 65.90 538.65 64.00 C 541.76 64.00 544.87 64.00 547.99 64.00 C 547.06 66.42 546.13 68.84 545.21 71.26 C 550.37 71.27 555.54 71.28 560.71 71.26 C 561.64 68.84 562.59 66.42 563.54 64.00 C 570.92 64.01 578.31 63.99 585.70 64.01 C 586.60 66.46 587.55 68.89 588.53 71.31 C 593.71 71.24 598.89 71.28 604.08 71.26 C 603.17 68.84 602.25 66.43 601.34 64.01 C 603.83 64.01 606.32 64.01 608.83 64.01 C 608.52 66.43 608.22 68.84 607.94 71.26 C 618.66 71.23 629.38 71.34 640.11 71.22 C 640.17 70.86 640.30 70.13 640.37 69.77 C 650.44 71.91 660.59 73.68 670.63 75.96 C 671.32 76.18 672.71 76.62 673.40 76.85 C 673.41 81.43 673.40 86.02 673.39 90.61 C 617.43 90.58 561.46 90.63 505.50 90.58 C 506.99 83.42 508.93 76.37 510.45 69.22 C 518.90 73.44 529.19 73.26 537.81 69.68 Z" />
<path fill="#ee1c23" opacity="1.00" d=" M 673.63 76.54 C 681.79 77.86 689.80 79.99 698.00 81.09 L 698.00 90.60 C 689.87 90.60 681.73 90.59 673.60 90.61 C 673.65 85.92 673.64 81.23 673.63 76.54 Z" />
</g>
<g id="#6d150dff">
<path fill="#6d150d" opacity="1.00" d=" M 527.12 0.00 L 629.53 0.00 C 628.02 4.85 627.40 9.92 626.28 14.87 C 622.47 14.86 618.66 14.87 614.86 14.87 C 612.83 31.25 610.83 47.63 608.83 64.01 C 606.32 64.01 603.83 64.01 601.34 64.01 C 595.17 47.63 588.98 31.25 582.80 14.87 C 577.49 14.87 572.17 14.87 566.86 14.87 C 562.06 27.34 557.28 39.81 552.50 52.28 C 540.35 49.91 528.27 47.18 516.07 45.14 C 515.44 48.04 514.83 50.94 514.24 53.84 C 512.08 50.97 510.84 47.51 510.67 43.92 C 512.51 44.31 514.35 44.70 516.20 45.09 C 517.60 39.72 518.82 34.30 520.12 28.91 C 527.36 25.92 536.09 27.19 542.22 32.05 C 542.64 27.50 543.88 22.96 543.57 18.39 C 537.81 14.58 530.56 13.43 523.75 13.87 C 524.87 9.24 525.83 4.58 527.12 0.00 Z" />
<path fill="#6d150d" opacity="1.00" d=" M 442.43 30.51 C 446.80 31.10 451.11 31.99 455.41 32.93 C 455.41 42.14 455.41 51.35 455.41 60.57 C 451.27 60.54 447.13 60.54 442.99 60.56 C 442.95 70.58 443.01 80.59 442.96 90.60 C 422.82 90.58 402.68 90.65 382.54 90.57 C 382.56 80.58 382.46 70.59 382.58 60.60 C 387.07 60.35 391.57 60.37 396.06 60.68 C 396.06 64.21 396.06 67.74 396.06 71.27 C 403.38 71.23 410.71 71.33 418.03 71.24 C 430.18 71.10 441.53 61.93 444.43 50.18 C 446.29 43.65 445.28 36.59 442.43 30.51 Z" />
<path fill="#6d150d" opacity="1.00" d=" M 574.74 32.34 C 576.75 38.31 578.76 44.29 580.75 50.27 C 576.70 50.27 572.65 50.27 568.60 50.26 C 570.64 44.29 572.68 38.31 574.74 32.34 Z" />
<path fill="#6d150d" opacity="1.00" d=" M 470.06 36.78 C 471.93 36.80 473.80 36.81 475.68 36.86 C 482.51 38.37 489.38 39.65 496.22 41.10 C 495.42 49.29 497.76 57.92 503.46 63.99 C 492.33 63.96 481.19 63.98 470.06 63.98 C 470.05 62.18 470.05 60.39 470.06 58.60 C 475.55 58.60 481.04 58.60 486.53 58.60 C 486.53 54.47 486.53 50.33 486.53 46.20 C 481.04 46.20 475.55 46.20 470.06 46.20 C 470.05 43.06 470.05 39.92 470.06 36.78 Z" />
</g>
<g id="#ffffffff">
<path fill="#ffffff" opacity="1.00" d=" M 656.35 7.56 C 663.71 7.50 671.07 7.55 678.44 7.54 C 678.25 8.12 677.88 9.28 677.70 9.87 C 679.30 9.87 680.91 9.87 682.52 9.87 C 682.53 14.00 682.53 18.13 682.52 22.26 C 676.74 22.27 670.96 22.26 665.18 22.27 C 665.17 25.40 665.17 28.53 665.18 31.67 C 670.67 31.67 676.15 31.66 681.64 31.67 C 681.65 35.80 681.65 39.93 681.64 44.06 C 676.15 44.07 670.66 44.06 665.18 44.07 C 665.17 47.34 665.17 50.60 665.18 53.86 C 670.92 53.85 676.67 53.92 682.42 53.81 C 682.62 57.96 682.51 62.11 682.52 66.27 C 671.86 66.26 661.20 66.27 650.54 66.26 C 650.52 47.48 650.53 28.70 650.53 9.91 C 652.76 9.72 656.03 10.81 656.35 7.56 Z" />
<path fill="#ffffff" opacity="1.00" d=" M 496.22 41.10 C 497.40 26.93 509.62 15.00 523.75 13.87 C 530.56 13.43 537.81 14.58 543.57 18.39 C 543.88 22.96 542.64 27.50 542.22 32.05 C 536.09 27.19 527.36 25.92 520.12 28.91 C 514.34 31.55 510.58 37.57 510.67 43.92 C 510.84 47.51 512.08 50.97 514.24 53.84 C 520.72 60.81 531.64 59.59 539.36 55.54 C 539.08 58.36 538.85 61.18 538.65 64.00 C 538.47 65.90 538.37 67.84 537.81 69.68 C 529.19 73.26 518.90 73.44 510.45 69.22 C 507.90 67.80 505.53 66.06 503.46 63.99 C 497.76 57.92 495.42 49.29 496.22 41.10 Z" />
<path fill="#ffffff" opacity="1.00" d=" M 396.06 14.87 C 403.71 14.94 411.35 14.72 418.99 14.96 C 428.94 15.33 437.78 21.94 442.43 30.51 C 445.28 36.59 446.29 43.65 444.43 50.18 C 441.53 61.93 430.18 71.10 418.03 71.24 C 410.71 71.33 403.38 71.23 396.06 71.27 C 396.06 67.74 396.06 64.21 396.06 60.68 L 396.06 60.20 C 396.06 47.16 396.06 34.13 396.06 21.10 C 396.05 19.02 396.06 16.95 396.06 14.87 M 410.68 27.29 C 410.74 37.83 410.68 48.37 410.71 58.90 C 414.78 58.91 419.11 58.89 422.73 56.75 C 432.32 51.45 432.57 35.51 423.34 29.75 C 419.61 27.28 414.99 27.21 410.68 27.29 Z" />
<path fill="#ffffff" opacity="1.00" d=" M 552.50 52.28 C 557.28 39.81 562.06 27.34 566.86 14.87 C 572.17 14.87 577.49 14.87 582.80 14.87 C 588.98 31.25 595.17 47.63 601.34 64.01 C 602.25 66.43 603.17 68.84 604.08 71.26 C 598.89 71.28 593.71 71.24 588.53 71.31 C 587.55 68.89 586.60 66.46 585.70 64.01 C 585.37 63.16 585.05 62.31 584.74 61.46 C 578.00 61.47 571.26 61.46 564.53 61.47 C 564.28 62.10 563.79 63.37 563.54 64.00 C 562.59 66.42 561.64 68.84 560.71 71.26 C 555.54 71.28 550.37 71.27 545.21 71.26 C 546.13 68.84 547.06 66.42 547.99 64.00 C 549.49 60.09 550.99 56.18 552.50 52.28 M 574.74 32.34 C 572.68 38.31 570.64 44.29 568.60 50.26 C 572.65 50.27 576.70 50.27 580.75 50.27 C 578.76 44.29 576.75 38.31 574.74 32.34 Z" />
<path fill="#ffffff" opacity="1.00" d=" M 608.83 64.01 C 610.83 47.63 612.83 31.25 614.86 14.87 C 618.66 14.87 622.47 14.86 626.28 14.87 C 626.99 14.87 628.42 14.87 629.13 14.87 C 627.35 29.54 625.52 44.20 623.73 58.86 C 629.71 58.87 635.70 58.86 641.68 58.87 C 641.24 62.50 640.87 66.14 640.37 69.77 C 640.30 70.13 640.17 70.86 640.11 71.22 C 629.38 71.34 618.66 71.23 607.94 71.26 C 608.22 68.84 608.52 66.43 608.83 64.01 Z" />
<path fill="#ffffff" opacity="1.00" d=" M 461.25 22.05 C 468.61 22.09 475.98 22.06 483.34 22.06 C 483.17 22.65 482.82 23.81 482.65 24.40 C 484.24 24.40 485.86 24.40 487.47 24.41 C 487.47 28.54 487.47 32.66 487.47 36.79 C 483.54 36.78 479.61 36.82 475.68 36.86 C 473.80 36.81 471.93 36.80 470.06 36.78 C 470.05 39.92 470.05 43.06 470.06 46.20 C 475.55 46.20 481.04 46.20 486.53 46.20 C 486.53 50.33 486.53 54.47 486.53 58.60 C 481.04 58.60 475.55 58.60 470.06 58.60 C 470.05 60.39 470.05 62.18 470.06 63.98 C 470.05 65.45 470.05 66.92 470.06 68.40 C 475.86 68.41 481.66 68.39 487.47 68.41 C 487.47 72.54 487.47 76.66 487.47 80.79 C 476.78 80.81 466.10 80.80 455.41 80.79 C 455.41 74.05 455.41 67.31 455.41 60.57 C 455.41 51.35 455.41 42.14 455.41 32.93 C 455.41 30.09 455.41 27.25 455.41 24.41 C 457.01 24.40 458.61 24.40 460.22 24.40 C 460.48 23.81 460.99 22.64 461.25 22.05 Z" />
<path fill="#ffffff" opacity="1.00" d=" M 18.74 60.66 C 22.96 50.29 33.91 43.67 44.90 43.24 C 52.38 42.89 60.33 44.24 66.60 48.55 C 66.61 53.13 64.98 57.59 64.38 62.12 C 57.66 58.19 49.28 55.48 41.73 58.75 C 31.86 62.38 28.77 76.65 35.61 84.38 C 41.85 91.29 52.42 89.86 60.11 86.41 C 59.36 91.22 58.51 96.01 57.62 100.80 C 47.16 105.05 34.20 104.07 25.33 96.76 C 15.05 88.17 13.41 72.43 18.74 60.66 Z" />
<path fill="#ffffff" opacity="1.00" d=" M 330.66 44.22 C 336.12 44.19 341.58 44.18 347.03 44.23 C 347.08 50.51 347.04 56.79 347.06 63.06 C 353.97 63.09 360.88 63.03 367.79 63.10 C 367.84 68.61 367.85 74.11 367.78 79.61 C 360.88 79.75 353.97 79.58 347.07 79.72 C 347.02 87.01 347.10 94.30 347.03 101.58 C 341.57 101.61 336.12 101.61 330.67 101.58 C 330.58 94.28 330.76 86.97 330.57 79.66 C 323.55 79.65 316.53 79.70 309.51 79.63 C 309.44 74.16 309.45 68.69 309.50 63.22 C 316.55 63.17 323.59 63.23 330.64 63.18 C 330.66 56.86 330.62 50.54 330.66 44.22 Z" />
<path fill="#ffffff" opacity="1.00" d=" M 89.74 45.53 C 96.03 45.25 102.33 45.43 108.63 45.43 C 112.68 64.12 116.63 82.84 120.57 101.55 C 115.75 101.64 110.92 101.58 106.10 101.62 C 105.24 98.39 104.45 95.14 103.72 91.88 C 97.15 91.80 90.58 91.65 84.02 91.90 C 81.56 94.59 80.80 98.48 78.85 101.57 C 73.24 101.48 67.64 101.58 62.03 101.49 C 71.18 82.80 80.62 64.24 89.74 45.53 M 96.88 61.69 C 94.16 67.58 91.57 73.54 88.99 79.51 C 92.98 79.53 96.97 79.56 100.96 79.60 C 99.65 73.62 98.45 67.61 96.88 61.69 Z" />
<path fill="#ffffff" opacity="1.00" d=" M 134.71 45.60 C 140.20 45.35 145.70 45.47 151.20 45.51 C 157.39 56.12 163.16 66.99 169.61 77.45 C 171.32 66.83 172.72 56.16 174.31 45.52 C 179.46 45.47 184.62 45.57 189.77 45.64 C 187.13 64.33 184.51 83.03 181.76 101.70 C 176.72 101.75 171.68 101.79 166.64 101.67 C 160.12 90.02 153.62 78.36 146.97 66.79 C 145.16 78.35 143.74 89.98 141.91 101.55 C 136.94 101.52 131.98 101.56 127.01 101.50 C 129.38 82.84 132.18 64.23 134.71 45.60 Z" />
<path fill="#ffffff" opacity="1.00" d=" M 216.68 45.47 C 222.89 45.37 229.11 45.31 235.32 45.51 C 239.17 64.27 243.12 83.01 246.96 101.77 C 242.01 101.82 237.07 101.81 232.12 101.78 C 231.39 98.43 230.66 95.07 229.97 91.70 C 223.36 91.41 216.73 91.45 210.12 91.68 C 208.61 95.02 207.02 98.33 205.49 101.66 C 199.86 101.80 194.22 101.73 188.59 101.71 C 197.86 82.92 207.35 64.23 216.68 45.47 M 215.70 79.64 C 219.68 79.67 223.67 79.61 227.65 79.57 C 226.37 73.48 225.07 67.39 223.72 61.31 C 220.93 67.37 218.14 73.43 215.70 79.64 Z" />
<path fill="#ffffff" opacity="1.00" d=" M 261.34 45.41 C 266.59 45.39 271.84 45.39 277.09 45.42 C 275.26 59.94 273.03 74.42 271.16 88.94 C 276.85 89.07 282.54 88.95 288.23 89.02 C 287.75 93.26 287.16 97.48 286.55 101.70 C 275.46 101.66 264.36 101.96 253.28 101.55 C 255.92 82.83 258.62 64.12 261.34 45.41 Z" />
</g>
<g id="#a7a5a5ff">
<path fill="#a7a5a5" opacity="1.00" d=" M 0.00 30.20 C 98.25 30.21 196.49 30.18 294.74 30.21 C 294.70 60.40 294.71 90.60 294.74 120.79 C 196.49 120.82 98.25 120.79 0.00 120.80 L 0.00 30.20 M 18.74 60.66 C 13.41 72.43 15.05 88.17 25.33 96.76 C 34.20 104.07 47.16 105.05 57.62 100.80 C 58.51 96.01 59.36 91.22 60.11 86.41 C 52.42 89.86 41.85 91.29 35.61 84.38 C 28.77 76.65 31.86 62.38 41.73 58.75 C 49.28 55.48 57.66 58.19 64.38 62.12 C 64.98 57.59 66.61 53.13 66.60 48.55 C 60.33 44.24 52.38 42.89 44.90 43.24 C 33.91 43.67 22.96 50.29 18.74 60.66 M 89.74 45.53 C 80.62 64.24 71.18 82.80 62.03 101.49 C 67.64 101.58 73.24 101.48 78.85 101.57 C 80.80 98.48 81.56 94.59 84.02 91.90 C 90.58 91.65 97.15 91.80 103.72 91.88 C 104.45 95.14 105.24 98.39 106.10 101.62 C 110.92 101.58 115.75 101.64 120.57 101.55 C 116.63 82.84 112.68 64.12 108.63 45.43 C 102.33 45.43 96.03 45.25 89.74 45.53 M 134.71 45.60 C 132.18 64.23 129.38 82.84 127.01 101.50 C 131.98 101.56 136.94 101.52 141.91 101.55 C 143.74 89.98 145.16 78.35 146.97 66.79 C 153.62 78.36 160.12 90.02 166.64 101.67 C 171.68 101.79 176.72 101.75 181.76 101.70 C 184.51 83.03 187.13 64.33 189.77 45.64 C 184.62 45.57 179.46 45.47 174.31 45.52 C 172.72 56.16 171.32 66.83 169.61 77.45 C 163.16 66.99 157.39 56.12 151.20 45.51 C 145.70 45.47 140.20 45.35 134.71 45.60 M 216.68 45.47 C 207.35 64.23 197.86 82.92 188.59 101.71 C 194.22 101.73 199.86 101.80 205.49 101.66 C 207.02 98.33 208.61 95.02 210.12 91.68 C 216.73 91.45 223.36 91.41 229.97 91.70 C 230.66 95.07 231.39 98.43 232.12 101.78 C 237.07 101.81 242.01 101.82 246.96 101.77 C 243.12 83.01 239.17 64.27 235.32 45.51 C 229.11 45.31 222.89 45.37 216.68 45.47 M 261.34 45.41 C 258.62 64.12 255.92 82.83 253.28 101.55 C 264.36 101.96 275.46 101.66 286.55 101.70 C 287.16 97.48 287.75 93.26 288.23 89.02 C 282.54 88.95 276.85 89.07 271.16 88.94 C 273.03 74.42 275.26 59.94 277.09 45.42 C 271.84 45.39 266.59 45.39 261.34 45.41 Z" />
<path fill="#a7a5a5" opacity="1.00" d=" M 96.88 61.69 C 98.45 67.61 99.65 73.62 100.96 79.60 C 96.97 79.56 92.98 79.53 88.99 79.51 C 91.57 73.54 94.16 67.58 96.88 61.69 Z" />
<path fill="#a7a5a5" opacity="1.00" d=" M 215.70 79.64 C 218.14 73.43 220.93 67.37 223.72 61.31 C 225.07 67.39 226.37 73.48 227.65 79.57 C 223.67 79.61 219.68 79.67 215.70 79.64 Z" />
</g>
<g id="#221e1fff">
<path fill="#221e1f" opacity="1.00" d=" M 294.74 30.21 C 317.30 30.18 339.86 30.21 362.42 30.20 C 369.12 30.21 375.82 30.19 382.53 30.21 C 382.54 40.20 382.51 50.19 382.54 60.18 C 387.04 60.10 391.55 60.12 396.06 60.20 L 396.06 60.68 C 391.57 60.37 387.07 60.35 382.58 60.60 C 382.46 70.59 382.56 80.58 382.54 90.57 L 382.54 90.83 C 382.52 100.82 382.53 110.80 382.53 120.79 C 362.39 120.82 342.26 120.79 322.12 120.80 C 312.99 120.79 303.86 120.81 294.74 120.79 C 294.71 90.60 294.70 60.40 294.74 30.21 M 330.66 44.22 C 330.62 50.54 330.66 56.86 330.64 63.18 C 323.59 63.23 316.55 63.17 309.50 63.22 C 309.45 68.69 309.44 74.16 309.51 79.63 C 316.53 79.70 323.55 79.65 330.57 79.66 C 330.76 86.97 330.58 94.28 330.67 101.58 C 336.12 101.61 341.57 101.61 347.03 101.58 C 347.10 94.30 347.02 87.01 347.07 79.72 C 353.97 79.58 360.88 79.75 367.78 79.61 C 367.85 74.11 367.84 68.61 367.79 63.10 C 360.88 63.03 353.97 63.09 347.06 63.06 C 347.04 56.79 347.08 50.51 347.03 44.23 C 341.58 44.18 336.12 44.19 330.66 44.22 Z" />
<path fill="#221e1f" opacity="1.00" d=" M 516.07 45.14 C 528.27 47.18 540.35 49.91 552.50 52.28 C 550.99 56.18 549.49 60.09 547.99 64.00 C 544.87 64.00 541.76 64.00 538.65 64.00 C 538.85 61.18 539.08 58.36 539.36 55.54 C 531.64 59.59 520.72 60.81 514.24 53.84 C 514.83 50.94 515.44 48.04 516.07 45.14 Z" />
<path fill="#221e1f" opacity="1.00" d=" M 564.53 61.47 C 571.26 61.46 578.00 61.47 584.74 61.46 C 585.05 62.31 585.37 63.16 585.70 64.01 C 578.31 63.99 570.92 64.01 563.54 64.00 C 563.79 63.37 564.28 62.10 564.53 61.47 Z" />
</g>
</svg>
