<?xml version="1.0" encoding="utf-8"?>
<!-- Generator: Adobe Illustrator 13.0.0, SVG Export Plug-In . SVG Version: 6.00 Build 14948)  -->
<!DOCTYPE svg PUBLIC "-//W3C//DTD SVG 1.1//EN" "http://www.w3.org/Graphics/SVG/1.1/DTD/svg11.dtd">
<svg version="1.1" id="Layer_1" xmlns="http://www.w3.org/2000/svg" xmlns:xlink="http://www.w3.org/1999/xlink" x="0px" y="0px"
	 width="525.47px" height="513.786px" viewBox="0 0 525.47 513.786" enable-background="new 0 0 525.47 513.786"
	 xml:space="preserve">
<g>
	<path fill="#0073A7" d="M463.07,91.593c-17.823-20.45-38.888-38.175-62.434-52.441c-19.272-11.677-40.195-21.046-62.369-27.68
		c-19.91-5.957-40.825-9.7-62.433-10.97c-0.006,0-0.011-0.001-0.017-0.001C270.392,0.181,264.927,0,259.418,0
		c-15.694,0-31.069,1.315-46.018,3.833c-21.83,3.676-42.745,9.922-62.401,18.402c-22.658,9.775-43.64,22.519-62.417,37.72
		C64.155,79.73,43.458,103.66,27.668,130.62l54.889,1.247c1.943-2.625,3.964-5.192,6.026-7.726
		c17.15-21.075,38.328-38.915,62.417-52.427c19.155-10.745,40.137-18.768,62.401-23.483c15.091-3.196,30.766-4.883,46.849-4.883
		c5.236,0,10.424,0.19,15.568,0.542c0.006,0,0.011,0,0.017,0.001c21.857,1.493,42.822,6.106,62.433,13.377
		c22.89,8.487,43.927,20.596,62.369,35.608c27.314,22.235,48.933,50.827,62.434,83.432c10.098,24.385,15.664,51.007,15.664,78.891
		c0,27.895-5.566,54.525-15.664,78.916c-13.501,32.611-35.119,61.206-62.434,83.441c-18.442,15.013-39.479,27.121-62.369,35.607
		c-19.61,7.271-40.575,11.883-62.433,13.376c-0.006,0-0.011,0-0.017,0.001c-5.144,0.351-10.332,0.541-15.568,0.541
		c-16.083,0-31.758-1.684-46.849-4.88c-22.264-4.715-43.246-12.736-62.401-23.479c-24.09-13.51-45.269-31.344-62.417-52.411
		c-2.227-2.736-4.401-5.514-6.49-8.356l-55.912,2.653c15.975,28.003,37.206,52.817,62.401,73.215
		c18.778,15.202,39.759,27.947,62.417,37.723c19.656,8.481,40.569,14.734,62.401,18.411c14.947,2.517,30.324,3.829,46.018,3.829
		c5.509,0,10.974-0.182,16.399-0.5c0.006,0,0.011-0.001,0.017-0.001c21.607-1.271,42.522-5.016,62.433-10.975
		c22.174-6.636,43.097-16.009,62.369-27.69c23.546-14.271,44.61-32.001,62.434-52.457c38.933-44.684,62.4-102.347,62.4-165.302
		C525.47,193.913,502.002,136.264,463.07,91.593z"/>
	<path fill="#0073A7" d="M66.381,347.17c-3.273-7.864-6.117-15.957-8.536-24.238c-6.146-21.039-9.462-43.331-9.462-66.454
		c0-9.462,0.56-18.797,1.63-27.94l7.832,14.674l57.814,108.321l1.135,2.126h56.695V165.162h-50.045v113.437l-7.784-15.98
		l-48.288-99.135l-9.526,0.309l-42.325,1.37C5.467,194.252,0,225.581,0,258.268c0,30.881,4.875,60.547,13.906,88.295
		c0.399,1.247,0.799,2.493,1.214,3.74l42.725-2.611L66.381,347.17z"/>
	<polygon fill="#0073A7" points="278.583,348.641 278.583,200.15 330.275,200.15 330.275,163.483 186.852,163.483 186.852,195.147 
		231.895,195.147 231.895,348.641 	"/>
	<polygon fill="#0073A7" points="412.048,348.641 412.048,160.143 340.313,191.838 340.313,216.837 371.994,218.516 
		371.994,348.641 	"/>
</g>
</svg>
