<?xml version="1.0" encoding="UTF-8" standalone="no"?>
<!-- Created with Inkscape (http://www.inkscape.org/) -->
<svg
   xmlns:svg="http://www.w3.org/2000/svg"
   xmlns="http://www.w3.org/2000/svg"
   version="1.0"
   width="901.71082"
   height="409.4628"
   id="svg2">
  <defs
     id="defs4" />
  <g
     transform="translate(-89.338675,146.25893)"
     id="layer1">
    <g
       transform="matrix(1.853684,0,0,1.853684,-76.266996,-224.69293)"
       id="g3316">
      <path
         d="M 275.875,110.125 C 263.05278,110.44414 249.38435,124.20731 243.59375,143.75 C 236.99801,166.00996 243.10803,187.37228 257.25,191.4375 C 271.39198,195.50274 282.248,180.72871 288.84375,158.46875 C 295.4395,136.20879 295.29822,114.84647 281.15625,110.78125 C 279.83044,110.40013 278.48742,110.18442 277.125,110.125 C 276.71343,110.10705 276.28862,110.11471 275.875,110.125 z M 121.49492,111.65625 L 89.338674,191.78125 L 109.71367,191.78125 L 113.65117,181.28125 L 126.93242,181.28125 L 127.55742,191.78125 L 145.77617,191.78125 L 141.49492,111.65625 L 121.49492,111.65625 z M 160.05742,111.65625 L 152.02617,161.46875 C 146.67933,205.26185 191.29816,198.51803 196.30742,163.625 L 205.77617,111.65625 L 187.93242,111.65625 L 180.99492,158 C 179.42845,170.59015 167.10377,173.52986 169.55742,158 L 176.83867,111.65625 L 160.05742,111.65625 z M 210.05742,111.65625 L 205.43242,136.65625 L 215.43242,136.65625 L 206.15117,191.78125 L 224.71367,191.78125 L 233.27617,136.65625 L 242.55742,136.65625 L 247.55742,111.65625 L 210.05742,111.65625 z M 311.375,111.65625 L 290.40625,191.78125 L 306.84375,191.78125 L 317.6875,146.75 L 317.9375,191.78125 L 328.8125,191.78125 L 343.96875,147 L 342.9375,191.78125 L 358.34375,191.78125 L 364.40625,111.65625 L 345.96875,111.65625 L 330.8125,151.3125 L 330.8125,111.65625 L 311.375,111.65625 z M 272,133.5625 C 272.77548,133.53739 273.56205,133.65805 274.3125,133.875 C 280.31606,135.61061 276.89694,144.73507 274.09375,154.25 C 271.29054,163.76491 270.12854,170.0794 264.125,168.34375 C 258.12143,166.60812 255.54055,157.48368 258.34375,147.96875 C 260.79655,139.6432 266.5717,133.73831 272,133.5625 z M 125.43242,143.96875 L 126.58867,162.375 L 119.74492,162.375 L 125.43242,143.96875 z"
         id="path3305"
         style="fill:#000000;fill-opacity:1;fill-rule:evenodd;stroke:none;stroke-width:1px;stroke-linecap:butt;stroke-linejoin:miter;stroke-opacity:1" />
      <path
         d="M 134.84375,42.3125 L 337.03125,58.125 C 318.27179,70.579782 299.92873,89.894718 285.25,114.34375 C 250.944,171.48411 249.63563,235.07252 282.3125,256.28125 C 314.98937,277.48997 369.35024,248.32786 403.65625,191.1875 C 437.96225,134.04714 439.30188,70.458719 406.625,49.25 C 399.47693,44.610593 391.28654,42.365671 382.5,42.3125 L 134.84375,42.3125 z M 385.09375,61.625 C 393.12131,61.601241 399.87685,64.800924 404.53125,71.53125 C 420.20921,94.201818 402.826,148.63354 370.08947,193.0625 C 337.35295,237.49147 301.58422,255.17057 285.90625,232.5 C 270.22829,209.82943 286.09628,156.37661 318.83281,111.94765 C 341.85068,80.708541 366.08111,61.681272 385.09375,61.625 z"
         id="path3273"
         style="opacity:1;fill:#d00101;fill-opacity:1;fill-rule:nonzero;stroke:none;stroke-width:1;stroke-linecap:round;stroke-linejoin:round;stroke-miterlimit:4;stroke-dasharray:none;stroke-opacity:1" />
      <path
         d="M 402.38008,110.125 C 389.55786,110.44414 375.88943,124.20731 370.09883,143.75 C 363.50309,166.00996 369.61311,187.37228 383.75508,191.4375 C 397.89706,195.50274 414.75308,180.72871 421.34883,158.46875 C 427.94458,136.20879 421.8033,114.84647 407.66133,110.78125 C 406.33552,110.40013 404.9925,110.18442 403.63008,110.125 C 403.21851,110.10705 402.7937,110.11471 402.38008,110.125 z M 434.875,111.65625 L 420.46875,191.78125 L 442.1875,191.78125 C 478.19403,191.78125 471.97937,148.59235 457.875,149.03125 C 473.00126,148.0558 483.04648,111.65649 454.0625,111.65625 L 434.875,111.65625 z M 480.3125,111.65625 L 467.1875,191.78125 L 485.875,191.78125 L 499.25,111.65625 L 480.3125,111.65625 z M 504.8125,111.65625 L 490.9375,191.78125 L 524.75,191.78125 L 528.5625,165.96875 L 512.90625,165.96875 L 523,111.65625 L 504.8125,111.65625 z M 543.1875,111.65625 L 529.5625,191.78125 L 562.90625,191.78125 L 566.1875,171.25 L 549.25,171.25 L 551.28125,160.90625 L 566.6875,160.90625 L 570.21875,140.4375 L 554.5625,140.4375 L 556.09375,131.59375 L 572.25,131.59375 L 575.78125,111.65625 L 543.1875,111.65625 z M 447.78125,128.8125 C 460.74457,129.02465 457.317,142.59737 444.46875,141.21875 L 446.46875,128.84375 C 446.92129,128.82186 447.36308,128.80566 447.78125,128.8125 z M 398.50508,133.5625 C 399.28056,133.53739 400.06713,133.65805 400.81758,133.875 C 406.82114,135.61061 409.40202,144.73507 406.59883,154.25 C 403.79562,163.76491 396.63362,170.0794 390.63008,168.34375 C 384.62651,166.60812 382.04563,157.48368 384.84883,147.96875 C 387.30163,139.6432 393.07678,133.73831 398.50508,133.5625 z M 443.4375,157.5625 C 458.96132,157.81628 454.82354,174.05545 439.4375,172.40625 L 441.875,157.59375 C 442.41692,157.56756 442.93673,157.55431 443.4375,157.5625 z"
         id="path3303"
         style="fill:#000000;fill-opacity:1;fill-rule:evenodd;stroke:none;stroke-width:1px;stroke-linecap:butt;stroke-linejoin:miter;stroke-opacity:1" />
    </g>
  </g>
</svg>
