<?xml version="1.0" encoding="UTF-8" standalone="no"?>
<!-- Created with Inkscape (http://www.inkscape.org/) -->

<svg
   xmlns:dc="http://purl.org/dc/elements/1.1/"
   xmlns:cc="http://creativecommons.org/ns#"
   xmlns:rdf="http://www.w3.org/1999/02/22-rdf-syntax-ns#"
   xmlns:svg="http://www.w3.org/2000/svg"
   xmlns="http://www.w3.org/2000/svg"
   xmlns:sodipodi="http://sodipodi.sourceforge.net/DTD/sodipodi-0.dtd"
   xmlns:inkscape="http://www.inkscape.org/namespaces/inkscape"
   width="36.494736mm"
   height="15.11993mm"
   viewBox="0 0 129.31205 53.574557"
   id="svg72646"
   version="1.1"
   inkscape:version="0.91 r13725"
   sodipodi:docname="Foot+.svg">
  <defs
     id="defs72648" />
  <sodipodi:namedview
     id="base"
     pagecolor="#ffffff"
     bordercolor="#666666"
     borderopacity="1.0"
     inkscape:pageopacity="0.0"
     inkscape:pageshadow="2"
     inkscape:zoom="5.6"
     inkscape:cx="67.875679"
     inkscape:cy="8.5710901"
     inkscape:document-units="px"
     inkscape:current-layer="layer1"
     showgrid="false"
     fit-margin-left="0.5"
     fit-margin-top="0.5"
     fit-margin-bottom="0.5"
     fit-margin-right="0.5"
     inkscape:window-width="1920"
     inkscape:window-height="1017"
     inkscape:window-x="-8"
     inkscape:window-y="-8"
     inkscape:window-maximized="1" />
  <metadata
     id="metadata72651">
    <rdf:RDF>
      <cc:Work
         rdf:about="">
        <dc:format>image/svg+xml</dc:format>
        <dc:type
           rdf:resource="http://purl.org/dc/dcmitype/StillImage" />
        <dc:title></dc:title>
      </cc:Work>
    </rdf:RDF>
  </metadata>
  <g
     inkscape:label="Calque 1"
     inkscape:groupmode="layer"
     id="layer1"
     transform="translate(-408.20112,-195.57493)">
    <path
       d="m 535.74152,208.25283 -125.76875,0 0,33.5375 125.76875,0 0,-33.5375 z"
       style="fill:#4b4549;fill-opacity:1;fill-rule:nonzero;stroke:none"
       id="path59134"
       inkscape:connector-curvature="0" />
    <path
       d="m 421.14777,247.37783 42.4125,-5.5875 -43.1,0 0.6875,5.5875 z"
       style="fill:#42a62a;fill-opacity:1;fill-rule:nonzero;stroke:none"
       id="path59136"
       inkscape:connector-curvature="0" />
    <path
       d="m 479.71027,197.34658 -63.675,8.4 0.306,2.50625 76.90625,0 -13.5375,-10.90625 z"
       style="fill:#42a62a;fill-opacity:1;fill-rule:nonzero;stroke:none"
       id="path59138"
       inkscape:connector-curvature="0" />
    <path
       d="m 499.25402,213.09033 -6.0125,-4.8375 -76.9,0 4.11875,33.5375 43.1,0 38.59375,-5.08125 -2.9,-23.61875 z"
       style="fill:#287621;fill-opacity:1;fill-rule:nonzero;stroke:none"
       id="path59140"
       inkscape:connector-curvature="0" />
    <path
       d="m 430.79152,219.00908 0,3.1125 5.30625,0 0,4.11875 -5.30625,0 0,7.35625 -4.8625,0 0,-18.7 10.69375,0 0,4.1125 -5.83125,0 z"
       style="fill:#ffffff;fill-opacity:1;fill-rule:nonzero;stroke:none"
       id="path59142"
       inkscape:connector-curvature="0" />
    <path
       d="m 449.48527,218.70908 c -3.1625,0 -5.55625,2.44375 -5.55625,5.6625 0,3.1125 2.21875,5.3875 5.2375,5.3875 3.1125,0 5.43125,-2.375 5.43125,-5.5875 0,-3.16875 -2.16875,-5.4625 -5.1125,-5.4625 m -0.275,15.53125 c -5.90625,0 -10.11875,-4.0375 -10.11875,-9.75 0,-5.88125 4.4625,-10.26875 10.49375,-10.26875 5.8625,0 9.85,3.8875 9.85,9.6 0,6.08125 -4.2625,10.41875 -10.225,10.41875"
       style="fill:#ffffff;fill-opacity:1;fill-rule:nonzero;stroke:none"
       id="path59152"
       inkscape:connector-curvature="0" />
    <path
       d="m 472.33527,218.70908 c -3.16875,0 -5.5625,2.44375 -5.5625,5.6625 0,3.1125 2.21875,5.3875 5.23125,5.3875 3.11875,0 5.4375,-2.375 5.4375,-5.5875 0,-3.16875 -2.16875,-5.4625 -5.10625,-5.4625 m -0.275,15.53125 c -5.90625,0 -10.125,-4.0375 -10.125,-9.75 0,-5.88125 4.4625,-10.26875 10.5,-10.26875 5.85625,0 9.84375,3.8875 9.84375,9.6 0,6.08125 -4.2625,10.41875 -10.21875,10.41875"
       style="fill:#ffffff;fill-opacity:1;fill-rule:nonzero;stroke:none"
       id="path59154"
       inkscape:connector-curvature="0" />
    <path
       d="m 492.26027,219.00908 0,14.5875 -4.8625,0 0,-14.5875 -3.9375,0 0,-4.1125 12.8375,0 0,4.1125 -4.0375,0 z"
       style="fill:#ffffff;fill-opacity:1;fill-rule:nonzero;stroke:none"
       id="path59156"
       inkscape:connector-curvature="0" />
    <path
       d="m 482.08527,216.61533 17.16875,-3.525 -19.54375,-15.74375 2.375,19.26875 z"
       style="fill:#96c03a;fill-opacity:1;fill-rule:nonzero;stroke:none"
       id="path59158"
       inkscape:connector-curvature="0" />
    <path
       d="m 521.94777,225.99033 0,6.73125 c 0,0.25 -0.05,0.35 -0.25,0.35 l -5.13125,0 c -0.1685,0 -0.275,-0.125 -0.275,-0.3 l 0,-6.73125 c 0,-0.275 -0.1,-0.375 -0.325,-0.375 l -6.65625,0 c -0.2,0 -0.3,-0.125 -0.3,-0.35 l 0,-5.10625 c 0,-0.2 0.075,-0.294 0.2815,-0.294 l 6.70625,0 c 0.1935,0 0.2935,-0.1 0.2935,-0.331 l 0,-5.775 c 0,-0.156 0.1065,-0.256 0.25,-0.256 l 5.10625,0 c 0.2,0 0.3,0.075 0.3,0.256 l 0,5.775 c 0,0.275 0.056,0.331 0.275,0.331 l 6.7125,0 c 0.2,0 0.269,0.094 0.269,0.3185 l 0,5.13125 c 0,0.175 -0.094,0.3 -0.269,0.3 l -6.6375,0 c -0.2685,0 -0.35,0.05 -0.35,0.325"
       style="fill:#ffffff;fill-opacity:1;fill-rule:nonzero;stroke:none"
       id="path59160"
       inkscape:connector-curvature="0" />
  </g>
</svg>
