<?xml version="1.0" encoding="UTF-8" standalone="no"?>
<!-- Created with Inkscape (http://www.inkscape.org/) -->

<svg
   xmlns:dc="http://purl.org/dc/elements/1.1/"
   xmlns:cc="http://creativecommons.org/ns#"
   xmlns:rdf="http://www.w3.org/1999/02/22-rdf-syntax-ns#"
   xmlns:svg="http://www.w3.org/2000/svg"
   xmlns="http://www.w3.org/2000/svg"
   xmlns:sodipodi="http://sodipodi.sourceforge.net/DTD/sodipodi-0.dtd"
   xmlns:inkscape="http://www.inkscape.org/namespaces/inkscape"
   id="svg2"
   version="1.1"
   inkscape:version="0.91 r13725"
   xml:space="preserve"
   width="54.691376"
   height="13.89875"
   viewBox="0 0 54.691375 13.89875"
   sodipodi:docname="Foot+.svg"><metadata
     id="metadata8"><rdf:RDF><cc:Work
         rdf:about=""><dc:format>image/svg+xml</dc:format><dc:type
           rdf:resource="http://purl.org/dc/dcmitype/StillImage" /><dc:title></dc:title></cc:Work></rdf:RDF></metadata><defs
     id="defs6"><clipPath
       clipPathUnits="userSpaceOnUse"
       id="clipPath16"><path
         d="m 0,0.543 1534,0 0,513 -1534,0 0,-513 z"
         id="path18"
         inkscape:connector-curvature="0" /></clipPath><clipPath
       clipPathUnits="userSpaceOnUse"
       id="clipPath30"><path
         d="m 1455.936,216.588 62.3619,0 0,36.85 -62.3619,0 0,-36.85 z"
         id="path32"
         inkscape:connector-curvature="0" /></clipPath><clipPath
       clipPathUnits="userSpaceOnUse"
       id="clipPath126"><path
         d="m 598.867,235.407 391.227,0 0,262.316 -391.227,0 0,-262.316 z"
         id="path128"
         inkscape:connector-curvature="0" /></clipPath><clipPath
       clipPathUnits="userSpaceOnUse"
       id="clipPath178"><path
         d="m 360.144,238.866 274.405,0 0,258.708 -274.405,0 0,-258.708 z"
         id="path180"
         inkscape:connector-curvature="0" /></clipPath><clipPath
       clipPathUnits="userSpaceOnUse"
       id="clipPath190"><path
         d="m 989.778,245.433 249.6831,0 0,251.891 -249.6831,0 0,-251.891 z"
         id="path192"
         inkscape:connector-curvature="0" /></clipPath><clipPath
       clipPathUnits="userSpaceOnUse"
       id="clipPath216"><path
         d="m 1250.182,78.189 205.637,0 0,132.466 -205.637,0 0,-132.466 z"
         id="path218"
         inkscape:connector-curvature="0" /></clipPath><clipPath
       clipPathUnits="userSpaceOnUse"
       id="clipPath230"><path
         d="m 15.95,240.175 344.969,0 0,257.435 -344.969,0 0,-257.435 z"
         id="path232"
         inkscape:connector-curvature="0" /></clipPath><clipPath
       clipPathUnits="userSpaceOnUse"
       id="clipPath400"><path
         d="m 184.592,168.636 50.92,0 0,35.915 -50.92,0 0,-35.915 z"
         id="path402"
         inkscape:connector-curvature="0" /></clipPath><clipPath
       clipPathUnits="userSpaceOnUse"
       id="clipPath430"><path
         d="m 239.521,168.734 54.101,0 0,29.935 -54.101,0 0,-29.935 z"
         id="path432"
         inkscape:connector-curvature="0" /></clipPath><clipPath
       clipPathUnits="userSpaceOnUse"
       id="clipPath438"><path
         d="m 240.768,192.787 0,-9.431 46.4761,0 0,9.431"
         id="path440"
         inkscape:connector-curvature="0" /></clipPath><clipPath
       clipPathUnits="userSpaceOnUse"
       id="clipPath468"><path
         d="m 79.489,131.906 46.339,0 0,36.082 -46.339,0 0,-36.082 z"
         id="path470"
         inkscape:connector-curvature="0" /></clipPath><clipPath
       clipPathUnits="userSpaceOnUse"
       id="clipPath476"><path
         d="m 81.38,146.326 0,0.2096 0.2096,0 0,-0.2096 -0.2096,0"
         id="path478"
         inkscape:connector-curvature="0" /></clipPath><clipPath
       clipPathUnits="userSpaceOnUse"
       id="clipPath488"><path
         d="m 131.511,130.402 47.391,0 0,37.776 -47.391,0 0,-37.776 z"
         id="path490"
         inkscape:connector-curvature="0" /></clipPath><clipPath
       clipPathUnits="userSpaceOnUse"
       id="clipPath510"><path
         d="m 183.47,131.023 46.372,0 0,36.624 -46.372,0 0,-36.624 z"
         id="path512"
         inkscape:connector-curvature="0" /></clipPath><clipPath
       clipPathUnits="userSpaceOnUse"
       id="clipPath518"><path
         d="m 184.024,139.928 0,0.1644 0.1644,0 0,-0.1644 -0.1644,0"
         id="path520"
         inkscape:connector-curvature="0" /></clipPath><clipPath
       clipPathUnits="userSpaceOnUse"
       id="clipPath532"><path
         d="m 80.775,101.423 44.186,0 0,25.9 -44.186,0 0,-25.9 z"
         id="path534"
         inkscape:connector-curvature="0" /></clipPath><clipPath
       clipPathUnits="userSpaceOnUse"
       id="clipPath556"><path
         d="m 187.993,101.501 46.281,0 0,27.546 -46.281,0 0,-27.546 z"
         id="path558"
         inkscape:connector-curvature="0" /></clipPath><clipPath
       clipPathUnits="userSpaceOnUse"
       id="clipPath570"><path
         d="m 237.379,132.806 50.079,0 0,36.192 -50.079,0 0,-36.192 z"
         id="path572"
         inkscape:connector-curvature="0" /></clipPath><clipPath
       clipPathUnits="userSpaceOnUse"
       id="clipPath578"><path
         d="m 239.114,146.023 0,0.1633 0.1633,0 0,-0.1633 -0.1633,0"
         id="path580"
         inkscape:connector-curvature="0" /></clipPath><clipPath
       clipPathUnits="userSpaceOnUse"
       id="clipPath592"><path
         d="m 142.443,92.46 35.876,0 0,38.147 -35.876,0 0,-38.147 z"
         id="path594"
         inkscape:connector-curvature="0" /></clipPath><clipPath
       clipPathUnits="userSpaceOnUse"
       id="clipPath600"><path
         d="m 143.785,125.6627 0,-31.4517 28.8527,0 0,31.4517"
         id="path602"
         inkscape:connector-curvature="0" /></clipPath><clipPath
       clipPathUnits="userSpaceOnUse"
       id="clipPath618"><path
         d="m 248.251,93.873 37.72,0 0,36.15 -37.72,0 0,-36.15 z"
         id="path620"
         inkscape:connector-curvature="0" /></clipPath><clipPath
       clipPathUnits="userSpaceOnUse"
       id="clipPath632"><path
         d="m 81.024,177.314 43.937,0 0,19.93 -43.937,0 0,-19.93 z"
         id="path634"
         inkscape:connector-curvature="0" /></clipPath><clipPath
       clipPathUnits="userSpaceOnUse"
       id="clipPath640"><path
         d="m 81.143,179.52 0,0.7655 0.7655,0 0,-0.7655 -0.7655,0"
         id="path642"
         inkscape:connector-curvature="0" /></clipPath><clipPath
       clipPathUnits="userSpaceOnUse"
       id="clipPath654"><path
         d="m 131.681,172.449 48.149,0 0,32.047 -48.149,0 0,-32.047 z"
         id="path656"
         inkscape:connector-curvature="0" /></clipPath><clipPath
       clipPathUnits="userSpaceOnUse"
       id="clipPath706"><path
         d="m 148.349,72.383 39.542,0 0,15.264 -39.542,0 0,-15.264 z"
         id="path708"
         inkscape:connector-curvature="0" /></clipPath><clipPath
       clipPathUnits="userSpaceOnUse"
       id="clipPath714"><path
         d="m 148.349,72.807 0,0.2685 0.2685,0 0,-0.2685 -0.2685,0"
         id="path716"
         inkscape:connector-curvature="0" /></clipPath><clipPath
       clipPathUnits="userSpaceOnUse"
       id="clipPath728"><path
         d="m 189.723,72.849 37.933,0 0,14.174 -37.933,0 0,-14.174 z"
         id="path730"
         inkscape:connector-curvature="0" /></clipPath><clipPath
       clipPathUnits="userSpaceOnUse"
       id="clipPath736"><path
         d="m 190.007,73.638 0,0.3 0.3,0 0,-0.3 -0.3,0"
         id="path738"
         inkscape:connector-curvature="0" /></clipPath><clipPath
       clipPathUnits="userSpaceOnUse"
       id="clipPath770"><path
         d="m 15.875,216.442 1223.3969,0 0,36.851 -1223.3969,0 0,-36.851 z"
         id="path772"
         inkscape:connector-curvature="0" /></clipPath></defs><sodipodi:namedview
     pagecolor="#ffffff"
     bordercolor="#666666"
     borderopacity="1"
     objecttolerance="10"
     gridtolerance="10"
     guidetolerance="10"
     inkscape:pageopacity="0"
     inkscape:pageshadow="2"
     inkscape:window-width="1920"
     inkscape:window-height="1017"
     id="namedview4"
     showgrid="false"
     fit-margin-top="0"
     fit-margin-left="0"
     fit-margin-right="0"
     fit-margin-bottom="0"
     inkscape:zoom="2.9287753"
     inkscape:cx="105.29452"
     inkscape:cy="50.252258"
     inkscape:window-x="-8"
     inkscape:window-y="-8"
     inkscape:window-maximized="1"
     inkscape:current-layer="g10" /><g
     id="g10"
     inkscape:groupmode="layer"
     inkscape:label="Sat"
     transform="matrix(1.25,0,0,-1.25,-101.50987,152.90675)"><g
       id="g528"><g
         id="g530"
         clip-path="url(#clipPath532)"><path
           d="m 81.2079,111.2064 33.3622,0 0,11.119 -33.3622,0 0,-11.119 z"
           style="fill:#4dbd38;fill-opacity:1;fill-rule:nonzero;stroke:none"
           id="path536"
           inkscape:connector-curvature="0" /><path
           d="m 114.5701,111.2064 11.1142,0 0,11.119 -11.1142,0 0,-11.119 z"
           style="fill:#191a21;fill-opacity:1;fill-rule:nonzero;stroke:none"
           id="path538"
           inkscape:connector-curvature="0" /><path
           d="m 87.6724,118.9371 -2.177,0 -0.1469,-1.1782 1.9841,0 -0.1838,-1.5125 -1.9844,0 -0.3399,-2.691 -1.7362,0 0.8456,6.8939 3.9312,0"
           style="fill:#ffffff;fill-opacity:1;fill-rule:nonzero;stroke:none"
           id="path540"
           inkscape:connector-curvature="0" /><path
           d="m 93.8122,119.3829 c 1.3949,0 2.4225,-1.0867 2.4225,-2.586 0,-1.5226 -1.0987,-2.6445 -2.5753,-2.6445 -1.4297,0 -2.4811,1.0745 -2.4811,2.5504 0,1.5225 1.1336,2.6801 2.6339,2.6801 z m 0.048,2.1308 c -2.8595,0 -4.9735,-2.0834 -4.9735,-4.8701 0,-2.7046 1.9956,-4.6222 4.7961,-4.6222 2.8239,0 4.8437,2.0596 4.8437,4.9409 0,2.7043 -1.8902,4.5514 -4.6663,4.5514"
           style="fill:#ffffff;fill-opacity:1;fill-rule:nonzero;stroke:none"
           id="path542"
           inkscape:connector-curvature="0" /><path
           d="m 110.9367,113.5554 -1.7454,0 0.671,5.3817 -1.4886,0 0.1842,1.5122 4.6753,0 -0.1833,-1.5122 -1.4514,0"
           style="fill:#ffffff;fill-opacity:1;fill-rule:nonzero;stroke:none"
           id="path544"
           inkscape:connector-curvature="0" /><path
           d="m 103.7853,118.9587 c 1.0829,0 1.8814,-0.8443 1.8814,-2.0094 0,-1.1824 -0.8539,-2.0543 -2.0012,-2.0543 -1.1109,0 -1.9272,0.8349 -1.9272,1.9815 0,1.1831 0.8813,2.0822 2.047,2.0822 z m 0.036,1.655 c -2.221,0 -3.8628,-1.6185 -3.8628,-3.7832 0,-2.1008 1.5505,-3.5904 3.7252,-3.5904 2.1941,0 3.763,1.5999 3.763,3.838 0,2.1009 -1.4682,3.5356 -3.6254,3.5356"
           style="fill:#ffffff;fill-opacity:1;fill-rule:nonzero;stroke:none"
           id="path546"
           inkscape:connector-curvature="0" /><path
           d="m 123.5648,118.2943 -2.2647,0 c -0.0187,0 -0.0187,0.009 -0.0187,0.009 0,0 -0.0189,0.009 -0.0189,0.0281 l 0,2.0749 3e-4,0.1357 c 0,0.0375 -0.0188,0.0561 -0.0188,0.0561 0,0 -0.009,0.01 -0.047,0.01 l -1.8649,0 c -0.0561,0 -0.075,-0.01 -0.075,-0.01 0,0 -0.009,-0.0186 -0.009,-0.0468 l 0,-2.2387 c 0,-0.0186 -0.019,-0.0282 -0.019,-0.0282 0,0 0,-0.009 -0.0187,-0.009 l -2.5117,0 c -0.0188,0 -0.0281,-0.009 -0.0281,-0.009 0,0 -0.0187,-0.0281 -0.0187,-0.0467 l 0,-1.8735 c 0,-0.0562 0.0187,-0.0749 0.0187,-0.0749 0,0 0.009,-0.009 0.0563,-0.009 l 2.4554,0 c 0.0281,0 0.0376,-0.0186 0.0376,-0.0186 0,0 0.0282,-0.0189 0.0282,-0.047 l 0,-2.5572 c 0,-0.0467 0.009,-0.0563 0.009,-0.0563 0,0 0.0189,-0.0186 0.047,-0.0186 l 1.9026,0 c 0.028,0 0.0373,0.0186 0.0373,0.0186 0,0 0.0188,0.01 0.0188,0.0469 l 0,2.5574 c 0,0.0468 0.0282,0.0562 0.0282,0.0562 0,0 0.0187,0.0186 0.0561,0.0186 l 2.3993,0 c 0.0281,0 0.0376,0.0188 0.0376,0.0188 0,0 0.0282,0.0281 0.0282,0.047 l 0,1.8921 c 0,0.0561 -0.0282,0.0655 -0.0282,0.0655 0,0 -0.0188,0.01 -0.0846,0.01"
           style="fill:#ffffff;fill-opacity:1;fill-rule:nonzero;stroke:none"
           id="path548"
           inkscape:connector-curvature="0" /></g></g></g></svg>