<?xml version="1.0" encoding="UTF-8" standalone="no"?>
<!-- Created with Inkscape (http://www.inkscape.org/) -->

<svg
   xmlns:dc="http://purl.org/dc/elements/1.1/"
   xmlns:cc="http://creativecommons.org/ns#"
   xmlns:rdf="http://www.w3.org/1999/02/22-rdf-syntax-ns#"
   xmlns:svg="http://www.w3.org/2000/svg"
   xmlns="http://www.w3.org/2000/svg"
   xmlns:sodipodi="http://sodipodi.sourceforge.net/DTD/sodipodi-0.dtd"
   xmlns:inkscape="http://www.inkscape.org/namespaces/inkscape"
   width="594"
   height="404"
   id="svg2"
   sodipodi:version="0.32"
   inkscape:version="0.92.2 (5c3e80d, 2017-08-06)"
   version="1.0"
   inkscape:output_extension="org.inkscape.output.svg.inkscape"
   sodipodi:docname="TMC - AVRIL 2008.svg">
  <metadata
     id="metadata27">
    <rdf:RDF>
      <cc:Work
         rdf:about="">
        <dc:format>image/svg+xml</dc:format>
        <dc:type
           rdf:resource="http://purl.org/dc/dcmitype/StillImage" />
        <dc:title></dc:title>
      </cc:Work>
    </rdf:RDF>
  </metadata>
  <defs
     id="defs25" />
  <sodipodi:namedview
     pagecolor="#ffffff"
     bordercolor="#666666"
     borderopacity="1"
     objecttolerance="10"
     gridtolerance="10"
     guidetolerance="10"
     inkscape:pageopacity="0"
     inkscape:pageshadow="2"
     inkscape:window-width="1366"
     inkscape:window-height="705"
     id="namedview23"
     showgrid="false"
     inkscape:zoom="0.58415842"
     inkscape:cx="297"
     inkscape:cy="202"
     inkscape:window-x="-8"
     inkscape:window-y="-8"
     inkscape:window-maximized="1"
     inkscape:current-layer="g7733" />
  <g
     inkscape:label="Layer 1"
     inkscape:groupmode="layer"
     id="layer1"
     transform="translate(382.37176,32.547447)">
    <g
       id="g2855"
       clip-path="url(#id628)"
       transform="matrix(1,0,0,-1,-621.29572,857.70513)">
      <path
         id="path2857"
         d="M 0,513.543 L 0,513.543 L 0,513.543 L 0,513.543 z "
         style="fill:#ffffff;fill-rule:nonzero;stroke:none" />
    </g>
    <g
       id="g7733"
       clip-path="none"
       transform="matrix(18.18909,0,0,-18.18909,-4945.1541,3232.4426)">
      <path
         id="path7735"
         d="M 283.5096,170.5714 C 283.5048,171.8829 283.0648,173.0907 282.193,174.1003 C 281.8066,174.5479 281.3543,174.9306 280.8535,175.2524 C 280.9583,174.7219 281.0201,174.1561 281.0347,173.5579 C 281.0394,173.3556 281.0374,173.1512 281.0326,172.9462 C 281.407,172.2235 281.5917,171.4289 281.5929,170.5925 C 281.5951,169.0493 280.9723,167.3642 279.7621,165.7273 C 279.2546,165.0408 278.6639,164.3897 278.0047,163.7868 C 277.335,162.7318 276.5657,161.7195 275.7106,160.7767 C 278.321,162.0295 280.5029,163.8599 281.9208,165.9603 C 282.9866,167.5392 283.5149,169.1189 283.5096,170.5714"
         style="fill:#979797;fill-rule:nonzero;stroke:none;fill-opacity:1" />
      <path
         id="path7737"
         d="M 280.6397,173.5484 C 280.6397,176.2685 279.2994,179.5026 275.6574,179.5026 C 274.4303,179.5026 273.1565,179.1078 271.9363,178.4718 C 270.8482,177.9062 269.7909,177.1385 268.8178,176.2533 C 268.063,175.5669 267.3433,174.793 266.6755,173.9557 L 266.9099,173.5821 C 267.257,173.8088 267.6132,174.0227 267.9775,174.2221 C 268.47,174.4921 268.9762,174.7362 269.4922,174.9486 C 271.6073,175.8196 273.7855,176.1822 275.7056,176.0143 C 276.4201,175.9515 277.111,175.813 277.7541,175.5953 C 277.5674,175.9459 277.3519,176.2547 277.1089,176.5204 C 276.6559,176.5766 276.194,176.608 275.7269,176.6136 C 273.5641,176.6425 271.2039,176.1461 268.9766,175.1754 C 268.945,175.1618 268.1457,174.7907 267.7868,174.6 C 268.4012,175.259 269.0472,175.8452 269.7107,176.3396 C 270.6201,177.0132 271.579,177.5361 272.5367,177.8358 C 273.1456,178.0258 273.7557,178.1201 274.3499,178.1201 C 277.0282,178.1201 278.9348,175.801 278.9348,172.0031 C 278.9348,168.4449 277.5214,164.7536 275.3096,161.8214 C 274.0402,160.1385 272.3281,158.4668 270.4283,157.5567 L 270.5498,157.2916 C 271.9122,157.9229 273.3529,158.9341 274.7672,160.3561 C 274.8503,160.4393 274.9333,160.5231 275.0157,160.6095 C 275.7056,161.3288 276.352,162.0798 276.9112,162.8783 C 279.3704,166.3898 280.6397,169.6544 280.6397,173.5484"
         style="fill:#979797;fill-rule:nonzero;stroke:none;fill-opacity:1" />
      <path
         id="path7739"
         d="M 272.8486,159.6936 C 273.0977,159.918 273.3444,160.1552 273.5866,160.4059 C 273.8808,160.7098 274.1636,161.0261 274.436,161.3525 C 274.1587,161.2154 273.8752,161.0883 273.5887,160.9664 C 272.0112,160.2958 270.0469,159.7802 268.0565,159.7802 C 265.7243,159.7805 263.8766,160.4992 262.6837,161.6434 L 262.1123,161.2971 C 262.9275,160.472 264.0565,159.8191 265.473,159.4336 C 266.3578,159.1924 267.345,159.0535 268.417,159.0535 C 269.7852,159.0535 271.644,159.349 272.8486,159.6936"
         style="fill:#979797;fill-rule:nonzero;stroke:none;fill-opacity:1" />
      <path
         id="path7741"
         d="M 274.3506,172.3028 C 273.732,172.5757 273.019,172.7076 272.3716,172.7076 C 269.6022,172.7076 267.9863,170.5192 267.9863,168.3414 C 267.9863,166.3172 269.0146,164.639 271.231,164.639 C 272.0883,164.639 272.7762,164.7916 273.5411,165.0566 C 273.5936,165.0755 273.5997,165.11 273.596,165.1599 L 273.4809,166.7774 C 273.4788,166.8102 273.4568,166.8381 273.4059,166.8156 C 272.7361,166.5394 272.2931,166.4662 271.7765,166.4662 C 270.7142,166.4662 270.1739,166.9674 270.1739,168.2831 C 270.1739,169.7607 271.0731,170.8797 272.415,170.8797 C 272.9819,170.8797 273.307,170.8359 273.8254,170.6429 C 273.8254,170.6429 273.8673,170.6203 273.8816,170.6649 L 274.3929,172.1904 C 274.3929,172.1905 274.4257,172.2688 274.3506,172.3028"
         style="fill:#c52636;fill-rule:evenodd;stroke:none;fill-opacity:1" />
      <path
         id="path7743"
         d="M 267.0498,172.6261 L 264.2463,172.6261 C 264.1983,172.6261 264.1472,172.5885 264.1321,172.5437 L 262.3937,167.0808 L 262.3676,167.0808 L 261.7741,172.5393 C 261.7685,172.5874 261.7242,172.6261 261.6772,172.6261 L 258.8706,172.6261 C 258.823,172.6261 258.7776,172.5879 258.7695,172.5401 L 257.5147,164.8408 C 257.5069,164.7939 257.5401,164.7552 257.588,164.7552 L 259.5678,164.7552 C 259.6156,164.7552 259.6607,164.7939 259.6675,164.8408 L 260.0741,167.53 C 260.2213,168.6035 260.2617,169.151 260.3634,170.1855 L 260.3837,170.1855 C 260.4462,169.2331 260.5074,168.4441 260.6347,167.5896 L 261.0335,164.7783 C 261.0401,164.732 261.0848,164.6927 261.1333,164.6927 L 263.0815,164.6927 C 263.1287,164.6927 263.1811,164.7292 263.1973,164.775 L 264.2326,167.6711 C 264.4926,168.4015 264.7554,169.2372 265.0033,170.1855 L 265.0244,170.1855 C 264.8611,169.1722 264.8195,168.6641 264.7478,167.6305 L 264.5835,164.8429 C 264.5801,164.7945 264.6177,164.7552 264.6655,164.7552 L 266.7116,164.7552 C 266.7603,164.7552 266.8011,164.7945 266.8026,164.8429 L 267.1333,172.5387 C 267.1354,172.5874 267.0975,172.6261 267.0498,172.6261"
         style="fill:#c52636;fill-rule:evenodd;stroke:none;fill-opacity:1" />
      <path
         id="path7745"
         d="M 257.7278,170.9259 L 257.9933,172.5401 C 258.0009,172.5879 257.9684,172.6261 257.9202,172.6261 L 251.4854,172.6261 C 251.437,172.6261 251.3904,172.5883 251.3806,172.5403 L 251.1204,170.9261 C 251.1112,170.878 251.1423,170.8399 251.191,170.8399 L 253.3542,170.8396 L 252.4287,164.8408 C 252.4209,164.7939 252.4541,164.7552 252.5024,164.7552 L 254.4355,164.7552 C 254.4837,164.7552 254.5287,164.7939 254.5362,164.8408 L 255.4582,170.8396 L 257.6258,170.8396 C 257.6733,170.8396 257.7198,170.878 257.7278,170.9259"
         style="fill:#c52636;fill-rule:evenodd;stroke:none;fill-opacity:1" />
      <path
         id="path7747"
         d="M 252.3495,163.9216 L 251.9639,163.9216 L 251.7125,163.0754 L 251.6459,162.8455 L 251.6371,162.8455 L 251.3169,163.9216 L 250.9335,163.9216 L 250.8527,162.4231 L 250.8615,162.4142 L 251.1533,162.4142 L 251.1944,163.3501 L 251.1988,163.3501 L 251.487,162.4024 L 251.8119,162.4024 L 252.0891,163.3501 L 252.0934,163.3501 L 252.1345,162.4209 L 252.1433,162.4142 L 252.447,162.4142 L 252.3595,163.9127"
         style="fill:#979797;fill-rule:nonzero;stroke:none;fill-opacity:1" />
      <path
         id="path7749"
         d="M 254.1969,163.9374 C 253.9762,163.9374 253.8093,163.8597 253.6961,163.7043 C 253.5991,163.5696 253.5506,163.3927 253.5506,163.1737 C 253.5506,162.6542 253.766,162.3944 254.1969,162.3944 C 254.6232,162.3944 254.8364,162.6542 254.8364,163.1737 C 254.8364,163.4016 254.7987,163.5751 254.7232,163.6943 C 254.6217,163.8563 254.4463,163.9374 254.1969,163.9374 z M 254.4311,162.8004 C 254.3746,162.7144 254.2967,162.6714 254.1977,162.6714 C 254.0964,162.6714 254.0173,162.7155 253.9604,162.8037 C 253.9035,162.8919 253.875,163.015 253.875,163.1731 C 253.875,163.3186 253.9046,163.4363 253.9637,163.5259 C 254.0228,163.6156 254.1009,163.6604 254.1977,163.6604 C 254.3167,163.6604 254.4014,163.6163 254.4517,163.5282 C 254.4945,163.4516 254.516,163.3333 254.516,163.1731 C 254.516,163.0106 254.4876,162.8864 254.4311,162.8004"
         style="fill:#979797;fill-rule:nonzero;stroke:none;fill-opacity:1" />
      <path
         id="path7751"
         d="M 256.8146,162.9065 L 256.8102,162.9065 L 256.3658,163.9216 L 255.968,163.9216 L 255.968,162.4209 L 255.9747,162.4142 L 256.2805,162.4142 L 256.2805,163.3867 L 256.2872,163.3867 L 256.7182,162.4142 L 257.1172,162.4142 L 257.1271,162.4209 L 257.1271,163.9216 L 256.8214,163.9216"
         style="fill:#979797;fill-rule:nonzero;stroke:none;fill-opacity:1" />
      <path
         id="path7753"
         d="M 258.1569,163.6513 L 258.1647,163.6446 L 258.5526,163.6446 L 258.5526,162.4231 L 258.5614,162.4142 L 258.8651,162.4142 L 258.8651,163.6446 L 259.2592,163.6446 L 259.268,163.6513 L 259.268,163.9216 L 258.1569,163.9216"
         style="fill:#979797;fill-rule:nonzero;stroke:none;fill-opacity:1" />
      <path
         id="path7755"
         d="M 260.6181,162.6912 L 260.6181,163.0314 L 261.1283,163.0314 L 261.1283,163.3123 L 260.6181,163.3123 L 260.6181,163.6446 L 261.2283,163.6446 L 261.2372,163.6512 L 261.257,163.9216 L 260.3055,163.9216 L 260.3055,162.4209 L 261.3002,162.4142 L 261.2782,162.6867"
         style="fill:#979797;fill-rule:nonzero;stroke:none;fill-opacity:1" />
      <path
         id="path7757"
         d="M 264.7244,162.7524 C 264.5869,162.6984 264.4497,162.6714 264.313,162.6714 C 264.0934,162.6714 263.9836,162.8324 263.9836,163.1543 C 263.9836,163.3068 264.0143,163.4273 264.0757,163.5157 C 264.1422,163.6122 264.2386,163.6604 264.3651,163.6604 C 264.4767,163.6604 264.5858,163.6423 264.6922,163.6062 L 264.7011,163.6107 L 264.7576,163.8765 C 264.632,163.9171 264.5056,163.9374 264.3784,163.9374 C 264.161,163.9374 263.9875,163.8661 263.8578,163.7237 C 263.728,163.5813 263.6632,163.3912 263.6632,163.1537 C 263.6632,162.9132 263.7215,162.7265 263.8383,162.5937 C 263.9552,162.4608 264.1193,162.3944 264.3307,162.3944 C 264.4801,162.3944 264.6383,162.4249 264.8054,162.4859 L 264.7333,162.748"
         style="fill:#979797;fill-rule:nonzero;stroke:none;fill-opacity:1" />
      <path
         id="path7759"
         d="M 268.9218,163.139 L 268.9218,163.1435 C 268.9909,163.1597 269.0508,163.1968 269.1014,163.2545 C 269.1587,163.3189 269.1873,163.3943 269.1873,163.4809 C 269.1873,163.6333 269.1451,163.7443 269.0607,163.8139 C 268.974,163.8857 268.8341,163.9216 268.6409,163.9216 L 268.1745,163.9216 L 268.1745,162.4231 L 268.1834,162.4142 L 268.487,162.4142 L 268.487,163.0037 L 268.621,163.0037 C 268.6712,163.0037 268.7091,162.9956 268.7345,162.9793 C 268.76,162.9631 268.7809,162.932 268.7971,162.8863 L 268.9699,162.4142 L 269.2922,162.4142 L 269.2989,162.4209 L 269.1125,162.9437 C 269.0719,163.0576 269.0083,163.1227 268.9218,163.139 z M 268.6092,163.2806 L 268.487,163.2806 L 268.487,163.6446 L 268.6237,163.6446 C 268.7183,163.6446 268.7835,163.6308 268.8191,163.6033 C 268.8509,163.578 268.8668,163.5337 268.8668,163.4704 C 268.8668,163.3439 268.7809,163.2806 268.6092,163.2806"
         style="fill:#979797;fill-rule:nonzero;stroke:none;fill-opacity:1" />
      <path
         id="path7761"
         d="M 271.3042,162.6912 L 270.6764,162.6912 L 270.6764,163.9127 L 270.6675,163.9216 L 270.3638,163.9216 L 270.3638,162.4142 L 271.3363,162.4142 L 271.3131,162.6845"
         style="fill:#979797;fill-rule:nonzero;stroke:none;fill-opacity:1" />
      <path
         id="path7763"
         d="M 273.5275,163.6943 C 273.4261,163.8563 273.2506,163.9374 273.0012,163.9374 C 272.7806,163.9374 272.6137,163.8597 272.5004,163.7043 C 272.4034,163.5696 272.3549,163.3927 272.3549,163.1737 C 272.3549,162.6542 272.5703,162.3944 273.0012,162.3944 C 273.4276,162.3944 273.6407,162.6542 273.6407,163.1737 C 273.6407,163.4016 273.603,163.5751 273.5275,163.6943 z M 273.2354,162.8004 C 273.179,162.7144 273.101,162.6714 273.002,162.6714 C 272.9008,162.6714 272.8217,162.7155 272.7648,162.8037 C 272.7078,162.8919 272.6794,163.015 272.6794,163.1731 C 272.6794,163.3186 272.7089,163.4363 272.7681,163.5259 C 272.8272,163.6156 272.9052,163.6604 273.002,163.6604 C 273.1211,163.6604 273.2057,163.6163 273.256,163.5282 C 273.2989,163.4516 273.3203,163.3333 273.3203,163.1731 C 273.3203,163.0106 273.292,162.8864 273.2354,162.8004"
         style="fill:#979797;fill-rule:nonzero;stroke:none;fill-opacity:1" />
      <path
         id="path7765"
         d="M 266.2754,163.9569 L 265.7498,162.4214 L 265.7591,162.4142 L 266.1199,162.4142 L 266.2164,162.7409 L 266.69,162.7409 L 266.7837,162.4142 L 267.1371,162.4142 L 267.1438,162.4214 L 266.6706,163.9569 L 266.2754,163.9569 z M 266.2904,163.0271 L 266.445,163.5701 L 266.4569,163.5701 L 266.6125,163.0271"
         style="fill:#979797;fill-rule:nonzero;stroke:none;fill-opacity:1" />
    </g>
  </g>
</svg>
