<?xml version="1.0" encoding="UTF-8" ?>
<!DOCTYPE svg PUBLIC "-//W3C//DTD SVG 1.1//EN" "http://www.w3.org/Graphics/SVG/1.1/DTD/svg11.dtd">
<svg width="549pt" height="546pt" viewBox="0 0 549 546" version="1.1" xmlns="http://www.w3.org/2000/svg">
<g id="#ffffffff">
<path fill="#ffffff" opacity="1.00" d=" M 423.13 230.25 C 436.31 221.05 453.13 217.46 468.96 219.93 C 480.28 221.68 490.80 228.46 496.72 238.31 C 500.63 244.82 502.31 252.55 501.94 260.10 C 501.52 264.75 500.67 269.35 500.18 274.00 C 489.29 274.00 478.39 274.00 467.49 274.00 C 468.21 268.70 469.87 263.38 469.06 257.99 C 468.36 253.38 464.53 249.60 459.97 248.78 C 452.20 247.48 444.08 250.02 438.03 254.97 C 430.85 260.73 426.04 268.84 422.12 277.04 C 416.75 288.67 413.24 301.07 410.39 313.53 C 407.03 328.60 404.62 344.04 405.38 359.52 C 405.97 366.02 407.10 373.22 412.04 377.95 C 415.45 381.24 420.42 382.03 424.97 381.78 C 431.48 381.81 438.04 379.25 442.48 374.42 C 448.44 368.16 450.95 359.62 453.12 351.47 C 463.92 351.53 474.71 351.49 485.51 351.49 C 483.73 359.29 482.03 367.21 478.43 374.43 C 470.10 392.09 453.44 405.91 434.13 409.66 C 423.50 411.68 412.22 411.83 401.86 408.41 C 393.05 405.50 385.43 399.36 380.74 391.36 C 374.21 380.53 372.58 367.56 372.58 355.12 C 372.93 330.61 378.41 306.42 386.49 283.36 C 393.96 263.07 404.94 242.80 423.13 230.25 Z" />
<path fill="#ffffff" opacity="1.00" d=" M 115.33 251.60 C 117.51 241.92 119.47 232.19 121.60 222.49 C 161.07 222.50 200.55 222.50 240.02 222.49 C 237.92 232.25 235.77 241.99 233.68 251.74 C 219.05 251.77 204.43 251.73 189.80 251.76 C 178.71 303.74 167.54 355.70 156.50 407.69 C 145.52 407.71 134.53 407.94 123.56 407.58 C 134.73 355.66 145.74 303.70 156.78 251.75 C 142.96 251.65 129.14 251.95 115.33 251.60 Z" />
<path fill="#ffffff" opacity="1.00" d=" M 253.95 222.50 C 263.77 222.46 273.59 222.56 283.42 222.45 C 288.88 247.87 293.89 273.39 299.22 298.84 C 315.69 273.37 332.08 247.85 348.66 222.45 C 358.85 222.55 369.03 222.47 379.22 222.50 C 366.05 284.25 352.90 346.00 339.75 407.75 C 328.75 407.75 317.75 407.76 306.76 407.75 C 314.69 371.37 322.88 335.05 330.74 298.67 C 315.23 322.49 300.03 346.52 284.39 370.27 C 279.58 346.23 274.70 322.22 269.84 298.20 C 262.41 334.70 254.90 371.18 247.51 407.69 C 236.49 407.83 225.47 407.71 214.45 407.75 C 227.64 346.01 240.74 284.24 253.95 222.50 Z" />
</g>
<g id="#f89734ff">
<path fill="#f89734" opacity="1.00" d=" M 83.82 87.80 C 132.62 37.76 202.08 8.75 271.95 9.00 C 335.38 8.40 398.63 31.75 446.51 73.34 C 477.35 99.92 502.06 133.59 517.89 171.13 C 536.11 214.06 542.56 261.82 536.75 308.07 C 531.72 348.50 517.27 387.75 494.66 421.65 C 492.84 424.32 491.18 427.13 488.98 429.53 C 496.98 416.63 504.77 403.52 510.54 389.44 C 526.46 352.05 532.21 310.42 527.17 270.11 C 522.51 231.59 507.94 194.30 485.14 162.90 C 470.17 142.15 451.72 123.94 430.87 109.13 C 401.36 88.19 366.85 74.37 331.05 69.13 C 292.27 63.36 252.03 67.51 215.30 81.26 C 172.28 97.24 134.37 126.46 107.73 163.80 C 84.50 196.09 70.01 234.53 65.87 274.07 C 61.74 312.54 67.39 352.04 82.26 387.77 C 101.24 433.83 135.67 473.25 178.55 498.55 C 209.89 517.12 245.68 528.09 282.04 530.30 C 322.42 532.90 363.48 524.80 399.73 506.78 C 405.30 504.30 410.30 500.68 416.04 498.56 C 414.26 500.28 412.08 501.46 409.97 502.71 C 375.21 523.72 335.51 536.42 295.05 539.73 C 254.35 543.13 212.85 537.13 174.87 522.05 C 108.49 496.11 53.75 442.13 26.86 376.14 C 4.16 321.40 0.76 259.01 16.95 202.05 C 29.07 159.13 52.24 119.32 83.82 87.80 Z" />
</g>
<g id="#c62c4dff">
<path fill="#c62c4d" opacity="1.00" d=" M 215.30 81.26 C 252.03 67.51 292.27 63.36 331.05 69.13 C 366.85 74.37 401.36 88.19 430.87 109.13 C 451.72 123.94 470.17 142.15 485.14 162.90 C 507.94 194.30 522.51 231.59 527.17 270.11 C 532.21 310.42 526.46 352.05 510.54 389.44 C 504.77 403.52 496.98 416.63 488.98 429.53 C 469.61 457.06 444.65 480.81 416.04 498.56 C 410.30 500.68 405.30 504.30 399.73 506.78 C 363.48 524.80 322.42 532.90 282.04 530.30 C 245.68 528.09 209.89 517.12 178.55 498.55 C 135.67 473.25 101.24 433.83 82.26 387.77 C 67.39 352.04 61.74 312.54 65.87 274.07 C 70.01 234.53 84.50 196.09 107.73 163.80 C 134.37 126.46 172.28 97.24 215.30 81.26 M 423.13 230.25 C 404.94 242.80 393.96 263.07 386.49 283.36 C 378.41 306.42 372.93 330.61 372.58 355.12 C 372.58 367.56 374.21 380.53 380.74 391.36 C 385.43 399.36 393.05 405.50 401.86 408.41 C 412.22 411.83 423.50 411.68 434.13 409.66 C 453.44 405.91 470.10 392.09 478.43 374.43 C 482.03 367.21 483.73 359.29 485.51 351.49 C 474.71 351.49 463.92 351.53 453.12 351.47 C 450.95 359.62 448.44 368.16 442.48 374.42 C 438.04 379.25 431.48 381.81 424.97 381.78 C 420.42 382.03 415.45 381.24 412.04 377.95 C 407.10 373.22 405.97 366.02 405.38 359.52 C 404.62 344.04 407.03 328.60 410.39 313.53 C 413.24 301.07 416.75 288.67 422.12 277.04 C 426.04 268.84 430.85 260.73 438.03 254.97 C 444.08 250.02 452.20 247.48 459.97 248.78 C 464.53 249.60 468.36 253.38 469.06 257.99 C 469.87 263.38 468.21 268.70 467.49 274.00 C 478.39 274.00 489.29 274.00 500.18 274.00 C 500.67 269.35 501.52 264.75 501.94 260.10 C 502.31 252.55 500.63 244.82 496.72 238.31 C 490.80 228.46 480.28 221.68 468.96 219.93 C 453.13 217.46 436.31 221.05 423.13 230.25 M 115.33 251.60 C 129.14 251.95 142.96 251.65 156.78 251.75 C 145.74 303.70 134.73 355.66 123.56 407.58 C 134.53 407.94 145.52 407.71 156.50 407.69 C 167.54 355.70 178.71 303.74 189.80 251.76 C 204.43 251.73 219.05 251.77 233.68 251.74 C 235.77 241.99 237.92 232.25 240.02 222.49 C 200.55 222.50 161.07 222.50 121.60 222.49 C 119.47 232.19 117.51 241.92 115.33 251.60 M 253.95 222.50 C 240.74 284.24 227.64 346.01 214.45 407.75 C 225.47 407.71 236.49 407.83 247.51 407.69 C 254.90 371.18 262.41 334.70 269.84 298.20 C 274.70 322.22 279.58 346.23 284.39 370.27 C 300.03 346.52 315.23 322.49 330.74 298.67 C 322.88 335.05 314.69 371.37 306.76 407.75 C 317.75 407.76 328.75 407.75 339.75 407.75 C 352.90 346.00 366.05 284.25 379.22 222.50 C 369.03 222.47 358.85 222.55 348.66 222.45 C 332.08 247.85 315.69 273.37 299.22 298.84 C 293.89 273.39 288.88 247.87 283.42 222.45 C 273.59 222.56 263.77 222.46 253.95 222.50 Z" />
</g>
</svg>
