<?xml version="1.0" encoding="UTF-8" standalone="no"?>
<svg
   xmlns:dc="http://purl.org/dc/elements/1.1/"
   xmlns:cc="http://creativecommons.org/ns#"
   xmlns:rdf="http://www.w3.org/1999/02/22-rdf-syntax-ns#"
   xmlns:svg="http://www.w3.org/2000/svg"
   xmlns="http://www.w3.org/2000/svg"
   xmlns:sodipodi="http://sodipodi.sourceforge.net/DTD/sodipodi-0.dtd"
   xmlns:inkscape="http://www.inkscape.org/namespaces/inkscape"
   version="1.1"
   id="Layer_1"
   x="0px"
   y="0px"
   width="594"
   height="292"
   viewBox="0 0 594 292"
   enable-background="new 0 0 819 1106"
   xml:space="preserve">
<path
   style="fill:#ffffff"
   id="path15"
   d="M 295.2688,148.88825"
   clip-path="none" /><path
   style="fill:none;stroke:#000000;stroke-width:2.80037498"
   id="path17"
   d="M 295.2688,148.88825"
   clip-path="none" /><rect
   style="fill:#cb0043"
   id="rect19"
   height="46.611118"
   width="589.2984"
   clip-path="none"
   y="245.3889"
   x="2.01981" /><path
   style="fill:#d20050"
   id="path21"
   d="M 296.6641,268.69941"
   clip-path="none" /><path
   id="path23"
   d="m 25.466823,25.203396 h -0.302479 v 47.177048 c 0,4.917731 0,14.753194 2.302747,19.056209 2.458866,4.605495 7.688834,5.678809 12.294329,6.147165 v 5.532452 H 3.1906705 V 97.583818 C 9.025598,96.656864 14.870283,96.042148 16.402195,89.592504 17.47551,85.299246 17.47551,78.683726 17.47551,74.839309 c 0,0 0,-53.17785 0,-61.169164 0,-6.5081885 -8.7523916,-6.6935791 -14.2848395,-7.1424197 V 1.3758161 H 39.146703 L 72.068184,70.809502 102.52104,1.3758161 h 36.88299 V 6.5277253 C 124.49471,6.0691273 125.10943,13.982382 124.96307,26.57919 v 48.260119 c 0,3.844417 0.35127,10.372121 1.07331,14.753195 1.39531,8.479184 7.3766,7.074118 13.21153,7.991314 v 5.532452 H 89.436363 v -5.532452 c 5.834927,-0.926954 10.899017,1.424581 13.211527,-7.991314 1.06355,-4.303015 1.07331,-10.908778 1.07331,-14.753195 V 20.012457 l -2.57595,6.274011 -31.048062,76.839552 H 60.437359 L 25.466823,25.203396"
   clip-path="none" /><path
   id="path25"
   d="m 175.18443,51.480085 c 0,19.670926 5.37633,45.118235 30.1211,45.118235 25.20338,0 30.89194,-22.081005 30.89194,-43.283843 0,-20.588123 -5.38608,-44.5425488 -30.89194,-44.5425488 -24.58865,0 -30.1211,23.0372308 -30.1211,42.7081568 m -26.58893,0.917196 c 0,-32.882451 26.28645,-52.3972588578 57.16863,-52.3972588578 31.04806,0 57.01251,19.6709258578 57.01251,52.3972588578 0,32.726332 -26.43281,52.407019 -57.47111,52.407019 -30.89194,0 -56.71003,-19.983167 -56.71003,-52.407019 z"
   clip-path="none" /><path
   id="path27"
   d="m 289.42411,20.217363 v 53.070519 c 0,11.679612 0,23.681219 14.7532,24.286178 v 5.53245 h -37.43916 v -5.53245 c 14.53853,-1.375794 13.67988,-5.103122 13.67988,-18.441493 V 17.348686 c 0,-6.244738 -2.55644,-10.8307181 -15.36791,-10.8307181 V 1.3660587 h 37.25376 L 353.98885,63.842715 V 30.41385 c 0,-11.679613 0,-23.2811657 -14.59707,-23.8958821 V 1.3660587 h 41.01036 v 5.1519092 c -4.30301,0.7708349 -9.92328,-0.1756333 -12.0699,3.9712631 -2.31251,4.459134 -1.60998,15.777722 -1.60998,20.841815 v 73.922094 h -12.2553 L 289.42411,20.217363"
   clip-path="none" /><path
   id="path29"
   d="m 486.39682,31.633525 h -6.61552 c -1.53191,-12.909045 -10.39163,-21.23211 -19.78801,-21.23211 -0.15612,0 -11.81622,0 -11.81622,0 l -0.0488,67.765169 c 0,13.67988 -0.30248,19.827045 15.36791,19.368447 v 5.532449 c -9.06462,-0.16588 -40.90303,-0.16588 -49.96766,0 v -5.532449 c 15.67039,0.458598 15.51427,-5.688567 15.51427,-19.368447 V 10.391657 c 0,0 -11.74791,0 -11.85524,0 -15.11422,0 -18.10975,7.864468 -20.56861,21.232111 h -6.60576 l 0.91719,-30.2674667 h 94.53949 l 0.92695,30.2674667"
   clip-path="none" /><path
   id="path31"
   d="m 501.86231,97.583818 c 14.75319,0.458598 14.44095,-6.761881 14.44095,-19.368447 V 26.286468 c 0,-13.289584 0.31224,-19.8270445 -14.44095,-19.3684466 V 1.3855735 h 82.51836 l 1.22943,27.0475235 h -6.60576 C 576.38936,13.221304 569.63723,8.5767801 552.87401,8.5767801 c -3.7566,0 -13.18225,-0.097574 -13.18225,-0.097574 l -0.039,37.185466 c 12.45045,0 20.59788,-0.439083 21.2126,-14.73368 h 6.68382 v 36.53172 h -6.68382 C 557.94786,53.333991 553.95709,52.73879 539.81861,52.73879 v 19.612381 c 0,18.929364 -1.76609,23.661705 17.67066,23.661705 17.36817,0 24.13006,-5.220211 27.96471,-22.578633 h 6.14717 c -0.14636,5.834928 0,29.662507 0,29.662507 h -89.73884 v -5.551962"
   clip-path="none" /><path
   id="path33"
   d="m 105.28239,186.01517 c -4.95676,28.92094 -30.56995,33.3508 -51.938664,33.3508 C 22.002945,219.36597 -5.6199985e-7,199.1096 -5.6199985e-7,167.29071 -5.6199985e-7,134.84734 23.115289,111.41006 55.402538,111.41006 c 11.396648,0 24.783806,0.58544 35.507193,9.40614 l 2.380806,-8.45967 h 6.800913 L 101.51603,145.6 h -6.966788 c -3.317517,-15.19228 -19.20257,-26.26693 -35.507192,-26.26693 -24.530113,0 -31.653018,26.12057 -31.653018,46.21107 0,21.6907 6.732609,45.20605 31.90671,45.20605 14.753195,0 34.297275,-6.49843 37.829455,-24.92041 l 8.157193,0.18539"
   clip-path="none" /><path
   id="path35"
   d="m 179.72162,173.64278 -13.92382,-32.59949 -12.78219,32.59949 h 26.70601 m -37.50746,29.58445 c 0,7.75713 7.27902,6.90824 13.13347,7.3766 v 7.02533 h -40.55177 v -7.02533 c 10.30381,0 12.87977,-7.16194 12.87977,-7.16194 l 38.82471,-92.02207 h 8.91826 l 32.60925,81.35723 c 1.73682,4.27374 4.90797,12.187 8.06937,15.35815 2.84916,2.52717 7.24975,2.00027 11.04538,2.46863 v 7.02533 h -48.77726 v -7.02533 c 4.7421,-0.61472 13.22128,1.01477 13.19201,-5.7959 -0.0195,-3.70782 -8.66457,-22.12004 -8.66457,-22.12004 h -33.58499 c 0,0.01 -7.09363,16.2656 -7.09363,20.53934 z"
   clip-path="none" /><path
   id="path37"
   d="m 288.91673,159.38721 c 15.19227,0 23.05674,-3.86393 22.94941,-17.26084 -0.10733,-14.41169 -6.01056,-20.2954 -20.8906,-20.2954 -1.73682,0 -9.08414,-0.01 -9.08414,-0.01 l -0.12685,37.566 h 7.15218 m 45.78173,31.4969 c 8.53773,14.46048 12.54803,18.72446 21.01745,19.71972 v 7.02533 c 0,0 -16.76322,0 -20.98817,0 0,0 -5.9325,-1.57095 -14.79223,-10.42091 -6.41061,-6.41062 -15.47524,-21.38823 -15.47524,-21.38823 -6.62528,-10.8112 -12.69438,-16.27535 -19.02694,-16.27535 -0.79035,0 -2.87843,0.15612 -3.66878,0.15612 v 22.29567 c 0,12.97734 -1.86367,19.67092 13.32861,19.19281 v 6.44964 h -48.27963 v -6.44964 c 15.19228,0.47811 13.73842,-6.21547 13.73842,-19.19281 v -53.49009 c 0,-12.97735 0.31224,-20.432 -14.88004,-19.94413 v -5.69833 c 9.0256,0.15612 39.81021,0.15612 48.3577,0 7.59126,0.30248 19.15378,0.79035 26.11081,3.79563 10.29406,4.11763 16.15826,12.66511 16.15826,23.74952 0,14.07994 -13.28959,26.87189 -30.46262,26.87189 0,0 15.17277,0.41957 28.8624,23.60316 z"
   clip-path="none" /><path
   id="path39"
   d="m 426.15461,209.01337 c 0.69278,0.01 1.40507,0.01 2.14663,0.01 28.41356,0 25.74003,-7.80593 27.33049,-24.26667 h 6.80091 l -0.25369,32.8727 h -88.63626 v -7.02533 c 15.20203,0.47811 14.88004,-5.63978 14.88004,-18.61713 v -53.49009 c 0,-12.97735 0.32199,-19.09524 -14.88004,-18.62688 v -7.01558 h 52.50459 v 7.01558 c -15.19228,-0.46836 -16.74371,5.64953 -16.74371,18.62688 v 46.06471 c 0,3.17115 -0.039,22.15906 -0.039,24.56914 l 16.89007,-0.11709"
   clip-path="none" /><polyline
   style="fill:#ffffff"
   id="polyline41"
   points="87.282,1031.938 99.601,1031.938 99.601,1032.643 95.644,1032.643      95.644,1034.625 91.239,1034.625 91.239,1032.643 87.282,1032.643 87.282,1031.938    "
   clip-path="none"
   transform="matrix(9.7574038,0,0,9.7574038,-809.96209,-9812.7185)" /><polyline
   style="fill:#ffffff"
   id="polyline43"
   points="105.03,1034.625 105.03,1031.938 110.35,1031.938 112.72,1033.614      115.09,1031.938 120.41,1031.938 120.41,1034.625 116.453,1034.625 116.453,1033.804 116.509,1033.386 116.733,1032.901      116.695,1032.901 114.25,1034.625 111.189,1034.625 108.744,1032.901 108.707,1032.901 108.894,1033.297 108.987,1033.715      108.987,1034.625 105.03,1034.625    "
   clip-path="none"
   transform="matrix(9.7574038,0,0,9.7574038,-809.96209,-9812.7185)" /><path
   style="fill:#ffffff"
   id="path45"
   d="m 506.76052,266.32836 c -1.27822,-2.73207 -9.83546,-4.2835 -23.31043,-4.2835 -15.11422,0 -24.22764,2.58571 -24.22764,7.64005 0,3.67854 4.01029,7.13266 25.86688,7.13266 13.836,0 20.39297,-1.93197 22.03222,-4.43962 h 41.34212 c -3.82491,6.77164 -28.04278,10.85023 -62.65229,10.85023 -43.34239,0 -69.56053,-5.31778 -69.56053,-13.836 0,-8.48894 28.77458,-13.76769 65.3746,-13.76769 40.0639,0 62.4669,3.97126 65.93078,10.70387 h -40.79571"
   clip-path="none" /><path
   id="path47"
   d="m 506.3995,163.94392 c 0,20.26613 5.37633,46.48427 30.1211,46.48427 25.20338,0 30.89195,-22.72499 30.89195,-44.57182 0,-21.21259 -5.38609,-45.87931 -30.89195,-45.87931 -24.58865,-0.01 -30.1211,23.71049 -30.1211,43.96686 m -26.57917,0.95623 c 0,-33.88747 26.27669,-53.97796 57.15887,-53.97796 31.04806,0 57.01251,20.25637 57.01251,53.97796 0,33.71183 -26.42305,53.95844 -57.47111,53.95844 -30.89194,0.01 -56.70027,-20.55885 -56.70027,-53.95844 z"
   clip-path="none" />
</svg>