<?xml version="1.0" encoding="utf-8"?>
<!-- Generator: Adobe Illustrator 16.0.0, SVG Export Plug-In . SVG Version: 6.00 Build 0)  -->
<!DOCTYPE svg PUBLIC "-//W3C//DTD SVG 1.1//EN" "http://www.w3.org/Graphics/SVG/1.1/DTD/svg11.dtd">
<svg version="1.1" xmlns="http://www.w3.org/2000/svg" xmlns:xlink="http://www.w3.org/1999/xlink" x="0px" y="0px" width="640px"
	 height="430px" viewBox="0 0 640 430" enable-background="new 0 0 640 430" xml:space="preserve">
<g id="Fond">
	<rect x="320" fill="#FFFFFF" width="320" height="430"/>
	<rect width="320" height="430"/>
	<polygon fill="#FFE600" points="640,126.993 222.945,430 328.53,430 640,203.704 	"/>
	<polygon fill="#96C800" points="640,50.281 117.363,430 222.945,430 640,126.993 	"/>
	<polygon fill="#FFB4D2" points="640,0 603.621,0 11.777,430 117.363,430 640,50.281 	"/>
	<polygon fill="#F04650" points="498.036,0 0,361.845 0,430 11.777,430 603.621,0 	"/>
	<polygon fill="#0ACDFF" points="392.453,0 0,285.135 0,361.845 498.036,0 	"/>
	<polygon fill="#005ABE" points="286.869,0 0,208.422 0,285.135 392.453,0 	"/>
</g>
<g id="Télé">
	<path fill="#FFFFFF" d="M490,198.5c0.031-126-21-126-175.001-126C161,72.5,139.968,72.5,140,198.5v23
		c-0.034,126,19,126,174.999,126c154.001,0,175.032,0,175.001-126V198.5z"/>
</g>
<g id="TMC">
	<path d="M416.5,195H438c0,0,11.667-25.175-20.328-25.175c-31.253,0-40.929,14.744-44.079,27.175h-10.09
		c1.118-4.468,2.028-9.146,2.028-12.443c0-10.914-7-14.732-20.832-14.732c-8.025,0-13.674,1.028-21.699,8.693
		c-6.902-13-37.878-9.987-44.275-0.913c0.854-4.157-4.263-7.605-17.057-7.605h-11.653h-0.014H232l6.5-24H232
		c-9.05,12-22.796,20.929-37.822,24.307l-1.88,8.693h12.867c-0.684,1-10.661,33.085-10.661,36.594
		c0.171,8.186,7.869,13.406,21.529,13.406H229l3-10.217c0,0-13.414,1.774-11.91-6.05L229.685,179h15.991
		c0,0,8.529,0.125,7.063,5.625L240.709,229h24.587l10.246-34.696c1.919-6.254,4.96-11.987,14.91-11.654
		c8.549,0.286,5.971,9.901,4.265,15.228L286.188,229h23.677l10.247-34.696c1.524-6.545,6.323-11.916,14.051-11.653
		c7.723,0.262,7.229,9.168,5.33,15.227L330.963,229h22.957l6.997-23h11.301c-1.397,22.982,16.736,23,28.928,23
		C432.733,229,435,207,435,207h-22c0,0-1.809,4.773-2.832,7.076c-3.701,8.324-13.094,9.3-14.168,0.924c-0.647-5.05,8-30,8-30
		c3.718-10.532,17.801-10.2,14,4.136L416.5,195z"/>
</g>
<g id="Couleur">
	<path d="M143.709,286h342.367c1.829-10.211,2.896-22.116,3.441-36H140.445C140.953,263.884,141.956,275.789,143.709,286z"/>
	<path fill="#FFE65A" d="M386.31,256.024h11.265c5.187,0,7.797,2.378,7.797,6.376c0,4.525-3.105,5.682-3.898,5.946v0.065
		c1.421,0.165,3.502,1.289,3.502,4.988c0,2.775,0.396,5.253,1.288,6.211h-4.427c-0.628-1.024-0.628-2.313-0.628-3.469
		c0-4.327-0.892-6.243-4.69-6.243h-6.079v9.712h-4.129V256.024z M390.438,266.761h6.772c2.643,0,4.03-1.256,4.03-3.767
		c0-3.039-1.949-3.601-4.096-3.601h-6.707V266.761z"/>
	<path fill="#96C800" d="M357.302,256.024h4.13v13.742c0,3.172,0.198,6.839,5.55,6.839s5.55-3.667,5.55-6.839v-13.742h4.13v15.097
		c0,6.046-3.865,9.052-9.68,9.052s-9.68-3.006-9.68-9.052V256.024z"/>
	<path fill="#0ABEE6" d="M332.523,256.024h16.98v3.567h-12.852v6.178h11.894v3.369h-11.894v6.905h13.082v3.567h-17.211V256.024z"/>
	<path fill="#FFDC00" d="M309,256.024h4.129v20.02h11.993v3.567H309V256.024z"/>
	<path fill="#F04650" d="M279.993,256.024h4.129v13.742c0,3.172,0.198,6.839,5.55,6.839s5.55-3.667,5.55-6.839v-13.742h4.129v15.097
		c0,6.046-3.865,9.052-9.679,9.052c-5.814,0-9.679-3.006-9.679-9.052V256.024z"/>
	<path fill="#B491AA" d="M269.452,267.817c0,6.772-4.262,12.355-11.298,12.355c-7.036,0-11.298-5.583-11.298-12.355
		c0-6.706,4.262-12.354,11.298-12.354C265.19,255.463,269.452,261.111,269.452,267.817z M250.985,267.817
		c0,4.526,2.114,8.986,7.168,8.986c5.055,0,7.169-4.46,7.169-8.986c0-4.525-2.114-8.985-7.169-8.985
		C253.099,258.832,250.985,263.292,250.985,267.817z"/>
	<path fill="#96466E" d="M235.291,263.523c-0.694-2.742-2.444-4.691-5.88-4.691c-5.054,0-7.168,4.46-7.168,8.985
		c0,4.526,2.114,8.986,7.168,8.986c3.7,0,5.649-2.742,6.013-6.178h4.03c-0.363,5.648-4.328,9.547-10.043,9.547
		c-7.036,0-11.298-5.583-11.298-12.355c0-6.706,4.262-12.354,11.298-12.354c5.352,0,9.481,2.973,10.01,8.061H235.291z"/>
</g>
</svg>
