<?xml version="1.0" encoding="utf-8"?>
<!-- Generator: Adobe Illustrator 15.0.0, SVG Export Plug-In . SVG Version: 6.00 Build 0)  -->
<!DOCTYPE svg PUBLIC "-//W3C//DTD SVG 1.1//EN" "http://www.w3.org/Graphics/SVG/1.1/DTD/svg11.dtd">
<svg version="1.1" xmlns="http://www.w3.org/2000/svg" xmlns:xlink="http://www.w3.org/1999/xlink" x="0px" y="0px" width="675px"
	 height="515px" viewBox="0 0 675 515" enable-background="new 0 0 675 515" xml:space="preserve">
<g id="Calque_9">
	<rect x="0.437" y="0.254" width="675" height="515"/>
</g>
<g id="Calque_7">
	<g id="Calque_6">
		<g id="Calque_2">
			
				<ellipse fill="none" stroke="#FFFFFF" stroke-width="2" stroke-miterlimit="10" cx="337.5" cy="254.194" rx="287.774" ry="81.541"/>
			<path fill="none" stroke="#FFFFFF" stroke-width="2" stroke-miterlimit="10" d="M596.834,122.894
				c16.712,36.52-85.816,124.979-229.003,197.581C224.642,393.076,95.02,422.326,78.308,385.811
				c-16.712-36.52,85.817-124.982,229.005-197.583C450.501,115.626,580.123,86.375,596.834,122.894z"/>
			<path fill="none" stroke="#FFFFFF" stroke-width="2" stroke-miterlimit="10" d="M78.309,122.894
				c-16.713,36.52,85.816,124.979,229.003,197.581c143.189,72.602,272.811,101.852,289.522,65.336
				c16.711-36.52-85.816-124.982-229.004-197.583C224.641,115.626,95.018,86.375,78.309,122.894z"/>
		</g>
		<g id="Calque_4">
			<path fill="#FFFFFF" d="M340.782,50.3c-11.704,0-21.883,2.817-31.046,9.018c-39.188,27.624-57.509,84-57.509,169.689
				c0,68.214,23.921,168,86.519,168c13.742,0,24.938-5.639,35.116-14.095c23.922-19.169,49.876-67.65,49.876-165.179
				C423.738,152.34,402.365,50.3,340.782,50.3z M336.634,391.447c0,0-64.231,5.561-64.231-167.829
				c0-111.703,28.758-167.828,64.231-167.828c35.475,0,64.233,43.139,64.233,167.828
				C400.867,316.308,376.738,401.742,336.634,391.447z"/>
		</g>
	</g>
	<g id="Calque_8">
		<path fill="#FFFFFF" d="M143.763,144.412c10.25,2.562,12.813,5.459,13.512,12.629c0.233,5.63,0.233,10.661,0.233,63.139
			c0,38.91-0.7,55.501-1.165,63.951c-0.467,8.192-2.795,11.276-13.512,13.581c-2.849,0.674-4.63,2.542-5.036,3.542h58.927
			c-0.404-1-1.695-2.752-4.645-3.563c-10.482-3.068-12.641-7.207-13.641-16.933v-60.665c51,80.108,85.063,100.104,83.73,98.252
			c-31.78-44.187-53.021-100.941-52.789-100.941c13.978-5.63,38.281-15.997,38.281-37.756c0-7.755,1.251-21.621-10.546-32.046
			c0,0-5.675-6.348-17.998-6.348h-80.939C138.219,142.254,139.635,143.404,143.763,144.412z M178.437,151.203
			c18-15.668,49.778,3.242,47.277,30.75c-1.69,18.6-30.277,35.452-47.277,24.18V151.203z"/>
		<path fill="#FFFFFF" d="M297.838,150.254h30.598v123.337c-2,13.566-1.938,21.286-14.63,24.358
			c-2.205,0.219-4.198,2.305-4.631,3.305h55.006c-0.254-1-1.316-2.879-3.603-3.563c-12.691-3.84-14.143-6.694-14.143-28.452V150.254
			h29.003c0,0,15.205,19.57,17.59,21.353l-4.031-30.353H284.764l-3.786,28.75c0.143,0.157,0.303-0.214,0.49-0.214
			C282.572,169.79,297.838,150.254,297.838,150.254z"/>
		<path fill="#FFFFFF" d="M427.98,141.254c0.304,1,22.456,11.665,22.456,11.665v136.938c0,0-6.678,5.785-18.621,8.348
			c-2.627,0.818-3.921,2.049-4.384,3.049h65.637c-0.756-1-4.325-3.953-7.047-4.412c-12.648-2.561-14.585-6.984-14.585-6.984v-76.604
			h39.876l9.124,19.976v-55.6l-9.124,27.625h-39.876v-52.335c-1-5.525,35.088-4.119,35.088-4.119
			c12.414,1.278,31.528,5.102,34.19,24.713l3.854-32.26H427.98z"/>
	</g>
	<g>
		<path fill="#FFFFFF" d="M182.524,424.797c-1.762-6.578,0.165-11.695,5.784-15.352c4.662-2.988,10.594-4.484,17.792-4.484
			c3.799,0,8.154,0.334,13.065,1c2.838,0.4,7.234,1.133,13.185,2.199c2.168-0.865,4.648-1.615,7.445-2.25
			c2.795-0.633,5.394-0.949,7.793-0.949c1.865,0,3.594,0.234,5.186,0.701c2.397,0.732,3.791,1.832,4.184,3.299
			c0.5,1.865-1.301,3.232-5.4,4.096c-1.644,0.336-3.199,0.502-4.665,0.502c-2.666,0-5.381-0.184-8.144-0.549
			c-2.765-0.367-5.744-0.916-8.94-1.65c-5.362,3.865-10.17,7.932-14.426,12.197c-5.236,5.332-8.919,10.361-11.051,15.094
			c4.864,0,8.888-0.465,12.071-1.398c3.182-0.934,6.248-2.732,9.2-5.4c2.071-2.465,4.142-4.93,6.215-7.398h0.7l0.262,0.604
			c-0.199,1.746-0.427,3.137-0.68,4.18c-0.256,1.039-0.705,2.096-1.351,3.168c-1.999,3.488-5.96,5.734-11.89,6.74
			c-3.055,0.539-8.249,0.807-15.579,0.807c-2.394,3.256-4.402,7.076-6.026,11.461c-2.005,5.449-2.544,9.9-1.619,13.355
			c0.801,2.99,2.581,5.283,5.342,6.879c2.439,1.396,5.224,2.092,8.358,2.092c6.331,0,12.229-1.863,17.695-5.596
			c6.302-4.332,8.669-9.432,7.097-15.297c-0.499-1.863-1.618-3.299-3.351-4.299c-1.734-0.998-3.568-1.5-5.5-1.5
			c-5.265,0-9.823,2.268-13.673,6.799c-3.198,3.734-5.49,8.363-6.873,13.896h-0.799c-0.504-5.355,1.431-10.41,5.805-15.164
			c4.375-4.752,9.254-7.131,14.639-7.131c2.659,0,5.072,0.699,7.242,2.102c2.168,1.398,3.602,3.396,4.299,5.996
			c1.607,6-0.957,11.23-7.69,15.697c-5.83,3.865-12.042,5.797-18.641,5.797c-4.199,0-7.834-1.002-10.902-3.008
			c-3.39-2.205-5.649-5.41-6.778-9.623c-0.985-3.674-0.98-7.885,0.015-12.629c0.884-4.412,2.289-8.119,4.216-11.129
			c-3.85-1.928-6.695-3.721-8.541-5.383C185.121,431.008,183.433,428.186,182.524,424.797z M227.174,410.859
			c-3.234-0.877-7.379-1.611-12.437-2.207c-5.059-0.594-9.387-0.891-12.985-0.891c-5.933,0-10.622,1.398-14.07,4.197
			c-3.941,3.199-5.152,7.633-3.635,13.295c0.769,2.867,2.413,5.4,4.935,7.6c2.082,1.799,4.774,3.396,8.083,4.799
			c4.427-6.111,8.824-11.217,13.193-15.311C215.688,417.238,221.326,413.412,227.174,410.859z M250.667,410.859
			c1.666,0,2.805-0.166,3.416-0.5c0.61-0.332,0.908-0.9,0.894-1.701c-0.474-1.021-1.317-1.678-2.526-1.965
			c-1.211-0.287-2.649-0.432-4.315-0.432c-2.733,0-4.877,0.143-6.432,0.43c-1.557,0.287-3.373,0.912-5.447,1.869
			C241.13,410.094,245.934,410.859,250.667,410.859z"/>
		<path fill="#FFFFFF" d="M243.739,470.439c0.268,1.002,0.785,1.752,1.552,2.25c0.767,0.5,1.683,0.75,2.75,0.75
			c3.464,0,7.525-1.633,12.183-4.898c1.958-1.4,5.297-4.23,10.02-8.496l1.148,1.299c-3.787,3.533-7.282,6.398-10.493,8.598
			c-4.972,3.332-9.292,4.998-12.956,4.998c-3.799,0-6.269-2.133-7.412-6.398c-1.5-5.598,0.605-11.48,6.319-17.645
			c5.712-6.162,11.434-9.246,17.166-9.246c2.399,0,3.894,1.1,4.483,3.299c0.75,2.799-1.983,6.033-8.199,9.695
			c-2.77,1.6-7.173,3.699-13.208,6.299c-0.847,1.066-1.655,2.535-2.42,4.398C243.746,467.609,243.436,469.309,243.739,470.439z
			 M266.438,444.35c-0.25-0.932-0.976-1.4-2.175-1.4c-2.934,0-6.711,2.934-11.339,8.797c-2.134,2.734-3.726,4.998-4.776,6.799
			c2.932,0,6.785-1.664,11.557-5C264.872,449.947,267.117,446.883,266.438,444.35z M267.021,421.156h8.497l-5.938,5.445
			l-4.998,4.852h-2.299L267.021,421.156z"/>
		<path fill="#FFFFFF" d="M291.458,461.244c-2.96,3.133-4.785,5.031-5.471,5.697c-5.06,4.998-9.021,7.498-11.887,7.498
			c-2.533,0-4.191-1.467-4.979-4.404c-0.983-3.672,0.401-9.443,4.156-17.322c1.651-3.535,4.619-8.877,8.904-16.018
			c4.771-7.809,8.859-13.816,12.266-18.021c6.518-8.008,12.143-12.014,16.875-12.014c1.532,0,2.532,0.871,2.998,2.609
			c0.717,2.672-1.145,6.918-5.586,12.734c-4.439,5.814-10.959,12.701-19.557,20.652l-7.697,6.719
			c-0.784,0.805-1.933,2.861-3.445,6.17c-1.513,3.307-2.502,5.463-2.965,6.465c-1.108,2.34-1.958,4.328-2.552,5.965
			c-0.594,1.641-0.836,2.66-0.729,3.059c0.376,1.404,1.197,2.105,2.463,2.105c2.065,0,4.955-1.777,8.667-5.338
			c1.961-1.879,4.384-4.531,7.265-7.957L291.458,461.244z M312.199,409.559c-0.286-1.064-0.929-1.6-1.93-1.6
			c-2.798,0-6.168,2.6-10.105,7.799c-2.994,3.998-6.264,9.332-9.809,15.996c-0.76,1.398-2.946,5.797-6.563,13.195
			c2.455-1.531,6.031-4.6,10.732-9.197c5.223-5.133,9.444-9.896,12.664-14.295C311.189,415.992,312.859,412.025,312.199,409.559z"/>
		<path fill="#FFFFFF" d="M294.822,470.439c0.268,1.002,0.784,1.752,1.552,2.25c0.768,0.5,1.684,0.75,2.751,0.75
			c3.464,0,7.525-1.633,12.183-4.898c1.957-1.4,5.297-4.23,10.02-8.496l1.147,1.299c-3.785,3.533-7.282,6.398-10.492,8.598
			c-4.973,3.332-9.292,4.998-12.957,4.998c-3.799,0-6.27-2.133-7.412-6.398c-1.5-5.598,0.606-11.48,6.319-17.645
			c5.712-6.162,11.434-9.246,17.166-9.246c2.399,0,3.894,1.1,4.483,3.299c0.75,2.799-1.982,6.033-8.199,9.695
			c-2.77,1.6-7.174,3.699-13.208,6.299c-0.848,1.066-1.655,2.535-2.42,4.398C294.828,467.609,294.518,469.309,294.822,470.439z
			 M317.521,444.35c-0.25-0.932-0.976-1.4-2.174-1.4c-2.935,0-6.712,2.934-11.34,8.797c-2.133,2.734-3.726,4.998-4.775,6.799
			c2.932,0,6.784-1.664,11.557-5C315.955,449.947,318.2,446.883,317.521,444.35z M318.104,421.156h8.497l-5.938,5.445l-4.998,4.852
			h-2.299L318.104,421.156z"/>
		<path fill="#FFFFFF" d="M334.74,442.949c-0.546,1.197-1.939,3.953-4.182,8.271c-2.659,5.248-4.551,9.133-5.674,11.656
			c-1.86,4.252-2.674,6.811-2.443,7.674c0.498,1.859,1.779,2.787,3.847,2.787c3.731,0,7.829-3.111,12.292-9.342
			c1.596-2.25,3.195-4.869,4.795-7.852c-0.75-2.799-0.916-5.531-0.498-8.195c0.508-3.334,1.863-5.232,4.072-5.699
			c0.719,0.199,1.213,0.799,1.48,1.799c0.412,1.533,0.135,3.732-0.83,6.598c-0.652,1.799-1.521,3.9-2.611,6.299
			c1.061,0.967,1.631,1.488,1.717,1.555c1.088,0.83,2.197,1.244,3.332,1.244h2.398l0.35,1.301l-2.74,0.1
			c-1.094,0-2.102-0.25-3.021-0.75s-1.959-1.25-3.113-2.25c-1.445,3.246-3.75,6.623-6.909,10.137
			c-3.894,4.238-7.263,6.357-10.104,6.357c-3.706,0-6.093-1.992-7.161-5.979c-0.872-3.256,0.698-8.836,4.712-16.742
			c1.531-2.99,3.062-5.979,4.595-8.969H334.74z"/>
		<path fill="#FFFFFF" d="M367.702,442.85c-2.691,4.881-4.279,7.789-4.762,8.725c-2.799,5.217-4.863,9.328-6.189,12.338
			c-2,4.479-2.846,7.287-2.541,8.424c0.107,0.402,0.367,0.688,0.779,0.854c0.408,0.168,0.926,0.285,1.543,0.35
			c2.254-0.535,5.023-2.383,8.313-5.539c2.551-2.418,8.096-7.57,10.045-10.256l1.045,1.221c-3.346,3.934-8.844,9.211-10.449,10.676
			c-3.738,3.467-6.875,5.197-9.406,5.197c-2.334,0-3.855-1.33-4.57-3.998c-1.035-3.863,0.578-10.029,4.842-18.494
			c2.695-4.865,4.445-8.031,5.252-9.496H367.702z M370.978,424.854c0.732,0,1.48,0.301,2.24,0.9s1.248,1.301,1.463,2.1
			c0.303,1.135,0.072,2.135-0.695,3s-1.719,1.299-2.85,1.299c-0.736,0-1.432-0.232-2.088-0.699c-0.66-0.465-1.096-1.102-1.311-1.9
			c-0.32-1.199-0.16-2.281,0.479-3.248C368.858,425.34,369.778,424.854,370.978,424.854z"/>
		<path fill="#FFFFFF" d="M375.935,458.965l-1.045-1.221l14.551-15.096c0.16-1.639,0.359-2.887,0.598-3.738
			c0.475-1.707,1.18-2.559,2.113-2.559l0.781,0.299l0.42,1.197c0.125,0.465-0.24,1.395-1.094,2.791
			c-0.621,0.996-1.23,1.895-1.836,2.691l0.828,3.092c0.25,0.932,0.738,2.51,1.469,4.738c0.73,2.227,1.123,3.439,1.176,3.637
			c1.229,4.586,0.113,9.006-3.344,13.262c-3.459,4.256-7.488,6.381-12.086,6.381c-3.199,0-5.191-1.465-5.979-4.398
			c-0.34-1.266-0.27-2.314,0.207-3.15c0.477-0.832,1.346-1.248,2.613-1.248c0.666,0,1.242,0.283,1.727,0.85s0.828,1.215,1.023,1.949
			c0.143,0.533-0.09,1.033-0.697,1.5c-0.609,0.465-1.221,0.801-1.832,1l-0.113,0.699l0.107,0.4c0.268,0.998,1.068,1.498,2.402,1.498
			c4.664,0,8.18-3.664,10.549-10.992c2.098-6.594,2.461-12.455,1.088-17.584l-0.121-0.5L375.935,458.965z"/>
		<path fill="#FFFFFF" d="M414.386,442.85c-2.689,4.881-4.279,7.789-4.76,8.725c-2.801,5.217-4.865,9.328-6.191,12.338
			c-1.998,4.479-2.846,7.287-2.541,8.424c0.107,0.402,0.367,0.688,0.779,0.854c0.408,0.168,0.926,0.285,1.543,0.35
			c2.254-0.535,5.025-2.383,8.313-5.539c2.551-2.418,4.799-4.969,6.746-7.656l1.32,1.199c-3.346,3.934-5.82,6.633-7.428,8.098
			c-3.736,3.467-6.871,5.197-9.404,5.197c-2.332,0-3.855-1.33-4.57-3.998c-1.035-3.863,0.578-10.029,4.844-18.494
			c2.693-4.865,4.445-8.031,5.25-9.496H414.386z M417.663,424.854c0.73,0,1.479,0.301,2.238,0.9c0.762,0.6,1.25,1.301,1.463,2.1
			c0.305,1.135,0.072,2.135-0.695,3s-1.719,1.299-2.85,1.299c-0.736,0-1.43-0.232-2.088-0.699c-0.66-0.465-1.096-1.102-1.309-1.9
			c-0.322-1.199-0.162-2.281,0.479-3.248C415.542,425.34,416.462,424.854,417.663,424.854z"/>
		<path fill="#FFFFFF" d="M450.868,459.244l0.822,1.201l-2.92,0.299c-0.6,0-1.313-0.166-2.133-0.5
			c-0.822-0.334-1.705-0.766-2.648-1.299c-1.654,3.773-3.947,7.152-6.881,10.133c-3.672,3.707-7.375,5.561-11.105,5.561
			c-1.668,0-3.133-0.547-4.389-1.643c-1.262-1.098-2.125-2.51-2.586-4.236c-1.531-5.715,0.406-11.662,5.816-17.842
			c5.408-6.18,11.045-9.268,16.91-9.268c1.133,0,2.174,0.4,3.119,1.199c0.949,0.799,1.574,1.766,1.877,2.898
			c0.395,1.467,0.363,3.467-0.092,5.998c-0.33,2-0.855,3.9-1.572,5.699c0.779,0.668,1.42,1.133,1.926,1.398
			c0.504,0.268,1.121,0.4,1.855,0.4H450.868z M445.063,447.248c0.148-0.664,0.16-1.232,0.035-1.699
			c-0.463-1.734-1.559-2.6-3.285-2.6c-3.389,0-7.73,3.752-13.025,11.26s-7.498,12.92-6.607,16.24
			c0.25,0.932,0.789,1.645,1.623,2.145c0.832,0.496,1.75,0.744,2.75,0.744c3.266,0,6.598-1.984,10-5.959
			c2.336-2.715,4.465-6.094,6.381-10.135c-0.643-2.398-0.852-4.398-0.625-5.998C442.532,449.648,443.452,448.314,445.063,447.248z"
			/>
		<path fill="#FFFFFF" d="M457.972,442.85h5.197l-5.902,12.297c5.564-5.6,9.152-9,10.766-10.197
			c2.941-2.199,5.379-3.299,7.313-3.299c1.064,0,2.031,0.25,2.9,0.752c0.867,0.502,1.445,1.287,1.73,2.355
			c0.807,3.01,0.002,6.854-2.408,11.535c-2.688,5.148-5.346,10.262-7.982,15.342c0.268,1.004,1.1,1.504,2.5,1.504
			c1.932,0,5.031-1.744,9.293-5.238c3.393-2.754,6.076-5.307,8.047-7.656l1.014,0.801c-2.941,3.197-5.752,5.896-8.428,8.096
			c-4.318,3.535-7.678,5.299-10.076,5.299c-2.535,0-4.111-1.162-4.734-3.488c-1.121-4.186,0.389-9.365,4.531-15.545
			c4.145-6.178,6.055-9.865,5.734-11.061c-0.25-0.932-0.941-1.396-2.072-1.396c-2.867,0-7.293,3.256-13.279,9.766
			c-2.389,2.523-4.416,4.916-6.076,7.176c-1.482,1.926-2.928,4.117-4.336,6.574c-1.113,2.061-2.297,4.484-3.549,7.273l-5.77,0.102
			c2.613-4.666,5.313-9.764,8.096-15.295C453.022,453.613,455.521,448.383,457.972,442.85z"/>
	</g>
	<g>
		<path fill="#FFFFFF" d="M273.672,45.782c0-16.563,20.619-28.282,67.499-28.282c44.181,0,64.313,10.817,64.313,25.126
			c0,27.606-83.454,26.366-103.339,44.508h103.339V97.5h-135c5.153-36.732,108.99-32.113,108.99-54.986
			c0-11.268-16.946-15.549-36.832-15.549c-30.431,0-43.684,7.774-44.419,18.817H273.672z"/>
	</g>
</g>
</svg>
