<?xml version="1.0" encoding="utf-8"?>
<!-- Generator: Adobe Illustrator 15.0.0, SVG Export Plug-In . SVG Version: 6.00 Build 0)  -->
<!DOCTYPE svg PUBLIC "-//W3C//DTD SVG 1.1//EN" "http://www.w3.org/Graphics/SVG/1.1/DTD/svg11.dtd">
<svg version="1.1" xmlns="http://www.w3.org/2000/svg" xmlns:xlink="http://www.w3.org/1999/xlink" x="0px" y="0px" width="675px"
	 height="515px" viewBox="0 0 675 515" enable-background="new 0 0 675 515" xml:space="preserve">
<g id="Calque_9">
	<rect x="0.437" y="-0.246" fill="#B44114" width="675" height="515"/>
	<rect x="0.437" y="257.754" fill="#BE6E2D" width="675" height="257"/>
</g>
<g id="Calque_7">
	<g>
		<path d="M79.117,187.511v-54.161h27.789c12.072,0,21.097,2.703,27.1,8.099c6.002,5.393,9.004,11.641,9.004,18.729
			c0,8.086-3.222,14.666-9.654,19.733c-6.445,5.062-14.803,7.6-25.086,7.6H79.117z M101.165,175.053h5.741
			c3.643,0,6.732-1.333,9.229-4.013c2.51-2.667,3.765-6.307,3.765-10.91c0-3.94-1.109-7.339-3.339-10.189
			c-2.23-2.857-5.44-4.289-9.654-4.289h-5.741V175.053z"/>
		<path d="M206.364,174.572v12.939h-54.039v-54.161h54.039v12.508h-32.416v7.845h26.212v12.026h-26.212v8.842H206.364z"/>
		<path d="M273.363,133.351v35.871c0,6.791-2.673,11.677-8.021,14.656c-5.348,2.978-12.327,4.462-20.922,4.462
			c-9.054,0-16.329-1.428-21.81-4.288c-5.495-2.848-8.242-7.51-8.242-13.962v-36.74h22.423v34.794c0,2.595,0.727,4.485,2.17,5.683
			c1.455,1.189,3.771,1.779,6.96,1.779c2.653,0,4.834-0.427,6.535-1.293c1.691-0.852,2.712-1.83,3.044-2.912
			c0.328-1.082,0.499-3.195,0.499-6.344v-31.707H273.363z"/>
		<path d="M346.631,133.351l-20.874,25.128l24.198,29.033h-25.664l-13.259-17.056l-13.39,17.056h-20.183l23.134-27.964
			l-22.196-26.196h25.723l11.145,14.575l11.57-14.575H346.631z"/>
		<path d="M376.779,133.351v54.161h-22.06v-54.161H376.779z"/>
		<path d="M443.361,174.572v12.939h-54.051v-54.161h54.051v12.508h-32.438v7.845h26.211v12.026h-26.211v8.842H443.361z
			 M427.985,134.762l-5.947,4.547l-18.702-11.015l8.423-6.492L427.985,134.762z"/>
		<path d="M530.176,133.351v54.161h-20.458v-38.723l-13.282,38.723H482.43l-13.827-38.723v38.723H452.09v-54.161h28.814
			l10.403,28.762l9.956-28.762H530.176z"/>
		<path d="M596.757,174.572v12.939h-54.049v-54.161h54.049v12.508h-32.415v7.845h26.211v12.026h-26.211v8.842H596.757z"/>
		<path d="M196.146,257.943l20.148,0.905c-0.939,6.687-4.194,11.795-9.755,15.368c-5.561,3.55-12.394,5.335-20.497,5.335
			c-9.759,0-17.633-2.438-23.636-7.339c-6.002-4.901-8.993-11.636-8.993-20.256c0-8.524,2.841-15.402,8.518-20.643
			c5.69-5.237,13.615-7.855,23.786-7.855c9.514,0,16.82,2,21.922,5.985c5.103,3.981,7.996,9.27,8.655,15.859l-20.573,0.834
			c0-3.645-0.924-6.276-2.763-7.895c-1.838-1.616-4.011-2.426-6.503-2.426c-6.941,0-10.417,5.289-10.417,15.863
			c0,5.938,0.909,9.959,2.713,12.081c1.805,2.126,4.34,3.188,7.604,3.188C192.177,266.948,195.441,263.953,196.146,257.943z"/>
		<path d="M284.123,224.3v54.417h-22.048v-21.182H245.23v21.182h-22.048V224.3h22.048v20.003h16.844V224.3H284.123z"/>
		<path d="M336.205,278.716l-4.059-10.73h-19.242l-4.313,10.73h-17.903l22.18-54.417h23.31l22.542,54.417H336.205z M316.656,256.107
			h11.622l-5.813-15.787L316.656,256.107z"/>
		<path d="M386.081,218.276l-7.821,0.847l-5.777-5.233l-5.721,5.233l-7.795-0.847l13.516-12.674L386.081,218.276z M384.002,224.3
			v54.417h-22.035V224.3H384.002z"/>
		<path d="M457.133,278.716h-17.958l-19.676-24.06c-2.525-3.07-5.071-6.809-7.638-11.225c1.15,3.502,1.753,6.474,1.753,8.935v26.35
			h-17.91V224.3h20.837l16.759,19.93c3.319,3.96,5.844,7.437,7.57,10.451c-1.137-4.657-1.695-9.414-1.695-14.289V224.3h17.958
			V278.716z"/>
		<path d="M522.462,265.705v13.011h-54.051V224.3h54.051v12.554h-32.416v7.897h26.212v12.081h-26.212v8.873H522.462z"/>
		<path d="M128.177,373.607l23.708,1.117c-1.114,8.057-4.938,14.225-11.494,18.546c-6.534,4.284-14.574,6.447-24.095,6.447
			c-11.454,0-20.737-2.95-27.779-8.87c-7.053-5.894-10.582-14.06-10.582-24.474c0-10.3,3.33-18.618,10.026-24.951
			c6.683-6.327,16.001-9.491,27.976-9.491c11.164,0,19.759,2.421,25.765,7.231c5.995,4.816,9.392,11.208,10.183,19.171
			l-24.212,1.006c0-4.377-1.072-7.559-3.246-9.515c-2.162-1.983-4.692-2.954-7.627-2.954c-8.168,0-12.24,6.386-12.24,19.165
			c0,7.179,1.034,12.031,3.159,14.602c2.126,2.569,5.104,3.851,8.937,3.851C123.519,384.488,127.353,380.869,128.177,373.607z"/>
		<path d="M198.766,399.718c-11.122,0-20.196-3.074-27.187-9.205c-7.013-6.13-10.525-14.343-10.525-24.61
			c0-9.828,3.344-17.935,10.054-24.337c6.688-6.403,15.997-9.634,27.881-9.634c11.022,0,19.979,3.033,26.924,9.069
			c6.923,6.038,10.39,14.095,10.39,24.185c0,10.421-3.493,18.801-10.489,25.075C218.841,396.563,209.809,399.718,198.766,399.718z
			 M198.653,384.774c4.094,0,7.039-1.464,8.838-4.452c1.789-2.964,2.683-8.395,2.683-16.298c0-11.438-3.684-17.153-11.048-17.153
			c-7.973,0-11.953,6.529-11.953,19.569C187.172,378.666,191,384.774,198.653,384.774z"/>
		<path d="M307.632,332.967v43.526c0,8.258-2.957,14.203-8.838,17.803c-5.881,3.606-13.577,5.422-23.027,5.422
			c-9.971,0-17.959-1.724-24.008-5.192c-6.049-3.475-9.074-9.132-9.074-16.956v-44.603h24.689v42.231
			c0,3.147,0.797,5.439,2.392,6.897c1.587,1.427,4.165,2.174,7.642,2.174c2.943,0,5.32-0.53,7.206-1.569
			c1.863-1.063,2.994-2.228,3.345-3.544c0.375-1.336,0.545-3.904,0.545-7.723v-38.467H307.632z"/>
		<path d="M372.904,382.563v16.147h-55.459v-65.743h24.278v49.596H372.904z"/>
		<path d="M440.834,383.016v15.694h-59.465v-65.743h59.465v15.158H405.18v9.538h28.85v14.599h-28.85v10.754H440.834z"/>
		<path d="M514.574,332.967v43.526c0,8.258-2.951,14.203-8.796,17.803c-5.915,3.606-13.589,5.422-23.063,5.422
			c-9.979,0-17.937-1.724-23.984-5.192c-6.05-3.475-9.063-9.132-9.063-16.956v-44.603h24.632v42.231
			c0,3.147,0.831,5.439,2.402,6.897c1.595,1.427,4.153,2.174,7.655,2.174c2.93,0,5.354-0.53,7.228-1.569
			c1.828-1.063,2.938-2.228,3.323-3.544c0.385-1.336,0.544-3.904,0.544-7.723v-38.467H514.574z"/>
		<path d="M597.937,398.71h-26.889l-11.561-25.147h-7.654v25.147h-24.257v-65.743h41.266c9.104,0,16.188,1.756,21.229,5.302
			c5.039,3.543,7.57,8.234,7.57,14.041c0,3.792-0.897,7.153-2.758,10.058c-1.883,2.903-5.594,5.46-11.223,7.678L597.937,398.71z
			 M551.833,359.497h10.354c3.062,0,5.511-0.54,7.372-1.59c1.886-1.046,2.757-2.609,2.757-4.678c0-4.206-3.087-6.319-9.287-6.319
			h-11.196V359.497z"/>
	</g>
</g>
</svg>
