<?xml version="1.0" encoding="UTF-8" standalone="no"?>
<!-- Created with Inkscape (http://www.inkscape.org/) -->

<svg
   xmlns:dc="http://purl.org/dc/elements/1.1/"
   xmlns:cc="http://creativecommons.org/ns#"
   xmlns:rdf="http://www.w3.org/1999/02/22-rdf-syntax-ns#"
   xmlns:svg="http://www.w3.org/2000/svg"
   xmlns="http://www.w3.org/2000/svg"
   xmlns:xlink="http://www.w3.org/1999/xlink"
   xmlns:sodipodi="http://sodipodi.sourceforge.net/DTD/sodipodi-0.dtd"
   xmlns:inkscape="http://www.inkscape.org/namespaces/inkscape"
   width="654"
   height="107"
   id="svg2"
   version="1.1"
   inkscape:version="0.47 r22583">
  <g
     inkscape:label="Layer 1"
     inkscape:groupmode="layer"
     id="layer1"
     transform="translate(-235.14806,-227.02516)">
    <path
       d="m 274.64805,273.65575 42.24668,0 1.63492,-15.94299 -42.24667,0 -1.63493,15.94299"
       id="path3027"
       style="fill:#0d0808;fill-rule:nonzero;stroke:none" />
    <path
       d="m 793.77206,260.07746 -0.26159,2.0223 -42.44288,0 0.1962,-2.0223 c 1.37335,-12.82931 4.44702,-14.34871 16.80711,-14.34871 l 11.90232,0 c 12.3601,0 15.10678,1.5194 13.79884,14.34871 z m -12.16391,-33.0523 -10.72516,0 c -30.40976,0 -38.38824,4.7294 -40.48095,24.7277 l -5.49338,52.1625 22.56208,0 2.74669,-25.8726 40.80793,0 -2.68128,25.8726 23.08525,0 5.49337,-52.1625 c 2.09272,-19.9983 -4.90479,-24.7277 -35.31455,-24.7277"
       id="path3029"
       style="fill:#0d0808;fill-rule:nonzero;stroke:none" />
    <path
       d="m 333.04786,252.18085 -5.42798,51.72381 76.25329,0.0108 1.70034,-15.9323 -53.75661,0 1.50414,-14.3273 53.7566,0 1.63493,-15.943 -54.41057,0 c 1.63492,-9.28759 5.68956,-14.3273 16.67632,-14.3273 l 39.2384,0 1.70032,-15.9323 -38.38822,0 c -30.40977,0 -38.38824,4.72941 -40.48096,24.7277"
       id="path3031"
       style="fill:#0d0808;fill-rule:nonzero;stroke:none" />
    <path
       d="m 243.78051,252.18085 -5.49337,51.73451 22.62747,0 5.23178,-50.0225 c 0.91557,-8.7954 5.29719,-10.50741 16.28394,-10.50741 l 38.51903,0 1.70033,-15.9323 -38.38824,0 c -30.40976,0 -38.38822,4.72941 -40.48094,24.7277"
       id="path3033"
       style="fill:#0d0808;fill-rule:nonzero;stroke:none" />
    <path
       d="m 861.98146,287.98305 c -12.36009,0 -15.10677,-1.53009 -13.79883,-14.3594 l 4.90481,-46.1705 -22.62748,0 -5.42798,51.73451 c -2.09271,19.99829 4.90479,24.7277 35.31456,24.7277 l 27.07449,0 1.70033,-15.93231 -27.1399,0"
       id="path3035"
       style="fill:#0d0808;fill-rule:nonzero;stroke:none" />
    <path
       d="m 596.27211,303.91536 22.56208,0 8.04389,-76.46221 -22.56208,0 -8.04389,76.46221"
       id="path3037"
       style="fill:#0d0808;fill-rule:nonzero;stroke:none" />
    <path
       d="m 517.59913,243.38545 26.81291,0 -6.34355,60.52991 22.56208,0 6.34355,-60.52991 26.8783,0 1.70032,-15.9323 -76.31869,0 -1.63492,15.9323"
       id="path3039"
       style="fill:#0d0808;fill-rule:nonzero;stroke:none" />
    <path
       d="m 705.09328,227.45315 -28.57864,56.57092 -16.67632,-56.57092 -25.83195,0 25.70116,76.46221 29.4288,0 41.78889,-76.46221 -25.83194,0"
       id="path3041"
       style="fill:#0d0808;fill-rule:nonzero;stroke:none" />
    <path
       d="m 474.3061,227.02516 -13.86423,0 c -26.02815,0 -38.25744,3.1993 -40.15397,21.36789 l -0.39239,3.89481 c -1.89651,18.16861 9.61342,21.36789 35.64155,21.36789 l 16.74171,0 c 9.875,0 12.22931,1.02721 11.83693,4.75082 l -0.52319,4.82569 c -0.39238,4.25859 -4.12003,4.75079 -12.81787,4.75079 l -17.06871,0 c -8.63245,0 -12.22928,-0.4922 -11.8369,-4.75079 l -25.24338,0 c -0.91556,17.18421 6.93211,21.38931 35.57615,21.38931 l 13.86423,0 c 26.02814,0 38.25743,-3.19931 40.15397,-21.36792 l 0.39238,-4.173 c 1.96192,-18.16859 -9.61341,-21.36789 -35.64154,-21.36789 l -16.74172,0 c -9.8096,0 -12.2293,-1.02721 -11.83692,-4.7508 l 0.52319,-4.82571 c 0.45777,-4.25859 4.12002,-4.7508 12.81787,-4.7508 l 17.0687,0 c 8.69785,0 12.2947,0.49221 11.83691,4.7508 l 25.24338,0 c 0.85016,-16.94879 -7.12832,-21.11109 -35.57615,-21.11109"
       id="path3043"
       style="fill:#0d0808;fill-rule:nonzero;stroke:none" />
    <path
       d="m 235.14806,334.02516 322.86662,0 1.83112,-17.8048 -322.80122,0 -1.89652,17.8048"
       id="path3045"
       style="fill:#ee192e;fill-rule:nonzero;stroke:none" />
    <path
       d="m 558.01468,334.02516 326.26729,0 1.89651,-17.8048 -326.33268,0 -1.83112,17.8048"
       id="path3047"
       style="fill:#2b78c6;fill-rule:nonzero;stroke:none" />
  </g>
</svg>
