<?xml version="1.0" encoding="UTF-8" standalone="no"?>
<!-- Created with Inkscape (http://www.inkscape.org/) -->
<svg
   xmlns:svg="http://www.w3.org/2000/svg"
   xmlns="http://www.w3.org/2000/svg"
   version="1.0"
   width="405.07117"
   height="546.49255"
   id="svg2">
  <defs
     id="defs4" />
  <g
     transform="translate(-157.12544,-185.53025)"
     id="layer1"
     style="display:inline">
    <g
       id="g3180"
       style="stroke:#ffffff;stroke-width:8.5;stroke-miterlimit:4;stroke-dasharray:none;stroke-opacity:1" />
    <g
       id="g3333">
      <path
         d="M 157.12544,185.53025 L 562.19661,185.53025 L 562.19661,732.0228 L 157.12544,732.0228 L 157.12544,185.53025 z"
         id="rect2574"
         style="opacity:1;fill:#000000;fill-opacity:1;fill-rule:evenodd;stroke:none;stroke-width:3;stroke-linecap:butt;stroke-linejoin:round;stroke-miterlimit:4;stroke-opacity:1" />
      <path
         d="M 337.91828,671.34054 C 337.91828,671.34054 337.8855,671.30777 337.91828,671.34054 C 340.21175,670.61972 343.55366,669.14533 348.76314,665.90173 C 343.55366,669.17811 340.21175,670.65249 337.91828,671.34054"
         id="path6867"
         style="fill:#005cab;fill-rule:nonzero;stroke:none" />
      <path
         d="M 360.77524,689.19012 C 331.97448,689.19012 308.5258,665.77486 308.5258,636.97412 C 308.5258,608.20681 331.97448,584.79154 360.77524,584.79154 C 389.54254,584.79154 412.95779,608.20681 412.95779,636.97412 C 412.95779,665.77486 389.54254,689.19012 360.77524,689.19012"
         id="path2485"
         style="fill:#ffffff;fill-opacity:1;fill-rule:nonzero;stroke:none" />
      <path
         d="M 360.77679,593.01786 C 361.73995,593.01786 362.7041,593.05004 363.65179,593.11161 C 362.70318,593.05062 361.74264,593.01786 360.77679,593.01786 z M 363.80804,593.11161 C 364.70275,593.17294 365.58508,593.27836 366.46429,593.39286 C 365.58445,593.27859 364.70174,593.17226 363.80804,593.11161 z M 366.46429,593.39286 C 367.39468,593.51403 368.30303,593.65157 369.21429,593.83036 C 368.41134,593.67275 367.59465,593.5364 366.77679,593.42411 C 366.67264,593.40981 366.56863,593.40641 366.46429,593.39286 z M 372.21429,594.54911 C 372.95471,594.74952 373.67725,594.96767 374.40179,595.20536 C 373.6786,594.96864 372.95324,594.74937 372.21429,594.54911 z M 397.37054,612.67411 C 397.7254,613.20676 398.06988,613.75047 398.40179,614.29911 C 398.06955,613.75027 397.72575,613.207 397.37054,612.67411 z M 401.80804,621.23661 L 344.99554,678.04911 C 349.89668,679.93568 355.21968,680.98662 360.77679,680.98661 C 385.0186,680.98661 404.74554,661.25663 404.74554,636.98661 C 404.74554,631.44296 403.68975,626.12652 401.80804,621.23661 z M 317.12054,642.76786 C 317.13162,642.85113 317.13975,642.93465 317.15179,643.01786 C 317.22128,643.52118 317.30988,644.02049 317.40179,644.51786 C 317.30071,643.93923 317.19853,643.35415 317.12054,642.76786 z M 318.30804,648.51786 C 318.50659,649.24534 318.72955,649.96164 318.96429,650.67411 C 318.73116,649.96873 318.50572,649.23835 318.30804,648.51786 z M 319.93304,653.36161 C 320.27561,654.21129 320.63445,655.03998 321.02679,655.86161 C 320.63521,655.04406 320.27472,654.20532 319.93304,653.36161 z M 343.05804,677.23661 C 343.60584,677.47834 344.15513,677.70434 344.71429,677.92411 C 344.16128,677.70678 343.59986,677.47543 343.05804,677.23661 z"
         id="path2483"
         style="fill:#005cab;fill-opacity:1;fill-rule:nonzero;stroke:none" />
      <path
         d="M 360.77679,593.01786 C 361.73995,593.01786 362.7041,593.05004 363.65179,593.11161 C 362.70045,593.04988 361.74359,593.01786 360.77679,593.01786 z M 363.65179,593.11161 C 364.43059,593.16221 365.19707,593.2394 365.96429,593.33036 C 365.20208,593.24049 364.42537,593.16181 363.65179,593.11161 z M 366.55804,593.39286 C 367.29906,593.49098 368.0166,593.63306 368.74554,593.76786 C 368.0179,593.63395 367.29769,593.49034 366.55804,593.39286 z M 369.74554,593.95536 C 370.38164,594.08845 371.02603,594.23247 371.65179,594.39286 C 371.02414,594.23253 370.38362,594.08827 369.74554,593.95536 z M 374.65179,595.26786 C 375.48706,595.54737 376.30817,595.84661 377.12054,596.17411 C 376.31137,595.84879 375.48385,595.54549 374.65179,595.26786 z M 382.02679,598.51786 L 322.27679,658.26786 C 321.83731,657.4781 321.41837,656.67916 321.02679,655.86161 C 325.86444,665.98666 334.4513,673.99036 344.99554,678.04911 L 401.80804,621.23661 C 398.07826,611.54423 391.00853,603.50523 382.02679,598.51786 z M 321.02679,655.86161 C 320.24362,654.22651 319.57507,652.53555 318.99554,650.79911 C 319.57221,652.53497 320.24672,654.22894 321.02679,655.86161 z M 318.99554,650.79911 C 318.77696,650.14418 318.55857,649.46717 318.37054,648.79911 C 318.55954,649.47546 318.77534,650.13628 318.99554,650.79911 z M 316.74554,636.98661 C 316.74554,637.95417 316.77745,638.90953 316.83929,639.86161 C 316.77731,638.91174 316.74554,637.95279 316.74554,636.98661 z M 316.83929,639.86161 C 316.88957,640.63579 316.96802,641.41131 317.05804,642.17411 C 316.96649,641.40555 316.89022,640.6422 316.83929,639.86161 z M 317.12054,642.76786 C 317.21249,643.46499 317.33994,644.14388 317.46429,644.83036 C 317.34022,644.14946 317.21254,643.45948 317.12054,642.76786 z M 317.71429,646.17411 C 317.83521,646.73983 317.97802,647.30415 318.12054,647.86161 C 317.97581,647.29963 317.83695,646.74454 317.71429,646.17411 z"
         id="path2487"
         style="fill:#ed1b2d;fill-opacity:1;fill-rule:nonzero;stroke:none" />
      <path
         d="M 360.77679,593.01786 C 336.50678,593.01786 316.74554,612.74482 316.74554,636.98661 C 316.74554,644.71606 318.76098,651.94981 322.27679,658.26786 L 382.02679,598.51786 C 375.72161,595.0197 368.48207,593.01786 360.77679,593.01786 z"
         id="path2498"
         style="fill:#2aa243;fill-opacity:1;fill-rule:nonzero;stroke:none" />
      <path
         d="M 194.27679,601.23661 L 194.27679,608.39286 L 303.52679,608.39286 C 304.77145,605.91685 306.1388,603.5171 307.68304,601.23661 L 194.27679,601.23661 z M 413.80804,601.23661 C 415.35201,603.51979 416.75149,605.91371 417.99554,608.39286 L 525.71429,608.39286 L 525.71429,601.23661 L 413.80804,601.23661 z"
         id="rect2546"
         style="fill:#ffffff;fill-opacity:1;fill-rule:evenodd;stroke:none;stroke-width:3;stroke-linecap:butt;stroke-linejoin:round;stroke-miterlimit:4;stroke-dasharray:none;stroke-opacity:1" />
      <path
         d="M 194.27679,633.42411 L 194.27679,640.54911 L 296.83929,640.54911 C 296.77385,639.36625 296.74554,638.15431 296.74554,636.95536 C 296.74554,635.76751 296.7749,634.59623 296.83929,633.42411 L 194.27679,633.42411 z M 424.62054,633.42411 C 424.68483,634.59623 424.74554,635.76751 424.74554,636.95536 C 424.74554,638.15431 424.68588,639.36625 424.62054,640.54911 L 525.71429,640.54911 L 525.71429,633.42411 L 424.62054,633.42411 z"
         id="rect2548"
         style="fill:#ffffff;fill-opacity:1;fill-rule:evenodd;stroke:none;stroke-width:3;stroke-linecap:butt;stroke-linejoin:round;stroke-miterlimit:4;stroke-dasharray:none;stroke-opacity:1" />
      <path
         d="M 194.27679,665.61161 L 194.27679,672.73661 L 307.68304,672.73661 C 306.14394,670.46238 304.76834,668.08048 303.52679,665.61161 L 194.27679,665.61161 z M 417.96429,665.61161 C 416.72497,668.07897 415.34417,670.46368 413.80804,672.73661 L 525.71429,672.73661 L 525.71429,665.61161 L 417.96429,665.61161 z"
         id="rect2550"
         style="fill:#ffffff;fill-opacity:1;fill-rule:evenodd;stroke:none;stroke-width:3;stroke-linecap:butt;stroke-linejoin:round;stroke-miterlimit:4;stroke-dasharray:none;stroke-opacity:1" />
      <path
         d="M 350.52679,230.96429 C 348.19189,230.98169 346.30821,232.87933 346.30804,235.21429 L 346.30804,452.02103 C 346.28636,453.55373 347.07793,454.96711 348.40179,455.73978 C 349.72566,456.51246 351.39043,456.51246 352.71429,455.73978 C 354.03814,454.96711 354.82972,453.55373 354.80804,452.02103 L 354.80804,265.04911 L 392.96429,397.92411 L 392.96429,452.02103 C 392.94261,453.55373 393.73418,454.96711 395.05804,455.73978 C 396.38191,456.51246 398.04668,456.51246 399.37054,455.73978 C 400.69439,454.96711 401.48597,453.55373 401.46429,452.02103 L 401.30804,234.05804 C 400.78697,232.21529 399.09797,230.94855 397.18304,230.96429 C 394.84814,230.98169 392.96446,232.87933 392.96429,235.21429 L 392.96429,367.70536 L 354.65179,234.05804 C 354.13072,232.21529 352.44172,230.94855 350.52679,230.96429 z M 453.80804,230.95536 C 452.27534,230.93368 450.86196,231.72525 450.08929,233.04911 C 449.31661,234.37298 449.31661,236.03775 450.08929,237.36161 C 450.86196,238.68546 452.27534,239.47704 453.80804,239.45536 L 464.30804,239.45536 L 464.30804,452.02167 C 464.28636,453.55437 465.07793,454.96775 466.40179,455.74042 C 467.72566,456.5131 469.39043,456.5131 470.71429,455.74042 C 472.03814,454.96775 472.82972,453.55437 472.80804,452.02167 L 472.80804,239.45536 L 483.33929,239.45536 C 484.87199,239.47704 486.28537,238.68547 487.05804,237.36161 C 487.83072,236.03774 487.83072,234.37297 487.05804,233.04911 C 486.28537,231.72526 484.87199,230.93368 483.33929,230.95536 L 453.80804,230.95536 z M 412.68304,230.92857 C 410.33593,230.9288 408.43327,232.83146 408.43304,235.17857 L 408.43304,452.01849 C 408.43327,454.3656 410.33593,456.26826 412.68304,456.26849 L 441.49554,456.26849 C 443.02824,456.29017 444.44162,455.4986 445.21429,454.17474 C 445.98697,452.8509 445.98697,451.1861 445.21429,449.86224 C 444.44162,448.53836 443.02824,447.74681 441.49554,447.76849 L 416.93304,447.76849 L 416.93304,324.64286 L 435.43304,324.64286 C 436.96574,324.66454 438.37912,323.87297 439.15179,322.54911 C 439.92447,321.22524 439.92447,319.56047 439.15179,318.23661 C 438.37912,316.91276 436.96574,316.12118 435.43304,316.14286 L 416.93304,316.14286 L 416.93304,239.42857 L 441.49554,239.42857 C 443.02824,239.45025 444.44162,238.65868 445.21429,237.33482 C 445.98697,236.01095 445.98697,234.34618 445.21429,233.02232 C 444.44162,231.69847 443.02824,230.90689 441.49554,230.92857 L 412.68304,230.92857 z M 496.18304,230.92857 C 493.83592,230.9288 491.93327,232.83146 491.93304,235.17857 L 491.93304,452.08163 C 491.93326,454.42874 493.83593,456.3314 496.18304,456.33163 L 524.99554,456.33163 C 526.52823,456.35331 527.94162,455.56174 528.71429,454.23788 C 529.48696,452.91404 529.48697,451.24924 528.71429,449.92538 C 527.94161,448.6015 526.52824,447.80995 524.99554,447.83163 L 500.43304,447.83163 L 500.43304,324.64286 L 518.93304,324.64286 C 520.46573,324.66454 521.87912,323.87297 522.65179,322.54911 C 523.42446,321.22524 523.42447,319.56047 522.65179,318.23661 C 521.87911,316.91276 520.46574,316.12118 518.93304,316.14286 L 500.43304,316.14286 L 500.43304,239.42857 L 524.99554,239.42857 C 526.52823,239.45025 527.94162,238.65868 528.71429,237.33482 C 529.48696,236.01095 529.48697,234.34618 528.71429,233.02232 C 527.94161,231.69847 526.52824,230.90689 524.99554,230.92857 L 496.18304,230.92857 z M 239.90179,231.02232 C 237.55457,231.05682 235.67975,232.9876 235.71429,235.33482 L 235.71429,451.95282 C 235.71452,454.29993 237.61717,456.20259 239.96429,456.20282 L 269.49554,456.20282 C 271.02824,456.2245 272.44161,455.43293 273.21429,454.10907 C 273.98696,452.78523 273.98696,451.12043 273.21429,449.79657 C 272.44161,448.47269 271.02824,447.68114 269.49554,447.70282 L 244.21429,447.70282 L 244.21429,235.33482 C 244.23119,234.18598 243.77673,233.08476 242.96429,232.27232 C 242.15184,231.45989 241.05063,231.00542 239.90179,231.02232 z M 194.90179,231.08482 C 192.59136,231.13602 190.7452,233.02383 190.74554,235.33482 L 190.74554,361.08036 C 190.6808,361.50499 190.6808,361.93698 190.74554,362.36161 L 190.74554,451.9579 C 190.72386,453.4906 191.51542,454.90398 192.83929,455.67665 C 194.16315,456.44933 195.82792,456.44933 197.15179,455.67665 C 198.47565,454.90398 199.26721,453.4906 199.24554,451.9579 L 199.24554,365.29911 C 210.80106,362.52655 219.33139,353.54958 224.68304,342.14286 C 230.60393,329.52282 233.15856,313.01201 232.87054,297.30357 C 232.58251,281.59513 229.45606,265.97298 223.40179,253.67857 C 217.34751,241.38416 207.88452,232.02338 195.30804,231.08482 C 195.1727,231.07834 195.03712,231.07834 194.90179,231.08482 z M 310.02679,230.90625 C 308.01269,231.0356 306.36727,232.56349 306.08929,234.5625 L 276.65179,451.46392 C 276.3325,453.79387 277.94683,455.92589 280.27679,456.24517 C 282.60674,456.56446 284.77,454.95012 285.08929,452.62017 L 298.93304,350.39286 L 321.55804,350.39286 L 335.37054,452.65048 C 335.6812,454.98043 337.82184,456.61739 340.15179,456.30673 C 342.48174,455.99607 344.1187,453.85543 343.80804,451.52548 L 314.49554,234.5625 C 314.18933,232.36377 312.24261,230.771 310.02679,230.90625 z M 199.24554,240.55357 C 205.89529,242.77405 211.44455,248.63111 215.77679,257.42857 C 221.0677,268.17282 224.10168,282.79671 224.37054,297.45982 C 224.63939,312.12293 222.14138,327.54979 216.99554,338.51786 C 212.70206,347.66915 206.87067,353.96939 199.24554,356.48661 L 199.24554,240.55357 z M 310.27679,267.42411 L 320.40179,341.89286 L 300.08929,341.89286 L 310.27679,267.42411 z"
         id="path3282"
         style="fill:#ffffff;fill-opacity:1;fill-rule:evenodd;stroke:none;stroke-width:8.5;stroke-linecap:round;stroke-linejoin:round;stroke-miterlimit:4;stroke-dasharray:none;stroke-opacity:1" />
      <path
         d="M 49.285715,702.18359 A 10.178572,10.178572 0 1 1 28.928572,702.18359 A 10.178572,10.178572 0 1 1 49.285715,702.18359 z"
         transform="matrix(0.5438597,0,0,0.5438597,227.65977,140.91926)"
         id="path3290"
         style="opacity:1;fill:#ffffff;fill-opacity:1;fill-rule:evenodd;stroke:none;stroke-width:8.5;stroke-linecap:round;stroke-linejoin:round;stroke-miterlimit:4;stroke-dasharray:none;stroke-opacity:1" />
      <path
         d="M 49.285715,702.18359 A 10.178572,10.178572 0 1 1 28.928572,702.18359 A 10.178572,10.178572 0 1 1 49.285715,702.18359 z"
         transform="matrix(0.5438597,0,0,0.5438597,308.73121,140.91926)"
         id="path3292"
         style="opacity:1;fill:#ffffff;fill-opacity:1;fill-rule:evenodd;stroke:none;stroke-width:8.5;stroke-linecap:round;stroke-linejoin:round;stroke-miterlimit:4;stroke-dasharray:none;stroke-opacity:1" />
      <path
         d="M 49.285715,702.18359 A 10.178572,10.178572 0 1 1 28.928572,702.18359 A 10.178572,10.178572 0 1 1 49.285715,702.18359 z"
         transform="matrix(0.5438597,0,0,0.5438597,381.9455,140.91926)"
         id="path3294"
         style="opacity:1;fill:#ffffff;fill-opacity:1;fill-rule:evenodd;stroke:none;stroke-width:8.5;stroke-linecap:round;stroke-linejoin:round;stroke-miterlimit:4;stroke-dasharray:none;stroke-opacity:1" />
      <path
         d="M 49.285715,702.18359 A 10.178572,10.178572 0 1 1 28.928572,702.18359 A 10.178572,10.178572 0 1 1 49.285715,702.18359 z"
         transform="matrix(0.5438597,0,0,0.5438597,446.36514,140.91926)"
         id="path3296"
         style="opacity:1;fill:#ffffff;fill-opacity:1;fill-rule:evenodd;stroke:none;stroke-width:8.5;stroke-linecap:round;stroke-linejoin:round;stroke-miterlimit:4;stroke-dasharray:none;stroke-opacity:1" />
      <path
         d="M 218.92857,503.34432 L 218.92857,512.54076 C 205.71961,501.68379 198.33211,513.29775 198.33211,521.57809 C 198.33211,529.94738 206.76121,541.65643 218.83929,531.06754 L 218.75,539.95147 C 202.75163,547.95671 189.4836,535.62884 189.5333,522.2359 C 189.58301,508.84296 200.2979,494.10111 218.92857,503.34432 z"
         id="path3298"
         style="fill:#ffffff;fill-opacity:1;fill-rule:evenodd;stroke:none;stroke-width:1px;stroke-linecap:butt;stroke-linejoin:miter;stroke-opacity:1" />
      <path
         d="M 285.80804,500.58036 L 269.80804,541.20536 L 278.12054,541.29911 L 282.15179,533.08036 L 295.27679,533.08036 L 298.65179,541.64286 L 307.40179,541.64286 L 291.43304,500.58036 L 285.80804,500.58036 z M 288.40179,513.17411 L 293.40179,526.64286 L 283.74554,526.64286 L 288.40179,513.17411 z"
         id="path3300"
         style="fill:#ffffff;fill-opacity:1;fill-rule:evenodd;stroke:none;stroke-width:1px;stroke-linecap:butt;stroke-linejoin:miter;stroke-opacity:1" />
      <path
         d="M 354.65179,501.83036 L 354.65179,542.01786 L 369.27679,542.01786 C 384.0619,541.94238 382.01965,521.21383 373.74554,520.39286 C 378.38235,517.5239 380.18944,502.11339 367.30804,501.83036 L 354.65179,501.83036 z M 362.87054,508.42411 L 365.97768,508.42411 C 370.3331,508.42411 370.70123,518.08038 365.97768,518.08036 L 362.87054,518.08036 L 362.87054,508.42411 z M 362.87054,524.42411 L 368.5134,524.42411 C 372.86882,524.42411 373.23695,534.70538 368.5134,534.70536 L 362.87054,534.70536 L 362.87054,524.42411 z"
         id="path3305"
         style="fill:#ffffff;fill-opacity:1;fill-rule:evenodd;stroke:none;stroke-width:1px;stroke-linecap:butt;stroke-linejoin:miter;stroke-opacity:1" />
      <path
         d="M 448.57143,534.68361 L 448.57143,542.00504 L 429.46429,542.00504 L 429.46429,501.82647 L 437.5,501.82647 L 437.5,534.68361 L 448.57143,534.68361 z"
         id="path3313"
         style="fill:#ffffff;fill-opacity:1;fill-rule:evenodd;stroke:none;stroke-width:1px;stroke-linecap:butt;stroke-linejoin:miter;stroke-opacity:1" />
      <path
         d="M 508.96429,500.83036 C 498.24465,500.83036 489.55803,510.21038 489.55804,521.76786 C 489.55804,533.32536 498.24463,542.70538 508.96429,542.70536 C 516.81994,542.70536 523.58935,537.66434 526.65179,530.42411 L 518.33929,528.23661 C 514.40991,537.6871 499.12055,535.77617 499.12054,523.33036 L 515.68304,523.33036 L 519.27679,523.33036 L 528.33929,523.33036 C 528.37547,522.80909 528.40179,522.29903 528.40179,521.76786 C 528.40179,510.21036 519.68392,500.83038 508.96429,500.83036 z M 509.05804,508.67411 C 513.85715,508.70181 518.65179,511.42702 518.65179,516.73661 L 499.46429,516.73661 C 499.46429,511.31624 504.25893,508.64641 509.05804,508.67411 z"
         id="path3315"
         style="opacity:1;fill:#ffffff;fill-opacity:1;fill-rule:evenodd;stroke:none;stroke-width:8.5;stroke-linecap:round;stroke-linejoin:round;stroke-miterlimit:4;stroke-dasharray:none;stroke-opacity:1" />
    </g>
  </g>
</svg>
