<?xml version="1.0" encoding="utf-8"?>
<!-- Generator: Adobe Illustrator 15.0.0, SVG Export Plug-In . SVG Version: 6.00 Build 0)  -->
<!DOCTYPE svg PUBLIC "-//W3C//DTD SVG 1.1//EN" "http://www.w3.org/Graphics/SVG/1.1/DTD/svg11.dtd">
<svg version="1.1" xmlns="http://www.w3.org/2000/svg" xmlns:xlink="http://www.w3.org/1999/xlink" x="0px" y="0px" width="640px"
	 height="480px" viewBox="0 0 640 480" enable-background="new 0 0 640 480" xml:space="preserve">
<g id="Fond_2">
	<rect fill="#A6A6A6" width="640" height="480"/>
</g>
<g id="Fond_1B">
	<rect x="0" y="463" fill="#FFFFFF" width="640" height="2"/>
	<rect x="0" y="399" fill="#FFFFFF" width="640" height="2"/>
	<rect y="335" fill="#FFFFFF" width="640" height="2"/>
	<rect x="0" y="271" fill="#FFFFFF" width="640" height="2"/>
	<rect x="0" y="207" fill="#FFFFFF" width="640" height="2"/>
	<rect y="143" fill="#FFFFFF" width="640" height="2"/>
	<rect y="79" fill="#FFFFFF" width="640" height="2"/>
	<rect y="15" fill="#FFFFFF" width="640" height="2"/>
</g>
<g id="Fond_1A">
	<rect x="0" y="431" fill="#FFFFFF" width="640" height="2"/>
	<rect x="0" y="367" fill="#FFFFFF" width="640" height="2"/>
	<rect y="303" fill="#FFFFFF" width="640" height="2"/>
	<rect x="0" y="239" fill="#FFFFFF" width="640" height="2"/>
	<rect x="0" y="175" fill="#FFFFFF" width="640" height="2"/>
	<rect y="111" fill="#FFFFFF" width="640" height="2"/>
	<rect y="47" fill="#FFFFFF" width="640" height="2"/>
</g>
<g id="_x32_">
	<g>
		<path fill="#FFFFFF" d="M274.289,193.21c38.136-16.21,36.662,14.79,32.472,27.083c6.577-15.422,10.583-35.37-6.34-44.772
			c-11.366-6.316-31.152-1.267-74.92,31.973v18.567C225.501,226.061,259.739,199.395,274.289,193.21z"/>
		<path fill="#FFFFFF" d="M433.088,138.458c3.618,27.214,2.947,47.169-20.638,93.919c-23.584,46.75-47.17,92.237-47.17,92.237
			h12.616c0,0,19.029-39.37,47.169-91.604c27.396-50.856,17.605-90.024,17.605-90.024c-13.884-88.989-96.197-85.819-96.359-85.813
			c0.006,0,0.012,0,0.016,0C400.659,58.436,428.875,106.765,433.088,138.458z"/>
		<polygon fill="#FFFFFF" points="441.092,324.613 441.092,424.849 190.918,424.849 180.908,442.849 459.092,442.849 
			459.092,324.613 		"/>
	</g>
	<path fill="#4D4D4D" d="M441.092,324.613h-63.195H365.28c0,0,23.586-45.486,47.17-92.237c23.585-46.75,24.256-66.705,20.638-93.919
		c-4.213-31.693-32.429-80.021-86.761-81.285c-0.004,0-0.01,0-0.016,0c-53.513-1.234-120.811,51.346-120.811,51.346
		c-0.029,0.023-0.047,99.011-0.047,99.011c0.016-0.012,0.03-0.023,0.047-0.036c43.768-33.24,63.554-38.289,74.92-31.973
		c16.923,9.402,12.917,29.35,6.34,44.772c-4.965,11.643-115.843,204.556-115.843,204.556h250.174V324.613z"/>
</g>
<g id="A">
	<path fill="#E43222" stroke="#E42322" stroke-width="2" d="M194.353,207.107c0,0,2.388-0.011,5.271-2.234
		c4.875-3.758,8.73-11.044,5.895-22.124c-3.518-13.75-23.967-4.779-34.841,1.722C133,207,61,293,65.406,331.711
		c1.944,17.078,22.659,17.42,39.297,3.234c6.813-5.811,14.814-13.751,22.987-22.22c11.862-12.291,23.113-26.423,24.628-26.6
		c6.206-0.732-8.976,67.701,82.974,53.097c91.947-14.604,165.966-43.075,226.805-67.181c61.08-24.2,99.747-44.382,115.154-52.157
		c7.553-3.809,14.12-7.885,16.748-11.37c3.846-5.101-4.348-6.777-8.539-6.64c-9.523,0.313-55.058,24.27-89.21,38.041
		c-34.153,13.768-156.205,65.089-248.371,79.381c0,0-31.526,4.382-49.805,1.148c-11.822-2.092-32.401-12.1-24.521-42.977
		c7.881-30.879,16.624-36.132,18.828-43.187c4.018-12.87-2.299-14.813-8.757-12.31c-4.176,1.62-9.634,7.745-21.893,24.525
		c-12.259,16.782-46.413,56.632-63.488,71.236c-17.076,14.604-10.509-6.259-10.509-6.259s5.739-16.341,25.504-44.908
		c19.704-28.478,42.801-55.025,67.757-70.465c0,0,9.25-5.893,10.235,0.679C192.246,203.537,190.083,206.638,194.353,207.107z"/>
</g>
</svg>
