<?xml version="1.0" encoding="utf-8"?>
<!-- Generator: Adobe Illustrator 15.0.0, SVG Export Plug-In . SVG Version: 6.00 Build 0)  -->
<!DOCTYPE svg PUBLIC "-//W3C//DTD SVG 1.1//EN" "http://www.w3.org/Graphics/SVG/1.1/DTD/svg11.dtd">
<svg version="1.1" id="Calque_1" xmlns="http://www.w3.org/2000/svg" xmlns:xlink="http://www.w3.org/1999/xlink" x="0px" y="0px"
	 width="460px" height="400px" viewBox="0.5 10.5 460 400" enable-background="new 0.5 10.5 460 400" xml:space="preserve">
<g>
	
		<linearGradient id="SVGID_1_" gradientUnits="userSpaceOnUse" x1="14.4922" y1="-77.3242" x2="418.4922" y2="-77.3242" gradientTransform="matrix(1 0 0 -1 12 204)">
		<stop  offset="0" style="stop-color:#0C3392"/>
		<stop  offset="1" style="stop-color:#0C3392"/>
	</linearGradient>
	<polygon fill="url(#SVGID_1_)" points="430.492,259.699 228.492,171.949 26.492,256.949 226.742,390.699 	"/>
	
		<linearGradient id="SVGID_2_" gradientUnits="userSpaceOnUse" x1="14.4922" y1="-122.6577" x2="214.7422" y2="-122.6577" gradientTransform="matrix(1 0 0 -1 12 204)">
		<stop  offset="0.1758" style="stop-color:#6D94D9"/>
		<stop  offset="0.3031" style="stop-color:#4D74C2"/>
		<stop  offset="0.4469" style="stop-color:#3158AD"/>
		<stop  offset="0.5908" style="stop-color:#1C439E"/>
		<stop  offset="0.7332" style="stop-color:#103795"/>
		<stop  offset="0.8727" style="stop-color:#0C3392"/>
	</linearGradient>
	<polygon fill="url(#SVGID_2_)" points="26.492,256.949 26.492,263.366 226.742,396.366 226.742,390.699 	"/>
	
		<linearGradient id="SVGID_3_" gradientUnits="userSpaceOnUse" x1="214.7422" y1="-124.0327" x2="418.4922" y2="-124.0327" gradientTransform="matrix(1 0 0 -1 12 204)">
		<stop  offset="0" style="stop-color:#291936"/>
		<stop  offset="0.1516" style="stop-color:#21204F"/>
		<stop  offset="0.3701" style="stop-color:#18286C"/>
		<stop  offset="0.5867" style="stop-color:#112E81"/>
		<stop  offset="0.7986" style="stop-color:#0D328E"/>
		<stop  offset="1" style="stop-color:#0C3392"/>
	</linearGradient>
	<polygon fill="url(#SVGID_3_)" points="226.742,390.699 226.742,396.366 430.492,265.699 430.492,259.699 	"/>
</g>
<polygon fill="none" points="216.274,218.583 216.281,218.575 216.277,218.579 "/>
<linearGradient id="SVGID_4_" gradientUnits="userSpaceOnUse" x1="194.6372" y1="29.5498" x2="219.9864" y2="99.1958" gradientTransform="matrix(1 0 0 -1 12 204)">
	<stop  offset="0" style="stop-color:#E9983F"/>
	<stop  offset="0.1818" style="stop-color:#F2CC47"/>
	<stop  offset="0.3515" style="stop-color:#F5E353"/>
	<stop  offset="0.3801" style="stop-color:#F6E668"/>
	<stop  offset="0.4478" style="stop-color:#F8EB94"/>
	<stop  offset="0.5085" style="stop-color:#FAF0B4"/>
	<stop  offset="0.5592" style="stop-color:#FBF2C8"/>
	<stop  offset="0.5939" style="stop-color:#FBF3CF"/>
	<stop  offset="0.6528" style="stop-color:#FBF3C9"/>
	<stop  offset="0.7329" style="stop-color:#FDF2B7"/>
	<stop  offset="0.8249" style="stop-color:#FFF19B"/>
	<stop  offset="0.8303" style="stop-color:#FFF199"/>
	<stop  offset="0.9212" style="stop-color:#F9EB82"/>
	<stop  offset="1" style="stop-color:#FADC60"/>
</linearGradient>
<path fill="url(#SVGID_4_)" d="M271.075,120.699c0,0,2.985,0.03,7.18,1.121c-9.444-3.012-32.953-10.463-38.513-11.787
	c-7-1.667-12.5-1.5-12.5-1.5c-47.334-0.833-66,46.5-66,46.5l41.5,18C202.742,173.033,217.241,118.366,271.075,120.699z"/>
<linearGradient id="SVGID_5_" gradientUnits="userSpaceOnUse" x1="155.9048" y1="-111.4805" x2="203.8025" y2="55.5589" gradientTransform="matrix(1 0 0 -1 12 204)">
	<stop  offset="0" style="stop-color:#D58435"/>
	<stop  offset="0.0848" style="stop-color:#E1A241"/>
	<stop  offset="0.1636" style="stop-color:#E6C13F"/>
	<stop  offset="0.2606" style="stop-color:#EBDA58"/>
	<stop  offset="0.2635" style="stop-color:#EBDB5C"/>
	<stop  offset="0.2929" style="stop-color:#EDE084"/>
	<stop  offset="0.3232" style="stop-color:#EFE4A4"/>
	<stop  offset="0.3544" style="stop-color:#F0E7BD"/>
	<stop  offset="0.3868" style="stop-color:#F1E9CF"/>
	<stop  offset="0.4211" style="stop-color:#F2EBDA"/>
	<stop  offset="0.4606" style="stop-color:#F2EBDD"/>
	<stop  offset="0.5192" style="stop-color:#F2EBDA"/>
	<stop  offset="0.5563" style="stop-color:#F3EBD2"/>
	<stop  offset="0.5873" style="stop-color:#F4ECC3"/>
	<stop  offset="0.6121" style="stop-color:#F6ECB1"/>
	<stop  offset="0.6358" style="stop-color:#F5E7A7"/>
	<stop  offset="0.6756" style="stop-color:#F4DB8D"/>
	<stop  offset="0.7264" style="stop-color:#F2C763"/>
	<stop  offset="0.7455" style="stop-color:#F1BF51"/>
	<stop  offset="0.8043" style="stop-color:#EC9445"/>
	<stop  offset="0.8848" style="stop-color:#E45333"/>
	<stop  offset="0.9033" style="stop-color:#C9472E"/>
	<stop  offset="0.9296" style="stop-color:#A93927"/>
	<stop  offset="0.955" style="stop-color:#922E23"/>
	<stop  offset="0.979" style="stop-color:#852820"/>
	<stop  offset="1" style="stop-color:#80261F"/>
</linearGradient>
<path fill="url(#SVGID_5_)" d="M189.03,254.658c2.985-5.631,6.471-11.145,10.546-16.292c6.37-8.046,11.895-14.509,16.698-19.783
	l0.003-0.004l0.004-0.004c14.295-15.696,22.18-20.844,26.795-25.708c6.166-6.5,13.262-13.947,13.767-22.536
	c0.5-8.5-7.72-12.03-12.434-8.464c-6.167,4.666-8.834,10.5-9.667,14.333l-26.587-2.631c-0.001,0.001-44.08,35.131-60.079,61.131
	c-16,26-18.667,54.667-18.667,54.667l42.167,27.166C171.576,316.532,173.456,284.025,189.03,254.658L189.03,254.658z"/>
<path fill="none" d="M245.076,251.7c0,0,0.029-0.015,0.074-0.034l-0.074,0.023C245.076,251.691,245.076,251.7,245.076,251.7z"/>
<path fill="none" d="M245.076,251.684l0.449-2.022C245.107,250.958,245.078,251.602,245.076,251.684z"/>
<linearGradient id="SVGID_6_" gradientUnits="userSpaceOnUse" x1="238.2266" y1="-25.2939" x2="299.4054" y2="-39.4183" gradientTransform="matrix(1 0 0 -1 12 204)">
	<stop  offset="0.097" style="stop-color:#A9261F"/>
	<stop  offset="0.2909" style="stop-color:#DA5E00"/>
	<stop  offset="0.3811" style="stop-color:#E07F16"/>
	<stop  offset="0.4859" style="stop-color:#E59D2A"/>
	<stop  offset="0.5963" style="stop-color:#E9B53A"/>
	<stop  offset="0.7132" style="stop-color:#ECC645"/>
	<stop  offset="0.8409" style="stop-color:#EDD04C"/>
	<stop  offset="1" style="stop-color:#EED34E"/>
</linearGradient>
<path fill="url(#SVGID_6_)" d="M271.909,215.533c-19.978,19.604-25.078,30.06-26.384,34.125l-0.449,2.025c0,0.002,0,0.004,0,0.006
	l0.074-0.023c1.939-0.872,45.104-20.15,69.383-21.962l0.042-0.015l-38.729-18.067C274.59,212.885,273.288,214.18,271.909,215.533z"
	/>
<linearGradient id="SVGID_7_" gradientUnits="userSpaceOnUse" x1="289.5791" y1="-120.3887" x2="287.9308" y2="-25.9558" gradientTransform="matrix(1 0 0 -1 12 204)">
	<stop  offset="0.097" style="stop-color:#0C3392"/>
	<stop  offset="0.1304" style="stop-color:#142C7A"/>
	<stop  offset="0.1747" style="stop-color:#1B2561"/>
	<stop  offset="0.2246" style="stop-color:#21204E"/>
	<stop  offset="0.2823" style="stop-color:#261C40"/>
	<stop  offset="0.3549" style="stop-color:#281A38"/>
	<stop  offset="0.4909" style="stop-color:#291936"/>
	<stop  offset="0.6932" style="stop-color:#281A38"/>
	<stop  offset="0.7661" style="stop-color:#261B3F"/>
	<stop  offset="0.8181" style="stop-color:#231F4A"/>
	<stop  offset="0.8601" style="stop-color:#1D245B"/>
	<stop  offset="0.8961" style="stop-color:#162A71"/>
	<stop  offset="0.9273" style="stop-color:#0E318C"/>
	<stop  offset="0.9333" style="stop-color:#0C3392"/>
</linearGradient>
<polygon fill="url(#SVGID_7_)" points="363.46,230.58 314.576,229.7 310.909,274.866 171.576,316.532 171.576,326.658 
	333.6,321.996 430.492,259.699 "/>
<path fill="#D51733" d="M314.576,229.7c-0.016,0.001-0.029,0.003-0.043,0.004c-19.709,1.471-51.86,14.45-64.307,19.752
	c-2.886,1.229-4.711,2.046-5.076,2.21c-0.045,0.021-0.074,0.034-0.074,0.034s0-0.009,0-0.011s0-0.004,0-0.006
	c0.002-0.082,0.031-0.729,0.449-2.025c1.306-4.065,6.406-14.521,26.384-34.125c1.379-1.354,2.681-2.648,3.938-3.911
	c23.188-23.296,26.051-31.742,28.896-49.923c0.354-28.645-16.495-37.278-26.487-39.879c-4.191-1.091-7.18-1.121-7.18-1.121
	c-53.834-2.333-68.333,52.333-68.333,52.333l5.413,0.536l26.587,2.631c0.833-3.833,3.5-9.667,9.667-14.333
	c4.714-3.566,12.934-0.037,12.434,8.464c-0.505,8.589-7.601,16.036-13.767,22.536c-4.615,4.865-12.5,10.012-26.795,25.708
	c-0.002,0.003-0.005,0.005-0.007,0.008c-4.803,5.273-10.329,11.736-16.698,19.783c-4.075,5.146-7.561,10.662-10.546,16.292l0,0
	c-15.573,29.366-17.454,61.874-17.454,61.874l139.333-41.666L314.576,229.7z"/>
<g>
	<path stroke="#000000" stroke-width="0.5" d="M47.097,55.666H34.219c-1.755,0-2.846,0.138-3.273,0.414
		c-0.427,0.276-0.996,1.196-1.708,2.76l-2.333,5.072c-1.053,2.323-1.58,4.048-1.58,5.175c0,1.082,0.279,1.864,0.836,2.347
		c0.557,0.483,1.654,0.896,3.291,1.242c0.711,0.134,1.079,0.403,1.103,0.806c0.023,0.38-0.308,0.571-0.993,0.571
		c-0.261,0-0.663-0.013-1.207-0.039l-3.407-0.194c-1.135-0.052-2.448-0.077-3.938-0.077c-0.686,0-1.218,0.016-1.596,0.048
		c-1.207,0.128-1.869,0.192-1.987,0.192c-0.639,0-0.958-0.212-0.958-0.636c0-0.376,0.202-0.624,0.604-0.741l1.316-0.379
		c0.474-0.138,1.114-0.695,1.921-1.671c0.806-0.976,1.47-1.993,1.992-3.05l1.032-2.274l18.284-39.315
		c0.308-0.688,0.652-1.033,1.032-1.033c0.379,0,0.699,0.333,0.96,1l15.296,37.93l0.783,1.862c1.114,2.781,2.039,4.512,2.774,5.189
		c0.735,0.678,2.229,1.213,4.482,1.603c0.735,0.135,1.09,0.415,1.067,0.84c-0.024,0.381-0.355,0.572-0.996,0.572
		c-0.213,0-0.664-0.023-1.352-0.069c-1.233-0.115-3.427-0.172-6.581-0.172c-3.296,0-5.36,0.069-6.189,0.207
		c-0.498,0.091-0.866,0.138-1.103,0.138c-0.617,0-0.925-0.235-0.925-0.706c0-0.358,0.296-0.594,0.889-0.706l1.103-0.242
		c1.186-0.229,1.779-1.012,1.779-2.346c0-1.219-0.724-3.646-2.17-7.279l-1.778-4.555c-0.498-1.265-0.89-1.995-1.174-2.191
		C49.231,55.763,48.424,55.666,47.097,55.666z M47.523,50.122l-5.585-13.635l-0.285-0.723c-0.285-0.734-0.593-1.113-0.925-1.136
		c-0.167-0.023-0.356,0.195-0.569,0.654l-6.937,14.909c-0.309,0.643-0.462,1.067-0.462,1.274c0,0.597,0.545,0.895,1.636,0.895
		l0.96,0.035h10.745c1.186,0,1.778-0.287,1.778-0.861c0-0.16-0.059-0.424-0.178-0.792L47.523,50.122z"/>
	<path stroke="#000000" stroke-width="0.5" d="M127.447,39.827v28.854c0,2.594-0.06,4.172-0.178,4.734
		c-0.119,0.562-0.451,0.832-0.996,0.809c-0.356-0.023-0.629-0.126-0.818-0.31l-0.783-0.895L94.684,39.827l-0.356-0.379
		c-0.142-0.138-0.308-0.207-0.498-0.207c-0.451,0-0.676,0.517-0.676,1.551v23.369l-0.036,1.448l0.107,2.447
		c0.166,1.517,0.569,2.562,1.209,3.136c0.64,0.574,1.897,1,3.771,1.275c0.783,0.09,1.174,0.382,1.174,0.876
		c0,0.449-0.249,0.674-0.747,0.674c-0.333,0-0.688-0.023-1.067-0.069c-0.261-0.046-1.293-0.115-3.095-0.207l-3.628-0.172
		l-1.708,0.063c-0.925,0-1.803,0.052-2.632,0.156c-0.617,0.083-1.056,0.125-1.316,0.125c-0.617,0-0.949-0.213-0.996-0.639
		c-0.024-0.337,0.308-0.617,0.996-0.841c1.992-0.666,3.338-1.556,4.038-2.67c0.699-1.114,1.049-2.912,1.049-5.394v-23.43
		c0-3.974-0.652-7.104-1.957-9.39c-1.305-2.285-3.19-3.589-5.656-3.911c-0.64-0.089-0.96-0.347-0.96-0.773
		c0-0.426,0.261-0.639,0.783-0.639c0.119,0,0.308,0.012,0.569,0.034l1.458,0.035l2.383,0.069l0.569-0.035
		c0.569-0.022,1.007-0.034,1.316-0.034c0.593,0,1.186,0.333,1.779,0.999l32.727,35.877c0.521,0.574,0.854,0.85,0.996,0.827
		c0.237-0.023,0.367-0.241,0.391-0.654V46.3l0.036-4.648l-0.427-7.919c-0.237-1.951-0.824-3.334-1.761-4.149
		c-0.938-0.814-2.627-1.417-5.069-1.808c-0.688-0.112-1.032-0.393-1.032-0.841c0-0.426,0.344-0.639,1.032-0.639
		c0.308,0,0.806,0.032,1.494,0.094c1.636,0.167,3.83,0.25,6.581,0.25c1.47,0,2.644-0.069,3.521-0.207
		c0.759-0.138,1.34-0.207,1.743-0.207c0.616,0,0.948,0.241,0.996,0.723c0.023,0.298-0.213,0.516-0.711,0.654
		c-1.447,0.345-2.401,0.918-2.864,1.722c-0.462,0.804-0.693,2.307-0.693,4.511v3.718L127.447,39.827z"/>
	<path stroke="#000000" stroke-width="0.5" d="M187.307,30.221h-9.996c-1.044,0-1.702,0.138-1.975,0.414
		c-0.273,0.276-0.409,0.955-0.409,2.035v33.798l0.036,1.345c0.119,2.69,1.672,4.288,4.66,4.794c0.83,0.134,1.245,0.393,1.245,0.774
		c0,0.494-0.333,0.741-0.999,0.741c-0.285,0-0.867-0.069-1.746-0.207c-0.452-0.069-1.521-0.103-3.208-0.103l-2.602-0.035
		l-2.78,0.035c-0.999,0-1.842,0.034-2.531,0.103c-1.355,0.138-2.151,0.207-2.389,0.207c-0.713,0-1.069-0.246-1.069-0.739
		c0-0.358,0.392-0.583,1.174-0.672c1.826-0.229,3.06-0.718,3.7-1.465c0.641-0.748,0.96-2.087,0.96-4.019V33.049l-0.036-0.897
		c0-0.827-0.125-1.356-0.374-1.586c-0.249-0.23-0.824-0.345-1.725-0.345h-9.427c-1.921,0-3.314,0.373-4.18,1.119
		c-0.866,0.747-1.536,2.152-2.01,4.218c-0.213,0.895-0.533,1.332-0.96,1.308c-0.427-0.022-0.64-0.332-0.64-0.926
		c0-0.48,0.142-1.361,0.427-2.643c0.356-1.647,0.534-3.008,0.534-4.083c0-1.052,0.125-1.744,0.374-2.076
		c0.249-0.332,0.778-0.498,1.584-0.498h38.308c1.305,0,2.095,0.137,2.368,0.412c0.273,0.275,0.41,1.086,0.41,2.435
		c0,1.349,0.059,2.332,0.178,2.949c0.118,0.777,0.189,1.337,0.213,1.68c0.023,0.687-0.226,1.052-0.747,1.097
		c-0.427,0.023-0.711-0.333-0.854-1.067c-0.309-1.629-0.807-2.691-1.494-3.185C190.639,30.467,189.299,30.221,187.307,30.221z"/>
	<path stroke="#000000" stroke-width="0.5" d="M223.76,32.021v13.892c0,1.06,0.101,1.7,0.302,1.918
		c0.201,0.219,0.813,0.328,1.832,0.328h5.479c2.488,0,4.458-0.138,5.902-0.413c1.281-0.252,2.111-0.585,2.49-0.999
		s0.726-1.377,1.031-2.892c0.121-0.574,0.426-0.849,0.909-0.827c0.461,0.023,0.69,0.333,0.69,0.928c0,0.16-0.016,0.412-0.041,0.755
		c-0.211,2.221-0.313,4.248-0.313,6.079c0,1.397,0.069,2.782,0.213,4.156c0.05,0.458,0.071,0.79,0.071,0.996
		c0,0.573-0.229,0.859-0.689,0.859c-0.511,0-0.813-0.252-0.91-0.758l-0.213-0.964c-0.285-1.538-0.854-2.583-1.703-3.133
		c-0.854-0.551-2.297-0.826-4.332-0.826h-7.846c-1.158,0-1.935,0.115-2.324,0.345c-0.392,0.23-0.586,0.69-0.586,1.38l0.035,1.138
		v12.693c0,1.955,0.36,3.173,1.083,3.656c0.722,0.483,2.552,0.724,5.489,0.724c9.307,0,15.285-2.031,17.938-6.094
		c0.27-0.39,0.535-0.597,0.803-0.62c0.438-0.023,0.656,0.274,0.656,0.892c0,1.487-0.867,3.26-2.598,5.318
		c-2.088,2.471-4.72,3.706-7.896,3.706c-0.688,0-1.611-0.046-2.772-0.138c-4.528-0.413-8.277-0.62-11.241-0.62
		c-4.149,0-7.079,0.138-8.787,0.413c-0.902,0.16-1.518,0.241-1.85,0.241c-0.759,0-1.138-0.247-1.138-0.741
		c0-0.382,0.308-0.652,0.925-0.809l1.352-0.379c1.708-0.459,2.561-2.069,2.561-4.828l0.036-2.241V36.018
		c0-3.287-0.374-5.5-1.121-6.638c-0.747-1.138-2.2-1.708-4.357-1.708c-0.688,0-1.032-0.213-1.032-0.64
		c0-0.629,0.534-0.943,1.601-0.943c0.593,0,1.388,0.058,2.383,0.172c3.391,0.368,7.471,0.551,12.236,0.551
		c2.895,0,5.457-0.046,7.686-0.138l5.054-0.241c1.396-0.046,2.252-0.091,2.562-0.138c0.642-0.091,1.114-0.138,1.423-0.138
		c0.782,0,1.174,0.332,1.174,0.995c0,0.206-0.035,0.469-0.105,0.789c-0.069,0.321-0.166,1.235-0.283,2.745l-0.145,2.024
		c-0.121,1.327-0.242,2.156-0.363,2.488c-0.118,0.331-0.387,0.509-0.797,0.531c-0.459,0.023-0.688-0.321-0.688-1.033V33.8
		c0-0.734-0.145-1.434-0.427-2.1c-0.449-1.033-1.361-1.722-2.734-2.066c-1.372-0.344-3.896-0.517-7.563-0.517h-5.573
		c-1.469,0-2.415,0.179-2.842,0.536C223.974,30.012,223.76,30.8,223.76,32.021z"/>
	<path stroke="#000000" stroke-width="0.5" d="M312.609,39.827v28.854c0,2.594-0.06,4.172-0.178,4.734
		c-0.119,0.562-0.449,0.832-0.996,0.809c-0.354-0.023-0.627-0.126-0.815-0.31l-0.783-0.895L279.85,39.827l-0.354-0.379
		c-0.146-0.138-0.312-0.207-0.498-0.207c-0.45,0-0.679,0.517-0.679,1.551v23.369l-0.032,1.448l0.104,2.447
		c0.166,1.517,0.568,2.562,1.209,3.136c0.643,0.575,1.896,1,3.771,1.275c0.781,0.09,1.174,0.382,1.174,0.876
		c0,0.449-0.249,0.674-0.747,0.674c-0.333,0-0.688-0.023-1.065-0.069c-0.264-0.046-1.293-0.115-3.096-0.207l-3.63-0.172
		l-1.707,0.063c-0.925,0-1.803,0.052-2.633,0.156c-0.616,0.083-1.058,0.125-1.313,0.125c-0.617,0-0.948-0.213-0.996-0.639
		c-0.023-0.337,0.309-0.617,0.996-0.841c1.99-0.666,3.336-1.556,4.037-2.67c0.697-1.114,1.049-2.912,1.049-5.394v-23.43
		c0-3.974-0.651-7.104-1.957-9.39c-1.305-2.285-3.188-3.589-5.654-3.911c-0.641-0.089-0.96-0.347-0.96-0.773
		c0-0.426,0.261-0.639,0.78-0.639c0.119,0,0.31,0.012,0.568,0.034l1.458,0.035l2.386,0.069l0.567-0.035
		c0.567-0.022,1.009-0.034,1.315-0.034c0.593,0,1.187,0.333,1.777,0.999l32.729,35.877c0.521,0.574,0.854,0.85,0.994,0.827
		c0.238-0.023,0.369-0.241,0.394-0.654V46.3l0.036-4.648l-0.43-7.919c-0.235-1.951-0.822-3.334-1.76-4.149
		c-0.938-0.814-2.627-1.417-5.067-1.808c-0.688-0.112-1.032-0.393-1.032-0.841c0-0.426,0.346-0.639,1.032-0.639
		c0.308,0,0.806,0.032,1.491,0.094c1.639,0.167,3.83,0.25,6.582,0.25c1.472,0,2.646-0.069,3.521-0.207
		c0.761-0.138,1.339-0.207,1.743-0.207c0.615,0,0.947,0.241,0.995,0.723c0.022,0.298-0.214,0.516-0.711,0.654
		c-1.447,0.345-2.401,0.918-2.863,1.722c-0.463,0.804-0.692,2.307-0.692,4.511v3.718L312.609,39.827z"/>
	<path stroke="#000000" stroke-width="0.5" d="M381.329,39.827v28.854c0,2.594-0.062,4.172-0.179,4.734
		c-0.118,0.562-0.449,0.832-0.996,0.809c-0.354-0.023-0.629-0.126-0.816-0.31l-0.781-0.895l-29.988-33.192l-0.354-0.379
		c-0.144-0.138-0.31-0.207-0.498-0.207c-0.448,0-0.676,0.517-0.676,1.551v23.369l-0.035,1.448l0.104,2.447
		c0.166,1.517,0.568,2.562,1.209,3.136c0.643,0.575,1.896,1,3.771,1.275c0.782,0.09,1.175,0.382,1.175,0.876
		c0,0.449-0.248,0.674-0.746,0.674c-0.334,0-0.688-0.023-1.066-0.069c-0.264-0.046-1.293-0.115-3.096-0.207l-3.629-0.172
		l-1.707,0.063c-0.927,0-1.805,0.052-2.635,0.156c-0.615,0.083-1.056,0.125-1.314,0.125c-0.615,0-0.947-0.213-0.994-0.639
		c-0.023-0.337,0.308-0.617,0.994-0.841c1.992-0.666,3.339-1.556,4.037-2.67c0.699-1.114,1.052-2.912,1.052-5.394v-23.43
		c0-3.974-0.653-7.104-1.957-9.39c-1.306-2.285-3.188-3.589-5.656-3.911c-0.642-0.089-0.96-0.347-0.96-0.773
		c0-0.426,0.262-0.639,0.782-0.639c0.116,0,0.308,0.012,0.567,0.034l1.459,0.035l2.383,0.069l0.57-0.035
		c0.567-0.022,1.008-0.034,1.314-0.034c0.592,0,1.188,0.333,1.777,0.999l32.728,35.877c0.521,0.574,0.854,0.85,0.996,0.827
		c0.235-0.023,0.368-0.241,0.394-0.654V46.3l0.034-4.648l-0.428-7.919c-0.237-1.951-0.824-3.334-1.763-4.149
		c-0.938-0.814-2.627-1.417-5.066-1.808c-0.688-0.112-1.031-0.393-1.031-0.841c0-0.426,0.344-0.639,1.031-0.639
		c0.309,0,0.807,0.032,1.493,0.094c1.637,0.167,3.83,0.25,6.581,0.25c1.471,0,2.646-0.069,3.521-0.207
		c0.758-0.138,1.338-0.207,1.741-0.207c0.616,0,0.948,0.241,0.995,0.723c0.021,0.298-0.213,0.516-0.711,0.654
		c-1.445,0.345-2.4,0.918-2.861,1.722c-0.465,0.804-0.695,2.307-0.695,4.511v3.718L381.329,39.827z"/>
	<path stroke="#000000" stroke-width="0.5" d="M418.565,32.021v13.892c0,1.06,0.101,1.7,0.302,1.918
		c0.201,0.219,0.813,0.328,1.832,0.328h5.479c2.49,0,4.458-0.138,5.905-0.413c1.28-0.252,2.11-0.585,2.49-0.999
		c0.379-0.413,0.723-1.377,1.028-2.892c0.121-0.574,0.427-0.849,0.909-0.827c0.461,0.023,0.691,0.333,0.691,0.928
		c0,0.16-0.013,0.412-0.039,0.755c-0.211,2.221-0.316,4.248-0.316,6.079c0,1.397,0.071,2.782,0.214,4.156
		c0.05,0.458,0.071,0.79,0.071,0.996c0,0.573-0.229,0.859-0.689,0.859c-0.512,0-0.813-0.252-0.909-0.758l-0.213-0.964
		c-0.284-1.538-0.854-2.583-1.704-3.133c-0.854-0.55-2.295-0.826-4.33-0.826h-7.846c-1.159,0-1.938,0.115-2.325,0.345
		c-0.394,0.23-0.586,0.69-0.586,1.38l0.036,1.138v12.693c0,1.955,0.357,3.173,1.081,3.656s2.554,0.724,5.487,0.724
		c9.31,0,15.286-2.031,17.938-6.094c0.268-0.39,0.532-0.597,0.802-0.62c0.438-0.023,0.656,0.274,0.656,0.892
		c0,1.487-0.865,3.26-2.6,5.318c-2.087,2.471-4.72,3.706-7.896,3.706c-0.688,0-1.612-0.046-2.774-0.138
		c-4.527-0.413-8.273-0.62-11.239-0.62c-4.149,0-7.078,0.138-8.785,0.413c-0.901,0.16-1.521,0.241-1.853,0.241
		c-0.76,0-1.139-0.247-1.139-0.741c0-0.382,0.308-0.652,0.925-0.809l1.354-0.379c1.708-0.459,2.562-2.069,2.562-4.828l0.036-2.241
		V36.018c0-3.287-0.374-5.5-1.121-6.638c-0.747-1.138-2.2-1.708-4.357-1.708c-0.688,0-1.029-0.213-1.029-0.64
		c0-0.629,0.532-0.943,1.602-0.943c0.592,0,1.387,0.058,2.383,0.172c3.395,0.368,7.474,0.551,12.237,0.551
		c2.895,0,5.454-0.046,7.684-0.138l5.055-0.241c1.396-0.046,2.253-0.091,2.561-0.138c0.643-0.091,1.115-0.138,1.424-0.138
		c0.782,0,1.176,0.332,1.176,0.995c0,0.206-0.035,0.469-0.106,0.789c-0.071,0.321-0.166,1.235-0.284,2.745l-0.143,2.024
		c-0.121,1.327-0.241,2.156-0.362,2.488c-0.122,0.331-0.388,0.509-0.798,0.531c-0.46,0.023-0.689-0.321-0.689-1.033V33.8
		c0-0.734-0.143-1.434-0.427-2.1c-0.449-1.033-1.358-1.722-2.731-2.066c-1.373-0.344-3.896-0.517-7.563-0.517h-5.575
		c-1.468,0-2.415,0.179-2.841,0.536C418.778,30.012,418.565,30.8,418.565,32.021z"/>
</g>
</svg>
