<?xml version="1.0" encoding="UTF-8" standalone="no"?>
<svg
   xmlns:dc="http://purl.org/dc/elements/1.1/"
   xmlns:cc="http://creativecommons.org/ns#"
   xmlns:rdf="http://www.w3.org/1999/02/22-rdf-syntax-ns#"
   xmlns:svg="http://www.w3.org/2000/svg"
   xmlns="http://www.w3.org/2000/svg"
   xmlns:sodipodi="http://sodipodi.sourceforge.net/DTD/sodipodi-0.dtd"
   xmlns:inkscape="http://www.inkscape.org/namespaces/inkscape"
   width="550"
   height="247.5"
   viewBox="0 0 440 198"
   version="1.1"
   id="svg2"
   inkscape:version="0.91 r13725"
   sodipodi:docname="I-Télé_logo_2002.svg">
  <metadata
     id="metadata31">
    <rdf:RDF>
      <cc:Work
         rdf:about="">
        <dc:format>image/svg+xml</dc:format>
        <dc:type
           rdf:resource="http://purl.org/dc/dcmitype/StillImage" />
        <dc:title></dc:title>
      </cc:Work>
    </rdf:RDF>
  </metadata>
  <defs
     id="defs29" />
  <sodipodi:namedview
     pagecolor="#ffffff"
     bordercolor="#666666"
     borderopacity="1"
     objecttolerance="10"
     gridtolerance="10"
     guidetolerance="10"
     inkscape:pageopacity="0"
     inkscape:pageshadow="2"
     inkscape:window-width="1280"
     inkscape:window-height="691"
     id="namedview27"
     showgrid="false"
     inkscape:zoom="1.1287996"
     inkscape:cx="299.57515"
     inkscape:cy="99.271509"
     inkscape:window-x="0"
     inkscape:window-y="1"
     inkscape:window-maximized="1"
     inkscape:current-layer="svg2"
     units="px" />
  <g
     id="g4181">
    <g
       id="#000000ff">
      <path
         sodipodi:nodetypes="ccccc"
         inkscape:connector-curvature="0"
         id="path8"
         transform="scale(0.8,0.8)"
         d="M 550,207.5 550,41.25 0,41.25 0,207.5 Z" />
    </g>
    <g
       id="g4175">
      <path
         style="opacity:1;fill:#ffffff"
         inkscape:connector-curvature="0"
         id="path17"
         d="m 253.01,46.195 c 18.33,0 36.65,0 54.98,0 0.02,6.6 0.01,13.2 0.01,19.8 -11.72,0 -23.45,-0.01 -35.17,0 -0.01,7.71 0,15.41 0,23.11 9.92,0.01 19.83,-0.01 29.74,0.01 -0.02,6.61 -0.01,13.21 0,19.82 -9.92,0.03 -19.83,0 -29.74,0.01 0,7.69 0,15.39 0,23.08 11.72,0.01 23.44,0 35.17,0 0,6.61 0.01,13.23 -0.01,19.84 -18.33,-0.01 -36.66,-0.01 -54.98,0 -0.01,-35.22 -0.01,-70.45 0,-105.67 z" />
      <path
         style="opacity:1;fill:#ffffff"
         inkscape:connector-curvature="0"
         id="path19"
         d="m 319.01,46.195 c 6.61,0 13.21,0 19.82,0 0.01,28.61 0,57.22 0,85.83 8.06,0.01 16.11,0 24.17,0 0,6.61 0,13.23 -0.01,19.84 -14.66,-0.01 -29.32,0 -43.98,0 -0.01,-35.23 -0.02,-70.45 0,-105.67 z" />
      <path
         style="opacity:1;fill:#ffffff"
         inkscape:connector-curvature="0"
         id="path21"
         d="m 374.01,46.2 c 18.33,0 36.65,0 54.98,-0.01 0.02,6.61 0.01,13.21 0.01,19.81 -11.73,0 -23.45,0 -35.17,0 -0.01,7.71 -0.01,15.41 0,23.11 9.91,0.01 19.83,-0.01 29.75,0.01 -0.01,6.61 -0.02,13.21 0,19.81 -9.92,0.04 -19.84,0.01 -29.75,0.02 -0.01,7.69 -0.01,15.39 0,23.08 11.72,0 23.44,0 35.17,0 0,6.61 0,13.23 -0.01,19.84 -18.32,-0.01 -36.65,0 -54.98,0 C 374,116.64 374,81.42 374.01,46.2 Z" />
      <path
         style="opacity:1;fill:#ffffff"
         inkscape:connector-curvature="0"
         id="path25"
         d="m 224.48,151.865 -19.96,0 0,-85.87 -17.52,0 0.01,-19.8 54.98,0 0.01,19.8 -17.52,0 z"
         sodipodi:nodetypes="ccccccccc" />
    </g>
    <g
       id="#ff0022ff">
      <path
         sodipodi:nodetypes="cccc"
         style="opacity:1;fill:#ff0022"
         inkscape:connector-curvature="0"
         id="path5"
         d="M 43.99,0 242.12,99 43.99,198 Z" />
    </g>
    <g
       id="g4170">
      <g
         id="g4167">
        <path
           d="m 88.07,44.04 c 7.31,-0.01 14.62,0 21.93,-0.01 0,7.32 0,14.65 0,21.97 -7.31,0 -14.63,0.01 -21.94,-0.01 0.01,-7.31 0,-14.63 0.01,-21.95 z"
           id="path13"
           inkscape:connector-curvature="0"
           style="opacity:1;fill:#ffffff" />
      </g>
      <path
         style="opacity:1;fill:#ffffff"
         inkscape:connector-curvature="0"
         id="path23"
         d="m 66.06,77.05 c 14.65,-0.02 29.29,-0.01 43.94,-0.01 0,25.65 0,51.31 0,76.96 -7.31,0 -14.63,0 -21.94,0 0,-18.33 0.02,-36.67 -0.01,-55 -7.33,-0.01 -14.66,0.01 -21.99,0 0,-7.32 -0.01,-14.64 0,-21.95 z" />
    </g>
  </g>
</svg>
