<?xml version="1.0" encoding="UTF-8" ?>
<!DOCTYPE svg PUBLIC "-//W3C//DTD SVG 1.1//EN" "http://www.w3.org/Graphics/SVG/1.1/DTD/svg11.dtd">
<svg width="1148pt" height="1326pt" viewBox="0 0 1148 1326" version="1.1" xmlns="http://www.w3.org/2000/svg">
<g id="#000000ff">
<path fill="#000000" opacity="1.00" d=" M 0.00 0.00 L 0.22 0.00 C 376.74 217.44 753.31 434.80 1129.86 652.22 C 1135.94 655.52 1141.68 659.49 1148.00 662.34 L 1148.00 662.70 C 800.27 863.32 452.64 1064.15 104.95 1264.85 C 69.99 1285.12 34.87 1305.14 0.00 1325.58 L 0.00 0.00 M 151.61 266.01 C 151.59 339.26 151.62 412.51 151.60 485.76 C 214.98 449.03 278.59 412.67 341.86 375.76 C 278.39 339.26 215.07 302.52 151.61 266.01 M 151.32 596.53 C 151.28 700.04 151.32 803.55 151.30 907.05 C 214.81 943.69 278.29 980.38 341.79 1017.02 C 341.79 840.21 341.79 663.39 341.80 486.58 C 278.30 523.23 214.82 559.91 151.32 596.53 M 423.28 612.14 C 438.55 612.28 453.83 612.16 469.11 612.20 C 469.10 653.70 469.10 695.20 469.11 736.71 C 477.22 736.64 485.33 736.79 493.45 736.62 C 493.32 695.15 493.44 653.67 493.39 612.20 C 508.39 612.20 523.39 612.19 538.40 612.20 C 538.40 604.03 538.39 595.87 538.40 587.70 C 500.05 587.68 461.71 587.76 423.37 587.66 C 423.20 595.82 423.38 603.98 423.28 612.14 M 567.30 736.69 C 600.62 736.72 633.94 736.65 667.26 736.73 C 667.37 728.61 667.21 720.49 667.34 712.38 C 642.13 712.21 616.91 712.34 591.69 712.31 C 591.69 699.68 591.71 687.05 591.68 674.42 C 616.88 674.36 642.09 674.41 667.30 674.40 C 667.29 666.26 667.29 658.13 667.29 650.00 C 642.09 650.00 616.90 650.00 591.70 650.00 C 591.69 637.40 591.71 624.79 591.68 612.19 C 616.89 612.21 642.09 612.19 667.29 612.20 C 667.29 604.03 667.29 595.87 667.30 587.70 C 633.98 587.69 600.67 587.75 567.36 587.67 C 567.23 637.34 567.34 687.02 567.30 736.69 M 696.10 587.70 C 696.11 637.37 696.09 687.04 696.11 736.71 C 729.40 736.69 762.69 736.68 795.98 736.71 C 796.00 728.57 796.03 720.42 795.97 712.28 C 770.81 712.34 745.66 712.29 720.50 712.30 C 720.48 670.77 720.54 629.23 720.48 587.69 C 712.35 587.72 704.23 587.70 696.10 587.70 M 824.70 587.70 C 824.67 637.34 824.77 686.98 824.65 736.62 C 858.00 736.79 891.35 736.65 924.70 736.69 C 924.69 728.56 924.69 720.43 924.70 712.31 C 899.53 712.31 874.36 712.29 849.19 712.31 C 849.21 699.67 849.19 687.03 849.20 674.39 C 874.35 674.43 899.50 674.34 924.64 674.43 C 924.77 666.29 924.65 658.15 924.71 650.02 C 899.53 649.97 874.36 650.03 849.19 649.99 C 849.20 637.39 849.20 624.79 849.19 612.19 C 874.36 612.19 899.54 612.24 924.72 612.16 C 924.64 603.99 924.77 595.83 924.65 587.67 C 891.33 587.75 858.02 587.68 824.70 587.70 Z" />
</g>
<g id="#ffffffff">
<path fill="#ffffff" opacity="1.00" d=" M 151.61 266.01 C 215.07 302.52 278.39 339.26 341.86 375.76 C 278.59 412.67 214.98 449.03 151.60 485.76 C 151.62 412.51 151.59 339.26 151.61 266.01 Z" />
<path fill="#ffffff" opacity="1.00" d=" M 151.32 596.53 C 214.82 559.91 278.30 523.23 341.80 486.58 C 341.79 663.39 341.79 840.21 341.79 1017.02 C 278.29 980.38 214.81 943.69 151.30 907.05 C 151.32 803.55 151.28 700.04 151.32 596.53 Z" />
<path fill="#ffffff" opacity="1.00" d=" M 423.28 612.14 C 423.38 603.98 423.20 595.82 423.37 587.66 C 461.71 587.76 500.05 587.68 538.40 587.70 C 538.39 595.87 538.40 604.03 538.40 612.20 C 523.39 612.19 508.39 612.20 493.39 612.20 C 493.44 653.67 493.32 695.15 493.45 736.62 C 485.33 736.79 477.22 736.64 469.11 736.71 C 469.10 695.20 469.10 653.70 469.11 612.20 C 453.83 612.16 438.55 612.28 423.28 612.14 Z" />
<path fill="#ffffff" opacity="1.00" d=" M 567.30 736.69 C 567.34 687.02 567.23 637.34 567.36 587.67 C 600.67 587.75 633.98 587.69 667.30 587.70 C 667.29 595.87 667.29 604.03 667.29 612.20 C 642.09 612.19 616.89 612.21 591.68 612.19 C 591.71 624.79 591.69 637.40 591.70 650.00 C 616.90 650.00 642.09 650.00 667.29 650.00 C 667.29 658.13 667.29 666.26 667.30 674.40 C 642.09 674.41 616.88 674.36 591.68 674.42 C 591.71 687.05 591.69 699.68 591.69 712.31 C 616.91 712.34 642.13 712.21 667.34 712.38 C 667.21 720.49 667.37 728.61 667.26 736.73 C 633.94 736.65 600.62 736.72 567.30 736.69 Z" />
<path fill="#ffffff" opacity="1.00" d=" M 696.10 587.70 C 704.23 587.70 712.35 587.72 720.48 587.69 C 720.54 629.23 720.48 670.77 720.50 712.30 C 745.66 712.29 770.81 712.34 795.97 712.28 C 796.03 720.42 796.00 728.57 795.98 736.71 C 762.69 736.68 729.40 736.69 696.11 736.71 C 696.09 687.04 696.11 637.37 696.10 587.70 Z" />
<path fill="#ffffff" opacity="1.00" d=" M 824.70 587.70 C 858.02 587.68 891.33 587.75 924.65 587.67 C 924.77 595.83 924.64 603.99 924.72 612.16 C 899.54 612.24 874.36 612.19 849.19 612.19 C 849.20 624.79 849.20 637.39 849.19 649.99 C 874.36 650.03 899.53 649.97 924.71 650.02 C 924.65 658.15 924.77 666.29 924.64 674.43 C 899.50 674.34 874.35 674.43 849.20 674.39 C 849.19 687.03 849.21 699.67 849.19 712.31 C 874.36 712.29 899.53 712.31 924.70 712.31 C 924.69 720.43 924.69 728.56 924.70 736.69 C 891.35 736.65 858.00 736.79 824.65 736.62 C 824.77 686.98 824.67 637.34 824.70 587.70 Z" />
</g>
</svg>
