<svg viewBox="0 0 54 24" id="6terreplay" xmlns="http://www.w3.org/2000/svg" width="540" height="240"><defs><linearGradient id="aja" x1="57.026%" x2="28.419%" y1="11.228%" y2="117.343%"><stop offset="0%" stop-color="#A93058"/><stop offset="11%" stop-color="#8C2546"/><stop offset="22%" stop-color="#741C37"/><stop offset="33%" stop-color="#66172E"/><stop offset="42%" stop-color="#61152B"/><stop offset="100%" stop-color="#AB315C"/></linearGradient><linearGradient id="ajb" x1="39.818%" x2="62.442%" y1="7.874%" y2="102.548%"><stop offset="0%" stop-color="#A93058"/><stop offset="11%" stop-color="#8C2546"/><stop offset="22%" stop-color="#741C37"/><stop offset="33%" stop-color="#66172E"/><stop offset="42%" stop-color="#61152B"/><stop offset="100%" stop-color="#AB315C"/></linearGradient><linearGradient id="ajc" x1="41.801%" x2="56.3%" y1="14.164%" y2="71.751%"><stop offset="0%" stop-color="#A93058"/><stop offset="11%" stop-color="#8C2546"/><stop offset="22%" stop-color="#741C37"/><stop offset="33%" stop-color="#66172E"/><stop offset="42%" stop-color="#61152B"/><stop offset="100%" stop-color="#AB315C"/></linearGradient><linearGradient id="ajd" x1="43.458%" x2="52.474%" y1="7.001%" y2="83.909%"><stop offset="0%" stop-color="#A93058"/><stop offset="11%" stop-color="#8C2546"/><stop offset="22%" stop-color="#741C37"/><stop offset="33%" stop-color="#66172E"/><stop offset="42%" stop-color="#61152B"/><stop offset="100%" stop-color="#AB315C"/></linearGradient><linearGradient id="aje" x1="49.951%" x2="49.951%" y1="2.73%" y2="102.621%"><stop offset="0%" stop-color="#A93058"/><stop offset="11%" stop-color="#8C2546"/><stop offset="22%" stop-color="#741C37"/><stop offset="33%" stop-color="#66172E"/><stop offset="42%" stop-color="#61152B"/><stop offset="100%" stop-color="#AB315C"/></linearGradient><linearGradient id="ajg" x1="6.5%" x2="93.5%" y1="50%" y2="50%"><stop offset="13%" stop-color="#711D37"/><stop offset="99%" stop-color="#8D283F"/></linearGradient><linearGradient id="ajh" x1="49.966%" x2="50.034%" y1="3.149%" y2="102.616%"><stop offset="0%" stop-color="#FFF"/><stop offset="0%" stop-color="#F9EEF4"/><stop offset="1%" stop-color="#F0D3E3"/><stop offset="2%" stop-color="#E9BDD5"/><stop offset="2%" stop-color="#E3ACCA"/><stop offset="3%" stop-color="#DFA1C3"/><stop offset="5%" stop-color="#DD9ABE"/><stop offset="9%" stop-color="#DC98BD"/><stop offset="12%" stop-color="#DA94B8"/><stop offset="36%" stop-color="#CD7997"/><stop offset="60%" stop-color="#C4667F"/><stop offset="82%" stop-color="#BF5A71"/><stop offset="100%" stop-color="#BD566C"/></linearGradient><linearGradient id="aji" x1="50%" x2="50%" y1="9.275%" y2="88.966%"><stop offset="0%" stop-color="#DD5B87"/><stop offset="1%" stop-color="#DD5A86"/><stop offset="34%" stop-color="#DA4D72"/><stop offset="66%" stop-color="#D94666"/><stop offset="98%" stop-color="#D84362"/></linearGradient><linearGradient id="ajj" x1="50%" x2="50%" y1="3.544%" y2="96.456%"><stop offset="0%" stop-color="#E49CBE"/><stop offset="100%" stop-color="#DD5C7E"/></linearGradient><linearGradient id="ajk" x1="50.617%" x2="45.427%" y1="5.069%" y2="98.187%"><stop offset="0%" stop-color="#541022"/><stop offset="44%" stop-color="#771E36"/><stop offset="100%" stop-color="#771E36"/></linearGradient><linearGradient id="ajl" x1="90.671%" x2="-1.597%" y1="33.677%" y2="56.746%"><stop offset="0%" stop-color="#EFC2D0"/><stop offset="13%" stop-color="#D95593"/><stop offset="16%" stop-color="#DB5D97"/><stop offset="21%" stop-color="#DF73A4"/><stop offset="27%" stop-color="#E697B8"/><stop offset="33%" stop-color="#EFC2D0"/><stop offset="37%" stop-color="#EBACC4"/><stop offset="48%" stop-color="#E17DA9"/><stop offset="57%" stop-color="#DB6099"/><stop offset="62%" stop-color="#D95593"/><stop offset="70%" stop-color="#D2518B"/><stop offset="81%" stop-color="#C04575"/><stop offset="96%" stop-color="#A33351"/><stop offset="100%" stop-color="#992C45"/></linearGradient><linearGradient id="ajn" x1="0%" x2="100%" y1="50%" y2="50%"><stop offset="0%" stop-color="#B43A5F"/><stop offset="24%" stop-color="#B2375C"/><stop offset="100%" stop-color="#AF3258"/></linearGradient><linearGradient id="ajo" x1="5.903%" x2="97.576%" y1="69.112%" y2="29.158%"><stop offset="0%" stop-color="#FFF"/><stop offset="1%" stop-color="#F9E6ED"/><stop offset="4%" stop-color="#F0BCCE"/><stop offset="7%" stop-color="#E89BB6"/><stop offset="10%" stop-color="#E283A5"/><stop offset="12%" stop-color="#DF759B"/><stop offset="14%" stop-color="#DE7097"/><stop offset="22%" stop-color="#DC688F"/><stop offset="66%" stop-color="#D24268"/><stop offset="100%" stop-color="#8A273F"/></linearGradient><linearGradient id="ajp" x1="4.5%" x2="95.5%" y1="50.026%" y2="50.026%"><stop offset="0%" stop-color="#B0304C"/><stop offset="5%" stop-color="#B4334F"/><stop offset="36%" stop-color="#C84161"/><stop offset="68%" stop-color="#D44A6B"/><stop offset="99%" stop-color="#D84D6F"/></linearGradient><linearGradient id="ajq" x1="-1.408%" x2="90.435%" y1="31.713%" y2="82.807%"><stop offset="8%" stop-color="#87263C"/><stop offset="12%" stop-color="#A0344D"/><stop offset="16%" stop-color="#B43F5C"/><stop offset="20%" stop-color="#C04664"/><stop offset="24%" stop-color="#C44867"/><stop offset="35%" stop-color="#BB4361"/><stop offset="53%" stop-color="#A13652"/><stop offset="75%" stop-color="#782139"/><stop offset="91%" stop-color="#581126"/></linearGradient><linearGradient id="ajr" x1="0%" x2="100%" y1="50%" y2="50%"><stop offset="0%" stop-color="#EED4E2"/><stop offset="100%" stop-color="#DE7DA8"/></linearGradient><linearGradient id="ajs" x1="69.925%" x2="29.826%" y1="1.502%" y2="96.433%"><stop offset="5%" stop-color="#B1324F"/><stop offset="13%" stop-color="#BD3F5E"/><stop offset="28%" stop-color="#D05276"/><stop offset="42%" stop-color="#DB5E84"/><stop offset="53%" stop-color="#DF6289"/><stop offset="75%" stop-color="#DF648B"/><stop offset="82%" stop-color="#E06B90"/><stop offset="88%" stop-color="#E17799"/><stop offset="93%" stop-color="#E388A7"/><stop offset="96%" stop-color="#E69DB8"/><stop offset="100%" stop-color="#E9B8CD"/><stop offset="100%" stop-color="#E9BACF"/></linearGradient><linearGradient id="ajt" x1="0%" x2="100%" y1="50%" y2="50%"><stop offset="0%" stop-color="#A33959"/><stop offset="3%" stop-color="#9C3554"/><stop offset="14%" stop-color="#842844"/><stop offset="24%" stop-color="#76203A"/><stop offset="33%" stop-color="#711D37"/></linearGradient><linearGradient id="aju" x1="0%" x2="100%" y1="50%" y2="50%"><stop offset="0%" stop-color="#882641"/><stop offset="10%" stop-color="#982B4B"/><stop offset="33%" stop-color="#B4335D"/><stop offset="55%" stop-color="#C8396B"/><stop offset="78%" stop-color="#D43D72"/><stop offset="100%" stop-color="#D83E75"/></linearGradient><linearGradient id="ajv" x1="8.288%" x2="104.857%" y1="21.764%" y2="68.426%"><stop offset="0%" stop-color="#DC4B6F"/><stop offset="3%" stop-color="#DC4F74"/><stop offset="17%" stop-color="#DA618C"/><stop offset="30%" stop-color="#D96C9A"/><stop offset="42%" stop-color="#D9709F"/><stop offset="59%" stop-color="#E9ACC7"/><stop offset="81%" stop-color="#FFF"/><stop offset="99%" stop-color="#E2C8DD"/></linearGradient><linearGradient id="ajw" x1="53.366%" x2="36.876%" y1="99.124%" y2="10.849%"><stop offset="0%" stop-color="#B0304C"/><stop offset="1%" stop-color="#B1324E"/><stop offset="21%" stop-color="#C35272"/><stop offset="41%" stop-color="#D06C8F"/><stop offset="60%" stop-color="#DA7EA3"/><stop offset="80%" stop-color="#E088AF"/><stop offset="99%" stop-color="#E28CB3"/></linearGradient><linearGradient id="ajx" x1="97.116%" x2="3.265%" y1="50.5%" y2="50.5%"><stop offset="0%" stop-color="#CCA1C5"/><stop offset="1%" stop-color="#CFA5C7"/><stop offset="5%" stop-color="#E1B9D3"/><stop offset="10%" stop-color="#EBC5DA"/><stop offset="15%" stop-color="#EFC9DC"/><stop offset="100%" stop-color="#D081AB"/></linearGradient><linearGradient id="ajy" x1="-.042%" x2="100%" y1="50.175%" y2="50.175%"><stop offset="0%" stop-color="#D7405E"/><stop offset="16%" stop-color="#BE3856"/><stop offset="34%" stop-color="#AA314F"/><stop offset="52%" stop-color="#9E2D4B"/><stop offset="70%" stop-color="#9A2C4A"/><stop offset="72%" stop-color="#B13C5C"/><stop offset="75%" stop-color="#C94B6F"/><stop offset="78%" stop-color="#D7557A"/><stop offset="80%" stop-color="#DC587E"/></linearGradient><linearGradient id="ajz" x1="0%" x2="100%" y1="50%" y2="50%"><stop offset="0%" stop-color="#942B41"/><stop offset="100%" stop-color="#711D33"/></linearGradient><linearGradient id="ajA" x1="0%" x2="100%" y1="50%" y2="50%"><stop offset="0%" stop-color="#490A1F"/><stop offset="100%" stop-color="#AD345F"/></linearGradient><linearGradient id="ajB" x1="50%" x2="50%" y1="18.724%" y2="90.939%"><stop offset="0%" stop-color="#A33758"/><stop offset="100%" stop-color="#701E3B"/></linearGradient><radialGradient id="ajf" cx="98.845%" cy="74.027%" r="105.747%" fx="98.845%" fy="74.027%" gradientTransform="matrix(1 0 0 .74076 0 .192)"><stop offset="0%" stop-color="#DD5F87"/><stop offset="9%" stop-color="#DD5F87"/><stop offset="11%" stop-color="#D75C83"/><stop offset="25%" stop-color="#AA4162"/><stop offset="38%" stop-color="#8A2E4A"/><stop offset="49%" stop-color="#76223B"/><stop offset="56%" stop-color="#6F1E36"/><stop offset="74%" stop-color="#7B223C"/><stop offset="100%" stop-color="#942B48"/></radialGradient><radialGradient id="ajm" cx="56.446%" cy="94.458%" r="135.821%" fx="56.446%" fy="94.458%" gradientTransform="matrix(.41398 0 0 1 .33 0)"><stop offset="0%" stop-color="#FAFCFE"/><stop offset="4%" stop-color="#F7EBF3"/><stop offset="23%" stop-color="#E9A2C1"/><stop offset="39%" stop-color="#DF6D9E"/><stop offset="51%" stop-color="#D94C87"/><stop offset="57%" stop-color="#D7407F"/><stop offset="71%" stop-color="#D63F7B"/><stop offset="85%" stop-color="#D13D6F"/><stop offset="99%" stop-color="#CB395C"/><stop offset="100%" stop-color="#CA395A"/></radialGradient><radialGradient id="ajC" cx="39.541%" cy="24.346%" r="100.467%" fx="39.541%" fy="24.346%" gradientTransform="matrix(.8972 0 0 1 .04 0)"><stop offset="0%" stop-color="#DADCDE"/><stop offset="0%" stop-color="#DBDDDF"/><stop offset="0%" stop-color="#EFF0F1"/><stop offset="0%" stop-color="#FBFBFB"/><stop offset="0%" stop-color="#FFF"/><stop offset="11%" stop-color="#DADCDE"/><stop offset="13%" stop-color="#DAD2D8"/><stop offset="21%" stop-color="#DAAEC4"/><stop offset="29%" stop-color="#DB91B4"/><stop offset="37%" stop-color="#DB7DA9"/><stop offset="44%" stop-color="#DB71A2"/><stop offset="52%" stop-color="#DB6DA0"/><stop offset="100%" stop-color="#CE4B6F"/></radialGradient><radialGradient id="ajD" cx="49.786%" cy="56.756%" r="112.912%" fx="49.786%" fy="56.756%" gradientTransform="matrix(.44065 0 0 1 .278 0)"><stop offset="6%" stop-color="#DB72A0"/><stop offset="14%" stop-color="#DB6795"/><stop offset="34%" stop-color="#DA507D"/><stop offset="52%" stop-color="#D9436F"/><stop offset="68%" stop-color="#D93E6A"/><stop offset="100%" stop-color="#A93057"/></radialGradient></defs><g fill="none" fill-rule="evenodd"><path fill="url(#aja)" d="m43.573 23.492.067-9.571c0-4.993 3.559-8.32 8.648-9l1.546-.233-.07 4.816c-2.55 0-5.99 2.21-5.99 4.765v9.61l-3.585.012-.616-.4z"/><path fill="url(#ajb)" fill-rule="nonzero" d="M44.006 16.13c0-.056.021-.026.03-.095.075-.443.125-.89.151-1.34v-.468c-.232-5.459-4.24-9.63-9.357-9.63-4.885 0-8.31 3.5-9.13 7.05a9.785 9.785 0 0 0-.34 2.552c0 5.352 4.335 9.706 9.085 9.706 4.013 0 8.186-2.356 9.624-5.884l-.464-.171-5.119-.012a5.47 5.47 0 0 1-9.211-1.708h14.731zm-14.708-3.816.28-.635c.928-1.834 2.73-2.723 4.795-2.723 2.066 0 3.972.884 4.894 2.718l.32.64H29.298z"/><path fill="url(#ajc)" d="M22.408 14.225a4.64 4.64 0 0 0 4.637 4.641v5.023l-.791-.026c-5.008-.397-8.933-4.614-8.933-9.606V.014h4.904l.192.601v3.983h4.155v4.358H22.41l-.002 5.269z"/><path fill="url(#ajd)" d="M10.389 6.011a59.163 59.163 0 0 1 3.38-5.208L12.983.03H7.781c-.024.03-.83.158-.854.188C3.977 4.38 2.017 9.24 1.233 12.61a8.899 8.899 0 0 0-.306 2.337c0 4.941 3.575 8.854 8.553 8.854 3.385 0 7.567-3.133 8.42-7.331.12-.5.19-1.01.207-1.523-.005-6.55-5.72-8.935-7.718-8.935zm-.927 13.201a4.287 4.287 0 0 1-3.829-4.265 4.287 4.287 0 0 1 3.829-4.264 4.287 4.287 0 0 1 3.828 4.264 4.287 4.287 0 0 1-3.828 4.265z"/><path fill="#B63C60" fill-rule="nonzero" d="M5.64 14.946a4.292 4.292 0 0 1 3.835-4.256 4.291 4.291 0 0 0-4.753 4.268 4.291 4.291 0 0 0 4.753 4.27 4.292 4.292 0 0 1-3.834-4.282z"/><path fill="url(#aje)" fill-rule="nonzero" d="M5.64 14.946a4.292 4.292 0 0 1 3.835-4.256 4.291 4.291 0 0 0-4.753 4.268 4.291 4.291 0 0 0 4.753 4.27 4.292 4.292 0 0 1-3.834-4.282z"/><path fill="url(#ajf)" d="m17.65 16.764-.176.605a8.81 8.81 0 0 1-9.683 6.273 8.816 8.816 0 0 1-7.587-8.696c0-.771.102-1.539.304-2.283C1.222 9.593 3.69 4.84 6.955.246L6.86.03C3.881 4.208 1.101 9.214.313 12.61A8.883 8.883 0 0 0 0 14.945a9.027 9.027 0 0 0 7.77 8.849 9.02 9.02 0 0 0 9.899-6.375l-.019-.656z"/><path fill="#B63C60" d="M43.758 18.223c-1.502 3.35-4.994 5.57-8.787 5.57-2.902 0-5.75-1.455-7.611-3.887l-.364-.476.202.601C28.98 22.352 31.814 24 34.97 24c4.014 0 7.651-2.458 9.096-5.985l-.309.208z"/><path fill="url(#ajg)" d="M17.392 11.929V.218l-.263-.204V11.05z"/><path fill="url(#ajh)" d="M22.281 4.6 22.29.014l-.27.204-.006 4.586z"/><path fill="url(#aji)" d="M26.434 8.954V4.6l-.266.202V8.75z"/><path fill="url(#ajj)" d="M44.465 23.684V16.03l-.267.204v7.655z"/><path fill="url(#ajk)" d="M53.711 9.423a4.848 4.848 0 0 0-4.637 4.843v9.42l.204.205v-9.627a4.64 4.64 0 0 1 4.637-4.642l-.204-.2z"/><path fill="url(#ajl)" d="M44.414 12.212c-1.066-4.41-4.785-7.614-9.215-7.614-5.236 0-8.81 3.59-9.624 7.139v.027a9.673 9.673 0 0 0 .802 7.08l.362.231-.181-.339a9.455 9.455 0 0 1-.784-6.927v-.035c.802-3.47 4.298-6.981 9.425-6.981 4.247 0 7.954 3.065 9.016 7.456l.209.862-.01-.899z"/><path fill="url(#ajm)" d="m29.511 16.028.107.276a5.693 5.693 0 0 0 9.443 1.915l-.088-.204a5.489 5.489 0 0 1-9.165-1.785l-.297-.202z"/><path fill="url(#ajn)" d="M6.965.303h5.615l.394-.268H6.86z"/><path fill="url(#ajo)" d="M9.012 10.458a4.49 4.49 0 0 0-4.48 4.5 4.49 4.49 0 0 0 4.492 4.486 4.49 4.49 0 0 0 4.486-4.493 4.5 4.5 0 0 0-4.498-4.493zm0 8.782a4.287 4.287 0 0 1-4.275-4.294 4.287 4.287 0 0 1 4.284-4.284 4.287 4.287 0 1 1-.01 8.573v.005z"/><path fill="url(#ajp)" d="m27.256 23.9.009-3.862-.263-.601-.012 4.257z"/><path fill="url(#ajq)" d="m26.987 23.687-.928-.019a9.53 9.53 0 0 1-8.207-6.31l-.211-.594.028.656a9.762 9.762 0 0 0 8.386 6.45l1.136.026-.204-.21z"/><path fill="url(#ajr)" d="M44.069 18.023h-5.096l.088.269h4.697z"/><path fill="url(#ajs)" d="M9.227 6.002c1.32-2.275 2.718-4.538 3.756-5.972l-.403.216c-.928 1.335-2.173 3.326-3.529 5.665l-.174.3.35-.21z"/><path fill="url(#ajt)" d="M17.326.286h4.69l.206-.268h-5.098z"/><path fill="url(#aju)" d="m22.011 4.872 4.153-.003.204-.265h-4.153z"/><path fill="#B63C60" d="m22.215 9.025 4.153-.003-.204-.268-4.153.003z"/><path fill="url(#ajv)" d="M17.124 11.05a9.016 9.016 0 0 0-7.897-5.048l-.35.195h.346a8.784 8.784 0 0 1 7.718 4.94l.385.792-.202-.88z"/><path fill="url(#ajw)" d="M26.37 18.845a4.64 4.64 0 0 1-4.16-4.62V8.956l-.203-.204v5.473a4.851 4.851 0 0 0 4.342 4.82l.383.04-.362-.24z"/><path fill="url(#ajx)" d="M29.516 12.692H40.45l-.341-.277H29.82z"/><path fill="url(#ajy)" d="m40.447 12.616-.463-.928A5.587 5.587 0 0 0 34.957 8.6a5.598 5.598 0 0 0-5.026 3.087l-.41.928.313-.204.28-.636a5.436 5.436 0 0 1 9.689 0l.306.636.338.204z"/><path fill="url(#ajz)" d="M44.398 16.035H29.511l.297.268h14.386z"/><path fill="url(#ajA)" d="M49.084 23.689h-4.686l-.204.268h5.094z"/><path fill="url(#ajB)" d="M53.982 9.62V4.6l-.267.209V9.42z"/><path fill="url(#ajC)" d="m44.424 13.122.187-.866a9.553 9.553 0 0 1 8.523-7.426l.575-.019.204-.211-.788.025a9.74 9.74 0 0 0-8.71 7.59l.009.907z"/><path fill="url(#ajD)" fill-rule="nonzero" d="m26.996 19.437.362.476c1.854 2.435 4.708 3.887 7.611 3.887 3.793 0 7.285-2.23 8.787-5.57H39.06a5.693 5.693 0 0 1-9.443-1.914l-.107-.288h14.887v7.659h4.686v-9.42a4.848 4.848 0 0 1 4.636-4.844V4.809l-.574.018a9.553 9.553 0 0 0-8.523 7.427l-.188.866-.209-.861c-1.061-4.391-4.769-7.457-9.016-7.457-5.126 0-8.622 3.511-9.424 6.981v.035a9.455 9.455 0 0 0 .783 6.928l.181.338-.401-.039a4.851 4.851 0 0 1-4.34-4.82V8.752h4.15V4.806H22.01l.014-4.588h-4.7V11.93l-.384-.791a8.784 8.784 0 0 0-7.718-4.932h-.346l.165-.306C10.407 3.563 11.648 1.57 12.58.246H6.955C3.691 4.841 1.222 9.592.51 12.656a8.714 8.714 0 0 0-.306 2.29 8.816 8.816 0 0 0 7.587 8.696 8.81 8.81 0 0 0 9.683-6.273l.176-.605.202.594a9.53 9.53 0 0 0 8.203 6.315l.927.018.014-4.254zm-17.984 0a4.49 4.49 0 0 1-4.48-4.5 4.49 4.49 0 0 1 4.492-4.486 4.49 4.49 0 0 1 4.486 4.493 4.5 4.5 0 0 1-4.498 4.496v-.003zm20.504-6.814.41-.928A5.598 5.598 0 0 1 34.953 8.6a5.587 5.587 0 0 1 5.021 3.08l.464.928-10.922.014z"/></g></svg>