<?xml version="1.0" encoding="UTF-8" standalone="no"?>
<!-- Created with Inkscape (http://www.inkscape.org/) -->

<svg
   width="253.33627mm"
   height="111.48257mm"
   viewBox="0 0 253.33627 111.48257"
   version="1.1"
   id="svg1"
   xml:space="preserve"
   inkscape:version="1.3.2 (091e20e, 2023-11-25, custom)"
   sodipodi:docname="oftv2024.svg"
   xmlns:inkscape="http://www.inkscape.org/namespaces/inkscape"
   xmlns:sodipodi="http://sodipodi.sourceforge.net/DTD/sodipodi-0.dtd"
   xmlns="http://www.w3.org/2000/svg"
   xmlns:svg="http://www.w3.org/2000/svg"><sodipodi:namedview
     id="namedview1"
     pagecolor="#ffffff"
     bordercolor="#666666"
     borderopacity="1.0"
     inkscape:showpageshadow="2"
     inkscape:pageopacity="0.0"
     inkscape:pagecheckerboard="0"
     inkscape:deskcolor="#d1d1d1"
     inkscape:document-units="mm"
     inkscape:zoom="12.921087"
     inkscape:cx="118.3337"
     inkscape:cy="387.23523"
     inkscape:window-width="1600"
     inkscape:window-height="837"
     inkscape:window-x="-8"
     inkscape:window-y="-8"
     inkscape:window-maximized="1"
     inkscape:current-layer="layer1" /><defs
     id="defs1"><inkscape:path-effect
       effect="spiro"
       id="path-effect1188"
       is_visible="true"
       lpeversion="0" /><inkscape:path-effect
       effect="spiro"
       id="path-effect992"
       is_visible="true"
       lpeversion="0" /><clipPath
       id="clipPath121653"><path
         id="path121655"
         d="m 44.661,334.275 h 21.164 v 11.352 H 44.661 Z"
         inkscape:connector-curvature="0" /></clipPath><clipPath
       id="clipPath121643"><path
         id="path121645"
         d="m 45.866,334.918 h 16.859 v 9.995 H 45.866 Z"
         inkscape:connector-curvature="0" /></clipPath><clipPath
       id="clipPath121633"><path
         id="path121635"
         d="M 0,0 H 524.409 V 651.968 H 0 Z"
         inkscape:connector-curvature="0" /></clipPath><clipPath
       clipPathUnits="userSpaceOnUse"
       id="clipPath29756"><path
         d="m 341.536,592.085 h 20.54 v 12.474 h -20.54 z"
         id="path29754"
         inkscape:connector-curvature="0" /></clipPath><clipPath
       clipPathUnits="userSpaceOnUse"
       id="clipPath29744"><path
         d="m 342.979,596.898 h 16.953 v 4.845 h -16.953 z"
         id="path29742"
         inkscape:connector-curvature="0" /></clipPath></defs><g
     inkscape:label="Calque 1"
     inkscape:groupmode="layer"
     id="layer1"
     transform="translate(-262.01618,-466.35934)"><path
       id="path23"
       style="fill:#5600df;fill-opacity:1;stroke:none;stroke-width:3.10185;stroke-linecap:square;stroke-linejoin:round;paint-order:stroke fill markers"
       d="m 337.28445,470.30122 v 29.962 6.1252 h -6.12521 -34.65525 v -6.1252 h 34.65525 v -32.00167 c -4.65098,-1.25753 -9.4473,-1.8971 -14.26528,-1.90221 -30.30812,1.2e-4 -54.87767,24.56967 -54.87778,54.87779 0.0542,22.38788 13.70257,42.49826 34.48781,50.81654 v -29.84211 -6.12521 h 6.12521 34.65525 v 6.12521 H 302.6292 v 31.94068 c 4.64806,1.27808 9.44425,1.93815 14.26476,1.96319 30.30852,1.7e-4 54.87848,-24.56978 54.87831,-54.8783 -0.005,-22.43143 -13.66223,-42.60141 -34.48782,-50.93591 z"
       sodipodi:nodetypes="ccccccccccccccccccccc" /><g
       id="g26"
       style="fill:#5600df;fill-opacity:1"><path
         id="text25"
         style="font-size:161.422px;line-height:1.25;font-family:'Heldustry Cg';-inkscape-font-specification:'Heldustry Cg';text-align:end;letter-spacing:0px;word-spacing:0px;text-anchor:end;fill:#5600df;fill-opacity:1;stroke-width:4.06879"
         d="m 432.644,491.43 32.0699,85.28178 h 1.96061 14.64746 1.9606 L 515.35246,491.43 H 496.94635 L 473.99849,561.0874 451.05012,491.43 Z" /><path
         d="m 379.36373,506.70996 v -13.56178 h 14.32582 v -24.60024 h 16.42695 v 24.60024 h 16.60147 v 13.56178 H 410.1165 v 48.32083 c 0,2.67415 0.0637,4.77527 0.19101,6.30336 0.12734,1.52809 0.50936,2.67415 1.14607,3.4382 0.6367,0.76404 1.59175,1.2734 2.86516,1.52809 1.27341,0.12734 3.11985,0.19101 5.53932,0.19101 h 3.24719 l 3.4382,-0.38202 v 13.17975 c -4.20225,0.38203 -8.40449,0.57304 -12.60673,0.57304 -5.09363,0 -9.04119,-0.6367 -11.84268,-1.91011 -2.67415,-1.40075 -4.64793,-3.18352 -5.92134,-5.34831 -1.27341,-2.29213 -2.03745,-4.83895 -2.29214,-7.64044 -0.12734,-2.92883 -0.19101,-5.92134 -0.19101,-8.97752 v -49.27588 z"
         id="text26"
         style="font-size:191.011px;line-height:1.25;font-family:'Heldustry Cg';-inkscape-font-specification:'Heldustry Cg';text-align:end;letter-spacing:0px;word-spacing:0px;text-anchor:end;fill:#5600df;fill-opacity:1;stroke-width:4.77527"
         transform="scale(1.0034963,0.99651589)"
         aria-label="t"
         sodipodi:nodetypes="cccccccccssscscccscccscc" /></g></g><style
     id="style826"
     type="text/css">
	.st0{fill:#FFFFFF;}
	.st1{fill:#005CAB;}
</style></svg>
