<?xml version="1.0" encoding="UTF-8" ?>
<!DOCTYPE svg PUBLIC "-//W3C//DTD SVG 1.1//EN" "http://www.w3.org/Graphics/SVG/1.1/DTD/svg11.dtd">
<svg width="800pt" height="288pt" viewBox="0 0 800 288" version="1.1" xmlns="http://www.w3.org/2000/svg">
<g id="#005fa6ff">
<path fill="#005fa6" opacity="1.00" d=" M 0.00 0.00 L 399.47 0.00 C 399.43 14.07 399.48 28.15 399.44 42.22 C 384.62 46.13 370.39 52.25 357.35 60.31 C 352.47 63.32 348.40 67.40 344.42 71.47 C 328.63 87.96 317.99 109.94 317.48 132.99 C 317.26 151.65 319.67 170.70 327.22 187.91 C 332.60 200.26 340.82 211.28 350.82 220.27 C 364.34 232.89 381.77 240.44 399.45 245.21 C 399.45 259.47 399.48 273.74 399.44 288.00 L 0.00 288.00 L 0.00 0.00 M 78.80 41.18 C 78.80 109.37 78.80 177.56 78.80 245.76 C 125.24 245.82 171.68 245.85 218.12 245.74 C 218.06 224.97 218.26 204.19 218.02 183.43 C 198.97 183.42 179.92 183.42 160.87 183.43 C 160.87 136.00 160.87 88.57 160.87 41.14 C 133.51 41.16 106.16 41.08 78.80 41.18 Z" />
</g>
<g id="#e21520ff">
<path fill="#e21520" opacity="1.00" d=" M 399.47 0.00 L 800.00 0.00 L 800.00 288.00 L 399.44 288.00 C 399.48 273.74 399.45 259.47 399.45 245.21 C 430.41 253.37 463.36 251.63 494.07 243.18 C 495.69 242.54 497.90 242.62 499.09 241.26 C 499.27 222.35 499.11 203.44 499.16 184.54 C 484.06 189.84 468.09 193.14 452.03 192.86 C 439.79 192.59 427.01 189.61 417.54 181.45 C 404.66 170.19 398.86 152.02 401.16 135.25 C 402.71 123.75 408.58 112.96 417.22 105.25 C 421.19 101.58 426.47 99.91 431.49 98.23 C 453.30 91.51 477.24 94.74 497.74 104.18 C 497.93 83.93 497.73 63.66 497.84 43.41 C 465.91 34.56 431.55 33.84 399.44 42.22 C 399.48 28.15 399.43 14.07 399.47 0.00 M 635.20 39.90 C 635.09 108.53 635.21 177.16 635.14 245.79 C 663.85 245.81 692.55 245.81 721.26 245.79 C 721.24 177.14 721.30 108.49 721.23 39.84 C 692.55 39.87 663.87 39.75 635.20 39.90 Z" />
</g>
<g id="#ffffffff">
<path fill="#ffffff" opacity="1.00" d=" M 399.44 42.22 C 431.55 33.84 465.91 34.56 497.84 43.41 C 497.73 63.66 497.93 83.93 497.74 104.18 C 477.24 94.74 453.30 91.51 431.49 98.23 C 426.47 99.91 421.19 101.58 417.22 105.25 C 408.58 112.96 402.71 123.75 401.16 135.25 C 398.86 152.02 404.66 170.19 417.54 181.45 C 427.01 189.61 439.79 192.59 452.03 192.86 C 468.09 193.14 484.06 189.84 499.16 184.54 C 499.11 203.44 499.27 222.35 499.09 241.26 C 497.90 242.62 495.69 242.54 494.07 243.18 C 463.36 251.63 430.41 253.37 399.45 245.21 C 381.77 240.44 364.34 232.89 350.82 220.27 C 340.82 211.28 332.60 200.26 327.22 187.91 C 319.67 170.70 317.26 151.65 317.48 132.99 C 317.99 109.94 328.63 87.96 344.42 71.47 C 348.40 67.40 352.47 63.32 357.35 60.31 C 370.39 52.25 384.62 46.13 399.44 42.22 Z" />
<path fill="#ffffff" opacity="1.00" d=" M 635.20 39.90 C 663.87 39.75 692.55 39.87 721.23 39.84 C 721.30 108.49 721.24 177.14 721.26 245.79 C 692.55 245.81 663.85 245.81 635.14 245.79 C 635.21 177.16 635.09 108.53 635.20 39.90 Z" />
<path fill="#ffffff" opacity="1.00" d=" M 78.80 41.18 C 106.16 41.08 133.51 41.16 160.87 41.14 C 160.87 88.57 160.87 136.00 160.87 183.43 C 179.92 183.42 198.97 183.42 218.02 183.43 C 218.26 204.19 218.06 224.97 218.12 245.74 C 171.68 245.85 125.24 245.82 78.80 245.76 C 78.80 177.56 78.80 109.37 78.80 41.18 Z" />
</g>
</svg>
