<?xml version="1.0" encoding="utf-8"?>
<!-- Generator: Adobe Illustrator 14.0.0, SVG Export Plug-In . SVG Version: 6.00 Build 43363)  -->
<!DOCTYPE svg PUBLIC "-//W3C//DTD SVG 1.1//EN" "http://www.w3.org/Graphics/SVG/1.1/DTD/svg11.dtd">
<svg version="1.1" id="Calque_1" xmlns="http://www.w3.org/2000/svg" xmlns:xlink="http://www.w3.org/1999/xlink" x="0px" y="0px"
	 width="150px" height="40.39px" viewBox="0 0 150 40.39" enable-background="new 0 0 150 40.39" xml:space="preserve">
<rect y="20.206" width="150" height="20.183"/>
<path fill="#FFFFFF" d="M5.859,22.444h2.188c1.595,0,3.964,0.824,3.964,3.094c0,2.371-2.008,3.17-3.604,3.17H5.859V22.444
	 M3.273,38.201h2.586v-7.22h2.522c3.243,0,6.374-1.421,6.374-5.419c0-4.1-3.08-5.392-6.76-5.392H3.273V38.201z"/>
<path fill="#FFFFFF" d="M22.932,22.444h2.469c2.368,0,3.603,1.031,3.603,2.655c0,1.729-1.441,2.81-3.885,2.81h-2.187V22.444
	 M20.346,38.201h2.586v-8.019h1.543c1.363,0,2.212,0,3.01,1.759l2.76,6.26h2.949l-3.416-7.189c-0.568-1.113-0.956-1.501-1.753-1.811
	v-0.052c2.092-0.362,3.723-1.91,3.723-4.102c0-4.31-3.441-4.877-6.99-4.877h-4.412V38.201z"/>
<polyline fill="#FFFFFF" points="40.409,20.171 50.511,20.171 50.511,22.444 42.995,22.444 42.995,27.711 49.839,27.711 
	49.839,29.982 42.995,29.982 42.995,35.93 50.511,35.93 50.511,38.201 40.409,38.201 40.409,20.171 "/>
<polyline fill="#FFFFFF" points="58.653,20.17 62.917,20.17 68.574,35.17 74.129,20.172 78.393,20.172 78.393,38.201 75.809,38.201 
	75.809,22.602 75.755,22.602 69.788,38.201 67.256,38.201 61.289,22.602 61.239,22.602 61.239,38.201 58.653,38.201 58.653,20.17 
	"/>
<rect x="86.998" y="20.17" fill="#FFFFFF" width="2.584" height="18.031"/>
<polyline fill="#FFFFFF" points="98.341,20.171 108.441,20.171 108.441,22.444 100.925,22.444 100.925,27.711 107.77,27.711 
	107.77,29.982 100.925,29.982 100.925,35.93 108.441,35.93 108.441,38.201 98.341,38.201 98.341,20.171 "/>
<path fill="#FFFFFF" d="M119.01,22.444h2.472c2.364,0,3.6,1.031,3.6,2.655c0,1.729-1.44,2.81-3.884,2.81h-2.188V22.444
	 M116.426,38.201h2.584v-8.019h1.544c1.362,0,2.213,0,3.01,1.759l2.76,6.26h2.95l-3.415-7.189c-0.57-1.113-0.958-1.501-1.755-1.811
	v-0.052c2.091-0.362,3.723-1.91,3.723-4.102c0-4.31-3.44-4.877-6.988-4.877h-4.412V38.201z"/>
<polyline fill="#FFFFFF" points="136.488,20.171 146.589,20.171 146.589,22.444 139.074,22.444 139.074,27.711 145.917,27.711 
	145.917,29.982 139.074,29.982 139.074,35.93 146.589,35.93 146.589,38.201 136.488,38.201 136.488,20.171 "/>
<rect y="0.001" fill="#ED7807" width="150" height="20.183"/>
<path fill="#FFFFFF" d="M8.149,5.634h1.246c1.66,0,2.983,0.599,2.983,2.448c0,1.9-1.323,2.499-2.983,2.499H8.149V5.634
	 M3.362,20.275h4.788v-6.303h1.868c4.497,0,7.149-2.157,7.149-5.812c0-4.066-2.574-5.917-8.082-5.917H3.362V20.275z"/>
<path fill="#FFFFFF" d="M44.036,13.015H39.52l2.336-7.062h0.052L44.036,13.015 M32.112,20.275h4.878l1.42-3.869h6.763l1.341,3.869
	h5.265L44.836,2.243h-5.885L32.112,20.275z"/>
<path fill="#FFFFFF" d="M76.429,5.634h1.269c1.836,0,3.518,0.312,3.518,2.003c0,2.055-1.966,2.107-3.518,2.107h-1.269V5.634
	 M71.643,20.275h4.786v-7.142h1.008c1.782,0,2.4,0.777,3.383,3.882l1.033,3.26h5.011l-1.755-4.916
	c-0.907-2.188-1.01-3.555-2.554-3.968v-0.053c2.316-0.54,3.447-2.141,3.447-4.561c0-3.096-2.599-4.536-5.795-4.536h-8.564V20.275z"
	/>
<rect x="107.307" y="2.243" fill="#FFFFFF" width="4.787" height="18.033"/>
<path fill="#FFFFFF" d="M133.849,15.851c1.236,0.674,2.963,1.193,4.946,1.193c1.518,0,2.958-0.311,2.958-1.764
	c0-3.371-8.498-1.245-8.498-7.833c0-4.338,4.227-5.522,7.829-5.522c1.727,0,3.425,0.258,4.638,0.669l-0.311,3.712
	c-1.235-0.57-2.627-0.83-3.992-0.83c-1.21,0-3.217,0.104-3.217,1.686c0,2.931,8.497,0.959,8.497,7.498
	c0,4.675-3.915,5.936-7.904,5.936c-1.676,0-3.762-0.258-5.359-0.771L133.849,15.851"/>
</svg>
