<?xml version="1.0" encoding="UTF-8"?><svg id="uuid-1c75e630-baf9-44cc-82ce-fea541b6b1dc" xmlns="http://www.w3.org/2000/svg" viewBox="0 0 469.2 319.2"><rect width="469.2" height="319.2" style="fill:#fec82f;"/><path d="M31.5,286.1c-.5,0-.9-.4-.9-.9v-7.76h-3.3c-.5,0-.9-.4-.9-.9v-.5c0-.5.4-.9.9-.9h11.05c.5,0,.9.4.9.9v.5c0,.5-.4.9-.9.9h-3.6v7.76c0,.5-.4.9-.9.9h-2.35Z"/><path d="M43.94,286.1c-.5,0-.9-.4-.9-.9v-9.16c0-.5.4-.9.9-.9h10.79c.5,0,.9.4.9.9v.5c0,.5-.4.9-.9.9h-7.54v1.38h5.54c.5,0,.9.4.9.9v.5c0,.5-.4.9-.9.9h-5.54v2.6h7.83c.5,0,.9.4.9.9v.58c0,.5-.4.9-.9.9h-11.08Z"/><path d="M60.68,286.1c-.5,0-.9-.4-.9-.9v-9.16c0-.5.4-.9.9-.9h2.35c.5,0,.9.4.9.9v7.69h6.33c.5,0,.9.4.9.9v.58c0,.5-.4.9-.9.9h-9.58Z"/><path d="M75.61,286.1c-.5,0-.9-.4-.9-.9v-9.16c0-.5.4-.9.9-.9h10.79c.5,0,.9.4.9.9v.5c0,.5-.4.9-.9.9h-7.54v1.38h5.54c.5,0,.9.4.9.9v.5c0,.5-.4.9-.9.9h-5.54v2.6h7.83c.5,0,.9.4.9.9v.58c0,.5-.4.9-.9.9h-11.08Z"/><path d="M96.83,286.1c-.3,0-.58-.15-.74-.39l-6.25-9.16c-.19-.28-.21-.63-.05-.93.16-.29.46-.48.8-.48h2.66c.29,0,.56.14.73.37l4.35,6.03,3.2-5.93c.16-.29.46-.47.79-.47h1.17c.32,0,.61.17.77.44.16.27.17.61.02.89l-4.94,9.16c-.16.29-.46.47-.79.47h-1.71Z"/><rect x="106.17" y="275.14" width="4.15" height="10.96" rx=".9" ry=".9"/><path d="M127.16,277.19l.16-.36c.11-.25.1-.53-.02-.77s-.34-.41-.61-.47c-2.61-.59-4.51-.87-5.8-.87-4.64,0-7.53,1.55-7.53,4.05,0,2.95,4.63,3.27,6.91,3.41,1.59.09,3.56.21,3.56.85,0,.72-2.24.72-3.87.72-1.42,0-2.92-.26-4.55-.98-.12-.05-.24-.08-.36-.08-.14,0-.27.03-.4.09-.24.12-.41.34-.48.6l-.24.98c-.11.46.15.93.6,1.07,2.05.65,3.69.99,5.9.99,5.09,0,8.12-1.55,8.12-4.15,0-3.24-4.11-3.48-7.12-3.66-1.22-.07-3.05-.18-3.05-.6,0-.66.82-.99,2.43-.99,1.33,0,3.1.02,5.14.63,0,0,.83.21,1.2-.46Z"/><rect x="130.95" y="275.14" width="4.15" height="10.96" rx=".9" ry=".9"/><path d="M156.76,286.1c-.5,0-.9-.4-.9-.9v-9.16c0-.5.4-.9.9-.9h2.97c.23,0,.45.09.62.24l7.57,7.11v-6.5c0-.5.4-.9.9-.9h.87c.5,0,.9.4.9.9v9.16c0,.5-.4.9-.9.9h-3.05c-.22,0-.43-.08-.59-.22l-7.52-6.6v5.96c0,.5-.4.9-.9.9h-.87Z"/><path d="M186.52,286.1c-.5,0-.9-.4-.9-.9v-9.16c0-.5.4-.9.9-.9h11.24c.5,0,.9.4.9.9v.5c0,.5-.4.9-.9.9h-7.99v1.38h6.59c.5,0,.9.4.9.9v.5c0,.5-.4.9-.9.9h-6.59v4.08c0,.5-.4.9-.9.9h-2.35Z"/><path d="M214.28,286.1c-.33,0-.64-.18-.79-.48l-1.8-3.39h-5.01v2.97c0,.5-.4.9-.9.9h-2.35c-.5,0-.9-.4-.9-.9v-9.16c0-.5.4-.9.9-.9h7.66c4.73,0,7.04,1.22,7.04,3.74,0,1.8-1.12,2.58-2.1,3l1.65,2.88c.16.28.16.62,0,.9s-.46.45-.78.45h-2.61ZM211.45,279.99c1.92,0,1.92-.91,1.92-1.26,0-.3,0-1.21-2.29-1.21h-4.41v2.47h4.78Z"/><path d="M232.03,286.1c-.31,0-.6-.16-.76-.42l-.78-1.24h-5.82l-.78,1.24c-.16.26-.45.42-.76.42h-1.41c-.32,0-.61-.17-.78-.44-.16-.28-.17-.62-.01-.89l5.11-9.16c.16-.29.46-.46.79-.46h2.74c.33,0,.63.18.79.46l5.11,9.16c.16.28.15.62-.01.89-.16.28-.46.44-.78.44h-2.64ZM228.85,281.36l-.71-1.34c-.08-.15-.24-.25-.42-.25h-.18c-.17,0-.33.09-.41.24l-.76,1.34c-.18.32.05.71.41.71h1.65c.36,0,.59-.38.42-.7Z"/><rect x="292.04" y="275.14" width="4.15" height="10.96" rx=".9" ry=".9"/><path d="M321.02,286.1c-.5,0-.9-.4-.9-.9v-9.16c0-.5.4-.9.9-.9h10.79c.5,0,.9.4.9.9v.5c0,.5-.4.9-.9.9h-7.54v1.38h5.54c.5,0,.9.4.9.9v.5c0,.5-.4.9-.9.9h-5.54v2.6h7.83c.5,0,.9.4.9.9v.58c0,.5-.4.9-.9.9h-11.08Z"/><path d="M145.07,286.4c-3.32,0-8.03-1.8-8.11-5.79,0-.02,0-.05,0-.07.24-4.21,5.19-5.78,8.25-5.78,3.32,0,8.03,1.8,8.11,5.79,0,.02,0,.05,0,.07-.24,4.21-5.19,5.78-8.25,5.78ZM141.19,280.54s.02.09.02.14c.15,1.98,1.56,3.42,3.86,3.42,1.8,0,3.95-.85,4.01-3.49-.01-.05-.02-.09-.02-.14-.15-1.98-1.56-3.42-3.86-3.42-1.8,0-3.95.85-4.01,3.49Z"/><path d="M239.82,286.12c-.5,0-.9-.4-.9-.9v-9.16c0-.5.4-.9.9-.9h2.97c.23,0,.45.09.62.24l7.57,7.11v-6.5c0-.5.4-.9.9-.9h.87c.5,0,.9.4.9.9v9.16c0,.5-.4.9-.9.9h-3.05c-.22,0-.43-.08-.59-.22l-7.52-6.6v5.96c0,.5-.4.9-.9.9h-.87Z"/><path d="M285.68,286.08c-.31,0-.6-.16-.76-.42l-.78-1.24h-5.82l-.78,1.24c-.16.26-.45.42-.76.42h-1.41c-.32,0-.61-.17-.78-.44-.16-.28-.17-.62,0-.89l5.11-9.16c.16-.29.46-.46.79-.46h2.74c.33,0,.63.18.79.46l5.11,9.16c.16.28.15.62,0,.89-.16.28-.46.44-.78.44h-2.64ZM282.49,281.34l-.71-1.34c-.08-.15-.24-.25-.42-.25h-.18c-.17,0-.33.09-.41.24l-.76,1.34c-.18.32.05.71.41.71h1.65c.36,0,.59-.38.42-.7Z"/><path d="M314.47,277.24l.16-.36c.11-.25.1-.53-.02-.77s-.34-.41-.61-.47c-2.61-.59-4.51-.87-5.8-.87-4.64,0-7.53,1.55-7.53,4.05,0,2.95,4.63,3.27,6.91,3.41,1.59.09,3.56.21,3.56.85,0,.72-2.24.72-3.87.72-1.42,0-2.92-.26-4.55-.98-.12-.05-.24-.08-.36-.08-.14,0-.27.03-.4.09-.24.12-.41.34-.48.6l-.24.98c-.11.46.15.93.6,1.07,2.05.65,3.69.99,5.9.99,5.09,0,8.12-1.55,8.12-4.15,0-3.24-4.11-3.48-7.12-3.66-1.22-.07-3.05-.18-3.05-.6,0-.66.82-.99,2.43-.99,1.33,0,3.1.02,5.14.63,0,0,.83.21,1.2-.46Z"/><path d="M264.33,289.36c-.6,0-1.17-.14-1.62-.39-.36-.2-.53-.62-.43-1.01.07-.26.24-.46.47-.58l-.12-.19c-.09-.14-.14-.31-.14-.47v-.48c-2.91-.52-6.2-2.27-6.27-5.62,0-.02,0-.05,0-.07.24-4.21,5.19-5.78,8.25-5.78,2.26,0,5.28.85,6.92,2.76.22.26.28.61.15.92-.13.31-.42.53-.75.56l-2.19.2s-.06,0-.08,0c-.3,0-.58-.15-.75-.4-.81-1.2-2.24-1.45-3.3-1.45-1.8,0-3.95.55-4.01,3.19.01.04.02.09.02.14.15,1.98,1.56,3.12,3.86,3.12,1.12,0,2.62-.22,3.42-1.28.17-.23.44-.36.72-.36.02,0,.04,0,.06,0l2.04.13c.35.02.65.24.78.57.13.32.06.69-.18.95-1.15,1.22-2.92,2.07-5,2.43v.43c.4.29.62.67.62,1.08,0,.9-1.08,1.61-2.46,1.61Z"/><path d="M394.79,317.25c-9.91,0-19.23-3.86-26.23-10.87l-23.19-23.19c-.98-.98-1.52-2.28-1.52-3.66s.54-2.68,1.52-3.66l23.19-23.19c7.01-7.01,16.32-10.87,26.23-10.87s19.23,3.86,26.23,10.87l23.19,23.19c.98.98,1.52,2.28,1.52,3.66s-.54,2.68-1.52,3.66l-23.19,23.19c-7.01,7.01-16.32,10.87-26.23,10.87ZM394.43,247.6c-8.68,0-16.85,3.38-22.99,9.52l-20.06,20.06c-1.58,1.58-1.58,4.16,0,5.75l20.06,20.06c6.14,6.14,14.3,9.52,22.99,9.52s16.84-3.38,22.98-9.52l20.06-20.06c1.58-1.58,1.58-4.16,0-5.75l-20.06-20.06c-6.14-6.14-14.3-9.52-22.98-9.52Z" style="fill:#4565ad;"/><path d="M394.79,242.51c9.72,0,18.86,3.79,25.74,10.66l23.19,23.19c.85.85,1.31,1.97,1.31,3.17s-.47,2.32-1.31,3.17l-23.19,23.19c-6.88,6.88-16.02,10.66-25.74,10.66s-18.86-3.79-25.74-10.66l-23.19-23.19c-1.75-1.75-1.75-4.59,0-6.34l23.19-23.19c6.88-6.88,16.02-10.66,25.74-10.66M394.43,313.2c8.87,0,17.21-3.45,23.48-9.73l20.06-20.06c.9-.9,1.39-2.1,1.39-3.37s-.5-2.47-1.39-3.37l-20.06-20.06c-6.27-6.27-14.61-9.73-23.48-9.73s-17.21,3.45-23.48,9.73l-20.06,20.06c-1.86,1.86-1.86,4.88,0,6.73l20.06,20.06c6.27,6.27,14.61,9.73,23.48,9.73M394.79,241.11c-9.67,0-19.35,3.69-26.73,11.07l-23.19,23.19c-2.3,2.3-2.3,6.02,0,8.32l23.19,23.19c7.38,7.38,17.06,11.07,26.73,11.07s19.35-3.69,26.73-11.07l23.19-23.19c2.3-2.3,2.3-6.02,0-8.32l-23.19-23.19c-7.38-7.38-17.06-11.07-26.73-11.07h0ZM394.43,311.8c-8.14,0-16.28-3.11-22.49-9.32l-20.06-20.06c-1.31-1.31-1.31-3.44,0-4.75l20.06-20.06c6.21-6.21,14.35-9.32,22.49-9.32s16.28,3.11,22.49,9.32l20.06,20.06c1.31,1.31,1.31,3.44,0,4.75l-20.06,20.06c-6.21,6.21-14.35,9.32-22.49,9.32h0Z"/><path d="M394.69,309.64c-7.7,0-14.94-3-20.38-8.44l-20.17-20.17c-.26-.26-.4-.6-.4-.97s.14-.71.4-.97l20.17-20.17c5.44-5.45,12.68-8.44,20.38-8.44s14.94,3,20.38,8.44l17.88,17.88c.87.87,1.35,2.02,1.35,3.25s-.48,2.39-1.35,3.25l-17.88,17.88c-5.44,5.45-12.68,8.44-20.38,8.44ZM394.72,257.41c-6.44,0-12.5,2.51-17.05,7.06l-13.1,13.1c-1.29,1.29-1.29,3.38,0,4.67l13.1,13.1c4.55,4.55,10.61,7.06,17.05,7.06s12.5-2.51,17.05-7.06l12.29-12.29c.84-.84,1.31-1.96,1.31-3.15s-.46-2.31-1.31-3.15l-12.29-12.29c-4.55-4.55-10.61-7.06-17.05-7.06Z" style="fill:#965091;"/><path d="M394.69,251.17c7.51,0,14.58,2.93,19.89,8.24l17.88,17.88c1.52,1.52,1.52,4,0,5.52l-17.88,17.88c-5.31,5.31-12.38,8.24-19.89,8.24s-14.58-2.93-19.89-8.24l-20.17-20.17c-.26-.26-.26-.68,0-.95l20.17-20.17c5.31-5.31,12.38-8.24,19.89-8.24M394.72,303.11c6.63,0,12.86-2.58,17.55-7.27l12.29-12.29c2.01-2.01,2.01-5.28,0-7.3l-12.29-12.29c-4.69-4.69-10.92-7.27-17.55-7.27s-12.86,2.58-17.55,7.27l-13.1,13.1c-.76.76-1.17,1.76-1.17,2.83s.42,2.08,1.17,2.83l13.1,13.1c4.69,4.69,10.92,7.27,17.55,7.27M394.69,249.77c-7.56,0-15.11,2.88-20.88,8.65l-20.17,20.17c-.81.81-.81,2.12,0,2.93l20.17,20.17c5.77,5.77,13.32,8.65,20.88,8.65s15.11-2.88,20.88-8.65l17.88-17.88c2.07-2.07,2.07-5.43,0-7.5l-17.88-17.88c-5.77-5.77-13.32-8.65-20.88-8.65h0ZM394.72,301.71c-5.99,0-11.98-2.29-16.56-6.86l-13.1-13.1c-1.02-1.02-1.02-2.67,0-3.68l13.1-13.1c4.57-4.57,10.56-6.86,16.56-6.86s11.98,2.29,16.56,6.86l12.29,12.29c1.47,1.47,1.47,3.85,0,5.32l-12.29,12.29c-4.57,4.57-10.56,6.86-16.56,6.86h0Z"/><path d="M394.74,297.44c-9.72,0-17.64-7.91-17.64-17.64s7.91-17.64,17.64-17.64,17.64,7.91,17.64,17.64-7.91,17.64-17.64,17.64Z" style="fill:#d45e90;"/><path d="M394.74,262.77c9.39,0,17.04,7.64,17.04,17.04s-7.64,17.04-17.04,17.04-17.04-7.64-17.04-17.04,7.64-17.04,17.04-17.04M394.74,261.57c-10.07,0-18.24,8.16-18.24,18.24s8.16,18.24,18.24,18.24,18.24-8.16,18.24-18.24-8.16-18.24-18.24-18.24h0Z"/><path d="M389.4,284.6v-3.1h1.9c.33,0,.6-.27.6-.6v-2.75c0-.33-.27-.6-.6-.6h-1.9v-2.12l2.4-1.83h5.6v7.32c0,.33.27.6.6.6h1.8v3.08h-10.4Z" style="fill:#965091;"/><path d="M396.8,274.2v6.72c0,.66.54,1.2,1.2,1.2h1.2v1.88h-9.2v-1.9h1.3c.66,0,1.2-.54,1.2-1.2v-2.75c0-.66-.54-1.2-1.2-1.2h-1.3v-1.22l2.01-1.53h4.79M398,273h-6.4l-2.8,2.14v3.01h2.5v2.75h-2.5v4.3h11.6v-4.28h-2.4v-7.92h0Z"/><path d="M178.05,203.64v1.36c-.04.13-.09.27-.13.4-.09.27-.18.53-.27.78-.04.12-.08.23-.12.34l-.02.06c-.38,1.07-.81,2.17-1.28,3.28l-.16.38c-.19.43-.43.97-.68,1.5l-.02.03-.02.06c-.24.5-.49,1.01-.76,1.54l-.03.06c-.05.1-.1.2-.15.3-.27.52-.51.98-.76,1.43l-.07.12c-.26.46-.54.95-.86,1.49l-.02.04c-.05.1-.11.19-.17.29l-.02.04c-.26.44-.53.86-.79,1.28-.03.05-.14.21-.14.21-.26.4-.56.85-.94,1.4,0,0-.17.25-.26.37-.29.4-.56.79-.84,1.17l-.2.28c-.11.14-.21.28-.32.43l-.5.63c-2.08,2.66-4.4,5.15-6.89,7.4-10.73,9.69-24.62,15.03-39.09,15.03-32.18,0-58.37-26.18-58.37-58.36v-62.85H24.69v-35.31l39.07-39.06h73.16v37.85h39.89v35.71h-39.89v39.2l41.14,41.14Z" style="fill:#4565ad;"/><path d="M296.6,126.69v35.21h-39.79v40.25h-75.46l-41.05-41.05v-34.41h39.89v-39.1h0v-18.55c0-16.09,6.14-31.18,17.3-42.49,11.18-11.33,26.15-17.58,42.15-17.58,11.75,0,23.12,3.39,32.9,9.8,9.53,6.25,17.06,15.03,21.78,25.37.23.51.46,1.04.69,1.58l-38.06,38.06v39.5h-.02v3.39h39.67Z" style="fill:#965091;"/><polygon points="414.31 165.89 414.31 202.15 260.2 202.15 260.2 165.29 299.99 165.29 299.99 125 299.96 125 299.96 123.3 260.34 123.3 260.34 85.21 297.15 48.39 373.71 48.39 373.71 165.89 414.31 165.89" style="fill:#d45e90;"/><path d="M446.34,191.14l-28.22-28.22c-.27-.27-.64-.42-1.02-.42h-8.36c-.19,0-.35-.16-.35-.35v-85.71c0-.09-.04-.18-.1-.25l-30.91-30.91c-.18-.18-.42-.28-.68-.28h-78.1l-.2.04c-.32-.77-.64-1.54-.99-2.29-10-21.92-32.1-37.16-57.76-37.16-35.05,0-62.84,28.41-62.84,63.46v14.81c0,.19-.16.35-.35.35h-5.73c-.19,0-.35-.16-.35-.35v-6.81c0-.4-.16-.78-.44-1.06l-29.53-29.53c-.07-.07-.15-.1-.25-.1H62.5c-.09,0-.18.04-.25.1l-40.6,40.59c-.23.23-.35.53-.35.85v38.95c0,.41.16.81.46,1.11l30.91,30.91c.22.22.51.34.81.34h6.95c.19,0,.35.16.35.35v27.41c0,21.83,11.32,41.01,28.42,51.99-.4-.26-.8-.52-1.2-.79h-.02c16.29,10.94,35.89,17.31,56.98,17.31,22.18,0,42.71-7.05,59.48-19.03h242.02c.19,0,.35-.16.35-.35v-43.84c0-.42-.17-.82-.46-1.12ZM377.1,50.64c0-.31.38-.47.6-.25l27.31,27.31v84.45c0,.19-.16.35-.35.35h-27.21c-.19,0-.35-.16-.35-.35V50.64ZM373.71,48.39v117.5h40.6v36.26h-154.11v-36.86h39.79v-40.29h-.02v-1.7h-39.63v-38.09l36.81-36.82h76.56ZM180.19,126.69v-39.1h0v-18.55c0-16.09,6.14-31.18,17.3-42.49,11.18-11.33,26.15-17.58,42.15-17.58,11.75,0,23.12,3.39,32.9,9.8,9.53,6.25,17.06,15.03,21.78,25.37.23.51.46,1.04.69,1.58l-38.06,38.06v39.5h-.02v3.39h39.67v35.21h-39.79v40.25h-75.46l-41.05-41.05v-34.41h39.89ZM140.3,51.99c0-.31.38-.47.6-.25l26.08,26.08v6.03c0,.19-.16.35-.35.35h-25.98c-.19,0-.35-.16-.35-.35v-31.86ZM60.78,155.17c0,.36-.29.64-.64.64h-5.23c-.32,0-.63-.13-.85-.35l-27.96-27.96h34.33c.19,0,.35.16.35.35v27.32ZM64.17,186.96v-62.85H24.69v-35.31l39.07-39.06h73.16v37.85h39.89v35.71h-39.89v39.2l41.14,41.14v1.36c-.04.13-.09.27-.13.4-.09.27-.18.53-.27.78-.04.12-.08.23-.12.34l-.02.06c-.38,1.07-.81,2.17-1.28,3.28l-.16.38c-.19.43-.43.97-.68,1.5l-.02.03-.02.06c-.24.5-.49,1.01-.76,1.54l-.03.06c-.05.1-.1.2-.15.3-.27.52-.51.98-.76,1.43l-.07.12c-.26.46-.54.95-.86,1.49l-.02.04c-.05.1-.11.19-.17.29l-.02.04c-.26.44-.53.86-.79,1.28-.03.05-.14.21-.14.21-.26.4-.56.85-.94,1.4,0,0-.17.25-.26.37-.29.4-.56.79-.84,1.17l-.2.28c-.11.14-.21.28-.32.43l-.5.63c-2.08,2.66-4.4,5.15-6.89,7.4-10.73,9.69-24.62,15.03-39.09,15.03-32.18,0-58.37-26.18-58.37-58.36ZM443.41,233.05h-238.84s-.1,0-.14,0c-.76,0-1.46.25-2.02.67-16.84,12.01-36.71,18.36-57.46,18.36-4.15,0-8.26-.26-12.33-.76,0,0-3.4-.25-8.65-1.41-.24-.05-1.2-.67-1-.8l2.03-.45h0c14.94-.59,28.52-6.48,38.9-15.85,2.65-2.39,5.08-5.01,7.29-7.82h0c.3-.38.59-.76.87-1.14.07-.09.13-.18.2-.27.3-.4.59-.81.88-1.22.1-.14.19-.27.29-.41.33-.49.66-.98.98-1.47.05-.07.09-.14.14-.22.28-.45.57-.9.84-1.35.08-.13.16-.26.24-.4.31-.52.61-1.04.91-1.57.02-.04.05-.08.07-.13.28-.5.54-1,.8-1.51.07-.13.13-.25.2-.38.28-.55.55-1.1.82-1.66,0-.01.01-.03.02-.04.26-.55.5-1.1.75-1.65.05-.13.11-.25.16-.38.49-1.14.94-2.3,1.36-3.47.05-.13.1-.27.15-.41.1-.27.19-.55.28-.83.1-.31.21-.63.31-.94h0s235.91,0,235.91,0c.19,0,.35-.16.35-.35v-37.89l25.12,25.12c.37.37.59.88.59,1.41v39.22Z"/></svg>