<?xml version="1.0" encoding="UTF-8" ?>
<!DOCTYPE svg PUBLIC "-//W3C//DTD SVG 1.1//EN" "http://www.w3.org/Graphics/SVG/1.1/DTD/svg11.dtd">
<svg width="322pt" height="557pt" viewBox="0 0 322 557" version="1.1" xmlns="http://www.w3.org/2000/svg">
<g id="#ffffffff">
<path fill="#ffffff" opacity="1.00" d=" M 313.87 0.00 L 322.00 0.00 L 322.00 557.00 L 313.87 557.00 C 318.45 556.68 321.24 552.37 320.97 548.04 C 321.04 514.56 320.98 481.07 321.00 447.59 C 313.03 456.28 303.74 463.78 293.35 469.39 C 273.39 480.29 250.57 484.82 228.03 485.98 C 201.74 487.12 174.68 485.01 150.16 474.80 C 134.81 468.46 120.84 458.57 110.26 445.72 C 100.56 434.10 93.67 420.33 89.07 405.96 C 82.86 386.62 80.58 366.25 80.10 346.01 C 79.83 327.48 80.94 308.85 84.53 290.64 C 88.04 273.11 93.98 255.84 103.81 240.81 C 112.22 227.80 123.64 216.76 136.95 208.83 C 162.40 193.69 192.76 189.62 221.91 190.00 C 243.69 190.33 265.81 193.40 285.90 202.17 C 299.17 207.90 311.23 216.39 320.99 227.06 C 321.02 156.35 320.97 85.65 321.02 14.95 C 320.91 11.09 321.50 6.94 319.66 3.39 C 318.59 1.18 316.04 0.55 313.87 0.00 M 213.32 254.44 C 203.89 255.03 194.24 256.95 186.22 262.19 C 178.17 267.34 172.79 275.75 169.60 284.60 C 164.96 297.52 163.83 311.35 163.08 324.96 C 162.72 342.33 162.80 359.85 165.99 376.99 C 168.35 389.19 172.27 401.80 181.18 410.88 C 188.89 418.85 200.16 422.27 211.02 422.54 C 223.22 422.82 236.11 421.42 246.67 414.79 C 256.66 408.65 262.72 397.84 265.86 386.81 C 270.02 371.94 270.90 356.40 271.19 341.05 C 271.47 326.48 271.23 311.79 268.40 297.45 C 265.75 284.57 260.81 271.11 250.05 262.81 C 239.74 254.73 225.96 253.39 213.32 254.44 Z" />
<path fill="#ffffff" opacity="1.00" d=" M 92.82 68.81 C 96.53 66.02 101.54 66.98 105.87 66.81 C 105.87 69.22 105.87 71.63 105.87 74.03 C 103.87 74.10 101.88 74.30 99.91 74.60 C 99.84 76.66 99.74 78.72 99.70 80.78 C 101.75 80.80 103.81 80.81 105.87 80.82 C 105.87 82.88 105.87 84.93 105.87 86.99 C 103.83 87.00 101.79 87.00 99.76 87.01 C 99.74 97.17 99.70 107.34 99.78 117.50 C 96.54 117.56 93.30 117.58 90.06 117.56 C 90.06 107.37 90.07 97.19 90.06 87.01 C 88.46 87.00 86.86 87.00 85.26 87.00 C 85.26 84.94 85.26 82.88 85.27 80.82 C 86.86 80.81 88.45 80.80 90.04 80.79 C 90.20 76.75 89.29 71.73 92.82 68.81 Z" />
<path fill="#ffffff" opacity="1.00" d=" M 128.99 80.92 C 132.06 79.33 135.68 79.96 139.00 80.02 C 139.00 82.72 139.00 85.42 139.00 88.12 C 135.50 88.31 131.54 87.39 128.45 89.48 C 125.86 91.45 125.74 95.03 125.62 98.00 C 125.58 104.52 125.65 111.03 125.60 117.55 C 122.42 117.56 119.23 117.56 116.05 117.59 C 115.94 105.33 116.02 93.07 116.00 80.81 C 118.85 80.80 121.70 80.80 124.54 80.82 C 124.54 82.99 124.54 85.16 124.52 87.33 C 125.71 85.03 126.55 82.24 128.99 80.92 Z" />
<path fill="#ffffff" opacity="1.00" d=" M 149.01 82.92 C 154.21 79.28 161.05 79.56 167.07 80.26 C 171.26 80.81 175.25 83.77 175.78 88.18 C 176.56 95.36 175.72 102.61 176.30 109.81 C 176.94 110.00 178.23 110.39 178.87 110.59 C 178.86 112.92 178.87 115.25 178.86 117.58 C 176.48 117.54 174.07 117.75 171.73 117.28 C 169.67 116.94 168.79 114.85 167.63 113.38 C 166.01 115.67 163.92 117.98 160.93 118.23 C 155.17 119.14 147.32 118.35 144.85 112.12 C 143.10 107.29 143.33 100.16 148.67 97.68 C 154.10 95.35 160.25 96.39 165.84 94.72 C 167.46 92.56 167.52 88.57 164.82 87.20 C 162.10 86.37 159.03 86.37 156.36 87.38 C 154.38 88.13 154.52 90.58 153.93 92.25 C 151.01 92.28 148.10 92.28 145.18 92.25 C 145.45 88.87 145.96 84.99 149.01 82.92 M 156.33 102.45 C 152.77 103.66 152.44 109.98 156.16 111.15 C 159.37 111.97 163.53 111.55 165.56 108.61 C 167.29 106.03 166.87 102.79 167.05 99.87 C 163.57 101.10 159.87 101.44 156.33 102.45 Z" />
<path fill="#ffffff" opacity="1.00" d=" M 197.48 85.21 C 198.74 83.03 200.31 80.73 202.99 80.29 C 207.56 79.53 212.85 79.36 216.79 82.19 C 219.84 84.45 220.31 88.52 220.34 92.04 C 220.40 100.53 220.33 109.02 220.36 117.52 C 217.14 117.59 213.92 117.57 210.69 117.50 C 210.65 109.02 210.85 100.53 210.62 92.05 C 210.42 85.72 198.47 85.49 198.11 91.87 C 197.78 100.45 198.19 109.04 197.92 117.62 C 194.70 117.56 191.48 117.54 188.27 117.56 C 188.22 105.34 188.33 93.13 188.21 80.92 C 191.35 80.81 194.50 80.74 197.65 80.83 C 197.59 82.29 197.54 83.75 197.48 85.21 Z" />
<path fill="#ffffff" opacity="1.00" d=" M 231.71 89.80 C 233.49 84.56 238.52 80.97 243.90 80.20 C 249.58 79.44 256.05 79.46 260.79 83.14 C 263.92 85.54 265.06 89.55 265.31 93.32 C 262.29 93.35 259.28 93.35 256.26 93.35 C 255.91 85.08 242.46 85.15 240.54 92.44 C 239.35 97.15 239.41 102.33 240.93 106.96 C 242.64 112.02 249.30 112.29 253.43 110.38 C 255.71 109.12 255.66 106.21 256.18 104.00 C 259.35 103.99 262.51 103.99 265.68 104.02 C 265.21 107.53 264.44 111.26 261.81 113.83 C 257.30 118.48 250.18 119.05 244.10 118.22 C 238.75 117.61 233.81 114.05 231.91 108.95 C 229.63 102.86 229.70 95.95 231.71 89.80 Z" />
<path fill="#ffffff" opacity="1.00" d=" M 275.72 86.55 C 278.48 82.04 283.93 80.02 289.02 79.87 C 294.41 79.56 300.54 80.41 304.29 84.71 C 308.54 89.42 308.62 96.19 308.57 102.18 C 299.82 102.19 291.07 102.25 282.33 102.14 C 282.28 105.37 283.07 109.41 286.61 110.52 C 290.89 111.80 297.24 111.95 298.81 106.69 C 301.86 106.72 304.91 106.73 307.97 106.75 C 307.15 110.93 304.89 115.12 300.75 116.76 C 294.99 119.05 288.37 119.11 282.46 117.35 C 276.83 115.54 273.50 109.78 273.07 104.11 C 272.57 98.21 272.53 91.77 275.72 86.55 M 286.22 88.15 C 283.48 89.50 282.90 92.70 282.51 95.42 C 287.92 95.45 293.34 95.47 298.75 95.40 C 298.31 92.84 298.31 89.62 295.77 88.13 C 292.81 86.69 289.21 86.93 286.22 88.15 Z" />
<path fill="#ffffff" opacity="1.00" d=" M 195.82 131.76 C 196.78 131.12 197.65 130.03 198.93 130.18 C 208.96 130.06 218.99 130.22 229.03 130.11 C 230.98 130.22 233.27 129.70 234.80 131.26 C 254.83 146.97 274.95 162.57 294.93 178.34 C 278.88 178.37 262.83 178.29 246.79 178.38 C 236.19 169.64 225.94 160.48 215.30 151.79 C 205.25 160.68 195.26 169.62 185.10 178.37 C 169.41 178.31 153.72 178.36 138.03 178.35 C 157.22 162.73 176.60 147.35 195.82 131.76 Z" />
</g>
<g id="#f58228ff">
<path fill="#f58228" opacity="1.00" d=" M 310.40 0.00 L 313.87 0.00 C 316.04 0.55 318.59 1.18 319.66 3.39 C 321.50 6.94 320.91 11.09 321.02 14.95 C 320.97 85.65 321.02 156.35 320.99 227.06 C 311.23 216.39 299.17 207.90 285.90 202.17 C 265.81 193.40 243.69 190.33 221.91 190.00 C 192.76 189.62 162.40 193.69 136.95 208.83 C 123.64 216.76 112.22 227.80 103.81 240.81 C 93.98 255.84 88.04 273.11 84.53 290.64 C 80.94 308.85 79.83 327.48 80.10 346.01 C 80.58 366.25 82.86 386.62 89.07 405.96 C 93.67 420.33 100.56 434.10 110.26 445.72 C 120.84 458.57 134.81 468.46 150.16 474.80 C 174.68 485.01 201.74 487.12 228.03 485.98 C 250.57 484.82 273.39 480.29 293.35 469.39 C 303.74 463.78 313.03 456.28 321.00 447.59 C 320.98 481.07 321.04 514.56 320.97 548.04 C 321.24 552.37 318.45 556.68 313.87 557.00 L 309.88 557.00 C 211.62 535.55 113.31 514.33 15.04 492.96 C 10.91 491.97 6.51 490.70 3.59 487.40 C 0.98 484.48 0.36 480.43 0.00 476.68 L 0.00 80.26 C 0.41 76.32 1.10 72.01 4.06 69.11 C 7.52 65.63 12.52 64.62 17.12 63.56 C 114.89 42.43 212.61 21.03 310.40 0.00 M 92.82 68.81 C 89.29 71.73 90.20 76.75 90.04 80.79 C 88.45 80.80 86.86 80.81 85.27 80.82 C 85.26 82.88 85.26 84.94 85.26 87.00 C 86.86 87.00 88.46 87.00 90.06 87.01 C 90.07 97.19 90.06 107.37 90.06 117.56 C 93.30 117.58 96.54 117.56 99.78 117.50 C 99.70 107.34 99.74 97.17 99.76 87.01 C 101.79 87.00 103.83 87.00 105.87 86.99 C 105.87 84.93 105.87 82.88 105.87 80.82 C 103.81 80.81 101.75 80.80 99.70 80.78 C 99.74 78.72 99.84 76.66 99.91 74.60 C 101.88 74.30 103.87 74.10 105.87 74.03 C 105.87 71.63 105.87 69.22 105.87 66.81 C 101.54 66.98 96.53 66.02 92.82 68.81 M 128.99 80.92 C 126.55 82.24 125.71 85.03 124.52 87.33 C 124.54 85.16 124.54 82.99 124.54 80.82 C 121.70 80.80 118.85 80.80 116.00 80.81 C 116.02 93.07 115.94 105.33 116.05 117.59 C 119.23 117.56 122.42 117.56 125.60 117.55 C 125.65 111.03 125.58 104.52 125.62 98.00 C 125.74 95.03 125.86 91.45 128.45 89.48 C 131.54 87.39 135.50 88.31 139.00 88.12 C 139.00 85.42 139.00 82.72 139.00 80.02 C 135.68 79.96 132.06 79.33 128.99 80.92 M 149.01 82.92 C 145.96 84.99 145.45 88.87 145.18 92.25 C 148.10 92.28 151.01 92.28 153.93 92.25 C 154.52 90.58 154.38 88.13 156.36 87.38 C 159.03 86.37 162.10 86.37 164.82 87.20 C 167.52 88.57 167.46 92.56 165.84 94.72 C 160.25 96.39 154.10 95.35 148.67 97.68 C 143.33 100.16 143.10 107.29 144.85 112.12 C 147.32 118.35 155.17 119.14 160.93 118.23 C 163.92 117.98 166.01 115.67 167.63 113.38 C 168.79 114.85 169.67 116.94 171.73 117.28 C 174.07 117.75 176.48 117.54 178.86 117.58 C 178.87 115.25 178.86 112.92 178.87 110.59 C 178.23 110.39 176.94 110.00 176.30 109.81 C 175.72 102.61 176.56 95.36 175.78 88.18 C 175.25 83.77 171.26 80.81 167.07 80.26 C 161.05 79.56 154.21 79.28 149.01 82.92 M 197.48 85.21 C 197.54 83.75 197.59 82.29 197.65 80.83 C 194.50 80.74 191.35 80.81 188.21 80.92 C 188.33 93.13 188.22 105.34 188.27 117.56 C 191.48 117.54 194.70 117.56 197.92 117.62 C 198.19 109.04 197.78 100.45 198.11 91.87 C 198.47 85.49 210.42 85.72 210.62 92.05 C 210.85 100.53 210.65 109.02 210.69 117.50 C 213.92 117.57 217.14 117.59 220.36 117.52 C 220.33 109.02 220.40 100.53 220.34 92.04 C 220.31 88.52 219.84 84.45 216.79 82.19 C 212.85 79.36 207.56 79.53 202.99 80.29 C 200.31 80.73 198.74 83.03 197.48 85.21 M 231.71 89.80 C 229.70 95.95 229.63 102.86 231.91 108.95 C 233.81 114.05 238.75 117.61 244.10 118.22 C 250.18 119.05 257.30 118.48 261.81 113.83 C 264.44 111.26 265.21 107.53 265.68 104.02 C 262.51 103.99 259.35 103.99 256.18 104.00 C 255.66 106.21 255.71 109.12 253.43 110.38 C 249.30 112.29 242.64 112.02 240.93 106.96 C 239.41 102.33 239.35 97.15 240.54 92.44 C 242.46 85.15 255.91 85.08 256.26 93.35 C 259.28 93.35 262.29 93.35 265.31 93.32 C 265.06 89.55 263.92 85.54 260.79 83.14 C 256.05 79.46 249.58 79.44 243.90 80.20 C 238.52 80.97 233.49 84.56 231.71 89.80 M 275.72 86.55 C 272.53 91.77 272.57 98.21 273.07 104.11 C 273.50 109.78 276.83 115.54 282.46 117.35 C 288.37 119.11 294.99 119.05 300.75 116.76 C 304.89 115.12 307.15 110.93 307.97 106.75 C 304.91 106.73 301.86 106.72 298.81 106.69 C 297.24 111.95 290.89 111.80 286.61 110.52 C 283.07 109.41 282.28 105.37 282.33 102.14 C 291.07 102.25 299.82 102.19 308.57 102.18 C 308.62 96.19 308.54 89.42 304.29 84.71 C 300.54 80.41 294.41 79.56 289.02 79.87 C 283.93 80.02 278.48 82.04 275.72 86.55 M 195.82 131.76 C 176.60 147.35 157.22 162.73 138.03 178.35 C 153.72 178.36 169.41 178.31 185.10 178.37 C 195.26 169.62 205.25 160.68 215.30 151.79 C 225.94 160.48 236.19 169.64 246.79 178.38 C 262.83 178.29 278.88 178.37 294.93 178.34 C 274.95 162.57 254.83 146.97 234.80 131.26 C 233.27 129.70 230.98 130.22 229.03 130.11 C 218.99 130.22 208.96 130.06 198.93 130.18 C 197.65 130.03 196.78 131.12 195.82 131.76 Z" />
<path fill="#f58228" opacity="1.00" d=" M 286.22 88.15 C 289.21 86.93 292.81 86.69 295.77 88.13 C 298.31 89.62 298.31 92.84 298.75 95.40 C 293.34 95.47 287.92 95.45 282.51 95.42 C 282.90 92.70 283.48 89.50 286.22 88.15 Z" />
<path fill="#f58228" opacity="1.00" d=" M 156.33 102.45 C 159.87 101.44 163.57 101.10 167.05 99.87 C 166.87 102.79 167.29 106.03 165.56 108.61 C 163.53 111.55 159.37 111.97 156.16 111.15 C 152.44 109.98 152.77 103.66 156.33 102.45 Z" />
<path fill="#f58228" opacity="1.00" d=" M 213.32 254.44 C 225.96 253.39 239.74 254.73 250.05 262.81 C 260.81 271.11 265.75 284.57 268.40 297.45 C 271.23 311.79 271.47 326.48 271.19 341.05 C 270.90 356.40 270.02 371.94 265.86 386.81 C 262.72 397.84 256.66 408.65 246.67 414.79 C 236.11 421.42 223.22 422.82 211.02 422.54 C 200.16 422.27 188.89 418.85 181.18 410.88 C 172.27 401.80 168.35 389.19 165.99 376.99 C 162.80 359.85 162.72 342.33 163.08 324.96 C 163.83 311.35 164.96 297.52 169.60 284.60 C 172.79 275.75 178.17 267.34 186.22 262.19 C 194.24 256.95 203.89 255.03 213.32 254.44 Z" />
</g>
</svg>
