<?xml version="1.0" encoding="UTF-8" standalone="no"?>
<svg
   xmlns:dc="http://purl.org/dc/elements/1.1/"
   xmlns:cc="http://creativecommons.org/ns#"
   xmlns:rdf="http://www.w3.org/1999/02/22-rdf-syntax-ns#"
   xmlns:svg="http://www.w3.org/2000/svg"
   xmlns="http://www.w3.org/2000/svg"
   id="svg1949"
   version="1.1"
   viewBox="0 0 264.58334 210.55713"
   height="795.80646"
   width="1000.0001">
  <defs
     id="defs1943" />
  <metadata
     id="metadata1946">
    <rdf:RDF>
      <cc:Work
         rdf:about="">
        <dc:format>image/svg+xml</dc:format>
        <dc:type
           rdf:resource="http://purl.org/dc/dcmitype/StillImage" />
        <dc:title></dc:title>
      </cc:Work>
    </rdf:RDF>
  </metadata>
  <g
     transform="translate(-157.27399,82.072157)"
     id="layer1">
    <g
       transform="matrix(9.2336216,0,0,9.2336216,-1294.9348,-1057.8968)"
       id="g1979">
      <path
         d="m 164.55253,121.54761 c 0,2.01013 -1.62948,3.63926 -3.63925,3.63926 -2.00978,0 -3.63926,-1.62913 -3.63926,-3.63926 0,-2.00977 1.62948,-3.63925 3.63926,-3.63925 2.00977,0 3.63925,1.62948 3.63925,3.63925"
         style="fill:#ffcd00;fill-opacity:1;fill-rule:nonzero;stroke:none;stroke-width:0.35277775"
         id="path1726" />
      <path
         d="m 176.68117,107.411 1.53917,1.56739 h 2.52201 l -2.68817,-3.29671 h -2.74602 l -2.68852,3.29671 h 2.52201 z"
         style="fill:#232323;fill-opacity:1;fill-rule:nonzero;stroke:none;stroke-width:0.35277775"
         id="path1730" />
      <path
         d="m 176.681,125.14242 c -3.17818,0 -5.53791,-2.59997 -5.53791,-5.77815 0,-3.17853 2.35973,-5.77885 5.53791,-5.77885 3.17817,0 5.5379,2.60032 5.5379,5.77885 0,3.17818 -2.35973,5.77815 -5.5379,5.77815 m 0,-14.89887 c -5.47229,0 -9.24737,4.07882 -9.24737,9.12072 0,5.04155 3.77508,9.12072 9.24737,9.12072 5.47228,0 9.24736,-4.07917 9.24736,-9.12072 0,-5.0419 -3.77508,-9.12072 -9.24736,-9.12072"
         style="fill:#232323;fill-opacity:1;fill-rule:nonzero;stroke:none;stroke-width:0.35277775"
         id="path1734" />
    </g>
  </g>
</svg>
