<?xml version="1.0" encoding="UTF-8" standalone="no"?>
<!-- Created with Inkscape (http://www.inkscape.org/) -->

<svg
   xmlns:dc="http://purl.org/dc/elements/1.1/"
   xmlns:cc="http://creativecommons.org/ns#"
   xmlns:rdf="http://www.w3.org/1999/02/22-rdf-syntax-ns#"
   xmlns:svg="http://www.w3.org/2000/svg"
   xmlns="http://www.w3.org/2000/svg"
   xmlns:sodipodi="http://sodipodi.sourceforge.net/DTD/sodipodi-0.dtd"
   xmlns:inkscape="http://www.inkscape.org/namespaces/inkscape"
   width="425"
   height="200"
   id="svg2"
   version="1.1"
   inkscape:version="0.47 r22583">
  <g
     inkscape:label="Layer 1"
     inkscape:groupmode="layer"
     id="layer1"
     transform="translate(-79.091743,132.45059)">
    <path
       style="fill:#1c62b7;fill-rule:nonzero;stroke:none"
       d="m 304.0923,-132.44862 0,100.004836 74.99878,0 0,24.9940653 49.9846,0 0,25.0007677 75.01606,0 0,-149.999669"
       id="path2857" />
    <path
       style="fill:#fddc04;fill-rule:nonzero;stroke:none"
       d="m 379.09108,42.558872 -50.01883,0 0,24.990537 100.00343,0 0,-49.99836 -49.9846,0"
       id="path2859" />
    <path
       style="fill:#4dbc37;fill-rule:nonzero;stroke:none"
       d="m 379.09108,17.551049 49.9846,0 0,-25.0007677 -49.9846,0 z"
       id="path2861" />
    <path
       style="fill:#ffffff;fill-rule:nonzero;stroke:none"
       d="m 330.07837,-119.87609 c 0.40639,0.0931 0.80609,0.0931 1.2333,0.10689 l 0.20672,0.0755 0.66498,0.11077 c 0.95426,0.1584 1.80162,0.59231 2.62147,1.07138 0.53057,0.34431 1.11618,0.75423 1.59172,1.25729 l 0.40639,0.42368 0.41345,0.47907 c 0.34466,0.18238 0.50306,0.58208 0.77187,0.8717 l 0.43392,0.71296 0.41345,0.55809 0.27552,0.66145 0.0931,0.2413 0.15839,0.42368 0.23777,0.8576 0.0688,0.34818 0.10337,0.71296 0.0691,0.91651 -0.0141,0.34431 -0.0141,0.48577 0,0.49282 0.0141,0.54081 c -0.0282,0.99552 -0.0282,1.88452 0,2.90439 l 0.0141,0.26493 0.0141,0.55809 -0.0282,0.28963 0.0282,0.39616 0,0.75776 c 0.0282,0.7306 -0.0413,1.28516 0,2.0535 l 0,1.205785 0.0621,0.158395 -0.0621,0.04127 0.0353,0.599364 c 0.11042,1.057617 -0.0247,2.115235 0.0448,3.228238 l -0.0448,0.478715 -0.0247,0.19967 -0.0106,0.530573 c -0.38593,0.420507 -1.01987,0.172507 -1.55044,0.224012 l -0.87488,0 -0.21378,0 c -0.75106,0.03775 -1.50882,-0.06879 -2.2253,0.06879 -0.50306,-0.110066 -0.889,-0.03175 -1.36454,-0.06879 l -0.055,-0.07937 -0.32702,0.09278 -0.29316,-0.264934 c -0.13087,-0.316791 -0.0688,-0.716484 -0.10336,-1.074903 -0.11006,-0.634288 -0.055,-1.364179 -0.055,-2.066905 l 0,-0.885464 -0.0282,-0.06879 0,-0.702726 0.0282,-0.265287 -0.0825,-0.424032 0.055,-0.68897 -0.0141,-0.79551 c -0.13088,-0.48577 0.0826,-0.89922 -0.0656,-1.36135 -0.10654,-0.4131 0.14816,-0.79551 0.0247,-1.1952 l -0.0353,-0.079 0.0106,-0.76835 0,-0.70272 -0.0515,-0.82338 -0.0141,-0.34466 0.0141,-0.81985 0.0515,-0.83748 c -0.0106,-0.32703 -0.0106,-0.63359 -0.13406,-0.93662 l -0.0141,-0.55456 -0.11712,-0.38594 -0.10336,-0.48965 -0.18627,-0.47836 -0.54433,-0.66145 -0.22719,-0.20002 -0.21378,-0.1584 c -0.35136,-0.17215 -0.69567,-0.36865 -1.09536,-0.40992 l -0.81315,-0.1584 c -0.46178,-0.0141 -0.97824,-0.0282 -1.38499,-0.0282 l -0.59584,0.15839 -0.63746,0.0931 -0.31679,0.0928 -0.75811,0.50305 -0.31679,0.30304 -0.39617,0.65122 -0.14816,0.46495 -0.13088,0.44803 -0.055,0.67521 -0.0758,0.60959 -0.0692,0.42404 -0.0141,0.744 0.0141,1.98788 -0.0247,0.10336 0.0106,0.21343 c -0.0106,0.71684 0.11042,1.32291 -0.0515,2.02916 l -0.0106,0.43744 0.0515,0.19614 -0.0413,0.15875 -0.0247,0.71684 c 0.0515,0.66145 0.0247,1.32608 0.0755,2.001289 -0.0515,0.399693 -0.0515,0.76799 0,1.154278 -0.0106,0.661452 0.0282,1.192024 0.0282,1.828782 l -0.0141,0.234948 0.0141,0.03175 -0.0893,0.0896 0.0893,0.292803 c -0.0141,0.410277 0.0416,0.809617 -0.0377,1.192025 l 0.0377,0.130879 0,0.348188 c 0,0.661452 0,1.188497 0,1.815377 l 0.0282,0.623705 -0.0282,0.196143 c 0.0282,0.437793 0.0416,0.861475 0.0282,1.312673 l 0,0.196496 c 0.0141,0.334077 0.0282,0.63711 0.0413,0.968012 l 0.0413,0.161924 -0.0413,0.03775 0.0483,0.782101 -0.0483,0.823375 -0.0141,0.448023 0.0282,0.595836 c 0.0621,0.530573 -0.055,1.023046 0.10337,1.550444 l -0.055,0.43744 -0.0212,0.464957 0.007,0.382407 0.0826,0.661452 -0.0688,0.43744 c 0.13758,0.516815 0.0141,1.113003 0.0963,1.629465 l -0.0282,0.437793 0.0141,0.292803 c 0.0141,0.279044 0.055,0.540803 0.0282,0.861122 0,0.91298 0,1.705311 0.0413,2.580545 l 0.0212,0.478362 c 0.0963,1.192377 0.0413,2.435907 0.055,3.748228 l 0.0413,0.806442 -0.0141,0.547858 0.0141,0.857948 c 0.0282,1.481299 0.0141,3.258929 0.0758,4.781504 l 0.0282,0.833958 -0.0282,0.637111 c 0.0413,1.681323 0.0688,3.445194 0.11042,5.047143 l 0,0.396166 0,0.940496 0.0515,0.05186 c -0.0515,0.385582 0.0794,0.795506 0.0381,1.177913 l 0.0688,0.172507 0.0896,0.371824 0.0826,0.265287 c 0.0656,0.34466 0.17216,0.647693 0.3309,0.940496 l 0.23425,0.279045 0.31009,0.317144 0.79233,0.568319 0.57184,0.22754 0.55104,0.209901 c 0.38593,0.120648 0.77187,0.10689 1.14369,0.200023 l 0.55139,-0.06914 0.91651,-0.100188 0.22718,-0.123471 0.75106,-0.317497 0.39969,-0.316439 0.51682,-0.54433 0.19967,-0.27587 c 0.17215,-0.316791 0.2413,-0.640638 0.2928,-0.995529 l 0.17251,-0.516815 0.0653,-0.527045 c 0.10336,-0.371824 -0.0141,-0.837133 0.0656,-1.233299 0.0141,-1.140167 -0.0247,-2.187554 -0.0381,-3.221183 l -0.0141,-0.633935 -0.055,-0.940497 0.055,-0.76799 -0.055,-0.372177 c -0.0141,-0.341132 0.0282,-0.702726 0.0413,-1.006112 -0.0826,-0.371824 0,-0.76799 -0.0653,-1.122881 l 0.0247,-0.716485 c -0.0896,-0.317497 -0.0141,-0.716837 -0.055,-1.099245 0.0688,-0.475187 -0.0106,-0.87488 0.055,-1.381464 l -0.0141,-0.633936 -0.0413,-0.316791 0.0141,-0.306561 c 0.0826,-0.396166 -0.0896,-0.861122 0.0282,-1.230124 l 0.0688,-0.464957 c 0.46178,-0.04127 0.95072,-0.07902 1.42626,-0.04127 l 0.21379,-0.01411 c 0.85089,-0.117121 1.9085,0.05503 2.72835,-0.02469 0.744,0 1.5642,-0.05186 2.36324,0.06491 l 0.16898,0.585958 -0.0141,0.923563 0.0282,0.571848 c -0.0282,0.702726 0.0515,1.495057 0,2.211542 l 0,0.451199 c 0.0515,1.574432 0.0247,3.086775 0.0247,4.664735 l 0,0.210254 c 0.0413,0.396165 -0.0515,0.795859 0.0282,1.192024 l 0.0931,0.01411 0.0141,0.0247 -0.0656,0.05503 -0.0413,-0.09278 c -0.0653,0.327022 0,0.606066 0,0.964485 l 0.0413,0.185912 c -0.0413,0.423682 0.10336,0.888991 -0.0688,1.312673 0.0825,0.372177 0,0.888992 0.0688,1.243883 l 0.0519,0.847364 -0.0519,0.492473 0.0416,0.279044 -0.0554,0.409924 -0.055,0.740826 -0.0378,0.609595 -0.0794,0.330902 -0.0413,0.306561 -0.10336,0.264933 -0.11042,0.541156 -0.15839,0.554914 -0.13088,0.571848 -0.26176,0.633935 -0.29633,0.571848 -0.32738,0.592308 -0.2928,0.42721 c -0.46143,0.554914 -1.03327,0.978596 -1.61923,1.443552 l -0.31327,0.289275 -0.30656,0.18944 -0.36865,0.210254 -0.3309,0.23777 -0.12065,0.130879 -0.47518,0.186265 c -0.71684,0.330549 -1.43333,0.646988 -2.26693,0.699199 l -0.73025,0.09631 -0.0758,0.05186 c -0.50306,-0.0896 -1.04739,0.09631 -1.57796,0.01411 l -0.27905,0.02822 c -0.63746,0.07585 -1.25728,0 -1.87076,-0.04127 l -0.46143,-0.103363 c -0.34466,0.03775 -0.66145,-0.107243 -1.00611,-0.120649 l -0.71649,-0.213428 -0.50305,-0.09313 c -0.35807,-0.15522 -0.76482,-0.185912 -1.11265,-0.409923 l -0.43744,-0.172154 c -0.79233,-0.448024 -1.55045,-0.992355 -2.23941,-1.560674 l -0.50306,-0.454726 -0.28928,-0.248001 -0.70272,-0.833958 -0.35842,-0.372177 -0.43391,-0.809265 -0.22754,-0.437793 -0.18591,-0.433912 -0.13088,-0.279045 -0.22754,-0.58243 -0.0931,-0.385583 -0.0247,-0.224011 c -0.11712,-0.358419 -0.22719,-0.727068 -0.26529,-1.112651 -0.079,-0.345013 -0.19649,-0.703079 -0.26528,-1.047387 l -0.055,-0.754584 -0.0758,-0.620178 c 0.0141,-0.468484 -0.0826,-0.929913 -0.0413,-1.419211 -0.0931,-0.451198 0.055,-0.809617 -0.0688,-1.247057 0,-0.423682 0.0141,-0.923211 -0.0621,-1.309146 0.0378,-1.088662 -0.11041,-2.132521 -0.0282,-3.179908 l -0.0416,-0.0515 c 0,-1.81573 -0.055,-3.613821 -0.055,-5.433079 l 0,-0.623352 0,-0.606419 0,-0.282572 c -0.0353,-0.447671 0,-0.950727 -0.0353,-1.398751 l 0.0141,-0.279044 c -0.0967,-0.650869 0,-1.284805 -0.0282,-1.949784 l -0.0829,-0.437441 0.0688,-0.15522 c 0,-0.558089 -0.18591,-1.112651 -0.055,-1.643223 -0.0282,-0.492473 0,-0.968013 -0.0141,-1.443553 l -0.0653,-0.358066 0.0653,-0.120649 0.0141,-0.778573 0,-0.399693 c -0.1584,-0.399694 -0.0141,-0.795859 -0.0688,-1.24353 l -0.0483,-0.823376 0.0483,-0.448023 c -0.0212,-0.492473 -0.0759,-0.954607 -0.0106,-1.443553 l -0.0381,-0.42721 -0.0282,-0.540803 0.0656,-0.478714 -0.0381,-0.36865 c -0.0141,-0.530572 -0.0653,-1.219541 -0.0282,-1.77763 l -0.055,-0.489298 0,-0.67521 0.0413,-0.833606 -0.0413,-0.720012 0,-0.317145 0,-0.2099 -0.0381,-0.954255 0,-0.661452 c -0.0653,-0.47942 0.0554,-0.809617 0,-1.316554 l 0.0656,-0.647341 -0.0758,-0.341133 0.0106,-0.929913 -0.079,-0.224012 0.079,-0.768342 -0.0377,-0.744002 -0.0413,-0.02469 0.055,-0.334077 0,-0.158043 -0.0141,-0.782454 c 0.0515,-0.382407 -0.055,-0.767989 0.0282,-1.181445 l 0.0106,-0.34078 c -0.0515,-1.3677 -0.0247,-2.55973 -0.0247,-3.96201 -0.0141,-0.744 -0.055,-1.37793 -0.0413,-2.17732 l 0.0413,-0.74047 0.0141,-0.27905 c -0.0282,-0.43426 -0.0282,-0.84771 0,-1.25764 l 0.0759,-0.079 c -0.13088,-0.40992 0.12065,-0.80644 0.0282,-1.24706 0.11712,-0.41063 0.1584,-0.84419 0.22754,-1.28163 l -0.0141,-0.10689 0.0617,-0.22401 c 0.14817,-0.32032 0.0967,-0.66498 0.32068,-0.95425 0.26493,-0.83714 0.67521,-1.61571 1.09889,-2.38723 l 0.19967,-0.3824 0.11712,-0.17251 c 0.38593,-0.26529 0.53057,-0.6992 0.95425,-0.9405 0.22402,-0.31679 0.54081,-0.57855 0.87524,-0.80644 0.37182,-0.1718 0.68544,-0.53022 1.04703,-0.70237 l 0.51682,-0.39617 0.35489,-0.14816 c 0.47906,-0.28928 0.94402,-0.52705 1.50917,-0.58208 l 0.70272,-0.10336 c 0.3997,-0.11078 0.82655,-0.12065 1.20578,-0.26529 0.33055,0.079 0.64064,-0.0381 0.99201,-0.0381 0.39969,-0.0413 0.8269,0.0247 1.2333,-0.0688 0.50305,0.12065 0.94402,0.0409 1.46083,0.079"
       id="path2863" />
    <path
       style="fill:#ffffff;fill-rule:nonzero;stroke:none"
       d="m 366.75456,-119.45206 -0.0282,0.0653 c 0.45473,0.0691 1.03328,-0.17216 1.31585,0.27904 l 0.1965,0.55809 -0.0247,0.25153 0.0247,0.25153 -0.0247,0.0247 c -0.0282,0.32067 0.007,0.62371 0.30339,0.76834 l 0.80609,-0.2099 c 0.33055,-0.13123 0.66145,-0.23777 0.96448,-0.39652 l 0.64099,-0.19967 0.68192,-0.22754 c 0.39969,-0.14463 0.8269,-0.2099 1.2333,-0.31679 l 0.64099,-0.0656 c 0.53057,-0.0653 1.06785,-0.0515 1.61218,-0.1203 l 0.44802,0.0413 c 0.37182,0.0141 0.70625,-0.0282 1.00929,0.0931 l 0.7821,0.10654 0.35806,0.0519 0.66146,0.14464 0.47554,0.13441 0.59936,0.15839 0.71648,0.43392 0.56515,0.23777 0.59936,0.38593 0.30339,0.32032 0.72671,0.72707 0.39617,0.49953 0.26881,0.45472 c 0.21343,0.43744 0.43392,0.87171 0.53058,1.35042 l 0.22401,0.59584 0.18238,0.75458 0.16545,0.81985 0.18274,0.79586 0.0378,0.4893 0.0963,0.744 0.0483,0.23424 0.0413,0.46531 c 0.0141,0.34431 -0.0141,0.77152 0.0141,1.10242 l 0.0554,0.33055 -0.0691,0.34466 0.11712,0.19967 -0.11712,0.50306 0.0691,0.27904 c 0.0247,0.34114 -0.0554,0.72707 0,1.12324 l -0.0691,0.47871 0.0554,0.74083 0.0617,0.78139 -0.048,0.25188 0,0.47554 -0.0141,0.41345 0.0617,0.38241 c -0.0759,0.41345 0.13441,0.75423 -0.048,1.15393 l -0.0141,0.981768 0.0377,0.05186 0.0515,0.90275 c -0.13087,0.303033 0.0554,0.568319 -0.0282,0.902397 l 0,0.778573 0.0141,0.130879 c 0.0691,1.09219 -0.0141,2.346302 0.0282,3.462481 0.0825,0.795859 0.0282,1.736355 0.0413,2.583719 l 0.0141,0.306561 -0.0141,2.011872 0.0141,0.558089 0.0141,0.210254 0.0247,0.358419 -0.0377,0.544331 0.0377,0.396165 c -0.0106,1.057618 -0.0106,2.104652 0,3.155567 l 0.0519,0.554561 c 0.0141,0.382408 -0.0141,0.795859 0.0141,1.164509 -0.0759,0.451198 0.0413,0.861122 0.0141,1.336662 0.0413,0.464604 0.0141,1.033629 0.0282,1.526102 l -0.0413,0.289628 c 0,0.382407 0.0826,0.823022 0,1.20543 l 0.0141,0.330902 c 0.0413,0.344661 0,0.744001 0.0413,1.085134 l -0.0413,0.451198 0.0688,0.954608 -0.0413,0.213428 0.0413,0.130527 0,0.186617 c 0.0141,1.33631 -0.0141,2.552676 0.0141,3.961657 l 0.0353,0.05115 c -0.0141,0.71719 0.0141,1.495763 -0.0141,2.157215 l 0,0.148166 c -0.0106,0.861122 0,1.746586 0.0141,2.632049 0.14817,0.744001 -0.0141,1.419212 0.0688,2.135696 l 0,0.437793 -0.0413,0.06526 0.0141,3.031743 c 0.0826,0.636757 0.0141,1.377936 0.0413,2.042916 -0.0688,0.461429 0.11712,0.964485 0.0141,1.457311 l 0.0656,0.461429 -0.0519,0.224012 c 0.0758,0.330549 -0.0825,0.651221 0.0141,0.940496 l -0.0282,0.358419 c 0.0656,0.664627 -0.0825,1.312321 0.0656,1.960014 -0.0381,1.205783 -0.0141,2.676852 -0.0141,3.896393 l -0.16192,0.568673 -0.0212,0.158395 -0.29633,0.33055 c -1.38464,0.02822 -2.64581,-0.03775 -3.92709,-0.05151 l -0.73059,0.01411 c -0.75776,-0.01411 -1.53633,-0.05503 -2.3082,-0.01411 l -0.54433,-0.04127 -0.50306,-0.09313 -0.27552,-0.503056 -0.0928,-0.199671 -0.0794,-0.327374 c -0.0413,-0.43744 0.15839,-0.930266 -0.0413,-1.34019 l 0.0282,-0.07902 c -0.0413,-0.385935 0.0141,-0.795859 -0.055,-1.181794 -0.13088,-0.341485 0.13758,-0.630408 0.0282,-0.975068 -0.0794,-0.771518 0,-1.591365 -0.0282,-2.373466 l -0.0247,-0.06562 c -0.0282,-1.085134 -0.0141,-2.094422 -0.0141,-3.179556 l 0,-0.186265 c -0.0141,-0.409923 0.0141,-0.833605 -0.0141,-1.202255 l 0.0282,-0.06879 c -0.0928,-0.740826 0.0519,-1.416036 0,-2.198137 l 0.0106,-0.251528 c -0.0381,-0.33055 0.0413,-0.661452 -0.0381,-0.968013 l 0.0381,-0.461429 c 0.055,-0.675563 0.0282,-1.429794 0.0413,-2.091246 l -0.0413,-0.323847 c 0.0282,-1.547269 -0.0381,-3.017985 0,-4.540559 l 0.0141,-0.200023 c -0.0381,-0.396166 0.0282,-0.833606 -0.0381,-1.150398 l 0,-0.847716 c 0.0141,-0.409924 0.10689,-0.823376 0.0381,-1.219541 l 0.055,-0.623353 -0.13088,-0.144637 0.11712,-0.01058 c -0.0141,-0.516815 -0.0282,-1.036804 -0.055,-1.577607 l -0.0106,-0.334431 c 0.0106,-0.48577 -0.0282,-1.095364 0.0656,-1.546562 -0.0282,-0.358419 0.055,-0.727068 -0.0656,-1.061146 l 0.0247,-0.558089 -0.0141,-0.300211 0,-0.702374 -0.0247,-0.334077 0.0931,-0.8202 0,-0.475188 -0.0282,-0.413451 0.0282,-0.43744 c -0.0141,-0.434266 0.0413,-0.857948 -0.055,-1.257641 0.0963,-0.382407 -0.0381,-0.754232 0.055,-1.136639 l 0,-0.186265 c 0.0141,-0.399693 -0.0282,-0.902397 -0.0282,-1.298562 l -0.0413,-0.251529 0.0141,-0.978596 -0.0247,-0.203198 c 0.0106,-0.354891 0.0656,-0.765167 -0.0141,-1.15075 l 0.0794,-0.279044 0,-0.369002 c -0.0282,-0.753879 0.0413,-1.525749 0,-2.304323 l 0.0413,-0.279044 -0.0413,-0.595836 -0.0141,-0.530573 0.0282,-0.241297 -0.0282,-0.23777 0,-0.478715 0.0282,-0.609947 c -0.0141,-0.34078 -0.0688,-0.736946 0,-1.071376 -0.055,-0.358066 -0.0282,-0.781748 -0.0282,-1.116178 l 0,-0.130879 c 0.0141,-0.62053 0.0413,-1.192025 -0.0413,-1.774103 l 0.0413,-0.87488 c 0.0141,-1.206133 -0.0282,-2.397803 0.0141,-3.631463 l -0.0413,-0.0377 0.0282,-0.72002 0.0282,-0.0483 c 0.0141,-0.35806 -0.0282,-0.63711 -0.0282,-0.98177 0.0963,-0.49247 -0.0794,-0.992 0.0282,-1.47107 -0.0931,-0.36159 -0.0413,-0.71648 -0.13088,-1.10242 l -0.0282,-0.52704 -0.0691,-0.23777 -0.10336,-0.67874 c -0.1584,-0.64769 -0.46496,-1.31232 -1.01952,-1.70531 -0.25506,-0.21343 -0.51681,-0.39934 -0.84772,-0.42721 l -0.64769,-0.13405 c -0.30974,-0.0519 -0.62335,0.0825 -0.95743,0.0825 l -0.3309,0.0931 -0.58561,0.15839 -0.39264,0.25153 -0.70272,0.47872 -0.53058,0.56832 -0.10336,0.14499 -0.47907,0.76799 -0.22401,0.80961 -0.10654,0.33091 -0.0519,0.50305 -0.055,0.46496 0.0413,0.3309 c -0.17216,0.33055 -0.0141,0.70273 -0.0688,1.03328 l -0.0656,0.63393 0,0.7821 -0.0247,0.4512 -0.0413,0.86148 0.0413,0.56832 -0.0688,0.46495 c 0.079,0.55456 -0.0141,1.08866 0.079,1.567732 -0.0247,0.344308 0,0.671682 -0.0247,1.00576 l 0.0141,0.330902 0.0106,0.530573 -0.0247,0.382407 0,0.265286 0,0.33055 0.0515,0.547859 0,0.472012 0.0247,0.265286 c -0.0519,0.878408 0.0141,1.77763 -0.0247,2.628522 l 0,0.365122 -0.0141,0.892166 0.0794,0.937321 0,0.585606 c 0,1.58819 0.0141,3.22083 -0.0141,4.743757 -0.0141,0.795859 0.0826,1.629465 0.055,2.411566 l 0,0.158395 c -0.0282,1.15075 0.0381,2.38405 0.0381,3.521041 -0.0106,2.080664 0.0413,3.906624 0.0176,5.932254 l -0.0282,0.148166 0.0282,0.623352 c 0.0656,0.795859 0.0106,1.601948 0.0554,2.384049 l -0.0176,0.303386 c 0,0.795859 -0.0141,1.550091 0.0282,2.304675 l -0.0413,0.464957 0.0318,0.04127 c -0.0448,0.647693 0.0617,1.309145 0.0212,1.946609 0.0282,1.522574 -0.0377,3.059259 0,4.540559 l 0,0.596188 c 0,0.334078 0.0141,0.623353 0.0282,0.954255 0,0.781748 0,1.591365 0,2.45284 l 0.0282,0.595483 -0.0282,0.0247 c 0.0554,1.44708 0,2.863116 0.0416,4.2788 l -0.0141,0.385582 0.0554,0.554915 c -0.14817,0.372177 0,0.716837 -0.0282,1.11653 l 0.0378,0.433913 0,0.530573 -0.0378,0.07937 0,0.144637 c 0.048,0.385583 -0.0416,0.819848 0.0617,1.167684 l -0.0896,0 -0.0282,-0.161924 -0.079,0.530573 -0.0413,0.161923 -0.25153,0.02469 -0.18627,0.131585 -1.86723,-0.05186 -0.0353,0.120649 -0.0448,0.01411 -0.0381,-0.09631 c -1.1504,-0.131232 -2.26658,0.134054 -3.41733,-0.05186 l -0.45119,0.01411 -0.10337,-0.02822 c -0.42403,-0.02469 -0.85124,0.02822 -1.23365,-0.02469 l -0.63711,-0.120649 c -0.22401,-0.289981 -0.22401,-0.661452 -0.18626,-1.033629 0.0282,-0.540803 -0.048,-1.074903 -0.048,-1.667212 l 0.0353,-0.809617 0.0141,-0.01411 -0.0378,-0.68544 c 0.0141,-2.094422 -0.0656,-4.17191 -0.0378,-6.266685 l 0.0141,-0.664626 c -0.0141,-0.727068 -0.0829,-1.560674 -0.0282,-2.305028 -0.0416,-0.420155 0.0515,-0.843837 -0.0282,-1.257288 l 0.0416,-0.06562 c 0.0282,-2.15651 -0.12418,-4.102766 -0.0691,-6.315014 l -0.0141,-0.216604 0.0282,-0.978243 -0.0688,-0.09313 0.0826,-0.833605 -0.0282,-0.382408 -0.0282,-0.479068 c -0.0621,-0.609594 0.0413,-1.364178 0,-2.001641 0,-0.396166 0,-0.778573 0,-1.18885 l -0.0621,-0.06491 0,-0.888991 0.0212,-0.954255 -0.0106,-0.754584 c -0.0106,-1.591365 0.0378,-3.141809 -0.0519,-4.729999 l 0.0282,-0.224012 c -0.0141,-0.688968 -0.055,-1.401925 -0.0413,-2.094421 l 0,-0.289628 c -0.13088,-0.264933 0.0656,-0.63711 -0.0413,-0.95743 0.055,-0.475539 0.0141,-0.968012 0.0282,-1.481652 l -0.0141,-0.43744 c -0.0141,-0.80609 0.0413,-1.643223 -0.0515,-2.476829 -0.0247,-2.067258 0.0515,-4.058317 -0.0416,-5.977409 l -0.0247,-3.616996 -0.0282,-0.02822 -0.0141,-3.179551 0.0653,-0.0794 -0.079,-0.63781 c 0.055,-1.08479 0.0282,-2.09407 0.0141,-3.17921 -0.0141,-1.81573 -0.0413,-3.88263 -0.055,-5.74987 l -0.0141,-0.71366 0.0141,-0.45085 -0.0247,-0.30303 0.0106,-0.32032 c -0.048,-0.8717 0.0282,-1.81573 -0.0617,-2.69061 l 0.0141,-0.8202 -0.0282,-0.77857 0,-0.9405 0.14464,-0.39616 c 0.41345,-0.30656 0.87488,-0.055 1.36418,-0.19967 1.37794,0.0515 2.7975,0.0247 4.18214,0.0247 l 1.23365,-0.0106 0,-0.055"
       id="path2865" />
    <path
       style="fill:#ffffff;fill-rule:nonzero;stroke:none"
       d="m 427.00877,-119.3113 0.0892,0.121 0.59972,0.0247 0.44767,0.48929 c 0.26882,0.41346 0.14464,1.00929 0.1584,1.48483 l 0.0691,0.38241 0.38558,0.10689 0.67557,-0.34501 c 0.3824,-0.2099 0.76446,-0.42333 1.15039,-0.61983 l 0.28963,-0.14816 0.77152,-0.36865 0.4893,-0.13406 0.48894,-0.1344 0.4378,-0.14147 0.79585,-0.17215 c 0.73695,-0.19967 1.4813,-0.14817 2.21155,-0.17568 l 0.35842,0 0.94049,0.14816 0.0928,-0.0656 0,-0.055 0.0759,0.13441 c 0.41345,0.0656 0.8269,0.15522 1.2333,0.25153 l 0.51681,0.22048 0.63394,0.19967 0.39969,0.27905 c 0.57185,0.38593 1.12641,0.78175 1.62947,1.20578 l 0.76834,0.68897 0.35806,0.25153 0.47554,0.11712 0.4064,-0.33055 c 0.21731,-0.34466 0.68227,-0.43427 0.97154,-0.72707 l 0.44802,-0.22401 0.46849,-0.25118 0.3376,-0.1725 0.3997,-0.2099 0.29633,-0.16193 c 0.39264,-0.0931 0.79233,-0.26528 1.16415,-0.38593 l 0.43427,-0.10336 0.55809,-0.25153 0.0282,0.0381 0.43426,-0.0759 0.6096,-0.13441 c 0.51329,-0.0896 1.12641,-0.10336 1.61571,-0.12065 0.3309,0.12065 0.73024,0.0318 1.0749,0.14817 0.51681,0.0649 1.06114,0.11712 1.55044,0.28927 l 0.744,0.21026 0.33761,0.11006 0.66815,0.27587 0.43427,0.22719 c 0.39969,0.0893 0.64769,0.40675 1.01987,0.58243 l 0.46143,0.35419 0.59936,0.5034 0.39617,0.47907 c 0.19649,0.30304 0.51328,0.55456 0.66498,0.88511 l 0.18626,0.20003 c 0.0893,0.30303 0.28928,0.51681 0.34431,0.86112 l 0.27552,0.40992 c 0.14463,0.41345 0.3824,0.79586 0.48929,1.21954 l 0.18592,0.44803 0.0691,0.32032 0.20673,0.55456 0.14816,0.4893 -0.0247,0.21378 0.11712,0.2928 -0.0413,0.46143 0.13794,0.63746 0.0212,0.6477 0,0.42721 0,0.26528 0.12417,0.46143 -0.0688,0.25153 0.048,0.41345 -0.0621,0.0378 -0.0413,0.55809 0.0554,0.0931 c -0.0282,0.35489 0.0688,0.66145 -0.0282,0.97859 l 0.0141,0.62336 0.0282,0.58243 -0.0141,0.89887 0,0.45472 c 0.0141,0.41028 0.048,0.79269 0.048,1.17827 l -0.0353,0.22401 0.0353,0.33408 c -0.007,0.317143 -0.0896,0.606065 0.0318,0.940495 l 0.0106,0.248 c -0.0755,0.42721 -0.0212,0.799034 -0.0413,1.233652 l 0,1.288332 0.0212,0.344661 -0.0212,0.251175 c 0.0413,0.80609 0.0318,1.681323 0.0829,2.501171 l 0,0.200023 c -0.0829,1.298562 0.0141,2.583719 -0.0282,3.899568 l 0.0282,0.457901 c 0,0.358771 -0.0896,0.80997 0.0141,1.116531 -0.0554,0.423682 0.0413,0.847717 -0.0141,1.267871 0,0.757759 0.055,1.433322 0.0141,2.136049 l 0.0141,0.63711 0.0141,0.262112 c -0.0282,0.543625 0,1.098892 -0.0413,1.629464 l 0,0.437441 c 0.055,1.457311 0.0413,3.048676 0.0413,4.53315 l 0.0141,0.18309 0.0247,0.530573 0,0.43744 -0.0247,0.964838 0.0483,0.05503 c -0.0621,0.67521 -0.007,1.271046 -0.0483,1.91874 l 0,0.200023 -0.0141,0.702727 c 0.0621,0.740473 0.0141,1.55009 0.055,2.277158 l -0.0176,0.782101 c 0.0247,0.730243 0,1.471069 0.0247,2.225301 l 0.0353,0.02822 c -0.11007,0.58243 -0.0586,1.123233 -0.0413,1.736355 l 0.007,1.016343 c 0.048,0.72989 0.0688,1.443553 0.0353,2.160038 l 0.0212,0.227539 -0.0212,0.964485 0.10336,0.385935 -0.0413,0.792332 -0.0282,0.316791 0,0.265286 c -0.055,0.744354 -0.0353,1.591718 -0.0141,2.373819 -0.0621,0.409924 0.0688,0.91298 -0.0794,1.298916 l 0.0586,0.871352 -0.0586,0.372177 0.0381,0.792331 c -0.0381,0.520343 0.0212,1.088662 -0.0141,1.591718 l 0.055,0.795507 0.0141,0.47554 c -0.1584,0.306561 0.0413,0.637463 -0.055,0.964838 0.0413,0.702726 0.0212,1.4432 0.0212,2.146279 l -0.32384,0.547506 -0.4512,0.06562 -0.76835,0.0515 c -1.48129,0.0381 -3.14886,-0.0515 -4.55431,-0.04163 -0.62335,0.02822 -1.26787,0.02822 -1.86724,0 -0.18591,-0.171801 -0.60959,-0.116768 -0.59583,-0.461428 l -0.0519,-0.850892 0.0282,-0.234242 c 0.0621,-0.33055 -0.12382,-0.595836 -0.0282,-0.916156 l -0.0141,-0.330902 c -0.0825,-0.475187 0.14464,-0.916155 0.0413,-1.35042 -0.12382,-0.385935 0.0483,-0.702727 0,-1.071376 l 0.0247,-0.517167 -0.0247,-0.372177 c 0,-0.492121 0.0247,-1.032924 -0.0282,-1.525749 l 0.0282,-0.03528 c 0,-0.399693 0,-0.837133 0,-1.20931 l 0.0247,-0.186265 c -0.0519,-0.488946 -0.0381,-0.964485 -0.0519,-1.429442 l 0,-0.516815 c 0.0896,-0.279044 -0.055,-0.633935 0,-0.964485 l 0,-0.158748 -0.0282,-0.823376 0.055,-0.926738 -0.0282,-0.478715 -0.0282,-0.671682 0,-0.213781 c 0.0141,-1.219541 0.0141,-2.504346 0,-3.761986 0.0282,-0.582078 0,-1.181442 0.0141,-1.777983 l -0.0141,-0.275164 0,-0.795859 c -0.0282,-1.24353 -0.0282,-2.411566 -0.0688,-3.655096 l 0.0282,-0.05186 c -0.0519,-0.823375 -0.0282,-1.55009 -0.0141,-2.332191 l 0.0141,-0.330902 c 0.0413,-0.475187 0,-1.019518 -0.0282,-1.4813 l 0.0282,-0.06879 c -0.0282,-0.716485 0,-1.336662 -0.0141,-1.987884 -0.0282,-0.503056 -0.0141,-1.016343 -0.0141,-1.457311 l -0.0413,-0.433912 c 0,-1.129936 0,-2.321961 0,-3.420853 -0.0759,-0.354891 0.0413,-0.647694 -0.0353,-1.006113 0.0282,-0.409924 0.0141,-0.899222 0.0141,-1.322904 l -0.0141,-0.819847 c 0.0141,-1.098892 -0.0413,-2.229182 0.0353,-3.300557 -0.11712,-0.32032 0.0413,-0.623353 -0.0483,-0.916155 l 0.0282,-0.861475 c -0.0141,-1.401926 -0.055,-2.849006 -0.0282,-4.30279 l -0.0413,-0.19967 0.0413,-0.02822 c 0.0141,-0.688968 -0.0282,-1.391695 -0.0413,-2.056674 l 0,-0.409924 c -0.0282,-1.401926 0,-2.621467 -0.0282,-4.054787 l 0,-0.17216 0,-0.59618 -0.0141,-0.35807 0,-0.31714 0.0141,-0.39617 0,-0.14817 0,-0.33055 -0.0353,-0.5856 0.0353,-0.67204 0,-0.17568 -0.0518,-0.55456 -0.10689,-0.86112 -0.0515,-0.39969 -0.10689,-0.33091 -0.22401,-0.46143 -0.32032,-0.54433 -0.10336,-0.0247 -0.24095,-0.30656 -0.30339,-0.27905 -0.59266,-0.248 -0.57184,-0.16545 -0.30304,-0.0247 -0.83713,-0.0106 c -0.32032,0.10619 -0.64769,0.0106 -0.9405,0.19967 l -0.40992,0.0896 -0.79586,0.4512 -0.35842,0.26528 -0.31679,0.35842 -0.21025,0.35489 -0.21696,0.47872 0.0212,0.12065 -0.2413,0.7821 -0.11712,0.49953 0.0378,0.32032 0,0.45119 -0.0653,0.33091 0.0413,1.50846 -0.0141,0.55809 0.0247,0.50341 0,0.51681 c 0,1.25729 0,2.59748 0,3.947901 l 0,0.241298 c 0.0519,1.243177 -0.0515,2.597477 0.0656,3.855118 l -0.0141,0.837134 -0.0621,-0.09666 -0.0413,0.413451 0.0413,0.344661 0.0621,-0.134407 0,0.451198 -0.0758,0.106891 0.0141,0.01411 0.0621,-0.06562 -0.0381,0.451198 0.0519,0.486123 -0.0656,0.51999 0.0794,0.210253 0.0141,0.18556 0,0.730595 -0.0931,0.317144 0.0931,0.07902 0,0.678738 -0.0794,0.06173 0.0106,0.358772 c 0.1203,0.413451 0.0413,0.87488 0.0688,1.312321 l -0.0931,0.120648 0.0794,-0.02822 0.055,0.158396 -0.0688,0 -0.0141,-0.03775 -0.0519,0.06526 0.10689,0.103362 -0.0282,0.823376 -0.0282,0.265286 0.0141,0.740826 0,0.90275 0.0141,0.513287 0.0825,0.309736 -0.0825,0.2861 0.0282,0.520342 0,0.499528 c 0.0378,0.902397 0.0141,2.066905 0.0282,2.959072 l 0.0282,0.354891 c -0.0176,0.503056 0.0106,1.019871 0.0212,1.467541 l 0.0826,0.02822 -0.0141,0.04163 -0.0413,-0.04163 -0.0483,0.04163 c -0.0282,1.508816 0.0483,3.031743 0.0483,4.488701 0.0282,0.320319 -0.0377,0.651221 0.0413,0.995882 l -0.0413,0.06491 c 0.0282,1.85383 0.0688,3.552438 0.0282,5.378046 l -0.0141,0.158748 0.0282,0.833606 c -0.10689,0.823376 0.0621,1.670387 -0.0141,2.517751 l 0,0.200376 c 0.0141,0.475187 0.0413,0.833253 0.0282,1.322904 0.0413,4.344063 0,8.292314 0.0483,12.584873 l 0.0282,0.43744 -0.007,0.382408 c 0.0353,0.44767 -0.0691,0.91298 -0.0282,1.364178 l -0.44097,0.423682 c -0.31679,0.106891 -0.56479,-0.06526 -0.88863,0.04127 l -0.83043,-0.05503 -0.67521,0.06562 -0.82338,-0.06562 c -0.59584,0.0381 -1.17791,0.120649 -1.75011,0 -0.43392,0.06562 -0.89887,0 -1.35042,0 l -0.248,0.02822 -0.0825,-0.0515 c -0.57891,-0.02822 -1.24389,0.03775 -1.78469,-0.05503 l -0.55809,-0.448023 -0.0413,-0.240945 0.0825,-0.582431 -0.12383,-1.006112 0.0413,-0.334078 0.055,-0.592308 0.0282,-0.265286 -0.0282,-0.368649 c -0.0141,-0.637464 -0.0141,-1.236827 -0.0141,-1.857005 l -0.0282,-0.265286 0.0688,-0.730243 -0.0413,-0.569025 0.0413,-0.368297 0,-0.767989 c 0,-1.223069 -0.0825,-2.48071 0,-3.710481 l -0.0413,-0.293156 -0.0141,-0.30268 -0.0141,-0.437793 c -0.055,-0.423682 0.0931,-0.819848 0,-1.274574 l 0,-0.210254 0.0282,-0.34078 0.0413,-0.799386 0,-0.289275 -0.055,-0.554915 0,-0.426857 0.0282,-0.475539 c -0.055,-0.316792 0.0518,-0.671683 -0.0282,-0.992708 l 0,-0.664274 c -0.0282,-0.448023 0.055,-0.7821 -0.0282,-1.202608 l 0.0141,-0.558089 c 0,-0.354538 -0.0282,-0.795506 0.0282,-1.098892 -0.11007,-0.341133 0.0656,-0.675563 -0.0141,-1.016343 l 0,-0.654396 0.055,-0.05186 c 0.0758,-0.530573 -0.0688,-1.057618 -0.0413,-1.58819 0.0282,-0.51999 0.0413,-1.033277 -0.0282,-1.550091 l 0,-0.861122 0.0413,-0.134407 c -0.0141,-0.344661 -0.0413,-0.727068 0.0282,-1.057618 -0.0282,-0.317144 -0.11007,-0.699551 0,-1.019871 l -0.0413,-0.330902 c 0.0413,-0.334077 -0.0282,-0.661452 0,-1.00576 l -0.0141,-0.596188 c 0.055,-0.692497 -0.0413,-1.508816 0.0141,-2.173796 l -0.0141,-0.609594 0.0141,-0.36865 -0.0141,-0.558089 -0.0141,-0.740826 -0.0141,-0.585605 0.0282,-0.80609 -0.0141,-0.558089 0.0141,-0.936969 c -0.0963,-0.413451 0.10689,-0.888991 -0.055,-1.298915 l 0.0413,-0.172154 -0.0413,-0.279044 -0.0247,-0.596189 0.0515,-0.385935 c 0,-0.606066 -0.0688,-1.388167 -0.0688,-2.090894 l 0.0688,-0.34466 c -0.0413,-0.851245 -0.0141,-1.949784 -0.0282,-2.825018 l 0.0413,-0.433912 c 0.0141,-0.530573 -0.0282,-1.181794 -0.0413,-1.712367 l 0.055,-0.451551 0.0141,-0.461429 c -0.0928,-0.320319 0.0656,-0.637111 -0.0825,-0.929913 0.0963,-0.354891 0.0141,-0.740827 0.0688,-1.098893 l -0.055,-0.437793 -0.0247,-0.981769 0.0653,-0.55456 c -0.0141,-0.38241 0.0141,-0.73025 -0.0141,-1.04739 l -0.0282,-0.22401 0.0413,-0.25153 0.0282,-0.86112 0,-0.25153 -0.0282,-0.37535 0.0282,-0.27234 0.0141,-0.40287 -0.0282,-0.30339 0.0141,-0.8336 -0.0928,-0.43744 -0.0931,-0.9405 -0.0413,-0.16192 -0.0759,-0.63394 -0.0967,-0.25153 -0.0755,-0.37218 -0.0829,-0.25188 -0.30303,-0.60924 -0.31714,-0.51681 c -0.28928,-0.0896 -0.33055,-0.51682 -0.71649,-0.44767 l -0.50305,-0.27905 c -0.55809,-0.14816 -1.16416,-0.14816 -1.7226,-0.13158 l -0.21343,0.066 -0.55103,0.19649 -0.54786,0.30656 c -0.36865,0.28928 -0.87171,0.59584 -1.04386,1.03293 l -0.47907,0.80679 -0.12029,0.30656 c -0.34467,0.27905 -0.0621,0.6477 -0.23425,1.00576 l -0.0967,0.63394 c 0.0826,0.5341 -0.14463,1.11618 -0.0212,1.62946 l -0.0445,0.64099 c 0.0515,0.57855 -0.0247,1.10913 0,1.69473 0.0445,0.30339 -0.0519,0.56867 -0.0106,0.89922 l 0.0212,0.65123 c -0.0759,0.44767 0.0353,0.95425 -0.0212,1.402273 0.0413,0.585606 -0.0141,1.143695 0.055,1.698256 l 0,0.358419 c 0,0.423682 -0.0826,0.902397 0,1.391695 l 0.0212,0.688968 c -0.055,0.91298 0.0141,1.746586 -0.0212,2.714599 l 0,0.14499 c -0.0445,0.361594 0.0483,0.761288 -0.0353,1.116179 l 0.0353,0.978243 -0.0353,0.916508 0.0353,0.554561 c 0.0483,0.478715 -0.055,0.981418 0.0212,1.488355 l 0,0.275517 c -0.0212,1.774102 0.055,3.469183 0,5.112054 l 0,0.372529 0.0141,0.740474 -0.0282,0.06562 c 0.055,1.34019 0.0282,2.69061 0.0413,4.054788 l 0.0282,0.503057 0,0.372177 -0.0282,0.847364 0,0.554561 -0.0141,0.251528 c 0.0282,0.623705 0.0282,1.271399 0,1.919093 l 0.055,0.784923 c -0.055,0.331255 0.0282,0.699551 0,1.057617 l 0,1.192378 0,0.130526 c 0,0.320672 -0.0282,0.675563 0.0282,0.982124 -0.13123,0.940497 0,1.839719 -0.0416,2.783743 0,1.192024 0.0554,2.50117 0.0141,3.785975 l 0.0141,0.09313 -0.0141,0.503056 0.0416,0.754232 -0.0829,0.754584 0.055,0.66498 c -0.0688,0.461782 -0.0141,0.954255 0.0141,1.429795 l -0.0141,0.554561 -0.0141,0.730243 c -0.0282,0.833958 0.0416,1.574432 0,2.408038 l 0,0.944024 0.0282,0.409924 c 0.0247,0.358419 -0.0416,0.661452 0,1.019871 l 0,0.213428 c -0.0691,0.488945 0.0617,0.940497 -0.0416,1.402278 l 0.0416,0.847364 -0.0691,0.186265 0.11042,0.513287 -0.0691,0.888638 0,0.148166 -0.31679,0.382407 -0.53057,0.134407 c -0.79586,0.06562 -1.75011,-0.04127 -2.56996,0.02822 -0.88899,-0.06879 -1.89475,-0.02822 -2.78374,-0.0448 -0.5648,-0.02469 -1.25376,0 -1.83972,-0.02469 l -0.55809,-0.516815 -0.0653,0.05186 -0.0381,-0.06562 0.11712,-0.09313 -0.0653,-0.07549 0,-0.306914 -0.0247,-0.23777 0,-1.842893 -0.0416,-0.02469 0.0416,-0.582431 -0.0691,-0.372177 0.0691,-0.544331 0.0106,-0.950727 c 0.0378,-0.757759 -0.0106,-1.498585 -0.0106,-2.239059 l 0.0106,-0.385935 c -0.0931,-1.722597 0.0931,-3.548557 0,-5.219297 -0.0106,-0.317144 0.079,-0.633935 -0.0106,-0.968013 0.0755,-0.382407 -0.0282,-0.871705 0.0106,-1.243882 l 0.0282,-0.527045 -0.0377,-0.464957 c 0.0106,-0.451198 0.0247,-0.875233 0.0377,-1.285157 l 0.0106,-0.530572 -0.0247,-0.209901 -0.0247,-0.795859 c 0.0755,-0.875233 -0.0416,-1.750114 0.0378,-2.597831 l -0.0378,-0.116768 0,-1.074904 0,-0.158748 c 0.10336,-0.530573 -0.0282,-1.060793 0.048,-1.591365 -0.0621,-1.002585 0.0141,-2.025631 -0.048,-3.004227 l 0.0378,-0.568319 -0.0282,-0.516815 0,-0.661452 c 0.0282,-0.981771 0.0282,-2.053147 0,-3.007402 l 0.0282,-0.05539 -0.0141,-0.91298 c 0.0515,-0.544331 0.0515,-1.085134 0,-1.629465 l 0.0515,-0.899222 -0.0515,-0.799034 0.0247,-0.210253 c -0.0247,-1.298916 0.0282,-2.82149 -0.0378,-4.223768 l -0.0519,-0.878761 c -0.0928,-0.447318 0.20003,-0.778573 0,-1.191672 0.0656,-0.433912 0.0141,-0.950727 0.0519,-1.374409 l 0.0282,-0.465309 c -0.0141,-0.33055 -0.0377,-0.650869 0.0106,-0.968013 l -0.0247,-0.03775 c 0.0141,-1.11265 -0.0247,-2.056675 -0.0141,-3.15592 l 0.0141,-0.58243 -0.0247,-0.49212 0.0378,-0.754585 c -0.0378,-0.861122 0.0377,-1.867235 -0.0282,-2.770339 l 0.0141,-0.68509 -0.0247,-0.26881 c 0.0892,-0.63394 -0.12418,-1.20578 0,-1.89475 0.0378,-1.09889 0.0106,-2.14628 0.0247,-3.24517 l 0.0247,-0.16193 c 0.0691,-1.21601 -0.11712,-2.59395 0.0554,-3.8791 l -0.0282,-0.74083 c -0.0282,-1.28833 -0.0282,-2.63875 0,-3.96166 l 0.0141,-0.31714 c 0,-0.55456 0,-1.27105 0,-1.87041 0,-0.40675 0,-0.84454 0,-1.21284 l 0,-0.18591 0.27587,-0.25506 0.35807,-0.0515 1.83301,-0.0141 0.30304,0.0141 c 1.16451,0.0413 2.21189,-0.0656 3.34853,-0.0282"
       id="path2867" />
    <path
       style="fill:#ffffff;fill-rule:nonzero;stroke:none"
       d="m 350.59714,-119.49016 0.42015,0.0247 0.88899,0 0.51682,0.0928 0.47518,0.1344 c 0.44097,0.30339 0.47554,0.84737 0.46531,1.35042 l -0.0141,0.29281 c 0.079,0.47201 -0.0656,1.01634 0.0247,1.54656 l 0.055,0.6999 0,0.78528 -0.0282,0.31714 -0.0377,0.74048 c 0.0928,0.43709 -0.0247,0.87523 -0.0247,1.31267 l 0,0.18591 -0.22719,0.89923 -0.38594,0.23777 c -0.74047,0.15804 -1.52257,0.17215 -2.3149,0.12064 -0.67521,0.0759 -1.41957,-0.0141 -2.08102,0.0653 l -0.35806,-0.0378 c -0.56515,-0.0691 -1.137,0.0106 -1.7226,-0.0832 l -0.39617,-0.56832 c -0.23777,-0.34396 0.0928,-0.75459 -0.1344,-1.08478 0.0931,-0.47872 0.0413,-0.96449 -0.0141,-1.43333 l 0.0141,-0.40992 c -0.0141,-0.38241 0.0931,-0.86112 -0.0282,-1.25729 l 0.0282,-0.35842 c -0.0656,-0.4893 0.0688,-1.01952 -0.0483,-1.52257 0.0758,-0.40993 0.0483,-0.85795 0.0621,-1.29539 l 0.13088,-0.33408 0.38594,-0.30338 c 0.37182,-0.0653 0.79586,-0.0515 1.19202,-0.079 l 0.59937,0.055 0.47554,-0.0825 c 0.64734,0.13405 1.24705,-0.0381 1.89475,0.0141"
       id="path2869" />
    <path
       style="fill:#ffffff;fill-rule:nonzero;stroke:none"
       d="m 352.31973,-105.19997 0.66146,0.0282 0.35806,0.10689 c 0.17921,0.30621 0.55139,0.54433 0.40675,0.97824 l 0.13088,0.53058 -0.13088,0.36865 0.21343,0.39969 0.0141,0.0825 -0.19967,0.0247 -0.0381,0.46143 0.0656,0.16193 -0.0282,1.41603 -0.0141,0 c -0.0247,0.49247 0.055,0.981773 -0.0621,1.46084 0.14464,0.540803 0.0621,1.150398 0.0621,1.708487 0.0141,0.47554 -0.0413,0.992354 -0.0141,1.509168 l 0.055,0.251529 -0.0282,0.767989 0.0282,0.361947 0.0141,0.964132 0.0141,0.345014 -0.0141,0.819847 0.0282,0.161924 c -0.12383,0.782101 0.0896,1.564201 0,2.332191 l 0.0353,0.596189 0,0.19967 c 0.0413,1.58819 -0.0353,3.283271 0.0825,4.809373 -0.0282,0.358066 -0.055,0.661452 -0.0282,0.992002 l 0,0.451551 c -0.0141,0.874881 0.055,1.774102 0.0282,2.635225 l 0.10337,0.689321 0.0282,0.585605 c -0.10336,0.326669 -0.0413,0.671683 -0.0515,1.04386 -0.0106,0.754231 0.0106,1.58819 -0.0381,2.290917 l 0.0621,0.478714 -0.0141,1.230125 0.0282,0.196142 c -0.0282,0.454726 -0.0282,0.999057 0.055,1.470717 l -0.055,0.238122 c 0.0413,0.43744 0,0.954255 0.0413,1.405453 l 0.0141,0.292803 -0.0141,0 0.0416,0.727068 -0.0282,0.213076 0.0141,0.503409 0.0515,0.568672 -0.0515,0.702727 -0.0141,0.251528 0.0656,0.754232 -0.0377,0.0381 c 0.0515,0.881936 -0.0282,1.750114 0.0617,2.58372 0.0554,0.67521 -0.0896,1.405453 0,2.053147 l -0.0247,0.200023 c 0.0141,0.940496 0.0794,1.973772 0.0519,2.927674 l -0.0282,0.424388 0.0141,0.661452 c 0.0141,0.461429 0,0.954254 0.0691,1.429442 -0.0691,0.754584 -0.0282,1.657334 0.0282,2.463423 0.0141,0.43744 -0.0141,0.850892 0.0247,1.312321 l -0.0247,0.516814 c -0.0141,0.409924 -0.0282,0.91298 0.0621,1.298915 l -0.0247,0.80609 0,0.306561 c -0.0378,0.568672 -0.0141,1.285157 0.0381,1.853476 l -0.0896,0.782101 -0.41346,0.409924 -0.84736,0.06562 c -1.2333,-0.06562 -2.31526,0 -3.57607,0 l -0.0413,0.04127 c -0.36512,-0.06879 -0.76481,0.0515 -1.15075,-0.05503 l -0.248,0.02822 -0.81314,-0.02822 -0.50306,-0.05186 -0.26176,-0.182737 c -0.41345,-0.268461 -0.39969,-0.823023 -0.37182,-1.247057 l -0.0282,-0.185913 -0.0141,-0.87488 -0.0141,-0.620177 c 0.0692,-0.330903 -0.0141,-0.716838 0.0554,-1.047388 l -0.0282,-0.792331 0.0554,-0.5341 -0.0554,-0.833606 0.0554,-0.647694 c -0.0554,-0.861475 -0.0416,-1.963542 -0.0691,-2.783742 l 0.0141,-0.447671 c 0.0416,-0.423682 0.0282,-0.995529 -0.0413,-1.406159 l -0.007,-0.884758 0.0353,-0.330902 c -0.048,-0.823376 -0.0282,-1.698256 -0.0282,-2.549148 l 0,-0.368649 c -0.11713,-0.434265 0.0141,-0.885464 -0.0483,-1.309146 l 0.0141,-0.144637 0,-1.34019 0,-0.317144 c -0.0554,-0.712957 0.0282,-1.388168 -0.0282,-2.094422 l 0.0282,-0.23777 c -0.0282,-0.330549 0.0141,-0.634288 -0.0416,-0.950727 l -0.0141,-0.438146 0.0282,-0.279044 -0.0282,-0.330197 c 0,-0.423682 0.0141,-0.850892 0.0141,-1.274574 -0.055,-0.857947 -0.0282,-1.849949 -0.0413,-2.701193 l -0.0141,-1.112651 0,-0.144637 c -0.11712,-0.609947 0.0413,-1.326432 -0.0688,-2.001995 l 0.0413,-0.06491 c -0.0106,-0.448024 0.0282,-0.964838 -0.0413,-1.364532 l 0,-0.265639 c 0.0688,-0.712604 -0.0896,-1.363825 -0.0353,-2.025277 l -0.0413,-0.227187 0.055,-0.224012 c -0.0688,-0.633935 -0.0413,-1.285157 -0.055,-1.91874 l -0.0931,-0.186617 0.0794,-0.03175 -0.0621,-0.168626 0.10337,-0.279045 -0.0413,-0.8202 c -0.0931,-0.488945 0.0794,-0.874881 -0.0282,-1.367354 l 0.0282,-0.275869 0,-0.633936 -0.0413,-0.279044 c -0.0141,-0.409924 0,-0.819848 -0.0212,-1.233299 l 0.0212,-0.36865 c -0.0212,-0.358066 0.055,-0.661452 -0.0519,-1.005759 0,-0.440968 0,-0.850892 0,-1.274927 l 0.0519,-0.56832 -0.0381,-0.358066 0.0794,-0.5341 -0.17215,-0.144638 0.0688,-0.141462 0.0247,-0.496354 0.0176,-0.171801 -0.055,-0.582783 -0.0413,-0.209548 c 0,-0.782101 0,-1.656981 0,-2.411566 -0.0554,-0.34466 -0.0416,-0.688968 0,-1.01987 -0.0691,-0.623353 0.079,-1.153925 -0.0416,-1.815377 l -0.0282,-0.865006 0.0282,-0.89887 c 0.0829,-0.37217 -0.0755,-0.76834 -0.0353,-1.11617 0.0353,-0.56515 -0.0688,-1.15075 0.007,-1.66757 l -0.0212,-0.33055 0.16862,-0.52775 0.63747,-0.29245 0.17215,0.0247 c 0.75106,-0.1069 1.45379,-0.0141 2.18438,-0.0247 l 0.39934,-0.0141 c 0.46178,0 1.01987,0.0141 1.4679,-0.0688 l 0.70272,0.055 0.76835,-0.0653"
       id="path2871" />
    <path
       style="fill:#ffffff;fill-rule:nonzero;stroke:none"
       d="m 408.02634,-120.93371 0.35841,0.72707 0.0515,0.0413 c 0.0519,1.01987 0.13441,1.89158 0.23777,2.84583 l 0.0282,0.68897 0.10336,0.79586 0.0282,0.27552 c -0.0106,0.46496 0.13793,0.86465 0.13793,1.34019 l -0.2413,0.31679 -0.42368,0.0794 -0.88546,0.0106 -0.0282,0.0381 -0.68897,0.0318 -0.3997,0.0656 c -0.50305,0.0413 -0.992,0.055 -1.50881,0.13088 l -0.20002,0 -0.86113,0.096 -0.248,0.0282 -0.79233,0.0892 c -0.46848,-0.0413 -0.88899,0.0794 -1.34019,0.0794 l -0.74082,0.0519 -0.55809,0.0825 c -0.39617,0.0141 -0.79234,0.0378 -1.21955,0.0896 l -0.40639,0.0141 c -0.45473,0.0931 -0.95778,0.0931 -1.41957,0.1344 l -0.41309,0.0515 -0.71331,-0.0282 -0.26529,-0.079 -0.14464,-0.15875 c -0.0963,-0.32702 -0.15839,-0.67839 -0.10336,-1.00576 l -0.0416,-0.3182 c -0.0416,-0.50271 -0.121,-1.01952 -0.11077,-1.49859 l -0.0377,-0.23777 -0.0247,-0.40992 c -0.0691,-0.55809 -0.0691,-1.07138 -0.13441,-1.62947 l -0.0931,-0.70273 0,-0.55456 0.27904,-0.51681 0.51329,0 0.17216,0 c 0.34466,-0.0381 0.74435,-0.0656 1.0749,-0.0931 0.30656,-0.11712 0.62018,0.0413 0.94402,-0.079 0.4064,0 0.86818,-0.0794 1.30915,-0.11713 1.2333,0.0106 2.47365,-0.26881 3.67944,-0.25152 0.35806,-0.0554 0.70272,-0.0967 1.03327,-0.13441 0.44097,-0.0656 0.9786,0.0247 1.4298,-0.13088 l 0.39616,0.0141 0.47554,-0.0935 c 0.46849,0.0106 0.86818,-0.0409 1.32961,-0.0684"
       id="path2873" />
    <path
       style="fill:#ffffff;fill-rule:nonzero;stroke:none"
       d="m 414.79255,-84.250465 0.0141,-0.0381 -0.0759,-0.03775 -0.0141,-1.154277 0.0282,-0.306561 -0.055,-0.67521 0.055,-0.978244 c -0.15839,-0.503409 0.0378,-1.009287 -0.0413,-1.526102 -0.0413,-0.341133 0,-0.792331 -0.0413,-1.109475 0.0282,-0.66498 -0.0381,-1.367707 0,-2.029158 l 0,-0.213429 -0.0247,-0.527045 c 0.0794,-0.6103 -0.0931,-1.130289 0.0106,-1.750114 l -0.0892,-0.06914 0.0653,-0.07902 c -0.0378,-0.396165 0,-0.833958 -0.0378,-1.230477 l 0.14464,-0.07867 0,-0.02469 -0.0931,0 -0.0282,-0.402868 -0.0377,-0.341486 c -0.0141,-0.372177 0.11713,-0.743648 -0.0416,-1.115825 l -0.0282,-1.047387 0,-0.248001 0.0554,-0.519989 -0.0554,-0.582432 -0.0759,-0.39969 0.15875,-0.0653 -0.0554,-0.0141 -0.055,0.0282 -0.0483,-0.0413 -0.0282,-0.44838 0.13088,-0.0141 -0.14464,-0.1344 -0.0413,-0.33055 -0.055,-0.68897 -0.14464,-0.47554 -0.0554,-0.37218 -0.0755,-0.27551 -0.14499,-0.58561 -0.11712,-0.71648 -0.17215,-0.46179 -0.26882,-0.50305 -0.27551,-0.71649 -0.53057,-0.93026 -0.24095,-0.44767 -0.26211,-0.33091 -0.38558,-0.43744 -0.28963,-0.2928 -0.45473,-0.36865 c -0.30303,-0.35842 -0.79233,-0.57185 -1.19202,-0.90275 l -0.048,0 -0.57185,-0.30303 -0.77187,-0.3616 c -0.7373,-0.35489 -1.46754,-0.42403 -2.2634,-0.60641 l -0.55456,-0.10337 -0.84772,-0.0688 -0.42015,-0.0794 c -0.94402,-0.0282 -1.8122,-0.0931 -2.74211,-0.0688 -0.46531,0.10618 -0.98213,0.0413 -1.44709,0.1344 -0.42015,0 -0.8336,0.10654 -1.23329,0.19967 l -0.28928,0.0378 -0.72354,0.18627 -0.49283,0.15839 c -0.35806,0.0931 -0.67838,0.25153 -1.0368,0.34431 l -0.37888,0.27904 c -0.37218,-0.0141 -0.57185,0.42404 -0.93027,0.4378 l -0.38593,0.42368 -0.26176,0.31679 -0.50306,0.55809 c -0.35806,0.0656 -0.37182,0.47907 -0.62335,0.64769 l -0.14816,0.31715 -0.40675,0.59583 -0.1584,0.42368 -0.0963,0.17251 -0.39617,0.90593 -0.20002,0.67168 -0.14464,0.34466 -0.10689,0.34431 -0.1584,0.66498 -0.14463,0.43426 -0.0141,0.63711 -0.0515,0.46531 -0.0519,0.28928 -0.0825,0.67873 c -0.0282,0.47519 -0.18626,0.93697 -0.11712,1.388172 -0.0282,0.451551 0,0.888991 0,1.353948 l 0.0141,0.8202 -0.0282,0.716485 0.0141,0.385935 0.0141,0.702727 c 0.0106,0.368649 -0.0282,0.76799 0.048,1.136639 l 0.0282,0.492826 -0.0519,0.488945 0.0176,0.358066 -0.0176,0 c 0.0519,0.503409 0,0.926738 0.0378,1.419917 l -0.0141,0.182384 c 0.0141,0.613122 0.0416,1.274574 -0.007,1.846774 l -0.0176,0.923211 -0.0378,0.809617 0.055,0.609594 -0.0413,0.795859 c 0.0617,0.409571 -0.0413,0.809617 -0.0282,1.271046 l 0.0688,0.606419 0.0353,0.399341 -0.0141,0.07973 -0.0141,0.385935 0.0282,0.451198 -0.0353,0.316792 0.0621,0.43744 -0.0554,0.95108 c 0.0554,0.320319 0.0554,0.730243 0,1.00576 l 0.0282,0.716837 -0.0141,0.265286 c 0.0967,0.488946 -0.0515,1.009288 0.0691,1.4813 l -0.0282,0.823375 0,0.199318 c -0.0621,0.317497 0.0413,0.671682 0.0141,0.992707 0.0282,0.53022 -0.0554,0.940497 0.0141,1.377937 -0.0141,0.396165 0.0282,0.782101 -0.0141,1.192024 0.21343,0.478715 -0.0758,1.047035 0.0688,1.536333 l 0,0.623705 -0.0282,0.782101 -0.0282,0.571847 c 0.0141,0.406396 0.0413,0.950727 0.0282,1.360651 0.0377,0.461781 0.0282,0.902749 0,1.336662 l 0.0515,0.623705 c -0.0515,0.399693 -0.0515,0.76799 0,1.153925 l -0.0141,0.857947 0,0.899222 c 0.0519,0.358066 -0.0515,0.785276 0.0317,1.116178 0.0106,0.33055 0.0483,0.633936 0.0353,0.992002 l 0.055,0.33443 c 0,0.423682 0,0.857595 0.0656,1.25376 l 0.0106,0.479068 0.11007,0.888638 0,0.544331 0.0483,0.423682 0.0282,0.489298 0.0829,0.661452 0.0896,0.503057 0.0688,0.712957 0.0282,0.33443 0.0519,0.382407 0.0515,0.264934 0.055,0.23777 0.30338,0.982124 0.0755,0.330549 0.16545,0.358419 c 0,0.368649 0.248,0.633935 0.31714,0.977891 0.33055,0.530925 0.50271,1.127114 0.86112,1.643575 0.0759,0.330903 0.36865,0.571495 0.53058,0.861475 l 0.55456,0.56832 c 0.35489,0.399693 0.75458,0.782101 1.17827,1.071376 l 0.40992,0.34466 c 0.64769,0.409924 1.35042,0.716485 2.06726,0.940497 0.46143,0.144637 0.92991,0.292803 1.41921,0.371471 0.4893,0.05221 0.96448,0.131585 1.46754,0.176035 l 0.28927,0.0381 0.0416,-0.02822 c 0.79233,0.134407 1.67074,0.0515 2.4666,0.144638 0.52352,-0.06562 1.05409,-0.07585 1.55715,-0.117121 0.3443,-0.05503 0.75776,-0.08255 1.08866,-0.185912 l 0.64769,-0.106891 0.53057,-0.148165 c 0.35807,-0.01058 0.66146,-0.220484 1.01952,-0.303033 l 0.40993,-0.168979 0.25152,-0.148166 0.62371,-0.368649 c 0.32032,-0.0515 0.47871,-0.320319 0.74083,-0.47554 l 0.41309,-0.358066 0.62018,-0.651221 0.54433,-0.637464 0.18627,-0.289275 0.70272,-0.981771 0.0896,-0.23777 0.31679,-0.91298 c 0.11712,-0.320672 0.2413,-0.582077 0.32032,-0.91298 l 0.21025,-0.929913 0.1584,-0.633936 c 0.0141,-0.465309 0.16192,-0.847716 0.13441,-1.298915 l 0.0519,-0.678738 0.0826,-0.396165 -0.0282,-0.144638 c -0.0141,-0.289275 0.0141,-0.647694 -0.0141,-0.968013 l -0.0141,-0.409924 c -0.0656,-0.582077 0.0928,-1.267871 0.0413,-1.894751 l 0.0141,-0.461781 c -0.0413,-1.00576 0.10337,-1.787861 0,-2.807732 0.0621,-0.503056 0.0106,-0.978243 0,-1.443553 l 0.0377,-0.05151 c 0,-0.571847 -0.0928,-1.195552 -0.0106,-1.750113 -0.0413,-0.634289 -0.0825,-1.312674 -0.0282,-1.946962 l -0.0282,-0.268109 0.0282,-0.130879 -0.0141,-0.847717 0,-0.327022 c 0.0247,-0.547858 -0.0413,-1.088661 -0.0688,-1.632992 l -0.28962,0 -0.0282,-0.103363 -0.0141,0.01058 0.0141,0.04092 -0.19967,0.07973 -0.24129,0 -0.31009,-0.02822 -0.24095,-0.01058 c -0.64769,0 -1.35077,0.01058 -1.95684,-0.06879 l 0.007,0.02822 -0.53057,0 -0.23425,0 c -0.78527,-0.120296 -1.59136,0.02822 -2.36993,-0.06491 l -0.37218,0.03775 -0.0829,0.833606 0.0554,0.520342 c -0.0413,1.071376 -0.0141,2.053147 -0.0141,3.138281 l 0.0282,0.434265 c -0.055,0.944025 0.0282,1.750114 0,2.680027 l 0,0.410277 c 0.0378,0.792331 -0.0141,1.560674 -0.0141,2.369938 0.0688,0.871706 -0.0554,1.774455 -0.0413,2.714952 0.0413,0.806089 -0.13123,1.546915 -0.0896,2.342422 l -0.11712,0.39934 c -0.0317,0.345014 -0.20002,0.634289 -0.39969,0.899575 l -0.1584,0.144285 -0.53057,0.427562 -0.4893,0.289275 -0.86112,0.279045 -0.61347,0.106538 c -0.44768,0.158748 -0.95073,0.07973 -1.44003,0.117121 l -0.67521,-0.03739 -0.43391,-0.05539 -0.87524,-0.240945 c -0.51681,-0.0381 -0.91615,-0.406749 -1.31232,-0.657924 l -0.21025,-0.279045 -0.28257,-0.571847 c -0.1584,-0.354891 -0.22049,-0.764815 -0.26176,-1.164508 l -0.0829,-0.251528 -0.0413,-0.596542 0.0282,-0.823022 c -0.0617,-0.923211 0.0554,-1.863707 0.0141,-2.779862 l -0.0141,-0.196496 -0.0141,-0.372177 c 0.0141,-0.44767 0.0554,-0.847364 0.0141,-1.298562 l -0.0141,-0.224012 c 0.0416,-0.492826 -0.0141,-1.006113 0.0554,-1.509169 l -0.0691,-0.413099 -0.007,-0.554914 0.007,-0.330549 0,-1.274574 -0.048,-0.289628 0.048,-0.502703 c -0.0896,-0.385936 -0.0353,-0.740827 -0.048,-1.099245 l 0.0413,-0.279045 -0.0413,-0.43744 -0.0141,-0.80609 0,-0.67521 c -0.055,-0.661452 0.0896,-1.443552 0,-2.108532 l -0.0141,-0.433913 c -0.0413,-0.506584 0.0758,-1.116178 -0.055,-1.601948 l 0.055,-0.42721 -0.0825,-0.461782 c 0.0688,-0.451198 -0.0141,-0.888638 0.0688,-1.337014 l 0.66145,-0.134055 c 1.01987,0.0381 2.03974,-0.01411 3.03527,0.05186 0.51329,-0.02469 1.15393,0.06526 1.64322,-0.02469 0.55139,0.06209 1.21284,-0.01411 1.77093,0.05186 0.34431,0.03775 0.68897,-0.07937 1.04704,-0.01411 0.53057,0.05151 1.12323,0.03775 1.64004,0.01411 0.37183,0.03775 0.71649,0.02469 1.10242,0 0.51682,0.06879 1.15075,0.02469 1.633,0.03775 0.44767,-0.02822 0.92321,0.04127 1.31937,0 0.33408,0.05539 0.6925,0.04127 0.99553,0 l 0.5789,-0.33055 0.37218,-0.633936 0.11007,-0.610299 c -0.12418,-0.423329 -0.0413,-0.884758 -0.0826,-1.322904 l -0.0282,-0.692143 c 0.0282,-0.354539 0.0413,-0.699199 0.055,-1.05409 l -0.0282,-0.28222 0.0141,-0.861475 0.079,-0.106891 -0.0928,-0.02469 0,-0.289275 0.0413,-0.292802 0.0621,0.01058 z m -8.15791,-5.415792 c 0.0413,0.372177 -0.0554,0.764814 0.0282,1.123233 -0.0141,0.544331 -0.0554,1.009288 -0.0413,1.581135 l -0.0141,0.34078 -0.0617,0.544684 c -0.55809,0.02822 -1.08866,-0.04127 -1.63299,0 l -0.0353,-0.04127 c -0.28257,0.120649 -0.66145,0.01411 -1.03363,0.02822 l -0.7955,-0.02822 -0.23777,0 c -0.42051,0.02822 -0.75812,0 -1.16451,0.01411 l -0.18591,0 -0.7306,-0.01411 -0.51681,0.01411 c -0.44767,0.04092 -0.93697,-0.07937 -1.3917,-0.01411 l -0.39264,-0.141462 c 0.007,-1.143695 -0.0141,-2.149455 0.007,-3.300205 0.0416,-0.372177 -0.0755,-0.809617 -0.007,-1.20931 0.0483,-0.675211 -0.11042,-1.415684 0.007,-2.049619 0.0282,-0.32032 -0.0892,-0.623706 -0.0212,-0.916861 l 0.0141,-1.047034 -0.0967,-0.07902 0.0829,-0.678738 c -0.055,-0.409924 -0.0282,-0.833606 -0.0141,-1.229771 l 0.0353,-0.399694 0.0691,-0.899222 c 0,-0.330902 0.0688,-0.67521 0.0688,-1.033629 0.0353,-0.292802 0.13088,-0.558089 0.0896,-0.878408 l 0.11712,-0.433915 0.12418,-0.59654 0.14464,-0.24094 0.18591,-0.6096 0.2413,-0.36865 0.31679,-0.4512 0.86112,-0.58243 0.59266,-0.22718 0.62018,-0.0759 c 0.31009,-0.17568 0.62688,0 0.9853,-0.0318 l 0.39616,0.0413 0.36865,0.0554 c 0.35842,0.14464 0.81985,0.18239 1.08866,0.48895 l 0.70979,0.54433 0.26846,0.44802 0.18626,0.32032 c 0.15487,0.35489 0.27552,0.75776 0.4064,1.14017 l 0.0688,0.248 0.0554,0.492823 0.0755,0.43744 c 0.0554,0.344661 0.10336,0.647694 0.0829,0.968013 l 0.0353,0.02469 -0.0141,0.702727 0.0554,0.43744 0,0.80609 c 0.1203,0.310088 -0.15875,0.637463 0,0.97154 -0.0621,0.409924 0.14464,0.861475 -0.0141,1.271399 l 0.055,0.316792 -0.0691,0.744354 c 0.18979,0.358066 -0.0892,0.806089 0.11042,1.11265 -0.0826,0.702727 -0.0413,1.429795 -0.0963,2.136049"
       id="path2875" />
    <path
       style="fill:#ffffff;fill-rule:nonzero;stroke:none"
       d="m 492.60258,-48.018772 -0.0282,-0.268815 -0.26529,-0.792331 -0.0519,-0.213428 -0.13088,-0.396166 -0.0688,-0.169332 -0.25506,-0.622999 -0.10336,-0.516815 -0.10337,-0.372177 c 0.0416,-0.503056 -0.2547,-0.978243 -0.12382,-1.484827 l -0.0896,-0.661452 -0.0759,-0.778573 0,-1.075256 -0.0688,-0.754232 c -0.25506,-1.550091 -0.10689,-3.231413 -0.20002,-4.836537 l 0,-0.675563 0,-0.2099 c 0.0141,-0.727068 0.0691,-1.498586 0.0282,-2.235884 0.0892,-0.413452 -0.0416,-0.706255 -0.0282,-1.126409 l 0,-0.120649 0.0416,-0.823375 -0.0416,-0.18309 0.0416,-0.505879 0.0282,-0.210253 -0.0691,-0.926738 0.0416,-0.795859 c 0.0515,-0.358772 -0.0554,-0.688969 0,-1.033629 l -0.0141,-0.265639 c -0.0829,-0.636758 0.0141,-1.126056 -0.0416,-1.777278 l 0.0141,-0.420154 -0.0141,-0.530573 c 0.0416,-0.47554 -0.13088,-0.968013 0.0141,-1.457311 -0.11712,-0.464956 0.0554,-0.978243 -0.0282,-1.443552 l 0,-0.292803 c 0.0282,-0.464957 -0.0653,-0.954255 0.0282,-1.415684 l -0.0141,-0.503056 c 0,-0.399693 0.0416,-0.819848 -0.0141,-1.216013 -0.0141,-0.413452 0.0282,-0.795859 0,-1.223069 l -0.0282,-0.420507 c 0,-0.968013 -0.0212,-1.973773 0.0141,-2.914269 l 0.0282,-0.241298 -0.0617,-0.503056 0.048,-0.409924 c -0.048,-0.647694 -0.0282,-1.271046 -0.0282,-1.946256 l -0.0377,-0.05221 c 0.0377,-0.464604 -0.0656,-0.981418 0.0176,-1.418859 -0.0554,-0.345013 -0.0176,-0.703079 0.0212,-1.071375 l -0.0483,-0.609947 c 0.0621,-0.992002 -0.0688,-2.042917 0,-3.052204 0.0621,-1.113003 -0.055,-2.332544 -0.0141,-3.469183 l -0.0413,-0.623705 -0.0141,-0.447671 c 0.13088,-0.651222 0.0282,-1.367706 0.0413,-1.987884 -0.0282,-0.399693 -0.0413,-0.837129 0.0141,-1.260819 l -0.0141,-0.48929 0.0141,-0.25506 -0.0688,-0.55456 c 0.0282,-1.06115 -0.055,-2.06691 -0.055,-3.11429 l 0.0688,-0.33091 -0.079,-0.0653 -0.0106,-0.70625 0.0106,-0.68544 -0.0656,-0.59619 0,-0.67874 -0.11712,-0.81985 -0.0212,-0.13088 c -0.11712,-0.71648 -0.28928,-1.45731 -0.39264,-2.20131 l -0.0794,-0.31714 c -0.079,-0.3168 -0.18592,-0.59584 -0.2099,-0.92992 l -0.21379,-0.54115 -0.11006,-0.25188 c -0.19297,-0.27905 -0.27552,-0.60572 -0.39264,-0.92604 l -0.42721,-0.60994 c -0.18626,-0.38594 -0.54433,-0.6992 -0.86147,-1.00612 l -0.17216,-0.15839 -0.44802,-0.47519 -0.73024,-0.56867 -0.76482,-0.54751 -0.5856,-0.30338 c -0.31715,-0.10337 -0.59619,-0.30304 -0.91651,-0.38241 l -0.33055,-0.17215 -0.51011,-0.1584 -0.32385,-0.10689 -0.26176,-0.0141 c -0.35806,-0.055 -0.66145,-0.22401 -1.04703,-0.22401 -1.42627,-0.2413 -2.74247,-0.27552 -4.22377,-0.22402 l -0.38594,-0.0282 c -0.31679,0.18662 -0.75105,0.0797 -1.09536,0.21061 -0.65122,0.0825 -1.28869,0.19967 -1.86053,0.46496 l -1.01635,0.44802 -0.3443,0.14816 c -0.32032,0.19967 -0.65122,0.35807 -0.95426,0.55457 l -0.57185,0.34466 -0.99235,0.76799 -0.18591,0.15839 -0.31715,0.41345 -0.27551,0.35842 c -0.28257,0.34113 -0.51682,0.74083 -0.65122,1.15075 l -0.33055,0.6477 c -0.27905,0.5027 -0.35842,1.09889 -0.54433,1.65698 l -0.0378,0.31361 c -0.14499,0.3616 -0.0554,0.75776 -0.14499,1.1437 l -0.13406,0.48894 c 0.0515,0.69955 -0.0247,1.41569 0.0141,2.11877 l 0.0247,0.85054 c 0.0141,0.32737 0.0141,0.60677 0,0.96519 l 0,0.19614 c 0.055,0.83713 0,1.73988 0.0413,2.54597 l -0.0282,0.50659 0.0413,0.28927 -0.0141,0.55774 c 0.0141,1.24388 0.0413,2.611938 0.055,3.789852 l 0,0.227539 c 0.0353,0.751057 -0.0826,1.429795 -0.0413,2.170268 l -0.0141,0.71331 0.13088,0.86465 0.35842,0.171801 c 0.50306,0 1.12641,0.05221 1.69508,-0.01411 l 0.17216,0.01411 0.39969,0.05221 c 0.48894,-0.172507 0.992,-0.01058 1.53633,-0.06562 l 0.0381,0.02469 1.72225,-0.01058 0.63746,-0.06491 c 0.28927,-0.599716 0.11712,-1.392048 0.14464,-2.081369 0.0931,-0.372177 0.0413,-0.754231 0.055,-1.153572 l 0,-0.744354 c -0.12382,-2.11876 -0.0413,-4.43755 -0.13758,-6.71788 l -0.0247,-0.0653 0.0656,-0.42368 c -0.19967,-0.34466 0.0963,-0.71684 -0.0656,-1.07173 l 0.0106,-0.78527 c -0.0896,-0.43744 -0.0106,-0.88582 -0.0621,-1.36418 l 0.0758,-0.14464 0.0963,-0.47554 0.10336,-0.34783 c 0.23777,-0.60642 0.70273,-1.21637 1.31268,-1.52293 l 0.43744,-0.21343 0.4893,-0.14146 0.55809,-0.0825 c 0.47518,-0.13088 1.10242,-0.0381 1.53633,-0.0896 l 0.86147,0.12065 0.38559,0.11712 0.73729,0.22402 c 0.33091,0.14463 0.55809,0.45119 0.87524,0.60924 l 0.14463,0.19685 0.29634,0.36159 0.27551,0.83396 0.0931,0.37147 0.0515,0.42086 0.10689,0.77152 -0.13441,0.17215 0.0141,0.0519 0.1584,0.27552 0.0829,0.8784 c 0,0.59619 0.0515,1.16451 0.0141,1.72225 l 0.0141,0.43462 -0.0141,0.55809 0,0.079 0.0759,0.39969 -0.0141,0.4512 -0.0141,0.93732 -0.0282,0.55809 0,0.19967 c 0.0416,0.35842 -0.0755,0.71296 -0.007,1.061145 l 0.007,0.768342 -0.048,0.223659 0.0282,0.200023 0,0.23777 -0.0829,0.530573 -0.0896,0.688968 -0.0413,0.633936 -0.0896,0.71966 -0.11006,0.764814 -0.0931,0.399694 0,0.396165 -0.22402,0.730596 -0.0688,0.344308 -0.14463,0.330902 -0.27552,0.637111 c -0.18627,0.633935 -0.59936,1.192024 -0.93027,1.732828 -0.22401,0.33443 -0.47554,0.664979 -0.77857,0.930266 -0.1584,0.317144 -0.46178,0.489298 -0.70273,0.809617 l -0.20002,0.210253 c -0.21343,0.32032 -0.51646,0.558089 -0.80609,0.80609 -0.59584,0.347835 -1.06114,1.009287 -1.63299,1.432969 -0.38241,0.303386 -0.75106,0.637464 -1.05409,0.982124 l -0.31009,0.313264 -0.58208,0.465309 -0.55491,0.650869 c -0.55809,0.410277 -0.95073,1.047387 -1.48448,1.550443 l -0.45155,0.554562 c -0.42015,0.358419 -0.68897,0.844189 -1.0816,1.271399 l -0.35842,0.478362 c -0.47872,0.437793 -0.71649,1.033981 -1.03363,1.561026 l -0.51646,0.874881 -0.27587,0.67521 -0.22719,0.503056 -0.20002,0.489298 -0.35807,0.823376 c -0.055,0.368649 -0.27552,0.726715 -0.25153,1.136991 l -0.12065,0.303034 -0.0621,0.558089 -0.14464,0.489298 -0.055,0.478715 -0.0963,0.261758 -0.0212,0.479068 -0.0967,0.782101 -0.055,0.05151 0.0141,0.385935 -0.0378,0.530573 -0.0381,0.540803 -0.0282,0.878055 -0.0688,0.300211 -0.0483,0.38911 0.0353,0.740826 c 0.11006,0.554209 -0.0759,1.122881 0.0282,1.667212 l -0.0621,0.554914 0.0759,0.595836 -0.0759,0.185912 0.0353,0.106891 0.0141,0.265286 c 0.0141,0.409924 0.0963,0.91298 0.055,1.298916 l 0.0413,0.251528 -0.0141,0.992001 0.0519,0.07937 -0.0519,0.23777 0.0141,0.56832 0.0141,0.558089 0.0377,0.596189 0.0653,0.836781 0.0282,0.02469 c 0.0515,0.320319 0.0282,0.688968 0.0141,1.019518 l 0.0759,0.07902 -0.0212,0.186265 0.11712,1.006113 0.0794,0.489298 -0.0141,0.175681 0.16862,0.503057 0.14817,0.609594 0.0931,0.43744 0.0755,0.540803 0.20673,0.344661 0.23424,0.540803 0.18627,0.479067 0.2547,0.558089 c 0.13123,0.396166 0.43426,0.726716 0.53763,1.109123 l 0.25505,0.330902 0.44767,0.730243 0.10689,0.134407 c 0.38594,0.392638 0.82338,0.740827 1.16769,1.202255 l 0.44802,0.292803 0.53057,0.372177 0.51682,0.368649 0.33055,0.161924 c 0.42368,0.02469 0.76481,0.330549 1.19202,0.316791 l 0.23777,0.07937 0.71296,0.05151 0.85442,0.02822 c 0.43426,0.117122 0.83396,0.02822 1.28163,0.02822 0.42368,-0.158748 0.90275,-0.214134 1.37793,-0.255055 l 0.0519,-0.06562 0.65087,-0.106538 0.44802,-0.210254 0.76835,-0.275517 0.76799,-0.213781 0.41345,-0.172154 0.56867,-0.265286 0.71296,-0.120649 0.28257,0.372177 0.22048,0.303033 c 0.38594,0.213781 0.77152,0.451551 1.19203,0.596189 l 0.34431,0.199317 0.71683,0.186265 c 1.45379,-0.01411 2.92803,0.01411 4.38534,-0.01411 0.40993,0.05539 0.76835,-0.03775 1.17474,0.01411 l 0.22754,-0.158395 0.39969,-0.451199 0.11713,-0.451198 0.055,-0.541156 0,-0.609594 z m -9.19153,-10.028671 0.0554,0.489299 -0.13793,0.730243 -0.0282,0.709782 -0.13087,0.706254 -0.0829,0.712957 -0.23424,0.530573 -0.57185,0.609946 -0.72671,0.265287 -0.88546,0.172154 -0.31715,0.09313 c -0.32385,0 -0.64064,0.06526 -0.92991,0 l -0.1965,0.02822 -0.34783,-0.02822 -0.4893,-0.05186 -0.55456,-0.19967 -0.72707,-0.320319 -0.13441,-0.06209 -0.60959,-0.399694 c -0.23777,-0.265286 -0.53057,-0.516814 -0.61312,-0.87488 l -0.31715,-0.530573 -0.17215,-0.409924 -0.0896,-0.554914 -0.18591,-0.413804 -0.11712,-0.685088 -0.0554,-0.240945 -0.0758,-0.768343 -0.0176,-0.67521 -0.0656,-0.978596 c 0,-0.558089 -0.0413,-1.192024 -0.0282,-1.801619 l -0.0688,-0.385935 c 0.0141,-0.68544 -0.0483,-1.374409 -0.0483,-2.06373 l 0.0759,-0.110065 -0.0759,-0.382408 c 0.0378,-0.355244 -0.0963,-0.740826 0.0621,-1.033629 -0.0896,-0.396165 0.055,-0.778573 0,-1.205783 l 0.0825,-0.07902 0.0413,-0.727068 0.0141,-0.833606 0.10337,-0.492826 0.0381,-0.457901 0.0282,-0.320672 0.0931,-0.716485 c -0.0247,-0.34466 0.11712,-0.688968 0.13405,-1.061145 l 0.0794,-0.344308 0.14464,-0.423682 0.0758,-0.396518 0.2413,-0.633583 0.13758,-0.530573 0.496,-0.940496 0.49283,-0.730596 0.46496,-0.582078 0.0416,-0.09313 0.64734,-0.702727 0.79269,-0.792331 0.22719,-0.09313 0.37217,-0.413099 0.1584,-0.131585 c 0.30303,-0.382407 0.71295,-0.623 1.03363,-0.991649 l 0.57855,-0.530572 0.2928,-0.23777 c 0.36195,-0.382408 0.75458,-0.740474 1.15428,-1.061146 l 0.54433,-0.409923 0.28927,0 -0.055,0.8202 0.0413,0.623352 -0.0413,0.888992 c 0.0413,0.806089 -0.0141,1.811849 0.055,2.607708 l -0.0688,0.492826 c 0.055,1.694728 0.0413,3.431083 0.0688,5.057373 l 0.0247,0.409924 -0.0656,0.385582 0.0413,0.396519 c 0.0317,2.173796 0.055,4.79879 0.0413,8.040786 0.0759,0.516462 -0.0282,0.981771 0.0554,1.522575 -0.0554,0.516814 0.0212,1.047387 0,1.564201 l 0.0212,0.396166"
       id="path2877" />
    <path
       style="fill:#100b0c;fill-rule:nonzero;stroke:none"
       d="m 79.091743,42.555344 299.999337,0 0,-74.999128 -299.999337,0 z"
       id="path2879" />
    <path
       style="fill:#ffffff;fill-rule:nonzero;stroke:none"
       d="m 169.14904,-19.424645 -0.12735,-0.255056 -0.44096,-0.18944 -14.4761,0 -0.44097,0 -0.31714,0.316792 -22.68551,45.619724 -0.0621,0.440968 c 0,0 0.0621,0.18944 0.44097,0.123824 l 13.08087,0 0.37888,-0.123824 0.19297,-0.317144 3.15909,-6.759157 c 0.18944,-0.444496 0.44097,-0.633936 0.44097,-0.633936 l 0.50658,-0.251528 15.86109,0 0.19297,0 0.12383,0.251528 1.77092,7.269269 c 0.0617,0.440968 0.12383,0.502704 0.12383,0.502704 l 0.44449,0.127704 11.24821,-0.06562 0.18944,-0.06209 0.12735,-0.251176 -9.73234,-45.743548 z m -6.50762,27.7982683 -0.13088,0.061735 -9.28785,-0.061735 -0.37888,-0.062088 0.0617,-0.3171441 6.32172,-14.3416897 0.1277,-0.1273515 0.0617,0.1273515 3.22471,14.469394"
       id="path2881" />
    <path
       style="fill:#ffffff;fill-rule:nonzero;stroke:none"
       d="m 229.12422,26.759871 -11.56853,0 -0.37888,0 -0.12418,-0.127704 -16.05406,-28.4939395 -0.18591,-0.1273516 -0.13088,0.1894398 -3.97894,27.9908833 -0.1277,0.37888 -0.3168,0.06209 -11.49973,0 -0.3168,-0.123824 -0.18944,-0.506584 6.32172,-45.30258 0.18591,-0.316792 0.37888,-0.189439 12.82935,0 0.31714,0.127351 0.19297,0.255056 14.46904,25.3969331 c 0.25506,0.5062312 0.44097,0.4444957 0.44097,0.4444957 0,0 0.19297,0 0.31714,-0.5686723 l 3.66533,-25.2727565 0.12418,-0.255056 0.25505,-0.127351 12.07124,0.127351 0.31714,0.06209 0.0621,0.192968 -6.50798,45.68146 -0.18944,0.440968"
       id="path2883" />
    <path
       style="fill:#ffffff;fill-rule:nonzero;stroke:none"
       d="m 273.99289,-19.424645 -0.12418,-0.255056 -0.50976,-0.18944 -14.21787,0 c -0.37888,0 -0.50305,0.06209 -0.50305,0.06209 l -0.25506,0.254703 -22.94056,45.809164 -0.12383,0.375352 0.44097,0.127704 13.01879,0 0.37888,-0.06209 0.18944,-0.251528 3.41062,-7.268916 c 0.1277,-0.379233 0.37888,-0.630761 0.37888,-0.630761 l 0.51011,-0.18944 15.03771,0 c 0.37888,0 0.69567,0.18944 0.69567,0.18944 0,0 0.12771,0.18944 0.25153,0.568672 l 1.51587,7.141565 c 0.0656,0.375352 0.13088,0.440968 0.13088,0.440968 l 0.44097,0.123824 11.56183,0 0.19297,-0.06174 0.0617,-0.189792 -9.54254,-45.994724 z m -6.4459,27.8600038 -0.12735,0 -9.34993,0.065616 -0.31715,-0.1273516 c 0,0 -0.0653,-0.062088 0.0621,-0.506584 l 6.31819,-14.2764264 0.13088,-0.2550559 0.12418,0.1897927 3.15909,14.658481"
       id="path2885" />
    <path
       style="fill:#ffffff;fill-rule:nonzero;stroke:none"
       d="m 316.46339,26.129111 c -0.0621,0.379232 -0.12382,0.503056 -0.12382,0.503056 l -0.37923,0.127704 -26.0411,0 c -0.75776,0 -0.94755,-0.189792 -0.94755,-0.189792 0,0 -0.12736,-0.251176 -0.0653,-0.819848 l 6.44554,-44.861612 c 0.0656,-0.56832 0.19297,-0.75776 0.19297,-0.75776 0,0 0.0621,0 0.69602,0 l 11.81653,0 0.44097,0.06209 0,0.444142 -4.8644,35.06401 c -0.0621,0.382407 0.12417,0.444496 0.12417,0.444496 0,0 0.13088,0.06173 0.63359,0.06173 l 12.89143,0 0.37923,0.127705 0.0617,0.378879"
       id="path2887" />
    <path
       style="fill:#ffffff;fill-rule:nonzero;stroke:none"
       d="m 366.57887,8.3736233 -0.25152,0.1273516 -16.17824,0 -0.37888,0.1238238 -0.19296,0.3792324 0,17.2527839 -0.12383,0.313264 -0.25505,0.127704 -12.82935,0 -0.31714,-0.127704 -0.0617,-0.37888 0,-17.2492562 -0.18626,-0.3171441 -0.25471,-0.1238238 -16.55711,0 -0.37888,-0.065616 c 0,0 -0.13088,-0.1238238 -0.13088,-0.5027035 l 0,-12.6370838 0.13088,-0.3164386 0.18591,-0.062088 16.94305,0 0.12382,-0.065616 0.12418,-0.1894399 0,-15.0994487 0.0617,-0.317497 c 0,0 0.13123,-0.06174 0.51011,-0.06174 l 12.57429,0 0.31714,0.06174 0.12383,0.379232 0,15.165418 16.43293,0 c 0.44097,0 0.56867,0.061736 0.56867,0.061736 0,0 0.18944,0.065616 0.18944,0.4441429 l 0,12.7609076"
       id="path2889" />
    <path
       style="fill:#ffffff;fill-rule:nonzero;stroke:none"
       d="m 126.99886,25.05456 c -0.0656,0.506231 -0.31715,0.885111 -0.31715,0.885111 0,0 -0.2547,0.251528 -0.69567,0.379232 -6.07019,2.463071 -12.82934,1.643223 -12.82934,1.643223 -10.93495,-1.202255 -17.887077,-7.899676 -20.098619,-16.553585 -3.286799,-12.9535222 3.22471,-22.179278 4.802317,-24.136117 3.855122,-4.612878 9.859692,-7.899677 15.737262,-8.657436 7.52045,-1.075257 13.08405,0.692496 15.35804,1.453783 0,3.53e-4 2.52868,0.819848 4.42343,2.084191 0.9472,0.630408 1.07491,0.885464 1.07491,0.885464 0,0 0.0617,0.127351 -0.19297,1.136991 l -1.7674,9.2878444 c -0.0621,0.3788797 -0.31362,0.5683195 -0.31362,0.5683195 0,0 -0.12735,0.062088 -1.01281,-0.5062312 -5.69131,-4.0445587 -12.32276,-3.5383267 -12.32276,-3.5383267 -5.05738,0.3171438 -10.93142,2.9696544 -12.702,9.66707596 -1.58149,5.93930944 0.0621,10.93106704 3.60006,13.90072204 2.40099,2.084191 6.12875,3.159094 10.04914,2.969654 4.29961,-0.317144 7.71023,-2.022455 7.45518,-1.894751 l 0.37888,-0.127704 c 0.88899,-0.440615 1.0749,-0.37888 1.0749,-0.37888 0,0 0.19297,0.18944 0.0656,0.758112"
       id="path2891" />
  </g>
</svg>
