<?xml version="1.0" encoding="UTF-8" standalone="no"?>
<!-- Created with Inkscape (http://www.inkscape.org/) -->
<svg
   xmlns:dc="http://purl.org/dc/elements/1.1/"
   xmlns:cc="http://web.resource.org/cc/"
   xmlns:rdf="http://www.w3.org/1999/02/22-rdf-syntax-ns#"
   xmlns:svg="http://www.w3.org/2000/svg"
   xmlns="http://www.w3.org/2000/svg"
   xmlns:xlink="http://www.w3.org/1999/xlink"
   xmlns:sodipodi="http://sodipodi.sourceforge.net/DTD/sodipodi-0.dtd"
   xmlns:inkscape="http://www.inkscape.org/namespaces/inkscape"
   width="720"
   height="150"
   id="svg2"
   sodipodi:version="0.32"
   inkscape:version="0.45.1"
   version="1.0"
   inkscape:output_extension="org.inkscape.output.svg.inkscape">
  <g
     inkscape:label="Layer 1"
     inkscape:groupmode="layer"
     id="layer1"
     transform="translate(-331.05549,-420.30821)">
    <path
       style="fill:#18458b;fill-rule:nonzero;stroke:none"
       id="path4582"
       d="M 691.0481,510.3079 L 731.04985,510.3079 L 731.04985,480.31304 L 691.0481,480.31304 L 691.0481,510.3079 z " />
    <path
       style="fill:#221e1f;fill-rule:nonzero;stroke:none"
       id="path4584"
       d="M 331.05549,540.30578 L 691.0481,540.30578 L 691.0481,450.30759 L 331.05549,450.30759 L 331.05549,540.30578 z " />
    <path
       style="fill:#ffffff;fill-rule:nonzero;stroke:none"
       id="path4586"
       d="M 388.56836,519.29911 C 388.49345,519.90335 388.19107,520.36108 388.19107,520.36108 C 388.19107,520.36108 387.88578,520.66623 387.35876,520.81579 C 380.07018,523.77207 371.95435,522.78259 371.95435,522.78259 C 358.82371,521.346 350.47822,513.30496 347.82429,502.91794 C 343.8787,487.37066 351.69213,476.2963 353.59366,473.94577 C 358.21891,468.40938 365.42539,464.47119 372.48428,463.5618 C 381.51452,462.27474 388.19107,464.39264 390.91913,465.30354 C 390.91913,465.30354 393.95179,466.28997 396.232,467.80966 C 397.36891,468.56798 397.52082,468.86406 397.52082,468.86406 C 397.52082,468.86406 397.59859,469.01814 397.294,470.23569 L 395.16713,481.37956 C 395.0937,481.83424 394.78985,482.06084 394.78985,482.06084 C 394.78985,482.06084 394.64011,482.13336 393.57594,481.45355 C 386.74961,476.60447 378.78067,477.20569 378.78067,477.20569 C 372.71179,477.5909 365.65508,480.76926 363.53181,488.8103 C 361.62955,495.94191 363.60381,501.93001 367.85682,505.49658 C 370.74044,507.99819 375.21525,509.28371 379.91754,509.0571 C 385.07994,508.67645 389.17529,506.63258 388.87074,506.78365 C 388.87074,506.78365 389.09825,506.71112 389.32794,506.63258 C 390.38994,506.10082 390.61745,506.17786 390.61745,506.17786 C 390.61745,506.17786 390.84426,506.40597 390.69449,507.08725 L 388.56836,519.29911 z M 427.42025,481.45355 C 427.42025,481.45355 427.34103,481.45355 427.26186,481.60613 L 419.67304,498.81965 C 419.52905,499.04775 419.60826,499.20184 419.60826,499.20184 C 419.60826,499.20184 419.67304,499.28038 420.05464,499.28038 L 431.20744,499.3514 C 431.28665,499.3514 431.35865,499.28038 431.35865,499.28038 C 431.35865,499.28038 431.43786,499.20184 431.35865,498.97523 L 427.49224,481.60613 C 427.49224,481.45355 427.42025,481.45355 427.42025,481.45355 z M 553.36979,481.22698 C 553.36979,481.22698 553.29057,481.22698 553.21858,481.53364 L 545.62258,498.67008 C 545.47859,499.20184 545.55058,499.28038 545.55058,499.28038 C 545.55058,499.28038 545.78097,499.43296 545.93218,499.43296 L 557.15698,499.3514 C 557.23619,499.3514 557.31537,499.3514 557.31537,499.3514 C 557.31537,499.3514 557.38736,499.28038 557.31537,499.04775 L 553.51378,481.45355 C 553.44178,481.22698 553.36979,481.22698 553.36979,481.22698 z M 450.48183,521.19343 L 436.97464,521.26745 C 436.67226,521.26745 436.44905,521.12245 436.44905,521.12245 C 436.44905,521.12245 436.36984,521.04236 436.29062,520.50763 L 434.16662,511.79589 C 434.16662,511.56322 434.01545,511.48618 434.01545,511.48618 C 434.01545,511.48618 433.94346,511.48618 433.78503,511.48618 L 414.74106,511.48618 C 414.36665,511.48618 414.13626,511.79589 414.13626,511.79589 C 414.13626,511.79589 413.83385,512.02095 413.61064,512.54965 L 409.80905,520.66623 C 409.65784,520.9623 409.58585,521.04236 409.58585,521.04236 C 409.58585,521.04236 409.36264,521.19343 409.13226,521.19343 L 393.4262,521.19343 C 392.97114,521.26745 392.8934,521.04236 392.8934,521.04236 C 392.8934,521.04236 392.81562,520.81579 392.97114,520.50763 L 420.20585,465.75821 C 420.35705,465.45611 420.58744,465.38058 420.58744,465.38058 C 420.58744,465.38058 420.73865,465.38058 421.12024,465.38058 L 438.49384,465.38058 C 438.79625,465.38058 439.02664,465.61019 439.02664,465.61019 C 439.02664,465.61019 439.09864,465.67967 439.17785,465.90778 L 450.86342,520.81579 C 450.86342,521.04236 450.71225,521.12245 450.71225,521.12245 C 450.71225,521.12245 450.63303,521.19343 450.48183,521.19343 z M 511.17781,521.346 L 497.29621,521.346 C 497.07301,521.346 496.8354,521.346 496.8354,521.346 C 496.8354,521.346 496.76341,521.26745 496.69141,521.19343 L 477.41702,486.99453 C 477.26582,486.84196 477.1866,486.84196 477.1866,486.84196 C 477.1866,486.84196 477.03543,486.84196 477.03543,487.06852 L 472.25463,520.66623 C 472.18263,521.04236 472.10342,521.12245 472.10342,521.12245 C 472.10342,521.12245 471.95943,521.19343 471.72182,521.19343 L 457.91943,521.19343 C 457.68905,521.19343 457.53784,521.04236 457.53784,521.04236 C 457.53784,521.04236 457.23542,520.73875 457.30742,520.43511 L 464.89623,466.06186 C 464.97541,465.75821 465.12662,465.67967 465.12662,465.67967 C 465.12662,465.67967 465.34982,465.45611 465.58021,465.45611 L 480.98101,465.45611 C 481.21143,465.45611 481.36261,465.61019 481.36261,465.61019 C 481.36261,465.61019 481.51382,465.67967 481.58581,465.90778 L 498.96662,496.39663 C 499.269,497.00087 499.49221,496.92834 499.49221,496.92834 C 499.49221,496.92834 499.72259,496.92834 499.8738,496.24405 L 504.27301,465.90778 C 504.27301,465.67967 504.4314,465.61019 504.4314,465.61019 C 504.4314,465.61019 504.5034,465.45611 504.7266,465.45611 L 519.2274,465.61019 C 519.5226,465.61019 519.60182,465.67967 519.60182,465.67967 C 519.60182,465.67967 519.68099,465.75821 519.68099,465.90778 L 511.86901,520.73875 C 511.7898,521.04236 511.63859,521.26745 511.63859,521.26745 C 511.63859,521.26745 511.55941,521.346 511.17781,521.346 z M 576.20098,521.41702 L 562.31938,521.41702 C 562.01699,521.5726 561.78657,521.26745 561.78657,521.26745 C 561.78657,521.26745 561.71458,521.19343 561.63536,520.73875 L 559.81378,512.1675 C 559.66257,511.71278 559.51136,511.48618 559.51136,511.48618 C 559.51136,511.48618 559.12977,511.25807 558.67618,511.25807 L 540.61857,511.25807 C 540.23698,511.25807 540.01377,511.48618 540.01377,511.48618 C 540.01377,511.48618 539.71139,511.79589 539.56018,512.25056 L 535.46339,520.9623 C 535.38418,521.19343 535.233,521.26745 535.233,521.26745 C 535.233,521.26745 534.93059,521.346 534.77938,521.346 L 519.14819,521.346 C 518.76659,521.41702 518.61539,521.19343 518.61539,521.19343 C 518.61539,521.19343 518.54339,521.04236 518.76659,520.73875 L 546.31378,465.75821 C 546.46498,465.67967 546.61619,465.45611 546.61619,465.45611 C 546.61619,465.45611 546.7674,465.38058 547.22099,465.38058 L 564.29217,465.38058 C 564.67376,465.38058 564.89697,465.61019 564.89697,465.61019 C 564.89697,465.61019 564.97618,465.67967 565.04818,465.90778 L 576.50336,521.12245 C 576.50336,521.26745 576.43137,521.346 576.43137,521.346 C 576.43137,521.346 576.43137,521.41702 576.20098,521.41702 z M 616.03857,520.58617 C 615.95935,521.04236 615.88736,521.19343 615.88736,521.19343 C 615.88736,521.19343 615.81536,521.346 615.42655,521.346 L 584.17136,521.346 C 583.26417,521.346 583.03375,521.12245 583.03375,521.12245 C 583.03375,521.12245 582.88258,520.81579 582.95457,520.13146 L 590.69456,466.28997 C 590.77378,465.61019 590.92495,465.38058 590.92495,465.38058 C 590.92495,465.38058 591.00416,465.38058 591.76017,465.38058 L 605.94416,465.38058 C 606.32575,465.38058 606.47696,465.45611 606.47696,465.45611 C 606.47696,465.45611 606.55617,465.67967 606.47696,465.98783 L 600.63776,508.07523 C 600.55855,508.53292 600.78897,508.60544 600.78897,508.60544 C 600.78897,508.60544 600.94015,508.67645 601.54495,508.67645 L 617.02496,508.67645 C 617.32734,508.67645 617.47855,508.83656 617.47855,508.83656 C 617.47855,508.83656 617.55777,508.90758 617.55777,509.28371 L 616.03857,520.58617 z M 676.20893,499.28038 C 676.20893,499.28038 676.12972,499.43296 675.90651,499.43296 L 656.48092,499.43296 C 656.17132,499.43296 656.02733,499.58252 656.02733,499.58252 C 656.02733,499.58252 655.79694,499.65501 655.79694,500.0387 L 655.79694,520.73875 C 655.79694,521.04236 655.64573,521.12245 655.64573,521.12245 C 655.64573,521.12245 655.56652,521.26745 655.33613,521.26745 L 639.94255,521.26745 C 639.71213,521.26745 639.56095,521.12245 639.56095,521.12245 C 639.56095,521.12245 639.48174,521.04236 639.48174,520.66623 L 639.48174,499.95865 C 639.48174,499.7351 639.25853,499.58252 639.25853,499.58252 C 639.25853,499.58252 639.17932,499.43296 638.95615,499.43296 L 619.07697,499.43296 C 618.69533,499.43296 618.61616,499.3514 618.61616,499.3514 C 618.61616,499.3514 618.46495,499.20184 618.46495,498.74411 L 618.46495,483.57597 C 618.46495,483.42491 618.61616,483.20135 618.61616,483.20135 C 618.61616,483.20135 618.69533,483.1228 618.84654,483.1228 L 639.17932,483.1228 C 639.33053,483.1228 639.33053,483.04878 639.33053,483.04878 C 639.33053,483.04878 639.48174,482.97324 639.48174,482.82067 L 639.48174,464.69776 C 639.48174,464.47119 639.56095,464.31861 639.56095,464.31861 C 639.56095,464.31861 639.71213,464.24609 640.16575,464.24609 L 655.26414,464.24609 C 655.56652,464.24609 655.64573,464.31861 655.64573,464.31861 C 655.64573,464.31861 655.79694,464.47119 655.79694,464.77028 L 655.79694,482.97324 L 675.52492,482.97324 C 676.05772,482.97324 676.20893,483.04878 676.20893,483.04878 C 676.20893,483.04878 676.43214,483.1228 676.43214,483.57597 L 676.43214,498.89669 C 676.43214,499.04775 676.20893,499.28038 676.20893,499.28038" />
    <path
       style="fill:#7a7879;fill-rule:nonzero;stroke:none"
       id="path4588"
       d="M 691.0481,540.30732 L 611.04896,540.30732 L 611.04896,570.30821 L 731.05129,570.30821 L 731.05129,510.3079 L 691.0481,510.3079 L 691.0481,540.30732" />
    <path
       style="fill:#1c62b7;fill-rule:nonzero;stroke:none"
       id="path4590"
       d="M 691.05531,480.30701 L 731.05129,480.30701 L 731.05129,510.3079 L 1051.0551,510.3079 L 1051.0551,420.30821 L 651.06652,420.30821 L 651.06652,450.30609 L 691.0481,450.30609 L 691.0481,480.30701" />
    <path
       style="fill:#ffffff;fill-rule:nonzero;stroke:none"
       id="path4592"
       d="M 762.89689,491.23332 L 777.47256,491.23332 L 777.47256,435.20445 L 762.89689,435.20445 L 762.89689,491.23332 z " />
    <path
       style="fill:#ffffff;fill-rule:nonzero;stroke:none"
       id="path4594"
       d="M 843.78884,491.23332 L 828.24405,491.23332 L 813.30406,466.12681 C 812.62726,464.93795 811.80644,463.51948 810.90644,461.7173 C 809.04166,458.20965 808.30005,456.64918 806.43527,452.23968 L 806.43527,454.78661 C 806.43527,458.88491 806.28406,461.9575 805.83765,465.38058 L 802.69124,491.23332 L 788.49286,491.23332 L 795.38326,435.20445 L 810.69045,435.20445 L 826.67444,462.243 L 829.07205,466.74013 L 831.22485,471.06503 L 832.35524,473.16327 C 832.35524,472.10888 832.35524,471.36415 832.42723,470.83541 C 832.51363,468.67522 832.73683,465.90778 833.03203,463.51948 L 836.53842,435.20445 L 850.65763,435.20445 L 843.78884,491.23332" />
    <path
       style="fill:#ffffff;fill-rule:nonzero;stroke:none"
       id="path4596"
       d="M 893.90799,447.53413 L 876.64963,447.53413 L 876.64963,456.8637 L 893.00799,456.8637 L 893.00799,469.20245 L 876.64963,469.20245 L 876.64963,478.90966 L 893.90799,478.90966 L 893.90799,491.23332 L 862.08402,491.23332 L 862.08402,435.20445 L 866.92963,435.20445 L 867.76482,432.87959 L 889.87602,432.87959 L 889.05523,435.20445 L 893.90799,435.20445 L 893.90799,447.53413" />
    <path
       style="fill:#ffffff;fill-rule:nonzero;stroke:none"
       id="path4598"
       d="M 913.06719,435.20445 L 927.49599,435.20445 L 938.8432,465.09354 L 950.87439,435.20445 L 965.28876,435.20445 L 973.81356,491.23332 L 959.24798,491.23332 L 955.06479,458.95743 L 941.53599,491.23332 L 935.71119,491.23332 L 922.85918,458.95743 L 918.07841,491.23332 L 903.57761,491.23332 L 913.06719,435.20445" />
    <path
       style="fill:#ffffff;fill-rule:nonzero;stroke:none"
       id="path4600"
       d="M 997.00476,481.52607 L 993.18877,491.23332 L 977.78797,491.23332 L 999.32317,435.20445 L 1015.1488,435.20445 L 1036.2951,491.23332 L 1020.7504,491.23332 L 1017.0928,481.52607 L 997.00476,481.52607 z M 1005.3352,452.53123 L 999.20797,470.40035 L 1011.3256,470.40035 L 1005.3352,452.53123" />
    <path
       style="fill:#ffffff;fill-rule:nonzero;stroke:none"
       id="path4602"
       d="M 745.30727,489.90096 C 742.61449,491.23332 736.48727,492.36325 732.1601,492.36325 C 715.94569,492.36325 704.2961,480.70732 704.2961,464.48177 C 704.2961,447.45708 717.73851,434.07448 734.99691,434.07448 C 739.4033,434.07448 743.73769,434.97634 748.38169,436.91294 C 750.82968,437.96888 751.73687,438.63807 751.73687,439.45682 L 751.73687,439.67435 L 750.38327,450.6626 C 750.23928,452.02215 750.16729,452.09467 749.86487,452.09467 C 749.7137,452.09467 749.56249,452.02215 749.33928,451.86505 L 748.5185,451.19285 C 745.83289,448.94805 740.74967,447.53413 736.3361,447.53413 C 726.17691,447.53413 718.86171,454.41195 718.86171,463.82011 C 718.86171,472.63608 725.21928,478.90966 734.17609,478.90966 C 738.7265,478.90966 744.71687,477.4187 746.50247,475.84464 C 746.6465,475.62711 746.86967,475.55609 746.94888,475.55609 C 747.17209,475.55609 747.2513,475.68905 747.2513,475.9277 C 747.2513,476.14373 747.2513,476.37184 747.17209,476.74345 L 746.12809,488.91302 C 746.12809,489.28614 745.83289,489.66076 745.30727,489.90096" />
  </g>
</svg>
