<?xml version="1.0" encoding="UTF-8" standalone="no"?>
<!-- Created with Inkscape (http://www.inkscape.org/) -->
<svg
   xmlns:dc="http://purl.org/dc/elements/1.1/"
   xmlns:cc="http://web.resource.org/cc/"
   xmlns:rdf="http://www.w3.org/1999/02/22-rdf-syntax-ns#"
   xmlns:svg="http://www.w3.org/2000/svg"
   xmlns="http://www.w3.org/2000/svg"
   xmlns:xlink="http://www.w3.org/1999/xlink"
   xmlns:sodipodi="http://sodipodi.sourceforge.net/DTD/sodipodi-0.dtd"
   xmlns:inkscape="http://www.inkscape.org/namespaces/inkscape"
   width="692"
   height="247"
   id="svg2"
   sodipodi:version="0.32"
   inkscape:version="0.45.1"
   version="1.0"
   inkscape:output_extension="org.inkscape.output.svg.inkscape">
  <g
     inkscape:label="Layer 1"
     inkscape:groupmode="layer"
     id="layer1"
     transform="translate(-94.299914,-273.90424)">
    <path
       id="path25454"
       d="M 701.3619,450.45829 C 698.7698,467.60059 692.83889,483.70399 683.74088,496.10249 C 676.28257,506.25169 666.23246,508.52599 662.13645,501.39549 C 659.25425,496.39649 658.92045,489.68299 661.31715,483.11629 C 664.05495,475.65749 668.99456,468.16289 672.98226,463.82229 C 672.98226,463.82229 684.82928,451.49719 703.207,438.15789 C 703.1586,438.32929 701.8258,447.35139 701.3619,450.45829 M 576.15444,338.54173 C 571.77604,346.48734 556.68872,373.69497 552.21191,379.96768 C 547.36071,386.77839 532.37999,404.91179 526.40028,402.97729 C 526.40028,402.97729 526.05888,383.14599 546.66241,359.73076 C 555.84372,349.28984 566.61673,341.03603 576.27674,336.94003 L 576.15444,338.54173 z M 780.7887,394.9586 C 760.58987,394.8853 736.06234,404.49519 718.02612,414.37499 C 718.14822,412.96869 720.17902,386.02009 720.39872,380.40808 C 720.49602,378.15818 718.99292,375.88168 717.26962,375.00347 C 712.35431,372.53357 707.48781,375.15028 706.27731,376.84988 C 700.8348,385.27469 694.65999,394.4932 692.09279,397.67319 C 686.81098,404.16379 670.73206,421.35569 664.89945,419.03149 C 664.89945,419.03149 665.79246,399.22449 687.77748,377.11668 C 697.8277,367.01906 708.69851,361.29646 718.67522,358.10575 C 724.10333,356.50385 729.61874,357.88535 732.16204,359.63346 C 733.32374,360.42876 735.07174,362.27336 735.74474,363.50806 C 737.54145,366.84806 737.61465,371.01517 735.62254,376.89888 C 734.85174,379.22208 735.16924,384.42959 738.16585,385.15239 C 742.23725,386.16709 745.81976,382.43758 746.81016,379.74738 C 747.44536,377.91388 748.16736,375.63948 748.60696,373.67067 C 750.11006,366.70146 749.74436,359.94966 747.37206,354.20505 C 743.47215,344.78984 735.76914,342.34433 727.88133,342.02643 C 724.17673,342.02643 716.59642,343.35934 715.21502,343.72504 C 697.9987,347.81014 686.42018,357.30935 686.42018,357.30935 C 674.31497,365.88126 660.55975,383.00018 654.27174,399.97179 C 650.10464,401.45139 646.52203,402.80819 645.55513,403.43189 C 645.55513,403.43189 658.67585,364.57346 659.32475,360.72226 C 659.88645,357.50425 663.17615,352.70095 657.14785,344.52074 C 651.89314,337.35563 640.17602,346.26774 640.17602,346.26774 C 633.30342,351.66185 624.0487,360.64876 613.15389,375.12588 C 613.15389,375.12588 614.68179,367.21297 614.68179,367.21297 C 615.57489,362.34626 615.50209,356.57725 610.95239,353.60465 C 604.99738,349.70514 599.91127,360.02296 599.91127,360.02296 C 596.52237,365.97796 581.60665,398.93269 581.60665,398.93269 C 580.80105,393.2828 583.88145,378.61038 583.88145,378.61038 C 584.92125,373.50957 589.64126,351.73525 590.32456,346.99064 C 590.99836,342.34433 588.79676,337.11103 585.36035,334.66552 C 588.96746,333.45502 592.64816,331.18092 592.64816,326.96251 C 592.64816,318.709 582.18255,320.48051 582.18255,320.48051 C 559.97792,323.91761 544.0705,340.02013 544.0705,340.02013 C 529.76379,351.56405 513.68506,376.36088 512.25496,396.8271 C 510.82436,417.28579 533.87319,428.17999 548.19031,413.31139 C 556.39552,404.78939 562.86313,393.0738 566.95813,386.36279 C 560.90192,413.53189 565.04013,430.47839 577.85335,427.57839 C 583.10005,426.39229 588.69936,418.17789 593.49257,408.88559 C 594.58107,410.96409 592.95536,411.88059 598.96777,415.80579 C 603.78688,418.95819 608.82048,409.28829 608.82048,409.28829 C 611.14759,403.33379 621.7009,380.43258 638.19422,370.47967 C 638.19422,370.47967 626.73841,406.89179 626.49441,408.61659 C 626.49441,408.61659 622.018,421.42809 625.1859,425.46509 C 629.42801,430.84589 637.24212,425.63659 637.24212,425.63659 C 637.24212,425.63659 643.85633,421.38009 651.09544,417.85949 C 652.89194,434.55089 672.28466,443.19559 686.01588,430.69899 C 695.45559,422.10329 705.21291,406.96509 705.21291,406.96509 C 704.8222,411.13539 703.9535,421.11299 703.7341,422.68749 C 683.54588,435.49179 671.94276,447.02289 671.94276,447.02289 C 661.14575,457.15759 648.86963,472.88339 647.34163,492.56909 C 646.64413,501.71399 649.37934,510.65279 653.83394,515.83769 C 658.16305,520.87549 665.28956,521.49789 670.90346,520.50789 C 683.59438,518.28309 694.94359,506.33539 702.2379,490.30539 C 706.03281,481.97929 708.89341,472.44239 710.99691,463.12609 C 712.72051,455.49619 714.07752,447.54739 715.16592,439.80769 C 715.65382,436.45719 716.25422,432.17879 716.66972,428.83769 C 733.90984,418.27579 753.79077,408.81229 779.6735,405.77919 C 784.94711,405.20489 785.94081,402.71069 786.25521,400.16759 C 786.59721,397.64869 784.99591,395.1055 780.7887,394.9586 M 309.48941,382.15418 C 308.01081,411.70919 292.54229,421.83379 292.54229,421.83379 C 289.82778,417.95739 280.48617,397.23259 293.14279,355.87995 C 296.07599,346.29204 299.342,338.07713 302.6175,331.13202 C 307.45941,339.85003 310.67531,358.39865 309.48941,382.15418 M 275.85378,356.19595 C 274.01807,349.65614 270.67967,343.50594 263.67456,339.55653 C 274.50687,325.63981 282.51597,322.09621 288.59278,322.43831 C 283.57958,332.68332 278.85997,344.30094 275.85378,356.19595 M 267.02377,385.10339 C 266.82806,396.7059 258.92956,409.45949 254.55195,414.88929 C 250.13904,420.28039 246.20114,419.16779 246.20114,419.16779 C 241.31033,407.08769 241.16333,376.33638 256.58155,349.97264 C 267.28227,354.62045 267.18487,374.95447 267.02377,385.10339 M 443.95208,366.89706 C 458.8836,327.93892 472.30661,331.47282 473.72741,334.71452 C 474.84002,337.15993 468.43131,360.64876 441.09157,375.24828 C 441.86277,372.65597 442.81498,369.87787 443.95208,366.89706 M 593.07766,292.02817 C 595.30957,291.78427 596.83147,292.32107 597.56347,292.75077 C 598.70087,293.45817 610.65949,295.44047 610.90359,284.25266 C 611.17199,273.06465 595.57197,273.91925 595.57197,273.91925 C 588.74786,274.15285 542.5419,276.91605 509.06226,345.20364 C 510.41936,337.13543 511.31266,327.13381 511.81526,318.2689 C 511.81526,318.2689 512.74276,306.65279 506.25086,306.09059 C 497.89925,305.36889 497.72834,317.0828 497.72834,317.0828 C 496.88364,332.07372 494.59944,346.14644 490.82104,366.62806 C 482.46963,385.47009 467.24511,411.92949 448.45258,409.85159 C 448.45258,409.85159 439.24647,407.96609 438.37767,394.0661 C 446.47078,390.57979 455.27639,385.92209 461.6709,380.21258 C 461.6709,380.21258 487.99503,360.20856 492.05594,330.09212 C 492.05594,330.09212 492.64234,323.30661 486.76043,317.4008 C 480.85382,311.4948 453.07529,315.2484 437.55767,342.68483 C 432.78856,351.08604 426.73636,366.82356 424.59795,382.00818 C 422.27485,382.70698 419.80495,383.34029 417.26154,383.91739 C 417.16394,381.64298 418.78965,375.46828 419.03355,374.45337 C 419.32655,373.24277 424.57375,359.92526 425.37915,358.25235 C 426.17486,356.55275 427.38526,351.68625 421.77205,344.56974 C 416.17334,337.42873 407.62653,341.73343 407.62653,341.73343 C 399.44522,344.93574 391.19131,353.26355 383.9671,362.53146 C 387.69631,346.41404 390.55641,332.12262 390.84941,328.03682 C 391.47441,319.46531 388.55031,318.8313 386.1783,317.0198 C 383.7816,315.1996 378.25589,312.2409 375.23479,314.0867 C 372.69169,315.6383 361.72387,323.79571 349.08096,342.19753 C 348.16406,321.27681 340.14385,292.72627 329.97123,287.08836 C 319.51552,281.28006 315.29872,281.03536 309.51371,287.95757 C 307.28831,290.64697 301.5046,298.77868 295.18319,309.96659 C 280.02157,304.15839 261.05886,311.15269 243.33954,336.58343 C 229.19332,339.97183 214.6907,353.89665 208.36958,374.69567 C 208.36958,374.69567 206.46218,382.65798 211.08379,385.37239 C 215.706,388.08559 219.15461,381.52098 219.15461,381.52098 C 221.57551,375.46828 225.06001,369.19587 229.19332,363.79106 C 216.5378,400.19199 231.59092,428.57169 249.90604,430.45389 C 249.90604,430.45389 260.43326,432.42239 266.70586,424.79339 C 269.02927,421.95629 272.58747,416.44029 274.64317,409.26379 C 277.23468,420.69679 282.54027,431.11509 293.19159,432.94839 C 298.08249,433.75309 306.1267,434.59979 312.68201,423.72919 C 318.25612,414.54639 332.01184,388.30479 321.76562,346.38964 C 319.05232,335.32413 314.50241,326.19221 308.67001,319.60171 C 317.21682,304.95349 324.50413,298.85198 324.50413,298.85198 C 338.93295,325.75201 331.76724,386.65629 328.80973,410.14469 C 327.76973,418.52069 326.24203,438.35379 334.65294,440.70119 C 339.89975,442.15629 343.43375,434.77109 345.83045,424.57319 L 345.90375,424.57319 C 345.92795,424.32819 345.95235,424.10759 346.00105,423.87349 C 347.48006,417.40809 348.49546,409.90049 349.22796,402.92879 C 357.50607,346.12234 377.55819,334.34772 377.55819,334.34772 C 377.24039,342.80703 363.19288,391.1559 362.64098,393.3808 C 362.07987,395.6165 361.03987,404.13979 364.69588,407.30819 C 369.53848,411.50049 374.16069,406.91609 378.08559,399.45749 C 381.9124,392.1213 399.66472,366.50566 406.83083,364.08466 C 406.83083,364.08466 399.49412,383.81949 398.03942,387.59779 C 396.61002,391.3516 398.42992,395.5436 399.07992,396.5603 C 399.76262,397.57539 402.88143,403.79899 410.68194,403.28479 C 414.02054,403.05079 419.32655,401.37809 424.29085,399.50649 C 424.91535,403.96999 426.17486,408.00439 428.30286,411.37969 C 437.60657,426.19909 461.9395,433.75309 485.15923,403.48089 C 483.80223,412.17459 482.68933,418.59419 481.62552,425.71009 C 480.56112,432.85039 479.47272,448.53749 485.89113,448.56179 C 497.02024,448.58629 496.07824,436.99629 500.00315,417.50589 C 525.32628,298.56898 589.29926,292.45727 593.07766,292.02817 M 179.34215,475.49999 C 173.41244,469.12949 170.40343,454.57919 169.02163,438.01069 C 171.71174,440.03969 175.24524,442.68099 177.04374,443.91599 C 180.23415,446.09199 181.86105,444.52849 181.86105,444.52849 C 197.54807,410.38699 207.20768,407.28379 207.20768,407.28379 C 202.97777,466.14519 179.34215,475.49999 179.34215,475.49999 M 216.4399,392.9531 C 207.57458,387.54889 202.95327,386.36279 199.32187,388.85719 C 199.32187,388.85719 205.94838,355.31775 206.75598,344.59424 C 207.55018,333.86982 210.60779,301.71298 193.14716,287.47906 C 175.66174,273.26015 153.33461,281.80716 134.68779,299.73078 C 117.98617,315.785 98.226945,353.50755 94.742545,391.3761 C 92.699045,413.58089 98.153345,434.08539 102.47085,445.76349 C 102.47085,445.76349 105.51405,453.09969 110.94396,451.76679 C 115.24666,450.70329 112.58076,442.30199 112.58076,442.30199 C 99.902955,393.8705 120.16197,355.48885 131.84019,333.77282 C 142.5874,313.7449 176.20054,291.51577 186.67835,299.89128 C 197.15887,308.25309 186.87435,363.72756 184.30645,372.36217 C 182.43595,378.68388 173.11834,409.60659 168.30103,425.61209 C 167.33553,400.09419 169.26633,373.41167 169.90343,365.66216 C 169.90343,365.66216 171.63834,351.93055 162.07732,349.70514 C 147.50281,346.34074 148.07631,354.13175 150.81571,355.53785 C 151.78111,356.02585 151.57501,360.08616 151.57501,360.08616 C 151.13411,370.96627 149.16491,426.36779 153.33461,445.68999 C 157.98042,467.13519 168.00693,487.31089 180.45455,491.35869 C 192.87756,495.39229 207.28098,485.43909 217.2585,452.60969 C 227.26052,419.78019 225.30491,398.36949 216.4399,392.9531"
       style="fill:#2056ae;fill-rule:nonzero;stroke:none" />
  </g>
</svg>
