<?xml version="1.0" encoding="UTF-8" ?>
<!DOCTYPE svg PUBLIC "-//W3C//DTD SVG 1.1//EN" "http://www.w3.org/Graphics/SVG/1.1/DTD/svg11.dtd">
<svg width="1000pt" height="374pt" viewBox="0 0 1000 374" version="1.1" xmlns="http://www.w3.org/2000/svg">
<g id="#ffffffff">
<path fill="#ffffff" opacity="1.00" d=" M 0.00 0.00 L 156.36 0.00 C 132.88 0.56 109.37 2.18 86.21 6.21 C 66.55 9.72 46.75 14.41 29.00 23.84 C 18.11 29.78 7.45 38.23 3.47 50.44 C 1.10 56.54 0.77 63.10 0.00 69.53 L 0.00 0.00 Z" />
</g>
<g id="#b4ca8bff">
<path fill="#b4ca8b" opacity="1.00" d=" M 156.36 0.00 L 170.63 0.00 C 187.90 0.57 205.04 2.86 222.20 4.69 C 233.16 6.21 244.19 7.40 255.02 9.76 C 275.13 14.40 295.10 19.81 314.59 26.65 C 329.33 32.00 344.31 37.58 357.09 46.88 C 364.92 52.78 372.27 60.32 375.02 69.98 C 376.45 74.83 375.72 79.99 373.85 84.61 C 368.12 94.62 356.40 98.01 346.17 101.43 C 326.16 108.27 305.08 111.62 285.37 119.37 C 279.91 121.74 273.95 124.43 270.78 129.75 C 268.17 134.55 270.34 140.17 273.11 144.37 C 278.81 152.51 286.91 158.52 294.91 164.23 C 314.08 177.30 334.54 188.32 354.08 200.81 C 362.53 206.17 371.15 211.23 379.66 216.49 C 392.41 224.33 404.75 232.95 415.87 243.01 C 420.24 247.05 424.37 251.38 427.95 256.15 C 434.15 264.26 438.58 274.22 437.97 284.62 C 436.66 293.34 432.58 301.98 425.28 307.23 C 413.54 316.04 398.26 317.71 384.03 318.05 C 357.22 318.25 330.78 312.73 304.87 306.34 C 286.93 301.77 269.17 296.46 251.69 290.32 C 232.30 283.57 213.61 274.95 195.27 265.75 C 165.91 250.66 137.52 233.64 110.77 214.28 C 92.47 201.17 74.97 186.90 58.74 171.28 C 42.95 155.89 28.22 139.16 16.88 120.17 C 7.77 104.84 0.97 87.70 0.00 69.74 L 0.00 69.53 C 0.77 63.10 1.10 56.54 3.47 50.44 C 7.45 38.23 18.11 29.78 29.00 23.84 C 46.75 14.41 66.55 9.72 86.21 6.21 C 109.37 2.18 132.88 0.56 156.36 0.00 M 134.54 6.80 C 110.48 8.11 86.41 10.99 63.02 16.92 C 49.47 20.66 35.86 25.19 24.18 33.20 C 16.97 38.11 10.73 45.06 8.49 53.66 C 3.98 69.30 8.11 85.95 14.61 100.41 C 22.82 118.65 35.06 134.77 48.44 149.53 C 66.80 169.61 87.69 187.23 109.57 203.34 C 142.40 227.37 177.54 248.22 214.35 265.54 C 248.01 281.54 283.93 292.28 320.17 300.64 C 342.42 305.40 365.11 309.42 387.96 308.50 C 398.38 307.80 409.40 306.31 418.16 300.15 C 426.49 294.47 430.27 283.29 427.53 273.64 C 424.59 263.23 417.20 254.84 409.50 247.57 C 395.85 235.12 380.21 225.12 364.37 215.72 C 351.02 207.75 338.07 199.14 324.61 191.36 C 309.62 182.20 294.15 173.67 280.35 162.73 C 273.24 156.88 266.13 150.42 262.24 141.91 C 259.33 135.76 259.44 128.01 263.55 122.42 C 267.76 116.71 274.29 113.35 280.67 110.63 C 300.22 102.93 321.06 99.40 340.96 92.84 C 348.26 90.27 356.24 88.43 362.22 83.24 C 367.03 79.16 367.53 71.90 364.50 66.60 C 357.57 53.73 344.09 46.43 331.25 40.64 C 305.45 29.48 278.26 21.89 250.91 15.60 C 229.43 11.51 207.63 9.50 185.90 7.28 C 168.83 5.66 151.64 5.82 134.54 6.80 Z" />
<path fill="#b4ca8b" opacity="1.00" d=" M 189.26 31.34 C 196.68 30.55 203.97 32.82 211.02 34.84 C 228.79 40.13 246.51 45.82 263.36 53.62 C 269.23 56.42 275.75 60.24 277.41 67.03 C 278.92 73.58 274.57 79.72 269.61 83.52 C 263.71 87.85 257.22 91.32 250.96 95.09 C 242.24 100.39 232.71 105.14 226.26 113.31 C 222.72 117.72 222.47 123.62 222.64 129.03 C 222.96 137.38 226.02 145.45 230.61 152.37 C 237.13 162.31 246.15 170.22 255.13 177.87 C 267.60 188.62 282.21 196.57 294.55 207.49 C 299.98 212.48 305.62 218.02 307.60 225.36 C 309.43 231.82 305.42 238.75 299.55 241.50 C 292.56 244.81 284.51 244.41 277.05 243.37 C 257.10 240.20 238.25 232.42 220.02 224.00 C 209.95 219.07 199.38 214.62 190.86 207.15 C 184.74 201.78 183.51 193.31 181.18 185.94 C 173.15 156.03 167.10 125.05 169.21 93.94 C 170.41 75.68 173.42 57.43 179.25 40.05 C 180.60 35.53 184.70 32.23 189.26 31.34 M 186.64 48.94 C 177.98 79.00 175.75 111.02 180.87 141.92 C 183.63 159.90 187.66 177.72 193.12 195.08 C 194.11 198.58 195.94 201.92 198.96 204.06 C 208.13 211.13 218.92 215.60 229.31 220.55 C 245.58 227.65 262.25 234.48 279.89 237.26 C 286.30 238.07 293.32 238.68 299.18 235.40 C 300.76 233.69 302.39 231.54 301.64 229.05 C 300.13 223.45 295.63 219.37 291.54 215.55 C 279.50 204.59 265.02 196.83 252.71 186.22 C 239.58 175.34 226.35 163.24 219.84 147.09 C 218.43 144.10 218.27 140.68 216.71 137.77 C 214.96 127.01 216.29 114.44 224.63 106.57 C 237.13 94.37 254.09 88.37 267.72 77.71 C 269.97 75.57 272.71 72.29 270.88 69.06 C 268.23 64.86 263.18 63.27 259.01 61.04 C 245.34 55.06 231.19 50.27 216.96 45.83 C 209.10 43.72 201.35 40.58 193.10 40.52 C 188.50 40.50 187.68 45.53 186.64 48.94 Z" />
</g>
<g id="#60a9d6ff">
<path fill="#60a9d6" opacity="1.00" d=" M 134.54 6.80 C 151.64 5.82 168.83 5.66 185.90 7.28 C 207.63 9.50 229.43 11.51 250.91 15.60 C 278.26 21.89 305.45 29.48 331.25 40.64 C 344.09 46.43 357.57 53.73 364.50 66.60 C 367.53 71.90 367.03 79.16 362.22 83.24 C 356.24 88.43 348.26 90.27 340.96 92.84 C 321.06 99.40 300.22 102.93 280.67 110.63 C 274.29 113.35 267.76 116.71 263.55 122.42 C 259.44 128.01 259.33 135.76 262.24 141.91 C 266.13 150.42 273.24 156.88 280.35 162.73 C 294.15 173.67 309.62 182.20 324.61 191.36 C 338.07 199.14 351.02 207.75 364.37 215.72 C 380.21 225.12 395.85 235.12 409.50 247.57 C 417.20 254.84 424.59 263.23 427.53 273.64 C 430.27 283.29 426.49 294.47 418.16 300.15 C 409.40 306.31 398.38 307.80 387.96 308.50 C 365.11 309.42 342.42 305.40 320.17 300.64 C 283.93 292.28 248.01 281.54 214.35 265.54 C 177.54 248.22 142.40 227.37 109.57 203.34 C 87.69 187.23 66.80 169.61 48.44 149.53 C 35.06 134.77 22.82 118.65 14.61 100.41 C 8.11 85.95 3.98 69.30 8.49 53.66 C 10.73 45.06 16.97 38.11 24.18 33.20 C 35.86 25.19 49.47 20.66 63.02 16.92 C 86.41 10.99 110.48 8.11 134.54 6.80 M 189.26 31.34 C 184.70 32.23 180.60 35.53 179.25 40.05 C 173.42 57.43 170.41 75.68 169.21 93.94 C 167.10 125.05 173.15 156.03 181.18 185.94 C 183.51 193.31 184.74 201.78 190.86 207.15 C 199.38 214.62 209.95 219.07 220.02 224.00 C 238.25 232.42 257.10 240.20 277.05 243.37 C 284.51 244.41 292.56 244.81 299.55 241.50 C 305.42 238.75 309.43 231.82 307.60 225.36 C 305.62 218.02 299.98 212.48 294.55 207.49 C 282.21 196.57 267.60 188.62 255.13 177.87 C 246.15 170.22 237.13 162.31 230.61 152.37 C 226.02 145.45 222.96 137.38 222.64 129.03 C 222.47 123.62 222.72 117.72 226.26 113.31 C 232.71 105.14 242.24 100.39 250.96 95.09 C 257.22 91.32 263.71 87.85 269.61 83.52 C 274.57 79.72 278.92 73.58 277.41 67.03 C 275.75 60.24 269.23 56.42 263.36 53.62 C 246.51 45.82 228.79 40.13 211.02 34.84 C 203.97 32.82 196.68 30.55 189.26 31.34 Z" />
<path fill="#60a9d6" opacity="1.00" d=" M 480.59 285.96 C 484.42 279.81 489.27 274.38 493.91 268.85 C 494.78 275.66 495.85 282.52 495.52 289.42 C 502.61 291.09 509.86 292.06 516.86 294.17 C 510.88 298.09 504.05 300.43 497.49 303.16 C 497.06 303.34 496.20 303.71 495.77 303.89 C 496.18 307.28 496.59 310.67 497.01 314.06 C 497.56 318.73 498.27 323.37 498.73 328.04 C 492.58 322.56 486.38 317.03 481.43 310.38 C 474.67 312.66 468.01 315.20 461.32 317.69 C 462.92 314.51 464.51 311.33 466.20 308.20 C 467.99 304.84 469.96 301.59 471.98 298.36 C 471.35 297.38 470.74 296.40 470.13 295.41 C 467.21 290.58 464.23 285.77 461.26 280.97 C 467.95 281.51 474.19 284.17 480.59 285.96 Z" />
<path fill="#60a9d6" opacity="1.00" d=" M 574.77 302.54 C 578.55 305.42 582.03 308.69 585.29 312.14 C 589.03 310.24 592.54 307.91 596.29 306.00 C 595.09 310.06 593.80 314.11 591.99 317.94 C 592.16 318.16 592.49 318.59 592.66 318.81 C 593.65 320.08 594.67 321.33 595.73 322.56 C 597.13 324.15 598.52 325.75 599.85 327.42 C 595.93 327.44 592.05 326.86 588.21 326.18 C 586.52 330.84 584.41 335.33 582.45 339.88 C 580.69 335.35 579.98 330.48 579.27 325.69 C 574.95 325.38 570.60 325.43 566.31 324.86 C 567.36 324.01 568.42 323.16 569.54 322.39 C 572.20 320.54 575.01 318.91 577.77 317.22 C 576.75 312.33 575.64 307.46 574.77 302.54 Z" />
<path fill="#60a9d6" opacity="1.00" d=" M 675.93 320.75 C 678.37 322.80 680.73 324.95 683.01 327.20 C 685.34 325.85 687.67 324.48 690.03 323.15 C 689.26 325.84 688.40 328.50 687.38 331.11 C 689.06 333.12 690.75 335.12 692.42 337.16 C 689.91 336.96 687.41 336.73 684.92 336.46 C 684.03 338.05 683.14 339.65 682.23 341.22 C 682.00 341.61 681.55 342.37 681.32 342.75 L 680.41 342.17 C 679.79 340.14 679.29 338.09 678.82 336.03 C 676.07 335.92 673.33 335.79 670.60 335.60 C 672.86 333.72 675.31 332.08 677.89 330.66 C 677.26 327.35 676.58 324.05 675.93 320.75 Z" />
<path fill="#60a9d6" opacity="1.00" d=" M 537.49 324.55 C 541.49 329.51 544.96 334.88 548.32 340.29 C 553.72 338.24 558.93 335.69 564.49 334.06 C 563.11 336.68 561.67 339.28 560.08 341.79 C 558.37 344.44 556.59 347.05 554.85 349.69 C 556.81 351.85 558.75 354.03 560.68 356.23 C 562.98 358.83 565.28 361.43 567.54 364.06 C 561.03 363.20 554.49 362.30 548.24 360.21 C 545.26 364.93 541.56 369.16 538.76 374.00 L 538.34 374.00 C 538.02 368.24 537.08 362.53 537.03 356.75 C 532.20 354.32 527.17 352.32 522.32 349.94 C 526.95 347.59 532.01 346.30 536.97 344.81 C 536.93 342.97 536.90 341.13 536.91 339.30 C 536.96 334.37 537.15 329.45 537.49 324.55 Z" />
<path fill="#60a9d6" opacity="1.00" d=" M 637.55 338.92 C 639.53 340.60 641.54 342.27 643.44 344.06 C 644.43 345.05 645.39 346.08 646.36 347.11 C 650.14 346.21 653.76 344.78 657.46 343.63 C 656.79 345.09 656.13 346.56 655.40 347.99 C 654.41 349.79 653.29 351.51 652.22 353.25 C 654.76 356.23 657.14 359.34 659.27 362.63 C 655.59 362.32 651.94 361.85 648.33 361.19 C 646.71 364.90 645.03 368.59 643.05 372.13 C 641.88 367.95 641.17 363.67 640.67 359.36 C 636.05 358.35 631.40 357.51 626.76 356.62 C 630.58 354.20 634.81 352.57 638.91 350.71 L 638.88 350.09 C 638.69 348.09 638.43 346.11 638.18 344.12 C 637.95 342.38 637.74 340.65 637.55 338.92 Z" />
</g>
<g id="#00538eff">
<path fill="#00538e" opacity="1.00" d=" M 186.64 48.94 C 187.68 45.53 188.50 40.50 193.10 40.52 C 201.35 40.58 209.10 43.72 216.96 45.83 C 231.19 50.27 245.34 55.06 259.01 61.04 C 263.18 63.27 268.23 64.86 270.88 69.06 C 272.71 72.29 269.97 75.57 267.72 77.71 C 261.43 73.83 254.70 70.72 247.89 67.86 C 228.17 59.54 207.81 52.44 186.64 48.94 Z" />
<path fill="#00538e" opacity="1.00" d=" M 471.32 61.23 C 475.25 59.01 480.31 59.66 484.05 61.98 C 489.79 65.48 493.55 71.26 497.23 76.72 C 498.99 79.63 502.23 81.07 504.59 83.41 C 510.78 89.18 514.09 97.21 516.97 104.99 C 522.87 120.58 524.16 137.49 523.83 154.02 C 523.27 171.61 521.05 189.36 515.01 205.97 C 510.75 217.85 503.50 228.77 493.56 236.64 C 483.34 244.51 468.36 245.38 457.31 238.73 C 450.52 234.89 445.99 228.22 442.71 221.33 C 440.00 233.70 435.53 245.89 427.95 256.15 C 424.37 251.38 420.24 247.05 415.87 243.01 C 423.71 229.28 427.46 213.64 429.65 198.10 C 432.20 177.21 433.90 155.06 425.61 135.17 C 423.12 129.44 419.48 122.93 412.86 121.50 C 408.88 120.31 405.48 123.21 402.89 125.82 C 397.55 131.62 394.11 138.86 391.21 146.11 C 382.59 168.46 378.61 192.56 379.66 216.49 C 371.15 211.23 362.53 206.17 354.08 200.81 C 354.18 185.45 357.10 170.28 361.35 155.56 C 365.20 139.24 370.83 123.12 380.08 109.03 C 384.33 102.79 389.18 96.71 395.62 92.61 C 399.87 90.20 405.35 91.09 409.22 93.85 C 414.52 97.54 418.13 103.05 421.61 108.36 C 423.40 111.24 426.54 112.78 428.86 115.15 C 432.41 118.49 434.80 122.79 437.07 127.05 C 440.62 110.03 446.16 93.21 455.48 78.44 C 459.73 71.88 464.67 65.50 471.32 61.23 M 484.23 90.23 C 480.95 91.81 478.47 94.61 476.32 97.47 C 471.86 103.52 468.92 110.52 466.34 117.54 C 457.56 142.57 454.30 169.63 457.59 195.99 C 458.92 204.46 460.69 213.71 467.08 219.96 C 470.37 223.30 475.37 225.80 480.06 223.92 C 487.22 221.32 491.54 214.43 494.93 208.00 C 502.85 191.86 506.02 173.84 507.41 156.05 C 508.65 140.67 508.78 124.81 504.03 109.96 C 502.10 104.10 499.69 98.14 495.30 93.66 C 492.48 90.85 488.20 88.97 484.23 90.23 Z" />
<path fill="#00538e" opacity="1.00" d=" M 0.00 69.74 C 0.97 87.70 7.77 104.84 16.88 120.17 C 28.22 139.16 42.95 155.89 58.74 171.28 C 74.97 186.90 92.47 201.17 110.77 214.28 C 137.52 233.64 165.91 250.66 195.27 265.75 C 213.61 274.95 232.30 283.57 251.69 290.32 C 269.17 296.46 286.93 301.77 304.87 306.34 C 330.78 312.73 357.22 318.25 384.03 318.05 C 398.26 317.71 413.54 316.04 425.28 307.23 C 432.58 301.98 436.66 293.34 437.97 284.62 C 437.54 290.42 437.14 296.23 436.92 302.05 C 436.68 306.74 436.81 311.58 435.06 316.02 C 432.80 322.16 428.18 327.18 422.79 330.75 C 411.59 337.89 398.03 339.99 385.00 340.67 C 356.23 341.65 327.70 336.12 299.93 329.10 C 277.15 322.96 254.40 316.13 233.05 305.96 C 209.34 293.79 185.27 282.27 162.32 268.69 C 143.08 256.86 124.31 244.24 106.16 230.79 C 78.72 210.32 52.40 187.84 30.96 161.00 C 19.80 146.76 9.96 131.17 4.31 113.89 C 3.22 110.83 3.14 107.47 1.58 104.57 C 0.29 100.45 1.63 95.90 0.00 91.85 L 0.00 69.74 Z" />
<path fill="#00538e" opacity="1.00" d=" M 346.17 101.43 C 356.40 98.01 368.12 94.62 373.85 84.61 C 373.14 89.36 373.33 94.47 370.82 98.76 C 367.69 104.94 361.46 108.68 355.26 111.21 C 333.95 119.96 310.68 122.64 289.47 131.63 C 283.06 134.38 276.72 138.19 273.11 144.37 C 270.34 140.17 268.17 134.55 270.78 129.75 C 273.95 124.43 279.91 121.74 285.37 119.37 C 305.08 111.62 326.16 108.27 346.17 101.43 Z" />
<path fill="#00538e" opacity="1.00" d=" M 551.99 92.57 C 557.47 92.64 563.26 90.05 568.52 92.52 C 571.64 94.07 571.48 98.02 571.24 100.98 C 569.99 112.65 567.89 124.22 566.74 135.90 C 564.38 161.31 563.05 186.83 563.37 212.35 C 570.45 190.50 577.54 168.65 584.72 146.83 C 587.60 137.78 590.92 128.83 592.72 119.49 C 593.46 116.35 594.79 112.29 598.47 111.71 C 603.95 110.95 609.51 111.06 615.03 110.72 C 618.68 110.51 622.73 110.93 625.61 113.41 C 628.07 115.55 627.34 119.20 626.88 122.04 C 620.35 146.62 616.12 171.75 612.33 196.88 C 609.12 221.10 605.15 245.55 607.56 270.03 C 607.74 273.95 603.96 276.20 600.96 277.84 C 596.68 279.97 592.94 284.19 587.78 283.71 C 583.57 282.71 583.06 277.54 582.70 274.00 C 582.51 265.98 583.77 258.01 584.27 250.02 C 586.93 223.31 589.31 196.52 593.59 170.01 C 584.49 195.95 576.63 222.32 568.36 248.53 C 567.43 251.36 565.34 254.71 561.93 254.43 C 556.76 254.34 552.44 251.13 547.85 249.18 C 543.38 246.58 543.40 240.61 542.83 236.09 C 541.17 219.11 541.42 202.03 542.21 185.01 C 542.32 179.27 543.06 173.52 542.54 167.79 C 538.82 192.91 533.06 217.71 529.54 242.87 C 528.99 246.39 528.74 250.01 527.52 253.38 C 526.78 255.62 524.36 257.15 522.02 256.60 C 519.59 255.87 517.60 253.86 516.53 251.62 C 515.20 245.86 516.22 239.91 516.87 234.12 C 522.33 193.17 531.12 152.76 537.81 112.01 C 538.81 106.35 538.14 99.77 542.12 95.12 C 544.51 92.19 548.60 92.55 551.99 92.57 Z" />
<path fill="#00538e" opacity="1.00" d=" M 699.72 113.98 C 699.76 111.43 701.16 108.44 703.96 108.07 C 709.13 107.08 714.14 109.34 719.15 110.29 C 730.01 112.43 739.93 117.73 749.09 123.78 C 760.64 131.65 771.74 141.35 777.60 154.32 C 782.10 164.85 783.61 178.04 776.99 188.01 C 770.06 199.05 757.60 204.55 745.82 208.84 C 747.86 223.49 747.31 238.32 748.42 253.04 C 749.50 260.50 749.28 269.30 755.14 274.91 C 757.99 277.60 761.57 274.68 762.86 271.88 C 771.83 256.66 776.01 239.25 780.62 222.36 C 787.22 193.72 791.79 164.65 798.46 136.03 C 799.00 133.06 802.13 131.79 804.78 131.29 C 810.11 130.41 815.61 130.48 820.95 131.28 C 823.67 131.75 825.10 134.53 825.33 137.06 C 827.72 160.57 834.22 183.36 840.19 206.14 C 843.85 219.17 847.57 232.29 853.59 244.46 C 855.13 247.69 858.97 249.97 858.66 253.92 C 858.26 256.74 855.30 257.85 853.10 259.02 C 849.85 260.51 847.06 262.78 843.96 264.50 C 840.19 265.73 837.26 262.28 835.38 259.53 C 830.20 251.58 827.68 242.31 824.09 233.61 C 817.60 233.86 811.26 235.35 804.85 236.27 C 800.56 237.08 796.19 237.66 792.07 239.13 C 789.84 239.61 789.71 242.17 788.96 243.89 C 784.99 254.72 781.19 265.68 775.89 275.96 C 772.71 282.04 768.50 287.86 762.61 291.55 C 753.65 297.18 740.49 293.68 735.04 284.78 C 730.12 276.21 728.86 266.17 727.72 256.52 C 726.09 242.13 727.31 227.45 724.14 213.25 C 721.59 213.57 719.03 213.87 716.49 214.16 C 715.91 223.79 715.16 233.40 714.74 243.03 C 714.88 246.87 711.22 249.57 707.84 250.38 C 703.89 251.28 699.96 252.40 695.91 252.72 C 692.01 252.78 690.14 248.39 690.38 245.03 C 691.65 217.96 694.54 191.00 696.97 164.02 C 698.24 147.37 700.95 130.70 699.72 113.98 M 722.10 138.55 C 721.50 159.37 718.63 180.05 717.49 200.83 C 731.59 198.62 745.85 194.96 757.76 186.77 C 761.79 183.97 765.93 180.14 766.32 174.93 C 767.01 168.72 762.54 163.67 758.49 159.56 C 748.39 149.70 735.87 141.98 722.10 138.55 M 794.77 220.82 C 802.75 219.58 810.81 218.96 818.87 218.37 C 814.05 202.00 810.33 185.34 806.62 168.70 C 801.48 185.75 798.21 203.35 794.77 220.82 Z" />
<path fill="#00538e" opacity="1.00" d=" M 216.71 137.77 C 218.27 140.68 218.43 144.10 219.84 147.09 C 226.35 163.24 239.58 175.34 252.71 186.22 C 265.02 196.83 279.50 204.59 291.54 215.55 C 295.63 219.37 300.13 223.45 301.64 229.05 C 302.39 231.54 300.76 233.69 299.18 235.40 C 293.39 229.92 287.12 224.96 280.52 220.49 C 264.57 209.79 248.38 199.05 235.07 185.05 C 228.04 177.56 221.78 168.98 218.82 159.03 C 216.64 152.15 217.33 144.85 216.71 137.77 Z" />
<path fill="#00538e" opacity="1.00" d=" M 861.75 151.54 C 862.67 147.26 861.75 141.49 866.06 138.82 C 870.84 137.75 875.78 139.09 880.56 139.67 C 883.88 140.33 888.33 140.59 889.86 144.21 C 891.58 148.96 890.24 154.10 890.51 159.02 C 890.99 187.00 892.01 215.09 896.30 242.78 C 901.68 220.12 906.45 197.28 913.15 174.95 C 914.37 170.99 915.53 166.99 917.24 163.20 C 918.13 160.92 920.41 159.11 922.90 159.11 C 925.78 159.85 928.06 162.89 927.55 165.89 C 922.41 188.69 916.46 211.34 912.73 234.44 C 910.68 246.22 908.91 258.05 907.57 269.94 C 907.18 272.52 905.90 275.46 903.20 276.29 C 895.39 278.10 885.68 275.77 881.77 268.18 C 878.27 261.33 876.98 253.62 875.44 246.15 C 872.44 225.78 870.87 205.23 869.45 184.70 C 867.16 192.71 865.27 200.83 863.23 208.90 C 861.30 216.35 861.05 224.19 858.42 231.45 C 857.78 233.31 854.64 234.78 853.51 232.60 C 850.74 227.95 848.55 222.52 848.82 217.03 C 852.05 195.00 857.68 173.42 861.75 151.54 Z" />
<path fill="#00538e" opacity="1.00" d=" M 632.08 145.19 C 651.50 141.19 671.45 138.19 691.30 140.55 C 693.99 142.71 694.90 146.45 693.33 149.58 C 692.23 152.49 688.93 153.33 686.16 153.61 C 673.31 154.90 660.58 157.88 648.46 162.25 C 646.86 165.56 647.32 169.39 647.12 172.96 C 647.59 194.34 645.73 215.67 644.93 237.02 C 655.24 234.57 665.32 230.71 675.96 229.95 C 678.88 229.96 682.76 229.48 684.51 232.42 C 686.70 236.20 683.64 240.33 680.82 242.75 C 667.82 245.07 656.29 251.71 644.03 256.23 C 643.73 262.77 643.42 269.31 643.50 275.85 C 664.01 268.61 684.92 262.51 705.95 256.97 C 708.94 256.27 711.92 255.34 715.03 255.26 C 717.55 255.32 720.36 257.31 720.13 260.08 C 719.48 263.46 718.24 267.66 714.49 268.70 C 688.96 276.46 664.11 286.32 639.02 295.37 C 632.31 296.24 628.54 289.63 624.14 285.83 C 620.33 282.78 620.42 277.47 620.61 273.05 C 622.71 237.74 625.33 202.42 625.51 167.03 C 625.67 161.41 623.41 155.65 625.26 150.15 C 626.23 147.21 629.32 145.91 632.08 145.19 Z" />
<path fill="#00538e" opacity="1.00" d=" M 954.86 160.61 C 964.98 157.80 974.61 162.99 984.11 165.67 C 987.43 166.66 990.54 168.79 992.05 171.99 C 996.37 181.20 999.20 192.23 994.92 201.99 C 993.71 204.47 990.44 204.57 988.11 204.02 C 982.94 202.57 978.11 198.93 976.31 193.74 C 973.79 187.29 975.28 179.61 971.29 173.70 C 969.29 171.07 965.62 172.92 963.67 174.64 C 957.75 179.92 954.50 187.43 951.72 194.70 C 945.24 213.02 942.36 233.34 947.38 252.37 C 948.60 257.78 952.35 263.09 958.05 264.27 C 963.26 265.54 968.16 262.21 971.47 258.49 C 975.85 253.42 979.26 247.56 982.12 241.51 C 972.88 239.40 964.07 235.87 955.12 232.85 C 950.65 231.26 949.59 224.89 952.68 221.49 C 966.67 221.29 980.20 225.30 994.00 226.90 C 998.23 227.75 999.15 232.84 1000.00 236.39 L 1000.00 244.13 C 996.82 251.96 991.62 258.78 986.29 265.26 C 980.56 271.70 973.13 278.33 963.95 278.02 C 953.77 277.03 943.70 272.82 936.44 265.53 C 927.78 256.17 922.81 243.64 921.89 230.98 C 920.88 214.91 924.61 198.74 931.12 184.09 C 935.66 173.67 944.00 164.48 954.86 160.61 Z" />
</g>
<g id="#f1e6b0ff">
<path fill="#f1e6b0" opacity="1.00" d=" M 449.98 287.88 C 456.60 290.65 463.21 293.47 470.13 295.41 C 470.74 296.40 471.35 297.38 471.98 298.36 C 469.96 301.59 467.99 304.84 466.20 308.20 C 461.45 307.12 456.70 306.06 451.99 304.85 C 451.90 299.13 451.17 293.47 449.98 287.88 Z" />
<path fill="#f1e6b0" opacity="1.00" d=" M 495.77 303.89 C 496.20 303.71 497.06 303.34 497.49 303.16 C 523.84 309.90 550.83 313.76 577.77 317.22 C 575.01 318.91 572.20 320.54 569.54 322.39 C 545.23 320.96 521.02 318.10 497.01 314.06 C 496.59 310.67 496.18 307.28 495.77 303.89 Z" />
<path fill="#f1e6b0" opacity="1.00" d=" M 592.66 318.81 C 601.15 319.23 609.61 320.30 618.12 320.40 C 610.89 322.51 603.19 322.18 595.73 322.56 C 594.67 321.33 593.65 320.08 592.66 318.81 Z" />
<path fill="#f1e6b0" opacity="1.00" d=" M 448.27 323.99 C 477.57 330.35 507.08 336.01 536.91 339.30 C 536.90 341.13 536.93 342.97 536.97 344.81 C 532.01 346.30 526.95 347.59 522.32 349.94 C 527.17 352.32 532.20 354.32 537.03 356.75 C 498.26 356.95 459.36 355.08 421.02 349.15 C 427.06 346.43 433.39 343.89 438.24 339.21 C 442.86 335.10 445.64 329.48 448.27 323.99 Z" />
<path fill="#f1e6b0" opacity="1.00" d=" M 682.23 341.22 C 697.32 340.50 712.20 337.53 727.23 336.23 C 703.46 341.08 679.49 345.12 655.40 347.99 C 656.13 346.56 656.79 345.09 657.46 343.63 C 653.76 344.78 650.14 346.21 646.36 347.11 C 645.39 346.08 644.43 345.05 643.44 344.06 C 651.30 343.39 659.19 343.23 667.06 342.59 C 671.50 342.43 675.96 341.42 680.41 342.17 L 681.32 342.75 C 681.55 342.37 682.00 341.61 682.23 341.22 Z" />
<path fill="#f1e6b0" opacity="1.00" d=" M 560.08 341.79 C 586.05 343.96 612.12 344.78 638.18 344.12 C 638.43 346.11 638.69 348.09 638.88 350.09 C 612.93 353.42 586.81 355.14 560.68 356.23 C 558.75 354.03 556.81 351.85 554.85 349.69 C 556.59 347.05 558.37 344.44 560.08 341.79 Z" />
</g>
</svg>
