<svg xmlns="http://www.w3.org/2000/svg" xmlns:xlink="http://www.w3.org/1999/xlink" viewBox="0 0 53.2 32.27"><defs><style>.cls-1{fill:none;}.cls-2{fill:#006b9e;}.cls-3{fill:#5bc5f2;}.cls-4{fill:#009ddf;}.cls-5{fill:#05171d;}.cls-6{clip-path:url(#clip-path);}.cls-7{fill:#fff;}</style><clipPath id="clip-path"><rect class="cls-1" width="53.19" height="32.27"/></clipPath></defs><g id="Calque_2" data-name="Calque 2"><g id="Calque_1-2" data-name="Calque 1"><polygon class="cls-2" points="49.88 29.09 32.8 30.59 49.88 30.59 49.88 29.09"/><polygon class="cls-2" points="32.24 11.05 10.21 11.05 10.21 30.59 13.54 30.59 11.98 12.83 32.24 11.05"/><polygon class="cls-3" points="13.54 30.59 13.68 32.27 32.8 30.59 13.54 30.59"/><polygon class="cls-3" points="32.24 11.05 49.88 11.05 49.88 29.09 53.2 28.8 51.49 9.37 32.24 11.05"/><polygon class="cls-4" points="49.88 11.05 32.24 11.05 11.98 12.83 13.54 30.59 32.8 30.59 49.88 29.09 49.88 11.05"/><rect class="cls-5" width="44.42" height="11.1"/><g class="cls-6"><path class="cls-7" d="M42.52,6a0,0,0,0,1,0,0h-2.4a.09.09,0,0,0-.06,0s0,0,0,0V8.69a.07.07,0,0,1-.06.06h-1.9a.08.08,0,0,1,0,0s0,0,0-.05V6.12a0,0,0,0,0,0,0,.07.07,0,0,0,0,0H35.42a.12.12,0,0,1,0-.08V4.1a.12.12,0,0,1,0,0H38a0,0,0,0,0,0,0V1.77a.1.1,0,0,1,0,0h2a.08.08,0,0,1,0,.05V4h2.51s0,0,0,.06V6s0,0,0,0M35.1,8.67a.31.31,0,0,1,0,.07s0,0-.06,0H31.17c-.11,0-.14,0-.14,0a.23.23,0,0,1,0-.12L32,2c0-.09,0-.11,0-.11h1.92a.09.09,0,0,1,0,.06L33.2,7.12c0,.06,0,.07,0,.07h2a.09.09,0,0,1,.06,0s0,0,0,0Zm-4.91.1H28.47s-.06,0-.06,0a.14.14,0,0,1,0-.06l-.23-1.06a.25.25,0,0,0,0-.09.33.33,0,0,0-.11,0H25.79a.14.14,0,0,0-.07,0,.28.28,0,0,0-.06.1l-.5,1.07a.07.07,0,0,1,0,0h-2a.07.07,0,0,1-.07,0s0,0,0-.05L26.5,1.9l0,0h2.19a.14.14,0,0,1,.07,0,.11.11,0,0,1,0,0l1.41,6.81a0,0,0,0,1,0,0h0m-8,0H20.39v0L18,4.52l0,0s0,0,0,0l-.59,4.15a.12.12,0,0,1,0,.05H15.59a0,0,0,0,1,0,0,.08.08,0,0,1,0-.07l.94-6.71s0-.05,0-.05l.06,0h1.95a.11.11,0,0,1,0,0l2.15,3.76c0,.08.06.07.06.07s0,0,.05-.09l.54-3.74a0,0,0,0,1,0,0H23.2a0,0,0,0,1,0,0l-1,6.77,0,.06h-.06m-7.48,0H13a.14.14,0,0,1-.07,0s0,0,0-.07l-.27-1.08a.06.06,0,0,0,0,0H10.27a.08.08,0,0,0-.07,0,.26.26,0,0,0-.07.1l-.47,1,0,0-.05,0H7.64c-.06,0-.07,0-.07,0a.07.07,0,0,1,0-.06L10.94,1.9a.11.11,0,0,1,.05,0H13.2a.13.13,0,0,1,.06,0,.11.11,0,0,1,0,0l1.44,6.77a0,0,0,0,1,0,0h0M27.37,3.81s0,0,0,0L26.41,6c0,.06,0,.07,0,.07l.05,0h1.41V6l-.47-2.17s0,0,0,0m-15.54,0,0,0L10.88,6a.05.05,0,0,0,0,0h1.45s0,0,0,0l-.48-2.14s0,0,0,0M7,8.51a.36.36,0,0,1,0,.13.15.15,0,0,1-.1,0A4.3,4.3,0,0,1,5,8.94,3.28,3.28,0,0,1,2,6.49a4.18,4.18,0,0,1,.71-3.58A3.85,3.85,0,0,1,5.05,1.63a4.72,4.72,0,0,1,2.28.22A3,3,0,0,1,8,2.16c.14.09.15.13.15.13s0,0,0,.17L7.85,3.83a.17.17,0,0,1,0,.09.57.57,0,0,1-.15-.08,3.06,3.06,0,0,0-1.83-.52A2,2,0,0,0,4,4.75a2,2,0,0,0,.53,2.06A2.24,2.24,0,0,0,6,7.25,3.23,3.23,0,0,0,7.08,7h0c.13-.07.16-.06.16-.06s0,0,0,.11Z"/><path class="cls-7" d="M21.28,15.82a6.21,6.21,0,0,1-.14,1.47A3.14,3.14,0,0,1,20,19.14a3.29,3.29,0,0,1-2,.64,3.38,3.38,0,0,1-2.5-1,3.53,3.53,0,0,1-1-2.57,3.53,3.53,0,0,1,1-2.6,3.41,3.41,0,0,1,2.56-1,3,3,0,0,1,2.12.76,3.86,3.86,0,0,1,.57.73c.06.1.13.24.21.39l-1.6.69a2.34,2.34,0,0,0-.42-.68,1.27,1.27,0,0,0-.95-.39,1.51,1.51,0,0,0-1,.35,2,2,0,0,0-.57.91,2.51,2.51,0,0,0-.13.84,2.33,2.33,0,0,0,.49,1.52,1.57,1.57,0,0,0,1.26.59,1.17,1.17,0,0,0,1.13-.61,1.74,1.74,0,0,0,.18-.57H17.94V15.82Z"/><path class="cls-7" d="M25,19.54l-1.55-2.65-.31,2.65H21.49l.8-6.7H24.4c1.54,0,2.29.67,2.29,2a2,2,0,0,1-.57,1.58,2.3,2.3,0,0,1-.8.48l1.59,2.6Zm-1.15-3.73c.7,0,1.17-.34,1.17-.85s-.34-.68-.94-.68h-.31l-.21,1.53Z"/><path class="cls-7" d="M32.12,19.54l-.42-1.16H29.37l-.44,1.16H27.15l2.49-6.7h1.83l2.45,6.7Zm-1.57-4.63-.71,2.14h1.4Z"/><path class="cls-7" d="M40.49,19.54h-1.8l-1.73-3c-.08-.14-.17-.31-.28-.53-.21-.42-.3-.61-.52-1.13v.3a8.38,8.38,0,0,1-.07,1.27l-.36,3.09H34.09l.79-6.7h1.78l1.85,3.23.27.54.25.52.13.25a2,2,0,0,1,0-.28c0-.26,0-.59.07-.87l.41-3.39h1.63Z"/><path class="cls-7" d="M44.38,12.84a3,3,0,0,1,2.24,1,3.36,3.36,0,0,1,0,4.7,3,3,0,0,1-2.24,1H41.9v-6.7ZM44,18.06a1.74,1.74,0,0,0,1.84-1.87A1.74,1.74,0,0,0,44,14.32h-.38v3.74Z"/><polygon class="cls-7" points="15.41 28.44 15.41 21.2 16.02 21.2 16.13 20.9 18.9 20.9 18.79 21.2 19.4 21.2 19.4 22.79 17.24 22.79 17.24 24 19.29 24 19.29 25.59 17.24 25.59 17.24 26.85 19.4 26.85 19.4 28.44 15.41 28.44"/><path class="cls-7" d="M25.76,23.2c0,.17,0,.18-.06.18l-.07,0-.1-.09A2.58,2.58,0,0,0,24,22.79a2.08,2.08,0,0,0-2.19,2.11,1.86,1.86,0,0,0,1.92,2,3,3,0,0,0,1.55-.4.06.06,0,0,1,0,0s0,0,0,.05a.49.49,0,0,1,0,.11l-.13,1.57a.16.16,0,0,1-.1.13,4.61,4.61,0,0,1-1.65.32A3.43,3.43,0,0,1,20,25a3.84,3.84,0,0,1,3.84-3.93,4.15,4.15,0,0,1,1.68.37c.31.13.42.22.42.33v0Z"/><path class="cls-7" d="M29.72,28.44l-1.67-2.87-.34,2.87H25.93l.86-7.24h2.29c1.66,0,2.48.72,2.48,2.2a2.21,2.21,0,0,1-.62,1.71,2.37,2.37,0,0,1-.87.52l1.72,2.81Zm-1.23-4c.75,0,1.26-.36,1.26-.91s-.36-.74-1-.74h-.34l-.22,1.65Z"/><path class="cls-7" d="M37.33,28.44l-.46-1.25H34.36l-.48,1.25H32l2.7-7.24h2l2.65,7.24Zm-1.7-5-.77,2.31h1.52Z"/><polygon class="cls-7" points="44.81 28.44 41.45 24.01 41.45 28.44 39.63 28.44 39.63 21.2 41.45 21.2 44.81 25.63 44.81 21.2 46.63 21.2 46.63 28.44 44.81 28.44"/></g></g></g></svg>