<svg xmlns="http://www.w3.org/2000/svg" xmlns:xlink="http://www.w3.org/1999/xlink" viewBox="0 0 500 105"><defs><linearGradient id="a" y1="52.5" x2="500" y2="52.5" gradientUnits="userSpaceOnUse"><stop offset="0" stop-color="#403d36"/><stop offset="0.08" stop-color="#827d6d"/><stop offset="0.28"/><stop offset="0.31" stop-color="#050505"/><stop offset="0.34" stop-color="#131313"/><stop offset="0.37" stop-color="#2a2a2a"/><stop offset="0.41" stop-color="#4b4b4b"/><stop offset="0.45" stop-color="#767676"/><stop offset="0.48" stop-color="#a8a8a8"/><stop offset="0.5" stop-color="#bfbfbf"/><stop offset="0.51" stop-color="#b4b4b4"/><stop offset="0.53" stop-color="#898a8b"/><stop offset="0.56" stop-color="#68696b"/><stop offset="0.58" stop-color="#505255"/><stop offset="0.61" stop-color="#424447"/><stop offset="0.63" stop-color="#3d3f42"/><stop offset="0.89" stop-color="#4d5c63"/><stop offset="1" stop-color="#25343b"/></linearGradient><linearGradient id="b" x1="32.73" y1="70.68" x2="33.98" y2="70.68" gradientUnits="userSpaceOnUse"><stop offset="0" stop-color="#889fa6"/><stop offset="0.36" stop-color="#a0bcbe"/><stop offset="0.76" stop-color="#b5d5d3"/><stop offset="1" stop-color="#bddfdb"/></linearGradient><linearGradient id="c" x1="414.26" y1="53.71" x2="478.52" y2="53.71" gradientUnits="userSpaceOnUse"><stop offset="0" stop-color="#e9e3d4"/><stop offset="0.63" stop-color="#696969"/><stop offset="0.68" stop-color="#6b6e6f"/><stop offset="0.75" stop-color="#707b80"/><stop offset="0.83" stop-color="#79919b"/><stop offset="0.92" stop-color="#85afc1"/><stop offset="0.98" stop-color="#8fc7e0"/></linearGradient><linearGradient id="d" x1="471.48" y1="55.23" x2="410.94" y2="55.23" gradientUnits="userSpaceOnUse"><stop offset="0" stop-color="#e9dfc3"/><stop offset="0.58" stop-color="#363636"/><stop offset="0.62" stop-color="#393b3c"/><stop offset="0.68" stop-color="#42494d"/><stop offset="0.75" stop-color="#506168"/><stop offset="0.82" stop-color="#64828f"/><stop offset="0.9" stop-color="#7eabc0"/><stop offset="0.95" stop-color="#8fc7e0"/></linearGradient><linearGradient id="e" x1="411.55" y1="52.54" x2="398.95" y2="54.53" gradientUnits="userSpaceOnUse"><stop offset="0" stop-color="#ffffe9"/><stop offset="0.71" stop-color="#dbcfaf"/></linearGradient><linearGradient id="f" x1="388.83" y1="53.66" x2="315.68" y2="53.66" gradientUnits="userSpaceOnUse"><stop offset="0" stop-color="#ffeed4"/><stop offset="0.08" stop-color="#e3d5c0"/><stop offset="0.25" stop-color="#aea699"/><stop offset="0.39" stop-color="#87837d"/><stop offset="0.51" stop-color="#6f6e6c"/><stop offset="0.58" stop-color="#666"/><stop offset="0.63" stop-color="#696b6c"/><stop offset="0.7" stop-color="#737b7d"/><stop offset="0.79" stop-color="#839498"/><stop offset="0.88" stop-color="#9ab7bf"/><stop offset="0.97" stop-color="#b6e4ef"/><stop offset="1" stop-color="#bff2ff"/></linearGradient><linearGradient id="g" x1="311.49" y1="53.03" x2="392.43" y2="53.03" gradientUnits="userSpaceOnUse"><stop offset="0" stop-color="#ffeed4"/><stop offset="0.04" stop-color="#dfd1bc"/><stop offset="0.09" stop-color="#b8ad9e"/><stop offset="0.14" stop-color="#968f84"/><stop offset="0.2" stop-color="#7a756f"/><stop offset="0.26" stop-color="#65625e"/><stop offset="0.33" stop-color="#565453"/><stop offset="0.42" stop-color="#4d4c4c"/><stop offset="0.54" stop-color="#4a4a4a"/><stop offset="0.59" stop-color="#4d4f50"/><stop offset="0.66" stop-color="#545d61"/><stop offset="0.74" stop-color="#61747c"/><stop offset="0.82" stop-color="#7394a3"/><stop offset="0.91" stop-color="#89bdd3"/><stop offset="0.93" stop-color="#8fc7e0"/></linearGradient><linearGradient id="h" x1="304.57" y1="52.95" x2="289.42" y2="55.35" gradientUnits="userSpaceOnUse"><stop offset="0" stop-color="#bff2ff"/><stop offset="0.76" stop-color="#84acc0"/></linearGradient><linearGradient id="i" x1="293" y1="85.8" x2="293" y2="88.23" gradientUnits="userSpaceOnUse"><stop offset="0.01" stop-color="#6b6b6b"/><stop offset="0.05" stop-color="#636363"/><stop offset="0.25" stop-color="#414141"/><stop offset="0.41" stop-color="#2c2c2c"/><stop offset="0.52" stop-color="#242424"/></linearGradient><linearGradient id="j" x1="294.8" y1="52.56" x2="281.49" y2="54.66" gradientUnits="userSpaceOnUse"><stop offset="0.15" stop-color="#ffffe9"/><stop offset="0.28" stop-color="#f9f7df"/><stop offset="0.49" stop-color="#eae2c4"/><stop offset="0.77" stop-color="#d1c199"/><stop offset="0.79" stop-color="#cfbe95"/></linearGradient><linearGradient id="k" x1="293.03" y1="20.99" x2="293.03" y2="19.41" gradientUnits="userSpaceOnUse"><stop offset="0.24" stop-color="#a3a3a3"/><stop offset="0.45" stop-color="#a0a0a0"/><stop offset="0.62" stop-color="#969696"/><stop offset="0.77" stop-color="#858585"/><stop offset="0.92" stop-color="#6e6e6e"/><stop offset="0.94" stop-color="#696969"/></linearGradient><linearGradient id="l" x1="238.71" y1="26.91" x2="238.71" y2="30.81" gradientUnits="userSpaceOnUse"><stop offset="0.43" stop-color="#a3a3a3"/><stop offset="0.88" stop-color="#424242"/></linearGradient><linearGradient id="m" x1="235.27" y1="29.42" x2="235.27" y2="88.19" gradientUnits="userSpaceOnUse"><stop offset="0" stop-color="#ffffe9"/><stop offset="0.71" stop-color="#c0b599"/></linearGradient><linearGradient id="n" x1="241.61" y1="27.1" x2="241.61" y2="88.19" gradientUnits="userSpaceOnUse"><stop offset="0" stop-color="#bff2ff"/><stop offset="1" stop-color="#84acc0"/></linearGradient><linearGradient id="o" x1="238.61" y1="88.19" x2="238.61" y2="86.84" xlink:href="#i"/><linearGradient id="p" x1="184.72" y1="52.27" x2="118.24" y2="52.27" gradientUnits="userSpaceOnUse"><stop offset="0.07" stop-color="#fff0c2"/><stop offset="0.09" stop-color="#e5d8b2"/><stop offset="0.13" stop-color="#c0b79a"/><stop offset="0.18" stop-color="#a09a86"/><stop offset="0.23" stop-color="#868275"/><stop offset="0.28" stop-color="#727069"/><stop offset="0.34" stop-color="#646360"/><stop offset="0.41" stop-color="#5b5b5b"/><stop offset="0.54" stop-color="#595959"/><stop offset="0.61" stop-color="#5c5d5d"/><stop offset="0.67" stop-color="#656969"/><stop offset="0.74" stop-color="#747d7c"/><stop offset="0.81" stop-color="#899a98"/><stop offset="0.88" stop-color="#a4bebb"/><stop offset="0.93" stop-color="#bddfdb"/></linearGradient><linearGradient id="q" x1="111.95" y1="53.62" x2="191.76" y2="53.62" gradientUnits="userSpaceOnUse"><stop offset="0" stop-color="#ffeebd"/><stop offset="0.05" stop-color="#e0d3ad"/><stop offset="0.11" stop-color="#bfb59b"/><stop offset="0.17" stop-color="#a39d8c"/><stop offset="0.24" stop-color="#8e8a81"/><stop offset="0.31" stop-color="#7f7d79"/><stop offset="0.4" stop-color="#767574"/><stop offset="0.54" stop-color="#737373"/><stop offset="0.61" stop-color="#777979"/><stop offset="0.71" stop-color="#838a89"/><stop offset="0.82" stop-color="#95a5a3"/><stop offset="0.95" stop-color="#b0cbc8"/><stop offset="1" stop-color="#bddfdb"/></linearGradient><linearGradient id="r" x1="185.35" y1="67.61" x2="185.35" y2="65.41" gradientUnits="userSpaceOnUse"><stop offset="0" stop-color="#a3a3a3"/><stop offset="1" stop-color="#424242"/></linearGradient><linearGradient id="s" x1="185.14" y1="39.65" x2="185.14" y2="41.19" gradientUnits="userSpaceOnUse"><stop offset="0" stop-color="#a3a3a3"/><stop offset="0.8" stop-color="#424242"/></linearGradient><linearGradient id="t" x1="90.03" y1="54.37" x2="90.03" y2="88.09" gradientUnits="userSpaceOnUse"><stop offset="0" stop-color="#fff8b8"/><stop offset="0.19" stop-color="#dbd393"/><stop offset="0.38" stop-color="#bfb676"/><stop offset="0.55" stop-color="#aea464"/><stop offset="0.66" stop-color="#a89e5e"/></linearGradient><linearGradient id="u" x1="-24.2" y1="224.79" x2="60.87" y2="209.79" gradientTransform="translate(41.2 -161.4)" gradientUnits="userSpaceOnUse"><stop offset="0" stop-color="#ffe494"/><stop offset="0.54" stop-color="#a3a3a3"/><stop offset="1" stop-color="#bddfdb"/></linearGradient><linearGradient id="v" x1="94.26" y1="38.76" x2="27.04" y2="38.76" gradientUnits="userSpaceOnUse"><stop offset="0" stop-color="#ffe494"/><stop offset="0.04" stop-color="#ecd590"/><stop offset="0.14" stop-color="#c3b488"/><stop offset="0.24" stop-color="#a39b82"/><stop offset="0.34" stop-color="#8c897e"/><stop offset="0.43" stop-color="#7f7e7b"/><stop offset="0.51" stop-color="#7a7a7a"/><stop offset="0.73" stop-color="#9aaaa8"/><stop offset="1" stop-color="#bddfdb"/></linearGradient><linearGradient id="w" x1="19.69" y1="197.49" x2="19.69" y2="247.82" gradientTransform="translate(41.2 -161.4)" gradientUnits="userSpaceOnUse"><stop offset="0" stop-color="#8f8f8f"/><stop offset="0.17" stop-color="#777"/><stop offset="0.42" stop-color="#5a5a5a"/><stop offset="0.64" stop-color="#484848"/><stop offset="0.8" stop-color="#424242"/></linearGradient><linearGradient id="x" x1="151.56" y1="20.84" x2="151.56" y2="86.76" xlink:href="#s"/><linearGradient id="y" x1="352.33" y1="19.66" x2="352.33" y2="86.77" gradientUnits="userSpaceOnUse"><stop offset="0.12" stop-color="#a3a3a3"/><stop offset="0.8" stop-color="#424242"/></linearGradient><linearGradient id="z" x1="442.21" y1="20.71" x2="442.21" y2="86.95" gradientUnits="userSpaceOnUse"><stop offset="0.04" stop-color="#a3a3a3"/><stop offset="0.8" stop-color="#424242"/></linearGradient><linearGradient id="aa" x1="410.69" y1="86.95" x2="410.69" y2="88.09" gradientUnits="userSpaceOnUse"><stop offset="0.01" stop-color="#454545"/><stop offset="0.04" stop-color="#3f3f3f"/><stop offset="0.24" stop-color="#1d1d1d"/><stop offset="0.41" stop-color="#080808"/><stop offset="0.52"/></linearGradient><linearGradient id="ab" x1="472.56" y1="86.95" x2="472.56" y2="88.09" xlink:href="#aa"/><linearGradient id="ac" x1="238.91" y1="20.24" x2="238.91" y2="86.84" gradientUnits="userSpaceOnUse"><stop offset="0.27" stop-color="#a3a3a3"/><stop offset="0.8" stop-color="#424242"/></linearGradient><linearGradient id="ad" x1="292.97" y1="20.84" x2="292.97" y2="86.59" xlink:href="#ac"/></defs><title>action</title><rect width="500" height="105" style="fill:url(#a)"/><rect x="1.5" y="1.9" width="496.7" height="101.22"/><polygon points="34 88.1 34 57.8 30.7 53.3 31 64.3 30.4 87.1 34 88.1" style="fill:url(#b)"/><polygon points="1.9 29 1.9 3 497.4 3 497.4 57.5 1.9 29" style="fill:#121112"/><path d="M416.3,29.1s1.3-9.8,17.5-9.8h20.1c5.4,0,24.6,3.2,24.6,24.3V88.1l-5-3.5V55.8s0-21.5-5.2-24.5-38.2-7-38.2-7l-9.8,6.4-6,1.6Z" style="fill:url(#c)"/><polygon points="416.6 19.4 416.6 27.8 415.9 31.1 413.2 32.1 414.5 21 416.6 19.4" style="fill:#8fc7e0"/><polygon points="415.9 20.9 416.6 19.4 404.3 19.4 406.5 20.9 415.9 20.9" style="fill:#a09e99"/><path d="M417,88.1V47.6c0-7.4,6.6-18.1,16.3-18.1h16c.8,0,16.9.6,16.9,11.8s0,12.7.3,46.7l1.8-1.1,3.1-40.3L465.3,27l-21.9-4.6-12.8,4.3-16,5.3-3.6,15.6.9,37.4.8,2.7Z" style="fill:url(#d)"/><polygon points="406.5 20.9 404.3 19.3 404.3 88.1 406.5 87 406.5 22.8 406.5 20.9" style="fill:url(#e)"/><path d="M388.8,57.4q0,12.5-2.9,18.4a15.1,15.1,0,0,1-10,7.8q-5.6,1.6-18.4,1.6H346q-13.1,0-19.1-2.2a14.4,14.4,0,0,1-9-8.9q-2.2-6.1-2.2-19.2t1.9-20a15.1,15.1,0,0,1,8.7-9.9q6.2-2.7,19.9-2.7h11.4q14.7,0,21.2,3t8.4,10.9Q388.8,42,388.8,57.4Zm-9.3-.2V50.9q0-9.3-1.9-13.2a9.3,9.3,0,0,0-6.9-5.1q-3.5-.8-13.3-.8H346.5q-13.6,0-17.2,2.8T325,51v6.2q0,12.6,4.4,16t16.8,2.5h11.4q9.7,0,13.1-.7,5-1,6.9-4.9T379.5,57.1Z" style="fill:url(#f)"/><path d="M392.4,57.1q0,13.8-3.3,20.3t-11.1,8.6q-6.2,1.8-20.3,1.8H345.1q-14.5,0-21.1-2.5a16,16,0,0,1-10-9.9q-2.5-6.7-2.5-21.2t2.1-22.1a16.7,16.7,0,0,1,9.7-11q6.8-3,22-3h12.6q16.3,0,23.4,3.4t9.3,12.1Q392.4,40.1,392.4,57.1Zm-10.3-.2V50q0-10.3-2.1-14.7t-7.6-5.6q-3.8-.9-14.8-.9H345.6q-15.1,0-19,3.1t-4.8,18.2V57q0,14,4.9,17.7t18.6,2.8h12.6q10.7,0,14.4-.8,5.5-1.1,7.6-5.4T382.1,56.9Z" style="fill:url(#g)"/><polygon points="299.3 19.4 299.2 88.2 294 84.4 294 23.9 299.3 19.4" style="fill:url(#h)"/><polygon points="288.2 86.6 286.8 88.2 299.2 88.2 297.7 86.6 289.2 85.8 288.2 86.6" style="fill:url(#i)"/><polygon points="286.8 19.4 286.8 88.2 290.8 83.6 290 22.1 286.8 19.4" style="fill:url(#j)"/><polygon points="297.6 21 299.3 19.4 286.8 19.4 288.5 20.8 297.6 21" style="fill:url(#k)"/><path d="M276.1,30.8H201.3l2.1-3s69.9-1.1,69.9-.9S276.1,30.8,276.1,30.8Z" style="fill:url(#l)"/><polygon points="232.2 88.2 232.5 30.8 233.6 29.4 238.3 30.4 235.7 87.4 232.2 88.2" style="fill:url(#m)"/><polygon points="245.3 30.8 245 88.2 241.7 87.4 237.9 59.9 241.3 27.1 243.6 29.1 245.3 30.8" style="fill:url(#n)"/><polygon points="233.6 86.8 232.2 88.2 245 88.2 243.8 86.8 233.6 86.8" style="fill:url(#o)"/><polygon points="276.1 19.3 276.1 30.8 275.1 29.4 274.1 20.8 276.1 19.3" style="fill:#b5e8fd"/><polygon points="201.3 19.3 201.4 30.8 202.7 29.4 204.2 20.9 202.9 19.7 201.3 19.3" style="fill:#fffcd5"/><polygon points="202.7 20.5 201.3 19.3 276.1 19.3 275.1 20.2 215.8 24.8 202.7 20.5" style="fill:#c5c1bb"/><path d="M179,65.4S180.4,76,166.8,76s-28.5.3-30.2.3-11.3-2.5-11.3-12.6-.4-21.1,0-23,2.3-9.9,16.2-9.9h24.7c3.4,0,12.6,2.2,12.6,10.4l4.5-.8.4-6.6L166.7,22l-12.1,3.2-25.6.9-7.2,5.7-1.9,15.9-1.6,22.4,8.2,8.3,48.5,4,8.9-6.5.8-8-2.1-2.2Z" style="fill:url(#p)"/><path d="M181.1,38.9,191.5,41s1.2-21.6-19.5-21.6H134.9S115.1,18.3,113,38c-1.1,21.3-.9,23.2-.9,23.2s-3.4,26.7,22.8,26.7h35.8s21.1,2.1,21.1-22l-10.6,1.9s-.7,10.5-12,10.5-32,.6-32,.6-14.5.2-14.5-18.3.3-19.2.3-19.2.5-12.9,16.5-12.9h28.1S181.4,28.9,181.1,38.9Z" style="fill:url(#q)"/><polygon points="180.7 67.6 179 65.4 191.7 65.4 190 67.4 180.7 67.6" style="fill:url(#r)"/><polygon points="180.2 39.6 178.8 41.2 191.5 41.2 190 39.6 180.2 39.6" style="fill:url(#s)"/><polygon points="88.6 88.1 88.6 57.8 87.8 54.7 91.1 54.4 92.3 77.8 91.1 87.7 88.6 88.1" style="fill:url(#t)"/><path d="M101.1,87.7s-.6-22.2-.6-45.5S79.3,20,79.3,20s-8.9-.1-34.4,0-23,21.5-23,21.5l-.6,46.3H31.4V56.3H91.1V87.7ZM90.7,47.7H31.1V43.2c0-14.9,15.1-14.7,15.1-14.7s8.8-.1,28.3,0S90.7,47.7,90.7,47.7Z" style="fill:url(#u)"/><path d="M34.2,46.6c-1-.4-2.6-16,15.9-16H75.1c1,0,14.4-.1,13.4,15.9s5.2,3.6,5.2,3.6l.6-17.7L77.1,25,56.6,22.3,43.5,25.3,30.8,28.4,27,43.1l1,6,4.3.7,2.1-3.2S35.5,47.4,34.2,46.6Z" style="fill:url(#v)"/><polygon points="31.9 48.1 34.2 46.5 88.5 46.5 90.3 48.3 31.9 48.1" style="fill:#c5c0b1"/><polygon points="32.2 56.4 34.3 57.8 88.2 57.8 89.8 56.4 32.2 56.4" style="fill:#494949"/><polygon points="22.5 87 21.7 88.1 34 88.1 31.9 86.6 22.5 87" style="fill:#3c3d3c"/><path d="M99.4,86.8s-.6-21.6-.6-44.2S78.4,21.1,78.4,21.1s-8.6-.1-33.2,0S23,41.9,23,41.9l-.6,45h9.7V56.4H89.8V86.8Zm-10-38.8H31.9V43.6c0-14.5,14.6-14.3,14.6-14.3s8.5-.1,27.4,0S89.4,48.1,89.4,48.1Z" style="fill:url(#w)"/><polygon points="89.8 86.8 88.6 88.1 100.9 88.1 99.4 86.8 89.8 86.8" style="fill:#383839"/><path d="M180.2,39.6H190s.5-18.7-18.6-18.7H135.1s-18.7-2.4-21.3,17.8c-1.1,20.5-.6,22.2-.6,22.2s-1.2,20.8,12.3,24a34.4,34.4,0,0,0,9.6,1.7H170s19.1,2.2,20-19.3h-9.7s-.7,10.1-11.7,10.1-31.2.6-31.2.6-14.1.2-14.1-17.6.3-18.4.3-18.4.5-12.4,16.1-12.4H167S180.5,30,180.2,39.6Z" style="fill:url(#x)"/><path d="M391.3,57.2q0,13.3-3.1,19.6t-10.7,8.3q-6,1.7-19.6,1.7H345.7q-14,0-20.4-2.4a15.4,15.4,0,0,1-9.6-9.5q-2.4-6.5-2.4-20.5t2-21.3a16.1,16.1,0,0,1,9.3-10.6q6.6-2.9,21.2-2.9H358q15.7,0,22.6,3.2t9,11.6Q391.3,40.8,391.3,57.2Zm-10-.2V50.3q0-9.9-2-14.1t-7.3-5.4q-3.7-.9-14.2-.9H346.2q-14.5,0-18.3,3t-4.6,17.5V57q0,13.5,4.7,17t17.9,2.7H358q10.3,0,13.9-.8,5.3-1.1,7.4-5.2T381.4,56.9Z" style="fill:url(#y)"/><path d="M406.5,20.9V87h9.2V45.3c0-4.1,5.7-17.2,17.9-17.2,9.7-.1,16.1,0,17.8,0S467,30,467.7,41c.5,9.4,0,45.9,0,45.9h10.1s-.8-41.1-.6-43.4c.3-4.2-4-22.7-23.7-22.8H429.3c-2.1,0-9,1.4-13.4,10.4V20.9Z" style="fill:url(#z)"/><polygon points="406.5 87 404.3 88.1 417 88.1 415.8 87 406.5 87" style="fill:url(#aa)"/><polygon points="467.8 87 466.5 88.1 478.7 88.1 477.8 87 467.8 87" style="fill:url(#ab)"/><polygon points="202.7 20.5 202.7 29.4 233.6 29.4 233.6 86.8 243.8 86.8 243.8 29.4 275.1 29.4 275.1 20.2 202.7 20.5" style="fill:url(#ac)"/><polygon points="288.5 20.8 297.7 20.8 297.7 86.6 288.2 86.6 288.5 20.8" style="fill:url(#ad)"/></svg>