<?xml version="1.0" encoding="UTF-8" ?>
<!DOCTYPE svg PUBLIC "-//W3C//DTD SVG 1.1//EN" "http://www.w3.org/Graphics/SVG/1.1/DTD/svg11.dtd">
<svg width="544pt" height="121pt" viewBox="0 0 544 121" version="1.1" xmlns="http://www.w3.org/2000/svg">
<g id="#000000ff">
<path fill="#000000" opacity="1.00" d=" M 0.00 0.00 L 544.00 0.00 L 544.00 121.00 L 0.00 121.00 L 0.00 0.00 M 30.33 51.55 C 27.72 64.66 24.93 77.74 22.26 90.84 C 27.40 90.80 32.55 90.86 37.69 90.80 C 38.93 84.18 40.45 77.61 41.73 71.00 C 61.43 71.00 81.12 71.00 100.82 71.00 C 99.63 77.63 98.06 84.19 96.92 90.83 C 101.54 90.84 106.16 90.79 110.78 90.86 C 113.82 77.64 116.18 64.26 119.12 51.02 C 120.09 46.75 119.85 42.07 117.65 38.21 C 114.79 33.03 108.87 30.06 103.04 30.20 C 87.33 30.15 71.62 30.18 55.91 30.18 C 43.77 29.90 32.25 39.57 30.33 51.55 M 126.50 48.15 C 125.10 53.67 124.23 59.30 122.93 64.84 C 121.92 69.79 120.34 75.03 122.13 80.00 C 124.04 86.39 130.51 90.75 137.08 90.79 C 153.06 90.88 169.05 90.80 185.03 90.83 C 196.93 91.13 208.12 81.90 210.54 70.32 C 205.84 70.38 201.13 70.36 196.43 70.32 C 195.83 73.52 193.46 76.78 189.88 76.61 C 173.38 76.63 156.87 76.72 140.38 76.57 C 137.58 76.71 136.13 73.43 136.96 71.08 C 138.51 63.76 139.85 56.39 141.55 49.11 C 142.19 46.22 145.07 44.18 147.99 44.42 C 164.29 44.44 180.59 44.38 196.89 44.45 C 200.08 44.25 201.22 47.88 200.49 50.46 C 205.20 50.39 209.91 50.41 214.63 50.44 C 215.70 44.65 214.37 38.11 209.64 34.24 C 206.54 31.34 202.17 30.16 198.00 30.19 C 182.30 30.17 166.59 30.17 150.88 30.19 C 140.03 30.07 129.73 37.87 126.50 48.15 M 223.24 30.14 C 222.06 34.75 220.81 39.34 219.88 44.00 C 232.15 44.01 244.43 43.98 256.70 44.02 C 253.67 59.64 250.37 75.22 247.14 90.80 C 252.07 90.86 256.99 90.79 261.92 90.85 C 265.24 75.25 268.29 59.58 271.66 43.99 C 283.92 43.97 296.19 44.07 308.45 43.94 C 309.50 39.34 310.66 34.77 311.80 30.19 C 282.28 30.13 252.76 30.23 223.24 30.14 M 319.55 30.18 C 315.49 50.41 311.26 70.61 307.13 90.82 C 312.06 90.83 316.99 90.82 321.92 90.83 C 326.08 70.60 330.24 50.37 334.40 30.14 C 329.45 30.21 324.50 30.15 319.55 30.18 M 361.22 30.25 C 350.17 31.00 340.03 39.82 338.03 50.77 C 336.55 57.45 335.23 64.16 333.86 70.87 C 332.67 75.96 334.02 81.57 337.44 85.53 C 340.60 88.99 345.28 90.89 349.94 90.81 C 365.64 90.85 381.33 90.81 397.03 90.83 C 408.73 91.13 420.03 82.34 422.48 70.87 C 423.87 64.53 425.07 58.14 426.43 51.80 C 427.38 47.23 427.45 42.16 425.00 38.03 C 422.07 32.79 415.91 30.03 410.05 30.18 C 393.78 30.21 377.50 30.09 361.22 30.25 M 433.04 50.80 C 430.31 64.14 427.40 77.44 424.90 90.82 C 430.02 90.83 435.13 90.82 440.26 90.83 C 442.90 77.22 445.68 63.63 448.50 50.06 C 448.87 46.97 451.73 44.19 454.93 44.43 C 471.25 44.42 487.58 44.40 503.91 44.44 C 506.26 44.21 507.71 46.36 508.04 48.43 C 504.97 62.52 502.38 76.72 499.30 90.81 C 504.00 90.84 508.71 90.82 513.42 90.82 C 516.07 77.25 519.06 63.75 521.73 50.19 C 522.63 45.13 521.82 39.54 518.31 35.60 C 514.98 31.89 509.92 30.07 505.00 30.18 C 489.64 30.17 474.29 30.18 458.93 30.17 C 446.88 29.65 435.21 38.94 433.04 50.80 Z" />
<path fill="#000000" opacity="1.00" d=" M 51.36 44.49 C 67.92 44.33 84.49 44.46 101.05 44.43 C 103.13 44.21 105.43 45.68 105.36 47.95 C 105.30 50.84 104.31 53.61 103.87 56.46 C 84.12 56.48 64.38 56.46 44.63 56.47 C 45.78 52.12 45.52 45.17 51.36 44.49 Z" />
<path fill="#000000" opacity="1.00" d=" M 353.60 49.35 C 354.15 46.40 356.96 44.25 359.95 44.42 C 376.26 44.43 392.59 44.39 408.91 44.44 C 411.25 44.21 412.67 46.38 413.03 48.42 C 411.17 56.50 409.71 64.67 407.88 72.76 C 406.72 74.93 404.52 76.76 401.94 76.62 C 386.28 76.69 370.62 76.60 354.96 76.66 C 353.30 76.73 351.66 76.44 350.06 76.01 C 349.60 74.73 348.53 73.48 348.97 72.04 C 350.46 64.47 351.97 56.89 353.60 49.35 Z" />
</g>
<g id="#ffffffff">
<path fill="#ffffff" opacity="1.00" d=" M 30.33 51.55 C 32.25 39.57 43.77 29.90 55.91 30.18 C 71.62 30.18 87.33 30.15 103.04 30.20 C 108.87 30.06 114.79 33.03 117.65 38.21 C 119.85 42.07 120.09 46.75 119.12 51.02 C 116.18 64.26 113.82 77.64 110.78 90.86 C 106.16 90.79 101.54 90.84 96.92 90.83 C 98.06 84.19 99.63 77.63 100.82 71.00 C 81.12 71.00 61.43 71.00 41.73 71.00 C 40.45 77.61 38.93 84.18 37.69 90.80 C 32.55 90.86 27.40 90.80 22.26 90.84 C 24.93 77.74 27.72 64.66 30.33 51.55 M 51.36 44.49 C 45.52 45.17 45.78 52.12 44.63 56.47 C 64.38 56.46 84.12 56.48 103.87 56.46 C 104.31 53.61 105.30 50.84 105.36 47.95 C 105.43 45.68 103.13 44.21 101.05 44.43 C 84.49 44.46 67.92 44.33 51.36 44.49 Z" />
<path fill="#ffffff" opacity="1.00" d=" M 126.50 48.15 C 129.73 37.87 140.03 30.07 150.88 30.19 C 166.59 30.17 182.30 30.17 198.00 30.19 C 202.17 30.16 206.54 31.34 209.64 34.24 C 214.37 38.11 215.70 44.65 214.63 50.44 C 209.91 50.41 205.20 50.39 200.49 50.46 C 201.22 47.88 200.08 44.25 196.89 44.45 C 180.59 44.38 164.29 44.44 147.99 44.42 C 145.07 44.18 142.19 46.22 141.55 49.11 C 139.85 56.39 138.51 63.76 136.96 71.08 C 136.13 73.43 137.58 76.71 140.38 76.57 C 156.87 76.72 173.38 76.63 189.88 76.61 C 193.46 76.78 195.83 73.52 196.43 70.32 C 201.13 70.36 205.84 70.38 210.54 70.32 C 208.12 81.90 196.93 91.13 185.03 90.83 C 169.05 90.80 153.06 90.88 137.08 90.79 C 130.51 90.75 124.04 86.39 122.13 80.00 C 120.34 75.03 121.92 69.79 122.93 64.84 C 124.23 59.30 125.10 53.67 126.50 48.15 Z" />
<path fill="#ffffff" opacity="1.00" d=" M 223.24 30.14 C 252.76 30.23 282.28 30.13 311.80 30.19 C 310.66 34.77 309.50 39.34 308.45 43.94 C 296.19 44.07 283.92 43.97 271.66 43.99 C 268.29 59.58 265.24 75.25 261.92 90.85 C 256.99 90.79 252.07 90.86 247.14 90.80 C 250.37 75.22 253.67 59.64 256.70 44.02 C 244.43 43.98 232.15 44.01 219.88 44.00 C 220.81 39.34 222.06 34.75 223.24 30.14 Z" />
<path fill="#ffffff" opacity="1.00" d=" M 319.55 30.18 C 324.50 30.15 329.45 30.21 334.40 30.14 C 330.24 50.37 326.08 70.60 321.92 90.83 C 316.99 90.82 312.06 90.83 307.13 90.82 C 311.26 70.61 315.49 50.41 319.55 30.18 Z" />
<path fill="#ffffff" opacity="1.00" d=" M 361.22 30.25 C 377.50 30.09 393.78 30.21 410.05 30.18 C 415.91 30.03 422.07 32.79 425.00 38.03 C 427.45 42.16 427.38 47.23 426.43 51.80 C 425.07 58.14 423.87 64.53 422.48 70.87 C 420.03 82.34 408.73 91.13 397.03 90.83 C 381.33 90.81 365.64 90.85 349.94 90.81 C 345.28 90.89 340.60 88.99 337.44 85.53 C 334.02 81.57 332.67 75.96 333.86 70.87 C 335.23 64.16 336.55 57.45 338.03 50.77 C 340.03 39.82 350.17 31.00 361.22 30.25 M 353.60 49.35 C 351.97 56.89 350.46 64.47 348.97 72.04 C 348.53 73.48 349.60 74.73 350.06 76.01 C 351.66 76.44 353.30 76.73 354.96 76.66 C 370.62 76.60 386.28 76.69 401.94 76.62 C 404.52 76.76 406.72 74.93 407.88 72.76 C 409.71 64.67 411.17 56.50 413.03 48.42 C 412.67 46.38 411.25 44.21 408.91 44.44 C 392.59 44.39 376.26 44.43 359.95 44.42 C 356.96 44.25 354.15 46.40 353.60 49.35 Z" />
<path fill="#ffffff" opacity="1.00" d=" M 433.04 50.80 C 435.21 38.94 446.88 29.65 458.93 30.17 C 474.29 30.18 489.64 30.17 505.00 30.18 C 509.92 30.07 514.98 31.89 518.31 35.60 C 521.82 39.54 522.63 45.13 521.73 50.19 C 519.06 63.75 516.07 77.25 513.42 90.82 C 508.71 90.82 504.00 90.84 499.30 90.81 C 502.38 76.72 504.97 62.52 508.04 48.43 C 507.71 46.36 506.26 44.21 503.91 44.44 C 487.58 44.40 471.25 44.42 454.93 44.43 C 451.73 44.19 448.87 46.97 448.50 50.06 C 445.68 63.63 442.90 77.22 440.26 90.83 C 435.13 90.82 430.02 90.83 424.90 90.82 C 427.40 77.44 430.31 64.14 433.04 50.80 Z" />
</g>
</svg>
