<svg version="1.2" xmlns="http://www.w3.org/2000/svg" viewBox="0 0 177 76" width="177" height="76">
	<title>i-television-svg</title>
	<style>
		.s0 { fill: #3cbbef } 
		.s1 { fill: #000000 } 
	</style>
	<g id="Layer">
		<path id="Layer" fill-rule="evenodd" class="s0" d="m8.7 2.8q2-2 4.9-2 2.9 0 4.9 2 2.1 2.1 2.1 5 0 2.8-2.1 4.9-2 2-4.9 2-2.9 0-4.9-2-2-2.1-2-4.9 0-2.9 2-5zm31.8 19.8l45.6 26.6-45.6 26.8zm-21.6 0v44.4q0.1 3.6 1.1 4.7 1 1.1 4.6 1.1h3.1v3.2h-27.2v-3.2h2.9q3.6 0 4.7-1.1 1-1.1 1-4.7v-36.3q0-2.4-1.1-3.4-1-0.9-4.6-0.9h-2.9v-3.3q8.6 0 18.4-0.5z"/>
		<path id="Layer" fill-rule="evenodd" class="s1" d="m95.8 51.1v0.7q0 2.8-2.3 2.8-1.4 0-1.9-1.4-0.3-0.8-0.3-2.6v-6.6h-1.8v-0.6q3.1-0.1 3.3-4.8h0.6v4.8h2.5v0.6h-2.5v7.1q0 1.1 0 1.4 0.2 1 0.8 1 1 0 1-1.9 0-0.1 0-0.1 0-0.1-0.1-0.1 0-0.1 0-0.1 0-0.1 0-0.1 0-0.1 0-0.1zm10.7-0.3q-0.3 1.7-1.5 2.8-1.2 1-2.9 1-2.5 0-3.9-1.6-1.3-1.6-1.3-4.1 0-2.4 1.2-4 1.4-1.8 3.7-1.8 2.3 0 3.6 1.8 1.2 1.5 1.2 3.9h-7.2v0.1q0 4.8 3.2 4.8 1.3 0 2.2-0.8 0.8-0.8 1.1-2.1zm-7.1-2.6h4.9v-0.4q0-4.1-2.5-4.1-2.4 0-2.4 4.3zm4.7-8.6l-3.6 2.3h-0.8l3.2-3.3q0.6-0.7 1-0.7 0.2 0 0.3 0.1 0.2 0.1 0.3 0.2 0.1 0.1 0.2 0.2 0 0.2 0 0.3 0 0.5-0.6 0.9zm18.3 11.1q-0.4 1.8-1.5 2.9-1.2 1-3 1-2.4 0-3.8-1.7-1.4-1.5-1.4-4 0-2.4 1.3-4 1.3-1.8 3.6-1.8 2.3 0 3.6 1.8 1.2 1.5 1.2 3.9h-7.2v0.1q0 4.8 3.2 4.8 1.3 0 2.2-0.9 0.8-0.7 1.2-2.1zm-7.2-2.5h4.9v-0.4q0-4.1-2.5-4.1-2.4 0-2.4 4.3zm4.7-8.6l-3.6 2.2h-0.7l3.1-3.2q0.6-0.7 1.1-0.7 0.1 0 0.3 0.1 0.1 0.1 0.2 0.2 0.1 0.1 0.2 0.2 0.1 0.2 0.1 0.3 0 0.5-0.7 0.9zm-12.5 14.1q0.7 0 1-0.2 0.2-0.2 0.2-1v-12.1q0-0.6-0.3-0.8-0.2-0.2-0.9-0.2h-0.6v-0.7q1.9 0 3.8-0.1v13.9q0 0.8 0.2 1 0.2 0.2 0.9 0.2h0.7v0.7h-5.6v-0.7h0.6zm20 0.8l-3.7-9.2q-0.3-0.7-0.6-1-0.4-0.3-1.1-0.3h-0.2v-0.7h5.5v0.7h-0.6q-0.9 0-0.9 0.6 0 0.4 0.2 0.9l2.4 6.4 2-5.9q0.2-0.6 0.2-1.1 0-0.9-1.3-0.9h-0.2v-0.7h4.2v0.7q-0.9 0-1.4 0.6-0.4 0.4-0.7 1.3l-3.1 8.6h-0.7z"/>
		<path id="Layer" fill-rule="evenodd" class="s1" d="m136.6 43.2v9.3q0 0.8 0.2 1 0.2 0.2 0.9 0.2h0.7v0.7h-5.6v-0.7h0.6q0.7 0 0.9-0.2 0.2-0.2 0.2-1v-7.4q0-0.7-0.2-0.9-0.2-0.2-0.9-0.2h-0.6v-0.7q0.5 0 0.9 0 0.5 0 1 0 0.4 0 0.9 0 0.5-0.1 1-0.1zm-1.1-4.6q0.6 0 1 0.4 0.5 0.4 0.5 1 0 0.6-0.5 1-0.4 0.5-1 0.5-0.6 0-1-0.5-0.1-0.1-0.2-0.2-0.1-0.1-0.1-0.2-0.1-0.2-0.1-0.3 0-0.2 0-0.3 0-0.6 0.4-1 0.1-0.1 0.2-0.2 0.1-0.1 0.3-0.1 0.1-0.1 0.2-0.1 0.2 0 0.3 0zm10.6 4.8h0.5l0.1 3.7h-0.6q-0.4-1.3-1.2-2.3-1.1-1.1-2.4-1.1-0.8 0-1.3 0.5-0.5 0.5-0.5 1.3 0 1.3 2.8 2.1l0.5 0.2q3.3 1 3.3 3.5 0 1.4-1.1 2.4-1 0.9-2.5 0.9-1.4 0-2.9-1.1-0.4-0.3-0.5-0.3-0.3 0-0.6 1.2h-0.5l0.1-4.7h0.6q0.2 1.7 1.1 2.9 1.1 1.3 2.7 1.3 1 0 1.6-0.5 0.6-0.5 0.6-1.4 0-0.9-1-1.5-0.4-0.3-1.8-0.7-1.8-0.6-2.6-1.1-1.3-0.9-1.3-2.4 0-1.4 1-2.3 0.9-0.9 2.3-0.9 1.1 0 2.1 0.6l0.9 0.5q0.4 0 0.6-0.8zm5.8-0.2v9.3q0 0.8 0.3 1 0.2 0.2 0.9 0.2h0.6v0.7h-5.5v-0.7h0.6q0.7 0 0.9-0.2 0.2-0.2 0.2-1v-7.4q0-0.7-0.2-0.9-0.3-0.2-0.9-0.2h-0.6v-0.7q0.4 0 0.9 0 0.5 0 1 0 0.4 0 0.9 0 0.5-0.1 0.9-0.1zm-1-4.6q0.6 0 1 0.4 0.4 0.4 0.4 1 0 0.6-0.4 1-0.4 0.5-1 0.5-0.6 0-1-0.5-0.1-0.1-0.2-0.2-0.1-0.1-0.1-0.2-0.1-0.2-0.1-0.3-0.1-0.2-0.1-0.3 0-0.6 0.5-1 0.1-0.1 0.2-0.2 0.1-0.1 0.2-0.1 0.2-0.1 0.3-0.1 0.2 0 0.3 0zm8.2 4.5q2.1 0 3.6 1.8 1.3 1.7 1.3 3.9 0 2.3-1.3 4-1.5 1.8-3.6 1.8-2.2 0-3.7-1.8-1.3-1.7-1.3-4 0-2.2 1.3-3.9 1.5-1.8 3.7-1.8zm0 0.6q-1.7 0-2.2 1.9-0.3 1.1-0.3 3.2 0 2.2 0.3 3.2 0.5 2 2.2 2 1.6 0 2.1-1.9 0.4-1.1 0.4-3.3 0-2.1-0.4-3.2-0.5-1.9-2.1-1.9zm5.6 10h0.6q0.7 0 0.9-0.2 0.2-0.2 0.2-1v-7.4q0-0.7-0.2-0.9-0.3-0.2-0.9-0.2h-0.6v-0.7q1.7 0 3.7-0.1v1.9q1.2-2 3.2-2 1.8 0 2.4 1.2 0.5 1 0.5 2.9v5.3q0 0.8 0.3 1 0.2 0.2 1 0.2h0.5v0.7h-5.4v-0.7h0.5q0.7 0 0.9-0.2 0.2-0.2 0.2-1v-6q0-2.4-1.6-2.4-2.5 0-2.5 3.6v4.8q0 0.8 0.3 1 0.2 0.2 0.9 0.2h0.5v0.7h-5.4z"/>
	</g>
</svg>