<?xml version="1.0" encoding="UTF-8"?>
<!-- Generator: Adobe Illustrator 16.0.0, SVG Export Plug-In . SVG Version: 6.00 Build 0)  -->
<svg width="305.5px" height="360px" enable-background="new 0 0 305.5 360" version="1.1" viewBox="0 0 305.5 360" xml:space="preserve" xmlns="http://www.w3.org/2000/svg">

	<path d="m107.9 230.25h-107.77c7.5537 79.755 73.973 129.88 152.62 129.62 71.721-0.24087 153.63-47.817 152.62-128.32-0.54425-43.568-31.798-92.052-76.439-93.752l74.316-58.245v-79.302h-301v96h155.17l-74.754 69.209 39.084 39.594c6.875-5.483 15.795-8.743 25.542-8.743 21.766 0 39.408 16.481 39.408 36.776 0 20.297-17.644 37.076-39.484 36.772-21.974-0.30547-39.934-19.076-39.322-39.608z" fill="#0076be"/>
	<g id="_x23_ffffffff" fill="#fff">
		<path d="m28.464 13.172c7.543-0.28 15.087 0.375 22.63 0.137 6.556 0.107 13.115-0.537 19.672-0.082-1.608 4.431-2.879 8.969-4.378 13.427-0.524 0.069-1.558 0.207-2.07 0.28-1.273-3.491-0.485-8.78-4.696-10.306-4.376-1.029-9.316-1.297-13.617 0.059-2.699 7.299-4.398 14.972-6.872 22.359 5.116-0.126 10.61 0.367 15.381-1.781 2.989-1.379 3.176-5.222 5.571-6.985 0.455 0.259 1.352 0.764 1.795 1.02-2.987 6.373-4.654 13.198-6.32 19.992-0.601 0.112-1.823 0.318-2.437 0.418 0.129-3.012 0.484-6.014 0.238-9.026-4.843-1.447-9.932-0.962-14.909-1.05-1.994 6.748-3.944 13.513-5.907 20.279-0.573 1.902-0.77 3.906-0.484 5.887 2.102 0.801 5.355-0.119 6.627 2.001-0.248 2.605-3.66 1.208-5.345 1.366-6.873-0.902-13.747-0.345-20.609 0.247-0.759-4.052 4.565-2.642 6.932-3.686 1.626-2.039 1.991-4.713 2.771-7.131 3.747-12.512 7.385-25.056 11.122-37.57 0.534-1.921 1.273-3.902 0.937-5.933-1.43-1.754-3.945-1.119-5.906-1.545-0.028-0.595-0.096-1.784-0.126-2.377z"/>
		<path d="m149.48 55.937c-2.934 3.6-5.118 8.756-10.05 9.875-0.042-3.093 0.732-6.085 1.621-9.014 3.175-10.255 6.799-20.352 10.038-30.587-3.573-0.659-8.411-1.711-10.269 2.446-2.841-1.26-5.892-2.309-9.047-1.816-8.516 1.082-16.067 6.078-22.022 12.071-6.404 6.708-11.262 15.839-10.238 25.388 0.272 3.477 2.59 6.992 6.142 7.718 4.398 0.861 8.526-1.585 11.921-4.107 6.613-5.603 11.951-12.509 16.996-19.511-1.951 6.614-4.953 13.045-5.537 19.985-0.271 3.613 4.097 4.44 6.729 3.288 7.104-2.551 12.566-8.631 15.669-15.402-0.491-0.082-1.472-0.25-1.953-0.334zm-11.157-18.483c-3.636 7.987-9.194 14.946-15.148 21.317-3.134 2.96-6.614 6.52-11.209 6.55-0.743-0.808-1.505-1.584-2.29-2.342-0.709-8.219 3.48-15.909 7.89-22.524 4.302-6.054 11.063-12.583 19.116-10.881 3.313 1.298 3.019 5.202 1.641 7.88z"/>
		<path d="m66.096 37.379c3.582-4.912 7.918-10.2 14.135-11.522 3.268-0.641 4.461 3.113 4.021 5.687-0.857 7.746-3.635 15.139-5.944 22.535 4.083-8.825 8.064-18.043 15.054-25.013 2.1-1.806 4.901-3.873 7.804-3.003 6.875 1.65 3.846 14.557-3.102 12.744-2.758-0.777-1.955-4.062-2.487-6.203-1.62 0.517-3.186 1.311-4.147 2.783-7.751 10.579-11.912 23.204-17.718 34.847-2.508 1.333-5.611 0.745-8.263 0.094 2.819-10.967 6.748-21.624 9.628-32.569 0.557-1.953 0.629-3.979 0.305-5.973-4.723 2.528-6.865 7.684-10.667 11.166-1.524-1.981 0.43-3.935 1.381-5.573z"/>
		<path d="m155.04 39.089c3.989-6.138 9.79-12.385 17.403-13.256 3.093-0.49 3.94 3.391 3.637 5.724-0.94 6.704-3.396 13.066-5.557 19.459 4.283-6.844 8.504-13.889 14.448-19.418 3.938-3.666 9.234-6.308 14.719-5.741 3.021 0.344 5.57 2.958 5.308 6.118-0.574 7.329-4.336 13.855-6.593 20.74-1.242 4.083-3.613 8.145-3.019 12.554 1.503 0.533 2.686-0.746 3.741-1.585 2.664-2.238 4.647-5.102 6.831-7.778 0.494 0.135 1.462 0.398 1.944 0.535-3.217 6.572-8.526 12.46-15.411 15.179-2.172 0.721-5.21 1.174-6.727-1.008-1.347-1.5-0.774-3.769-0.545-5.561 2.542-10.73 7.325-20.772 10.229-31.388 0.638-1.499-0.648-3.556-2.33-3.169-3.813 0.734-6.728 3.558-9.319 6.267-8.285 8.849-13.937 19.827-18.229 31.09-1.234 4.367-6.677 2.897-10.041 2.897 1.337-7.357 4.807-14.108 6.833-21.277 1.568-5.773 4.189-11.355 4.345-17.421-4.94 1.216-7.333 6.471-11.24 9.401-0.115-0.597-0.323-1.771-0.427-2.362z"/>
		<path d="m212.46 52.412c1.701-12.06 11.094-22.611 22.835-25.632 4.534-1.229 9.571-1.598 13.946 0.389 2.153 0.922 4.169 2.958 3.846 5.509 0.051 2.738-3.03 3.903-5.317 4.102-3.731-1.552-5.328-5.361-7.387-8.542-4.712-0.147-8.536 3.213-10.781 7.083-4.221 7.063-7.197 15.358-6.352 23.699 0.324 3.95 3.876 7.369 7.836 7.445 4.438-0.021 8.586-2.319 11.606-5.48 1.692-1.573 2.985-3.706 5.264-4.523-0.013 2.931-2.246 4.983-4.022 7.021-4.521 4.555-10.278 8.723-16.955 8.703-5.568 0.189-10.895-3.424-13.153-8.481-1.827-3.463-1.671-7.516-1.366-11.293z"/>
		<path d="m254.82 42.662c5.018-8.946 14.262-15.653 24.49-16.847 5.63-0.484 12.327 2.717 13.352 8.775 1.045 5.697-3.428 10.494-8.161 12.791-6.977 3.183-14.676 4.171-22.188 5.334-0.239 4.23-0.239 9.615 3.74 12.188 4.365 2.959 9.895 0.619 13.695-2.173 2.468-1.545 4.054-4.366 6.947-5.187-0.345 3.634-3.519 5.899-5.944 8.239-4.263 3.478-9.443 6.543-15.118 6.289-5.663-0.348-11.041-4.092-12.963-9.52-2.196-6.53-0.96-13.866 2.15-19.889m19.412-12.985c-6.476 4.805-9.621 12.824-11.427 20.445 5.962-0.861 12.317-2.29 16.85-6.561 3.447-3.297 4.354-8.354 3.813-12.938-2.119-3.059-6.425-3.066-9.236-0.946z"/>
	</g>

</svg>
