<?xml version="1.0" encoding="UTF-8" standalone="no"?>
<!-- Generator: Adobe Illustrator 13.0.0, SVG Export Plug-In . SVG Version: 6.00 Build 14948)  -->

<svg
   xmlns:dc="http://purl.org/dc/elements/1.1/"
   xmlns:cc="http://creativecommons.org/ns#"
   xmlns:rdf="http://www.w3.org/1999/02/22-rdf-syntax-ns#"
   xmlns:svg="http://www.w3.org/2000/svg"
   xmlns="http://www.w3.org/2000/svg"
   xmlns:sodipodi="http://sodipodi.sourceforge.net/DTD/sodipodi-0.dtd"
   xmlns:inkscape="http://www.inkscape.org/namespaces/inkscape"
   version="1.0"
   id="Layer_1"
   inkscape:output_extension="org.inkscape.output.svg.inkscape"
   sodipodi:version="0.32"
   sodipodi:docname="Logo_AB1.svg"
   inkscape:version="0.91 r13725"
   x="0px"
   y="0px"
   width="600"
   height="227.10001"
   viewBox="0 0 599.99999 227.10001"
   enable-background="new 0 0 497.893 193.75"
   xml:space="preserve"><metadata
     id="metadata13"><rdf:RDF><cc:Work
         rdf:about=""><dc:format>image/svg+xml</dc:format><dc:type
           rdf:resource="http://purl.org/dc/dcmitype/StillImage" /><dc:title></dc:title></cc:Work></rdf:RDF></metadata><defs
     id="defs11" /><sodipodi:namedview
     id="base"
     width="497.892px"
     height="193.75px"
     inkscape:current-layer="g12003"
     inkscape:window-y="1"
     inkscape:window-x="0"
     inkscape:window-width="1280"
     inkscape:pageopacity="0.0"
     inkscape:pageshadow="2"
     inkscape:window-height="691"
     pagecolor="#ffffff"
     bordercolor="#666666"
     borderopacity="1.0"
     objecttolerance="10.0"
     gridtolerance="10.0"
     inkscape:cy="105.24851"
     guidetolerance="10.0"
     inkscape:cx="307.61667"
     inkscape:zoom="1.3716725"
     showgrid="false"
     inkscape:object-nodes="true"
     inkscape:snap-smooth-nodes="true"
     inkscape:snap-midpoints="false"
     inkscape:object-paths="true"
     inkscape:snap-intersection-paths="true"
     inkscape:window-maximized="1" /><g
     id="g12003"
     transform="matrix(0.989831,0,0,0.989831,2.47458,34.308219)"><g
       id="g4335"
       transform="matrix(1.2158389,0,0,1.2158389,637.55357,-40.915456)"><g
         id="g4314"><g
           id="g4253"><path
             id="path4234"
             sodipodi:nodetypes="ccccccccc"
             d="M -386.82418,17.631981 -496.02105,5.3253595 C -512.54578,3.461783 -526.42957,16.379971 -526.42957,34.243288 l 0,130.512252 c 0,17.86332 13.88379,30.77119 30.40852,28.91483 l 109.19687,-12.30662 c 12.04419,-1.35926 21.51949,-14.21145 21.51949,-28.75085 l 0,-106.230064 c 0,-14.536312 -9.4753,-27.394683 -21.51949,-28.750855 z"
             style="fill:#ee1f23;fill-opacity:1;stroke:none;stroke-width:7.63920021;stroke-opacity:1"
             inkscape:connector-curvature="0" /><path
             id="path4245"
             d="m -503.54633,5.624366 c -12.98649,2.1470464 -22.88309,13.569121 -22.88309,28.619154 l 0,130.51273 c 0,15.16494 10.0417,26.65564 23.17512,28.67638 -1.8894,-0.64715 -3.65986,-1.40411 -5.29012,-2.30074 -1.65895,-0.91241 -3.17936,-1.96032 -4.55017,-3.16105 -1.37082,-1.20074 -2.59362,-2.55337 -3.65632,-4.07266 -1.06272,-1.51929 -1.96664,-3.20499 -2.7013,-5.07308 -0.73468,-1.86808 -1.30042,-3.91912 -1.68708,-6.16622 -0.38667,-2.2471 -0.59298,-4.6918 -0.61169,-7.34816 l 0,-134.972144 c -0.0452,-1.515086 0.0361,-3.01485 0.25059,-4.487035 0.21457,-1.472185 0.56131,-2.917148 1.04579,-4.321287 0.48449,-1.404138 1.10801,-2.767637 1.87256,-4.078584 0.76455,-1.310948 1.6702,-2.570263 2.72497,-3.762875 1.05478,-1.192612 2.25776,-2.319103 3.61291,-3.368236 1.35516,-1.0491316 2.8628,-2.020082 4.52848,-2.9005897 1.26833,-0.6704641 2.71578,-1.2357493 4.16935,-1.7956033 z"
             style="fill:#b11e22;fill-opacity:1;stroke:none;stroke-width:7.63920021;stroke-opacity:1"
             inkscape:connector-curvature="0" /></g><path
           style="fill:#f1615d;fill-opacity:1;fill-rule:evenodd;stroke:none;stroke-width:0.20205469;stroke-linecap:butt;stroke-linejoin:miter;stroke-miterlimit:4;stroke-dasharray:none;stroke-opacity:1"
           d="m -516.79303,122.3808 0,-92.182141 c 0.10909,-11.952701 8.746,-22.6011864 24.73815,-19.530114 l 105.20222,11.197265 c 10.72247,0.397571 16.82334,13.359263 16.27467,19.920717 l 0,51.299101 z"
           id="path4240"
           inkscape:connector-curvature="0"
           sodipodi:nodetypes="ccccccc" /><path
           id="path2276"
           d="m -454.33425,53.301295 -44.1024,91.807475 29.56647,-0.63536 7.19089,-16.78489 47.50215,-2.1945 6.81979,14.38028 23.49665,-0.18271 -36.5062,-84.321685 z m 2.92585,54.651945 14.42342,-33.035273 13.56992,32.456743 z"
           style="fill:#ffffff"
           inkscape:connector-curvature="0"
           sodipodi:nodetypes="ccccccccccccc" /></g><g
         id="g4321"><g
           id="g4277"
           transform="translate(168.71568,0)"><path
             inkscape:connector-curvature="0"
             style="fill:#ee1f23;fill-opacity:1;stroke:none;stroke-width:7.63920021;stroke-opacity:1"
             d="M -386.82418,17.631981 -496.02105,5.3253595 C -512.54578,3.461783 -526.42957,16.379971 -526.42957,34.243288 l 0,130.512252 c 0,17.86332 13.88379,30.77119 30.40852,28.91483 l 109.19687,-12.30662 c 12.04419,-1.35926 21.51949,-14.21145 21.51949,-28.75085 l 0,-106.230064 c 0,-14.536312 -9.4753,-27.394683 -21.51949,-28.750855 z"
             sodipodi:nodetypes="ccccccccc"
             id="path4279" /><path
             inkscape:connector-curvature="0"
             style="fill:#b11e22;fill-opacity:1;stroke:none;stroke-width:7.63920021;stroke-opacity:1"
             d="m -503.54633,5.624366 c -12.98649,2.1470464 -22.88309,13.569121 -22.88309,28.619154 l 0,130.51273 c 0,15.16494 10.0417,26.65564 23.17512,28.67638 -1.8894,-0.64715 -3.65986,-1.40411 -5.29012,-2.30074 -1.65895,-0.91241 -3.17936,-1.96032 -4.55017,-3.16105 -1.37082,-1.20074 -2.59362,-2.55337 -3.65632,-4.07266 -1.06272,-1.51929 -1.96664,-3.20499 -2.7013,-5.07308 -0.73468,-1.86808 -1.30042,-3.91912 -1.68708,-6.16622 -0.38667,-2.2471 -0.59298,-4.6918 -0.61169,-7.34816 l 0,-134.972144 c -0.0452,-1.515086 0.0361,-3.01485 0.25059,-4.487035 0.21457,-1.472185 0.56131,-2.917148 1.04579,-4.321287 0.48449,-1.404138 1.10801,-2.767637 1.87256,-4.078584 0.76455,-1.310948 1.6702,-2.570263 2.72497,-3.762875 1.05478,-1.192612 2.25776,-2.319103 3.61291,-3.368236 1.35516,-1.0491316 2.8628,-2.020082 4.52848,-2.9005897 1.26833,-0.6704641 2.71578,-1.2357493 4.16935,-1.7956033 z"
             id="path4281" /></g><path
           sodipodi:nodetypes="ccccccc"
           inkscape:connector-curvature="0"
           id="path4283"
           d="m -348.07735,88.268198 0,-58.069539 c 0.10909,-11.952701 8.746,-22.6011864 24.73815,-19.530114 l 105.20222,11.197265 c 10.72247,0.397571 16.82334,13.359263 16.27467,19.920717 l 0,16.014693 z"
           style="fill:#f1615d;fill-opacity:1;fill-rule:evenodd;stroke:none;stroke-width:0.20205469;stroke-linecap:butt;stroke-linejoin:miter;stroke-miterlimit:4;stroke-dasharray:none;stroke-opacity:1" /><path
           id="path2278"
           d="m -233.88877,98.170241 c 7.68358,-3.253386 9.57775,-7.093641 9.57775,-19.510254 0,-9.439296 -1.68536,-14.732103 -5.71617,-18.178368 -3.10648,-2.55042 -7.43616,-3.545906 -17.5028,-4.243387 l -13.70059,-0.773353 -60.08609,-3.38502 0,94.250351 75.35526,-4.73062 c 11.63819,-0.85563 16.14502,-2.14181 19.75424,-5.972 2.83532,-3.00566 4.40489,-9.52249 4.40489,-18.30269 0,-6.92819 -1.15095,-11.9888 -3.6686,-15.06942 -1.6903,-2.10158 -3.48749,-2.967261 -8.41789,-4.085239 z m -28.04788,-22.298348 5.9992,0.296178 c 8.37336,0.234931 9.61041,1.173742 9.61041,6.799291 0,6.272753 -1.34195,6.765468 -15.48888,6.628349 l -33.07945,-0.331829 0,-13.880434 z m 6.75624,45.779577 -39.71496,0.57937 0,-13.76834 40.16822,-0.61156 c 7.24161,0.3363 10.0621,-0.22678 10.0621,6.02403 9.9e-4,6.36874 -0.83468,7.44193 -10.51536,7.7765 z"
           style="fill:#ffffff"
           sodipodi:nodetypes="cscccccccsccccsccccccccsc"
           inkscape:connector-curvature="0" /></g><g
         id="g4328"><g
           id="g4287"
           transform="translate(337.43135,0)"><path
             id="path4289"
             sodipodi:nodetypes="ccccccccc"
             d="M -386.82418,17.631981 -496.02105,5.3253595 C -512.54578,3.461783 -526.42957,16.379971 -526.42957,34.243288 l 0,130.512252 c 0,17.86332 13.88379,30.77119 30.40852,28.91483 l 109.19687,-12.30662 c 12.04419,-1.35926 21.51949,-14.21145 21.51949,-28.75085 l 0,-106.230064 c 0,-14.536312 -9.4753,-27.394683 -21.51949,-28.750855 z"
             style="fill:#ee1f23;fill-opacity:1;stroke:none;stroke-width:7.63920021;stroke-opacity:1"
             inkscape:connector-curvature="0" /><path
             id="path4291"
             d="m -503.54633,5.624366 c -12.98649,2.1470464 -22.88309,13.569121 -22.88309,28.619154 l 0,130.51273 c 0,15.16494 10.0417,26.65564 23.17512,28.67638 -1.8894,-0.64715 -3.65986,-1.40411 -5.29012,-2.30074 -1.65895,-0.91241 -3.17936,-1.96032 -4.55017,-3.16105 -1.37082,-1.20074 -2.59362,-2.55337 -3.65632,-4.07266 -1.06272,-1.51929 -1.96664,-3.20499 -2.7013,-5.07308 -0.73468,-1.86808 -1.30042,-3.91912 -1.68708,-6.16622 -0.38667,-2.2471 -0.59298,-4.6918 -0.61169,-7.34816 l 0,-134.972144 c -0.0452,-1.515086 0.0361,-3.01485 0.25059,-4.487035 0.21457,-1.472185 0.56131,-2.917148 1.04579,-4.321287 0.48449,-1.404138 1.10801,-2.767637 1.87256,-4.078584 0.76455,-1.310948 1.6702,-2.570263 2.72497,-3.762875 1.05478,-1.192612 2.25776,-2.319103 3.61291,-3.368236 1.35516,-1.0491316 2.8628,-2.020082 4.52848,-2.9005897 1.26833,-0.6704641 2.71578,-1.2357493 4.16935,-1.7956033 z"
             style="fill:#b11e22;fill-opacity:1;stroke:none;stroke-width:7.63920021;stroke-opacity:1"
             inkscape:connector-curvature="0" /></g><path
           style="fill:#f1615d;fill-opacity:1;fill-rule:evenodd;stroke:none;stroke-width:0.20205469;stroke-linecap:butt;stroke-linejoin:miter;stroke-miterlimit:4;stroke-dasharray:none;stroke-opacity:1"
           d="m -179.36168,53.634795 0,-23.436136 c 0.10909,-11.952701 8.746,-22.6011864 24.73815,-19.530114 L -49.42131,21.86581 c 2.976751,0.110373 5.597306,1.189084 7.818276,2.830364 z"
           id="path4293"
           inkscape:connector-curvature="0"
           sodipodi:nodetypes="cccccc" /><path
           style="fill:#ffffff;fill-rule:evenodd;stroke:none;stroke-width:1.01027346px;stroke-linecap:butt;stroke-linejoin:miter;stroke-opacity:1"
           d="m -101.71299,142.95246 21.352929,0 0,-85.932443 -28.383769,-1.562409 -33.85219,23.436138 11.71806,19.269713 29.42537,-20.832122 z"
           id="path4230"
           inkscape:connector-curvature="0"
           sodipodi:nodetypes="cccccccc" /></g></g></g></svg>