<?xml version="1.0" encoding="iso-8859-1"?>
<!-- Generator: Adobe Illustrator 12.0.0, SVG Export Plug-In . SVG Version: 6.00 Build 51448)  -->
<!DOCTYPE svg PUBLIC "-//W3C//DTD SVG 1.1//EN" "http://www.w3.org/Graphics/SVG/1.1/DTD/svg11.dtd" [
	<!ENTITY ns_svg "http://www.w3.org/2000/svg">
	<!ENTITY ns_xlink "http://www.w3.org/1999/xlink">
]>
<svg  version="1.1" id="Calque_1" xmlns="&ns_svg;" xmlns:xlink="&ns_xlink;" width="492.238" height="354.106"
	 viewBox="0 0 492.238 354.106" style="overflow:visible;enable-background:new 0 0 492.238 354.106;" xml:space="preserve">
<g>
	<polygon style="fill:none;" points="88.685,119.933 89.26,151.311 117.923,159.362 118.312,188.126 117.497,127.251 
		36.874,106.395 36.874,106.406 	"/>
	<polygon style="fill:none;" points="208.359,150.894 260.146,164.312 259.633,199.358 311.874,214.079 312.769,177.936 	"/>
	<polygon style="fill:none;" points="373.461,119.844 314.562,107.263 208.67,84.676 	"/>
	<polygon style="fill:#925B45;" points="88.685,119.933 36.874,106.406 38.135,163.966 89.26,151.311 	"/>
	<polygon style="fill:#925B45;" points="440.743,55.437 426.213,354.106 475.521,330.162 492.238,43.091 	"/>
	<path style="fill:#788DA6;" d="M208.67,84.676l0.312-67.956l-48.311-8.071l1.108,193.375l21.949,6.666l0.048,61.374l181.926,63.096
		l7.759-213.315L208.67,84.676z M311.876,214.08l-0.811,32.653L208.028,215.47l0.331-64.577l104.41,27.042l-0.895,36.143
		L311.876,214.08z"/>
	<polygon style="fill:#456F8A;" points="208.67,84.676 261.518,73.027 262.443,7.474 208.982,16.72 	"/>
	<polygon style="fill:#456F8A;" points="260.146,164.312 208.359,150.894 208.028,215.47 259.633,199.358 	"/>
	<polygon style="fill:#D26F4E;" points="161.779,202.024 161.041,74.442 35.185,47.551 36.391,89.578 36.394,89.577 36.874,106.395 
		117.497,127.251 118.312,188.126 38.135,163.966 36.874,106.406 36.874,106.395 0,96.84 3.908,207.736 183.776,270.064 
		183.729,208.69 	"/>
	<polygon style="fill:#D26F4E;" points="355.646,41.254 355.738,41.233 355.55,41.202 315.794,66.196 314.562,107.263 
		373.461,119.844 365.702,333.16 426.213,354.106 440.743,55.437 	"/>
	<polygon style="fill:#E29C7A;" points="89.26,151.311 38.135,163.966 118.312,188.126 117.923,159.362 	"/>
	<polygon style="fill:#E29C7A;" points="36.394,89.577 36.391,89.578 0,96.84 36.874,106.395 	"/>
	<polygon style="fill:#E29C7A;" points="440.743,55.437 492.238,43.091 405.894,29.689 355.738,41.233 355.646,41.254 	"/>
	<polygon style="fill:#E29C7A;" points="160.863,53.03 87.208,38.432 35.185,47.551 161.041,74.442 	"/>
	<polygon style="fill:#97A8BD;" points="262.443,7.474 214.219,0 160.671,8.649 208.982,16.72 	"/>
	<polygon style="fill:#97A8BD;" points="208.028,215.47 311.065,246.733 311.876,214.08 311.874,214.079 259.633,199.358 	"/>
	<polygon style="fill:#97A8BD;" points="314.562,107.263 315.138,83.659 261.518,73.027 208.67,84.676 	"/>
</g>
</svg>
