<?xml version="1.0" encoding="UTF-8" ?>
<!DOCTYPE svg PUBLIC "-//W3C//DTD SVG 1.1//EN" "http://www.w3.org/Graphics/SVG/1.1/DTD/svg11.dtd">
<svg width="150pt" height="71pt" viewBox="0 0 150 71" version="1.1" xmlns="http://www.w3.org/2000/svg">
<g id="#ffffffff">
<path fill="#ffffff" opacity="1.00" d=" M 12.27 51.45 C 22.91 35.13 33.61 18.85 44.14 2.45 C 45.75 4.75 47.34 7.05 48.77 9.46 C 49.58 10.83 50.43 12.17 51.27 13.53 C 55.51 20.12 59.57 26.83 63.74 33.47 C 64.56 34.83 65.44 36.16 66.27 37.52 C 70.48 44.14 74.52 50.86 78.74 57.47 C 79.56 58.84 80.43 60.18 81.24 61.55 C 82.11 62.92 82.99 64.27 83.92 65.60 C 83.95 66.20 84.01 67.40 84.04 68.00 C 74.64 68.00 65.23 68.00 55.82 68.00 C 53.27 63.68 50.18 59.71 47.56 55.43 C 46.79 53.84 45.07 53.24 43.56 52.58 C 39.41 57.31 36.59 63.01 32.80 68.02 C 22.78 67.97 12.77 68.04 2.76 67.98 C 3.00 66.83 3.27 65.69 3.56 64.55 C 4.48 63.20 5.41 61.87 6.29 60.49 C 8.28 57.47 10.33 54.50 12.27 51.45 Z" />
<path fill="#ffffff" opacity="1.00" d=" M 65.00 3.00 C 76.67 3.00 88.33 3.00 100.00 2.98 C 102.29 2.86 104.39 3.84 106.50 4.57 C 110.44 6.35 114.02 9.55 114.90 13.94 C 115.22 17.16 115.01 20.40 115.02 23.63 C 113.57 25.77 111.87 27.71 110.10 29.58 C 112.68 32.05 115.27 34.53 117.40 37.42 C 120.27 42.93 121.20 49.65 118.72 55.48 C 116.94 60.59 112.72 64.83 107.50 66.36 C 101.69 69.01 95.21 67.72 89.05 68.01 C 86.57 63.78 83.81 59.72 81.25 55.54 C 80.43 54.17 79.56 52.83 78.73 51.47 C 73.91 44.31 69.39 36.95 65.00 29.51 C 65.00 20.68 65.00 11.84 65.00 3.00 Z" />
<path fill="#ffffff" opacity="1.00" d=" M 123.00 3.00 C 131.00 3.00 139.00 3.00 147.00 3.00 C 147.00 24.67 147.00 46.33 147.00 68.00 C 140.83 68.00 134.67 68.00 128.50 68.00 C 128.51 50.33 128.49 32.67 128.51 15.00 C 128.52 13.33 128.37 11.65 128.13 9.99 C 126.42 10.00 124.71 10.00 123.00 10.01 C 123.00 7.67 123.00 5.34 123.00 3.00 Z" />
<path fill="#ffffff" opacity="1.00" d=" M 0.00 69.30 C 1.40 69.04 1.95 69.61 1.64 71.00 L 0.00 71.00 L 0.00 69.30 Z" />
</g>
<g id="#ee9b00ff">
<path fill="#ee9b00" opacity="1.00" d=" M 43.25 0.00 L 45.50 0.00 C 47.37 1.69 48.86 3.72 50.16 5.86 C 54.03 12.28 57.79 18.78 61.97 25.00 C 62.07 16.67 61.88 8.33 62.10 0.00 L 102.60 0.00 C 109.39 1.52 116.15 6.18 117.76 13.30 C 118.47 18.90 118.76 25.43 114.27 29.65 C 119.71 34.10 123.17 40.89 123.08 47.98 C 123.21 51.66 121.85 55.13 120.86 58.61 C 119.10 61.18 117.37 63.89 114.86 65.80 C 111.27 68.63 106.75 69.81 102.42 71.00 L 86.39 71.00 C 86.38 70.49 86.37 69.47 86.36 68.96 C 85.94 69.47 85.09 70.49 84.67 71.00 L 54.81 71.00 C 50.98 66.16 47.79 60.87 44.41 55.73 C 41.20 60.87 37.73 65.85 34.52 71.00 L 1.64 71.00 C 1.95 69.61 1.40 69.04 0.00 69.30 L 0.00 65.01 C 11.84 45.98 24.55 27.49 36.72 8.67 C 38.65 5.61 40.49 2.41 43.25 0.00 M 12.27 51.45 C 10.33 54.50 8.28 57.47 6.29 60.49 C 5.41 61.87 4.48 63.20 3.56 64.55 C 3.27 65.69 3.00 66.83 2.76 67.98 C 12.77 68.04 22.78 67.97 32.80 68.02 C 36.59 63.01 39.41 57.31 43.56 52.58 C 45.07 53.24 46.79 53.84 47.56 55.43 C 50.18 59.71 53.27 63.68 55.82 68.00 C 65.23 68.00 74.64 68.00 84.04 68.00 C 84.01 67.40 83.95 66.20 83.92 65.60 C 82.99 64.27 82.11 62.92 81.24 61.55 C 80.43 60.18 79.56 58.84 78.74 57.47 C 74.52 50.86 70.48 44.14 66.27 37.52 C 65.44 36.16 64.56 34.83 63.74 33.47 C 59.57 26.83 55.51 20.12 51.27 13.53 C 50.43 12.17 49.58 10.83 48.77 9.46 C 47.34 7.05 45.75 4.75 44.14 2.45 C 33.61 18.85 22.91 35.13 12.27 51.45 M 65.00 3.00 C 65.00 11.84 65.00 20.68 65.00 29.51 C 69.39 36.95 73.91 44.31 78.73 51.47 C 79.56 52.83 80.43 54.17 81.25 55.54 C 83.81 59.72 86.57 63.78 89.05 68.01 C 95.21 67.72 101.69 69.01 107.50 66.36 C 112.72 64.83 116.94 60.59 118.72 55.48 C 121.20 49.65 120.27 42.93 117.40 37.42 C 115.27 34.53 112.68 32.05 110.10 29.58 C 111.87 27.71 113.57 25.77 115.02 23.63 C 115.01 20.40 115.22 17.16 114.90 13.94 C 114.02 9.55 110.44 6.35 106.50 4.57 C 104.39 3.84 102.29 2.86 100.00 2.98 C 88.33 3.00 76.67 3.00 65.00 3.00 Z" />
<path fill="#ee9b00" opacity="1.00" d=" M 149.95 71.00 C 149.96 71.00 149.99 70.99 150.00 70.98 L 150.00 71.00 L 149.95 71.00 Z" />
</g>
<g id="#000000ff">
<path fill="#000000" opacity="1.00" d=" M 120.56 0.00 L 150.00 0.00 L 150.00 70.98 C 149.99 70.99 149.96 71.00 149.95 71.00 L 125.90 71.00 C 125.59 51.73 125.78 32.44 125.80 13.17 C 123.90 12.79 121.29 13.67 120.14 11.65 C 119.83 7.78 119.72 3.81 120.56 0.00 M 123.00 3.00 C 123.00 5.34 123.00 7.67 123.00 10.01 C 124.71 10.00 126.42 10.00 128.13 9.99 C 128.37 11.65 128.52 13.33 128.51 15.00 C 128.49 32.67 128.51 50.33 128.50 68.00 C 134.67 68.00 140.83 68.00 147.00 68.00 C 147.00 46.33 147.00 24.67 147.00 3.00 C 139.00 3.00 131.00 3.00 123.00 3.00 Z" />
</g>
</svg>
