<?xml version="1.0" encoding="UTF-8" standalone="no"?><svg version="1.1" width="700" height="284.99976" viewBox="0 0 700 284.99976" xml:space="preserve" xmlns="http://www.w3.org/2000/svg" xmlns:svg="http://www.w3.org/2000/svg"><path d="M611.48818 0c-12.36617.00016-24.10154 5.459663-32.06744 14.918347-1.50472 1.786916-4.38141 4.70611-11.0059 8.47184-1.5273.868204-3.18586 1.694419-4.91839 2.472633-3.41354 1.533293-8.43567.378059-11.30539-2.023412-6.45469-5.4015-13.63667-9.815424-21.05577-13.228971C514.34134 2.88352 496.39039.040315 476.95237.040315H315.3443c-6.90932.000945-13.52517 1.672933-19.36832 4.634267-5.97514 3.028237-11.09434 7.404853-14.94522 12.720238-5.00133 6.903351-7.99875 15.095141-7.99958 24.271351v.45114c-.00001 6.873256-9.37461 8.88701-12.19807 2.620453l-9.00553-19.988396C245.05291 9.716819 229.7024.051021 213.21381.049913h-78.60785c-7.43511.000306-14.60388 1.986026-20.8542 5.548066-7.48651 4.26654-13.29297 10.430085-17.394816 18.876865L3.3740384 225.4857c-1.744662 3.775-2.59745098 7.01835-3.05047598 11.16717-.666537 6.10415-.279287 13.0467.94067598 17.34298 1.779168 6.26561 4.963106 12.08023 9.2454966 16.89185 3.695161 4.15182 8.326419 7.60434 13.578365 10.05563 5.537857 2.58474 12.749396 4.05547 19.303047 4.05643h69.972823c5.13633-.00038 10.22887-.94458 15.02393-2.78556l.59896-.22845c9.05748-3.47752 16.62851-9.9888 21.42246-18.4238l3.45745-6.08367h36.75354l.81781 1.93318c6.56223 15.50932 21.76755 25.58697 38.60802 25.5883h74.17132c2.46126-.0287 3.08954.02154 5.50774-.4377 1.31508.44445 2.57813.3801 4.24264.3801h166.16363c14.47961 0 25.68285-1.58071 34.60535-3.48817 8.84723-1.89144 16.8873-4.67463 24.01026-8.00535.84481-.39503 1.65931-.78292 2.4496-1.16528 8.45742-3.55179 16.30528-1.38167 22.84306 3.69167 7.26326 5.63631 15.4471 8.80086 25.92425 9.02473h67.1316c12.3121-.00111 22.71755-4.55061 30.2744-11.93315 8.92948-8.72348 12.62894-18.23544 12.63001-29.98835V40.898272c-.00112-12.36853-5.3578-22.463014-13.87784-30.136175-3.82697-3.446568-8.29178-6.197141-13.19634-8.055255C668.31083.958434 662.32317.000475 657.09559 0ZM134.75186 21.7776h78.5349c8.08617.000485 15.42623 4.721558 18.78087 12.079043L287.05301 154.5626c.87044 1.91087 2.74814 2.56461 4.40005 2.20579 1.65191-.35882 3.09079-1.73203 3.09079-3.83182V42.441749c.00135-11.400147 9.24097-20.639762 20.64111-20.641111h163.39728c15.70273 0 31.16108 2.896916 43.56863 8.588944 10.97948 5.03689 20.48753 12.337052 27.1721 22.107796a.09830083.09830083 0 0 0 .09022.042235c2.54694-.221567 5.84404-.66483 9.41827-1.698976 6.4749-1.873401 14.05547-5.021403 20.20726-8.548629 8.68486-4.979621 13.61707-9.476402 16.64419-13.102267 3.92222-4.696805 9.72647-7.412169 15.84558-7.412141h46.55001c11.40015.001351 20.63977 9.240965 20.64111 20.641111V242.59833c-.00134 11.40013-9.24073 20.59944-20.64111 20.60079h-69.97282c-11.40062-.00135-18.67227-9.15769-18.67338-18.4718v-16.42343c0-1.85672-.04463-2.96778-.57975-3.87596-1.06431-1.80627-3.3211-2.28471-5.03359-1.68362-.67081.23546-1.26211.67955-1.6817 1.2056-.17959.22518-.44317.66205-.66806 1.04818-.2249.38613-.40698.71799-.40698.71798-2.32474 4.0737-5.28691 8.26153-9.07657 12.25567-5.95402 6.2753-13.01185 11.39126-22.15387 15.65361-5.68311 2.64962-12.17238 4.99673-19.42399 6.54249-8.3225 1.77399-16.48822 3.00632-30.12081 3.00632H314.20205c-2.00804 0-2.92283-.15954-4.45189-.71607a.09830083.09830083 0 0 0-.06718 0c-1.12719.41027-2.38773.74103-5.15453.74103H228.7292c-3.82817-.00011-6.95819-1.05522-9.83103-2.94489-3.37109-2.21745-5.34207-4.24084-7.63675-9.70048l-6.26029-14.74365a.09830083.09830083 0 0 0-.09023-.05951h-65.93943a.09830083.09830083 0 0 0-.09023.06143l-5.92242 14.5344c-2.30745 5.66235-3.32285 7.18379-5.82259 9.43363-2.41992 2.17802-6.18317 3.41891-10.32632 3.41907H42.108756c-15.075292-.00229-25.061628-15.62864-18.732882-29.31069v-.00192L116.01897 33.749138c3.37914-7.298633 10.68998-11.971197 18.73289-11.971538Z"/><path d="M314.86052 42.280489V242.73654h165.42646c12.61903 0 17.75631-.83333 25.81866-2.55325 5.71812-1.21985 10.71235-2.96737 15.00473-4.97024 6.23913-2.91123 12.54353-7.5294 15.90126-11.07117 3.57915-3.77531 6.34489-8.06851 8.48144-12.98708 3.49871-8.0544 5.09884-16.96009 5.09884-27.70386 0-3.76186-1.11155-13.03474-3.39986-19.07076-1.72358-4.54637-4.11592-8.80599-7.20289-12.30557-4.0915-4.63839-10.36946-9.5346-18.4622-12.97364-3.96545-1.68514-8.58137-3.04838-13.37487-3.83182 3.85428-.99619 7.45909-2.34246 10.70834-4.01994 6.81749-3.51965 11.81568-8.72303 14.8262-13.42095 2.02156-3.15464 3.60398-6.63369 4.7341-10.39543 1.38662-4.61553 2.09251-11.56889 2.09251-15.03737 0-10.9959-2.68295-20.270033-7.56187-27.73457-4.18699-6.405915-10.7614-11.787679-19.2109-15.667048-9.28571-4.263288-20.74107-6.713353-33.87968-6.713353Zm-180.10866.138222L42.108756 242.59833h71.733234l11.18444-27.43894h93.76424l11.53383 27.43894h74.20395L213.28676 42.418711Zm476.77663 0c-4.77771 5.722707-11.76838 11.78746-22.22106 17.780689-7.77373 4.457209-16.60636 8.117588-24.73785 10.470296-5.09438 1.473974-9.83595 2.237036-13.69546 2.559014v48.66365c2.84478-.21606 10.34992-.9353 18.91717-2.71452 3.53273-.73366 7.19357-1.70153 10.66036-3.00824 3.49535-1.31749 6.79483-2.78399 9.57185-4.89919v131.32792h68.055V42.418711ZM383.71414 85.4863H453.184c2.85695 0 3.95569.26758 6.29101.85236 2.36323.59176 4.45817 1.50771 6.27757 2.79708 4.24167 3.00597 6.30636 7.864 6.30636 12.71255 0 3.14688.03703 4.66638-1.02898 8.06101-.64767 2.06243-1.61771 3.76688-2.95065 5.15261-2.79483 2.9055-6.34048 4.3533-11.23244 4.89727-1.41643.1575-3.0266.17662-4.86464.17662h-68.26809Zm-212.12043 16.26793 29.78294 71.60268h-59.07443Zm212.12043 61.09016h75.19646c6.47011 0 11.2446 1.60496 14.79356 4.01802 4.10647 2.79213 6.17199 8.01008 6.17199 14.06407 0 6.5925-1.58276 11.77048-5.68629 14.50943-3.31617 2.21343-8.21931 4.13898-18.22799 4.13898h-72.24773Z"/></svg>