<?xml version="1.0" encoding="UTF-8" standalone="no"?>
<!-- Created with Inkscape (http://www.inkscape.org/) -->

<svg
   xmlns:dc="http://purl.org/dc/elements/1.1/"
   xmlns:cc="http://creativecommons.org/ns#"
   xmlns:rdf="http://www.w3.org/1999/02/22-rdf-syntax-ns#"
   xmlns:svg="http://www.w3.org/2000/svg"
   xmlns="http://www.w3.org/2000/svg"
   xmlns:xlink="http://www.w3.org/1999/xlink"
   xmlns:sodipodi="http://sodipodi.sourceforge.net/DTD/sodipodi-0.dtd"
   xmlns:inkscape="http://www.inkscape.org/namespaces/inkscape"
   sodipodi:docname="directstar.svg"
   height="169.04118"
   width="574.63495"
   inkscape:version="0.47 r22583"
   version="1.1"
   id="svg2">
  <sodipodi:namedview
     pagecolor="#ffffff"
     bordercolor="#666666"
     borderopacity="1"
     objecttolerance="10"
     gridtolerance="10"
     guidetolerance="10"
     inkscape:pageopacity="0"
     inkscape:pageshadow="2"
     inkscape:window-width="1280"
     inkscape:window-height="968"
     id="namedview4"
     showgrid="false"
     inkscape:zoom="1.4599343"
     inkscape:cx="354.56541"
     inkscape:cy="221.6476"
     inkscape:window-x="-4"
     inkscape:window-y="-4"
     inkscape:window-maximized="1"
     inkscape:current-layer="svg2" />
  <metadata
     id="metadata8">
    <rdf:RDF>
      <cc:Work
         rdf:about="">
        <dc:format>image/svg+xml</dc:format>
        <dc:type
           rdf:resource="http://purl.org/dc/dcmitype/StillImage" />
        <dc:title />
      </cc:Work>
    </rdf:RDF>
  </metadata>
  <defs
     id="defs6">
    <linearGradient
       inkscape:collect="always"
       id="linearGradient3717">
      <stop
         style="stop-color:#ffffff;stop-opacity:1;"
         offset="0"
         id="stop3719" />
      <stop
         style="stop-color:#ffffff;stop-opacity:0;"
         offset="1"
         id="stop3721" />
    </linearGradient>
    <linearGradient
       id="linearGradient3680"
       inkscape:collect="always">
      <stop
         id="stop3682"
         offset="0"
         style="stop-color:#ffffff;stop-opacity:1;" />
      <stop
         id="stop3684"
         offset="1"
         style="stop-color:#ffffff;stop-opacity:0;" />
    </linearGradient>
    <linearGradient
       inkscape:collect="always"
       xlink:href="#linearGradient3680"
       id="linearGradient3790"
       gradientUnits="userSpaceOnUse"
       x1="133.79883"
       y1="237.05447"
       x2="133.79883"
       y2="289.30109" />
    <linearGradient
       inkscape:collect="always"
       xlink:href="#linearGradient3680"
       id="linearGradient3792"
       gradientUnits="userSpaceOnUse"
       x1="133.79883"
       y1="237.05447"
       x2="133.79883"
       y2="289.30109" />
    <linearGradient
       inkscape:collect="always"
       xlink:href="#linearGradient3680"
       id="linearGradient3794"
       gradientUnits="userSpaceOnUse"
       x1="133.79883"
       y1="237.05447"
       x2="133.79883"
       y2="289.30109" />
    <linearGradient
       inkscape:collect="always"
       xlink:href="#linearGradient3680"
       id="linearGradient3796"
       gradientUnits="userSpaceOnUse"
       x1="133.79883"
       y1="237.05447"
       x2="133.79883"
       y2="289.30109" />
    <linearGradient
       inkscape:collect="always"
       xlink:href="#linearGradient3680"
       id="linearGradient3798"
       gradientUnits="userSpaceOnUse"
       x1="133.79883"
       y1="237.05447"
       x2="133.79883"
       y2="289.30109" />
    <linearGradient
       inkscape:collect="always"
       xlink:href="#linearGradient3680"
       id="linearGradient3800"
       gradientUnits="userSpaceOnUse"
       x1="133.79883"
       y1="237.05447"
       x2="133.79883"
       y2="289.30109" />
    <linearGradient
       inkscape:collect="always"
       xlink:href="#linearGradient3680"
       id="linearGradient3802"
       gradientUnits="userSpaceOnUse"
       x1="133.79883"
       y1="237.05447"
       x2="133.79883"
       y2="289.30109" />
    <linearGradient
       inkscape:collect="always"
       xlink:href="#linearGradient3680"
       id="linearGradient3804"
       gradientUnits="userSpaceOnUse"
       x1="133.79883"
       y1="237.05447"
       x2="133.79883"
       y2="289.30109" />
    <linearGradient
       inkscape:collect="always"
       xlink:href="#linearGradient3680"
       id="linearGradient3806"
       gradientUnits="userSpaceOnUse"
       x1="133.79883"
       y1="237.05447"
       x2="133.79883"
       y2="289.30109" />
    <linearGradient
       inkscape:collect="always"
       xlink:href="#linearGradient3680"
       id="linearGradient3808"
       gradientUnits="userSpaceOnUse"
       x1="133.79883"
       y1="237.05447"
       x2="133.79883"
       y2="289.30109" />
    <linearGradient
       inkscape:collect="always"
       xlink:href="#linearGradient3680"
       id="linearGradient3870"
       gradientUnits="userSpaceOnUse"
       x1="52.916344"
       y1="244.74832"
       x2="238.63281"
       y2="244.74832" />
    <linearGradient
       inkscape:collect="always"
       xlink:href="#linearGradient3717"
       id="linearGradient3723"
       x1="232.28833"
       y1="268.72336"
       x2="232.28833"
       y2="227.33157"
       gradientUnits="userSpaceOnUse" />
    <linearGradient
       id="linearGradient3680-8"
       inkscape:collect="always">
      <stop
         id="stop3682-8"
         offset="0"
         style="stop-color:#ffffff;stop-opacity:1;" />
      <stop
         id="stop3684-2"
         offset="1"
         style="stop-color:#ffffff;stop-opacity:0;" />
    </linearGradient>
    <linearGradient
       inkscape:collect="always"
       id="linearGradient3678-7">
      <stop
         style="stop-color:#ff0000;stop-opacity:1;"
         offset="0"
         id="stop3680-1" />
      <stop
         style="stop-color:#ff0000;stop-opacity:0;"
         offset="1"
         id="stop3683-2" />
    </linearGradient>
    <linearGradient
       gradientTransform="translate(136.37097,0.43447648)"
       y2="289.30109"
       x2="133.79883"
       y1="237.05447"
       x1="133.79883"
       gradientUnits="userSpaceOnUse"
       id="linearGradient3746"
       xlink:href="#linearGradient3680-8"
       inkscape:collect="always" />
    <linearGradient
       gradientTransform="translate(136.37097,0.43447648)"
       y2="230.3705"
       x2="93.810898"
       y1="267.73788"
       x1="92.825546"
       gradientUnits="userSpaceOnUse"
       id="linearGradient3748"
       xlink:href="#linearGradient3678-7"
       inkscape:collect="always" />
    <linearGradient
       id="linearGradient3680-4"
       inkscape:collect="always">
      <stop
         id="stop3682-6"
         offset="0"
         style="stop-color:#ffffff;stop-opacity:1;" />
      <stop
         id="stop3684-0"
         offset="1"
         style="stop-color:#ffffff;stop-opacity:0;" />
    </linearGradient>
    <linearGradient
       gradientTransform="translate(136.48532,0.21594998)"
       y2="289.30109"
       x2="133.79883"
       y1="237.05447"
       x1="133.79883"
       gradientUnits="userSpaceOnUse"
       id="linearGradient4116"
       xlink:href="#linearGradient3680-4"
       inkscape:collect="always" />
    <linearGradient
       inkscape:collect="always"
       xlink:href="#linearGradient3680"
       id="linearGradient4177"
       gradientUnits="userSpaceOnUse"
       x1="133.79883"
       y1="237.05447"
       x2="133.79883"
       y2="289.30109" />
    <linearGradient
       inkscape:collect="always"
       xlink:href="#linearGradient3680"
       id="linearGradient4179"
       gradientUnits="userSpaceOnUse"
       x1="133.79883"
       y1="237.05447"
       x2="133.79883"
       y2="289.30109" />
    <linearGradient
       inkscape:collect="always"
       xlink:href="#linearGradient3680"
       id="linearGradient4181"
       gradientUnits="userSpaceOnUse"
       x1="133.79883"
       y1="237.05447"
       x2="133.79883"
       y2="289.30109" />
    <linearGradient
       inkscape:collect="always"
       xlink:href="#linearGradient3680"
       id="linearGradient4183"
       gradientUnits="userSpaceOnUse"
       x1="133.79883"
       y1="237.05447"
       x2="133.79883"
       y2="289.30109" />
    <linearGradient
       inkscape:collect="always"
       xlink:href="#linearGradient3680"
       id="linearGradient4185"
       gradientUnits="userSpaceOnUse"
       x1="133.79883"
       y1="237.05447"
       x2="133.79883"
       y2="289.30109" />
    <linearGradient
       inkscape:collect="always"
       xlink:href="#linearGradient3680"
       id="linearGradient4187"
       gradientUnits="userSpaceOnUse"
       x1="133.79883"
       y1="237.05447"
       x2="133.79883"
       y2="289.30109" />
    <linearGradient
       inkscape:collect="always"
       xlink:href="#linearGradient3680"
       id="linearGradient4189"
       gradientUnits="userSpaceOnUse"
       x1="133.79883"
       y1="237.05447"
       x2="133.79883"
       y2="289.30109" />
    <linearGradient
       inkscape:collect="always"
       xlink:href="#linearGradient3680"
       id="linearGradient4191"
       gradientUnits="userSpaceOnUse"
       x1="133.79883"
       y1="237.05447"
       x2="133.79883"
       y2="289.30109" />
    <linearGradient
       inkscape:collect="always"
       xlink:href="#linearGradient3680"
       id="linearGradient4193"
       gradientUnits="userSpaceOnUse"
       x1="133.79883"
       y1="237.05447"
       x2="133.79883"
       y2="289.30109" />
    <linearGradient
       inkscape:collect="always"
       xlink:href="#linearGradient3680-4"
       id="linearGradient4195"
       gradientUnits="userSpaceOnUse"
       gradientTransform="translate(136.48532,0.21594998)"
       x1="133.79883"
       y1="237.05447"
       x2="133.79883"
       y2="289.30109" />
  </defs>
  <path
     id="rect2818"
     d="m 19.739342,1.676842 c -10.006941,0 -18.0625,11.62261 -18.0625,26.03125 l 0,76.687498 c 0,14.40864 8.055559,26 18.0625,26 l 172.687508,0 0,36.96875 43.5,-36.96875 318.96875,0 c 10.00694,0 18.0625,-11.59136 18.0625,-26 l 0,-76.687498 c 0,-14.40864 -8.05556,-26.03125 -18.0625,-26.03125 l -535.156258,0 z"
     style="fill:#000000;fill-opacity:1;fill-rule:nonzero;stroke:#000000;stroke-width:3.35368395;stroke-miterlimit:4;stroke-opacity:1;stroke-dasharray:none" />
  <g
     id="flowRoot2822"
     style="font-size:40px;font-style:normal;font-variant:normal;font-weight:normal;font-stretch:normal;text-align:start;line-height:125%;writing-mode:lr-tb;text-anchor:start;fill:url(#linearGradient3870);fill-opacity:1;fill-rule:nonzero;stroke:none;font-family:Microsoft Sans Serif;-inkscape-font-specification:Microsoft Sans Serif"
     transform="matrix(2.8048278,0,0,2.6913208,-120.25219,-595.55253)">
    <path
       sodipodi:nodetypes="ccscccccccccc"
       id="path2832"
       style="line-height:125%;fill:url(#linearGradient4177);fill-opacity:1;fill-rule:nonzero;stroke:#ffffff;stroke-width:0.36396882;stroke-miterlimit:4;stroke-dasharray:none;font-family:Microsoft Sans Serif;-inkscape-font-specification:Microsoft Sans Serif"
       d="m 52.916344,229.81925 9.824725,0 c 10.521941,3e-5 15.782918,4.83709 15.782947,14.5112 -2.9e-5,9.88763 -5.261006,14.83145 -15.782947,14.83145 l -9.824725,0 0,-29.34265 z m 7.690148,23.97156 3.021758,-0.0955 c 4.493298,0 5.75034,-0.99076 7.384294,-2.97229 2.087744,-3.19399 2.423142,-8.29823 -0.0054,-11.30625 -1.626912,-1.92145 -2.887476,-2.88219 -7.39486,-2.88222 l -3.021758,0.0955 0.01595,17.16076 z" />
    <path
       sodipodi:nodetypes="cccccccccc"
       id="path2834"
       style="line-height:125%;fill:url(#linearGradient4179);fill-opacity:1;fill-rule:nonzero;stroke:#ffffff;stroke-width:0.36396882;stroke-miterlimit:4;stroke-dasharray:none;font-family:Microsoft Sans Serif;-inkscape-font-specification:Microsoft Sans Serif"
       d="m 86.445262,259.1891 -5.136668,0 0,-20.72266 5.136668,0 0,20.72266 z m 0,-24.64844 -5.136668,0 0,-3.98438 5.136668,0 0,3.98438 z" />
    <path
       sodipodi:nodetypes="csccccccscc"
       id="path2836"
       style="line-height:125%;fill:url(#linearGradient4181);fill-opacity:1;fill-rule:nonzero;stroke:#ffffff;stroke-width:0.36396882;stroke-miterlimit:4;stroke-dasharray:none;font-family:Microsoft Sans Serif;-inkscape-font-specification:Microsoft Sans Serif"
       d="m 101.57226,241.82582 c -0.52085,-0.15624 -1.26955,-0.23436 -2.246101,-0.23438 -1.87501,2e-5 -3.483081,0.98309 -4.824219,2.94922 l 0,14.64844 -4.775352,0 0,-21.66588 4.775352,0 0,3.83385 c 1.549471,-2.23957 3.346344,-4.30258 5.390625,-4.3026 0.520825,2e-5 1.080725,0.0521 1.679695,0.15625 l 0,4.6151 z" />
    <path
       sodipodi:nodetypes="cssssscccsssccsccssscc"
       id="path2838"
       style="line-height:125%;fill:url(#linearGradient4183);fill-opacity:1;fill-rule:nonzero;stroke:#ffffff;stroke-width:0.36396882;stroke-miterlimit:4;stroke-dasharray:none;font-family:Microsoft Sans Serif;-inkscape-font-specification:Microsoft Sans Serif"
       d="m 112.61719,259.67738 c -3.04689,0 -5.4948,-0.95378 -7.34375,-2.86133 C 103.42448,254.9085 102.5,252.249 102.5,248.83753 c 0,-3.3854 0.89518,-6.03839 2.68555,-7.95898 1.79036,-1.92055 4.13085,-2.88084 7.02148,-2.88086 2.95572,2e-5 5.31574,0.94403 7.08008,2.83203 1.7643,1.88804 2.64646,4.55731 2.64648,8.00781 l 0,0.87891 -15.60546,0 c 0.15624,2.39584 0.81705,3.40895 1.98242,4.5678 1.16535,1.15886 2.6009,1.73829 4.30664,1.73828 1.28905,1e-5 2.45116,-0.32877 3.48633,-0.98633 1.03514,-0.65754 1.57876,-1.59179 1.63086,-2.80273 l 3.62793,0 c -0.28648,2.13542 -1.07262,4.54678 -2.71973,5.70564 -1.64715,1.15885 -3.65561,1.73828 -6.02539,1.73828 z m 5.42969,-12.85156 c -0.2995,-1.99218 -0.97007,-2.90989 -2.01172,-3.89949 -1.04168,-0.98957 -2.31772,-1.48436 -3.82813,-1.48438 -1.47136,2e-5 -2.73438,0.49156 -3.78906,1.47461 -1.0547,0.98309 -1.72527,1.90406 -2.01172,3.90926 l 11.64063,0 z" />
    <path
       sodipodi:nodetypes="cssscccsssscccccc"
       id="path2840"
       style="line-height:125%;fill:url(#linearGradient4185);fill-opacity:1;fill-rule:nonzero;stroke:#ffffff;stroke-width:0.36396882;stroke-miterlimit:4;stroke-dasharray:none;font-family:Microsoft Sans Serif;-inkscape-font-specification:Microsoft Sans Serif"
       d="m 134.47266,259.67738 c -2.94272,0 -5.29623,-0.94727 -7.06055,-2.8418 -1.76433,-1.89453 -2.64649,-4.56054 -2.64648,-7.99805 -1e-5,-3.4505 0.88215,-6.11977 2.64648,-8.00781 1.76432,-1.888 4.11783,-2.83201 7.06055,-2.83203 5.0216,-0.0205 7.68403,3.536 8.38989,8.52487 -1.26302,0 -3.78906,-0.0636 -3.78906,-0.0636 -0.0143,-2.35637 -2.40098,-3.40339 -3.93676,-3.42596 -1.47648,-0.0217 -3.28508,0.41793 -4.12472,1.68383 -1.46075,2.20232 -1.45011,5.75736 -0.094,8.03122 0.73317,1.22937 2.37445,1.99669 3.75841,1.8747 1.77592,-0.15655 4.22642,-1.00626 4.36662,-3.21571 l 3.78906,0 c -0.53414,5.21667 -3.53356,8.01795 -8.35937,8.27036 l -4e-5,0 0,-2e-5 -3e-5,0 z" />
    <path
       sodipodi:nodetypes="csssccccccccccccsscc"
       id="path2842"
       style="line-height:125%;fill:url(#linearGradient4187);fill-opacity:1;fill-rule:nonzero;stroke:#ffffff;stroke-width:0.36396882;stroke-miterlimit:4;stroke-dasharray:none;font-family:Microsoft Sans Serif;-inkscape-font-specification:Microsoft Sans Serif"
       d="m 157.01161,259.22816 c -0.8073,0.15625 -1.6862,0.23437 -2.63672,0.23437 -1.51042,0 -4.60443,-0.27018 -5.30755,-0.81054 -0.70313,-0.54037 -1.13932,-1.23372 -1.30859,-2.08008 -0.16928,-0.84635 -0.25391,-1.99869 -0.25391,-3.45703 l 0,-11.75781 -2.55859,0 0,-2.89063 2.55859,0 0,-5.15625 5.65912,0 0,5.15625 3.35937,0 0,2.89063 -3.35937,0 0,11.95312 c -1e-5,1.41928 0.17903,2.32097 0.53711,2.70508 0.35806,0.38412 0.8496,0.57617 1.47461,0.57617 0.63801,0 1.24999,-0.0521 1.83593,-0.15625 l 0,2.79297 z" />
    <path
       sodipodi:nodetypes="czcccccssssscccccsssc"
       id="path2844"
       style="line-height:125%;fill:url(#linearGradient4189);fill-opacity:1;fill-rule:nonzero;stroke:#ffffff;stroke-width:0.36396882;stroke-miterlimit:4;stroke-dasharray:none;font-family:Microsoft Sans Serif;-inkscape-font-specification:Microsoft Sans Serif"
       d="m 179.08203,259.67738 c -4.03647,0 -7.05403,-0.90496 -9.05273,-2.71485 -1.9987,-1.8099 -2.66616,-4.80106 -2.77032,-7.63961 l 5.06761,-0.20911 c 0.19531,2.13542 0.7,2.64706 2.28204,3.66919 3.61523,2.29781 8.21439,2.00164 8.6096,-1.86277 -1.43072,-3.44533 -3.45369,-3.00787 -6.41367,-3.74683 -3.27475,-0.6966 -6.13698,-2.33035 -7.56275,-3.56734 -1.42579,-1.23696 -1.37072,-3.55106 -1.37072,-5.60837 0,-2.31768 0.92773,-4.21872 2.78321,-5.70312 1.85546,-1.48435 4.31965,-2.22654 7.39257,-2.22657 3.22916,3e-5 5.83332,0.74873 7.8125,2.2461 1.97915,1.49742 3.02732,4.68043 3.14454,7.41478 l -5.67865,0 c 1.43625,-5.97947 -9.72934,-6.72378 -10.06151,-1.71591 -10e-6,1.19794 0.46549,2.09637 1.39648,2.69531 3.6379,1.4186 5.62643,1.53107 9.57805,3.20738 1.49738,0.54689 2.77993,1.3965 3.84766,2.54883 1.06768,1.15235 1.60154,2.69858 1.60156,4.63867 -2e-5,2.46094 -0.97984,4.50521 -2.93945,6.13281 -1.95966,1.62761 -4.51499,2.44141 -7.66602,2.44141 z" />
    <path
       sodipodi:nodetypes="csssccccccccccccsscc"
       id="path2846"
       style="line-height:125%;fill:url(#linearGradient4191);fill-opacity:1;fill-rule:nonzero;stroke:#ffffff;stroke-width:0.36396882;stroke-miterlimit:4;stroke-dasharray:none;font-family:Microsoft Sans Serif;-inkscape-font-specification:Microsoft Sans Serif"
       d="m 202.55859,259.22816 c -0.8073,0.15625 -1.6862,0.23437 -2.63672,0.23437 -1.51042,0 -3.88179,0.11194 -4.58491,-0.42842 -0.70313,-0.54037 -1.13932,-1.23372 -1.30859,-2.08008 -0.16928,-0.84635 -0.25391,-1.99869 -0.25391,-3.45703 l 0,-11.75781 -2.55859,0 0,-2.89063 2.55859,0 0,-5.15625 4.93648,-0.38212 0,5.15625 3.35937,0 0,2.89063 -3.35937,0 0,11.95312 c -1e-5,1.41928 0.17903,2.32097 0.53711,2.70508 0.35806,0.38412 0.8496,0.57617 1.47461,0.57617 0.63801,0 1.24999,-0.0521 1.83593,-0.15625 l 0,2.79297 z" />
    <path
       sodipodi:nodetypes="cccccacsssccaccsscccc"
       id="path2848"
       style="line-height:125%;fill:url(#linearGradient4193);fill-opacity:1;fill-rule:nonzero;stroke:#ffffff;stroke-width:0.36396882;stroke-miterlimit:4;stroke-dasharray:none;font-family:Microsoft Sans Serif;-inkscape-font-specification:Microsoft Sans Serif"
       d="m 218.2556,253.87485 c 0.68532,-1.41334 0.47487,-4.72482 0.47487,-4.72482 -3.33296,1.69369 -8.20616,-0.95011 -8.35946,3.97335 0,1.0547 0.39062,1.86524 1.17188,2.43164 1.39336,0.88611 3.09586,1.19996 4.5118,0.41142 1.1328,-0.54687 1.75311,-1.16808 2.20091,-2.09159 z m 0.47487,3.18534 c -1.87502,1.74479 -4.29038,2.61719 -7.2461,2.61719 -2.05729,0 -3.75,-0.55664 -5.07812,-1.66992 -1.32813,-1.11328 -1.99219,-2.54883 -1.99219,-4.30664 0,-4.84374 4.17317,-7.26562 12.51953,-7.26563 l 1.79688,0 c -0.28132,-2.34506 -2.22535,-4.73206 -4.37111,-4.98153 -1.63123,-0.18965 -3.93787,0.58702 -4.04203,2.93075 l -5.2978,0 c 0.27344,-4.25779 3.2552,-6.3867 8.94531,-6.38672 2.65624,2e-5 4.72655,0.52736 6.21094,1.58203 1.48436,1.05471 2.22654,3.12502 2.22656,6.21094 l 0,13.39844 -3.67187,0 0,-2.12891 z" />
    <path
       sodipodi:nodetypes="csccccccscc"
       id="path2836-3"
       style="font-size:40px;font-style:normal;font-variant:normal;font-weight:normal;font-stretch:normal;text-align:start;line-height:125%;writing-mode:lr-tb;text-anchor:start;fill:url(#linearGradient4195);fill-opacity:1;fill-rule:nonzero;stroke:#ffffff;stroke-width:0.36396882;stroke-miterlimit:4;stroke-dasharray:none;font-family:Microsoft Sans Serif;-inkscape-font-specification:Microsoft Sans Serif"
       d="m 238.05758,242.04177 c -0.52085,-0.15624 -1.26955,-0.23436 -2.2461,-0.23438 -1.87501,2e-5 -3.48308,0.98309 -4.82422,2.94922 l 0,14.64844 -4.77535,0 0,-21.66588 4.77535,0 0,3.83385 c 1.54947,-2.23957 3.34635,-4.30258 5.39063,-4.3026 0.52082,2e-5 1.08072,0.0521 1.67969,0.15625 l 0,4.6151 z" />
  </g>
</svg>
