<?xml version="1.0" encoding="UTF-8" standalone="no"?>
<!-- Created with Inkscape (http://www.inkscape.org/) -->
<svg
   xmlns:dc="http://purl.org/dc/elements/1.1/"
   xmlns:cc="http://web.resource.org/cc/"
   xmlns:rdf="http://www.w3.org/1999/02/22-rdf-syntax-ns#"
   xmlns:svg="http://www.w3.org/2000/svg"
   xmlns="http://www.w3.org/2000/svg"
   xmlns:sodipodi="http://sodipodi.sourceforge.net/DTD/sodipodi-0.dtd"
   xmlns:inkscape="http://www.inkscape.org/namespaces/inkscape"
   width="339"
   height="100"
   id="svg2"
   sodipodi:version="0.32"
   inkscape:version="0.45.1"
   version="1.0"
   inkscape:output_extension="org.inkscape.output.svg.inkscape">
  <g
     inkscape:label="Layer 1"
     inkscape:groupmode="layer"
     id="layer1"
     transform="translate(-104.75807,-601.4696)">
    <g
       clip-path="url(#id83)"
       id="g6976"
       transform="matrix(12.336023,0,0,-12.336023,-412.67066,5269.2326)">
      <g
         transform="matrix(0.168335,0,0,-0.168335,-586.31165,156.83687)"
         id="g6978">
        <g
           clip-path="url(#id84)"
           id="g6980">
          <g
             clip-path="url(#id85)"
             id="g6982">
            <g
               clip-path="url(#id86)"
               id="g6984">
              <path
                 style="fill:#5ec5ed;fill-rule:nonzero;stroke:none"
                 d="M 3760.822,-1273.343 L 3818.488,-1278.403 L 3760.384,-1278.403 L 3760.822,-1273.343 z "
                 id="path6986" />
              <path
                 style="fill:#008bd0;fill-rule:nonzero;stroke:none"
                 d="M 3752.957,-1278.403 L 3887.952,-1278.403 L 3887.952,-1309.492 L 3752.957,-1309.492 L 3752.957,-1278.403 z "
                 id="path6988" />
              <path
                 style="fill:#004494;fill-rule:nonzero;stroke:none"
                 d="M 3817.134,-1309.492 L 3752.957,-1309.492 L 3752.957,-1278.403 L 3760.384,-1278.403 L 3758.119,-1304.314 L 3817.134,-1309.492 z "
                 id="path6990" />
              <path
                 style="fill:#5ec5ed;fill-rule:nonzero;stroke:none"
                 d="M 3887.952,-1284.494 L 3895.307,-1285.139 L 3892.604,-1316.113 L 3817.134,-1309.492 L 3887.952,-1309.492 L 3887.952,-1284.494 z "
                 id="path6992" />
              <path
                 style="fill:#004494;fill-rule:nonzero;stroke:none"
                 d="M 3887.952,-1284.494 L 3818.488,-1278.403 L 3887.952,-1278.403 L 3887.952,-1284.494 z "
                 id="path6994" />
              <path
                 style="fill:#000000;fill-rule:nonzero;stroke:none"
                 d="M 3732.178,-1267.957 L 3763.326,-1267.957 L 3763.326,-1299.107 L 3732.178,-1299.107 L 3732.178,-1267.957 z "
                 id="path6996" />
              <path
                 style="fill:#ffffff;fill-rule:nonzero;stroke:none"
                 d="M 3757.678,-1281.999 C 3757.678,-1281.999 3757.653,-1281.949 3757.576,-1281.949 L 3750.85,-1281.949 C 3750.751,-1281.949 3750.691,-1281.896 3750.691,-1281.896 C 3750.691,-1281.896 3750.618,-1281.871 3750.618,-1281.74 L 3750.618,-1274.577 C 3750.618,-1274.469 3750.565,-1274.444 3750.565,-1274.444 C 3750.565,-1274.444 3750.537,-1274.389 3750.456,-1274.389 L 3745.125,-1274.389 C 3745.05,-1274.389 3744.995,-1274.444 3744.995,-1274.444 C 3744.995,-1274.444 3744.968,-1274.469 3744.968,-1274.6 L 3744.968,-1281.765 C 3744.968,-1281.845 3744.89,-1281.896 3744.89,-1281.896 C 3744.89,-1281.896 3744.865,-1281.949 3744.786,-1281.949 L 3737.907,-1281.949 C 3737.776,-1281.949 3737.748,-1281.975 3737.748,-1281.975 C 3737.748,-1281.975 3737.695,-1282.031 3737.695,-1282.189 L 3737.695,-1287.435 C 3737.695,-1287.488 3737.748,-1287.565 3737.748,-1287.565 C 3737.748,-1287.565 3737.776,-1287.591 3737.827,-1287.591 L 3744.865,-1287.591 C 3744.919,-1287.591 3744.919,-1287.62 3744.919,-1287.62 C 3744.919,-1287.62 3744.968,-1287.644 3744.968,-1287.696 L 3744.968,-1293.971 C 3744.968,-1294.048 3744.995,-1294.1 3744.995,-1294.1 C 3744.995,-1294.1 3745.05,-1294.128 3745.204,-1294.128 L 3750.433,-1294.128 C 3750.537,-1294.128 3750.565,-1294.1 3750.565,-1294.1 C 3750.565,-1294.1 3750.618,-1294.048 3750.618,-1293.944 L 3750.618,-1287.644 L 3757.446,-1287.644 C 3757.624,-1287.644 3757.678,-1287.62 3757.678,-1287.62 C 3757.678,-1287.62 3757.759,-1287.591 3757.759,-1287.435 L 3757.759,-1282.134 C 3757.759,-1282.083 3757.678,-1281.999 3757.678,-1281.999"
                 id="path6998" />
              <path
                 style="fill:#ffffff;fill-rule:nonzero;stroke:none"
                 d="M 3871.652,-1298.389 L 3869.546,-1292.255 L 3873.704,-1292.255 L 3871.652,-1298.389 z M 3876.325,-1285.093 L 3875.063,-1288.433 L 3868.162,-1288.433 L 3866.85,-1285.093 L 3861.562,-1285.093 L 3868.957,-1304.347 L 3874.398,-1304.347 L 3881.658,-1285.093 L 3876.325,-1285.093 z "
                 id="path7000" />
              <path
                 style="fill:#ffffff;fill-rule:nonzero;stroke:none"
                 d="M 3789.143,-1285.054 L 3794.172,-1285.054 L 3794.172,-1304.39 L 3789.143,-1304.39 L 3789.143,-1285.054 z "
                 id="path7002" />
              <path
                 style="fill:#ffffff;fill-rule:nonzero;stroke:none"
                 d="M 3816.718,-1285.054 L 3811.355,-1285.054 L 3806.192,-1293.721 C 3805.962,-1294.127 3805.678,-1294.618 3805.365,-1295.239 C 3804.725,-1296.449 3804.469,-1296.99 3803.823,-1298.511 L 3803.823,-1297.633 C 3803.823,-1296.214 3803.772,-1295.158 3803.622,-1293.976 L 3802.536,-1285.054 L 3797.632,-1285.054 L 3800.011,-1304.39 L 3805.294,-1304.39 L 3810.815,-1295.06 L 3811.64,-1293.505 L 3812.386,-1292.016 L 3812.775,-1291.29 C 3812.775,-1291.659 3812.775,-1291.912 3812.798,-1292.097 C 3812.824,-1292.839 3812.906,-1293.795 3813.006,-1294.618 L 3814.217,-1304.39 L 3819.09,-1304.39 L 3816.718,-1285.054"
                 id="path7004" />
              <path
                 style="fill:#ffffff;fill-rule:nonzero;stroke:none"
                 d="M 3833.673,-1300.134 L 3827.715,-1300.134 L 3827.715,-1296.917 L 3833.36,-1296.917 L 3833.36,-1292.654 L 3827.715,-1292.654 L 3827.715,-1289.31 L 3833.673,-1289.31 L 3833.673,-1285.054 L 3822.688,-1285.054 L 3822.688,-1304.39 L 3824.36,-1304.39 L 3824.649,-1305.191 L 3832.282,-1305.191 L 3832,-1304.39 L 3833.673,-1304.39 L 3833.673,-1300.134 z "
                 id="path7006" />
              <path
                 style="fill:#ffffff;fill-rule:nonzero;stroke:none"
                 d="M 3839.939,-1304.39 L 3844.921,-1304.39 L 3848.842,-1294.074 L 3852.99,-1304.39 L 3857.964,-1304.39 L 3860.905,-1285.054 L 3855.879,-1285.054 L 3854.433,-1296.193 L 3849.76,-1285.054 L 3847.757,-1285.054 L 3843.321,-1296.193 L 3841.67,-1285.054 L 3836.662,-1285.054 L 3839.939,-1304.39 z "
                 id="path7008" />
              <path
                 style="fill:#ffffff;fill-rule:nonzero;stroke:none"
                 d="M 3783.416,-1285.515 C 3782.487,-1285.054 3780.374,-1284.665 3778.88,-1284.665 C 3773.285,-1284.665 3769.262,-1288.685 3769.262,-1294.286 C 3769.262,-1300.161 3773.902,-1304.779 3779.857,-1304.779 C 3781.379,-1304.779 3782.876,-1304.467 3784.476,-1303.802 C 3785.323,-1303.434 3785.637,-1303.205 3785.637,-1302.92 L 3785.637,-1302.848 L 3785.169,-1299.054 C 3785.12,-1298.586 3785.095,-1298.56 3784.991,-1298.56 C 3784.938,-1298.56 3784.886,-1298.586 3784.809,-1298.64 L 3784.524,-1298.871 C 3783.594,-1299.648 3781.842,-1300.134 3780.321,-1300.134 C 3776.816,-1300.134 3774.288,-1297.761 3774.288,-1294.515 C 3774.288,-1291.475 3776.485,-1289.31 3779.574,-1289.31 C 3781.144,-1289.31 3783.217,-1289.82 3783.828,-1290.366 C 3783.879,-1290.44 3783.958,-1290.465 3783.984,-1290.465 C 3784.061,-1290.465 3784.088,-1290.419 3784.088,-1290.335 C 3784.088,-1290.263 3784.088,-1290.181 3784.061,-1290.056 L 3783.7,-1285.857 C 3783.7,-1285.729 3783.594,-1285.601 3783.416,-1285.515"
                 id="path7010" />
            </g>
          </g>
        </g>
      </g>
    </g>
  </g>
</svg>
