<?xml version="1.0" encoding="UTF-8" ?>
<!DOCTYPE svg PUBLIC "-//W3C//DTD SVG 1.1//EN" "http://www.w3.org/Graphics/SVG/1.1/DTD/svg11.dtd">
<svg width="323pt" height="94pt" viewBox="0 0 323 94" version="1.1" xmlns="http://www.w3.org/2000/svg">
<g id="#000000ff">
<path fill="#000000" opacity="1.00" d=" M 0.00 0.00 L 197.65 0.00 C 197.65 15.60 197.65 31.20 197.64 46.80 C 131.76 46.81 65.88 46.80 0.00 46.80 L 0.00 0.00 M 9.90 20.80 C 8.12 26.75 10.27 33.84 15.58 37.28 C 20.53 40.51 27.02 39.94 32.24 37.65 C 32.53 34.81 32.85 31.97 33.22 29.14 C 30.13 31.69 25.66 32.92 21.93 31.00 C 17.89 29.14 17.04 23.67 19.10 20.05 C 21.85 14.40 30.25 12.87 34.56 17.63 C 34.83 14.77 35.17 11.90 35.49 9.04 C 25.69 4.01 12.40 10.03 9.90 20.80 M 34.00 39.13 C 36.95 39.14 39.90 39.13 42.85 39.13 C 43.71 37.24 44.58 35.36 45.45 33.47 C 49.34 33.47 53.23 33.46 57.12 33.48 C 57.62 35.36 58.13 37.25 58.64 39.14 C 61.61 39.13 64.58 39.13 67.54 39.13 C 64.66 28.69 61.76 18.25 58.87 7.80 C 55.59 7.80 52.32 7.80 49.04 7.80 C 44.03 18.24 39.00 28.68 34.00 39.13 M 72.92 7.80 C 71.74 18.22 70.58 28.64 69.42 39.06 C 72.26 39.07 75.11 39.07 77.96 39.07 C 78.79 32.78 79.14 26.42 80.25 20.17 C 84.31 26.56 88.44 32.91 92.76 39.13 C 95.48 39.05 98.21 39.05 100.94 39.07 C 102.11 28.62 103.27 18.18 104.44 7.74 C 101.65 7.73 98.85 7.73 96.06 7.73 C 95.33 14.11 94.63 20.49 93.90 26.86 C 89.51 20.58 85.37 14.14 81.07 7.80 C 78.35 7.80 75.63 7.80 72.92 7.80 M 102.85 39.13 C 105.78 39.14 108.72 39.14 111.65 39.12 C 112.53 37.23 113.41 35.35 114.30 33.47 C 118.18 33.47 122.06 33.47 125.95 33.47 C 126.44 35.38 126.94 37.29 127.52 39.18 C 130.48 39.12 133.43 39.12 136.39 39.13 C 133.49 28.69 130.57 18.25 127.68 7.81 C 124.40 7.80 121.12 7.80 117.85 7.80 C 112.84 18.24 107.81 28.66 102.85 39.13 M 138.26 39.07 C 144.32 38.99 150.38 39.24 156.44 38.93 C 156.63 36.50 156.90 34.08 157.19 31.67 C 154.02 31.67 150.84 31.66 147.67 31.67 C 148.51 23.71 149.44 15.76 150.31 7.80 C 147.44 7.80 144.58 7.80 141.72 7.80 C 140.57 18.22 139.40 28.64 138.26 39.07 M 169.23 7.81 C 169.24 11.62 169.24 15.44 169.23 19.26 C 165.53 19.27 161.83 19.27 158.12 19.26 C 158.12 21.84 158.11 24.42 158.11 26.99 C 161.82 27.00 165.53 27.00 169.23 27.00 C 169.23 30.87 169.23 34.73 169.24 38.60 C 171.90 38.62 174.57 38.62 177.23 38.53 C 177.13 34.69 177.19 30.85 177.17 27.01 C 180.89 27.00 184.62 27.00 188.34 27.00 C 188.35 24.43 188.36 21.85 188.36 19.28 C 184.63 19.26 180.90 19.27 177.18 19.27 C 177.18 15.44 177.18 11.62 177.17 7.80 C 174.53 7.80 171.88 7.80 169.23 7.81 Z" />
<path fill="#000000" opacity="1.00" d=" M 48.24 27.06 C 49.88 23.34 51.51 19.61 53.16 15.89 C 54.00 19.61 54.83 23.34 55.64 27.07 C 53.17 27.07 50.71 27.07 48.24 27.06 Z" />
<path fill="#000000" opacity="1.00" d=" M 117.07 27.06 C 118.70 23.33 120.34 19.61 122.00 15.89 C 122.84 19.61 123.64 23.34 124.45 27.07 C 121.99 27.07 119.53 27.07 117.07 27.06 Z" />
</g>
<g id="#ffffffff">
<path fill="#ffffff" opacity="1.00" d=" M 9.90 20.80 C 12.40 10.03 25.69 4.01 35.49 9.04 C 35.17 11.90 34.83 14.77 34.56 17.63 C 30.25 12.87 21.85 14.40 19.10 20.05 C 17.04 23.67 17.89 29.14 21.93 31.00 C 25.66 32.92 30.13 31.69 33.22 29.14 C 32.85 31.97 32.53 34.81 32.24 37.65 C 27.02 39.94 20.53 40.51 15.58 37.28 C 10.27 33.84 8.12 26.75 9.90 20.80 Z" />
<path fill="#ffffff" opacity="1.00" d=" M 34.00 39.13 C 39.00 28.68 44.03 18.24 49.04 7.80 C 52.32 7.80 55.59 7.80 58.87 7.80 C 61.76 18.25 64.66 28.69 67.54 39.13 C 64.58 39.13 61.61 39.13 58.64 39.14 C 58.13 37.25 57.62 35.36 57.12 33.48 C 53.23 33.46 49.34 33.47 45.45 33.47 C 44.58 35.36 43.71 37.24 42.85 39.13 C 39.90 39.13 36.95 39.14 34.00 39.13 M 48.24 27.06 C 50.71 27.07 53.17 27.07 55.64 27.07 C 54.83 23.34 54.00 19.61 53.16 15.89 C 51.51 19.61 49.88 23.34 48.24 27.06 Z" />
<path fill="#ffffff" opacity="1.00" d=" M 72.92 7.80 C 75.63 7.80 78.35 7.80 81.07 7.80 C 85.37 14.14 89.51 20.58 93.90 26.86 C 94.63 20.49 95.33 14.11 96.06 7.73 C 98.85 7.73 101.65 7.73 104.44 7.74 C 103.27 18.18 102.11 28.62 100.94 39.07 C 98.21 39.05 95.48 39.05 92.76 39.13 C 88.44 32.91 84.31 26.56 80.25 20.17 C 79.14 26.42 78.79 32.78 77.96 39.07 C 75.11 39.07 72.26 39.07 69.42 39.06 C 70.58 28.64 71.74 18.22 72.92 7.80 Z" />
<path fill="#ffffff" opacity="1.00" d=" M 102.85 39.13 C 107.81 28.66 112.84 18.24 117.85 7.80 C 121.12 7.80 124.40 7.80 127.68 7.81 C 130.57 18.25 133.49 28.69 136.39 39.13 C 133.43 39.12 130.48 39.12 127.52 39.18 C 126.94 37.29 126.44 35.38 125.95 33.47 C 122.06 33.47 118.18 33.47 114.30 33.47 C 113.41 35.35 112.53 37.23 111.65 39.12 C 108.72 39.14 105.78 39.14 102.85 39.13 M 117.07 27.06 C 119.53 27.07 121.99 27.07 124.45 27.07 C 123.64 23.34 122.84 19.61 122.00 15.89 C 120.34 19.61 118.70 23.33 117.07 27.06 Z" />
<path fill="#ffffff" opacity="1.00" d=" M 138.26 39.07 C 139.40 28.64 140.57 18.22 141.72 7.80 C 144.58 7.80 147.44 7.80 150.31 7.80 C 149.44 15.76 148.51 23.71 147.67 31.67 C 150.84 31.66 154.02 31.67 157.19 31.67 C 156.90 34.08 156.63 36.50 156.44 38.93 C 150.38 39.24 144.32 38.99 138.26 39.07 Z" />
<path fill="#ffffff" opacity="1.00" d=" M 169.23 7.81 C 171.88 7.80 174.53 7.80 177.17 7.80 C 177.18 11.62 177.18 15.44 177.18 19.27 C 180.90 19.27 184.63 19.26 188.36 19.28 C 188.36 21.85 188.35 24.43 188.34 27.00 C 184.62 27.00 180.89 27.00 177.17 27.01 C 177.19 30.85 177.13 34.69 177.23 38.53 C 174.57 38.62 171.90 38.62 169.24 38.60 C 169.23 34.73 169.23 30.87 169.23 27.00 C 165.53 27.00 161.82 27.00 158.11 26.99 C 158.11 24.42 158.12 21.84 158.12 19.26 C 161.83 19.27 165.53 19.27 169.23 19.26 C 169.24 15.44 169.24 11.62 169.23 7.81 Z" />
<path fill="#ffffff" opacity="1.00" d=" M 204.91 85.37 C 206.35 74.91 207.90 64.37 209.91 54.06 C 214.89 54.04 219.96 53.66 224.89 54.52 C 229.92 55.71 231.37 62.53 228.38 66.33 C 227.31 67.85 225.44 68.38 223.80 69.02 C 229.75 70.13 231.21 78.09 227.27 82.11 C 225.08 84.93 221.27 85.23 217.98 85.35 C 213.62 85.42 209.26 85.35 204.91 85.37 M 216.91 59.86 C 216.60 61.98 216.27 64.10 215.93 66.22 C 218.16 66.06 221.97 66.01 222.03 62.98 C 222.28 60.17 218.96 59.79 216.91 59.86 M 215.06 71.81 C 214.69 74.29 214.31 76.77 213.92 79.25 C 215.84 79.06 217.87 79.20 219.69 78.42 C 221.61 77.32 221.11 74.85 221.08 73.01 C 219.22 72.04 217.13 71.79 215.06 71.81 Z" />
<path fill="#ffffff" opacity="1.00" d=" M 237.19 54.00 C 240.03 53.99 242.86 54.00 245.70 54.01 C 244.36 61.94 243.21 69.89 241.84 77.81 C 245.31 77.81 248.79 77.81 252.26 77.84 C 251.88 80.35 251.47 82.86 251.06 85.37 C 244.79 85.38 238.53 85.36 232.26 85.38 C 233.89 74.92 235.51 64.46 237.19 54.00 Z" />
<path fill="#ffffff" opacity="1.00" d=" M 254.90 85.36 C 256.20 74.86 258.08 64.44 259.69 53.97 C 265.74 54.04 271.79 53.97 277.84 54.02 C 277.43 56.42 277.04 58.83 276.68 61.24 C 273.43 61.25 270.19 61.26 266.94 61.25 C 266.70 62.94 266.46 64.63 266.22 66.33 C 269.17 66.31 272.12 66.31 275.07 66.32 C 274.82 68.61 274.52 70.89 274.16 73.17 C 271.13 73.18 268.09 73.19 265.07 73.18 C 264.80 74.92 264.53 76.65 264.27 78.39 C 267.49 78.37 270.72 78.37 273.95 78.37 C 273.61 80.71 273.26 83.04 272.86 85.37 C 266.88 85.37 260.89 85.38 254.90 85.36 Z" />
<path fill="#ffffff" opacity="1.00" d=" M 283.24 54.01 C 286.06 54.00 288.89 53.99 291.71 54.00 C 290.81 60.38 289.53 66.71 288.75 73.11 C 288.31 75.33 289.33 78.45 292.00 78.48 C 295.03 79.13 296.98 76.12 297.87 73.69 C 300.05 67.45 300.36 60.77 301.65 54.34 C 304.19 53.52 307.32 54.21 310.08 54.01 C 309.20 59.94 308.29 65.88 307.32 71.80 C 306.60 75.45 306.06 79.49 303.30 82.25 C 299.16 86.50 292.47 87.09 287.01 85.47 C 282.96 84.30 279.73 80.37 280.13 76.03 C 280.57 68.62 282.20 61.35 283.24 54.01 Z" />
</g>
<g id="#253fb6ff">
<path fill="#253fb6" opacity="1.00" d=" M 197.64 46.80 C 239.43 46.84 281.21 46.79 323.00 46.82 L 323.00 93.57 C 281.22 93.54 239.44 93.58 197.66 93.55 C 197.66 77.97 197.70 62.38 197.64 46.80 M 204.91 85.37 C 209.26 85.35 213.62 85.42 217.98 85.35 C 221.27 85.23 225.08 84.93 227.27 82.11 C 231.21 78.09 229.75 70.13 223.80 69.02 C 225.44 68.38 227.31 67.85 228.38 66.33 C 231.37 62.53 229.92 55.71 224.89 54.52 C 219.96 53.66 214.89 54.04 209.91 54.06 C 207.90 64.37 206.35 74.91 204.91 85.37 M 237.19 54.00 C 235.51 64.46 233.89 74.92 232.26 85.38 C 238.53 85.36 244.79 85.38 251.06 85.37 C 251.47 82.86 251.88 80.35 252.26 77.84 C 248.79 77.81 245.31 77.81 241.84 77.81 C 243.21 69.89 244.36 61.94 245.70 54.01 C 242.86 54.00 240.03 53.99 237.19 54.00 M 254.90 85.36 C 260.89 85.38 266.88 85.37 272.86 85.37 C 273.26 83.04 273.61 80.71 273.95 78.37 C 270.72 78.37 267.49 78.37 264.27 78.39 C 264.53 76.65 264.80 74.92 265.07 73.18 C 268.09 73.19 271.13 73.18 274.16 73.17 C 274.52 70.89 274.82 68.61 275.07 66.32 C 272.12 66.31 269.17 66.31 266.22 66.33 C 266.46 64.63 266.70 62.94 266.94 61.25 C 270.19 61.26 273.43 61.25 276.68 61.24 C 277.04 58.83 277.43 56.42 277.84 54.02 C 271.79 53.97 265.74 54.04 259.69 53.97 C 258.08 64.44 256.20 74.86 254.90 85.36 M 283.24 54.01 C 282.20 61.35 280.57 68.62 280.13 76.03 C 279.73 80.37 282.96 84.30 287.01 85.47 C 292.47 87.09 299.16 86.50 303.30 82.25 C 306.06 79.49 306.60 75.45 307.32 71.80 C 308.29 65.88 309.20 59.94 310.08 54.01 C 307.32 54.21 304.19 53.52 301.65 54.34 C 300.36 60.77 300.05 67.45 297.87 73.69 C 296.98 76.12 295.03 79.13 292.00 78.48 C 289.33 78.45 288.31 75.33 288.75 73.11 C 289.53 66.71 290.81 60.38 291.71 54.00 C 288.89 53.99 286.06 54.00 283.24 54.01 Z" />
<path fill="#253fb6" opacity="1.00" d=" M 216.91 59.86 C 218.96 59.79 222.28 60.17 222.03 62.98 C 221.97 66.01 218.16 66.06 215.93 66.22 C 216.27 64.10 216.60 61.98 216.91 59.86 Z" />
<path fill="#253fb6" opacity="1.00" d=" M 215.06 71.81 C 217.13 71.79 219.22 72.04 221.08 73.01 C 221.11 74.85 221.61 77.32 219.69 78.42 C 217.87 79.20 215.84 79.06 213.92 79.25 C 214.31 76.77 214.69 74.29 215.06 71.81 Z" />
</g>
</svg>
