<?xml version="1.0" encoding="utf-8"?>
<!-- Generator: Adobe Illustrator 21.1.0, SVG Export Plug-In . SVG Version: 6.00 Build 0)  -->
<svg version="1.1" id="Layer_1" xmlns="http://www.w3.org/2000/svg" xmlns:xlink="http://www.w3.org/1999/xlink" x="0px" y="0px"
	 viewBox="0 0 187.6 324" style="enable-background:new 0 0 187.6 324;" xml:space="preserve">
<style type="text/css">
	.st0{fill:#EF3E3F;}
	.st1{fill:#FFFFFF;}
</style>
<g>
	<path class="st0" d="M182.7,0h-0.4c-0.8,0-1.7,0.1-2.6,0.3L8.6,37.3c-6.3,1.4-8.6,4-8.6,11l0,227.5c0,7,2.4,9.6,8.6,10.9l171.1,37
		c5.2,1.2,7.9-0.5,7.9-4.9c0-152.9,0-160.2,0-313.5C187.5,1.8,185.9,0.1,182.7,0L182.7,0z"/>
	<path class="st1" d="M105.3,179.2C82,196.9,63.7,208,55.3,221c-8.5,13-7.6,31.5-9.3,46.3h141.7v-40.7H116
		c4.4-4.5,8.4-8.1,11.7-10.9c3.3-2.8,9.9-7.6,19.7-14.6c16.5-11.8,28.2-18.2,34.4-28.2c2.5-4,4.4-8.8,5.9-13.8v-40.3
		c-1.3-3.4-3-6.7-5-9.8c-5.4-8.3-12.9-14.4-22.4-18.4c-9.5-4-22.9-6-40-6c-16.4,0-29.3,2.1-38.5,6.3c-9.3,4.2-15.8,10.7-21.6,18.1
		c-6,7.7-12.1,31.7-11.7,46.4l49.1-0.1c-1.9-22.3,3.2-36.6,24-36.6c6,0,10.9,2,14.9,5.8c3.9,3.9,5.9,8.6,5.9,14c0,5.1-2,10.4-6,16.1
		C132.3,160.4,119.6,168.4,105.3,179.2z"/>
</g>
<g>
	<path class="st1" d="M170,51.4c-8,0-10.7,4.5-10.7,11.4c0,7.5,3.1,11.2,10.4,11.2c8.5,0,9.7-4.3,10.1-6.9h-5.6
		c-0.4,1.3-0.6,2.6-4.1,2.6c-4.1,0-5.2-1.8-5.2-5.2l15.3,0C180.6,58.3,179.5,51.4,170,51.4z M165.1,60.6c0.3-2.2,0.5-4.8,5.1-4.8
		c3.7,0,4.2,2.3,4.2,4.8H165.1z"/>
	<path class="st1" d="M144.9,69.9c-3.7,0-4.8-2.6-4.8-7.5c0-3.4,0.9-6.5,5-6.5c4.2,0,4.1,1.9,4.4,3.6h5.4c0-4.2-2.4-7.9-9.5-7.9
		c-8.2,0-11,4.8-11,11.2c0,7.6,3.7,11.4,10.5,11.4c8.4,0,10.1-5.2,10.1-8.6h-5.6C149.3,67.8,149.6,69.9,144.9,69.9z"/>
	<path class="st1" d="M121.2,51.4c-4.8,0-5.3,2.2-5.7,3.5V52H110v21.5h5.7V59.6c0-3,1.3-3.7,3.6-3.7c3,0,3.8,1.2,3.8,3.4v14.2h5.7
		V58.3C128.8,53.2,126.2,51.4,121.2,51.4z"/>
	<path class="st1" d="M103,67.7v-9.1c0-5.2-2.7-7.1-8.6-7.1c-7.1,0-9.4,2.7-9.5,6.4v0.9h5.2c0.2-1.8,0-3.3,4-3.3
		c2.7,0,3.4,1,3.4,2.5c0,1-0.2,1.8-0.5,2.1c-1.2,0.8-7.3,0.5-10,1.7C85.3,62.6,84,64,84,67.1c0,4.3,2.3,7,7.8,7
		c2.9,0,4.7-0.5,6.2-3.2c0.3,0.5,0.5,1.3,1.1,1.8c0.8,0.7,1.6,0.8,2.6,0.8h2.8v-4.2c-0.7,0-1.1-0.2-1.3-0.3
		C103.1,68.9,103,68.6,103,67.7z M97.5,65.3c0,2.8-1.4,4.6-4.8,4.6c-1.3,0-3-0.3-3-2.5c0-4,4.4-2.7,7.1-4c0.2-0.1,0.4-0.2,0.6-0.3
		V65.3z"/>
	<path class="st1" d="M72.8,56v-4h-5.1v21.5h5.7V61.9c0-1,0.1-3,1.1-4.2c0.8-1,2-1.3,3.3-1.3h3.5v-4.7c-0.9-0.1-1.8-0.2-2.8-0.2
		C74.2,51.4,73.6,53.8,72.8,56z"/>
	<path class="st1" d="M54.3,45c-1.3,1-1.6,2.3-1.6,4v3h-2.8v3.7h2.8v17.8h5.7V55.7h3.6V52h-3.6v-2.3c0-0.6,0.1-0.8,0.3-1.1
		c0.3-0.3,1-0.4,1.7-0.4h1.6v-4.3h-3C57.5,43.8,55.5,44,54.3,45z"/>
</g>
</svg>
