<?xml version="1.0" encoding="UTF-8" standalone="no"?>
<svg xmlns:svg="http://www.w3.org/2000/svg" xmlns="http://www.w3.org/2000/svg" xmlns:xlink="http://www.w3.org/1999/xlink"
	version="1.1" width="917px" height="383px" viewBox="0 0 917 383" xml:space="preserve">
	<defs>
		<clipPath id="SVGID1">
			<path  d="M 57.499,17.833 C 32.761,17.833 12.518,38.076 12.518,62.794 V 243.12 C 12.518,267.83 32.761,288.09 57.499,288.09 H 411.96 V 364.65 L 505.7,288.09 H 858.97 C 883.71,288.09 903.94,267.83 903.94,243.12 V 62.794 C 903.94,38.076 883.71,17.833 858.97,17.833 H 57.499 z" />
		</clipPath>
	</defs>
	<linearGradient x1="-56.5" y1="600" x2="-52.359" y2="600" id="SVGID3"
		gradientUnits="userSpaceOnUse"
		gradientTransform="matrix(0,84.199,84.199,0,-50067,4773.2)">
		<stop id="stop14" style="stop-color :#009EE3; stop-opacity :1;" offset="0.0000" />
		<stop id="stop16" style="stop-color :#0298DE; stop-opacity :1;" offset="0.1523" />
		<stop id="stop18" style="stop-color :#0886D0; stop-opacity :1;" offset="0.3605" />
		<stop id="stop20" style="stop-color :#1369B9; stop-opacity :1;" offset="0.6010" />
		<stop id="stop22" style="stop-color :#214299; stop-opacity :1;" offset="0.8638" />
		<stop id="stop24" style="stop-color :#292A86; stop-opacity :1;" offset="1.0000" />
	</linearGradient>
	<rect x="12.518" y="17.833" width="891.42" height="346.81" clip-path="url(#SVGID1)" style="fill:url(#SVGID3)" />
	<g style="fill:#ffffff" >
		<path d="M 65.649,68.917 H 134.24 C 183.18,68.917 212.5,98.656 212.5,148.03 212.5,200.32 182.73,228.47 134.24,228.47 H 65.649 V 68.917 z M 107.21,192.74 H 126.87 C 158.37,192.04 170.91,179.77 170.91,147.8 170.91,118.75 155.28,104.66 126.87,104.66 H 107.21 V 192.74 z" />
		<path d="M 262.01,97.988 H 224.04 V 68.918 H 262.01 V 97.988 z M 224.04,112.51 H 262.01 V 228.47 H 224.04 V 112.51 z" />
		<path d="M 279.15,112.51 H 316.04 V 132.81 H 316.46 C 322.08,118.09 335.03,110.27 351.35,110.27 354.24,110.27 357.41,110.48 360.3,111.15 V 145.79 C 355.37,144.44 350.92,143.56 345.73,143.56 326.99,143.56 317.14,156.51 317.14,171.04 V 228.47 H 279.15 V 112.51 z" />
		<path d="M 399.07,179.77 C 399.71,195.63 408.87,206.16 424.98,206.16 434.14,206.16 443.08,201.88 446.67,193.42 H 482.22 C 475.26,220.22 450.46,231.85 424.52,231.85 386.75,231.85 361.06,209.05 361.06,170.16 361.06,134.61 389.45,109.14 423.66,109.14 465.19,109.14 486,140.43 484.2,179.77 H 399.07 z M 446.19,158.52 C 445.52,145.58 436.39,134.85 423.66,134.85 410.21,134.85 401.29,144.45 399.07,158.52 H 446.19 z" />
		<path d="M 571.88,154.96 C 571.7,145.13 562.95,138.2 553.35,138.2 532.11,138.2 528.76,156.3 528.76,172.4 528.76,187.36 535.25,202.78 551.35,202.78 564.53,202.78 571.2,195.17 573.01,182.89 H 609.9 C 606.55,213.96 582.39,231.85 551.56,231.85 516.71,231.85 490.78,207.93 490.78,172.4 490.78,135.53 514.23,109.14 551.56,109.14 580.39,109.14 606.1,124.31 608.76,154.96 H 571.88 z" />
		<path d="M 692.04,137.06 H 668.55 V 189.82 C 668.55,198.99 673.93,201.01 682.19,201.01 685.33,201.01 688.68,200.55 692.04,200.55 V 228.48 C 685.12,228.71 678.16,229.61 671.24,229.61 638.85,229.61 630.57,220.22 630.57,188.7 V 137.06 H 611.32 V 112.51 H 630.57 V 77.39 H 668.55 V 112.51 H 692.04 V 137.06 z" />
		<path d="M 760.74,147.16 V 146.72 C 745.79,143.16 737.53,129.95 737.53,114.97 737.53,84.143 769.28,72.078 795.43,72.078 822,72.078 852.65,84.142 852.65,115.22 852.65,129.28 843.95,143.57 829.64,146.72 V 147.16 C 847.5,150.74 858.9,164.38 858.9,184.04 858.9,218.46 826.04,231.86 795.2,231.86 764.56,231.86 730.83,220.48 730.83,184.04 730.83,165.92 742.91,150.29 760.74,147.16 M 768.82,182.03 C 768.82,197.47 781.57,203.94 794.97,203.94 807.91,203.94 820.88,197.9 820.88,182.03 820.88,167.73 809.51,159.66 795.2,159.66 781.57,159.66 768.82,166.82 768.82,182.03 M 771.28,117.88 C 771.28,131.75 783.34,136.22 794.97,136.22 806.14,136.22 818.91,131.3 818.91,117.88 818.91,105.15 807.27,100 794.97,100 782.47,100 771.28,104.89 771.28,117.88" />
	</g>
</svg>