<?xml version="1.0" encoding="UTF-8" standalone="no"?>
<!-- Created with Inkscape (http://www.inkscape.org/) -->

<svg
   xmlns:dc="http://purl.org/dc/elements/1.1/"
   xmlns:cc="http://creativecommons.org/ns#"
   xmlns:rdf="http://www.w3.org/1999/02/22-rdf-syntax-ns#"
   xmlns:svg="http://www.w3.org/2000/svg"
   xmlns="http://www.w3.org/2000/svg"
   xmlns:xlink="http://www.w3.org/1999/xlink"
   xmlns:sodipodi="http://sodipodi.sourceforge.net/DTD/sodipodi-0.dtd"
   xmlns:inkscape="http://www.inkscape.org/namespaces/inkscape"
   width="300"
   height="300"
   id="svg2"
   version="1.1"
   inkscape:version="0.47 r22583">
  <g
     inkscape:label="Layer 1"
     inkscape:groupmode="layer"
     id="layer1"
     transform="translate(56.851201,-150.01895)">
    <path
       id="path6837"
       d="m -56.851201,150.01895 299.999991,0 0,299.99999 -299.999991,0 z"
       style="fill:#231f20;fill-rule:nonzero;stroke:none" />
    <path
       id="path6839"
       d="m 92.724194,351.00968 c -16.617343,0 -30.146679,-13.51003 -30.146679,-30.12738 0,-16.59804 13.529336,-30.10808 30.146679,-30.10808 16.598046,0 30.108076,13.51004 30.108076,30.10808 0,16.61735 -13.51003,30.12738 -30.108076,30.12738"
       style="fill:#ffffff;fill-rule:nonzero;stroke:none" />
    <path
       id="path6841"
       d="m -15.992993,303.55086 0,6.63921 75.328099,0 c 0.733402,-2.3353 1.717705,-4.53551 2.895008,-6.63921 l -78.223107,0"
       style="fill:#ffffff;fill-rule:nonzero;stroke:none" />
    <path
       id="path6843"
       d="m 57.810402,317.8329 -73.803395,0 0,6.61991 73.841995,0 c -0.1158,-1.158 -0.1737,-2.3546 -0.1737,-3.57051 0,-1.0229 0.0579,-2.0458 0.1351,-3.0494"
       style="fill:#ffffff;fill-rule:nonzero;stroke:none" />
    <path
       id="path6845"
       d="m -15.992993,332.11493 0,6.61992 78.531908,0 c -1.215904,-2.08441 -2.238806,-4.30391 -3.030108,-6.61992 l -75.5018,0"
       style="fill:#ffffff;fill-rule:nonzero;stroke:none" />
    <path
       id="path6847"
       d="m 202.34848,310.19007 0,-6.63921 -78.6863,0 c 1.1773,2.1037 2.1616,4.30391 2.895,6.63921 l 75.7913,0"
       style="fill:#ffffff;fill-rule:nonzero;stroke:none" />
    <path
       id="path6849"
       d="m 128.02399,324.45281 74.32449,0 0,-6.61991 -74.26659,0 c 0.0772,1.0036 0.1351,2.0265 0.1351,3.0494 0,1.21591 -0.0579,2.41251 -0.193,3.57051"
       style="fill:#ffffff;fill-rule:nonzero;stroke:none" />
    <path
       id="path6851"
       d="m 202.34848,338.73485 0,-6.61992 -75.965,0 c -0.7913,2.31601 -1.7949,4.53551 -3.0301,6.61992 l 78.9951,0"
       style="fill:#ffffff;fill-rule:nonzero;stroke:none" />
    <path
       id="path6853"
       d="m -7.751871,234.53387 3.2038084,0 c 5.40401431,0 7.0831187,1.67911 7.0831187,7.41122 0,5.73212 -1.67910439,7.41122 -7.0831187,7.41122 l -3.2038084,0 0,-14.82244 z m 0,41.37931 0,-19.76325 3.6091095,0 c 10.209727,0 14.9382395,-3.93721 14.9382395,-14.20484 0,-10.26762 -4.7285125,-14.20483 -14.9382395,-14.20483 l -11.8695315,0 0,48.17292 8.260422,0"
       style="fill:#ffffff;fill-rule:nonzero;stroke:none" />
    <path
       id="path6855"
       d="m 17.608396,275.91318 0,-48.17292 8.299022,0 0,40.95471 13.027534,0 0,7.21821 -21.326556,0"
       style="fill:#ffffff;fill-rule:nonzero;stroke:none" />
    <path
       id="path6857"
       d="m 58.119203,237.33238 0.1351,0 3.261709,20.68966 -6.677818,0 3.281009,-20.68966 z m -4.477612,27.88858 9.090324,0 1.466804,10.69222 8.009521,0 -8.878023,-48.17292 -10.306227,0 -8.878024,48.17292 8.009521,0 1.486104,-10.69222"
       style="fill:#ffffff;fill-rule:nonzero;stroke:none" />
    <path
       id="path6859"
       d="m 80.352862,275.91318 0,-48.17292 7.66212,0 10.074627,27.54117 0.1351,0 0,-27.54117 7.469121,0 0,48.17292 -7.19892,0 -10.537828,-30.10808 -0.1351,0 0,30.10808 -7.46912,0"
       style="fill:#ffffff;fill-rule:nonzero;stroke:none" />
    <path
       id="path6861"
       d="m 117.04226,275.91318 0,-48.17292 22.15646,0 0,7.19892 -13.87674,0 0,12.40993 10.67293,0 0,7.19892 -10.67293,0 0,14.14694 14.80314,0 0,7.21821 -23.08286,0"
       style="fill:#ffffff;fill-rule:nonzero;stroke:none" />
    <path
       id="path6863"
       d="m 154.79316,234.93918 -7.99022,0 0,-7.19892 24.27946,0 0,7.19892 -8.00952,0 0,40.974 -8.27972,0 0,-40.974"
       style="fill:#ffffff;fill-rule:nonzero;stroke:none" />
    <path
       id="path6865"
       d="m 179.28492,275.91318 0,-48.17292 22.15646,0 0,7.19892 -13.87673,0 0,12.40993 10.67292,0 0,7.19892 -10.67292,0 0,14.14694 14.80313,0 0,7.21821 -23.08286,0"
       style="fill:#ffffff;fill-rule:nonzero;stroke:none" />
    <path
       id="path6867"
       d="m 80.101961,340.91576 c 0,0 -0.0193,-0.0193 0,0 1.351004,-0.42461 3.319609,-1.29311 6.388317,-3.20381 -3.068708,1.93 -5.037313,2.7985 -6.388317,3.20381"
       style="fill:#005cab;fill-rule:nonzero;stroke:none" />
    <path
       id="path6869"
       d="m 116.01936,320.8823 c 0,-4.09161 -1.04221,-7.93232 -2.87571,-11.27123 -0.5211,1.23521 -1.42821,2.93361 -3.03011,5.30752 -2.21951,3.30031 -5.77071,7.91302 -10.576428,12.58363 -4.844312,4.65131 -9.630725,8.06742 -13.046834,10.20973 -3.068708,1.9107 -5.037313,2.7792 -6.388317,3.20381 3.58981,2.2195 7.835821,3.51261 12.371333,3.51261 12.988936,0 23.546066,-10.55713 23.546066,-23.54607"
       style="fill:#005cab;fill-rule:nonzero;stroke:none" />
    <path
       id="path6871"
       d="m 68.907932,320.8823 c 0,3.91791 0.984302,7.60422 2.663407,10.84663 0.501801,-1.2545 1.408903,-2.97221 3.068708,-5.44261 2.219506,-3.30031 5.751415,-7.93232 10.576428,-12.60294 4.825012,-4.65131 9.630725,-8.04812 13.046834,-10.20972 2.702011,-1.67911 4.535511,-2.56691 5.867211,-3.03011 -3.4354,-1.96861 -7.411215,-3.10731 -11.657226,-3.10731 -12.988935,0 -23.565362,10.55713 -23.565362,23.54606"
       style="fill:#2aa243;fill-rule:nonzero;stroke:none" />
    <path
       id="path6873"
       d="m 99.537112,327.50222 c 4.805718,-4.67061 8.356918,-9.28332 10.576428,-12.58363 1.6019,-2.37391 2.50901,-4.07231 3.03011,-5.30752 -2.10371,-3.82141 -5.23032,-7.00592 -9.01313,-9.16752 -1.3317,0.4632 -3.1652,1.351 -5.867211,3.03011 -3.416109,2.1616 -8.221822,5.55841 -13.046834,10.20972 -4.825013,4.67062 -8.356922,9.30263 -10.576428,12.60294 -1.659805,2.4704 -2.566907,4.18811 -3.068708,5.44261 1.968605,3.76351 4.921513,6.94802 8.530622,9.18683 1.351004,-0.40531 3.319609,-1.27381 6.388317,-3.20381 3.416109,-2.14231 8.202522,-5.55842 13.046834,-10.20973"
       style="fill:#ed1b2d;fill-rule:nonzero;stroke:none" />
  </g>
</svg>
