<?xml version="1.0" encoding="UTF-8" standalone="no"?>
<!-- Created with Inkscape (http://www.inkscape.org/) -->
<svg
   xmlns:dc="http://purl.org/dc/elements/1.1/"
   xmlns:cc="http://web.resource.org/cc/"
   xmlns:rdf="http://www.w3.org/1999/02/22-rdf-syntax-ns#"
   xmlns:svg="http://www.w3.org/2000/svg"
   xmlns="http://www.w3.org/2000/svg"
   xmlns:sodipodi="http://sodipodi.sourceforge.net/DTD/sodipodi-0.dtd"
   xmlns:inkscape="http://www.inkscape.org/namespaces/inkscape"
   width="294"
   height="508"
   id="svg2"
   sodipodi:version="0.32"
   inkscape:version="0.45.1"
   version="1.0"
   inkscape:output_extension="org.inkscape.output.svg.inkscape">
  <g
     inkscape:label="Layer 1"
     inkscape:groupmode="layer"
     id="layer1"
     transform="translate(-15.13236,-263.9208)">
    <g
       id="g2990"
       clip-path="url(#id697)"
       transform="matrix(1,0,0,-1,-1033.2665,1137.4711)">
      <path
         id="path2992"
         d="M 0,513.543 L 0,513.543 L 0,513.543 L 0,513.543 z "
         style="fill:#ffffff;fill-rule:nonzero;stroke:none" />
    </g>
    <g
       id="g6932"
       clip-path="none"
       transform="matrix(17.531358,0,0,-17.531358,-22441.985,7570.8853)">
      <path
         id="path6934"
         d="M 1297.7374,399.4396 C 1297.2324,401.2173 1295.7814,402.1695 1293.7573,402.396 C 1293.759,402.396 1295.8608,403.9456 1297.7384,405.4686 L 1297.7384,408.7909 L 1285.6677,408.7909 L 1285.6674,405.0908 L 1292.4707,405.0908 C 1292.4568,405.0798 1288.2092,401.793 1288.2092,401.793 L 1289.8005,399.4127 C 1289.8005,399.4127 1290.7568,399.9058 1291.6191,399.9058 C 1293.1467,399.9058 1293.748,399.2653 1293.748,397.8219 C 1293.748,396.2574 1293.0309,395.5661 1291.5885,395.5661 C 1289.8417,395.5661 1289.4839,396.8152 1289.4839,397.712 L 1285.188,397.712 C 1285.1073,394.6703 1286.9653,392.4988 1291.3784,392.4988 C 1294.7939,392.4988 1297.0793,393.6908 1297.7374,396.2554"
         style="fill:#ffffff;fill-rule:nonzero;stroke:none" />
      <path
         id="path6936"
         d="M 1296.5677,411.3793 L 1295.7354,411.3793 C 1295.7582,411.5735 1295.7808,411.8073 1296.1948,411.8073 C 1296.5232,411.8073 1296.5677,411.6025 1296.5677,411.3793 z M 1295.2183,411.1779 C 1295.2183,410.5073 1295.4952,410.1738 1296.1503,410.1738 C 1296.911,410.1738 1297.0172,410.5548 1297.0577,410.7937 L 1296.5607,410.7937 C 1296.5286,410.6795 1296.5056,410.5591 1296.1915,410.5591 C 1295.829,410.5591 1295.7223,410.7167 1295.7223,411.0235 L 1297.0909,411.0235 C 1297.1199,411.5771 1297.0172,412.1957 1296.1729,412.1957 C 1295.4586,412.1957 1295.2183,411.7893 1295.2183,411.1779"
         style="fill:#ffffff;fill-rule:nonzero;stroke:none" />
      <path
         id="path6938"
         d="M 1293.9799,412.1957 C 1294.6146,412.1957 1294.8306,411.8582 1294.8306,411.4846 L 1294.3447,411.4846 C 1294.3182,411.6331 1294.3241,411.8073 1293.9469,411.8073 C 1293.5739,411.8073 1293.4971,411.5258 1293.4971,411.2219 C 1293.4971,410.7786 1293.595,410.5475 1293.9244,410.5475 C 1294.3447,410.5475 1294.3182,410.7349 1294.3447,410.94 L 1294.8464,410.94 C 1294.8464,410.6383 1294.6891,410.1738 1293.9393,410.1738 C 1293.3311,410.1738 1292.9963,410.5123 1292.9963,411.1927 C 1292.9963,411.7674 1293.2438,412.1957 1293.9799,412.1957"
         style="fill:#ffffff;fill-rule:nonzero;stroke:none" />
      <path
         id="path6940"
         d="M 1290.8059,412.1452 L 1291.2971,412.1452 L 1291.2971,411.8842 C 1291.3335,412.0013 1291.3784,412.1957 1291.808,412.1957 C 1292.2512,412.1957 1292.485,412.0413 1292.485,411.5843 L 1292.485,410.2256 L 1291.9774,410.2256 L 1291.9774,411.4963 C 1291.9774,411.6866 1291.9037,411.7968 1291.64,411.7968 C 1291.4279,411.7968 1291.3143,411.7269 1291.3143,411.4633 L 1291.3143,410.2256 L 1290.8059,410.2256"
         style="fill:#ffffff;fill-rule:nonzero;stroke:none" />
      <path
         id="path6942"
         d="M 1289.63,411.1262 C 1289.6472,411.1331 1289.6687,411.1443 1289.6876,411.1558 L 1289.6876,410.9583 C 1289.6917,410.7087 1289.5638,410.544 1289.2596,410.544 C 1289.1469,410.544 1288.9934,410.5732 1288.9934,410.772 C 1288.9934,411.1262 1289.3907,411.013 1289.63,411.1262 z M 1289.6876,411.6105 C 1289.6876,411.5222 1289.6687,411.4486 1289.6398,411.4239 C 1289.5356,411.3499 1288.9897,411.3793 1288.7471,411.2728 C 1288.6006,411.2005 1288.4838,411.075 1288.4838,410.7965 C 1288.4838,410.4087 1288.6863,410.1738 1289.1794,410.1738 C 1289.4357,410.1738 1289.5984,410.2181 1289.7332,410.4562 C 1289.7571,410.4127 1289.7791,410.3433 1289.833,410.295 C 1289.9034,410.2367 1289.9727,410.2256 1290.0636,410.2256 L 1290.3169,410.2256 L 1290.3169,410.5991 C 1290.2548,410.5955 1290.2186,410.6144 1290.2034,410.6247 C 1290.1877,410.6352 1290.176,410.6612 1290.176,410.7418 L 1290.176,411.5587 C 1290.176,412.0272 1289.9324,412.1957 1289.4087,412.1957 C 1288.7699,412.1957 1288.5714,411.9505 1288.5608,411.6246 L 1288.5608,411.5406 L 1289.0245,411.5406 C 1289.0405,411.6982 1289.0245,411.8365 1289.3835,411.8365 C 1289.6259,411.8365 1289.6876,411.7458 1289.6876,411.6105"
         style="fill:#ffffff;fill-rule:nonzero;stroke:none" />
      <path
         id="path6944"
         d="M 1287.0264,412.1452 L 1287.4797,412.1452 L 1287.4797,411.7858 C 1287.5514,411.9829 1287.6029,412.1957 1287.9873,412.1957 C 1288.0707,412.1957 1288.1517,412.1886 1288.2355,412.1778 L 1288.2355,411.7561 L 1287.9253,411.7561 C 1287.8086,411.7561 1287.7004,411.7269 1287.6292,411.6392 C 1287.545,411.5322 1287.5337,411.3531 1287.5337,411.2624 L 1287.5337,410.2256 L 1287.0264,410.2256"
         style="fill:#ffffff;fill-rule:nonzero;stroke:none" />
      <path
         id="path6946"
         d="M 1286.5012,412.4856 L 1286.3597,412.4856 C 1286.2972,412.4856 1286.2313,412.4814 1286.2084,412.4525 C 1286.1908,412.426 1286.1827,412.4011 1286.1827,412.3499 L 1286.1827,412.1452 L 1286.5012,412.1452 L 1286.5012,411.8149 L 1286.1827,411.8149 L 1286.1827,410.2256 L 1285.6754,410.2256 L 1285.6754,411.8149 L 1285.4214,411.8149 L 1285.4214,412.1452 L 1285.6754,412.1452 L 1285.6754,412.412 C 1285.6754,412.5628 1285.7083,412.679 1285.8215,412.7713 C 1285.9318,412.8589 1286.1104,412.8737 1286.2355,412.8737 L 1286.5012,412.8737"
         style="fill:#ffffff;fill-rule:nonzero;stroke:none" />
      <path
         id="path6948"
         d="M 1293.7573,402.396 C 1293.759,402.396 1295.8608,403.9456 1297.7384,405.4686 L 1297.7384,402.4949 L 1297.7374,399.4396 C 1297.2324,401.2173 1295.7814,402.1695 1293.7573,402.396 z M 1297.7384,416.3204 L 1297.7384,408.7909 L 1285.6677,408.7909 L 1285.6674,405.0908 L 1292.4707,405.0908 C 1292.4568,405.0798 1288.2092,401.793 1288.2092,401.793 L 1289.8005,399.4127 C 1289.8005,399.4127 1290.7568,399.9058 1291.6191,399.9058 C 1293.1467,399.9058 1293.748,399.2653 1293.748,397.8219 C 1293.748,396.2574 1293.0309,395.5661 1291.5885,395.5661 C 1289.8417,395.5661 1289.4839,396.8152 1289.4839,397.712 L 1285.188,397.712 C 1285.1073,394.6703 1286.9653,392.4988 1291.3784,392.4988 C 1294.7939,392.4988 1297.0793,393.6908 1297.7374,396.2554 L 1297.7374,388.2906 C 1297.7374,387.8942 1297.4977,387.7457 1297.0348,387.8493 L 1281.7385,391.1544 C 1281.1793,391.2769 1280.9685,391.5077 1280.9685,392.1332 L 1280.97,412.4779 C 1280.97,413.1035 1281.1797,413.3343 1281.7389,413.4573 L 1297.0359,416.7628 C 1297.4977,416.8643 1297.7384,416.7183 1297.7384,416.3204 z M 1296.1948,411.8073 C 1295.7808,411.8073 1295.7582,411.5735 1295.7354,411.3793 L 1296.5677,411.3793 C 1296.5677,411.6025 1296.5232,411.8073 1296.1948,411.8073 z M 1288.9934,410.772 C 1288.9934,410.5732 1289.1469,410.544 1289.2596,410.544 C 1289.5638,410.544 1289.6917,410.7087 1289.6876,410.9583 L 1289.6876,411.1558 C 1289.6687,411.1443 1289.6472,411.1331 1289.63,411.1262 C 1289.3907,411.013 1288.9934,411.1262 1288.9934,410.772 z M 1295.2183,411.1779 C 1295.2183,410.5073 1295.4952,410.1738 1296.1503,410.1738 C 1296.911,410.1738 1297.0172,410.5548 1297.0577,410.7937 L 1296.5607,410.7937 C 1296.5286,410.6795 1296.5056,410.5591 1296.1915,410.5591 C 1295.829,410.5591 1295.7223,410.7167 1295.7223,411.0235 L 1297.0909,411.0235 C 1297.1199,411.5771 1297.0172,412.1957 1296.1729,412.1957 C 1295.4586,412.1957 1295.2183,411.7893 1295.2183,411.1779 z M 1292.9963,411.1927 C 1292.9963,410.5123 1293.3311,410.1738 1293.9393,410.1738 C 1294.6891,410.1738 1294.8464,410.6383 1294.8464,410.94 L 1294.3447,410.94 C 1294.3182,410.7349 1294.3447,410.5475 1293.9244,410.5475 C 1293.595,410.5475 1293.4971,410.7786 1293.4971,411.2219 C 1293.4971,411.5258 1293.5739,411.8073 1293.9469,411.8073 C 1294.3241,411.8073 1294.3182,411.6331 1294.3447,411.4846 L 1294.8306,411.4846 C 1294.8306,411.8582 1294.6146,412.1957 1293.9799,412.1957 C 1293.2438,412.1957 1292.9963,411.7674 1292.9963,411.1927 z M 1290.8059,410.2256 L 1291.3143,410.2256 L 1291.3143,411.4633 C 1291.3143,411.7269 1291.4279,411.7968 1291.64,411.7968 C 1291.9037,411.7968 1291.9774,411.6866 1291.9774,411.4963 L 1291.9774,410.2256 L 1292.485,410.2256 L 1292.485,411.5843 C 1292.485,412.0413 1292.2512,412.1957 1291.808,412.1957 C 1291.3784,412.1957 1291.3335,412.0013 1291.2971,411.8842 L 1291.2971,412.1452 L 1290.8059,412.1452 L 1290.8059,410.2256 z M 1289.6876,411.6105 C 1289.6876,411.5222 1289.6687,411.4486 1289.6398,411.4239 C 1289.5356,411.3499 1288.9897,411.3793 1288.7471,411.2728 C 1288.6006,411.2005 1288.4838,411.075 1288.4838,410.7965 C 1288.4838,410.4087 1288.6863,410.1738 1289.1794,410.1738 C 1289.4357,410.1738 1289.5984,410.2181 1289.7332,410.4562 C 1289.7571,410.4127 1289.7791,410.3433 1289.833,410.295 C 1289.9034,410.2367 1289.9727,410.2256 1290.0636,410.2256 L 1290.3169,410.2256 L 1290.3169,410.5991 C 1290.2548,410.5955 1290.2186,410.6144 1290.2034,410.6247 C 1290.1877,410.6352 1290.176,410.6612 1290.176,410.7418 L 1290.176,411.5587 C 1290.176,412.0272 1289.9324,412.1957 1289.4087,412.1957 C 1288.7699,412.1957 1288.5714,411.9505 1288.5608,411.6246 L 1288.5608,411.5406 L 1289.0245,411.5406 C 1289.0405,411.6982 1289.0245,411.8365 1289.3835,411.8365 C 1289.6259,411.8365 1289.6876,411.7458 1289.6876,411.6105 z M 1287.0264,410.2256 L 1287.5337,410.2256 L 1287.5337,411.2624 C 1287.5337,411.3531 1287.545,411.5322 1287.6292,411.6392 C 1287.7004,411.7269 1287.8086,411.7561 1287.9253,411.7561 L 1288.2355,411.7561 L 1288.2355,412.1778 C 1288.1517,412.1886 1288.0707,412.1957 1287.9873,412.1957 C 1287.6029,412.1957 1287.5514,411.9829 1287.4797,411.7858 L 1287.4797,412.1452 L 1287.0264,412.1452 L 1287.0264,410.2256 z M 1286.5012,412.8737 L 1286.2355,412.8737 C 1286.1104,412.8737 1285.9318,412.8589 1285.8215,412.7713 C 1285.7083,412.679 1285.6754,412.5628 1285.6754,412.412 L 1285.6754,412.1452 L 1285.4214,412.1452 L 1285.4214,411.8149 L 1285.6754,411.8149 L 1285.6754,410.2256 L 1286.1827,410.2256 L 1286.1827,411.8149 L 1286.5012,411.8149 L 1286.5012,412.1452 L 1286.1827,412.1452 L 1286.1827,412.3499 C 1286.1827,412.4011 1286.1908,412.426 1286.2084,412.4525 C 1286.2313,412.4814 1286.2972,412.4856 1286.3597,412.4856 L 1286.5012,412.4856"
         style="fill:#297fcb;fill-rule:nonzero;stroke:none" />
    </g>
  </g>
</svg>
