<?xml version="1.0" encoding="UTF-8" ?>
<!DOCTYPE svg PUBLIC "-//W3C//DTD SVG 1.1//EN" "http://www.w3.org/Graphics/SVG/1.1/DTD/svg11.dtd">
<svg width="820pt" height="301pt" viewBox="-10 -10 821 302" version="1.1" xmlns="http://www.w3.org/2000/svg">
<g id="#000000ff">
<path fill="#808080" opacity="1.00" d=" M -7.00 -7.00 L 273.28 -7.00 L 273.28 272.80 L -7.0 272.80 L -7.00 -7.00 Z" />
<path fill="#808080" opacity="1.00" d=" M 280.43 -7.00 L 599.32 -7.00 L 436.475 279.80 L 280.43 -7.00 Z" />
<path fill="#808080" opacity="1.00" d=" M 672.70 -7.00 L 802.9 -7.00 L 672.93 145.10 L 584.23 97.26 L 672.70 -7.00 Z" />
<ellipse fill="#808080" opacity="1.00" cx="683.3" cy="169" rx="124" ry="119" />
</g>
<g id="#1a3e91ff">
<path fill="#3481fC" opacity="1.00" d=" M 0.00 0.00 L 266.28 0.00 L 266.28 87.55 L 177.13 87.55 L 177.13 122.98 L 177.13 163.98 L 177.13 225.01 L 177.13 265.81 L 89.30 265.81 L 89.30 87.56 L 0.00 87.56 L 0.00 0.00 Z" />
</g>
<g id="#46a3aaff">
<path fill="#00e9ff" opacity="1.00" d=" M 0.00 94.67 C 16.11 94.67 32.21 94.65 48.32 94.68 C 48.43 106.20 48.16 117.72 48.46 129.24 C 59.71 129.17 70.96 129.17 82.21 129.24 C 82.21 174.75 82.22 220.26 82.21 265.77 C 54.81 265.85 27.40 265.78 0.00 265.80 L 0.00 94.67 Z" />
<path fill="#00e9ff" opacity="1.00" d=" M 218.36 94.60 C 234.33 94.76 250.31 94.61 266.28 94.68 C 266.27 151.72 266.32 208.76 266.26 265.80 C 238.90 265.81 211.55 265.79 184.19 265.81 C 184.18 220.27 184.18 174.73 184.19 129.19 C 195.36 129.23 206.53 129.15 217.70 129.23 L 217.70 94.60 Z" />
</g>
<g id="#bc1f82ff">
<path fill="#ff91ff" opacity="1.00" d=" M 291.43 0.00 L 410.31 0.00 L 496.10 157.93 L 436.62 265.90 L 291.43 0.00 Z" />
</g>
<g id="#f9e004ff">
<path fill="#fff32c" opacity="1.00" d=" M 467.85 0.00 L 587.32 0.00 L 501.10 152.12 L 442 42.51 L 467.85 0.00 Z" />
</g>
<g id="#ea7195ff">
<path fill="#ffc7b7" opacity="1.00" d=" M 675.70 0.00 L 787.14 0.00 L 663.17 145.10 C 657.35 152.17 656.53 162.85 661.18 170.73 C 664.90 177.46 672.11 182.13 679.79 182.72 C 680.45 192.45 679.80 202.22 680.01 211.97 C 680.07 234.99 680.01 257.99 679.86 281.00 L 675.93 281.00 C 666.12 279.92 656.28 278.55 646.86 275.49 C 614.62 265.64 586.91 241.25 574.20 209.88 C 565.85 189.62 564.06 166.81 568.75 145.44 C 572.73 127.67 581.27 110.98 593.23 97.26 L 675.70 0.00 Z" />
</g>
<g id="#04a0c1ff">
<path fill="#85f3ff" opacity="1.00" d=" M 737.24 69.66 C 772.80 87.29 798.32 124.36 800.00 164.28 L 800.00 175.45 C 798.60 192.70 793.62 209.74 784.58 224.57 C 766.79 254.65 734.51 275.29 699.95 279.77 C 696.21 280.35 692.46 280.77 688.69 281.00 L 687.23 281.00 C 687.12 248.19 687.23 215.38 687.18 182.57 C 695.55 180.60 703.03 174.32 705.40 165.91 C 708.19 157.63 705.18 148.03 698.74 142.30 C 693.91 137.69 687.20 135.80 680.67 135.59 C 699.72 113.79 718.44 91.69 737.24 69.66 Z" />
</g>
<g id="#d62b1dff">
<path fill="#ff9982" opacity="1.00" d=" M 418.50 0.00 L 459.62 0.00 L 438.05 35.96 L 418.50 0.00 Z" />
<path fill="#ff9982" opacity="1.00" d=" M 55.53 94.66 L 82.20 94.69 L 82.20 121.81 L 55.52 121.81 L 55.53 94.66 Z" />
<path fill="#ff9982" opacity="1.00" d=" M 184.21 94.67 L 210.66 94.63 L 210.66 121.80 L 184.21 121.80 L 184.21 94.67 Z" />
<path fill="#ff9982" opacity="1.00" d=" M 677.49 143.66 C 682.82 142.42 688.89 143.18 693.13 146.86 C 697.91 150.62 700.33 157.21 698.75 163.13 C 697.02 170.54 689.61 176.10 682.00 175.67 C 673.54 175.89 665.42 168.68 665.36 160.08 C 664.81 152.61 670.34 145.51 677.49 143.66 Z" />
</g>
</svg>
