<?xml version="1.0" encoding="utf-8"?>
<svg version="1.1" id="Calque_1" xmlns="http://www.w3.org/2000/svg" xmlns:xlink="http://www.w3.org/1999/xlink" x="0px" y="0px"
	 viewBox="0 0 431 123.8" style="enable-background:new 0 0 431 123.8;" xml:space="preserve">
<style type="text/css">
	.st0{fill:#05690B;}
	.st1{fill:#DB5800;}
	.st2{fill:#201BA3;}
	.st3{fill:#FFFFFF;}
</style>
<rect width="431" height="123.8"/>
<rect class="st0" width="123.8" height="123.8"/>
<rect x="133.7" class="st1" width="123.8" height="123.8"/>
<rect x="267.4" class="st2" width="123.8" height="123.8"/>
<path class="st3" d="M26.8,121.8c0-3,0.1-6.5,0.3-10.6c0.2-4.1,0.3-6.6,0.3-7.6c0-6.2,0.1-14.3,0.4-24.2s0.4-15.9,0.4-17.7v-23
	c0-3.5-0.2-8.9-0.7-16.1S26.8,8.7,26.8,2.5l9.9,0.2l14.4-0.2L63,2c11.9,0,21.3,2.7,28.1,8c6.8,5.4,10.2,12.7,10.2,22.1
	c0,5.9-1.6,11.3-4.8,16.4c-3.2,5.1-7.5,8.8-12.8,11.3c-3.8,1.7-7.7,3.4-14.1,5l2.4,3.3c3.2,4.5,6.2,8.6,9,12.1
	c1.7,2.1,3.8,4.8,6.5,8.1c4.6,5.9,8.8,11,12.6,15.4c3.3,3.9,8.6,9.9,15.9,18.1l-13.8-0.5l-14.3,0.5c-5-8-8.8-14-11.5-18.2
	c-2.7-4.1-6.1-8.9-10.2-14.3c-3-4.1-5.6-7.6-7.9-10.4c-2.6-3.3-6.2-7.6-10.6-12.8l-0.2,12.1v7.5c0,4.8,0.1,8.9,0.3,12.4
	c0.7,12.2,1,20.1,1,23.7l-11.1-0.5L26.8,121.8z M47.5,12.8v44.6h6.9c17.6,0,26.4-7.1,26.4-23.1c0-4.4-0.9-7.5-2.7-11.1
	c-1.8-3.6-4.3-6.3-7.5-8s-7.5-2.5-12.9-2.5L47.5,12.8z"/>
<path class="st3" d="M166.1,121.8l0.5-18.2c0-5.6,0.1-13.5,0.4-23.6c0.3-10.1,0.4-16.3,0.4-18.5v-23l-1-36h6.8L196.8,3
	c4.2,0,7.4-0.1,9.6-0.2c11.3-0.6,18.6-0.3,22-0.3c-0.1,0.6-0.2,4.2-0.3,5.3s-0.2,2.2-0.2,3.6c0,2,0.2,4.8,0.5,6.6
	c-7.2,0-14.8-0.1-23-0.4c-8.1-0.3-12.9-0.4-14.3-0.4H187l-0.2,16.4V53h6c3.1,0,8.5-0.2,16.2-0.7c7.7-0.4,13.5-0.7,17.2-0.7
	c-0.4,2.3-0.7,6.1-0.7,7.6c0,1.4,0.2,5.2,0.7,7.6c-5.1,0-10.3-0.1-15.6-0.2s-11.2-0.3-17.5-0.5h-1.8h-4.5v10.7v8.8l1.2,36.3h-10.9
	L166.1,121.8L166.1,121.8z"/>
<path class="st3" d="M388.6,60.5c0,34.9-22.8,61.5-59.6,61.5c-33.6,0-58-22.4-58-59.5c0-35.6,21.8-60.1,59.6-60.1
	C362.8,2.4,388.6,23,388.6,60.5z M329.3,112.9c24.4,0,41.2-17.3,41.2-51.5c0-8.7-0.9-22.2-6.3-32.1c-8.3-15.2-23.9-17.8-34.4-17.8
	c-20.5,0-40.7,13.1-40.7,50.9C289.1,94.9,305.6,112.9,329.3,112.9z"/>
<g>
	<path class="st3" d="M427.2,123.8l-9.3-4.8c1.2-2.1,2.1-4,2.6-5.7c0.6-1.7,0.8-3.2,0.8-4.7c0-1-0.2-1.8-0.5-2.4
		c-0.3-0.6-0.7-0.9-1.3-0.9c-0.9,0-1.6,1.5-2.1,4.4c-0.2,0.9-0.3,1.7-0.4,2.2c-0.6,3.1-1.7,5.5-3.2,7.1c-1.5,1.6-3.5,2.5-5.8,2.5
		c-3.6,0-6.5-1.6-8.7-4.8c-2.2-3.2-3.4-7.4-3.4-12.6c0-2.4,0.3-4.7,0.8-7c0.5-2.3,1.3-4.6,2.3-7l8.7,4.5c-0.8,1.4-1.5,2.9-1.9,4.3
		c-0.4,1.4-0.7,2.9-0.7,4.2c0,1,0.1,1.8,0.4,2.4c0.3,0.6,0.7,0.9,1.2,0.9c0.9,0,1.8-2.1,2.5-6.2c0.1-0.7,0.2-1.2,0.3-1.5
		c0.5-2.9,1.6-5.1,3.2-6.8c1.6-1.6,3.5-2.5,5.8-2.5c3.7,0,6.7,1.7,9,5c2.3,3.3,3.5,7.6,3.5,13c0,2.7-0.3,5.4-0.9,8.2
		C429.3,118.3,428.4,121.1,427.2,123.8z"/>
	<path class="st3" d="M430,85.3l-33.3-15.9V51.6L430,36v17.2l-4.2,1.4v12.1l4.2,1.4V85.3z M417.9,64v-6.7l-3.8,1.4
		c-1.9,0.7-3.4,1.1-4.4,1.4c-1,0.2-2,0.4-2.9,0.5v0.3c0.9,0.1,1.9,0.2,2.9,0.5c1,0.2,2.5,0.7,4.4,1.4L417.9,64z"/>
	<path class="st3" d="M430,24.4h-22.4V33h-10.9V0.3h10.9v8.6H430V24.4z"/>
</g>
</svg>
