<?xml version="1.0" encoding="UTF-8" standalone="no"?>
<!-- Created with Inkscape (http://www.inkscape.org/) -->

<svg
   xmlns:dc="http://purl.org/dc/elements/1.1/"
   xmlns:cc="http://creativecommons.org/ns#"
   xmlns:rdf="http://www.w3.org/1999/02/22-rdf-syntax-ns#"
   xmlns:svg="http://www.w3.org/2000/svg"
   xmlns="http://www.w3.org/2000/svg"
   xmlns:sodipodi="http://sodipodi.sourceforge.net/DTD/sodipodi-0.dtd"
   xmlns:inkscape="http://www.inkscape.org/namespaces/inkscape"
   width="47.495296mm"
   height="18.851488mm"
   viewBox="0 0 168.29042 66.796611"
   id="svg15573"
   version="1.1"
   inkscape:version="0.91 r13725"
   sodipodi:docname="Rugby+.svg">
  <defs
     id="defs15575">
    <clipPath
       clipPathUnits="userSpaceOnUse"
       id="clipPath5508">
      <path
         d="m 165.459,176.858 12.896,0 0,4.776 -12.896,0 0,-4.776 z"
         id="path5510"
         inkscape:connector-curvature="0" />
    </clipPath>
  </defs>
  <sodipodi:namedview
     id="base"
     pagecolor="#ffffff"
     bordercolor="#666666"
     borderopacity="1.0"
     inkscape:pageopacity="0.0"
     inkscape:pageshadow="2"
     inkscape:zoom="3.959798"
     inkscape:cx="121.70438"
     inkscape:cy="43.205671"
     inkscape:document-units="px"
     inkscape:current-layer="layer1"
     showgrid="false"
     fit-margin-left="1"
     fit-margin-top="1"
     fit-margin-bottom="1"
     fit-margin-right="1"
     inkscape:window-width="1920"
     inkscape:window-height="1017"
     inkscape:window-x="-8"
     inkscape:window-y="-8"
     inkscape:window-maximized="1" />
  <metadata
     id="metadata15578">
    <rdf:RDF>
      <cc:Work
         rdf:about="">
        <dc:format>image/svg+xml</dc:format>
        <dc:type
           rdf:resource="http://purl.org/dc/dcmitype/StillImage" />
        <dc:title></dc:title>
      </cc:Work>
    </rdf:RDF>
  </metadata>
  <g
     inkscape:label="Calque 1"
     inkscape:groupmode="layer"
     id="layer1"
     transform="translate(-542.46509,-206.73809)">
    <g
       id="g16006"
       transform="matrix(10,0,0,10,-5639.4922,-2161.2278)">
      <path
         inkscape:connector-curvature="0"
         id="path5478"
         style="fill:#443a3d;fill-opacity:1;fill-rule:nonzero;stroke:none"
         d="m 618.55044,242.46267 16.12,0 0,-3.945 -16.12,0 0,3.945 z" />
      <g
         transform="matrix(1.25,0,0,-1.25,618.55006,238.5178)"
         id="g5480">
        <path
           inkscape:connector-curvature="0"
           id="path5482"
           style="fill:#443a3d;fill-opacity:1;fill-rule:nonzero;stroke:none"
           d="m 0,0 0,-3.156 0.996,0 L 0.608,0 0,0 Z" />
      </g>
      <g
         transform="matrix(1.25,0,0,-1.25,619.79544,242.46317)"
         id="g5488">
        <path
           inkscape:connector-curvature="0"
           id="path5490"
           style="fill:#40b93c;fill-opacity:1;fill-rule:nonzero;stroke:none"
           d="M 0,0 0.064,-0.527 4.38,0 0,0 Z" />
      </g>
      <g
         transform="matrix(1.25,0,0,-1.25,628.08556,237.15092)"
         id="g5492">
        <path
           inkscape:connector-curvature="0"
           id="path5494"
           style="fill:#40b93c;fill-opacity:1;fill-rule:nonzero;stroke:none"
           d="m 0,0 -7.049,-0.858 0.029,-0.236 8.365,0 L 0,0 Z" />
      </g>
      <g
         transform="matrix(1.25,0,0,-1.25,630.38406,239.02105)"
         id="g5496">
        <path
           inkscape:connector-curvature="0"
           id="path5498"
           style="fill:#297724;fill-opacity:1;fill-rule:nonzero;stroke:none"
           d="m 0,0 -0.494,0.402 -8.365,0 0.388,-3.156 4.38,0 4.364,0.532 L 0,0 Z" />
      </g>
      <g
         transform="matrix(1.25,0,0,-1.25,629.67619,240.44292)"
         id="g5500">
        <path
           inkscape:connector-curvature="0"
           id="path5502"
           style="fill:#ffffff;fill-opacity:1;fill-rule:nonzero;stroke:none"
           d="m 0,0 0,-0.844 -0.44,0 0,0.844 -0.611,0.915 0.525,0 0.321,-0.479 0.306,0.479 0.533,0 L 0,0 Z" />
      </g>
      <g
         id="g5504"
         transform="matrix(1.25,0,0,-1.25,411.72669,464.19392)">
        <g
           clip-path="url(#clipPath5508)"
           id="g5506">
          <g
             transform="translate(172.9575,178.6981)"
             id="g5512">
            <path
               inkscape:connector-curvature="0"
               id="path5514"
               style="fill:#ffffff;fill-opacity:1;fill-rule:nonzero;stroke:none"
               d="m 0,0 c 0,0.07 -0.027,0.122 -0.084,0.152 -0.038,0.022 -0.115,0.033 -0.23,0.033 l -0.09,0 0,-0.373 0.097,0 C -0.102,-0.188 0,-0.124 0,0 m -0.117,0.697 c 0,0.115 -0.07,0.171 -0.208,0.171 l -0.079,0 0,-0.342 0.079,0 c 0.138,0 0.208,0.056 0.208,0.171 M 0.445,-0.042 C 0.445,-0.209 0.384,-0.338 0.264,-0.427 0.16,-0.504 0.025,-0.542 -0.14,-0.542 l -0.704,0 0,1.76 0.654,0 c 0.319,0 0.477,-0.153 0.477,-0.46 C 0.287,0.659 0.266,0.577 0.223,0.512 0.194,0.467 0.153,0.427 0.099,0.397 0.208,0.376 0.287,0.338 0.334,0.286 0.409,0.206 0.445,0.096 0.445,-0.042" />
          </g>
          <g
             transform="translate(171.8959,179.1385)"
             id="g5516">
            <path
               inkscape:connector-curvature="0"
               id="path5518"
               style="fill:#ffffff;fill-opacity:1;fill-rule:nonzero;stroke:none"
               d="m 0,0 c 0,-0.153 -0.012,-0.283 -0.038,-0.386 -0.049,-0.208 -0.155,-0.37 -0.315,-0.488 -0.153,-0.113 -0.337,-0.169 -0.551,-0.169 -0.278,0 -0.505,0.087 -0.681,0.259 -0.174,0.172 -0.261,0.398 -0.261,0.678 0,0.283 0.087,0.511 0.263,0.685 0.177,0.174 0.41,0.262 0.697,0.262 0.238,0 0.429,-0.066 0.577,-0.201 0.055,-0.049 0.106,-0.115 0.156,-0.193 0.016,-0.028 0.037,-0.063 0.059,-0.103 L -0.53,0.162 C -0.565,0.24 -0.603,0.299 -0.646,0.341 -0.714,0.41 -0.801,0.445 -0.904,0.445 -1.008,0.445 -1.097,0.414 -1.175,0.351 -1.246,0.292 -1.297,0.212 -1.331,0.113 -1.354,0.045 -1.366,-0.031 -1.366,-0.111 c 0,-0.162 0.045,-0.297 0.132,-0.4 0.089,-0.104 0.205,-0.155 0.344,-0.155 0.148,0 0.249,0.054 0.308,0.16 0.021,0.037 0.038,0.087 0.05,0.15 l -0.377,0 0,0.356 L 0,0 Z" />
          </g>
          <g
             transform="translate(169.8317,178.9165)"
             id="g5520">
            <path
               inkscape:connector-curvature="0"
               id="path5522"
               style="fill:#ffffff;fill-opacity:1;fill-rule:nonzero;stroke:none"
               d="m 0,0 c 0,-0.123 -0.009,-0.22 -0.03,-0.293 -0.025,-0.092 -0.07,-0.175 -0.136,-0.253 -0.143,-0.168 -0.341,-0.251 -0.589,-0.251 -0.121,0 -0.234,0.022 -0.337,0.062 -0.236,0.095 -0.363,0.272 -0.388,0.558 -0.005,0.052 -0.007,0.111 -0.007,0.177 l 0,1.024 0.443,0 0,-0.96 c 0,-0.111 0.002,-0.18 0.009,-0.208 0.007,-0.036 0.018,-0.073 0.039,-0.109 0.05,-0.092 0.132,-0.137 0.248,-0.137 0.12,0 0.207,0.047 0.259,0.144 0.03,0.057 0.046,0.161 0.046,0.31 l 0,0.96 L 0,1.024 0,0 Z" />
          </g>
          <g
             transform="translate(167.6755,179.3456)"
             id="g5524">
            <path
               inkscape:connector-curvature="0"
               id="path5526"
               style="fill:#ffffff;fill-opacity:1;fill-rule:nonzero;stroke:none"
               d="m 0,0 c 0,0.073 -0.027,0.131 -0.083,0.171 -0.043,0.031 -0.104,0.047 -0.188,0.047 l -0.081,0 0,-0.436 0.081,0 C -0.09,-0.218 0,-0.145 0,0 m 0.068,-1.189 -0.42,0.675 0,-0.675 -0.44,0 0,1.759 0.684,0 C 0.074,0.57 0.214,0.518 0.309,0.413 0.404,0.307 0.451,0.178 0.451,0.026 0.451,-0.061 0.433,-0.14 0.399,-0.218 0.361,-0.305 0.309,-0.366 0.243,-0.406 0.201,-0.431 0.149,-0.453 0.083,-0.469 l 0.531,-0.72 -0.546,0 z" />
          </g>
          <g
             transform="translate(173.3108,179.8065)"
             id="g5528">
            <path
               inkscape:connector-curvature="0"
               id="path5530"
               style="fill:#80cd3d;fill-opacity:1;fill-rule:nonzero;stroke:none"
               d="M 0,0 1.615,0.332 -0.224,1.828 0,0 Z" />
          </g>
          <g
             transform="translate(177.0552,178.8726)"
             id="g5532">
            <path
               inkscape:connector-curvature="0"
               id="path5534"
               style="fill:#ffffff;fill-opacity:1;fill-rule:nonzero;stroke:none"
               d="m 0,0 0,-0.633 c 0,-0.024 -0.005,-0.034 -0.024,-0.034 l -0.483,0 c -0.016,0 -0.026,0.012 -0.026,0.029 l 0,0.633 c 0,0.026 -0.009,0.035 -0.03,0.035 l -0.626,0 c -0.019,0 -0.028,0.012 -0.028,0.033 l 0,0.481 c 0,0.018 0.007,0.028 0.026,0.028 l 0.631,0 c 0.018,0 0.027,0.009 0.027,0.031 l 0,0.543 c 0,0.014 0.01,0.024 0.024,0.024 l 0.481,0 C -0.01,1.17 0,1.163 0,1.146 L 0,0.603 C 0,0.577 0.005,0.572 0.026,0.572 l 0.631,0 c 0.019,0 0.026,-0.01 0.026,-0.031 l 0,-0.482 C 0.683,0.042 0.674,0.03 0.657,0.03 l -0.624,0 C 0.007,0.03 0,0.026 0,0" />
          </g>
        </g>
      </g>
    </g>
  </g>
</svg>
