<?xml version="1.0" encoding="UTF-8" standalone="no"?>
<!-- Created with Inkscape (http://www.inkscape.org/) -->

<svg
   xmlns:dc="http://purl.org/dc/elements/1.1/"
   xmlns:cc="http://creativecommons.org/ns#"
   xmlns:rdf="http://www.w3.org/1999/02/22-rdf-syntax-ns#"
   xmlns:svg="http://www.w3.org/2000/svg"
   xmlns="http://www.w3.org/2000/svg"
   xmlns:sodipodi="http://sodipodi.sourceforge.net/DTD/sodipodi-0.dtd"
   xmlns:inkscape="http://www.inkscape.org/namespaces/inkscape"
   version="1.0"
   width="682.37048"
   height="195.99794"
   id="svg2"
   inkscape:version="0.48.4 r9939"
   sodipodi:docname="Logo-arte-schief.svg">
  <metadata
     id="metadata16">
    <rdf:RDF>
      <cc:Work
         rdf:about="">
        <dc:format>image/svg+xml</dc:format>
        <dc:type
           rdf:resource="http://purl.org/dc/dcmitype/StillImage" />
      </cc:Work>
    </rdf:RDF>
  </metadata>
  <sodipodi:namedview
     pagecolor="#ffffff"
     bordercolor="#666666"
     borderopacity="1"
     objecttolerance="10"
     gridtolerance="10"
     guidetolerance="10"
     inkscape:pageopacity="0"
     inkscape:pageshadow="2"
     inkscape:window-width="1680"
     inkscape:window-height="893"
     id="namedview14"
     showgrid="false"
     inkscape:zoom="1.4300257"
     inkscape:cx="341.18524"
     inkscape:cy="97.99897"
     inkscape:window-x="-8"
     inkscape:window-y="-8"
     inkscape:window-maximized="1"
     inkscape:current-layer="svg2" />
  <defs
     id="defs4" />
  <g
     transform="translate(-3.2368297,-3.5255799)"
     id="layer1">
    <g
       id="g3697">
      <path
         d="m 439.87397,35.392582 39.98408,-2.785958 2.89739,41.343627 -39.98407,2.785955 6.46342,92.627544 -43.08206,3.00884 c 0,0 -17.22837,0.53491 -24.62787,-16.96091 -3.45459,-8.17958 -4.41296,-31.93824 -4.41296,-31.93824 l -2.91968,-41.744793 -27.3024,1.916735 -2.87511,-41.544211 27.28011,-1.91674 -2.13962,-31.7822151 68.53458,-4.814136 2.18419,31.8045021 z"
         id="path16892"
         style="fill:#f47920;fill-opacity:1;fill-rule:nonzero;stroke:none" />
      <path
         d="m 439.87397,35.392582 39.98408,-2.785958 2.89739,41.343627 -39.98407,2.785955 6.46342,92.627544 -43.08206,3.00884 c 0,0 -17.22837,0.53491 -24.62787,-16.96091 -3.45459,-8.17958 -4.41296,-31.93824 -4.41296,-31.93824 l -2.91968,-41.744793 -27.3024,1.916735 -2.87511,-41.544211 27.28011,-1.91674 -2.13962,-31.7822151 68.53458,-4.814136 2.18419,31.8045021 z"
         id="path16904"
         style="fill:none;stroke:#ff5f1d;stroke-width:0.04457534;stroke-linecap:butt;stroke-linejoin:miter;stroke-miterlimit:4;stroke-opacity:1;stroke-dasharray:none" />
      <path
         d="m 181.40165,102.71025 5.9731,85.00517 -67.97739,4.76956 -2.69681,-38.26793 -31.002145,12.72626 c 0,0 -9.851145,4.12322 -9.004217,14.57614 0.64634,8.135 9.539124,13.21659 9.539124,13.21659 l -67.39791,4.72498 c 0,0 -14.2641078,-5.10388 -15.2893406,-19.05595 -0.5571916,-7.48866 -1.002945,-16.76033 8.5361776,-27.52528 14.531559,-16.40372 46.380637,-21.93107 46.380637,-21.93107 0,0 19.746871,-4.27923 26.901217,-5.99537 18.877657,-4.56898 29.219127,-5.28218 28.305337,-15.93569 C 112.91165,100.05802 100.98775,98.07442 91.894377,98.854483 67.868271,100.94952 71.679463,117.28638 71.679463,117.28638 l -65.1691417,4.5244 c 0,0 -2.5185065,-24.115253 23.0231607,-45.021088 16.292286,-13.350311 55.384853,-25.742255 102.656998,-19.523995 52.82177,6.953753 47.85163,37.287266 49.21117,45.444553"
         id="path16908"
         style="fill:#f47920;fill-opacity:1;fill-rule:nonzero;stroke:none" />
      <path
         d="m 181.40165,102.71025 5.9731,85.00517 -67.97739,4.76956 -2.69681,-38.26793 -31.002145,12.72626 c 0,0 -9.851145,4.12322 -9.004217,14.57614 0.64634,8.135 9.539124,13.21659 9.539124,13.21659 l -67.39791,4.72498 c 0,0 -14.2641078,-5.10388 -15.2893406,-19.05595 -0.5571916,-7.48866 -1.002945,-16.76033 8.5361776,-27.52528 14.531559,-16.40372 46.380637,-21.93107 46.380637,-21.93107 0,0 19.746871,-4.27923 26.901217,-5.99537 18.877657,-4.56898 29.219127,-5.28218 28.305337,-15.93569 C 112.91165,100.05802 100.98775,98.07442 91.894377,98.854483 67.868271,100.94952 71.679463,117.28638 71.679463,117.28638 l -65.1691417,4.5244 c 0,0 -2.5185065,-24.115253 23.0231607,-45.021088 16.292286,-13.350311 55.384853,-25.742255 102.656998,-19.523995 52.82177,6.953753 47.85163,37.287266 49.21117,45.444553 z"
         id="path16912"
         style="fill:none;stroke:#ff5f1d;stroke-width:0.04457534;stroke-linecap:butt;stroke-linejoin:miter;stroke-miterlimit:4;stroke-opacity:1;stroke-dasharray:none" />
      <path
         d="m 673.07654,60.094005 c 15.66826,24.516438 12.1245,58.170815 12.1245,58.170815 l -118.41439,8.26873 2.42935,34.5013 -49.41175,3.38773 c 0,0 -22.06479,-20.43779 -24.36043,-53.24524 -2.87511,-41.209895 19.18969,-82.330645 85.96354,-89.106097 38.60224,-3.944917 72.3012,7.711533 91.66918,38.022762 m -56.36551,27.72586 c 0,0 0.49033,-25.653107 -28.92939,-23.602641 -30.71241,2.161903 -24.93991,27.34697 -24.93991,27.34697 l 53.8693,-3.744329 z"
         id="path16916"
         style="fill:#f47920;fill-opacity:1;fill-rule:evenodd;stroke:none" />
      <path
         d="m 673.07654,60.094005 c 15.66826,24.516438 12.1245,58.170815 12.1245,58.170815 l -118.41439,8.26873 2.42935,34.5013 -49.41175,3.38773 c 0,0 -22.06479,-20.43779 -24.36043,-53.24524 -2.87511,-41.209895 19.18969,-82.330645 85.96354,-89.106097 38.60224,-3.944917 72.3012,7.711533 91.66918,38.022762 z m -56.36551,27.72586 c 0,0 0.49033,-25.653107 -28.92939,-23.602641 -30.71241,2.161903 -24.93991,27.34697 -24.93991,27.34697 l 53.8693,-3.744329 z"
         id="path16920"
         style="fill:none;stroke:#ff5f1d;stroke-width:0.04457534;stroke-linecap:butt;stroke-linejoin:miter;stroke-miterlimit:4;stroke-opacity:1;stroke-dasharray:none" />
      <path
         d="m 328.94825,42.841121 2.94197,41.856238 -19.76916,1.337261 c 0,0 -12.25822,0.245169 -19.63544,8.157288 -7.35493,7.889832 -6.6863,18.632492 -6.6863,18.632492 l 4.72498,67.68765 -69.04719,4.76956 -9.36082,-133.971175 63.36384,-4.412958 1.0921,15.467641 c 0,0 10.43062,-19.947463 34.07784,-21.262435 12.50338,-0.713206 18.29818,1.783013 18.29818,1.783013 l 0,-0.04458 z"
         id="path16932"
         style="fill:#f47920;fill-opacity:1;fill-rule:nonzero;stroke:none" />
      <path
         d="m 328.94825,42.841121 2.94197,41.856238 -19.76916,1.337261 c 0,0 -12.25822,0.245169 -19.63544,8.157288 -7.35493,7.889832 -6.6863,18.632492 -6.6863,18.632492 l 4.72498,67.68765 -69.04719,4.76956 -9.36082,-133.971175 63.36384,-4.412958 1.0921,15.467641 c 0,0 10.43062,-19.947463 34.07784,-21.262435 12.50338,-0.713206 18.29818,1.783013 18.29818,1.783013 l 0,-0.04458 z"
         id="path16936"
         style="fill:none;stroke:#ff5f1d;stroke-width:0.04457534;stroke-linecap:butt;stroke-linejoin:miter;stroke-miterlimit:4;stroke-opacity:1;stroke-dasharray:none" />
    </g>
  </g>
</svg>
