<?xml version="1.0" encoding="UTF-8" standalone="no"?>
<svg
   version="1.1"
   id="svg41595"
   sodipodi:docname="Canal_Family2013.svg"
   inkscape:version="1.2.2 (732a01da63, 2022-12-09)"
   viewBox="-0.02 -0.02 1321.4173 602.47482"
   width="1321.4174"
   height="602.47479"
   xmlns:inkscape="http://www.inkscape.org/namespaces/inkscape"
   xmlns:sodipodi="http://sodipodi.sourceforge.net/DTD/sodipodi-0.dtd"
   xmlns="http://www.w3.org/2000/svg"
   xmlns:svg="http://www.w3.org/2000/svg"
   xmlns:rdf="http://www.w3.org/1999/02/22-rdf-syntax-ns#"
   xmlns:cc="http://creativecommons.org/ns#"
   xmlns:dc="http://purl.org/dc/elements/1.1/">
  <defs
     id="defs41589">
    <clipPath
       clipPathUnits="userSpaceOnUse"
       id="clipPath10746">
      <path
         d="m 47.165,561.676 h 14.504 v 6.613 H 47.165 Z"
         id="path10744"
         inkscape:connector-curvature="0" />
    </clipPath>
  </defs>
  <sodipodi:namedview
     id="base"
     pagecolor="#ffffff"
     bordercolor="#666666"
     borderopacity="1.0"
     inkscape:pageopacity="0.0"
     inkscape:pageshadow="2"
     inkscape:zoom="0.9899495"
     inkscape:cx="455.57879"
     inkscape:cy="185.36299"
     inkscape:document-units="mm"
     inkscape:current-layer="layer1"
     showgrid="false"
     inkscape:window-width="1920"
     inkscape:window-height="991"
     inkscape:window-x="-9"
     inkscape:window-y="-9"
     inkscape:window-maximized="1"
     units="px"
     fit-margin-left="0.2"
     fit-margin-top="0.2"
     fit-margin-bottom="0.2"
     fit-margin-right="0.2"
     inkscape:showpageshadow="0"
     inkscape:pagecheckerboard="0"
     inkscape:deskcolor="#d1d1d1" />
  <metadata
     id="metadata41592">
    <rdf:RDF>
      <cc:Work
         rdf:about="">
        <dc:format>image/svg+xml</dc:format>
        <dc:type
           rdf:resource="http://purl.org/dc/dcmitype/StillImage" />
        <dc:title />
      </cc:Work>
    </rdf:RDF>
  </metadata>
  <g
     inkscape:label="Calque 1"
     inkscape:groupmode="layer"
     id="layer1"
     transform="translate(-0.31800884,-293.80016)">
    <g
       id="g10720"
       transform="matrix(91.111496,0,0,-91.111496,793.3689,572.68218)">
      <path
         d="m 0,0 h -6.196 v -3.064 h 0.727 l -0.225,2.566 z"
         style="fill:#f3751a;fill-opacity:1;fill-rule:nonzero;stroke:none"
         id="path10722"
         inkscape:connector-curvature="0"
         data-darkreader-inline-fill=""
         data-darkreader-inline-stroke="" />
    </g>
    <g
       id="g10724"
       transform="matrix(91.111496,0,0,-91.111496,805.57786,851.88363)">
      <path
         d="M 0,0 H 4.938 V 0.432 Z"
         style="fill:#f3751a;fill-opacity:1;fill-rule:nonzero;stroke:none"
         id="path10726"
         inkscape:connector-curvature="0"
         data-darkreader-inline-fill=""
         data-darkreader-inline-stroke="" />
    </g>
    <g
       id="g10728"
       transform="matrix(91.111496,0,0,-91.111496,295.04371,851.88363)">
      <path
         d="M 0,0 0.043,-0.487 5.603,0 Z"
         style="fill:#fbdc04;fill-opacity:1;fill-rule:nonzero;stroke:none"
         id="path10730"
         inkscape:connector-curvature="0"
         data-darkreader-inline-fill=""
         data-darkreader-inline-stroke="" />
    </g>
    <g
       id="g10732"
       transform="matrix(91.111496,0,0,-91.111496,793.3598,572.67182)">
      <path
         d="M 0,0 H 5.072 V -2.633 L 5.799,-2.57 5.531,0.484 Z"
         style="fill:#fbdc04;fill-opacity:1;fill-rule:nonzero;stroke:none"
         id="path10734"
         inkscape:connector-curvature="0"
         data-darkreader-inline-fill=""
         data-darkreader-inline-stroke="" />
    </g>
    <g
       id="g10736"
       transform="matrix(91.111496,0,0,-91.111496,793.3689,572.68218)">
      <path
         d="m 0,0 -5.694,-0.498 0.225,-2.566 h 5.603 l 4.938,0.432 V 0 Z"
         style="fill:#f69f11;fill-opacity:1;fill-rule:nonzero;stroke:none"
         id="path10738"
         inkscape:connector-curvature="0"
         data-darkreader-inline-fill=""
         data-darkreader-inline-stroke="" />
    </g>
    <g
       transform="matrix(91.111496,0,0,-91.111496,-4296.9757,52071.35)"
       id="g10740">
      <g
         id="g10742"
         clip-path="url(#clipPath10746)">
        <g
           id="g10748"
           transform="translate(52.0559,563.8503)">
          <path
             d="M 0,0 V -1.065 H -0.537 V 0 h -0.194 v 0.444 h 0.194 V 0.421 l 0.009,0.193 c 0.006,0.14 0.078,0.269 0.215,0.385 0.137,0.116 0.289,0.173 0.453,0.173 0.078,0 0.155,-0.018 0.236,-0.057 V 0.653 C 0.301,0.688 0.239,0.707 0.191,0.707 0.063,0.707 0,0.635 0,0.495 V 0.444 H 0.376 V 0 Z"
             style="fill:#ffffff;fill-opacity:1;fill-rule:nonzero;stroke:none"
             id="path10750"
             inkscape:connector-curvature="0"
             data-darkreader-inline-fill=""
             data-darkreader-inline-stroke="" />
        </g>
        <g
           id="g10752"
           transform="translate(53.5167,563.5145)">
          <path
             d="m 0,0 c 0,0.093 -0.032,0.172 -0.099,0.239 -0.067,0.066 -0.145,0.098 -0.238,0.098 -0.093,0 -0.172,-0.032 -0.239,-0.098 -0.067,-0.067 -0.099,-0.146 -0.099,-0.236 0,-0.189 0.149,-0.34 0.338,-0.34 0.093,0 0.171,0.032 0.238,0.099 C -0.032,-0.171 0,-0.093 0,0 m -0.015,-0.741 v 0.163 c -0.026,-0.033 -0.043,-0.053 -0.055,-0.061 -0.102,-0.102 -0.235,-0.152 -0.401,-0.152 -0.218,0 -0.398,0.079 -0.541,0.239 -0.14,0.154 -0.209,0.337 -0.209,0.555 0,0.314 0.171,0.602 0.453,0.727 0.09,0.038 0.186,0.058 0.291,0.058 0.14,0 0.256,-0.029 0.349,-0.09 0.032,-0.021 0.07,-0.056 0.113,-0.102 v 0.146 h 0.524 v -1.483 z"
             style="fill:#ffffff;fill-opacity:1;fill-rule:nonzero;stroke:none"
             id="path10754"
             inkscape:connector-curvature="0"
             data-darkreader-inline-fill=""
             data-darkreader-inline-stroke="" />
        </g>
        <g
           id="g10756"
           transform="translate(56.7218,563.9934)">
          <path
             d="m 0,0 c -0.011,0.031 -0.026,0.059 -0.043,0.085 -0.085,0.123 -0.246,0.199 -0.423,0.199 -0.219,0 -0.385,-0.094 -0.502,-0.278 -0.122,0.193 -0.274,0.275 -0.504,0.275 -0.163,0 -0.301,-0.047 -0.42,-0.146 C -1.906,0.121 -1.927,0.103 -1.956,0.077 v 0.181 h -0.525 v -1.476 h 0.525 v 0.729 c 0,0.131 0.012,0.198 0.038,0.251 0.035,0.07 0.125,0.125 0.204,0.125 0.09,0 0.175,-0.061 0.207,-0.143 0.02,-0.052 0.023,-0.075 0.023,-0.233 v -0.729 h 0.525 v 0.729 c 0,0.111 0.009,0.172 0.035,0.228 0.041,0.081 0.129,0.136 0.216,0.136 0.087,0 0.157,-0.049 0.192,-0.128 0.026,-0.061 0.029,-0.078 0.029,-0.236 v -0.729 h 0.525 v 0.959 C 0.038,-0.152 0.026,-0.069 0,0"
             style="fill:#ffffff;fill-opacity:1;fill-rule:nonzero;stroke:none"
             id="path10758"
             inkscape:connector-curvature="0"
             data-darkreader-inline-fill=""
             data-darkreader-inline-stroke="" />
        </g>
        <path
           d="m 56.964,564.245 h 0.527 v -1.481 h -0.527 z m 0.563,0.46 c 0,-0.164 -0.138,-0.293 -0.299,-0.293 -0.079,0 -0.149,0.029 -0.208,0.085 -0.059,0.058 -0.088,0.126 -0.088,0.205 0,0.166 0.132,0.298 0.296,0.298 0.164,0 0.299,-0.132 0.299,-0.295"
           style="fill:#ffffff;fill-opacity:1;fill-rule:nonzero;stroke:none"
           id="path10760"
           inkscape:connector-curvature="0"
           data-darkreader-inline-fill=""
           data-darkreader-inline-stroke="" />
        <path
           d="m 57.778,564.96 h 0.529 v -2.204 h -0.529 z"
           style="fill:#ffffff;fill-opacity:1;fill-rule:nonzero;stroke:none"
           id="path10762"
           inkscape:connector-curvature="0"
           data-darkreader-inline-fill=""
           data-darkreader-inline-stroke="" />
        <g
           id="g10764"
           transform="translate(59.0036,562.3569)">
          <path
             d="m 0,0 h -0.594 l 0.524,0.973 -0.724,1.284 h 0.615 L 0.22,1.496 0.611,2.257 h 0.606 z"
             style="fill:#ffffff;fill-opacity:1;fill-rule:nonzero;stroke:none"
             id="path10766"
             inkscape:connector-curvature="0"
             data-darkreader-inline-fill=""
             data-darkreader-inline-stroke="" />
        </g>
        <path
           d="M 59.411,568.288 H 47.164 v -3.061 h 12.247 z"
           style="fill:#0c161e;fill-opacity:1;fill-rule:nonzero;stroke:none"
           id="path10768"
           inkscape:connector-curvature="0"
           data-darkreader-inline-fill=""
           data-darkreader-inline-stroke="" />
        <g
           id="g10770"
           transform="translate(58.8878,566.6234)">
          <path
             d="m 0,0 c 0,0 -0.002,-0.005 -0.01,-0.005 h -0.661 c -0.011,0 -0.016,-0.005 -0.016,-0.005 0,0 -0.007,-0.003 -0.007,-0.016 V -0.73 c 0,-0.011 -0.005,-0.013 -0.005,-0.013 0,0 -0.003,-0.004 -0.011,-0.004 h -0.524 c -0.008,0 -0.013,0.004 -0.013,0.004 0,0 -0.002,0.002 -0.002,0.016 v 0.704 c 0,0.008 -0.007,0.013 -0.007,0.013 0,0 -0.004,0.005 -0.011,0.005 h -0.676 c -0.013,0 -0.016,0.002 -0.016,0.002 0,0 -0.005,0.006 -0.005,0.021 v 0.516 c 0,0.006 0.005,0.013 0.005,0.013 0,0 0.003,0.002 0.008,0.002 h 0.691 c 0.006,0 0.006,0.003 0.006,0.003 0,0 0.005,0.003 0.005,0.008 v 0.617 c 0,0.007 0.002,0.012 0.002,0.012 0,0 0.005,0.003 0.021,0.003 h 0.514 c 0.01,0 0.013,-0.003 0.013,-0.003 0,0 0.005,-0.005 0.005,-0.015 V 0.555 h 0.671 C -0.005,0.555 0,0.552 0,0.552 0,0.552 0.008,0.549 0.008,0.534 V 0.013 C 0.008,0.008 0,0 0,0 m -2.046,-0.725 c -0.003,-0.016 -0.006,-0.02 -0.006,-0.02 0,0 -0.002,-0.006 -0.015,-0.006 H -3.13 c -0.031,0 -0.039,0.008 -0.039,0.008 0,0 -0.005,0.011 -0.002,0.034 l 0.263,1.831 C -2.906,1.145 -2.9,1.153 -2.9,1.153 h 0.027 0.483 c 0.014,0 0.018,-0.002 0.018,-0.002 0,0 0.003,-0.008 0,-0.018 l -0.199,-1.432 c -0.002,-0.016 0.006,-0.018 0.006,-0.018 0,0 0.005,-0.003 0.025,-0.003 h 0.527 c 0.01,0 0.015,-0.005 0.015,-0.005 0,0 0.003,-0.002 0.003,-0.015 z m -1.355,-0.028 h -0.473 c -0.01,-0.005 -0.018,0.006 -0.018,0.006 0,0 -0.002,0.002 -0.005,0.017 l -0.062,0.291 c -0.005,0.016 -0.01,0.024 -0.01,0.024 0,0 -0.013,0.008 -0.029,0.008 h -0.614 c -0.012,0 -0.02,-0.008 -0.02,-0.008 0,0 -0.011,-0.01 -0.016,-0.026 l -0.139,-0.296 c -0.003,-0.008 -0.008,-0.01 -0.008,-0.01 0,0 -0.01,-0.004 -0.016,-0.004 h -0.531 c -0.013,-0.002 -0.018,0.006 -0.018,0.006 0,0 -0.003,0.004 0.005,0.015 l 0.937,1.871 c 0.005,0.002 0.01,0.01 0.01,0.01 0,0 0.005,0.002 0.021,0.002 h 0.58 c 0.013,0 0.021,-0.008 0.021,-0.008 0,0 0.003,-0.002 0.005,-0.01 l 0.39,-1.878 c 0,-0.004 -0.003,-0.008 -0.003,-0.008 0,0 0,-0.002 -0.007,-0.002 m -2.212,0.002 h -0.473 -0.015 c 0,0 -0.003,0.004 -0.005,0.006 l -0.655,1.163 c -0.006,0.006 -0.008,0.006 -0.008,0.006 0,0 -0.005,0 -0.005,-0.008 l -0.162,-1.143 c -0.003,-0.014 -0.006,-0.016 -0.006,-0.016 0,0 -0.006,-0.002 -0.013,-0.002 h -0.47 c -0.008,0 -0.012,0.004 -0.012,0.004 0,0 -0.011,0.011 -0.009,0.021 l 0.259,1.85 c 0.002,0.011 0.007,0.013 0.007,0.013 0,0 0.008,0.008 0.016,0.008 h 0.524 c 0.008,0 0.013,-0.006 0.013,-0.006 0,0 0.005,-0.002 0.007,-0.01 l 0.592,-1.036 c 0.009,-0.022 0.017,-0.019 0.017,-0.019 0,0 0.009,0 0.014,0.023 l 0.149,1.032 c 0,0.008 0.005,0.01 0.005,0.01 0,0 0.003,0.006 0.01,0.006 l 0.494,-0.006 c 0.01,0 0.013,-0.002 0.013,-0.002 0,0 0.002,-0.002 0.002,-0.008 L -5.589,-0.73 c -0.003,-0.011 -0.008,-0.017 -0.008,-0.017 0,0 -0.003,-0.004 -0.016,-0.004 m -2.064,0.006 -0.46,-0.002 c -0.01,0 -0.018,0.004 -0.018,0.004 0,0 -0.003,0.002 -0.005,0.021 l -0.072,0.297 c 0,0.007 -0.005,0.01 -0.005,0.01 h -0.008 -0.647 c -0.013,0 -0.021,-0.01 -0.021,-0.01 0,0 -0.011,-0.008 -0.018,-0.026 L -9.06,-0.727 c -0.005,-0.01 -0.008,-0.014 -0.008,-0.014 0,0 -0.008,-0.004 -0.015,-0.004 h -0.535 c -0.015,-0.002 -0.018,0.004 -0.018,0.004 0,0 -0.002,0.009 0.003,0.019 l 0.926,1.863 c 0.005,0.01 0.013,0.012 0.013,0.012 h 0.018 0.591 c 0.009,0 0.018,-0.008 0.018,-0.008 0,0 0.003,-0.002 0.005,-0.01 l 0.397,-1.867 c 0,-0.009 -0.005,-0.011 -0.005,-0.011 0,0 -0.002,-0.002 -0.007,-0.002 m 3.498,1.359 c 0,0 -0.002,0 -0.004,-0.01 L -4.441,0.02 C -4.447,0.003 -4.444,0 -4.444,0 c 0,0 0.008,-0.005 0.013,-0.005 l 0.382,0.002 h 0.005 c 0,0 0.002,0.003 0,0.011 L -4.173,0.607 C -4.175,0.614 -4.179,0.614 -4.179,0.614 M -8.462,0.607 c 0,0 -0.003,0 -0.005,-0.005 L -8.724,0.016 C -8.73,0.008 -8.728,0.003 -8.728,0.003 -8.728,0.003 -8.724,0 -8.712,0 l 0.379,-0.003 c 0.003,0 0.005,0.003 0.005,0.003 0,0 0.003,0.003 0,0.01 L -8.46,0.602 c 0,0.005 -0.002,0.005 -0.002,0.005 m -1.321,-1.288 c -0.003,-0.02 -0.013,-0.036 -0.013,-0.036 0,0 -0.01,-0.01 -0.029,-0.015 -0.247,-0.101 -0.523,-0.067 -0.523,-0.067 -0.446,0.048 -0.731,0.322 -0.821,0.675 -0.135,0.529 0.132,0.906 0.196,0.986 0.158,0.188 0.403,0.322 0.643,0.353 0.307,0.044 0.534,-0.028 0.627,-0.059 0,0 0.104,-0.034 0.181,-0.085 0.039,-0.027 0.043,-0.037 0.043,-0.037 0,0 0.003,-0.004 -0.007,-0.046 L -9.559,0.609 C -9.561,0.594 -9.571,0.586 -9.571,0.586 c 0,0 -0.006,-0.003 -0.041,0.021 -0.233,0.164 -0.504,0.144 -0.504,0.144 -0.206,-0.013 -0.446,-0.121 -0.519,-0.395 -0.064,-0.242 0.003,-0.446 0.147,-0.568 0.099,-0.084 0.251,-0.128 0.411,-0.121 0.176,0.013 0.315,0.083 0.304,0.078 0,0 0.008,0.002 0.016,0.005 0.036,0.018 0.044,0.016 0.044,0.016 0,0 0.007,-0.008 0.003,-0.032 z"
             style="fill:#ffffff;fill-opacity:1;fill-rule:nonzero;stroke:none"
             id="path10772"
             inkscape:connector-curvature="0"
             data-darkreader-inline-fill=""
             data-darkreader-inline-stroke="" />
        </g>
      </g>
    </g>
  </g>
</svg>
