<?xml version="1.0" encoding="UTF-8" standalone="no"?>
<!-- Created with Inkscape (http://www.inkscape.org/) -->

<svg
   xmlns:dc="http://purl.org/dc/elements/1.1/"
   xmlns:cc="http://creativecommons.org/ns#"
   xmlns:rdf="http://www.w3.org/1999/02/22-rdf-syntax-ns#"
   xmlns:svg="http://www.w3.org/2000/svg"
   xmlns="http://www.w3.org/2000/svg"
   xmlns:sodipodi="http://sodipodi.sourceforge.net/DTD/sodipodi-0.dtd"
   xmlns:inkscape="http://www.inkscape.org/namespaces/inkscape"
   width="134.35069mm"
   height="26.500023mm"
   viewBox="0 0 134.35069 26.500023"
   version="1.1"
   id="svg8"
   inkscape:version="0.92.4 (5da689c313, 2019-01-14)"
   sodipodi:docname="CANAL+ FAMILY 2009.svg">
  <defs
     id="defs2">
    <clipPath
       clipPathUnits="userSpaceOnUse"
       id="clipPath1129">
      <rect
         style="fill:#5ca824;fill-opacity:1;stroke:none;stroke-width:0.21743709"
         id="rect1131"
         width="3.1830394"
         height="19.844114"
         x="150.59889"
         y="472.02112" />
    </clipPath>
    <clipPath
       clipPathUnits="userSpaceOnUse"
       id="clipPath1162">
      <rect
         style="fill:#221e1f;fill-opacity:1;stroke:none;stroke-width:0.21743709"
         id="rect1164"
         width="3.1830394"
         height="19.844114"
         x="150.59889"
         y="472.02112" />
    </clipPath>
    <clipPath
       clipPathUnits="userSpaceOnUse"
       id="clipPath1195">
      <rect
         style="fill:#221e1f;fill-opacity:1;stroke:none;stroke-width:0.21743709"
         id="rect1197"
         width="3.845485"
         height="2.3715937"
         x="149.78654"
         y="468.03717" />
    </clipPath>
    <clipPath
       clipPathUnits="userSpaceOnUse"
       id="clipPath1228">
      <rect
         style="fill:#221e1f;fill-opacity:1;stroke:none;stroke-width:0.21743709"
         id="rect1230"
         width="3.3073397"
         height="2.9095602"
         x="150.32468"
         y="467.49905" />
    </clipPath>
    <clipPath
       clipPathUnits="userSpaceOnUse"
       id="clipPath1266">
      <rect
         style="fill:#ee7d08;fill-opacity:1;stroke:none;stroke-width:0.18842702"
         id="rect1268"
         width="3.2179964"
         height="10.71285"
         x="161.43633"
         y="467.16339" />
    </clipPath>
    <clipPath
       clipPathUnits="userSpaceOnUse"
       id="clipPath1370">
      <g
         id="g1376"
         transform="translate(8.016969e-7,5.857335e-6)">
        <text
           id="text1374"
           y="478.35318"
           x="180.54462"
           style="font-style:normal;font-variant:normal;font-weight:normal;font-stretch:normal;font-size:22.12573242px;line-height:1.25;font-family:'Futura Canal Bold';-inkscape-font-specification:'Futura Canal Bold, ';letter-spacing:0px;word-spacing:0px;fill:#e30623;fill-opacity:1;stroke:none;stroke-width:0.55314326"
           xml:space="preserve"><tspan
             style="fill:#e30623;fill-opacity:1;stroke-width:0.55314326"
             y="478.35318"
             x="180.54462"
             id="tspan1372"
             sodipodi:role="line">i</tspan></text>
      </g>
    </clipPath>
    <clipPath
       clipPathUnits="userSpaceOnUse"
       id="clipPath1438">
      <g
         id="g1444"
         transform="translate(8.016969e-7,5.857335e-6)">
        <text
           id="text1442"
           y="476.49347"
           x="183.62585"
           style="font-style:normal;font-variant:normal;font-weight:normal;font-stretch:normal;font-size:22.33009529px;line-height:1.25;font-family:'Futura Canal Bold';-inkscape-font-specification:'Futura Canal Bold, ';letter-spacing:0px;word-spacing:0px;fill:#045da1;fill-opacity:1;stroke:none;stroke-width:0.55825227"
           xml:space="preserve"><tspan
             style="fill:#045da1;fill-opacity:1;stroke-width:0.55825227"
             y="476.49347"
             x="183.62585"
             id="tspan1440"
             sodipodi:role="line">l</tspan></text>
      </g>
    </clipPath>
    <clipPath
       clipPathUnits="userSpaceOnUse"
       id="clipPath1487">
      <g
         id="g1493"
         transform="translate(8.016969e-7,5.857335e-6)">
        <text
           id="text1491"
           y="472.49533"
           x="186.07182"
           style="font-style:normal;font-variant:normal;font-weight:normal;font-stretch:normal;font-size:21.61018562px;line-height:1.25;font-family:'Futura Canal Bold';-inkscape-font-specification:'Futura Canal Bold, ';letter-spacing:0px;word-spacing:0px;fill:#5ca824;fill-opacity:1;stroke:none;stroke-width:0.54025459"
           xml:space="preserve"><tspan
             style="fill:#5ca824;fill-opacity:1;stroke-width:0.54025459"
             y="472.49533"
             x="186.07182"
             id="tspan1489"
             sodipodi:role="line">y</tspan></text>
      </g>
    </clipPath>
    <clipPath
       clipPathUnits="userSpaceOnUse"
       id="clipPath1547">
      <path
         inkscape:connector-curvature="0"
         id="path1549"
         style="font-style:normal;font-variant:normal;font-weight:normal;font-stretch:normal;font-size:21.61018562px;line-height:1.25;font-family:'Futura Canal Bold';-inkscape-font-specification:'Futura Canal Bold, ';letter-spacing:0px;word-spacing:0px;fill:#5ca824;fill-opacity:1;stroke:none;stroke-width:0.54025459"
         d="m 192.6676,478.21156 8.94662,-16.59662 h -4.4517 l -2.87415,5.59703 -2.93899,-5.59703 h -4.51653 l 5.31611,9.44365 -3.84661,7.15297 z" />
    </clipPath>
    <clipPath
       clipPathUnits="userSpaceOnUse"
       id="clipPath10032">
      <path
         d="m 43.898,609.382 h 20.54 v 12.474 h -20.54 z"
         id="path10030"
         inkscape:connector-curvature="0" />
    </clipPath>
    <clipPath
       clipPathUnits="userSpaceOnUse"
       id="clipPath10578">
      <path
         d="m 43.898,571.21 h 20.54 v 12.474 h -20.54 z"
         id="path10576"
         inkscape:connector-curvature="0" />
    </clipPath>
  </defs>
  <sodipodi:namedview
     id="base"
     pagecolor="#ffffff"
     bordercolor="#666666"
     borderopacity="1.0"
     inkscape:pageopacity="0.0"
     inkscape:pageshadow="2"
     inkscape:zoom="1"
     inkscape:cx="42.972105"
     inkscape:cy="50.795612"
     inkscape:document-units="mm"
     inkscape:current-layer="g4470"
     showgrid="false"
     fit-margin-top="0"
     fit-margin-left="0"
     fit-margin-right="0"
     fit-margin-bottom="0"
     inkscape:window-width="1600"
     inkscape:window-height="796"
     inkscape:window-x="-8"
     inkscape:window-y="-8"
     inkscape:window-maximized="1" />
  <metadata
     id="metadata5">
    <rdf:RDF>
      <cc:Work
         rdf:about="">
        <dc:format>image/svg+xml</dc:format>
        <dc:type
           rdf:resource="http://purl.org/dc/dcmitype/StillImage" />
        <dc:title></dc:title>
      </cc:Work>
    </rdf:RDF>
  </metadata>
  <g
     inkscape:label="Calque 1"
     inkscape:groupmode="layer"
     id="layer1"
     transform="translate(-143.04778,-203.50759)">
    <g
       transform="matrix(0.26458333,0,0,0.26458333,6.7268204,47.585141)"
       id="layer1-0"
       inkscape:label="Layer 1">
      <g
         transform="matrix(4.5990315,0,0,4.5990315,-256.09206,-1686.7909)"
         id="g4470">
        <g
           id="g2560"
           clip-path="url(#id183)"
           transform="matrix(1,0,0,-1,-29.544171,940.21332)" />
        <g
           id="g2566"
           clip-path="url(#id184)"
           transform="matrix(1,0,0,-1,-29.544171,940.21332)" />
        <flowRoot
           xml:space="preserve"
           id="flowRoot79"
           style="font-style:normal;font-weight:normal;font-size:40px;line-height:1.25;font-family:sans-serif;letter-spacing:0px;word-spacing:0px;fill:#000000;fill-opacity:1;stroke:none"
           transform="matrix(0.21743709,0,0,0.21743709,50.155746,327.66498)"><flowRegion
             id="flowRegion81"><rect
               id="rect83"
               width="161.01761"
               height="47.309414"
               x="219.20311"
               y="636.13123" /></flowRegion><flowPara
             id="flowPara85"></flowPara></flowRoot>        <g
           transform="matrix(0.21743709,0,0,0.21743709,186.36468,452.18964)"
           id="layer1-08"
           inkscape:label="Layer 1">
          <g
             transform="matrix(11.169745,0,0,-11.169745,-352.90766,4051.3795)"
             id="g7172"
             clip-path="url(#id92)">
            <g
               id="g7174"
               transform="matrix(0.1929016,0,0,-0.1929016,-586.31165,122.83687)">
              <g
                 id="g7176"
                 clip-path="url(#id93)">
                <g
                   id="g7178"
                   clip-path="url(#id94)">
                  <g
                     id="g7180"
                     clip-path="url(#id95)">
                    <path
                       id="path7182"
                       d="m 3285.269,-1111.443 56.227,-4.902 h -56.658 z"
                       style="fill:#ffdc00;fill-rule:nonzero;stroke:none"
                       inkscape:connector-curvature="0" />
                    <path
                       id="path7184"
                       d="m 3277.465,-1116.345 h 114.243 v -31.07 h -114.243 z"
                       style="fill:#faba00;fill-rule:nonzero;stroke:none"
                       inkscape:connector-curvature="0" />
                    <path
                       id="path7186"
                       d="m 3340.136,-1147.415 h -62.671 v 31.07 h 7.373 l -2.282,-26.044 z"
                       style="fill:#ee7f00;fill-rule:nonzero;stroke:none"
                       inkscape:connector-curvature="0" />
                    <path
                       id="path7188"
                       d="m 3391.708,-1120.728 -50.212,4.383 h 50.212 z"
                       style="fill:#ee7f00;fill-rule:nonzero;stroke:none"
                       inkscape:connector-curvature="0" />
                    <path
                       id="path7190"
                       d="m 3391.708,-1120.728 7.371,-0.643 -2.717,-30.946 -56.226,4.902 h 51.572 z"
                       style="fill:#ffdc00;fill-rule:nonzero;stroke:none"
                       inkscape:connector-curvature="0" />
                    <path
                       id="path7196"
                       d="m 3301.621,-1133.458 v 10.796 h -5.439 v -10.796 h -1.97 v -4.505 h 1.97 v 0.241 l 0.089,-1.96 c 0.06,-1.423 0.786,-2.726 2.177,-3.903 1.388,-1.181 2.934,-1.753 4.594,-1.753 0.787,0 1.572,0.178 2.392,0.572 v 4.686 c -0.756,-0.36 -1.391,-0.546 -1.875,-0.546 -1.299,0 -1.938,0.729 -1.938,2.151 v 0.512 h 3.813 v 4.505 h -3.813"
                       style="fill:#ffffff;fill-rule:nonzero;stroke:none"
                       inkscape:connector-curvature="0" />
                    <path
                       id="path7198"
                       d="m 3316.434,-1130.053 c 0,-0.946 -0.326,-1.742 -1.003,-2.421 -0.681,-0.678 -1.476,-1 -2.418,-1 -0.946,0 -1.742,0.322 -2.418,1 -0.68,0.679 -1.002,1.475 -1.002,2.389 0,1.917 1.504,3.447 3.42,3.447 0.942,0 1.737,-0.322 2.418,-0.999 0.677,-0.682 1.003,-1.477 1.003,-2.416 m -0.152,7.515 v -1.655 c -0.263,0.329 -0.44,0.535 -0.557,0.622 -1.034,1.033 -2.389,1.535 -4.07,1.535 -2.21,0 -4.039,-0.797 -5.482,-2.419 -1.416,-1.561 -2.124,-3.422 -2.124,-5.63 0,-3.182 1.739,-6.101 4.6,-7.372 0.913,-0.382 1.885,-0.587 2.947,-0.587 1.417,0 2.595,0.294 3.541,0.917 0.319,0.205 0.705,0.559 1.145,1.029 v -1.475 h 5.31 v 15.035 h -5.31"
                       style="fill:#ffffff;fill-rule:nonzero;stroke:none"
                       inkscape:connector-curvature="0" />
                    <path
                       id="path7200"
                       d="m 3348.93,-1134.909 c -0.117,-0.314 -0.265,-0.6 -0.44,-0.866 -0.857,-1.242 -2.484,-2.014 -4.289,-2.014 -2.217,0 -3.901,0.951 -5.085,2.814 -1.24,-1.954 -2.778,-2.783 -5.115,-2.783 -1.652,0 -3.045,0.476 -4.256,1.48 -0.145,0.145 -0.352,0.323 -0.65,0.59 v -1.834 h -5.322 v 14.96 h 5.322 v -7.388 c 0,-1.334 0.12,-2.012 0.385,-2.546 0.355,-0.709 1.27,-1.267 2.069,-1.267 0.918,0 1.773,0.617 2.098,1.447 0.21,0.53 0.237,0.769 0.237,2.366 v 7.388 h 5.324 v -7.388 c 0,-1.124 0.087,-1.749 0.352,-2.311 0.417,-0.824 1.303,-1.385 2.189,-1.385 0.888,0 1.597,0.5 1.951,1.3 0.266,0.619 0.294,0.799 0.294,2.396 v 7.388 h 5.324 v -9.726 c 0,-1.08 -0.127,-1.92 -0.388,-2.621"
                       style="fill:#ffffff;fill-rule:nonzero;stroke:none"
                       inkscape:connector-curvature="0" />
                    <path
                       id="path7202"
                       d="m 3356.734,-1122.446 h -5.345 v -15.017 h 5.345 z m 0.353,-19.676 c 0,1.662 -1.396,2.971 -3.026,2.971 -0.8,0 -1.511,-0.301 -2.108,-0.862 -0.594,-0.594 -0.888,-1.278 -0.888,-2.076 0,-1.69 1.331,-3.03 2.996,-3.03 1.661,0 3.026,1.34 3.026,2.997"
                       style="fill:#ffffff;fill-rule:nonzero;stroke:none"
                       inkscape:connector-curvature="0" />
                    <path
                       id="path7204"
                       d="m 3359.635,-1122.369 h 5.366 v -22.345 h -5.366 z"
                       style="fill:#ffffff;fill-rule:nonzero;stroke:none"
                       inkscape:connector-curvature="0" />
                    <path
                       id="path7206"
                       d="m 3372.064,-1118.318 h -6.019 l 5.305,-9.861 -7.331,-13.024 h 6.229 l 4.052,7.719 3.964,-7.719 h 6.137 z"
                       style="fill:#ffffff;fill-rule:nonzero;stroke:none"
                       inkscape:connector-curvature="0" />
                  </g>
                </g>
              </g>
            </g>
          </g>
        </g>
        <g
           transform="matrix(0.82180946,0,0,0.82180946,-254.70657,262.82288)"
           id="layer1-7"
           inkscape:label="Calque 1">
          <flowRoot
             style="font-style:normal;font-variant:normal;font-weight:normal;font-stretch:normal;font-size:40px;line-height:1.25;font-family:'Futura Canal Bold Italique';-inkscape-font-specification:'Futura Canal Bold Italique';letter-spacing:0px;word-spacing:0px;fill:#000000;fill-opacity:1;stroke:none"
             id="flowRoot1008"
             xml:space="preserve"><flowRegion
               style="font-style:normal;font-variant:normal;font-weight:normal;font-stretch:normal;font-family:'Futura Canal Bold Italique';-inkscape-font-specification:'Futura Canal Bold Italique'"
               id="flowRegion1010"><rect
                 style="font-style:normal;font-variant:normal;font-weight:normal;font-stretch:normal;font-family:'Futura Canal Bold Italique';-inkscape-font-specification:'Futura Canal Bold Italique'"
                 y="-104.26222"
                 x="107.98553"
                 height="212.65434"
                 width="844.77167"
                 id="rect1012" /></flowRegion><flowPara
               id="flowPara1014" /></flowRoot>          <g
             inkscape:label="Calque 1"
             id="layer1-8"
             transform="matrix(15.756393,0,0,15.756393,425.17488,-4292.2277)">
            <g
               id="g10552"
               transform="matrix(0.35277777,0,0,-0.35277777,6.5518363,293.35514)" />
            <g
               id="g10556"
               transform="matrix(0.35277777,0,0,-0.35277777,6.5990028,294.4363)" />
            <g
               id="g10560"
               transform="matrix(0.35277777,0,0,-0.35277777,4.5692252,294.4363)" />
            <g
               id="g10564"
               transform="matrix(0.35277777,0,0,-0.35277777,8.4503453,293.18902)" />
            <g
               id="g10568"
               transform="matrix(0.35277777,0,0,-0.35277777,6.5518363,293.35514)" />
            <g
               transform="matrix(0.35277777,0,0,-0.35277777,-13.212362,497.24513)"
               id="g10572">
              <g
                 id="g10574"
                 clip-path="url(#clipPath10578)">
                <g
                   id="g10580"
                   transform="translate(52.5585,576.9902)" />
                <g
                   id="g10584"
                   transform="translate(53.0634,575.5909)" />
                <g
                   id="g10588"
                   transform="translate(55.14,576.6505)" />
                <g
                   id="g10592"
                   transform="translate(56.6912,575.5909)" />
                <g
                   id="g10596"
                   transform="translate(57.2645,575.5909)" />
                <g
                   id="g10600"
                   transform="translate(59.673,576.9988)" />
                <g
                   id="g10606"
                   transform="translate(58.8845,579.3527)" />
              </g>
            </g>
          </g>
          <g
             inkscape:label="Calque 1"
             id="layer1-0-7"
             transform="translate(284.48623,224.0066)">
            <g
               transform="matrix(0.26458333,0,0,0.26458333,169.46806,-56.796579)"
               id="layer1-3"
               inkscape:label="Layer 1">
              <g
                 transform="matrix(12.336023,0,0,-12.336023,-412.67066,5269.2326)"
                 id="g6976"
                 clip-path="url(#id83)">
                <g
                   id="g6978"
                   transform="matrix(0.168335,0,0,-0.168335,-586.31165,156.83687)">
                  <g
                     id="g6980"
                     clip-path="url(#id84)">
                    <g
                       id="g6982"
                       clip-path="url(#id85)">
                      <g
                         id="g6984"
                         clip-path="url(#id86)" />
                    </g>
                  </g>
                </g>
              </g>
            </g>
            <path
               style="fill:#000000;fill-rule:nonzero;stroke:none;stroke-width:0.14191158"
               d="M 300.48208,67.104426 V 84.843371 H 229.52627 V 67.104426 Z"
               id="path68518"
               inkscape:connector-curvature="0" />
            <path
               id="path68520"
               d="m 297.7121,76.873631 c 0,0 -0.0137,0.02965 -0.0617,0.02965 h -3.82674 c -0.0616,0 -0.0915,0.02965 -0.0915,0.02965 0,0 -0.0458,0.01586 -0.0458,0.09123 v 4.078497 c 0,0.06168 -0.0297,0.07537 -0.0297,0.07537 0,0 -0.016,0.03204 -0.0617,0.03204 h -3.04217 c -0.0434,0 -0.0754,-0.03204 -0.0754,-0.03204 0,0 -0.016,-0.01358 -0.016,-0.08895 v -4.080767 c 0,-0.04344 -0.0366,-0.07537 -0.0366,-0.07537 0,0 -0.0229,-0.02976 -0.0618,-0.02976 h -3.92738 c -0.0754,0 -0.0893,-0.01586 -0.0893,-0.01586 0,0 -0.0297,-0.02965 -0.0297,-0.121027 v -2.984659 c 0,-0.03659 0.0297,-0.07547 0.0297,-0.07547 0,0 0.0137,-0.01358 0.0457,-0.01358 h 4.00974 c 0.0319,0 0.0319,-0.01597 0.0319,-0.01597 0,0 0.0275,-0.01586 0.0275,-0.04561 v -3.573829 c 0,-0.04344 0.0159,-0.07537 0.0159,-0.07537 0,0 0.032,-0.01597 0.12122,-0.01597 h 2.98271 c 0.0594,0 0.0754,0.01597 0.0754,0.01597 0,0 0.0297,0.03193 0.0297,0.09123 v 3.587525 h 3.89765 c 0.0985,0 0.1281,0.01586 0.1281,0.01586 0,0 0.0457,0.01597 0.0457,0.105052 v 3.01663 c 0,0.02965 -0.0457,0.07547 -0.0457,0.07547 z m -11.87363,4.201826 c -0.0137,0.08906 -0.0297,0.118725 -0.0297,0.118725 0,0 -0.016,0.03204 -0.0914,0.03204 h -6.16899 c -0.1784,0 -0.22643,-0.0479 -0.22643,-0.0479 0,0 -0.0297,-0.0594 -0.016,-0.194096 L 280.83619,70.3678 c 0.016,-0.12788 0.0457,-0.173558 0.0457,-0.173558 0,0 0.016,0 0.15782,0 h 2.80888 c 0.0756,0 0.0983,0.01358 0.0983,0.01358 0,0 0.016,0.0479 0,0.107321 l -1.15052,8.296299 c -0.016,0.08895 0.0297,0.09818 0.0297,0.09818 0,0 0.0297,0.01586 0.15326,0.01586 h 3.04902 c 0.0664,0 0.0893,0.02737 0.0893,0.02737 0,0 0.016,0.01586 0.016,0.09133 z m -7.86161,0.164403 h -2.74024 c -0.0595,0.02965 -0.10751,-0.02966 -0.10751,-0.02966 0,0 -0.0137,-0.01586 -0.0297,-0.107331 l -0.3637,-1.692132 c -0.0297,-0.08211 -0.0594,-0.127891 -0.0594,-0.127891 0,0 -0.0755,-0.04561 -0.16698,-0.04561 h -3.56369 c -0.0686,0 -0.11436,0.04561 -0.11436,0.04561 0,0 -0.0594,0.05246 -0.0914,0.143867 l -0.80973,1.724114 c -0.0137,0.04344 -0.0434,0.0594 -0.0434,0.0594 0,0 -0.0616,0.01597 -0.0914,0.01597 h -3.08792 c -0.0754,0.01358 -0.0984,-0.03204 -0.0984,-0.03204 0,0 -0.0137,-0.02965 0.0229,-0.09123 l 5.44159,-10.83335 c 0.0297,-0.01369 0.0595,-0.06168 0.0595,-0.06168 0,0 0.0321,-0.01358 0.12122,-0.01358 h 3.36926 c 0.0755,0 0.11894,0.04561 0.11894,0.04561 0,0 0.0159,0.01597 0.0321,0.0593 l 2.26221,10.87904 c 0,0.03204 -0.016,0.048 -0.016,0.048 0,0 0,0.01359 -0.0434,0.01359 z m -12.84345,-0.01359 h -2.74024 c -0.0458,0 -0.0892,0 -0.0892,0 0,0 -0.009,-0.01586 -0.0252,-0.03204 l -3.80614,-6.738878 c -0.0297,-0.02965 -0.0434,-0.02965 -0.0434,-0.02965 0,0 -0.0322,0 -0.0322,0.04344 l -0.94467,6.620142 c -0.016,0.07537 -0.0322,0.08906 -0.0322,0.08906 0,0 -0.0297,0.01586 -0.0755,0.01586 h -2.72423 c -0.0434,0 -0.0755,-0.02965 -0.0755,-0.02965 0,0 -0.0595,-0.06169 -0.0366,-0.121028 l 1.48906,-10.712344 c 0.0159,-0.06168 0.0481,-0.07537 0.0481,-0.07537 0,0 0.0434,-0.0479 0.0893,-0.0479 h 3.04216 c 0.0457,0 0.0754,0.03203 0.0754,0.03203 0,0 0.0297,0.01586 0.0458,0.0593 l 3.42873,6.008133 c 0.0594,0.118756 0.10523,0.10504 0.10523,0.10504 0,0 0.0458,0 0.0754,-0.137003 l 0.86463,-5.97617 c 0,-0.04343 0.0276,-0.0593 0.0276,-0.0593 0,0 0.016,-0.03203 0.0618,-0.03203 l 2.85919,0.03203 c 0.0616,0 0.0777,0.01586 0.0777,0.01586 0,0 0.0137,0.01369 0.0137,0.04343 l -1.54395,10.80367 c -0.016,0.06169 -0.0434,0.107333 -0.0434,0.107333 0,0 -0.016,0.01586 -0.0914,0.01586 z m -11.98111,-0.03204 -2.66248,0.01586 c -0.0616,0 -0.10522,-0.03203 -0.10522,-0.03203 0,0 -0.0159,-0.01359 -0.032,-0.118758 l -0.4163,-1.724125 c 0,-0.0366 -0.0275,-0.05246 -0.0275,-0.05246 0,0 -0.016,0 -0.0481,0 h -3.76039 c -0.0755,0 -0.12122,0.05246 -0.12122,0.05246 0,0 -0.0595,0.04561 -0.10523,0.150729 l -0.75024,1.603088 c -0.0297,0.06169 -0.0458,0.07537 -0.0458,0.07537 0,0 -0.0434,0.02965 -0.0824,0.02965 h -3.10163 c -0.0914,0.01586 -0.10751,-0.02965 -0.10751,-0.02965 0,0 -0.016,-0.04561 0.016,-0.105052 l 5.37986,-10.789974 c 0.0229,-0.06158 0.0687,-0.07547 0.0687,-0.07547 0,0 0.0297,0 0.10522,0 h 3.42875 c 0.0616,0 0.10522,0.04561 0.10522,0.04561 0,0 0.016,0.01586 0.032,0.0594 l 2.30565,10.819655 c 0,0.04561 -0.0275,0.0593 -0.0275,0.0593 0,0 -0.0159,0.01586 -0.048,0.01586 z m 20.31392,-7.878394 c 0,0 -0.016,0 -0.0321,0.0594 l -1.4959,3.377422 c -0.0321,0.105052 -0.016,0.121017 -0.016,0.121017 0,0 0.0434,0.02965 0.0755,0.02965 l 2.21645,-0.01597 c 0.016,0 0.0297,0 0.0297,0 0,0 0.016,-0.01369 0,-0.0593 l -0.74794,-3.468778 c -0.0137,-0.04344 -0.0297,-0.04344 -0.0297,-0.04344 z m -24.86117,0.04343 c 0,0 -0.0137,0 -0.0297,0.03204 l -1.49821,3.391128 c -0.0297,0.04561 -0.0159,0.07547 -0.0159,0.07547 0,0 0.0159,0.01586 0.0915,0.01586 l 2.20043,0.01369 c 0.0159,0 0.0229,-0.01369 0.0229,-0.01369 0,0 0.016,-0.01586 0,-0.06168 l -0.7572,-3.420819 c 0,-0.03204 -0.0137,-0.03204 -0.0137,-0.03204 z m -7.67177,7.458221 c -0.016,0.118746 -0.0754,0.210092 -0.0754,0.210092 0,0 -0.0641,0.06168 -0.16012,0.09133 -1.4456,0.582318 -3.04446,0.38592 -3.04446,0.38592 -2.59387,-0.278599 -4.23617,-1.867981 -4.76683,-3.914072 -0.77999,-3.066861 0.76626,-5.243132 1.14367,-5.711266 0.90808,-1.089276 2.3308,-1.865701 3.73067,-2.048382 1.77955,-0.248917 3.09707,0.166695 3.64144,0.349386 0,0 0.59701,0.187254 1.04303,0.490984 0.22646,0.150708 0.25848,0.210082 0.25848,0.210082 0,0 0.0137,0.03204 -0.048,0.264893 l -0.42086,2.196821 c -0.016,0.09123 -0.0709,0.137013 -0.0709,0.137013 0,0 -0.0297,0.01586 -0.24246,-0.121028 -1.34496,-0.952262 -2.91865,-0.838078 -2.91865,-0.838078 -1.19629,0.07537 -2.59615,0.703345 -3.01245,2.288167 -0.37054,1.40668 0.016,2.585021 0.85318,3.286076 0.56956,0.500105 1.45476,0.749012 2.3857,0.705636 1.0133,-0.07537 1.82302,-0.477277 1.76356,-0.447575 0,0 0.0434,-0.01597 0.0914,-0.02965 0.21044,-0.105051 0.25619,-0.09133 0.25619,-0.09133 0,0 0.0457,0.04562 0.0137,0.182702 l -0.42088,2.402341"
               style="fill:#ffffff;fill-rule:nonzero;stroke:none;stroke-width:0.14191158"
               inkscape:connector-curvature="0" />
          </g>
        </g>
        <path
           style="fill:#000000;fill-rule:nonzero;stroke:none;stroke-width:0.11662427"
           d="m 226.02595,502.10938 v 14.57803 h -58.31216 v -14.57803 z"
           id="path68518-9"
           inkscape:connector-curvature="0" />
        <path
           id="path68520-9"
           d="m 223.74955,510.1378 c 0,0 -0.0113,0.0244 -0.0507,0.0244 h -3.14486 c -0.0506,0 -0.0752,0.0244 -0.0752,0.0244 0,0 -0.0376,0.013 -0.0376,0.075 v 3.35175 c 0,0.0507 -0.0244,0.0619 -0.0244,0.0619 0,0 -0.0131,0.0263 -0.0507,0.0263 H 217.866 c -0.0357,0 -0.062,-0.0263 -0.062,-0.0263 0,0 -0.0132,-0.0112 -0.0132,-0.0731 v -3.35361 c 0,-0.0357 -0.0301,-0.0619 -0.0301,-0.0619 0,0 -0.0188,-0.0245 -0.0508,-0.0245 h -3.22756 c -0.062,0 -0.0734,-0.013 -0.0734,-0.013 0,0 -0.0244,-0.0244 -0.0244,-0.0995 v -2.45282 c 0,-0.0301 0.0244,-0.062 0.0244,-0.062 0,0 0.0113,-0.0112 0.0376,-0.0112 h 3.29524 c 0.0262,0 0.0262,-0.0131 0.0262,-0.0131 0,0 0.0226,-0.013 0.0226,-0.0375 v -2.937 c 0,-0.0357 0.0131,-0.0619 0.0131,-0.0619 0,0 0.0263,-0.0131 0.0996,-0.0131 h 2.45122 c 0.0488,0 0.062,0.0131 0.062,0.0131 0,0 0.0244,0.0262 0.0244,0.075 v 2.94826 h 3.20313 c 0.081,0 0.10527,0.013 0.10527,0.013 0,0 0.0376,0.0131 0.0376,0.0863 v 2.47909 c 0,0.0244 -0.0376,0.062 -0.0376,0.062 z m -9.75786,3.4531 c -0.0113,0.0732 -0.0244,0.0976 -0.0244,0.0976 0,0 -0.0131,0.0263 -0.0751,0.0263 h -5.06974 c -0.14661,0 -0.18608,-0.0394 -0.18608,-0.0394 0,0 -0.0244,-0.0488 -0.0131,-0.15951 l 1.25756,-8.72468 c 0.0132,-0.10509 0.0376,-0.14263 0.0376,-0.14263 0,0 0.0131,0 0.1297,0 h 2.30836 c 0.0621,0 0.0808,0.0112 0.0808,0.0112 0,0 0.0131,0.0394 0,0.0882 l -0.94551,6.81797 c -0.0132,0.0731 0.0244,0.0807 0.0244,0.0807 0,0 0.0244,0.013 0.12596,0.013 h 2.50571 c 0.0546,0 0.0734,0.0225 0.0734,0.0225 0,0 0.0131,0.013 0.0131,0.075 z m -6.46074,0.13511 h -2.25196 c -0.0489,0.0244 -0.0883,-0.0244 -0.0883,-0.0244 0,0 -0.0113,-0.013 -0.0244,-0.0882 l -0.29889,-1.39061 c -0.0244,-0.0675 -0.0488,-0.1051 -0.0488,-0.1051 0,0 -0.062,-0.0375 -0.13722,-0.0375 h -2.92868 c -0.0564,0 -0.094,0.0375 -0.094,0.0375 0,0 -0.0488,0.0431 -0.0751,0.11823 l -0.66545,1.41689 c -0.0113,0.0357 -0.0357,0.0488 -0.0357,0.0488 0,0 -0.0506,0.0131 -0.0751,0.0131 h -2.53768 c -0.062,0.0112 -0.0809,-0.0263 -0.0809,-0.0263 0,0 -0.0113,-0.0244 0.0188,-0.075 l 4.47194,-8.90295 c 0.0244,-0.0112 0.0489,-0.0507 0.0489,-0.0507 0,0 0.0264,-0.0112 0.0996,-0.0112 h 2.76889 c 0.062,0 0.0977,0.0375 0.0977,0.0375 0,0 0.0131,0.0131 0.0264,0.0487 l 1.8591,8.94049 c 0,0.0263 -0.0131,0.0394 -0.0131,0.0394 0,0 0,0.0112 -0.0357,0.0112 z m -10.55488,-0.0112 h -2.25195 c -0.0376,0 -0.0733,0 -0.0733,0 0,0 -0.007,-0.013 -0.0207,-0.0263 l -3.12794,-5.53807 c -0.0244,-0.0244 -0.0357,-0.0244 -0.0357,-0.0244 0,0 -0.0265,0 -0.0265,0.0357 l -0.77633,5.4405 c -0.0132,0.0619 -0.0265,0.0732 -0.0265,0.0732 0,0 -0.0244,0.013 -0.062,0.013 h -2.2388 c -0.0357,0 -0.062,-0.0244 -0.062,-0.0244 0,0 -0.0489,-0.0507 -0.0301,-0.0995 l 1.22373,-8.8035 c 0.0131,-0.0507 0.0395,-0.0619 0.0395,-0.0619 0,0 0.0357,-0.0394 0.0734,-0.0394 h 2.50008 c 0.0376,0 0.062,0.0263 0.062,0.0263 0,0 0.0244,0.013 0.0376,0.0487 l 2.81777,4.93754 c 0.0488,0.0976 0.0865,0.0863 0.0865,0.0863 0,0 0.0376,0 0.062,-0.11259 l 0.71056,-4.91127 c 0,-0.0357 0.0227,-0.0487 0.0227,-0.0487 0,0 0.0132,-0.0263 0.0508,-0.0263 l 2.34971,0.0263 c 0.0506,0 0.0639,0.013 0.0639,0.013 0,0 0.0113,0.0112 0.0113,0.0357 l -1.26883,8.87856 c -0.0132,0.0507 -0.0357,0.0882 -0.0357,0.0882 0,0 -0.0132,0.013 -0.0751,0.013 z m -9.84618,-0.0263 -2.18805,0.013 c -0.0506,0 -0.0865,-0.0263 -0.0865,-0.0263 0,0 -0.0131,-0.0112 -0.0263,-0.0976 l -0.34212,-1.4169 c 0,-0.0301 -0.0226,-0.0431 -0.0226,-0.0431 0,0 -0.0131,0 -0.0395,0 h -3.09033 c -0.062,0 -0.0996,0.0431 -0.0996,0.0431 0,0 -0.0489,0.0375 -0.0865,0.12387 l -0.61656,1.31743 c -0.0244,0.0507 -0.0376,0.0619 -0.0376,0.0619 0,0 -0.0357,0.0244 -0.0677,0.0244 h -2.54895 c -0.0751,0.013 -0.0884,-0.0244 -0.0884,-0.0244 0,0 -0.0131,-0.0375 0.0131,-0.0863 l 4.42122,-8.86731 c 0.0188,-0.0506 0.0565,-0.062 0.0565,-0.062 0,0 0.0244,0 0.0865,0 h 2.81778 c 0.0506,0 0.0865,0.0375 0.0865,0.0375 0,0 0.0131,0.013 0.0263,0.0488 l 1.8948,8.89169 c 0,0.0375 -0.0226,0.0487 -0.0226,0.0487 0,0 -0.0131,0.013 -0.0394,0.013 z m 16.69417,-6.47453 c 0,0 -0.0132,0 -0.0264,0.0488 l -1.22935,2.7756 c -0.0264,0.0863 -0.0131,0.0994 -0.0131,0.0994 0,0 0.0357,0.0244 0.062,0.0244 l 1.8215,-0.0131 c 0.0132,0 0.0244,0 0.0244,0 0,0 0.0132,-0.0113 0,-0.0487 l -0.61466,-2.85067 c -0.0113,-0.0357 -0.0244,-0.0357 -0.0244,-0.0357 z m -20.43115,0.0357 c 0,0 -0.0113,0 -0.0244,0.0263 l -1.23125,2.78686 c -0.0244,0.0375 -0.0131,0.062 -0.0131,0.062 0,0 0.0131,0.013 0.0752,0.013 l 1.80833,0.0113 c 0.0131,0 0.0188,-0.0113 0.0188,-0.0113 0,0 0.0131,-0.013 0,-0.0507 l -0.62227,-2.81126 c 0,-0.0263 -0.0113,-0.0263 -0.0113,-0.0263 z m -6.30473,6.12923 c -0.0131,0.0976 -0.062,0.17266 -0.062,0.17266 0,0 -0.0527,0.0507 -0.13159,0.075 -1.18801,0.47856 -2.50197,0.31716 -2.50197,0.31716 -2.13167,-0.22896 -3.48132,-1.53513 -3.91742,-3.21662 -0.64101,-2.52038 0.62972,-4.30886 0.93987,-4.69358 0.74627,-0.89517 1.91548,-1.53325 3.0659,-1.68338 1.46246,-0.20456 2.54521,0.13699 2.99257,0.28713 0,0 0.49063,0.15389 0.85718,0.4035 0.1861,0.12385 0.21242,0.17264 0.21242,0.17264 0,0 0.0113,0.0263 -0.0394,0.2177 l -0.34587,1.80536 c -0.0131,0.075 -0.0583,0.1126 -0.0583,0.1126 0,0 -0.0244,0.013 -0.19926,-0.0995 -1.1053,-0.78258 -2.39857,-0.68874 -2.39857,-0.68874 -0.98312,0.0619 -2.13354,0.57802 -2.47566,1.88044 -0.30452,1.15602 0.0131,2.12439 0.70115,2.70053 0.46807,0.41099 1.19553,0.61554 1.96059,0.57989 0.83274,-0.0619 1.49818,-0.39223 1.44931,-0.36782 0,0 0.0357,-0.0131 0.0751,-0.0244 0.17295,-0.0863 0.21054,-0.0751 0.21054,-0.0751 0,0 0.0376,0.0375 0.0113,0.15015 l -0.34588,1.97426"
           style="fill:#ffffff;fill-rule:nonzero;stroke:none;stroke-width:0.11662427"
           inkscape:connector-curvature="0" />
      </g>
    </g>
  </g>
</svg>
