<?xml version="1.0" encoding="UTF-8" ?>
<!DOCTYPE svg PUBLIC "-//W3C//DTD SVG 1.1//EN" "http://www.w3.org/Graphics/SVG/1.1/DTD/svg11.dtd">
<svg width="215pt" height="209pt" viewBox="0 0 215 209" version="1.1" xmlns="http://www.w3.org/2000/svg">
<g id="#000000ff">
<path fill="#000000" opacity="1.00" d=" M 0.00 0.00 L 215.00 0.00 L 215.00 209.00 L 0.00 209.00 L 0.00 58.71 C 0.36 58.19 1.08 57.16 1.44 56.64 C 2.76 58.70 4.13 60.75 5.92 62.44 C 5.96 61.76 6.02 60.39 6.06 59.71 C 14.41 64.76 21.95 71.17 30.92 75.19 C 30.27 72.54 29.61 69.89 28.99 67.22 C 39.06 73.89 49.22 80.47 59.83 86.26 C 59.61 84.08 59.40 81.91 59.24 79.73 C 65.35 82.96 71.08 86.91 76.57 91.11 C 75.89 93.23 75.16 95.34 74.20 97.36 C 63.51 96.74 52.91 95.26 42.43 93.08 C 44.03 95.13 45.57 97.21 47.10 99.31 C 38.73 98.63 30.65 95.51 22.18 96.01 C 23.50 97.90 24.87 99.76 26.22 101.64 C 22.98 100.87 19.75 100.06 16.49 99.40 C 11.20 98.51 6.55 95.00 1.00 95.56 C 1.00 96.32 1.00 97.86 1.00 98.62 C 2.85 99.92 4.63 101.31 6.41 102.70 C 6.73 101.84 7.05 100.98 7.37 100.12 C 16.43 102.72 25.44 105.81 34.81 107.10 C 33.93 105.11 32.90 103.18 31.86 101.27 C 37.82 102.87 44.05 103.09 50.00 104.78 C 52.96 105.58 55.98 106.13 59.00 106.63 C 57.88 104.47 56.76 102.30 55.78 100.08 C 61.85 101.63 68.02 102.80 74.16 104.08 C 74.41 106.02 74.65 107.96 74.87 109.90 C 69.56 113.16 63.10 112.42 57.44 114.62 C 51.78 116.75 45.73 117.49 39.91 119.09 C 40.49 120.44 41.07 121.79 41.62 123.16 C 33.16 124.69 24.93 127.27 16.57 129.26 C 17.60 131.43 19.90 132.28 21.87 133.37 C 17.39 134.67 12.75 135.75 8.06 135.16 C 4.96 134.44 1.56 136.73 0.75 139.74 C 1.98 139.88 3.21 140.04 4.44 140.20 C 5.55 140.66 6.70 141.02 7.88 141.26 C 7.95 140.61 8.10 139.29 8.17 138.63 C 13.08 137.82 18.49 138.40 22.90 135.80 C 26.09 136.55 29.27 135.57 32.35 134.79 C 31.28 133.55 30.19 132.32 29.10 131.10 C 37.24 128.36 45.86 128.32 54.18 126.56 C 52.92 124.30 50.62 123.07 48.55 121.68 C 52.84 120.23 57.40 120.08 61.83 119.30 C 66.76 118.54 71.56 116.50 76.64 117.17 C 80.49 124.95 86.23 132.10 94.27 135.81 C 102.55 139.90 112.16 139.29 120.91 137.30 C 126.23 135.82 130.97 132.78 135.13 129.21 C 138.82 126.61 139.92 121.96 142.76 118.62 C 151.32 119.73 160.08 120.25 168.26 123.22 C 166.18 123.90 164.09 124.55 162.00 125.17 C 162.00 125.87 162.00 127.26 162.00 127.96 C 167.65 127.90 173.38 127.93 178.88 129.45 C 183.68 130.74 188.66 131.10 193.61 131.13 C 191.40 132.27 189.19 133.51 187.63 135.51 C 193.26 137.38 199.29 137.21 205.00 138.65 C 206.68 138.85 207.19 140.66 208.04 141.82 C 210.08 141.45 212.12 141.08 214.16 140.71 C 214.04 139.56 213.88 138.41 213.68 137.28 C 208.86 134.56 203.03 135.77 197.88 134.08 C 199.29 133.16 200.71 132.26 202.12 131.34 C 199.61 130.01 197.06 128.55 194.17 128.29 C 188.78 127.68 183.56 126.07 178.55 124.05 C 178.58 122.87 178.61 121.70 178.64 120.53 C 167.27 118.28 156.17 114.85 144.92 112.08 C 145.34 109.45 145.77 106.82 146.18 104.19 C 152.42 102.91 158.81 102.56 164.99 100.95 C 163.89 102.66 162.84 104.41 161.85 106.19 C 170.18 106.38 177.89 102.37 186.24 102.67 C 185.45 104.50 184.67 106.32 183.90 108.16 C 192.28 106.80 200.39 104.14 208.79 102.86 C 209.02 103.57 209.49 104.98 209.73 105.69 C 211.12 104.77 212.53 103.87 213.96 103.01 C 213.98 101.56 214.01 100.11 214.04 98.67 C 212.66 98.63 211.29 98.66 209.92 98.77 C 205.36 102.30 199.25 101.74 193.86 102.70 C 195.30 100.72 196.71 98.72 198.09 96.69 C 189.51 98.40 180.83 99.09 172.16 100.07 C 173.22 98.72 174.25 97.35 175.29 95.98 C 165.09 95.53 155.05 98.04 144.85 97.78 C 145.22 96.06 144.70 93.58 146.71 92.77 C 154.89 87.99 162.88 82.89 170.89 77.83 C 169.82 80.56 168.79 83.32 167.96 86.14 C 176.96 82.06 184.00 74.72 193.03 70.74 C 192.37 72.72 191.70 74.68 191.08 76.67 C 196.82 74.67 201.07 70.21 206.18 67.14 C 208.43 65.72 211.26 65.95 213.59 64.74 C 214.21 63.25 213.93 61.57 214.09 60.00 C 212.06 60.00 210.03 60.00 208.01 60.00 C 208.00 60.75 208.00 62.26 207.99 63.01 C 204.80 64.79 201.65 66.66 198.46 68.44 C 198.96 66.55 199.47 64.66 199.97 62.77 C 191.95 66.17 184.62 70.95 177.25 75.52 C 177.84 73.20 178.38 70.88 178.93 68.55 C 166.12 73.87 154.66 81.86 141.89 87.28 C 138.45 83.35 135.59 78.79 131.21 75.80 C 123.62 70.55 114.05 67.81 104.85 69.08 C 100.49 69.95 96.18 71.26 92.19 73.22 C 87.09 75.96 83.26 80.48 79.71 84.95 C 69.55 80.44 60.09 74.52 49.94 69.96 C 50.11 71.66 50.27 73.36 50.44 75.06 C 41.34 70.68 32.97 64.90 23.69 60.87 C 23.85 63.00 24.02 65.14 24.17 67.27 C 18.64 64.15 13.00 61.14 8.09 57.07 C 5.84 55.06 2.68 55.01 0.00 53.92 L 0.00 0.00 M 173.53 9.59 C 162.60 11.98 154.46 24.06 157.18 35.09 C 159.53 42.40 164.98 49.38 172.94 50.81 C 185.84 54.90 201.27 43.81 200.22 29.98 C 200.95 22.54 196.25 15.62 190.14 11.79 C 185.29 8.57 179.06 8.48 173.53 9.59 M 14.00 10.00 C 14.00 23.33 14.00 36.67 14.00 50.00 C 17.33 50.00 20.67 50.00 24.00 50.00 C 24.00 46.32 24.00 42.63 24.00 38.95 C 25.85 39.15 28.17 38.51 29.60 40.04 C 32.09 43.29 34.52 46.59 36.79 49.99 C 40.59 49.99 44.39 50.08 48.19 49.87 C 45.61 45.64 41.94 42.22 39.35 37.99 C 42.43 35.17 46.73 32.97 47.59 28.50 C 49.90 20.71 44.58 12.67 37.30 10.05 C 29.54 9.91 21.77 10.05 14.00 10.00 M 71.99 10.01 C 68.14 15.17 66.14 21.32 63.41 27.08 C 59.56 34.59 55.20 41.92 52.55 49.98 C 55.04 49.99 57.54 50.07 60.04 49.99 C 62.68 50.23 64.19 47.49 66.64 47.05 C 70.10 46.93 73.57 46.96 77.04 47.03 C 80.07 46.84 81.91 50.15 84.92 49.98 C 87.45 50.07 89.99 49.99 92.53 49.98 C 86.78 36.91 82.04 23.45 77.30 9.99 C 75.53 10.00 73.76 10.00 71.99 10.01 M 97.00 10.00 C 97.00 23.33 97.00 36.67 97.00 50.00 C 102.37 49.90 107.75 50.20 113.11 49.86 C 119.67 48.58 124.21 43.22 127.69 37.91 C 129.54 34.92 128.92 31.30 129.02 27.97 C 128.98 26.03 129.20 23.93 128.15 22.18 C 125.29 16.84 120.59 12.37 114.90 10.21 C 108.96 9.71 102.96 10.14 97.00 10.00 M 136.00 10.00 C 136.00 23.33 136.00 36.67 136.00 50.00 C 139.67 50.00 143.33 50.00 147.00 50.00 C 147.00 36.67 147.00 23.33 147.00 10.00 C 143.33 10.00 139.67 10.00 136.00 10.00 M 10.34 156.07 C 11.32 159.50 12.96 162.68 14.17 166.03 C 17.53 176.92 22.28 187.30 26.14 198.01 C 29.02 198.00 31.89 197.99 34.77 198.01 C 37.11 194.65 38.37 190.72 40.12 187.05 C 44.92 176.76 49.67 166.44 54.45 156.14 C 50.55 156.13 46.51 155.53 42.70 156.46 C 39.84 159.92 39.40 164.54 37.50 168.48 C 36.02 172.18 33.82 175.53 31.94 179.03 C 27.23 172.03 24.36 164.01 21.64 156.07 C 17.88 156.01 14.11 155.99 10.34 156.07 M 56.00 156.00 C 56.00 169.67 56.00 183.33 56.00 197.00 C 59.33 197.00 62.67 197.00 66.00 197.00 C 66.00 183.33 66.00 169.67 66.00 156.00 C 62.67 156.00 59.33 156.00 56.00 156.00 M 77.40 158.49 C 73.83 161.75 71.75 167.31 74.20 171.82 C 78.27 179.05 88.59 178.20 93.02 185.14 C 93.02 185.82 93.01 187.18 93.00 187.86 C 90.81 188.56 88.53 189.76 86.18 189.11 C 83.15 188.91 81.63 186.05 80.12 183.84 C 77.29 184.70 74.45 185.60 71.94 187.21 C 70.68 192.76 76.09 196.70 81.01 197.16 C 87.04 197.76 93.64 198.18 98.99 194.80 C 102.96 190.09 103.35 182.94 100.03 177.77 C 97.93 174.02 93.77 172.19 90.01 170.56 C 87.34 169.38 83.92 168.81 82.65 165.79 C 87.36 163.54 91.88 167.05 96.63 167.08 C 98.30 165.84 99.98 164.57 101.25 162.90 C 99.28 158.19 93.90 155.61 88.96 155.58 C 85.00 155.62 80.45 155.55 77.40 158.49 M 138.22 156.18 C 126.63 159.92 117.90 174.54 124.18 186.00 C 126.98 191.28 131.32 197.52 138.01 197.35 C 143.05 197.68 148.20 197.85 153.17 196.84 C 161.02 193.74 165.85 185.20 165.99 176.97 C 165.07 170.33 163.00 162.91 156.87 159.23 C 151.77 154.75 144.48 155.33 138.22 156.18 M 169.00 156.00 C 169.00 169.67 169.00 183.33 169.00 197.00 C 172.33 197.00 175.66 197.00 179.00 197.00 C 179.06 190.03 178.88 183.05 179.10 176.08 C 181.37 178.38 182.19 181.58 183.46 184.46 C 185.19 188.63 187.20 192.68 188.95 196.85 C 192.26 197.08 195.58 197.07 198.88 196.86 C 199.15 183.24 198.93 169.62 199.00 156.00 C 195.67 156.00 192.33 156.00 189.00 156.00 C 188.96 162.12 189.07 168.25 188.96 174.37 C 184.99 168.81 182.88 162.09 179.80 155.99 C 176.20 156.00 172.60 156.00 169.00 156.00 M 107.00 157.00 C 107.00 170.33 107.00 183.67 107.00 197.00 C 110.33 197.00 113.67 197.00 117.00 197.00 C 117.00 183.67 117.00 170.33 117.00 157.00 C 113.67 157.00 110.33 157.00 107.00 157.00 Z" />
<path fill="#000000" opacity="1.00" d=" M 107.01 17.90 C 110.41 18.01 114.12 19.03 116.28 21.83 C 120.27 26.14 119.98 33.72 115.62 37.68 C 113.33 39.93 110.04 40.57 107.00 41.12 C 107.00 33.38 107.00 25.64 107.01 17.90 Z" />
<path fill="#000000" opacity="1.00" d=" M 175.44 18.31 C 179.81 17.06 184.28 18.54 187.80 21.18 C 193.42 27.23 191.16 38.19 183.60 41.42 C 179.83 42.11 175.56 42.76 172.12 40.63 C 168.16 38.71 166.62 34.08 166.22 30.01 C 166.65 24.72 170.42 19.99 175.44 18.31 Z" />
<path fill="#000000" opacity="1.00" d=" M 23.00 19.00 C 27.21 19.08 31.43 18.83 35.63 19.10 C 37.07 20.24 38.00 21.84 39.02 23.33 C 39.64 26.71 35.96 28.29 33.38 29.28 C 30.31 30.91 26.40 29.58 23.00 30.00 C 23.00 26.33 23.00 22.67 23.00 19.00 Z" />
<path fill="#000000" opacity="1.00" d=" M 67.78 38.99 C 69.01 35.45 71.02 32.25 73.20 29.22 C 74.44 32.51 75.96 35.70 77.24 38.97 C 74.08 39.02 70.93 39.01 67.78 38.99 Z" />
<path fill="#000000" opacity="1.00" d=" M 88.64 84.99 C 95.31 79.81 103.50 75.96 112.10 76.30 C 118.50 77.18 124.73 79.79 129.66 84.01 C 128.32 85.60 126.95 87.17 125.57 88.72 C 122.06 85.45 117.63 83.50 113.09 82.11 C 112.88 98.41 113.06 114.72 113.00 131.02 C 110.30 131.36 106.70 131.11 106.03 127.93 C 105.95 112.55 106.03 97.18 105.99 81.80 C 100.95 83.15 96.58 86.09 92.46 89.18 C 91.31 87.67 89.97 86.33 88.64 84.99 Z" />
<path fill="#000000" opacity="1.00" d=" M 116.00 93.00 C 122.60 93.00 129.20 93.00 135.80 93.00 C 136.05 93.60 136.55 94.79 136.81 95.39 C 136.94 96.72 137.25 97.99 138.14 99.03 C 135.09 98.98 132.05 99.00 129.00 99.00 C 128.92 107.21 129.15 115.43 128.90 123.63 C 127.96 124.78 126.82 125.80 125.40 126.32 C 124.81 126.54 123.61 126.98 123.02 127.20 C 122.98 117.80 123.01 108.40 123.00 99.00 C 120.67 99.00 118.33 99.00 116.00 99.00 C 116.00 97.00 116.00 95.00 116.00 93.00 Z" />
<path fill="#000000" opacity="1.00" d=" M 85.00 94.00 C 90.52 94.64 97.93 91.91 101.66 97.42 C 105.50 101.55 104.23 108.61 99.84 111.82 C 96.88 113.55 93.26 112.85 90.00 113.01 C 89.98 116.76 90.03 120.51 89.98 124.26 C 88.01 122.81 87.03 120.40 85.68 118.40 C 85.52 118.05 85.19 117.35 85.03 116.99 C 84.94 109.33 85.03 101.66 85.00 94.00 M 89.00 99.01 C 89.00 102.34 89.00 105.66 89.00 108.99 C 91.20 108.98 93.42 109.13 95.62 108.89 C 96.71 107.82 98.39 106.84 98.02 105.06 C 97.78 103.13 98.87 100.10 96.59 99.12 C 94.07 98.83 91.53 99.04 89.00 99.01 Z" />
<path fill="#000000" opacity="1.00" d=" M 131.95 177.00 C 131.45 168.01 143.07 161.62 150.57 166.37 C 159.40 170.04 158.63 183.88 150.48 187.85 C 145.94 190.61 140.14 189.88 136.00 186.75 C 133.77 183.99 131.62 180.73 131.95 177.00 Z" />
</g>
<g id="#ffffffff">
<path fill="#ffffff" opacity="1.00" d=" M 173.53 9.59 C 179.06 8.48 185.29 8.57 190.14 11.79 C 196.25 15.62 200.95 22.54 200.22 29.98 C 201.27 43.81 185.84 54.90 172.94 50.81 C 164.98 49.38 159.53 42.40 157.18 35.09 C 154.46 24.06 162.60 11.98 173.53 9.59 M 175.44 18.31 C 170.42 19.99 166.65 24.72 166.22 30.01 C 166.62 34.08 168.16 38.71 172.12 40.63 C 175.56 42.76 179.83 42.11 183.60 41.42 C 191.16 38.19 193.42 27.23 187.80 21.18 C 184.28 18.54 179.81 17.06 175.44 18.31 Z" />
<path fill="#ffffff" opacity="1.00" d=" M 14.00 10.00 C 21.77 10.05 29.54 9.91 37.30 10.05 C 44.58 12.67 49.90 20.71 47.59 28.50 C 46.73 32.97 42.43 35.17 39.35 37.99 C 41.94 42.22 45.61 45.64 48.19 49.87 C 44.39 50.08 40.59 49.99 36.79 49.99 C 34.52 46.59 32.09 43.29 29.60 40.04 C 28.17 38.51 25.85 39.15 24.00 38.95 C 24.00 42.63 24.00 46.32 24.00 50.00 C 20.67 50.00 17.33 50.00 14.00 50.00 C 14.00 36.67 14.00 23.33 14.00 10.00 M 23.00 19.00 C 23.00 22.67 23.00 26.33 23.00 30.00 C 26.40 29.58 30.31 30.91 33.38 29.28 C 35.96 28.29 39.64 26.71 39.02 23.33 C 38.00 21.84 37.07 20.24 35.63 19.10 C 31.43 18.83 27.21 19.08 23.00 19.00 Z" />
<path fill="#ffffff" opacity="1.00" d=" M 71.99 10.01 C 73.76 10.00 75.53 10.00 77.30 9.99 C 82.04 23.45 86.78 36.91 92.53 49.98 C 89.99 49.99 87.45 50.07 84.92 49.98 C 81.91 50.15 80.07 46.84 77.04 47.03 C 73.57 46.96 70.10 46.93 66.64 47.05 C 64.19 47.49 62.68 50.23 60.04 49.99 C 57.54 50.07 55.04 49.99 52.55 49.98 C 55.20 41.92 59.56 34.59 63.41 27.08 C 66.14 21.32 68.14 15.17 71.99 10.01 M 67.78 38.99 C 70.93 39.01 74.08 39.02 77.24 38.97 C 75.96 35.70 74.44 32.51 73.20 29.22 C 71.02 32.25 69.01 35.45 67.78 38.99 Z" />
<path fill="#ffffff" opacity="1.00" d=" M 97.00 10.00 C 102.96 10.14 108.96 9.71 114.90 10.21 C 120.59 12.37 125.29 16.84 128.15 22.18 C 129.20 23.93 128.98 26.03 129.02 27.97 C 128.92 31.30 129.54 34.92 127.69 37.91 C 124.21 43.22 119.67 48.58 113.11 49.86 C 107.75 50.20 102.37 49.90 97.00 50.00 C 97.00 36.67 97.00 23.33 97.00 10.00 M 107.01 17.90 C 107.00 25.64 107.00 33.38 107.00 41.12 C 110.04 40.57 113.33 39.93 115.62 37.68 C 119.98 33.72 120.27 26.14 116.28 21.83 C 114.12 19.03 110.41 18.01 107.01 17.90 Z" />
<path fill="#ffffff" opacity="1.00" d=" M 136.00 10.00 C 139.67 10.00 143.33 10.00 147.00 10.00 C 147.00 23.33 147.00 36.67 147.00 50.00 C 143.33 50.00 139.67 50.00 136.00 50.00 C 136.00 36.67 136.00 23.33 136.00 10.00 Z" />
<path fill="#ffffff" opacity="1.00" d=" M 0.00 53.92 C 2.68 55.01 5.84 55.06 8.09 57.07 C 13.00 61.14 18.64 64.15 24.17 67.27 C 24.02 65.14 23.85 63.00 23.69 60.87 C 32.97 64.90 41.34 70.68 50.44 75.06 C 50.27 73.36 50.11 71.66 49.94 69.96 C 60.09 74.52 69.55 80.44 79.71 84.95 C 83.26 80.48 87.09 75.96 92.19 73.22 C 96.18 71.26 100.49 69.95 104.85 69.08 C 114.05 67.81 123.62 70.55 131.21 75.80 C 135.59 78.79 138.45 83.35 141.89 87.28 C 154.66 81.86 166.12 73.87 178.93 68.55 C 178.38 70.88 177.84 73.20 177.25 75.52 C 184.62 70.95 191.95 66.17 199.97 62.77 C 199.47 64.66 198.96 66.55 198.46 68.44 C 201.65 66.66 204.80 64.79 207.99 63.01 C 208.00 62.26 208.00 60.75 208.01 60.00 C 210.03 60.00 212.06 60.00 214.09 60.00 C 213.93 61.57 214.21 63.25 213.59 64.74 C 211.26 65.95 208.43 65.72 206.18 67.14 C 201.07 70.21 196.82 74.67 191.08 76.67 C 191.70 74.68 192.37 72.72 193.03 70.74 C 184.00 74.72 176.96 82.06 167.96 86.14 C 168.79 83.32 169.82 80.56 170.89 77.83 C 162.88 82.89 154.89 87.99 146.71 92.77 C 144.70 93.58 145.22 96.06 144.85 97.78 C 155.05 98.04 165.09 95.53 175.29 95.98 C 174.25 97.35 173.22 98.72 172.16 100.07 C 180.83 99.09 189.51 98.40 198.09 96.69 C 196.71 98.72 195.30 100.72 193.86 102.70 C 199.25 101.74 205.36 102.30 209.92 98.77 C 211.29 98.66 212.66 98.63 214.04 98.67 C 214.01 100.11 213.98 101.56 213.96 103.01 C 212.53 103.87 211.12 104.77 209.73 105.69 C 209.49 104.98 209.02 103.57 208.79 102.86 C 200.39 104.14 192.28 106.80 183.90 108.16 C 184.67 106.32 185.45 104.50 186.24 102.67 C 177.89 102.37 170.18 106.38 161.85 106.19 C 162.84 104.41 163.89 102.66 164.99 100.95 C 158.81 102.56 152.42 102.91 146.18 104.19 C 145.77 106.82 145.34 109.45 144.92 112.08 C 156.17 114.85 167.27 118.28 178.64 120.53 C 178.61 121.70 178.58 122.87 178.55 124.05 C 183.56 126.07 188.78 127.68 194.17 128.29 C 197.06 128.55 199.61 130.01 202.12 131.34 C 200.71 132.26 199.29 133.16 197.88 134.08 C 203.03 135.77 208.86 134.56 213.68 137.28 C 213.88 138.41 214.04 139.56 214.16 140.71 C 212.12 141.08 210.08 141.45 208.04 141.82 C 207.19 140.66 206.68 138.85 205.00 138.65 C 199.29 137.21 193.26 137.38 187.63 135.51 C 189.19 133.51 191.40 132.27 193.61 131.13 C 188.66 131.10 183.68 130.74 178.88 129.45 C 173.38 127.93 167.65 127.90 162.00 127.96 C 162.00 127.26 162.00 125.87 162.00 125.17 C 164.09 124.55 166.18 123.90 168.26 123.22 C 160.08 120.25 151.32 119.73 142.76 118.62 C 139.92 121.96 138.82 126.61 135.13 129.21 C 130.97 132.78 126.23 135.82 120.91 137.30 C 112.16 139.29 102.55 139.90 94.27 135.81 C 86.23 132.10 80.49 124.95 76.64 117.17 C 71.56 116.50 66.76 118.54 61.83 119.30 C 57.40 120.08 52.84 120.23 48.55 121.68 C 50.62 123.07 52.92 124.30 54.18 126.56 C 45.86 128.32 37.24 128.36 29.10 131.10 C 30.19 132.32 31.28 133.55 32.35 134.79 C 29.27 135.57 26.09 136.55 22.90 135.80 C 18.49 138.40 13.08 137.82 8.17 138.63 C 8.10 139.29 7.95 140.61 7.88 141.26 C 6.70 141.02 5.55 140.66 4.44 140.20 C 3.21 140.04 1.98 139.88 0.75 139.74 C 1.56 136.73 4.96 134.44 8.06 135.16 C 12.75 135.75 17.39 134.67 21.87 133.37 C 19.90 132.28 17.60 131.43 16.57 129.26 C 24.93 127.27 33.16 124.69 41.62 123.16 C 41.07 121.79 40.49 120.44 39.91 119.09 C 45.73 117.49 51.78 116.75 57.44 114.62 C 63.10 112.42 69.56 113.16 74.87 109.90 C 74.65 107.96 74.41 106.02 74.16 104.08 C 68.02 102.80 61.85 101.63 55.78 100.08 C 56.76 102.30 57.88 104.47 59.00 106.63 C 55.98 106.13 52.96 105.58 50.00 104.78 C 44.05 103.09 37.82 102.87 31.86 101.27 C 32.90 103.18 33.93 105.11 34.81 107.10 C 25.44 105.81 16.43 102.72 7.37 100.12 C 7.05 100.98 6.73 101.84 6.41 102.70 C 4.63 101.31 2.85 99.92 1.00 98.62 C 1.00 97.86 1.00 96.32 1.00 95.56 C 6.55 95.00 11.20 98.51 16.49 99.40 C 19.75 100.06 22.98 100.87 26.22 101.64 C 24.87 99.76 23.50 97.90 22.18 96.01 C 30.65 95.51 38.73 98.63 47.10 99.31 C 45.57 97.21 44.03 95.13 42.43 93.08 C 52.91 95.26 63.51 96.74 74.20 97.36 C 75.16 95.34 75.89 93.23 76.57 91.11 C 71.08 86.91 65.35 82.96 59.24 79.73 C 59.40 81.91 59.61 84.08 59.83 86.26 C 49.22 80.47 39.06 73.89 28.99 67.22 C 29.61 69.89 30.27 72.54 30.92 75.19 C 21.95 71.17 14.41 64.76 6.06 59.71 C 6.02 60.39 5.96 61.76 5.92 62.44 C 4.13 60.75 2.76 58.70 1.44 56.64 C 1.08 57.16 0.36 58.19 0.00 58.71 L 0.00 53.92 M 88.64 84.99 C 89.97 86.33 91.31 87.67 92.46 89.18 C 96.58 86.09 100.95 83.15 105.99 81.80 C 106.03 97.18 105.95 112.55 106.03 127.93 C 106.70 131.11 110.30 131.36 113.00 131.02 C 113.06 114.72 112.88 98.41 113.09 82.11 C 117.63 83.50 122.06 85.45 125.57 88.72 C 126.95 87.17 128.32 85.60 129.66 84.01 C 124.73 79.79 118.50 77.18 112.10 76.30 C 103.50 75.96 95.31 79.81 88.64 84.99 M 116.00 93.00 C 116.00 95.00 116.00 97.00 116.00 99.00 C 118.33 99.00 120.67 99.00 123.00 99.00 C 123.01 108.40 122.98 117.80 123.02 127.20 C 123.61 126.98 124.81 126.54 125.40 126.32 C 126.82 125.80 127.96 124.78 128.90 123.63 C 129.15 115.43 128.92 107.21 129.00 99.00 C 132.05 99.00 135.09 98.98 138.14 99.03 C 137.25 97.99 136.94 96.72 136.81 95.39 C 136.55 94.79 136.05 93.60 135.80 93.00 C 129.20 93.00 122.60 93.00 116.00 93.00 M 85.00 94.00 C 85.03 101.66 84.94 109.33 85.03 116.99 C 85.19 117.35 85.52 118.05 85.68 118.40 C 87.03 120.40 88.01 122.81 89.98 124.26 C 90.03 120.51 89.98 116.76 90.00 113.01 C 93.26 112.85 96.88 113.55 99.84 111.82 C 104.23 108.61 105.50 101.55 101.66 97.42 C 97.93 91.91 90.52 94.64 85.00 94.00 Z" />
<path fill="#ffffff" opacity="1.00" d=" M 89.00 99.01 C 91.53 99.04 94.07 98.83 96.59 99.12 C 98.87 100.10 97.78 103.13 98.02 105.06 C 98.39 106.84 96.71 107.82 95.62 108.89 C 93.42 109.13 91.20 108.98 89.00 108.99 C 89.00 105.66 89.00 102.34 89.00 99.01 Z" />
<path fill="#ffffff" opacity="1.00" d=" M 10.34 156.07 C 14.11 155.99 17.88 156.01 21.64 156.07 C 24.36 164.01 27.23 172.03 31.94 179.03 C 33.82 175.53 36.02 172.18 37.50 168.48 C 39.40 164.54 39.84 159.92 42.70 156.46 C 46.51 155.53 50.55 156.13 54.45 156.14 C 49.67 166.44 44.92 176.76 40.12 187.05 C 38.37 190.72 37.11 194.65 34.77 198.01 C 31.89 197.99 29.02 198.00 26.14 198.01 C 22.28 187.30 17.53 176.92 14.17 166.03 C 12.96 162.68 11.32 159.50 10.34 156.07 Z" />
<path fill="#ffffff" opacity="1.00" d=" M 56.00 156.00 C 59.33 156.00 62.67 156.00 66.00 156.00 C 66.00 169.67 66.00 183.33 66.00 197.00 C 62.67 197.00 59.33 197.00 56.00 197.00 C 56.00 183.33 56.00 169.67 56.00 156.00 Z" />
<path fill="#ffffff" opacity="1.00" d=" M 77.40 158.49 C 80.45 155.55 85.00 155.62 88.96 155.58 C 93.90 155.61 99.28 158.19 101.25 162.90 C 99.98 164.57 98.30 165.84 96.63 167.08 C 91.88 167.05 87.36 163.54 82.65 165.79 C 83.92 168.81 87.34 169.38 90.01 170.56 C 93.77 172.19 97.93 174.02 100.03 177.77 C 103.35 182.94 102.96 190.09 98.99 194.80 C 93.64 198.18 87.04 197.76 81.01 197.16 C 76.09 196.70 70.68 192.76 71.94 187.21 C 74.45 185.60 77.29 184.70 80.12 183.84 C 81.63 186.05 83.15 188.91 86.18 189.11 C 88.53 189.76 90.81 188.56 93.00 187.86 C 93.01 187.18 93.02 185.82 93.02 185.14 C 88.59 178.20 78.27 179.05 74.20 171.82 C 71.75 167.31 73.83 161.75 77.40 158.49 Z" />
<path fill="#ffffff" opacity="1.00" d=" M 138.22 156.18 C 144.48 155.33 151.77 154.75 156.87 159.23 C 163.00 162.91 165.07 170.33 165.99 176.97 C 165.85 185.20 161.02 193.74 153.17 196.84 C 148.20 197.85 143.05 197.68 138.01 197.35 C 131.32 197.52 126.98 191.28 124.18 186.00 C 117.90 174.54 126.63 159.92 138.22 156.18 M 131.95 177.00 C 131.62 180.73 133.77 183.99 136.00 186.75 C 140.14 189.88 145.94 190.61 150.48 187.85 C 158.63 183.88 159.40 170.04 150.57 166.37 C 143.07 161.62 131.45 168.01 131.95 177.00 Z" />
<path fill="#ffffff" opacity="1.00" d=" M 169.00 156.00 C 172.60 156.00 176.20 156.00 179.80 155.99 C 182.88 162.09 184.99 168.81 188.96 174.37 C 189.07 168.25 188.96 162.12 189.00 156.00 C 192.33 156.00 195.67 156.00 199.00 156.00 C 198.93 169.62 199.15 183.24 198.88 196.86 C 195.58 197.07 192.26 197.08 188.95 196.85 C 187.20 192.68 185.19 188.63 183.46 184.46 C 182.19 181.58 181.37 178.38 179.10 176.08 C 178.88 183.05 179.06 190.03 179.00 197.00 C 175.66 197.00 172.33 197.00 169.00 197.00 C 169.00 183.33 169.00 169.67 169.00 156.00 Z" />
<path fill="#ffffff" opacity="1.00" d=" M 107.00 157.00 C 110.33 157.00 113.67 157.00 117.00 157.00 C 117.00 170.33 117.00 183.67 117.00 197.00 C 113.67 197.00 110.33 197.00 107.00 197.00 C 107.00 183.67 107.00 170.33 107.00 157.00 Z" />
</g>
</svg>
