<?xml version="1.0" encoding="utf-8"?>
<!-- Generator: Adobe Illustrator 16.0.0, SVG Export Plug-In . SVG Version: 6.00 Build 0)  -->
<svg version="1.2" baseProfile="tiny" id="Layer_1" xmlns="http://www.w3.org/2000/svg" xmlns:xlink="http://www.w3.org/1999/xlink"
	 x="0px" y="0px" width="605px" height="400px" viewBox="0 0 605 400" xml:space="preserve">
<g>
	<path fill="#FBFBFB" d="M0.5,0h605v2.03C407.84,2.11,210.18,2.04,12.51,2.07c-4,0.04-8.03-0.26-12.01,0.28V0z"/>
	<g>
		<path fill="#FBFBFB" d="M172.41,54.76c6.38-1.07,13.39-1.06,19.15,2.26c5.83,4,9.32,10.93,9.52,17.95
			c0.41,5.79-0.78,11.56-2.72,16.98c-5.32,15.92-14.93,30.02-25.3,43.06c-10.91,13.22-23.27,25.82-38.58,33.87
			c-4.34,1.92-9.56,3.77-14.04,1.15c-3.65-1.56-5.45-5.45-6-9.17c2.2-0.6,1.56-2.23,0.23-3.39c2.32-4.35,5.22-8.45,9.13-11.5
			c13.81-10.92,27.89-22.07,38.1-36.61c5.77-7.82,11.07-16.02,15.37-24.75c1.74-3.62,3.71-7.57,2.63-11.7
			c-1.36-0.46-2.32-1.49-3.11-2.65c0.17,0.36,0.5,1.08,0.66,1.43c-4.68,0.1-9.11,2-13.14,4.27c-13.69,7.29-24.27,18.93-34.78,30.09
			c-3.59,4.06-6.81,8.43-10.32,12.56c-6.51,8.66-12.67,17.58-18.8,26.49c-0.17,0.47-0.51,1.42-0.68,1.89
			c-6.97,12.2-12.04,25.63-13.92,39.6c-1.25,6.59-0.44,13.46,1.45,19.85c1.84,6.26,7.09,11.65,13.64,12.78
			c5.17,0.79,10.63,0.75,15.58-1.11c12.01-4.07,22.67-11.14,33.03-18.29c10-7.13,19.67-14.78,28.47-23.36
			c4.15-4.03,8.06-8.4,10.8-13.53c0.3,0.52,0.91,1.56,1.21,2.08c-0.19-1.33-0.66-2.9,0.5-3.97c16.66-28.11,28.97-58.46,42.33-88.19
			c2.87-5.63,5.35-12.19,11.04-15.58c5.87-2.66,12.83-2.56,18.89-0.57c1.94,3.03,1.56,6.87,0.46,10.14
			c-2.09,6.08-5.51,11.57-8.27,17.36c-14.84,28.86-29.75,57.69-44.4,86.64c8.54-8.82,17.08-17.65,26.3-25.78
			c5.85-4.95,11.73-10.15,18.9-13.11c4.9-1.43,9.93,0.35,14.38,2.38c2.84,1.32,5.46,4.37,4.72,7.7
			c-2.44,7.04-7.32,12.81-11.26,19.03c-3.32,5.49-7.03,10.76-9.81,16.56c-1.27,2.38-0.97,5.14-0.51,7.69
			c7.64,1.08,14.13-4.05,20.74-7c0.82-16.14,8.9-31.27,20-42.75c10.84-10.08,25.47-17.22,40.54-16.29c3.89,0.09,7.71,2.3,9.45,5.83
			c1.71,4.16,1.4,8.94-0.17,13.09c-2.51,6.87-7.66,12.32-12.84,17.29c-10,9-21.33,16.37-32.86,23.2c-1.26,3.26,1.55,6.61,4.27,8.17
			c5.29,2.83,11.4,0.67,16.6-1.26c13.28-6.16,24.4-16.37,33.34-27.83c-0.68-0.09-2.03-0.28-2.7-0.37c-3.86-3.16-3.1-8.56-2.47-12.94
			c3.25-11.86,12.06-21.49,22.3-27.93c1.32,0.01,2.65,0.03,3.98,0.06c0.58,0.34,1.74,1.02,2.32,1.36c0.32,2.35,0.4,4.72,0.4,7.09
			c10.71-1.64,20.91-6.29,31.84-6.48c5.44,4.68,9.97,12.22,6.81,19.47c-3.04,5.57-8.32,9.33-11.97,14.43
			c-4.6,6.03-9.34,12.92-8.91,20.86c1.04,1.05,2.09,2.1,3.13,3.16c2.94,0.41,5.97,0.18,8.55-1.42c8.78-4.68,17.57-11.13,21.28-20.71
			c4.03-8.29,7.5-16.85,11.86-24.98c1.23-2.45,3.38-4.22,5.56-5.79c6.61,0.88,13.29,0.59,19.93,1.02c-0.01,1.71-0.2,3.44-1.14,4.91
			c-5.56,10.47-10.71,21.16-16.37,31.58c-2.13,4.76-5.35,9.11-6.34,14.31c-0.7,2.89,0.85,6.54,4.05,7c5,1.18,9.68-1.28,14.15-3.16
			c3.02-2.02,7.27-2.61,9.25-5.87c-1.71-15.14,5.93-29.45,15.48-40.62c2.83-3.78,6.73-6.51,10.29-9.56
			c9.67-7.15,21.47-12.56,33.76-11.56c3.72,0.51,8.17,1.93,9.6,5.8c2.39,5.7,0.93,12.24-2.33,17.28
			c-8.08,12.46-20.08,21.58-31.49,30.81c-3.74,2.81-7.35,5.83-11.33,8.32c0.08,1.1,0.18,2.2,0.3,3.31
			c5.25,5.18,13.33,3.57,19.54,1.17c11.42-4.66,21.16-12.71,29.47-21.71c1.96-2.13,4.31-4.06,5.4-6.82c0.4,0.99,0.82,1.98,1.26,2.96
			c0.68,2.37,1.89,4.62,2.18,7.08c-8.01,11.4-17.41,21.94-28.45,30.49c-8.38,6.42-18.34,11.5-29.05,11.98
			c-9.03,0.15-17.09-5.93-20.91-13.85c-8.05,6.19-16.72,12.01-26.56,14.86c-5.1,0.81-11.09,1.19-15.26-2.44
			c-1.85-1.31-3.34-3.74-5.88-3.48c-0.9-2.26-1.03-4.81-1.2-7.19l-1.78,2.08c0.08-0.71,0.43-1.29,0.97-1.75
			c-0.59-3.98-2.17-7.73-2.79-11.72c-7.38,7.58-14.59,15.74-23.99,20.88c-5.12,2.89-12.14,2.71-16.52-1.45
			c-6.61-5.12-7.73-14.45-6.08-22.13c2.22-9.92,8.22-18.28,13.65-26.65c0.35-0.3,1.05-0.91,1.4-1.21
			c-6.29,1.51-12.26,4.05-18.45,5.87c-3.01,0.81-4.24,4.04-5.96,6.32c-9.57,13.32-20.32,26.01-33.31,36.14
			c-9.77,7.46-21.57,14.4-34.34,12.97c-9.31-1.35-16.11-9.48-18.86-18.05c-8.56,4-16.79,8.69-25.51,12.34
			c-5.26,2.46-11.01,5.32-16.95,3.52c-3.55-2.15-6.47-5.98-6.35-10.29c-1.06-10.87,4.67-20.73,9.91-29.77
			c1.67-2.64,2.99-5.52,5.09-7.86c0.06-0.62,0.19-1.86,0.26-2.48c-2.38,4.04-6.59,6.51-9.61,10.04
			c-8.84,8.57-16.5,18.24-23.58,28.29c-2.29,3.05-4.31,6.38-7.29,8.84c-1.92,4.76-7.67,5.29-12.06,4.36
			c-6.19-4.02-6.44-12.69-5.61-19.22c-3.4,0.17-4.81,4.01-7.08,6.05c-20.21,20.83-43.79,40.17-72.32,47.89
			c-10.2,2.22-21.22,2.13-30.88-2.15c-10.68-4.66-18.55-14.75-21.13-26.04c-3.41-14.49-0.52-29.7,4.51-43.46
			c5.88-15.81,14.81-30.25,24.47-43.98c1.25,0.07,2.43-0.27,3.54-0.78c-0.73-1.84,0.09-3.62,1.25-5.07
			c8.09-10.69,17.83-19.99,27.37-29.34c7.68-6.46,14.95-13.53,23.29-19.16C148.31,65.31,159.61,57.98,172.41,54.76z M511.07,128.55
			c-8.02,3.96-13.38,11.61-16.99,19.55c-1.65,3.48-2.27,7.37-4.12,10.76c3.51-0.94,5.32-4.44,8.29-6.3
			c5.71-4.95,11.52-10.01,16.06-16.08c2.08-2.63,3.97-5.61,3.87-9.11C515.75,127.16,513.2,127.23,511.07,128.55z M297.5,165.93
			c4.36-2.85,8.7-5.8,12.5-9.38c5.3-5.11,10.82-10.22,14.26-16.84c1.02-1.48,0.73-3.34,0.86-5.03c-1.21,0.01-2.41,0.03-3.6,0.05
			C309.68,141.06,300.13,152.65,297.5,165.93z"/>
	</g>
	<path fill="#FBFBFB" d="M469.48,84.99c3.19-1.69,6.87-1.54,10.19-0.34c1.38,1.91,3.3,3.8,3.27,6.33
		c0.34,9.38-6.03,19.2-15.44,21.32c-2.95-0.23-6.41-0.38-8.44-2.86c-3.18-3.38-2.59-8.49-1.8-12.67
		C459.85,91.63,463.93,86.98,469.48,84.99z"/>
	<path fill="#FBFBFB" d="M341.94,86.22c2.26-1.1,5.73-1.26,6.75,1.57c1.31,5.42,2.82,10.85,3.36,16.41
		c-0.61,0.25-1.83,0.77-2.44,1.02c-10.59,0.38-20.96,2.79-31.14,5.58c-3.83,1.5-7.82,2.54-11.64,4.05
		c-3.4,1.23-6.71,3.19-10.46,2.79c-0.33-2.95-0.95-5.85-1.38-8.78c6.1-4,12.76-7.04,19.34-10.17c1.14-0.46,2.26-0.95,3.4-1.42
		C325.63,93.22,333.89,89.95,341.94,86.22z"/>
	<path fill="#FBFBFB" d="M330.46,212.01c6.96-0.82,14-0.31,20.96-1.23c24.68-0.77,49.39-0.76,74.07-0.09
		c14.67,1.12,29.39,1.58,44.01,3.28c23.05,2.28,45.97,5.79,68.66,10.42c-0.11,2.06-0.19,4.13-0.24,6.2
		c-3.54,0.03-7.04-0.44-10.53-0.95c-50.67-5.99-101.87-7.18-152.8-4.57c-76.38,3.85-152.56,15.92-225.83,38.09
		c-10.4,3.27-20.89,6.3-31.14,10.03c-19.95,6.85-39.59,14.58-58.91,23.02c-5.02,2.09-10.11,5.18-15.78,4.24
		c-0.96-9.31,2.45-18.19,5.39-26.83c1.25-2.62,3.84-4.23,6.09-5.91c26.51-10.66,54.22-17.89,81.82-25.08
		C199.93,226.85,264.99,216.36,330.46,212.01z"/>
	<path fill="#FBFBFB" d="M513.55,254.19c5.97-1.14,11.93-2.6,18.05-2.57c0.6,0.24,1.8,0.71,2.4,0.95
		c2.13,4.96-0.72,10.42-2.89,14.87c-12.94-1.66-26.3-0.86-38.72,3.39c-2.45,4.99-5.09,9.89-7.63,14.83
		c7.7-2.43,15.57-5.03,23.73-5.1c7.979,0.02,16.8,4.16,19.43,12.19c2.98,8.83,1.1,18.92-3.94,26.65
		c-11.95,18.51-36.04,27.29-57.33,22.86c-5.52-1.32-11.09-3.22-15.47-6.96c-2.47-1.98-5.92-0.8-8.79-0.73
		c-13.2,1.98-26.32,4.78-38.89,9.31c-7.14,2.18-13.92,5.43-21.15,7.33c-3.04,0.64-5.78-1.57-7.33-3.97
		c-2.96-5.4-4.91-12.44-1.34-18.03c7.86-9.59,18.1-16.74,27.85-24.24c7.61-6.09,16.2-10.9,23.48-17.4
		c4.81-4.33,11.16-9.32,9.81-16.67c-4.18-4.48-11.23-4.24-16.34-1.44c-10.09,4.4-16.9,13.68-21.52,23.35
		c-6.51,1.26-9.91-5.6-12.09-10.54c-0.37-3.67-0.29-7.72,2.1-10.76c6.73-9.54,18.52-13.9,29.61-15.91
		c6.96-0.48,14.2-1.02,20.95,1.16c5.25,1.97,10.61,4.6,13.85,9.38c2.68,3.64,3.78,8.27,3.33,12.75c-1.28,5.42-4.2,10.3-8.08,14.26
		c-11.04,11.77-25.39,19.61-39.16,27.7c-4.92,2.39-9.33,5.68-14.34,7.89c17.39-3.83,35.17-5.94,52.99-5.19
		c1.46-5.31,3.24-10.54,6.16-15.25c0.79,0.1,1.59,0.21,2.39,0.31c3.8,6.12,9.01,11.82,15.82,14.55c7.45,3.36,16.06,3.12,23.94,1.73
		c8.18-2.67,16.02-7.86,20.01-15.7c2.5-4.77,3.64-10.89,0.48-15.64c-6.51-5.8-15.66-1.36-22.61,1.19
		c-5.87,2.82-11.41,6.21-16.79,9.85c-5.73-2.95-10.13-8.32-12.35-14.33c0.6-0.06,1.79-0.17,2.39-0.23c-0.59-0.1-1.77-0.3-2.36-0.4
		c2.16-4.91,5.69-9.04,7.83-13.97c2.87-5.44,4.54-11.41,7.28-16.91C490.05,257.22,501.9,256.44,513.55,254.19z"/>
</g>
<g>
	<g>
		<path fill="#E4212F" d="M0.5,0.283c3.98-0.542,8.01-0.241,12.01-0.282c197.67-0.03,395.33,0.041,592.99-0.04V400H0.5V0.283z
			 M172.41,52.965c-12.8,3.237-24.1,10.605-34.49,18.557c-8.34,5.659-15.61,12.766-23.29,19.259
			c-9.54,9.398-19.28,18.747-27.37,29.493c-1.16,1.457-1.98,3.247-1.25,5.096c-1.11,0.512-2.29,0.854-3.54,0.784
			c-9.66,13.801-18.59,28.317-24.47,44.208c-5.03,13.832-7.92,29.121-4.51,43.686c2.58,11.349,10.45,21.492,21.13,26.175
			c9.66,4.303,20.68,4.393,30.88,2.162c28.53-7.76,52.11-27.201,72.32-48.139c2.27-2.051,3.68-5.91,7.08-6.082
			c-0.83,6.564-0.58,15.279,5.61,19.32c4.39,0.935,10.14,0.402,12.06-4.382c2.98-2.473,5-5.82,7.29-8.886
			c7.08-10.102,14.74-19.822,23.58-28.437c3.02-3.549,7.23-6.031,9.61-10.092c-0.07,0.623-0.2,1.87-0.26,2.493
			c-2.1,2.352-3.42,5.247-5.09,7.901c-5.24,9.087-10.97,18.998-9.91,29.925c-0.12,4.333,2.8,8.182,6.35,10.343
			c5.94,1.81,11.69-1.065,16.95-3.538c8.72-3.669,16.95-8.383,25.51-12.404c2.75,8.614,9.55,16.786,18.86,18.144
			c12.77,1.438,24.57-5.539,34.34-13.038c12.99-10.183,23.74-22.938,33.31-36.328c1.72-2.292,2.95-5.539,5.96-6.353
			c6.19-1.83,12.16-4.383,18.45-5.9c-0.35,0.301-1.05,0.915-1.4,1.216c-5.43,8.413-11.43,16.817-13.65,26.789
			c-1.65,7.72-0.53,17.098,6.08,22.245c4.38,4.182,11.4,4.363,16.52,1.458c9.4-5.167,16.61-13.37,23.99-20.989
			c0.62,4.011,2.2,7.781,2.79,11.781c-0.54,0.462-0.89,1.045-0.97,1.759l1.78-2.091c0.17,2.392,0.3,4.956,1.2,7.227
			c2.54-0.261,4.03,2.181,5.88,3.498c4.17,3.649,10.16,3.267,15.26,2.453c9.84-2.864,18.51-8.715,26.56-14.937
			c3.82,7.961,11.88,14.073,20.91,13.922c10.71-0.483,20.67-5.589,29.05-12.042c11.04-8.595,20.44-19.189,28.45-30.649
			c-0.29-2.473-1.5-4.734-2.18-7.116c-0.44-0.985-0.86-1.98-1.26-2.976c-1.09,2.774-3.44,4.715-5.4,6.855
			c-8.31,9.047-18.05,17.139-29.47,21.823c-6.21,2.413-14.29,4.031-19.54-1.176c-0.12-1.116-0.22-2.222-0.3-3.327
			c3.98-2.503,7.59-5.539,11.33-8.364c11.41-9.278,23.41-18.445,31.49-30.97c3.26-5.066,4.72-11.64,2.33-17.37
			c-1.43-3.89-5.88-5.317-9.6-5.83c-12.29-1.005-24.09,4.433-33.76,11.62c-3.56,3.066-7.46,5.81-10.29,9.61
			c-9.55,11.228-17.19,25.612-15.48,40.831c-1.98,3.277-6.23,3.87-9.25,5.9c-4.47,1.89-9.15,4.362-14.15,3.177
			c-3.2-0.462-4.75-4.132-4.05-7.037c0.99-5.227,4.21-9.6,6.34-14.384c5.66-10.474,10.81-21.22,16.37-31.744
			c0.94-1.478,1.13-3.217,1.14-4.936c-6.64-0.432-13.32-0.14-19.93-1.025c-2.18,1.578-4.33,3.357-5.56,5.82
			c-4.36,8.173-7.83,16.777-11.86,25.11c-3.71,9.63-12.5,16.114-21.28,20.818c-2.58,1.608-5.61,1.839-8.55,1.428
			c-1.04-1.066-2.09-2.122-3.13-3.177c-0.43-7.981,4.31-14.907,8.91-20.968c3.65-5.126,8.93-8.906,11.97-14.505
			c3.16-7.288-1.37-14.867-6.81-19.571c-10.93,0.191-21.13,4.866-31.84,6.514c0-2.382-0.08-4.764-0.4-7.126
			c-0.58-0.342-1.74-1.025-2.32-1.367c-1.33-0.03-2.66-0.05-3.98-0.06c-10.24,6.473-19.05,16.153-22.3,28.075
			c-0.63,4.402-1.39,9.831,2.47,13.007c0.67,0.09,2.02,0.281,2.7,0.372c-8.94,11.52-20.06,21.783-33.34,27.975
			c-5.2,1.94-11.31,4.111-16.6,1.267c-2.72-1.568-5.53-4.936-4.27-8.212c11.53-6.866,22.86-14.274,32.86-23.321
			c5.18-4.996,10.33-10.474,12.84-17.38c1.57-4.171,1.88-8.977,0.17-13.158c-1.74-3.549-5.56-5.77-9.45-5.86
			c-15.07-0.935-29.7,6.242-40.54,16.375c-11.1,11.54-19.18,26.748-20,42.972c-6.61,2.965-13.1,8.122-20.74,7.037
			c-0.46-2.563-0.76-5.338,0.51-7.73c2.78-5.831,6.49-11.128,9.81-16.646c3.94-6.253,8.82-12.053,11.26-19.129
			c0.74-3.347-1.88-6.413-4.72-7.74c-4.45-2.041-9.48-3.83-14.38-2.392c-7.17,2.975-13.05,8.202-18.9,13.178
			c-9.22,8.172-17.76,17.048-26.3,25.914c14.65-29.1,29.56-58.08,44.4-87.09c2.76-5.82,6.18-11.339,8.27-17.451
			c1.1-3.287,1.48-7.147-0.46-10.192c-6.06-2-13.02-2.101-18.89,0.573c-5.69,3.408-8.17,10.002-11.04,15.661
			c-13.36,29.884-25.67,60.392-42.33,88.648c-1.16,1.076-0.69,2.654-0.5,3.991c-0.3-0.522-0.91-1.568-1.21-2.09
			c-2.74,5.156-6.65,9.549-10.8,13.6c-8.8,8.625-18.47,16.314-28.47,23.481c-10.36,7.188-21.02,14.294-33.03,18.385
			c-4.95,1.87-10.41,1.91-15.58,1.116c-6.55-1.136-11.8-6.554-13.64-12.847c-1.89-6.423-2.7-13.329-1.45-19.954
			c1.88-14.042,6.95-27.542,13.92-39.805c0.17-0.473,0.51-1.428,0.68-1.9c6.13-8.957,12.29-17.923,18.8-26.628
			c3.51-4.151,6.73-8.544,10.32-12.625c10.51-11.218,21.09-22.918,34.78-30.246c4.03-2.282,8.46-4.192,13.14-4.292
			c-0.16-0.352-0.49-1.075-0.66-1.438c0.79,1.166,1.75,2.202,3.11,2.664c1.08,4.151-0.89,8.122-2.63,11.761
			c-4.3,8.775-9.6,17.018-15.37,24.878c-10.21,14.616-24.29,25.824-38.1,36.801c-3.91,3.066-6.81,7.187-9.13,11.56
			c1.33,1.166,1.97,2.804-0.23,3.408c0.55,3.739,2.35,7.65,6,9.217c4.48,2.634,9.7,0.774,14.04-1.156
			c15.31-8.092,27.67-20.757,38.58-34.046c10.37-13.107,19.98-27.281,25.3-43.283c1.94-5.449,3.13-11.249,2.72-17.068
			c-0.2-7.056-3.69-14.022-9.52-18.043C185.8,51.9,178.79,51.89,172.41,52.965z M469.48,83.353c-5.55,2-9.63,6.674-12.22,11.841
			c-0.79,4.202-1.38,9.338,1.8,12.736c2.03,2.493,5.49,2.644,8.44,2.875c9.41-2.131,15.78-12.002,15.44-21.431
			c0.03-2.543-1.89-4.443-3.27-6.363C476.35,81.805,472.67,81.654,469.48,83.353z M341.94,84.589
			c-8.05,3.75-16.31,7.037-24.21,11.107c-1.14,0.473-2.26,0.965-3.4,1.427c-6.58,3.146-13.24,6.202-19.34,10.223
			c0.43,2.945,1.05,5.86,1.38,8.826c3.75,0.402,7.06-1.568,10.46-2.805c3.82-1.518,7.81-2.563,11.64-4.071
			c10.18-2.805,20.55-5.227,31.14-5.609c0.61-0.251,1.83-0.774,2.44-1.025c-0.54-5.589-2.05-11.047-3.36-16.495
			C347.67,83.323,344.2,83.483,341.94,84.589z M330.46,211.033c-65.47,4.373-130.53,14.917-194.23,30.779
			c-27.6,7.227-55.31,14.495-81.82,25.21c-2.25,1.689-4.84,3.307-6.09,5.941c-2.94,8.685-6.35,17.611-5.39,26.969
			c5.67,0.945,10.76-2.162,15.78-4.262c19.32-8.484,38.96-16.254,58.91-23.14c10.25-3.75,20.74-6.795,31.14-10.082
			c73.27-22.285,149.45-34.418,225.83-38.288c50.93-2.624,102.13-1.427,152.8,4.594c3.49,0.512,6.99,0.985,10.53,0.955
			c0.05-2.081,0.13-4.161,0.24-6.232c-22.69-4.655-45.61-8.183-68.66-10.474c-14.62-1.709-29.34-2.171-44.01-3.297
			c-24.68-0.673-49.39-0.684-74.07,0.09C344.46,210.722,337.42,210.208,330.46,211.033z M513.55,253.432
			c-11.65,2.262-23.5,3.046-35.24,4.583c-2.74,5.529-4.41,11.53-7.28,16.998c-2.14,4.956-5.67,9.107-7.83,14.042
			c0.59,0.101,1.77,0.302,2.36,0.402c-0.6,0.061-1.79,0.171-2.39,0.231c2.22,6.042,6.62,11.439,12.35,14.404
			c5.38-3.658,10.92-7.066,16.79-9.9c6.95-2.564,16.1-7.027,22.61-1.197c3.16,4.774,2.02,10.927-0.48,15.721
			c-3.99,7.881-11.83,13.098-20.01,15.782c-7.88,1.396-16.49,1.638-23.94-1.739c-6.81-2.744-12.02-8.474-15.82-14.626
			c-0.8-0.101-1.6-0.211-2.39-0.312c-2.92,4.734-4.7,9.992-6.16,15.329c-17.82-0.754-35.6,1.368-52.99,5.217
			c5.01-2.222,9.42-5.528,14.34-7.931c13.77-8.132,28.12-16.013,39.16-27.844c3.88-3.98,6.8-8.886,8.08-14.334
			c0.45-4.503-0.65-9.158-3.33-12.816c-3.24-4.805-8.6-7.449-13.85-9.429c-6.75-2.191-13.99-1.648-20.95-1.166
			c-11.09,2.02-22.88,6.403-29.61,15.992c-2.39,3.056-2.47,7.127-2.1,10.816c2.18,4.965,5.58,11.861,12.09,10.595
			c4.62-9.72,11.43-19.049,21.52-23.472c5.11-2.814,12.16-3.056,16.34,1.448c1.35,7.388-5,12.404-9.81,16.756
			c-7.28,6.534-15.87,11.369-23.48,17.491c-9.75,7.539-19.99,14.726-27.85,24.366c-3.57,5.619-1.62,12.696,1.34,18.124
			c1.55,2.413,4.29,4.634,7.33,3.991c7.23-1.91,14.01-5.177,21.15-7.368c12.57-4.554,25.69-7.368,38.89-9.358
			c2.87-0.07,6.32-1.257,8.79,0.733c4.38,3.76,9.95,5.669,15.47,6.996c21.29,4.454,45.38-4.372,57.33-22.979
			c5.04-7.77,6.92-17.913,3.94-26.789c-2.63-8.071-11.45-12.233-19.43-12.253c-8.16,0.07-16.03,2.684-23.73,5.126
			c2.54-4.966,5.18-9.892,7.63-14.907c12.42-4.272,25.78-5.077,38.72-3.408c2.17-4.473,5.02-9.962,2.89-14.947
			c-0.6-0.241-1.8-0.714-2.4-0.955C525.48,250.818,519.52,252.286,513.55,253.432z"/>
	</g>
	<path fill="#E4212F" d="M511.07,127.139c2.13-1.327,4.68-1.397,7.11-1.186c0.1,3.518-1.79,6.514-3.87,9.157
		c-4.54,6.102-10.35,11.188-16.06,16.164c-2.97,1.87-4.78,5.388-8.29,6.333c1.85-3.407,2.47-7.317,4.12-10.815
		C497.69,138.81,503.05,131.12,511.07,127.139z"/>
	<path fill="#E4212F" d="M297.5,164.714c2.63-13.35,12.18-25,24.02-31.363c1.19-0.02,2.39-0.04,3.6-0.05
		c-0.13,1.699,0.16,3.568-0.86,5.056c-3.44,6.655-8.96,11.791-14.26,16.928C306.2,158.883,301.86,161.849,297.5,164.714z"/>
</g>
</svg>
