<?xml version="1.0" encoding="UTF-8" ?>
<!DOCTYPE svg PUBLIC "-//W3C//DTD SVG 1.1//EN" "http://www.w3.org/Graphics/SVG/1.1/DTD/svg11.dtd">
<svg width="1788pt" height="571pt" viewBox="0 0 1788 571" version="1.1" xmlns="http://www.w3.org/2000/svg">
<g id="#000000ff">
<path fill="#000000" opacity="1.00" d=" M 688.00 0.00 L 1096.50 0.00 C 1096.49 19.50 1096.52 39.00 1096.49 58.50 C 1041.00 58.51 985.50 58.49 930.00 58.51 C 929.99 180.67 930.01 302.83 930.00 425.00 C 906.25 425.00 882.50 425.01 858.75 424.99 C 858.72 302.82 858.79 180.66 858.72 58.49 C 801.82 58.52 744.92 58.48 688.02 58.51 C 687.97 39.01 688.01 19.50 688.00 0.00 Z" />
<path fill="#000000" opacity="1.00" d=" M 546.25 95.76 C 588.15 95.73 630.05 95.76 671.96 95.75 C 692.98 95.45 714.15 96.68 734.71 101.29 C 750.94 104.94 766.83 111.00 780.43 120.71 C 792.28 129.16 801.81 140.69 808.42 153.63 C 814.25 165.55 817.04 178.77 817.93 191.96 C 819.21 210.89 817.38 230.37 809.96 247.99 C 802.59 265.73 789.79 281.41 773.18 291.24 C 760.43 298.97 745.85 303.21 731.17 305.33 C 755.14 345.22 779.09 385.11 803.04 425.00 C 776.79 425.00 750.54 425.00 724.29 425.00 C 703.73 387.51 683.14 350.04 662.62 312.52 C 646.16 312.48 629.71 312.50 613.25 312.52 C 613.25 350.01 613.25 387.50 613.25 424.99 C 590.91 425.00 568.58 425.01 546.24 424.99 C 546.25 315.25 546.25 205.51 546.25 95.76 M 613.26 154.25 C 613.24 187.50 613.26 220.74 613.25 253.99 C 634.18 254.01 655.11 254.01 676.04 253.99 C 691.66 253.46 707.84 252.83 722.29 246.22 C 734.20 240.88 744.01 230.12 746.40 217.07 C 748.60 205.23 748.65 192.44 743.73 181.25 C 738.54 170.03 727.78 162.21 716.12 158.73 C 704.79 155.20 692.82 154.11 681.00 154.25 C 658.42 154.26 635.84 154.24 613.26 154.25 Z" />
<path fill="#000000" opacity="1.00" d=" M 996.25 95.76 C 1076.91 95.74 1157.58 95.75 1238.24 95.76 C 1238.26 115.25 1238.26 134.75 1238.24 154.24 C 1179.91 154.26 1121.58 154.24 1063.26 154.25 C 1063.24 187.50 1063.26 220.74 1063.25 253.99 C 1099.33 254.02 1135.41 253.99 1171.50 254.00 C 1171.50 274.92 1171.52 295.84 1171.49 316.76 C 1135.40 316.78 1099.31 316.68 1063.23 316.81 C 1063.28 352.87 1063.24 388.93 1063.25 424.99 C 1040.91 425.00 1018.58 425.01 996.24 424.99 C 996.25 315.25 996.24 205.50 996.25 95.76 Z" />
<path fill="#000000" opacity="1.00" d=" M 228.42 506.62 C 238.35 504.33 249.59 504.94 258.26 510.76 C 276.13 522.76 276.10 553.18 258.05 564.98 C 246.74 572.46 231.00 572.77 219.49 565.57 C 201.14 554.09 200.87 523.60 218.43 511.28 C 221.44 509.14 224.85 507.57 228.42 506.62 M 232.29 516.46 C 225.94 518.25 220.82 523.44 218.72 529.64 C 215.39 539.49 218.36 551.96 227.61 557.54 C 235.80 562.58 247.45 561.14 253.91 553.94 C 261.78 545.09 261.83 530.11 253.45 521.56 C 248.05 516.08 239.58 514.38 232.29 516.46 Z" />
<path fill="#000000" opacity="1.00" d=" M 538.89 511.92 C 543.55 507.14 550.51 505.35 557.02 505.45 C 563.51 505.30 570.16 507.36 574.97 511.84 C 572.20 514.73 569.51 517.70 566.67 520.53 C 562.70 515.43 554.91 514.20 549.34 517.21 C 545.51 519.20 544.22 525.42 547.97 528.11 C 554.68 533.15 564.18 532.68 570.33 538.68 C 575.71 543.39 576.20 551.56 574.05 557.97 C 571.93 564.09 566.28 568.41 560.07 569.80 C 550.32 572.19 538.57 570.31 531.87 562.26 C 534.67 559.47 537.39 556.59 540.41 554.03 C 544.59 560.22 553.87 562.73 560.13 558.19 C 563.82 555.84 564.57 549.79 561.08 546.96 C 554.90 541.89 546.02 542.25 539.83 537.17 C 532.02 531.36 532.05 518.45 538.89 511.92 Z" />
<path fill="#000000" opacity="1.00" d=" M 630.42 506.56 C 635.78 505.15 641.43 505.25 646.91 505.81 C 656.85 507.09 666.05 513.48 670.16 522.71 C 675.97 535.57 674.07 552.50 663.33 562.27 C 649.75 574.51 625.61 573.72 614.09 559.02 C 604.65 546.78 605.15 527.82 615.03 515.97 C 619.01 511.33 624.53 508.12 630.42 506.56 M 635.20 516.18 C 628.40 517.64 622.76 523.01 620.54 529.54 C 617.11 539.38 620.13 551.93 629.39 557.51 C 637.80 562.78 650.02 561.02 656.31 553.23 C 663.49 544.35 663.44 530.00 655.35 521.71 C 650.27 516.38 642.25 514.55 635.20 516.18 Z" />
<path fill="#000000" opacity="1.00" d=" M 1067.82 512.89 C 1072.50 507.42 1080.04 505.30 1087.03 505.46 C 1093.48 505.31 1100.10 507.35 1104.86 511.84 C 1102.13 514.75 1099.38 517.62 1096.67 520.54 C 1092.80 515.63 1085.49 514.41 1079.89 516.80 C 1075.87 518.51 1074.11 524.43 1077.31 527.67 C 1083.87 533.00 1093.34 532.56 1099.74 538.21 C 1108.65 545.91 1106.07 562.34 1095.67 567.55 C 1084.90 573.17 1070.12 571.55 1061.67 562.47 C 1064.29 559.40 1067.50 556.88 1070.23 553.90 C 1074.31 560.27 1083.81 562.72 1090.10 558.17 C 1093.75 555.78 1094.46 549.84 1091.05 546.96 C 1084.80 542.00 1076.02 542.22 1069.78 537.23 C 1062.26 531.72 1061.97 519.70 1067.82 512.89 Z" />
<path fill="#000000" opacity="1.00" d=" M 1160.39 506.55 C 1170.30 504.36 1181.52 504.99 1190.12 510.89 C 1204.80 520.92 1207.27 543.35 1197.39 557.54 C 1184.90 575.36 1153.96 575.33 1142.30 556.65 C 1136.22 547.03 1135.75 534.39 1140.02 523.98 C 1143.51 515.32 1151.36 508.77 1160.39 506.55 M 1163.38 516.65 C 1158.60 518.20 1154.48 521.59 1152.05 525.98 C 1147.16 534.73 1148.30 546.58 1155.03 554.07 C 1162.39 562.23 1176.30 562.66 1184.33 555.23 C 1193.74 546.39 1193.97 529.40 1184.22 520.71 C 1178.66 515.71 1170.40 514.44 1163.38 516.65 Z" />
<path fill="#000000" opacity="1.00" d=" M 1555.91 511.86 C 1568.31 502.65 1588.51 502.62 1598.66 515.28 C 1595.80 517.50 1592.87 519.61 1589.97 521.75 C 1587.72 519.78 1585.50 517.62 1582.62 516.66 C 1574.79 513.88 1565.42 516.79 1560.40 523.37 C 1554.25 531.26 1554.20 543.08 1559.58 551.39 C 1564.27 558.77 1574.30 562.59 1582.59 559.36 C 1585.93 558.15 1588.50 555.55 1590.76 552.89 C 1593.86 555.12 1596.96 557.35 1600.08 559.57 C 1595.92 565.60 1589.08 569.41 1581.89 570.36 C 1571.75 571.82 1560.52 569.27 1553.16 561.84 C 1546.78 555.75 1543.58 546.76 1543.96 538.01 C 1543.66 528.11 1547.88 517.87 1555.91 511.86 Z" />
<path fill="#000000" opacity="1.00" d=" M 1697.13 512.13 C 1701.94 507.10 1709.22 505.26 1716.00 505.46 C 1722.34 505.37 1728.77 507.50 1733.45 511.87 C 1730.68 514.73 1728.00 517.67 1725.20 520.50 C 1721.16 515.54 1713.60 514.22 1708.00 517.11 C 1704.17 518.95 1702.76 524.89 1706.08 527.85 C 1712.54 532.98 1721.73 532.54 1728.04 537.98 C 1737.48 545.70 1734.65 562.78 1723.78 567.84 C 1713.09 572.98 1698.38 571.62 1690.36 562.30 C 1693.11 559.48 1695.85 556.64 1698.82 554.05 C 1703.17 560.29 1712.72 562.84 1718.97 557.91 C 1722.54 555.37 1722.92 549.28 1719.24 546.68 C 1713.31 542.11 1705.19 542.18 1699.16 537.82 C 1690.71 532.38 1690.24 519.00 1697.13 512.13 Z" />
<path fill="#000000" opacity="1.00" d=" M 0.00 507.00 C 7.69 507.02 15.38 506.96 23.06 507.01 C 29.15 507.15 35.77 508.33 40.33 512.69 C 45.67 518.15 45.96 527.12 42.73 533.73 C 40.47 538.42 35.52 540.93 30.61 541.87 C 36.04 551.00 41.55 560.09 47.03 569.20 C 42.46 569.27 37.90 569.26 33.34 569.24 C 28.54 560.49 23.79 551.72 18.96 542.99 C 16.39 542.99 13.82 543.00 11.25 543.01 C 11.25 551.75 11.26 560.50 11.24 569.24 C 7.49 569.25 3.75 569.25 0.00 569.25 L 0.00 507.00 M 11.25 516.76 C 11.25 522.25 11.25 527.74 11.25 533.23 C 17.09 533.00 23.26 534.05 28.81 531.81 C 34.29 529.58 34.48 520.48 29.00 518.11 C 23.40 515.76 17.15 517.10 11.25 516.76 Z" />
<path fill="#000000" opacity="1.00" d=" M 75.04 507.00 C 78.31 507.00 81.57 506.99 84.84 507.00 C 93.78 527.74 102.70 548.49 111.66 569.22 C 107.36 569.28 103.06 569.23 98.77 569.27 C 96.71 564.55 94.86 559.75 92.89 555.00 C 84.01 555.00 75.14 555.00 66.26 555.00 C 64.45 559.77 62.45 564.45 60.69 569.24 C 56.44 569.26 52.19 569.25 47.93 569.24 C 57.00 548.51 65.95 527.72 75.04 507.00 M 70.17 545.23 C 76.41 545.27 82.66 545.22 88.91 545.27 C 85.84 537.06 82.74 528.86 79.60 520.68 C 76.50 528.88 73.28 537.04 70.17 545.23 Z" />
<path fill="#000000" opacity="1.00" d=" M 118.24 507.01 C 126.82 506.99 135.39 507.00 143.97 507.00 C 152.78 507.12 161.82 510.55 167.51 517.47 C 172.62 523.36 174.62 531.35 174.28 539.02 C 174.48 548.13 169.83 557.06 162.51 562.39 C 156.31 566.96 148.59 569.14 140.94 569.24 C 133.38 569.27 125.81 569.25 118.25 569.24 C 118.24 548.49 118.25 527.75 118.24 507.01 M 129.49 517.28 C 129.52 531.18 129.49 545.09 129.51 558.99 C 137.29 559.04 145.56 559.40 152.66 555.66 C 165.72 549.27 165.96 527.61 153.58 520.43 C 146.26 516.18 137.55 517.39 129.49 517.28 Z" />
<path fill="#000000" opacity="1.00" d=" M 184.24 507.01 C 188.00 506.99 191.76 506.98 195.51 507.03 C 195.47 527.77 195.54 548.51 195.48 569.25 C 191.73 569.25 187.98 569.28 184.22 569.20 C 184.27 548.47 184.24 527.74 184.24 507.01 Z" />
<path fill="#000000" opacity="1.00" d=" M 281.75 507.01 C 290.18 506.99 298.61 507.01 307.04 506.99 C 315.60 507.06 324.44 510.08 330.33 516.50 C 340.90 528.36 340.87 548.91 329.00 559.91 C 322.45 566.36 313.06 569.21 304.02 569.25 C 296.60 569.26 289.18 569.25 281.76 569.24 C 281.74 548.50 281.75 527.75 281.75 507.01 M 293.01 517.25 C 292.99 531.16 293.01 545.08 293.00 558.99 C 301.12 559.05 309.85 559.46 317.11 555.19 C 328.31 548.88 329.11 531.32 320.32 522.70 C 312.90 515.95 302.22 517.35 293.01 517.25 Z" />
<path fill="#000000" opacity="1.00" d=" M 348.00 507.00 C 351.75 506.99 355.50 506.99 359.25 507.01 C 359.25 527.75 359.26 548.50 359.24 569.24 C 355.50 569.25 351.75 569.25 348.01 569.25 C 347.99 548.50 348.00 527.75 348.00 507.00 Z" />
<path fill="#000000" opacity="1.00" d=" M 372.48 507.03 C 385.91 506.96 399.33 507.01 412.76 507.01 C 412.75 510.42 412.75 513.83 412.75 517.24 C 403.09 517.27 393.43 517.24 383.76 517.25 C 383.74 522.58 383.75 527.91 383.76 533.24 C 392.83 533.26 401.91 533.25 410.98 533.24 C 411.01 536.67 411.02 540.10 410.95 543.53 C 401.89 543.48 392.82 543.50 383.76 543.51 C 383.74 552.09 383.76 560.66 383.75 569.24 C 380.00 569.26 376.26 569.25 372.51 569.25 C 372.47 548.51 372.53 527.77 372.48 507.03 Z" />
<path fill="#000000" opacity="1.00" d=" M 422.75 507.01 C 436.17 506.99 449.58 507.00 463.00 507.00 C 463.00 510.41 463.00 513.83 462.99 517.25 C 453.33 517.25 443.67 517.25 434.01 517.25 C 433.99 522.58 433.99 527.91 434.01 533.24 C 443.08 533.25 452.16 533.24 461.24 533.25 C 461.25 536.66 461.25 540.07 461.25 543.48 C 452.17 543.53 443.08 543.48 434.00 543.51 C 433.99 552.09 434.01 560.67 433.99 569.25 C 430.24 569.25 426.50 569.25 422.76 569.24 C 422.74 548.50 422.75 527.75 422.75 507.01 Z" />
<path fill="#000000" opacity="1.00" d=" M 472.75 507.01 C 476.50 506.99 480.25 506.99 484.00 507.00 C 484.00 519.69 484.01 532.37 483.99 545.06 C 483.98 548.55 484.71 552.22 486.89 555.04 C 491.77 561.44 502.49 561.68 507.95 555.91 C 510.32 553.20 511.53 549.57 511.51 545.99 C 511.49 533.00 511.51 520.01 511.49 507.02 C 515.24 506.98 519.00 506.99 522.76 507.01 C 522.74 520.69 522.76 534.37 522.75 548.05 C 522.60 556.90 516.96 565.50 508.63 568.70 C 497.79 573.13 483.39 570.57 476.67 560.41 C 473.81 556.19 472.60 551.04 472.73 545.99 C 472.77 532.99 472.73 520.00 472.75 507.01 Z" />
<path fill="#000000" opacity="1.00" d=" M 586.00 507.00 C 589.85 507.01 593.71 506.91 597.57 507.11 C 597.40 527.82 597.58 548.54 597.48 569.25 C 593.65 569.25 589.83 569.25 586.01 569.25 C 585.99 548.50 586.00 527.75 586.00 507.00 Z" />
<path fill="#000000" opacity="1.00" d=" M 683.51 569.25 C 683.48 548.50 683.49 527.75 683.51 507.00 C 688.56 507.05 693.61 506.88 698.67 507.10 C 708.47 522.48 718.51 537.71 728.50 552.98 C 728.50 537.65 728.49 522.33 728.50 507.00 C 732.25 506.99 736.00 506.99 739.76 507.01 C 739.75 527.75 739.75 548.49 739.76 569.23 C 734.96 569.25 730.17 569.31 725.38 569.18 C 715.22 553.36 705.10 537.51 694.79 521.79 C 694.70 537.60 694.78 553.42 694.75 569.24 C 691.00 569.26 687.26 569.25 683.51 569.25 Z" />
<path fill="#000000" opacity="1.00" d=" M 774.50 507.00 C 790.92 507.00 807.34 506.99 823.76 507.01 C 823.75 510.42 823.75 513.83 823.75 517.24 C 817.46 517.23 811.17 517.32 804.89 517.18 C 804.57 534.52 804.84 551.88 804.75 569.24 C 801.01 569.26 797.27 569.24 793.54 569.26 C 793.43 551.92 793.55 534.58 793.48 517.24 C 787.15 517.25 780.83 517.26 774.51 517.24 C 774.49 513.83 774.49 510.41 774.50 507.00 Z" />
<path fill="#000000" opacity="1.00" d=" M 831.00 507.00 C 844.75 507.00 858.50 506.99 872.25 507.01 C 872.25 510.42 872.25 513.83 872.24 517.24 C 862.24 517.26 852.25 517.24 842.26 517.25 C 842.24 522.25 842.25 527.24 842.25 532.24 C 851.75 532.27 861.25 532.23 870.75 532.25 C 870.75 535.67 870.75 539.08 870.74 542.50 C 861.24 542.52 851.74 542.46 842.24 542.53 C 842.26 548.01 842.24 553.50 842.25 558.99 C 852.83 559.02 863.41 558.99 874.00 559.00 C 874.00 562.41 874.00 565.83 873.99 569.25 C 859.66 569.25 845.33 569.25 831.01 569.25 C 830.99 548.50 831.00 527.75 831.00 507.00 Z" />
<path fill="#000000" opacity="1.00" d=" M 884.49 507.03 C 888.24 506.98 892.00 506.99 895.76 507.01 C 895.75 524.34 895.75 541.67 895.76 558.99 C 904.50 559.01 913.25 558.99 922.00 559.00 C 922.00 562.41 922.00 565.83 921.99 569.25 C 909.50 569.26 897.01 569.25 884.52 569.25 C 884.47 548.51 884.52 527.77 884.49 507.03 Z" />
<path fill="#000000" opacity="1.00" d=" M 930.00 507.00 C 943.75 507.00 957.50 506.99 971.25 507.01 C 971.25 510.42 971.25 513.83 971.24 517.24 C 961.24 517.26 951.25 517.24 941.26 517.25 C 941.24 522.24 941.25 527.24 941.25 532.24 C 950.66 532.26 960.07 532.25 969.48 532.24 C 969.51 535.65 969.50 539.07 969.49 542.50 C 960.08 542.51 950.67 542.50 941.26 542.50 C 941.23 547.99 941.26 553.49 941.25 558.99 C 951.75 559.02 962.25 558.97 972.76 559.01 C 972.75 562.41 972.75 565.82 972.76 569.23 C 958.51 569.28 944.26 569.24 930.01 569.25 C 929.99 548.50 930.00 527.75 930.00 507.00 Z" />
<path fill="#000000" opacity="1.00" d=" M 976.12 507.01 C 980.45 506.99 984.79 507.00 989.13 507.00 C 994.73 522.46 1000.30 537.94 1005.87 553.42 C 1011.66 537.96 1017.38 522.47 1023.16 507.00 C 1027.23 507.00 1031.30 506.99 1035.38 507.01 C 1027.04 527.77 1018.66 548.52 1010.24 569.25 C 1007.02 569.24 1003.82 569.24 1000.62 569.28 C 992.34 548.57 984.28 527.77 976.12 507.01 Z" />
<path fill="#000000" opacity="1.00" d=" M 1041.49 507.02 C 1045.24 506.98 1049.00 506.99 1052.76 507.01 C 1052.75 527.75 1052.75 548.49 1052.75 569.24 C 1049.00 569.26 1045.26 569.25 1041.52 569.25 C 1041.47 548.51 1041.52 527.76 1041.49 507.02 Z" />
<path fill="#000000" opacity="1.00" d=" M 1116.00 507.00 C 1119.74 506.99 1123.49 506.99 1127.25 507.01 C 1127.25 527.75 1127.26 548.50 1127.24 569.24 C 1123.49 569.25 1119.75 569.25 1116.01 569.25 C 1115.99 548.50 1116.00 527.75 1116.00 507.00 Z" />
<path fill="#000000" opacity="1.00" d=" M 1213.49 507.02 C 1218.42 506.97 1223.36 507.02 1228.30 506.98 C 1238.38 522.09 1248.02 537.50 1258.21 552.53 C 1258.28 537.35 1258.23 522.18 1258.24 507.01 C 1261.99 506.99 1265.75 506.98 1269.51 507.02 C 1269.48 527.77 1269.53 548.51 1269.48 569.25 C 1264.77 569.25 1260.06 569.26 1255.36 569.24 C 1245.16 553.44 1234.99 537.62 1224.77 521.83 C 1224.72 537.63 1224.76 553.43 1224.75 569.24 C 1221.00 569.26 1217.25 569.25 1213.51 569.25 C 1213.47 548.51 1213.52 527.76 1213.49 507.02 Z" />
<path fill="#000000" opacity="1.00" d=" M 1309.00 507.00 C 1322.42 507.00 1335.83 506.99 1349.25 507.01 C 1349.25 510.42 1349.25 513.83 1349.24 517.24 C 1339.58 517.26 1329.91 517.24 1320.26 517.25 C 1320.21 522.55 1320.31 527.85 1320.19 533.15 C 1329.29 533.38 1338.40 533.17 1347.50 533.26 C 1347.50 536.67 1347.50 540.08 1347.49 543.50 C 1338.43 543.50 1329.36 543.53 1320.30 543.48 C 1320.18 552.06 1320.29 560.65 1320.24 569.24 C 1316.49 569.25 1312.74 569.25 1309.01 569.25 C 1308.99 548.50 1309.00 527.75 1309.00 507.00 Z" />
<path fill="#000000" opacity="1.00" d=" M 1359.24 507.01 C 1367.49 507.03 1375.75 506.92 1384.00 507.05 C 1391.30 507.34 1399.70 509.98 1402.80 517.26 C 1405.25 523.84 1404.57 532.23 1399.42 537.39 C 1396.88 539.92 1393.41 541.12 1390.00 541.87 C 1395.46 550.99 1400.95 560.10 1406.40 569.23 C 1401.85 569.27 1397.31 569.23 1392.77 569.26 C 1387.94 560.66 1383.33 551.94 1378.53 543.34 C 1375.96 542.56 1373.15 543.17 1370.51 543.01 C 1370.48 551.76 1370.53 560.50 1370.48 569.25 C 1366.72 569.25 1362.97 569.28 1359.23 569.21 C 1359.27 548.47 1359.24 527.74 1359.24 507.01 M 1370.51 516.76 C 1370.49 522.25 1370.49 527.74 1370.51 533.24 C 1376.29 533.03 1382.35 533.96 1387.90 531.94 C 1393.83 529.81 1393.83 519.95 1387.90 517.84 C 1382.32 515.88 1376.28 517.07 1370.51 516.76 Z" />
<path fill="#000000" opacity="1.00" d=" M 1434.34 507.01 C 1437.62 506.99 1440.91 506.99 1444.22 507.00 C 1453.19 527.73 1462.05 548.52 1471.07 569.24 C 1466.73 569.26 1462.39 569.25 1458.06 569.25 C 1456.15 564.49 1454.19 559.75 1452.28 555.00 C 1443.34 555.10 1434.39 554.80 1425.45 555.15 C 1423.83 559.92 1421.85 564.57 1419.99 569.25 C 1415.77 569.25 1411.54 569.27 1407.33 569.22 C 1416.33 548.48 1425.41 527.78 1434.34 507.01 M 1429.53 545.25 C 1435.78 545.24 1442.03 545.26 1448.29 545.23 C 1445.19 537.07 1442.17 528.89 1439.00 520.76 C 1435.80 528.90 1432.68 537.08 1429.53 545.25 Z" />
<path fill="#000000" opacity="1.00" d=" M 1477.49 507.02 C 1482.53 507.03 1487.58 506.87 1492.62 507.12 C 1502.37 522.29 1512.17 537.43 1522.20 552.41 C 1522.30 537.28 1522.22 522.15 1522.24 507.01 C 1525.99 506.99 1529.75 506.98 1533.51 507.02 C 1533.47 527.77 1533.55 548.51 1533.47 569.26 C 1528.76 569.24 1524.07 569.27 1519.38 569.23 C 1509.22 553.35 1498.98 537.53 1488.76 521.68 C 1488.74 537.53 1488.76 553.39 1488.75 569.24 C 1485.00 569.25 1481.26 569.25 1477.52 569.25 C 1477.46 548.51 1477.52 527.76 1477.49 507.02 Z" />
<path fill="#000000" opacity="1.00" d=" M 1627.17 506.99 C 1630.42 506.99 1633.69 507.00 1636.96 507.00 C 1645.94 527.74 1654.84 548.51 1663.81 569.24 C 1659.49 569.26 1655.18 569.25 1650.87 569.25 C 1648.86 564.52 1646.97 559.75 1645.03 555.00 C 1636.13 555.01 1627.24 554.97 1618.35 555.03 C 1616.56 559.79 1614.64 564.50 1612.76 569.23 C 1608.53 569.26 1604.30 569.26 1600.09 569.22 C 1609.12 548.48 1618.12 527.73 1627.17 506.99 M 1622.29 545.25 C 1628.54 545.23 1634.80 545.26 1641.07 545.24 C 1637.94 537.07 1634.91 528.87 1631.76 520.72 C 1628.57 528.89 1625.45 537.08 1622.29 545.25 Z" />
<path fill="#000000" opacity="1.00" d=" M 1670.00 507.00 C 1673.74 506.99 1677.49 506.99 1681.25 507.01 C 1681.25 527.75 1681.26 548.50 1681.24 569.24 C 1677.49 569.25 1673.74 569.25 1670.01 569.25 C 1669.99 548.50 1670.00 527.75 1670.00 507.00 Z" />
<path fill="#000000" opacity="1.00" d=" M 1744.75 507.01 C 1758.58 507.00 1772.41 506.99 1786.25 507.01 C 1786.25 510.42 1786.24 513.83 1786.24 517.24 C 1776.24 517.26 1766.25 517.24 1756.25 517.26 C 1756.24 522.25 1756.24 527.24 1756.25 532.24 C 1765.67 532.28 1775.09 532.19 1784.52 532.28 C 1784.49 535.68 1784.49 539.09 1784.50 542.50 C 1775.08 542.51 1765.67 542.50 1756.26 542.50 C 1756.23 548.00 1756.25 553.49 1756.25 558.99 C 1766.74 559.01 1777.24 558.99 1787.74 559.00 C 1787.75 562.41 1787.75 565.83 1787.74 569.25 C 1773.41 569.25 1759.08 569.26 1744.76 569.24 C 1744.74 548.50 1744.75 527.75 1744.75 507.01 Z" />
<path fill="#000000" opacity="1.00" d=" M 749.24 543.01 C 756.58 542.99 763.91 543.00 771.25 543.01 C 771.25 546.00 771.25 548.99 771.25 551.99 C 763.91 552.00 756.58 552.01 749.24 551.99 C 749.24 548.99 749.24 546.00 749.24 543.01 Z" />
</g>
</svg>
