<?xml version="1.0" encoding="UTF-8" standalone="no"?>
<!-- Created with Inkscape (http://www.inkscape.org/) -->

<svg
   xmlns:dc="http://purl.org/dc/elements/1.1/"
   xmlns:cc="http://creativecommons.org/ns#"
   xmlns:rdf="http://www.w3.org/1999/02/22-rdf-syntax-ns#"
   xmlns:svg="http://www.w3.org/2000/svg"
   xmlns="http://www.w3.org/2000/svg"
   xmlns:sodipodi="http://sodipodi.sourceforge.net/DTD/sodipodi-0.dtd"
   xmlns:inkscape="http://www.inkscape.org/namespaces/inkscape"
   width="489"
   height="170"
   id="svg2"
   version="1.1"
   inkscape:version="0.47 r22583">
  <g
     inkscape:label="Layer 1"
     inkscape:groupmode="layer"
     id="layer1"
     transform="translate(-52.149006,-351.30542)">
    <path
       id="path9423"
       d="m 90.075627,468.5787 c 0,5.62191 -4.216435,8.64582 -10.349432,8.64582 -1.213822,0 -2.896137,-0.12777 -3.726647,-0.23425 l 0,-16.24818 c 0.724034,-0.12777 2.768366,-0.23425 4.216435,-0.23425 7.325524,0 9.859644,3.59888 9.859644,8.07086 z m 29.216913,51.08701 -14.54457,-23.1691 c -1.81009,-2.91743 -3.72665,-5.7071 -5.898751,-8.731 9.391151,-3.15168 14.800111,-11.77621 14.800111,-20.74146 0,-16.78056 -11.54196,-23.5737 -32.24082,-23.5737 -10.242956,0 -20.23037,0.10647 -27.832731,0.55367 l 0,75.66159 22.423769,0 0,-27.64108 0.83051,0 15.289901,27.64108 27.172581,0"
       style="fill:#241f20;fill-rule:nonzero;stroke:none" />
    <path
       id="path9425"
       d="m 148.44557,461.89203 0,12.18081 22.57283,0 0,17.07869 -22.57283,0 0,28.51418 -22.42377,0 0,-75.72548 46.3169,0 0,17.9518 -23.89313,0"
       style="fill:#241f20;fill-rule:nonzero;stroke:none" />
    <path
       id="path9427"
       d="m 234.88249,481.56872 c 0,16.07782 -9.30597,20.5711 -16.22689,20.5711 -10.75404,0 -15.16213,-7.8792 -15.16213,-20.80534 0,-14.28903 7.8792,-19.91095 15.63063,-19.91095 10.62626,0 15.75839,6.85703 15.75839,20.14519 z m 23.80795,-1.02216 c 0,-27.5559 -16.84444,-38.24605 -37.90532,-38.24605 -22.59413,0 -41.12089,16.09912 -41.12089,40.60981 0,24.0422 12.52153,38.39511 37.90532,38.39511 22.95615,0 41.12089,-16.03523 41.12089,-40.75887"
       style="fill:#241f20;fill-rule:nonzero;stroke:none" />
    <path
       id="path9429"
       d="m 52.149006,388.72197 40.694987,0 0,42.10047 -40.694987,0 z"
       style="fill:#006ab7;fill-rule:nonzero;stroke:none" />
    <path
       id="path9431"
       d="m 129.34384,388.72197 40.69499,0 0,42.10047 -40.69499,0 z"
       style="fill:#f9a139;fill-rule:nonzero;stroke:none" />
    <path
       id="path9433"
       d="m 207.94415,388.72197 40.69499,0 0,42.10047 -40.69499,0 z"
       style="fill:#00693f;fill-rule:nonzero;stroke:none" />
    <path
       id="path9435"
       d="m 294.67921,521.07118 c -9.79576,0 -19.35727,-1.10734 -27.12999,-2.98131 l 1.19252,-19.2295 c 7.55977,2.6193 18.14345,4.68492 27.93921,4.68492 14.80011,0 26.81056,-5.81356 26.81056,-19.46374 0,-26.57632 -58.94491,-15.35379 -58.94491,-56.15525 0,-21.72103 18.14345,-36.86187 49.55376,-36.86187 7.98568,0 16.1843,0.93699 24.34033,2.23599 l -1.19252,18.16475 c -7.77273,-2.25729 -16.35466,-3.55629 -24.36163,-3.55629 -16.80185,0 -25.40509,7.30423 -25.40509,17.78143 0,25.25602 58.94492,15.90746 58.94492,55.38863 0,23.21168 -19.54893,39.99224 -51.74716,39.99224"
       style="fill:#241f20;fill-rule:nonzero;stroke:none" />
    <path
       id="path9437"
       d="m 426.41086,464.95852 c 0,16.97222 -12.54283,33.71019 -31.23995,33.71019 -10.75404,0 -17.39812,-5.72839 -17.39812,-14.58716 0,-10.26425 8.70971,-21.50808 48.63807,-21.50808 l 0,2.38505 z m 27.89662,51.36385 c -0.51108,-10.03 -0.74533,-22.18952 -0.74533,-32.47507 l 0,-48.33994 c 0,-23.97831 -10.66886,-39.7367 -49.42599,-39.7367 -16.37595,0 -32.21953,3.34333 -44.67718,7.87919 l 2.53412,21.55067 c 10.69016,-6.1117 26.02265,-9.39115 37.79885,-9.39115 19.97483,0 26.61891,7.51718 26.61891,22.04046 l 0,7.51718 c -45.82711,0 -74.85237,15.77969 -74.85237,43.01615 0,18.86749 13.73536,30.32427 35.43509,30.32427 20.20908,0 36.09524,-10.4985 42.20694,-24.57458 l 0.25555,0.23425 c -1.00088,6.45242 -1.25642,14.31032 -1.25642,21.95527 l 26.10783,0"
       style="fill:#241f20;fill-rule:nonzero;stroke:none" />
    <path
       id="path9439"
       d="m 515.3819,520.15549 c -27.68366,0 -36.05265,-9.90223 -36.05265,-36.86186 l 0,-66.03619 -24.72364,0 0,-20.12389 24.72364,0 0,-38.9275 27.72626,-6.89962 0,45.82712 34.0935,0 0,20.12389 -33.83796,0 0,58.00793 c 0,18.01567 3.89701,22.89226 16.90833,22.89226 5.72839,0 11.98916,-0.72404 16.92963,-1.93786 l 0,21.27383 c -7.55977,1.44807 -17.18517,2.66189 -25.76711,2.66189"
       style="fill:#241f20;fill-rule:nonzero;stroke:none" />
  </g>
</svg>
