<?xml version="1.0" encoding="utf-8"?>
<!-- Generator: Adobe Illustrator 15.0.1, SVG Export Plug-In . SVG Version: 6.00 Build 0)  -->
<!DOCTYPE svg PUBLIC "-//W3C//DTD SVG 1.1//EN" "http://www.w3.org/Graphics/SVG/1.1/DTD/svg11.dtd">
<svg version="1.1" xmlns="http://www.w3.org/2000/svg" xmlns:xlink="http://www.w3.org/1999/xlink" x="0px" y="0px" width="675px"
	 height="515px" viewBox="0 0 675 515" enable-background="new 0 0 675 515" xml:space="preserve">
<g id="Calque_10">
	<g id="Calque_3_-_copie_2">
		<rect fill="#CC4439" width="675" height="515"/>
	</g>
	<g id="Calque_3_-_copie">
		<g>
			<defs>
				<rect id="SVGID_1_" width="675" height="515"/>
			</defs>
			<clipPath id="SVGID_2_">
				<use xlink:href="#SVGID_1_"  overflow="visible"/>
			</clipPath>
			<path clip-path="url(#SVGID_2_)" fill="#D49067" stroke="#000000" stroke-width="2" stroke-miterlimit="10" d="M1150.112,369.268
				c0,320.331-259.643,580.001-579.999,580.001c-320.358,0-580.001-259.67-580.001-580.001
				c0-320.329,259.643-579.999,580.001-579.999C890.47-210.731,1150.112,48.939,1150.112,369.268z"/>
			<path clip-path="url(#SVGID_2_)" fill="#7FBDD6" stroke="#000000" stroke-width="2" stroke-miterlimit="10" d="M1080.112,369.268
				c0,281.67-228.307,510.001-509.999,510.001c-281.694,0-510.001-228.331-510.001-510.001
				c0-281.668,228.307-509.999,510.001-509.999C851.806-140.731,1080.112,87.599,1080.112,369.268z"/>
			<path clip-path="url(#SVGID_2_)" fill="#74ADC4" stroke="#000000" stroke-width="2" stroke-miterlimit="10" d="M1010.112,369.268
				c0,243.01-196.971,440.001-439.999,440.001c-243.03,0-440.001-196.991-440.001-440.001
				c0-243.008,196.971-439.999,440.001-439.999C813.142-70.731,1010.112,126.26,1010.112,369.268z"/>
			<path clip-path="url(#SVGID_2_)" fill="#6B9FB5" stroke="#000000" stroke-width="2" stroke-miterlimit="10" d="M955.112,369.268
				c0,212.634-172.35,385.001-384.999,385.001c-212.651,0-385.001-172.367-385.001-385.001
				c0-212.632,172.35-384.999,385.001-384.999C782.763-15.731,955.112,156.636,955.112,369.268z"/>
			<path clip-path="url(#SVGID_2_)" fill="#54889E" stroke="#000000" stroke-width="2" stroke-miterlimit="10" d="M900.112,369.268
				c0,182.258-147.729,330.001-329.999,330.001c-182.272,0-330.001-147.743-330.001-330.001
				c0-182.256,147.729-329.999,330.001-329.999C752.384,39.269,900.112,187.012,900.112,369.268z"/>
			<path clip-path="url(#SVGID_2_)" fill="#5C6596" stroke="#000000" stroke-width="2" stroke-miterlimit="10" d="M850.112,369.268
				c0,154.643-125.346,280.001-279.999,280.001c-154.655,0-280.001-125.358-280.001-280.001
				c0-154.641,125.346-279.999,280.001-279.999C724.767,89.269,850.112,214.626,850.112,369.268z"/>
			<path clip-path="url(#SVGID_2_)" fill="#887BAD" stroke="#000000" stroke-width="2" stroke-miterlimit="10" d="M805.112,369.268
				c0,129.789-105.201,235.001-234.999,235.001c-129.8,0-235.001-105.212-235.001-235.001
				c0-129.788,105.201-234.999,235.001-234.999C699.911,134.269,805.112,239.479,805.112,369.268z"/>
			<path clip-path="url(#SVGID_2_)" fill="#B5799E" stroke="#000000" stroke-width="2" stroke-miterlimit="10" d="M765.112,369.268
				c0,107.697-87.295,195.001-194.999,195.001c-107.706,0-195.001-87.304-195.001-195.001c0-107.696,87.295-194.999,195.001-194.999
				C677.817,174.269,765.112,261.571,765.112,369.268z"/>
			<path clip-path="url(#SVGID_2_)" fill="#914A75" stroke="#000000" stroke-width="2" stroke-miterlimit="10" d="M730.112,369.268
				c0,88.367-71.627,160.001-159.999,160.001c-88.374,0-160.001-71.634-160.001-160.001c0-88.366,71.627-159.999,160.001-159.999
				C658.485,209.269,730.112,280.901,730.112,369.268z"/>
			<path clip-path="url(#SVGID_2_)" fill="#993D3D" stroke="#000000" stroke-width="2" stroke-miterlimit="10" d="M700.112,369.268
				c0,71.799-58.197,130.001-129.999,130.001c-71.804,0-130.001-58.202-130.001-130.001c0-71.797,58.197-129.999,130.001-129.999
				C641.915,239.269,700.112,297.47,700.112,369.268z"/>
			<path clip-path="url(#SVGID_2_)" fill="#C67267" stroke="#000000" stroke-width="2" stroke-miterlimit="10" d="M670.112,369.268
				c0,55.23-44.768,100.001-99.999,100.001c-55.233,0-100.001-44.771-100.001-100.001c0-55.229,44.768-99.999,100.001-99.999
				C625.345,269.269,670.112,314.039,670.112,369.268z"/>
			<path clip-path="url(#SVGID_2_)" fill="#C6826D" stroke="#000000" stroke-width="2" stroke-miterlimit="10" d="M650.112,369.268
				c0,44.185-35.814,80.001-79.999,80.001c-44.187,0-80.001-35.816-80.001-80.001c0-44.183,35.814-79.999,80.001-79.999
				C614.298,289.269,650.112,325.085,650.112,369.268z"/>
			
				<circle clip-path="url(#SVGID_2_)" fill="#C68E6D" stroke="#000000" stroke-width="2" stroke-miterlimit="10" cx="570.112" cy="369.268" r="55"/>
			
				<circle clip-path="url(#SVGID_2_)" fill="#C68C6B" stroke="#000000" stroke-width="2" stroke-miterlimit="10" cx="570.113" cy="369.268" r="29.929"/>
		</g>
	</g>
</g>
<g id="Calque_11" opacity="0.5">
</g>
<g id="Calque_3" opacity="0.5">
	<g>
		<defs>
			<rect id="SVGID_3_" width="675" height="515"/>
		</defs>
		<clipPath id="SVGID_4_">
			<use xlink:href="#SVGID_3_"  overflow="visible"/>
		</clipPath>
		
			<rect x="340.5" y="-3.5" clip-path="url(#SVGID_4_)" fill="#8C0000" stroke="#000000" stroke-miterlimit="10" width="34" height="527"/>
		
			<rect x="306.5" y="-3.5" clip-path="url(#SVGID_4_)" fill="#BA0000" stroke="#000000" stroke-miterlimit="10" width="34" height="527"/>
		
			<rect x="272.5" y="-3.5" clip-path="url(#SVGID_4_)" fill="#BA005A" stroke="#000000" stroke-miterlimit="10" width="34" height="527"/>
		
			<rect x="238.5" y="-3.5" clip-path="url(#SVGID_4_)" fill="#00133D" stroke="#000000" stroke-miterlimit="10" width="34" height="527"/>
		
			<rect x="204.5" y="-3.5" clip-path="url(#SVGID_4_)" fill="#255E94" stroke="#000000" stroke-miterlimit="10" width="34" height="527"/>
		
			<rect x="170.5" y="-3.5" clip-path="url(#SVGID_4_)" fill="#61A5E6" stroke="#000000" stroke-miterlimit="10" width="34" height="527"/>
		
			<rect x="136.5" y="-3.5" clip-path="url(#SVGID_4_)" fill="#61A5E6" stroke="#000000" stroke-miterlimit="10" width="34" height="527"/>
	</g>
</g>
<g id="Calque_9">
	<g id="Calque_5">
		<g>
			<path fill="#FFFFFF" d="M211.785,398.341c-0.954,4.665-2.822,8.253-5.604,10.765c-2.783,2.513-5.863,3.769-9.238,3.769
				c-4.02,0-7.524-1.688-10.513-5.063c-2.99-3.375-4.484-7.936-4.484-13.683c0-5.565,1.655-10.088,4.967-13.566
				c3.311-3.479,7.286-5.218,11.924-5.218c3.479,0,6.339,0.921,8.581,2.764c2.242,1.842,3.362,3.756,3.362,5.739
				c0,0.979-0.315,1.772-0.947,2.377c-0.632,0.606-1.514,0.908-2.647,0.908c-1.521,0-2.667-0.489-3.44-1.469
				c-0.438-0.541-0.729-1.571-0.87-3.092c-0.142-1.521-0.664-2.68-1.565-3.479c-0.902-0.773-2.152-1.16-3.75-1.16
				c-2.577,0-4.651,0.954-6.223,2.86c-2.087,2.526-3.131,5.862-3.131,10.011c0,4.227,1.037,7.957,3.111,11.19
				c2.074,3.233,4.876,4.851,8.407,4.851c2.525,0,4.793-0.863,6.803-2.59c1.417-1.185,2.795-3.337,4.136-6.455L211.785,398.341z"/>
			<path fill="#FFFFFF" d="M225.266,356.829v25.896c2.86-3.144,5.127-5.16,6.803-6.049c1.675-0.889,3.349-1.333,5.024-1.333
				c2.01,0,3.736,0.554,5.18,1.662c1.443,1.107,2.512,2.847,3.208,5.218c0.489,1.649,0.734,4.664,0.734,9.044v12.523
				c0,2.242,0.18,3.775,0.541,4.6c0.257,0.618,0.696,1.108,1.314,1.469c0.619,0.361,1.752,0.541,3.401,0.541v1.392h-17.393V410.4
				h0.812c1.649,0,2.796-0.251,3.44-0.754c0.644-0.502,1.095-1.242,1.353-2.222c0.077-0.412,0.116-1.624,0.116-3.634v-12.523
				c0-3.865-0.2-6.402-0.599-7.614c-0.4-1.211-1.038-2.119-1.914-2.725s-1.933-0.908-3.169-0.908c-1.263,0-2.577,0.335-3.942,1.005
				c-1.366,0.67-3.002,2.023-4.909,4.059v18.707c0,2.423,0.135,3.93,0.406,4.522s0.773,1.089,1.507,1.488s2.003,0.599,3.807,0.599
				v1.392h-17.548V410.4c1.572,0,2.809-0.244,3.711-0.734c0.515-0.257,0.927-0.747,1.237-1.469c0.309-0.721,0.464-2.189,0.464-4.406
				v-32.042c0-4.045-0.097-6.532-0.29-7.46s-0.49-1.559-0.889-1.894c-0.4-0.335-0.934-0.503-1.604-0.503
				c-0.541,0-1.417,0.207-2.628,0.618l-0.541-1.353l10.591-4.329H225.266z"/>
			<path fill="#FFFFFF" d="M272.53,406.69c-3.633,2.809-5.914,4.432-6.842,4.87c-1.391,0.644-2.874,0.966-4.445,0.966
				c-2.448,0-4.464-0.837-6.049-2.513c-1.585-1.675-2.377-3.878-2.377-6.609c0-1.726,0.386-3.221,1.159-4.483
				c1.057-1.752,2.893-3.401,5.508-4.947s6.963-3.427,13.045-5.644v-1.392c0-3.529-0.561-5.952-1.682-7.266
				c-1.121-1.314-2.751-1.972-4.889-1.972c-1.624,0-2.913,0.438-3.865,1.314c-0.98,0.876-1.469,1.881-1.469,3.015l0.077,2.242
				c0,1.185-0.303,2.1-0.908,2.744c-0.606,0.644-1.398,0.966-2.377,0.966c-0.954,0-1.733-0.334-2.338-1.005
				c-0.605-0.67-0.908-1.585-0.908-2.744c0-2.216,1.134-4.252,3.401-6.107c2.267-1.854,5.45-2.782,9.547-2.782
				c3.144,0,5.721,0.528,7.73,1.584c1.52,0.8,2.641,2.049,3.363,3.75c0.464,1.107,0.696,3.376,0.696,6.803v12.021
				c0,3.376,0.064,5.443,0.193,6.203c0.128,0.761,0.341,1.27,0.638,1.527c0.296,0.258,0.638,0.386,1.024,0.386
				c0.412,0,0.773-0.09,1.083-0.271c0.541-0.334,1.584-1.275,3.131-2.821v2.165c-2.886,3.864-5.644,5.797-8.271,5.797
				c-1.263,0-2.268-0.438-3.015-1.313C272.941,410.298,272.555,408.803,272.53,406.69z M272.53,404.178v-13.489
				c-3.892,1.546-6.404,2.642-7.537,3.285c-2.036,1.134-3.492,2.319-4.368,3.556c-0.876,1.237-1.314,2.59-1.314,4.059
				c0,1.855,0.554,3.396,1.662,4.619c1.107,1.224,2.383,1.836,3.827,1.836C266.757,408.043,269.334,406.755,272.53,404.178z"/>
			<path fill="#FFFFFF" d="M290.958,358.26h7.112l7.344,12.793h-1.198l-10.552-8.232l-8.851,8.232h-1.16L290.958,358.26z
				 M297.8,375.344v28.447c0,2.217,0.167,3.691,0.502,4.426c0.334,0.734,0.818,1.282,1.45,1.643
				c0.631,0.361,1.784,0.541,3.459,0.541v1.392h-17.2V410.4c1.726,0,2.885-0.167,3.479-0.502c0.592-0.335,1.063-0.89,1.411-1.662
				c0.348-0.773,0.522-2.255,0.522-4.445v-13.644c0-3.84-0.116-6.326-0.348-7.46c-0.181-0.824-0.464-1.397-0.851-1.721
				c-0.387-0.321-0.915-0.482-1.584-0.482c-0.722,0-1.598,0.193-2.628,0.579l-0.541-1.391l10.667-4.329H297.8z"/>
			<path fill="#FFFFFF" d="M315.959,382.842c4.148-4.999,8.104-7.498,11.866-7.498c1.933,0,3.595,0.482,4.986,1.449
				c1.391,0.966,2.499,2.558,3.324,4.773c0.567,1.546,0.851,3.917,0.851,7.112v15.112c0,2.242,0.18,3.763,0.541,4.561
				c0.283,0.645,0.74,1.147,1.372,1.508c0.631,0.361,1.797,0.541,3.498,0.541v1.392h-17.509V410.4h0.734
				c1.649,0,2.802-0.251,3.459-0.754c0.657-0.502,1.114-1.242,1.372-2.222c0.103-0.387,0.155-1.598,0.155-3.634v-14.494
				c0-3.221-0.419-5.56-1.256-7.016c-0.838-1.455-2.249-2.184-4.232-2.184c-3.067,0-6.12,1.675-9.16,5.024v18.669
				c0,2.396,0.141,3.879,0.425,4.445c0.361,0.747,0.856,1.295,1.488,1.643c0.631,0.348,1.913,0.521,3.846,0.521v1.392h-17.509V410.4
				h0.773c1.804,0,3.021-0.457,3.653-1.372c0.631-0.914,0.947-2.66,0.947-5.237v-13.142c0-4.252-0.097-6.841-0.29-7.769
				c-0.193-0.928-0.49-1.56-0.889-1.895c-0.4-0.334-0.934-0.502-1.604-0.502c-0.722,0-1.585,0.193-2.59,0.579l-0.58-1.391
				l10.668-4.329h1.662V382.842z"/>
			<path fill="#FFFFFF" d="M349.191,389.722c-0.026,5.257,1.25,9.38,3.826,12.369s5.604,4.483,9.083,4.483
				c2.319,0,4.335-0.638,6.049-1.913c1.713-1.276,3.15-3.46,4.31-6.552l1.198,0.772c-0.541,3.531-2.113,6.745-4.715,9.645
				c-2.603,2.898-5.862,4.348-9.779,4.348c-4.252,0-7.892-1.655-10.919-4.967c-3.028-3.311-4.542-7.762-4.542-13.354
				c0-6.056,1.552-10.777,4.658-14.166c3.104-3.389,7.002-5.083,11.692-5.083c3.968,0,7.228,1.309,9.779,3.923
				c2.551,2.616,3.827,6.114,3.827,10.494H349.191z M349.191,387.48h16.388c-0.129-2.268-0.4-3.865-0.812-4.793
				c-0.645-1.443-1.604-2.576-2.88-3.401c-1.275-0.824-2.609-1.237-4-1.237c-2.139,0-4.052,0.831-5.74,2.493
				C350.46,382.204,349.475,384.518,349.191,387.48z"/>
		</g>
		<g>
			<path fill="#FFFFFF" d="M171.252,448.962c-1.004,4.806-2.971,8.502-5.901,11.089c-2.93,2.589-6.173,3.884-9.727,3.884
				c-4.233,0-7.923-1.739-11.07-5.217c-3.148-3.477-4.721-8.177-4.721-14.095c0-5.735,1.743-10.394,5.23-13.979
				c3.486-3.583,7.671-5.374,12.555-5.374c3.663,0,6.674,0.948,9.035,2.846c2.36,1.899,3.541,3.869,3.541,5.913
				c0,1.01-0.333,1.826-0.997,2.449c-0.665,0.624-1.594,0.936-2.788,0.936c-1.601,0-2.808-0.504-3.622-1.513
				c-0.462-0.558-0.767-1.619-0.916-3.186c-0.149-1.566-0.699-2.761-1.648-3.584c-0.95-0.797-2.266-1.194-3.948-1.194
				c-2.713,0-4.897,0.981-6.552,2.945c-2.198,2.603-3.296,6.041-3.296,10.314c0,4.354,1.092,8.196,3.276,11.528
				c2.184,3.331,5.134,4.996,8.852,4.996c2.659,0,5.046-0.889,7.163-2.667c1.492-1.221,2.944-3.438,4.354-6.65L171.252,448.962z"/>
			<path fill="#FFFFFF" d="M192.732,425.271c5.643,0,10.175,2.096,13.593,6.291c2.903,3.583,4.354,7.698,4.354,12.343
				c0,3.266-0.8,6.57-2.401,9.915c-1.602,3.346-3.806,5.868-6.614,7.566c-2.808,1.699-5.935,2.549-9.38,2.549
				c-5.616,0-10.08-2.19-13.39-6.571c-2.795-3.689-4.192-7.829-4.192-12.423c0-3.345,0.848-6.669,2.543-9.976
				c1.695-3.305,3.927-5.747,6.695-7.326C186.709,426.059,189.64,425.271,192.732,425.271z M191.471,427.857
				c-1.438,0-2.883,0.418-4.334,1.254c-1.452,0.837-2.625,2.305-3.521,4.4c-0.895,2.098-1.343,4.793-1.343,8.084
				c0,5.309,1.079,9.889,3.235,13.737c2.157,3.85,4.999,5.774,8.526,5.774c2.631,0,4.802-1.062,6.511-3.185
				c1.709-2.125,2.564-5.775,2.564-10.952c0-6.478-1.424-11.573-4.273-15.29C196.911,429.132,194.455,427.857,191.471,427.857z"/>
			<path fill="#FFFFFF" d="M246.771,426.345v22.1c0,4.221,0.102,6.803,0.305,7.745c0.204,0.942,0.529,1.599,0.977,1.972
				c0.447,0.371,0.97,0.557,1.567,0.557c0.84,0,1.791-0.225,2.849-0.676l0.57,1.393l-11.151,4.5h-1.831v-7.725
				c-3.202,3.397-5.644,5.534-7.326,6.411c-1.683,0.875-3.459,1.313-5.332,1.313c-2.089,0-3.9-0.592-5.433-1.772
				c-1.533-1.182-2.598-2.7-3.195-4.56c-0.597-1.857-0.895-4.485-0.895-7.884v-16.286c0-1.726-0.19-2.92-0.57-3.584
				c-0.38-0.664-0.943-1.175-1.689-1.532c-0.747-0.358-2.096-0.525-4.049-0.498v-1.474h13.064v24.409
				c0,3.397,0.603,5.628,1.811,6.689c1.207,1.063,2.666,1.593,4.375,1.593c1.166,0,2.489-0.358,3.968-1.075
				c1.479-0.717,3.235-2.084,5.271-4.101v-20.667c0-2.071-0.387-3.471-1.16-4.201c-0.773-0.73-2.381-1.121-4.823-1.174v-1.474
				H246.771z"/>
			<path fill="#FFFFFF" d="M266.501,414.538v43.511c0,2.054,0.169,3.414,0.509,4.083c0.339,0.668,0.861,1.176,1.567,1.521
				c0.705,0.347,2.021,0.52,3.948,0.52v1.289h-18.273v-1.289c1.709,0,2.875-0.155,3.5-0.466c0.624-0.31,1.112-0.823,1.465-1.54
				c0.352-0.716,0.529-2.089,0.529-4.118v-29.795c0-3.7-0.095-5.974-0.285-6.821c-0.19-0.848-0.496-1.427-0.916-1.737
				c-0.421-0.31-0.956-0.466-1.607-0.466c-0.706,0-1.601,0.191-2.686,0.573l-0.692-1.253l11.11-4.012H266.501z"/>
			<path fill="#FFFFFF" d="M281.022,440.082c-0.027,5.415,1.315,9.663,4.029,12.743c2.713,3.079,5.901,4.618,9.564,4.618
				c2.442,0,4.564-0.657,6.369-1.971c1.804-1.314,3.317-3.564,4.538-6.749l1.262,0.796c-0.57,3.638-2.225,6.948-4.965,9.935
				c-2.741,2.987-6.173,4.48-10.296,4.48c-4.477,0-8.31-1.706-11.497-5.116c-3.188-3.411-4.782-7.998-4.782-13.759
				c0-6.238,1.634-11.104,4.904-14.595c3.269-3.489,7.373-5.235,12.311-5.235c4.178,0,7.61,1.348,10.296,4.041
				c2.686,2.695,4.029,6.299,4.029,10.812H281.022z M281.022,437.772h17.256c-0.136-2.335-0.421-3.981-0.855-4.938
				c-0.678-1.486-1.689-2.653-3.032-3.505c-1.343-0.849-2.747-1.273-4.212-1.273c-2.252,0-4.267,0.855-6.043,2.568
				C282.358,432.338,281.32,434.721,281.022,437.772z"/>
			<path fill="#FFFFFF" d="M342.345,426.345v22.1c0,4.221,0.102,6.803,0.305,7.745c0.204,0.942,0.529,1.599,0.977,1.972
				c0.447,0.371,0.97,0.557,1.567,0.557c0.84,0,1.791-0.225,2.849-0.676l0.57,1.393l-11.151,4.5h-1.831v-7.725
				c-3.202,3.397-5.644,5.534-7.326,6.411c-1.683,0.875-3.459,1.313-5.332,1.313c-2.089,0-3.9-0.592-5.433-1.772
				c-1.533-1.182-2.598-2.7-3.195-4.56c-0.597-1.857-0.895-4.485-0.895-7.884v-16.286c0-1.726-0.19-2.92-0.57-3.584
				c-0.38-0.664-0.943-1.175-1.689-1.532c-0.747-0.358-2.096-0.525-4.049-0.498v-1.474h13.064v24.409
				c0,3.397,0.603,5.628,1.811,6.689c1.207,1.063,2.666,1.593,4.375,1.593c1.166,0,2.489-0.358,3.968-1.075
				c1.479-0.717,3.235-2.084,5.271-4.101v-20.667c0-2.071-0.387-3.471-1.16-4.201c-0.773-0.73-2.381-1.121-4.823-1.174v-1.474
				H342.345z"/>
			<path fill="#FFFFFF" d="M360.163,425.271v8.202c3.12-5.469,6.321-8.202,9.604-8.202c1.492,0,2.727,0.443,3.704,1.333
				c0.977,0.889,1.465,1.919,1.465,3.085c0,1.037-0.353,1.911-1.058,2.628c-0.706,0.717-1.546,1.075-2.523,1.075
				c-0.95,0-2.015-0.456-3.195-1.373c-1.18-0.916-2.055-1.374-2.625-1.374c-0.488,0-1.018,0.266-1.587,0.798
				c-1.221,1.087-2.482,2.879-3.785,5.374v17.48c0,2.02,0.257,3.545,0.773,4.581c0.353,0.717,0.977,1.314,1.872,1.792
				c0.896,0.477,2.184,0.716,3.866,0.716v1.434h-19.087v-1.434c1.899,0,3.31-0.292,4.232-0.876c0.678-0.425,1.153-1.101,1.424-2.03
				c0.136-0.452,0.204-1.739,0.204-3.862v-14.136c0-4.248-0.088-6.776-0.265-7.587c-0.177-0.809-0.502-1.399-0.977-1.772
				c-0.475-0.371-1.065-0.557-1.771-0.557c-0.841,0-1.791,0.198-2.849,0.598l-0.407-1.434l11.273-4.459H360.163z"/>
		</g>
		<g>
			<path fill="#FFFFFF" d="M156.066,375.051c1.688,0,3.29-0.168,4.808-0.505c1.519-0.338,2.854-0.914,4.007-1.73
				c1.151-0.814,2.052-1.868,2.699-3.162c0.646-1.294,0.97-2.896,0.97-4.809c0-1.573-0.282-3.036-0.844-4.386
				s-1.336-2.502-2.319-3.459c-0.984-0.955-2.151-1.7-3.5-2.235c-1.349-0.533-2.813-0.801-4.386-0.801
				c-2.868,0-5.229,0.83-7.085,2.488c-1.855,1.66-3.009,3.867-3.458,6.622h-7.844c0.787-5.286,2.769-9.279,5.946-11.978
				c3.177-2.7,7.409-4.05,12.695-4.05c2.53,0,4.905,0.395,7.127,1.181c2.221,0.789,4.175,1.928,5.862,3.416
				c1.687,1.492,3.007,3.29,3.964,5.399c0.956,2.108,1.434,4.485,1.434,7.127c0,3.149-0.675,5.947-2.024,8.393
				c-1.35,2.446-3.374,4.429-6.074,5.947c3.149,1.463,5.441,3.6,6.875,6.41c1.434,2.813,2.151,5.935,2.151,9.363
				c0,2.981-0.521,5.651-1.561,8.013c-1.041,2.362-2.475,4.359-4.302,5.989c-1.828,1.632-3.979,2.882-6.453,3.754
				c-2.475,0.87-5.145,1.308-8.013,1.308c-2.475,0-4.864-0.395-7.17-1.182c-2.306-0.786-4.344-1.926-6.115-3.416
				c-1.771-1.489-3.206-3.274-4.302-5.355c-1.096-2.08-1.701-4.441-1.813-7.086h7.676c0.168,1.574,0.632,2.98,1.392,4.218
				s1.687,2.291,2.784,3.163c1.096,0.872,2.347,1.547,3.753,2.023c1.405,0.479,2.868,0.718,4.386,0.718
				c1.743,0,3.36-0.322,4.851-0.971c1.489-0.645,2.783-1.531,3.88-2.656c1.097-1.124,1.94-2.445,2.531-3.965
				c0.59-1.519,0.885-3.148,0.885-4.893c0-2.023-0.337-3.837-1.012-5.439c-0.674-1.604-1.603-2.938-2.784-4.007
				c-1.181-1.067-2.586-1.855-4.217-2.362c-1.632-0.506-3.431-0.675-5.399-0.506V375.051z"/>
		</g>
		<g>
			<path fill="#FFFFFF" d="M182.464,360.663c0.086,5.086,3.292,7.182,7.097,7.182c2.693,0,4.36-0.471,5.728-1.069l0.685,2.693
				c-1.325,0.599-3.634,1.325-6.926,1.325c-6.369,0-10.174-4.231-10.174-10.474c0-6.241,3.677-11.114,9.704-11.114
				c6.797,0,8.55,5.899,8.55,9.704c0,0.77-0.043,1.324-0.128,1.753H182.464z M193.493,357.97c0.043-2.351-0.983-6.07-5.215-6.07
				c-3.848,0-5.473,3.463-5.771,6.07H193.493z"/>
		</g>
	</g>
	<g id="Calque_4">
		<path fill="#FFFFFF" stroke="#000000" stroke-width="6" stroke-miterlimit="10" d="M264.796,313
			C243.37,313,226,295.63,226,274.204v-0.408C226,252.37,243.37,235,264.796,235H385v-45h-95.711c-46,0-83.289,37.29-83.289,83.29
			v0.421c0,46,37.29,83.29,83.289,83.29H385v-44H264.796z"/>
	</g>
	<path fill="#FFFFFF" stroke="#000000" stroke-width="6" stroke-miterlimit="10" d="M629,214.005v-0.011
		C629,166.501,590.499,128,543.005,128H391v53h3.597h70h8.807h89.193H563v0.01c24.337,0.218,44,20.005,44,44.393v0.193
		c0,21.307-15.01,39.1-35.03,43.403H497v51h74.97c20.021,4.304,35.03,22.097,35.03,43.403v0.193C607,388.12,587.12,408,562.597,408
		H561h-87.597h-8.807h-70H391v51h152.005C590.499,459,629,420.499,629,373.006v-0.012c0-35.868-21.967-66.595-53.176-79.494
		C607.033,280.601,629,249.874,629,214.005z"/>
</g>
</svg>
