<?xml version="1.0" encoding="utf-8"?>
<!-- Generator: Adobe Illustrator 15.0.0, SVG Export Plug-In . SVG Version: 6.00 Build 0)  -->
<!DOCTYPE svg PUBLIC "-//W3C//DTD SVG 1.1//EN" "http://www.w3.org/Graphics/SVG/1.1/DTD/svg11.dtd">
<svg version="1.1" xmlns="http://www.w3.org/2000/svg" xmlns:xlink="http://www.w3.org/1999/xlink" x="0px" y="0px" width="720px"
	 height="576px" viewBox="-99.906 -165 720 576" enable-background="new -99.906 -165 720 576" xml:space="preserve">
<g id="Calque_4">
	<g>
		<g>
			<rect x="-99.906" y="-165" fill="#00145A" width="720" height="576"/>
		</g>
	</g>
</g>
<g id="Calque_1">
	<g>
		<polygon fill="#F5BE00" points="220.928,272.293 217.892,288.237 196.632,288.237 192.077,311.774 208.527,311.774 
			204.731,331.009 188.534,331.009 181.699,367.707 160.188,367.707 177.145,272.293 		"/>
		<path fill="#F5BE00" d="M272.093,290.918c-0.884-9.723-4.272-18.625-17.529-18.625c-10.9,0-30.414,0-30.414,0l-18.476,95.414
			h22.018l6.833-34.166l4.556,34.166h22.272l-4.05-39.482C266.683,319.68,272.649,309.331,272.093,290.918L272.093,290.918z
			 M237.815,315.571l5.062-26.575c1.772,0,8.888,0.301,7.847,13.287C248.699,315.319,237.815,315.571,237.815,315.571z"/>
		<g>
			<polygon fill="#F5BE00" points="360,302.653 331.587,272.293 267.604,272.293 295.696,302.68 278.776,320 295.696,337.321 
				267.604,367.707 331.587,367.707 360,337.347 342.751,320 			"/>
		</g>
	</g>
</g>
<g id="Calque_3">
	<polygon fill="#F5BE00" points="442.297,-10.904 342.538,-117.5 117.89,-117.5 216.527,-10.814 157.119,50 216.527,110.815 
		117.89,217.5 342.538,217.5 442.297,110.905 381.734,50 	"/>
</g>
</svg>
