<?xml version="1.0" encoding="UTF-8" standalone="no"?>
<!-- Created with Inkscape (http://www.inkscape.org/) -->

<svg
   xmlns:dc="http://purl.org/dc/elements/1.1/"
   xmlns:cc="http://creativecommons.org/ns#"
   xmlns:rdf="http://www.w3.org/1999/02/22-rdf-syntax-ns#"
   xmlns:svg="http://www.w3.org/2000/svg"
   xmlns="http://www.w3.org/2000/svg"
   xmlns:sodipodi="http://sodipodi.sourceforge.net/DTD/sodipodi-0.dtd"
   xmlns:inkscape="http://www.inkscape.org/namespaces/inkscape"
   width="586.87708mm"
   height="313.00232mm"
   viewBox="0 0 586.87707 313.00232"
   version="1.1"
   id="svg8"
   inkscape:version="0.92.2 (5c3e80d, 2017-08-06)"
   sodipodi:docname="TMC 1991.svg">
  <defs
     id="defs2" />
  <sodipodi:namedview
     id="base"
     pagecolor="#ffffff"
     bordercolor="#666666"
     borderopacity="1.0"
     inkscape:pageopacity="0.0"
     inkscape:pageshadow="2"
     inkscape:zoom="0.45477566"
     inkscape:cx="1109.059"
     inkscape:cy="591.50044"
     inkscape:document-units="mm"
     inkscape:current-layer="layer1"
     showgrid="false"
     fit-margin-top="0"
     fit-margin-left="0"
     fit-margin-right="0"
     fit-margin-bottom="0"
     showguides="true"
     inkscape:window-width="1366"
     inkscape:window-height="705"
     inkscape:window-x="-8"
     inkscape:window-y="-8"
     inkscape:window-maximized="1"
     inkscape:measure-start="534.329,991.698"
     inkscape:measure-end="1043.67,919.135"
     inkscape:snap-nodes="true">
    <inkscape:grid
       type="xygrid"
       id="grid10"
       originx="0.97044591"
       originy="-6.0851858" />
  </sodipodi:namedview>
  <metadata
     id="metadata5">
    <rdf:RDF>
      <cc:Work
         rdf:about="">
        <dc:format>image/svg+xml</dc:format>
        <dc:type
           rdf:resource="http://purl.org/dc/dcmitype/StillImage" />
        <dc:title></dc:title>
      </cc:Work>
    </rdf:RDF>
  </metadata>
  <g
     inkscape:label="Calque 1"
     inkscape:groupmode="layer"
     id="layer1"
     transform="translate(109.08027,-73.835681)">
    <g
       id="g886"
       transform="translate(37.041668)">
      <path
         style="fill:#ffffff;fill-opacity:1;stroke:#808080;stroke-width:4;stroke-miterlimit:4;stroke-dasharray:none;stroke-opacity:1"
         d="m 345.62181,384.19794 c -15.24791,-3.07796 -28.89367,-8.82103 -41.67188,-17.53839 -11.733,-8.0043 -22.21515,-18.69458 -30.15535,-30.75408 -3.32378,-5.04812 -4.65167,-7.37163 -7.32174,-12.81135 -4.73395,-9.64445 -8.04262,-19.90681 -9.8593,-30.58032 -1.19719,-7.03373 -1.34744,-9.1743 -1.3372,-19.05 0.008,-8.13107 0.0879,-9.98259 0.59158,-13.78434 1.73114,-13.06648 5.09749,-24.36114 10.60492,-35.58139 2.66814,-5.43577 3.98386,-7.7328 7.41402,-12.94364 4.26268,-6.47554 7.65937,-10.66345 13.37517,-16.49082 9.45658,-9.64113 19.011,-16.54917 30.9754,-22.39584 11.63042,-5.68347 22.62762,-8.93541 35.98334,-10.6405 4.63663,-0.59195 20.31507,-0.68028 24.73854,-0.13938 14.12361,1.72703 25.13658,4.91582 37.27804,10.7938 2.53111,1.22537 21.03538,13.11747 20.86708,14.16904 -0.0728,0.45514 -27.87597,31.35304 -28.39027,31.55039 -0.16441,0.0631 -1.47941,-0.66115 -2.92221,-1.60942 -3.42871,-2.25349 -10.80813,-5.86002 -14.73015,-7.19906 -3.73851,-1.27637 -8.5838,-2.48238 -12.36708,-3.07821 -3.70797,-0.58396 -13.32457,-0.8052 -17.38132,-0.39986 -13.10378,1.30927 -26.00849,6.59692 -36.59368,14.99412 -2.94348,2.33505 -7.85005,7.26615 -10.36994,10.42178 -6.37556,7.98408 -11.13833,17.89088 -13.29243,27.64896 -1.33257,6.03663 -1.85523,15.22189 -1.22121,21.46209 1.11371,10.96177 4.86637,21.29866 11.13197,30.66348 2.59339,3.87616 4.61047,6.31932 8.25535,9.99909 5.65893,5.71316 10.77407,9.3987 18.19626,13.1107 7.47308,3.73747 15.29448,6.05279 23.33906,6.90893 5.59856,0.59581 16.2837,0.21241 18.86199,-0.67681 0.58208,-0.20074 1.49677,-0.36671 2.03263,-0.36883 1.24992,-0.005 6.1822,-1.28243 9.70555,-2.51383 3.87787,-1.35525 7.55478,-3.04929 11.5968,-5.34291 1.92018,-1.08961 3.68527,-1.94133 3.92242,-1.89275 0.23717,0.0486 7.50652,6.15177 16.15408,13.56264 l 15.72289,13.47428 v 1.63039 1.63041 l -2.18281,1.7212 c -3.28332,2.58895 -6.61572,4.93593 -9.85573,6.94134 -1.60073,0.99076 -3.33923,2.07558 -3.86332,2.41073 -0.52408,0.33512 -3.10205,1.67661 -5.72878,2.98108 -7.74711,3.84731 -15.47953,6.69542 -23.44386,8.63516 -7.30697,1.77964 -6.65572,1.73789 -26.75987,1.71611 -18.00895,-0.0196 -18.29748,-0.0281 -21.29896,-0.63399 z m -439.349571,-1.79065 -0.255635,-171.51744 -50.138544,-0.135 v -45.24198 l 150.944793,0.1332 v 44.97916 l -48.418749,0.26459 -0.264584,171.71458 -51.86728,-0.19718 z m 119.591305,-0.79367 0.0093,-216.49669 h 50.750832 l 53.391494,74.34792 50.10977,-74.34792 h 55.03334 V 381.81068 H 190.17911 L 189.73381,231.98446 131.11093,365.48328 75.181998,239.33255 74.82077,381.81068 25.863546,381.6136 Z"
         id="path890"
         inkscape:connector-curvature="0"
         sodipodi:nodetypes="csssccssscssssccccccsccccccccccccccccccccscccccccccccccccccccccccccc" />
      <path
         style="fill:#ec0000;fill-opacity:1;stroke-width:0.24626268"
         d="M 77.098502,144.2144 130.01507,73.835681 180.2855,144.21485 130.01517,218.29818 Z"
         id="path888"
         inkscape:connector-curvature="0"
         sodipodi:nodetypes="ccccc" />
    </g>
  </g>
</svg>
