<?xml version="1.0" encoding="UTF-8" standalone="no"?>
<svg
   xmlns:dc="http://purl.org/dc/elements/1.1/"
   xmlns:cc="http://creativecommons.org/ns#"
   xmlns:rdf="http://www.w3.org/1999/02/22-rdf-syntax-ns#"
   xmlns:svg="http://www.w3.org/2000/svg"
   xmlns="http://www.w3.org/2000/svg"
   xmlns:sodipodi="http://sodipodi.sourceforge.net/DTD/sodipodi-0.dtd"
   xmlns:inkscape="http://www.inkscape.org/namespaces/inkscape"
   width="439pt"
   height="206pt"
   viewBox="0 0 439 206"
   version="1.1"
   id="svg2"
   inkscape:version="0.91 r13725"
   sodipodi:docname="Direct8 logo 2006.svg">
  <metadata
     id="metadata31">
    <rdf:RDF>
      <cc:Work
         rdf:about="">
        <dc:format>image/svg+xml</dc:format>
        <dc:type
           rdf:resource="http://purl.org/dc/dcmitype/StillImage" />
      </cc:Work>
    </rdf:RDF>
  </metadata>
  <defs
     id="defs29" />
  <sodipodi:namedview
     pagecolor="#ffffff"
     bordercolor="#666666"
     borderopacity="1"
     objecttolerance="10"
     gridtolerance="10"
     guidetolerance="10"
     inkscape:pageopacity="0"
     inkscape:pageshadow="2"
     inkscape:window-width="1280"
     inkscape:window-height="691"
     id="namedview27"
     showgrid="false"
     inkscape:zoom="0.69581274"
     inkscape:cx="213.65464"
     inkscape:cy="128.75"
     inkscape:window-x="0"
     inkscape:window-y="1"
     inkscape:window-maximized="1"
     inkscape:current-layer="g4145" />
  <path
     style="opacity:1;fill:#be0013"
     inkscape:connector-curvature="0"
     id="path7"
     d="m 375.34,38.46 c 5.49,-1.14 11.86,-0.91 16.44,2.69 4.69,3.69 4.5,11.76 -0.29,15.29 -5.47,3.99 -13.22,4.13 -19.28,1.42 -4.78,-2.05 -6.69,-7.97 -5.09,-12.71 1.09,-3.66 4.69,-5.86 8.22,-6.69 z" />
  <path
     style="opacity:1;fill:#be0013"
     inkscape:connector-curvature="0"
     id="path9"
     d="m 48.12,45.2 c 8.33,0.19 17.59,-1.19 24.88,3.85 6.44,4.35 8.24,12.7 7.88,20.01 -0.11,6.63 -1.69,14.27 -7.73,18.05 -7.5,4.56 -16.66,3.38 -25.03,3.56 0,-15.16 0,-30.32 0,-45.47 z" />
  <path
     style="opacity:1;fill:#be0013"
     inkscape:connector-curvature="0"
     id="path11"
     d="m 195.9,63.88 c 4.27,-4.12 11.89,-4.19 15.99,0.21 2.46,2.34 3.31,5.74 3.91,8.97 -8.18,0.01 -16.35,0.01 -24.53,0 0.88,-3.32 1.96,-6.83 4.63,-9.18 z" />
  <path
     style="opacity:1;fill:#be0013"
     inkscape:connector-curvature="0"
     id="path13"
     d="m 375.38,74.47 c 6.33,-1.65 14.13,-0.61 18.4,4.79 4.29,5.52 3.24,14.91 -3.04,18.53 -6.12,3.49 -14.27,3.42 -20.29,-0.25 -5.33,-3.27 -6.61,-10.79 -4.03,-16.2 1.68,-3.57 5.26,-5.85 8.96,-6.87 z" />
  <g
     id="g4145">
    <g
       id="g4187">
      <path
         sodipodi:nodetypes="cccccccccc"
         d="m 0,0 439,0 0,135.93 c -60.23,0.01 -120.45,-0.01 -180.68,0.01 -20.06,20.09 -40.14,40.17 -60.21,60.25 -3.16,3.26 -6.58,6.28 -9.45,9.81 l -0.35,0 c -0.04,-23.35 0,-46.71 -0.02,-70.06 -62.76,0 -125.53,-0.02 -188.29,0.01 L 0,0"
         id="path5"
         inkscape:connector-curvature="0"
         style="opacity:1;fill:#be0013" />
      <g
         id="#000000ff">
        <path
           d="m 352.96,30.84 c 7.15,-6.85 17.36,-9.43 27.02,-9.7 10.12,-0.12 21.01,2.18 28.6,9.31 7.98,7.4 9.19,21.02 2.31,29.54 -2.24,3 -5.62,4.78 -9,6.17 5.89,1.5 11.59,4.87 14.46,10.41 5.07,9.6 3.34,22.61 -4.59,30.19 -6.22,6.06 -14.87,8.85 -23.31,9.94 -9.44,1.03 -19.23,0.36 -28.15,-3.02 -6.48,-2.45 -12.46,-6.96 -15.42,-13.36 -4.01,-8.72 -3.42,-20 3.22,-27.3 3.06,-3.63 7.48,-5.69 11.98,-6.91 -4.36,-1.63 -8.61,-4.19 -10.89,-8.4 -4.84,-8.45 -3.35,-20.13 3.77,-26.87 m 22.38,7.62 c -3.53,0.83 -7.13,3.03 -8.22,6.69 -1.6,4.74 0.31,10.66 5.09,12.71 6.06,2.71 13.81,2.57 19.28,-1.42 4.79,-3.53 4.98,-11.6 0.29,-15.29 -4.58,-3.6 -10.95,-3.83 -16.44,-2.69 m 0.04,36.01 c -3.7,1.02 -7.28,3.3 -8.96,6.87 -2.58,5.41 -1.3,12.93 4.03,16.2 6.02,3.67 14.17,3.74 20.29,0.25 6.28,-3.62 7.33,-13.01 3.04,-18.53 -4.27,-5.4 -12.07,-6.44 -18.4,-4.79 z"
           id="path16"
           inkscape:connector-curvature="0"
           style="opacity:1;fill:#000000" />
      </g>
      <g
         id="#ffffffff">
        <path
           d="m 112.38,23.48 c 6,-3.05 14,0.79 15.39,7.36 1.82,6.33 -3.22,13.37 -9.79,13.7 -6.02,0.67 -11.84,-4.47 -11.93,-10.52 -0.26,-4.37 2.36,-8.71 6.33,-10.54 z"
           id="path19"
           inkscape:connector-curvature="0"
           style="opacity:1;fill:#ffffff" />
        <path
           d="M 26.71,26.73 C 38.8,26.75 50.9,26.7 63,26.75 c 9.88,0.08 20.17,2.92 27.51,9.81 7.61,6.98 11.14,17.38 11.65,27.49 0.55,10.59 -1.12,21.85 -7.45,30.64 -6.88,9.78 -19.12,14.23 -30.73,14.4 -12.42,0.11 -24.85,0.01 -37.27,0.04 0,-27.46 0,-54.93 0,-82.4 M 48.12,45.2 c 0,15.15 0,30.31 0,45.47 8.37,-0.18 17.53,1 25.03,-3.56 6.04,-3.78 7.62,-11.42 7.73,-18.05 C 81.24,61.75 79.44,53.4 73,49.05 65.71,44.01 56.45,45.39 48.12,45.2 Z"
           id="path21"
           inkscape:connector-curvature="0"
           style="opacity:1;fill:#ffffff" />
        <path
           d="m 303.23,31.13 c 6.51,0 13.02,0 19.54,0 -0.01,6.05 -0.01,12.09 0,18.14 4.03,0 8.07,0 12.11,-0.01 0,4.23 0,8.45 0,12.67 -4.04,0 -8.08,0 -12.11,0 0,8.68 -0.02,17.36 -0.01,26.04 -0.03,2.35 0.21,5.42 2.8,6.34 3,0.98 6.23,0.49 9.33,0.45 -0.01,4.79 -0.01,9.59 -0.01,14.38 -8.07,0.4 -16.65,1.63 -24.29,-1.65 -5.46,-2.49 -7.03,-8.98 -7.22,-14.44 -0.3,-10.37 -0.05,-20.75 -0.14,-31.12 -3.57,0 -7.14,0.08 -10.71,-0.11 1.73,2.85 2.34,6.14 2.85,9.37 -6.29,0.01 -12.58,0.02 -18.87,0 -0.62,-1.81 -0.92,-3.84 -2.26,-5.3 -5.06,-5.92 -16.28,-3.75 -18.56,3.8 -2.22,7.03 -2.6,15.48 1.56,21.88 3.38,5.27 11.55,5.69 16.06,1.7 2.24,-1.97 2.93,-4.98 3.72,-7.72 6.31,-0.02 12.62,-0.03 18.93,0 -0.99,8.04 -5.05,15.91 -12.03,20.3 -13.14,8.34 -32.73,6.42 -42.79,-5.91 -3.76,-4.5 -5.75,-10.19 -6.53,-15.94 -14.45,0.02 -28.89,-0.04 -43.34,0.03 0.52,3.02 0.97,6.25 2.96,8.73 5.24,7.03 17.83,6.33 21.85,-1.68 6.08,-0.02 12.16,-0.03 18.24,0.01 -1.75,5.95 -5.38,11.41 -10.72,14.69 -7.78,4.96 -17.53,5.92 -26.49,4.47 -8.41,-1.34 -16.49,-6.06 -20.83,-13.53 -5.38,-9.27 -5.79,-21.05 -1.78,-30.92 -5.05,-0.87 -10.8,-0.87 -14.94,2.6 -3.49,2.73 -5.12,7.22 -5.06,11.56 -0.05,9.72 0,19.45 -0.02,29.17 -6.53,0 -13.06,0 -19.59,0 0,-19.95 0,-39.91 0,-59.86 6.34,0 12.67,0 19,-0.01 0,3.62 0,7.24 0,10.86 1.59,-3.31 3.51,-6.64 6.67,-8.68 4.68,-3.29 10.68,-3.7 16.19,-3.04 0.03,4.48 0.06,8.96 -0.04,13.44 8.95,-13.82 28.68,-18.27 43.05,-10.64 8.78,4.67 14.16,14.32 14.96,24.07 0.97,-7.93 4.45,-15.77 10.72,-20.9 8.66,-7.19 21.08,-8.37 31.6,-5.21 6.36,2.04 12.72,6.1 15.28,12.53 1.9,-3.83 0.65,-8.31 0.97,-12.42 3.32,0 6.63,0 9.95,0 0.01,-6.05 0.01,-12.09 0,-18.14 M 195.9,63.88 c -2.67,2.35 -3.75,5.86 -4.63,9.18 8.18,0.01 16.35,0.01 24.53,0 -0.6,-3.23 -1.45,-6.63 -3.91,-8.97 -4.1,-4.4 -11.72,-4.33 -15.99,-0.21 z"
           id="path23"
           inkscape:connector-curvature="0"
           style="opacity:1;fill:#ffffff" />
        <path
           d="m 107.41,49.27 c 6.53,-0.01 13.06,0 19.59,-0.01 0.01,19.96 0,39.92 0,59.87 -6.51,0.01 -13.02,-0.03 -19.53,0.04 -0.14,-19.97 -0.02,-39.94 -0.06,-59.9 z"
           id="path25"
           inkscape:connector-curvature="0"
           style="opacity:1;fill:#ffffff" />
      </g>
    </g>
  </g>
</svg>
