<?xml version="1.0" encoding="UTF-8" standalone="no"?>
<!-- Created with Inkscape (http://www.inkscape.org/) -->
<svg
   xmlns:dc="http://purl.org/dc/elements/1.1/"
   xmlns:cc="http://web.resource.org/cc/"
   xmlns:rdf="http://www.w3.org/1999/02/22-rdf-syntax-ns#"
   xmlns:svg="http://www.w3.org/2000/svg"
   xmlns="http://www.w3.org/2000/svg"
   xmlns:sodipodi="http://sodipodi.sourceforge.net/DTD/sodipodi-0.dtd"
   xmlns:inkscape="http://www.inkscape.org/namespaces/inkscape"
   width="300"
   height="300"
   id="svg2"
   sodipodi:version="0.32"
   inkscape:version="0.45.1"
   version="1.0"
   inkscape:output_extension="org.inkscape.output.svg.inkscape">
  <g
     inkscape:label="Layer 1"
     inkscape:groupmode="layer"
     id="layer1"
     transform="translate(-679.03474,-390.11043)">
    <g
       id="g4683"
       transform="matrix(17.091096,0,0,17.091096,-8151.0971,-11213.371)">
      <path
         id="path2893"
         d="M 525.426,678.91968 C 520.58,678.91968 516.651,682.84768 516.651,687.69468 C 516.651,692.54268 520.58,696.47268 525.426,696.47268 C 530.276,696.47268 534.203,692.54268 534.203,687.69468 C 534.203,682.84768 530.276,678.91968 525.426,678.91968"
         style="fill:#0266b0;fill-rule:nonzero;stroke:none" />
      <path
         id="path2895"
         d="M 529.241,684.18568 C 529.241,684.18568 529.241,684.17968 529.245,684.09168 C 529.318,684.08968 529.321,684.08968 529.321,684.08968 C 530.958,684.04668 531.631,683.55068 531.631,682.57568 C 531.631,681.95068 531.05,681.25568 529.909,681.25568 C 529.241,681.25568 528.667,681.54668 528.265,682.01568 C 528.265,682.01568 527.686,682.03268 527.214,682.04668 L 522.617,682.18168 L 522.335,687.66368 C 522.335,687.67968 522.335,687.72468 522.355,687.72468 C 522.9,687.72068 523.906,687.75368 524.298,687.77868 C 526.27,687.90968 527.085,688.67968 526.956,689.86868 C 526.795,691.32768 525.132,692.34568 522.391,692.34568 L 522.382,693.79668 C 527.337,693.97068 529.504,691.70468 529.403,689.29868 C 529.32,687.33168 527.806,686.48368 524.813,686.49168 L 524.549,686.46868 L 524.717,683.88668 L 528.219,683.86668 L 528.398,682.44468 C 528.452,682.48368 528.702,682.88468 528.75,683.05668 L 528.585,684.53668 L 527.925,684.64768 C 527.874,684.66768 527.872,684.73768 527.872,684.73768 C 528.231,685.65768 529.185,686.22068 530.199,686.22068 C 530.763,686.22068 531.214,686.05468 531.581,685.75168 L 531.581,684.97468 C 531.394,685.08768 530.878,685.20268 530.425,685.20268 C 529.761,685.20268 529.331,684.83368 529.241,684.18568 z M 529.996,681.96668 C 530.39,681.96668 530.503,682.28068 530.488,682.54468 C 530.453,683.06768 530.093,683.35468 529.202,683.37268 C 529.298,682.39768 529.573,681.96668 529.996,681.96668"
         style="fill:#ffffff;fill-rule:nonzero;stroke:none" />
    </g>
  </g>
</svg>
