<svg xmlns="http://www.w3.org/2000/svg" viewBox="0 0 285 53"><rect width="285" height="53" style="fill:#D60000"/><polygon points="27.15 10.21 16.71 10.21 16.71 44.09 42.14 44.09 42.14 35.4 27.15 35.4 27.15 10.21" style="fill:#fff"/><path d="M48.25,9.4h-9v7.78h2.94a3.83,3.83,0,0,1-.58,2.32v2.83C48.72,20.84,48.25,9.4,48.25,9.4Z" style="fill:#fff"/><polygon points="61.68 31.18 77.67 31.18 77.67 23.11 61.68 23.11 61.68 18.89 79.28 18.89 79.28 10.21 73.06 10.21 73.06 7.13 58.06 7.13 58.06 10.21 51.24 10.21 51.24 44.09 79.81 44.09 79.81 35.4 61.68 35.4 61.68 31.18" style="fill:#fff"/><path d="M116.3,27.15c0-10.35-6.88-17.75-17.18-17.75S81.94,16.8,81.94,27.15s6.88,17.74,17.18,17.74a17.91,17.91,0,0,0,6.77-1.17l1.73,1.18h9.5L112.36,39A18.43,18.43,0,0,0,116.3,27.15ZM99,36.28c-2.61,0-6.62-1.74-6.62-9.22s4-9.22,6.62-9.22,6.62,1.73,6.62,9.22S101.62,36.28,99,36.28Z" style="fill:#fff"/><path d="M139.5,28.67c0,3.42,0,7.78-4.94,7.78-5.12,0-5.08-4.37-5.08-7.78V10.21H119V31c0,9.44,5,13.9,15.47,13.9s15.42-4.46,15.42-13.9V10.21H139.5V28.67Z" style="fill:#fff"/><rect x="153.68" y="10.21" width="10.44" height="33.88" style="fill:#fff"/><path d="M186.43,10.21H169V44.09h10.44V33.84h6.17c7.78,0,13.29-3.89,13.29-12.05C198.86,17,195.68,10.21,186.43,10.21Zm-3,15.57h-4V18.89h4.65c2.56,0,4.93.19,4.93,3.27C189,25.63,186.1,25.77,183.44,25.77Z" style="fill:#fff"/><polygon points="212.29 31.18 228.28 31.18 228.28 23.11 212.29 23.11 212.29 18.89 229.9 18.89 229.9 10.21 201.85 10.21 201.85 44.09 230.42 44.09 230.42 35.4 212.29 35.4 212.29 31.18" style="fill:#fff"/><polygon points="263.17 10.21 259.95 22.33 259.9 22.33 256.62 10.21 235.5 10.21 235.5 15.33 241.1 15.33 241.1 30.19 247.26 30.19 247.26 15.33 251.94 15.33 256.37 30.19 263.26 30.19 269.5 10.21 263.17 10.21" style="fill:#fff"/></svg>