<svg xmlns="http://www.w3.org/2000/svg" viewBox="0 0 408.5 70.9"><path d="M0,17.9C0,9.7,1.9,3,14.4,1.2V8C9.8,8.5,8,11.2,8,15.3h6.4V30.7H0V17.9Zm19,0c0-8.3,1.9-15,14.4-16.8V8c-4.6.5-6.3,3.3-6.4,7.3h6.4V30.7H19V17.9Z"/><path d="M51.5,16.6h8.2v4.1H51.5V47.8c0,3.2.5,5.1,4,5.3,1.4,0,2.8-.1,4.2-0.2v4.2c-1.5,0-2.9.2-4.4,0.2-6.6,0-8.8-2.2-8.7-9V20.7h-7V16.6h7V4.5h4.9V16.6Z"/><path d="M64.7,38.1c0.1,7.2,3.8,15.8,13.3,15.8,7.2,0,11.1-4.2,12.6-10.3h4.9C93.4,52.7,88.1,58,78,58c-12.8,0-18.2-9.8-18.2-21.3,0-10.6,5.4-21.3,18.2-21.3S96.1,26.7,95.7,38h-31v0.1Zm26.1-4.2C90.6,26.5,86,19.5,78,19.5s-12.5,7-13.3,14.4H90.8ZM76.7,11h-4L80.9,0H87Z"/><path d="M98.5,1.2h4.9V56.9H98.5V1.2Z"/><path d="M110.8,38.1c0.1,7.2,3.8,15.8,13.3,15.8,7.2,0,11.1-4.2,12.6-10.3h4.9C139.5,52.7,134.2,58,124,58c-12.8,0-18.2-9.8-18.2-21.3,0-10.6,5.4-21.3,18.2-21.3S142.1,26.7,141.7,38H110.8v0.1Zm26.1-4.2c-0.2-7.4-4.8-14.4-12.8-14.4s-12.5,7-13.3,14.4h26.1ZM122.8,11h-4L127,0h6.1Z"/><path d="M165,40.1c0.4,4.6,3,7.9,7.9,7.9,2.5,0,5.2-.9,6.5-2.9h14.4c-3.1,8.7-11.6,12.8-20.8,12.8-12.9,0-22.7-7.6-22.7-21.1,0-11.8,8.6-21.4,21.4-21.4,16.1,0,23,9,23,24.7H165Zm14.9-8a6.68,6.68,0,0,0-6.8-6.8c-4.6,0-7.3,2.4-8,6.8h14.8Z"/><path d="M195.2,16.4h14.9v5.4h0.2c3.1-4.7,7.6-6.4,13.3-6.4,4.4,0,9,2.3,10.9,6.3,0.6-.5,3.7-6.3,13.8-6.3,10.4,0,13.9,7.2,13.9,13.7V56.9H246.8v-22c0-3.8-.4-7.3-5.1-7.3-3.9,0-5.2,3-5.2,7.3V56.8H221.1V34.9c0-3.8-.4-7.3-5.1-7.3-3.9,0-5.2,3-5.2,7.3V56.8H195.4V16.4h-0.2Z"/><path d="M263.6,16.4h14.9v4.4h0.2c2-2.6,4.3-5.5,11.9-5.5,11.5,0,17,11.3,17,21.5,0,9.5-3.7,21.1-17.2,21.1a13.2,13.2,0,0,1-11.1-5.5H279V70H263.6V16.4Zm21.7,30.2c5.5,0,6.8-5.2,6.8-10s-1.2-10.1-6.8-10.1-6.8,5.2-6.8,10.1S279.7,46.6,285.3,46.6Z"/><path d="M308.7,1.2h15.4V56.9H308.7V1.2Z"/><path d="M348.1,57.9c-15.2,0-22.1-10.1-22.1-21.3s6.9-21.2,22.1-21.2,22.1,10,22.1,21.2S363.3,57.9,348.1,57.9Zm0-31.3c-5.9,0-6.6,5.7-6.6,10s0.8,10.1,6.6,10.1,6.6-5.8,6.6-10.1S353.9,26.6,348.1,26.6Z"/><path d="M387.7,12H372.3V1.2h15.4V12Zm-15.4,4.4h15.4V56.9H372.3V16.4Z"/><path d="M392.3,41.4h16.2V53.6c0,7.3-2.6,14.1-9.5,16.4a20.81,20.81,0,0,1-6.7.9V64.1a7.72,7.72,0,0,0,6.9-7.3h-6.9V41.4Z"/></svg>