<?xml version="1.0" encoding="UTF-8" ?>
<!DOCTYPE svg PUBLIC "-//W3C//DTD SVG 1.1//EN" "http://www.w3.org/Graphics/SVG/1.1/DTD/svg11.dtd">
<svg width="371pt" height="372pt" viewBox="0 0 371 372" version="1.1" xmlns="http://www.w3.org/2000/svg">
<g id="#ffffffff">
</g>
<g id="#010101ff">
<path fill="#010101" opacity="1.00" d=" M 174.28 0.00 L 174.37 0.00 C 183.47 8.99 192.54 18.02 201.66 26.99 C 149.31 79.21 96.90 131.37 44.58 183.62 C 38.73 189.42 33.07 195.42 27.23 201.23 C 18.14 192.20 8.99 183.24 0.00 174.12 L 0.00 173.11 L 0.19 173.97 C 58.15 115.92 116.22 57.97 174.28 0.00 Z" />
<path fill="#010101" opacity="1.00" d=" M 181.55 70.58 C 192.76 61.57 207.81 57.80 221.99 59.77 C 238.51 61.62 253.59 71.86 262.17 85.99 C 270.79 99.94 271.73 118.07 265.38 133.09 C 258.36 147.66 246.30 158.82 234.97 170.03 C 227.94 176.71 220.60 183.84 211.03 186.58 C 204.73 188.56 198.13 187.02 191.86 185.72 C 193.13 192.64 194.05 200.00 191.72 206.81 C 189.46 213.49 184.95 219.07 180.31 224.25 C 171.63 233.55 162.47 242.40 153.24 251.15 C 146.73 256.83 140.03 262.74 131.78 265.72 C 119.00 269.94 104.53 270.41 92.08 264.80 C 76.91 257.77 64.77 244.18 60.07 228.07 C 55.95 215.14 57.97 200.59 64.94 189.02 C 71.59 177.78 82.14 169.75 90.86 160.26 C 100.07 169.91 109.72 179.13 119.07 188.65 C 114.25 192.97 109.77 197.65 105.17 202.20 C 102.14 205.14 99.63 208.80 98.82 213.00 C 97.58 221.77 106.24 230.46 115.04 228.98 C 120.02 228.34 123.87 224.75 127.30 221.37 C 135.62 213.01 144.07 204.78 152.31 196.33 C 155.87 192.50 159.87 187.60 158.44 181.99 C 155.82 174.92 149.99 169.85 144.89 164.57 C 153.46 156.41 161.75 147.96 170.10 139.57 C 175.50 144.21 180.19 150.10 187.01 152.72 C 192.18 154.54 197.33 151.29 200.98 147.86 C 208.56 140.47 216.02 132.97 223.50 125.49 C 225.71 123.30 228.02 121.02 229.12 118.04 C 232.93 108.79 223.74 97.70 214.05 98.69 C 210.08 98.78 206.59 101.12 203.88 103.85 C 198.93 108.83 193.80 113.64 189.17 118.92 C 179.52 109.63 170.31 99.89 160.62 90.64 C 167.75 84.11 174.10 76.77 181.55 70.58 Z" />
<path fill="#010101" opacity="1.00" d=" M 301.53 126.96 C 307.30 131.75 312.16 137.53 317.71 142.57 C 315.65 144.71 313.61 146.87 311.52 148.98 C 308.52 145.90 305.67 142.65 302.44 139.82 C 300.25 142.36 297.80 144.66 295.33 146.93 C 297.96 149.74 300.73 152.41 303.58 155.00 C 301.52 157.06 299.61 159.27 297.37 161.15 C 294.81 158.31 292.12 155.60 289.43 152.90 C 286.80 155.73 284.06 158.46 281.29 161.15 C 284.33 164.08 287.38 167.00 290.42 169.93 C 288.40 171.97 286.36 173.99 284.44 176.13 C 278.66 171.37 273.95 165.47 268.23 160.65 C 279.31 149.40 290.70 138.45 301.53 126.96 Z" />
<path fill="#010101" opacity="1.00" d=" M 321.38 147.02 C 324.94 150.00 328.08 153.44 331.38 156.70 C 324.76 166.96 318.15 177.23 311.11 187.20 C 321.05 180.06 331.45 173.58 341.65 166.80 C 344.78 170.10 347.90 173.43 351.40 176.34 C 349.05 179.33 346.18 181.84 343.51 184.53 C 334.82 193.03 326.50 201.93 317.51 210.13 C 315.52 207.87 313.39 205.74 311.11 203.77 C 319.99 194.56 329.53 186.03 338.63 177.07 C 328.09 184.70 316.92 191.40 306.07 198.57 C 304.07 196.47 302.02 194.44 299.89 192.50 C 306.48 181.40 313.57 170.60 320.93 160.01 C 312.25 169.07 303.56 178.15 294.65 187.01 C 292.40 184.88 290.25 182.66 288.11 180.42 C 299.21 169.29 310.41 158.27 321.38 147.02 Z" />
<path fill="#010101" opacity="1.00" d=" M 226.89 201.82 C 237.83 190.93 248.69 179.95 259.73 169.15 C 263.88 173.37 267.85 177.78 272.37 181.60 C 266.25 187.85 260.08 194.07 253.70 200.06 C 258.79 205.08 263.60 210.42 268.94 215.17 C 274.28 209.62 279.91 204.34 285.09 198.63 C 289.51 202.38 293.21 206.90 297.72 210.57 C 292.59 216.69 286.57 221.95 280.97 227.62 C 286.79 233.03 292.30 238.74 297.84 244.43 C 304.03 238.19 310.25 231.98 316.42 225.72 C 320.44 230.24 325.22 234.05 328.88 238.90 C 317.93 249.66 307.12 260.56 296.29 271.45 C 273.40 248.00 249.96 225.10 226.89 201.82 Z" />
<path fill="#010101" opacity="1.00" d=" M 321.98 214.49 C 333.01 203.05 344.35 191.93 355.55 180.66 C 360.64 185.92 365.86 191.07 371.00 196.28 L 371.00 196.89 C 369.09 198.90 367.04 200.78 365.08 202.75 C 362.13 199.70 359.20 196.63 356.24 193.59 C 353.81 196.08 351.37 198.56 348.94 201.06 C 351.64 203.69 354.39 206.27 357.09 208.91 C 355.10 210.93 353.12 212.94 351.12 214.95 C 348.41 212.21 345.68 209.51 342.90 206.85 C 340.28 209.62 337.61 212.34 334.86 214.98 C 337.90 217.90 340.93 220.85 344.03 223.70 C 341.96 225.84 339.83 227.94 337.83 230.16 C 332.53 224.95 327.37 219.60 321.98 214.49 Z" />
<path fill="#010101" opacity="1.00" d=" M 204.04 224.63 C 208.70 219.89 213.44 215.23 218.20 210.59 C 233.55 225.94 248.93 241.26 264.25 256.64 C 270.35 262.83 276.62 269.91 277.75 278.89 C 278.96 287.21 274.53 295.17 268.86 300.92 C 263.19 306.95 255.65 312.17 247.07 312.17 C 238.78 311.68 231.49 306.87 225.60 301.35 C 209.02 285.13 192.86 268.48 176.20 252.33 C 180.98 247.68 185.65 242.94 190.26 238.14 C 204.23 252.08 218.21 266.00 232.15 279.97 C 236.91 284.77 241.18 290.48 247.56 293.23 C 254.05 296.06 261.85 288.41 259.26 281.86 C 256.85 275.71 251.38 271.67 246.82 267.20 C 232.55 253.02 218.31 238.81 204.04 224.63 Z" />
<path fill="#010101" opacity="1.00" d=" M 151.80 276.74 C 157.14 271.65 164.63 267.56 172.20 269.40 C 181.60 271.85 188.57 279.24 194.43 286.57 C 198.28 291.34 199.77 298.36 196.74 303.92 C 202.46 300.78 209.20 303.43 213.90 307.19 C 222.30 313.93 229.24 323.13 239.86 326.56 C 239.85 326.84 239.83 327.40 239.82 327.67 C 235.24 332.63 230.28 337.23 225.51 342.01 C 214.00 338.09 208.09 326.05 197.49 320.72 C 191.30 318.12 187.03 324.70 183.20 328.38 C 192.45 337.58 201.82 346.68 210.96 355.99 L 210.94 356.59 C 206.29 361.34 201.52 365.97 196.90 370.76 C 173.74 347.50 150.50 324.33 127.19 301.24 C 135.45 293.13 143.60 284.91 151.80 276.74 M 164.44 289.58 C 159.71 291.07 156.96 295.52 153.49 298.74 C 159.67 304.66 165.65 310.77 171.75 316.77 C 175.18 312.18 182.31 308.81 181.28 302.19 C 178.26 298.14 175.14 293.96 170.85 291.18 C 168.93 290.11 166.70 288.75 164.44 289.58 Z" />
</g>
</svg>
