<?xml version="1.0" encoding="UTF-8" standalone="no"?>
<!-- Created with Inkscape (http://www.inkscape.org/) -->

<svg
   xmlns:dc="http://purl.org/dc/elements/1.1/"
   xmlns:cc="http://creativecommons.org/ns#"
   xmlns:rdf="http://www.w3.org/1999/02/22-rdf-syntax-ns#"
   xmlns:svg="http://www.w3.org/2000/svg"
   xmlns="http://www.w3.org/2000/svg"
   xmlns:xlink="http://www.w3.org/1999/xlink"
   xmlns:sodipodi="http://sodipodi.sourceforge.net/DTD/sodipodi-0.dtd"
   xmlns:inkscape="http://www.inkscape.org/namespaces/inkscape"
   width="472"
   height="278"
   id="svg2"
   version="1.1">
  <g
     inkscape:label="Layer 1"
     inkscape:groupmode="layer"
     id="layer1"
     transform="translate(-247.43371,-475.58323)">
    <path
       id="path11995"
       shape-rendering="crispEdges"
       stroke-miterlimit="3.864"
       d="m 713.18256,716.55537 c 2.50685,0 4.387,-1.77987 4.387,-4.61262 0,-2.80767 -1.88015,-4.58754 -4.387,-4.58754 -2.53193,0 -4.41207,1.77987 -4.41207,4.58754 0,2.83275 1.88014,4.61262 4.41207,4.61262 z"
       style="fill:#ffffff;fill-rule:nonzero;stroke:#ffffff;stroke-width:0;stroke-linecap:butt;stroke-linejoin:miter;stroke-miterlimit:3.86400008" />
    <path
       id="path11997"
       stroke-miterlimit="3.864"
       d="m 269.16815,499.43654 c -4.96357,41.88957 -7.06933,86.86257 -7.9718,128.20063 -0.27576,12.65963 9.67646,23.81514 19.60362,24.91816 66.70744,7.99687 156.82893,17.67333 236.84779,25.79555 l 165.32718,-2.08069 c 7.87153,-0.12534 14.28908,7.14454 14.28908,16.29456 l 0.17548,2.43166 c 2.55699,0.12534 4.48727,0.20054 5.7407,0.20054 7.54564,0 9.57619,-4.11124 10.67921,-7.44536 1.10302,-5.03878 0.55151,-9.50099 0.55151,-14.53977 -2.20604,-25.1187 -3.08344,-56.50454 -6.39249,-82.17475 -0.57657,-5.03878 -5.06385,-12.08305 -11.15551,-13.76264 -141.863,-32.38859 -266.60418,-61.76894 -409.49499,-90.673 -8.27263,-1.67959 -17.09676,4.46221 -18.19978,12.83511 z"
       style="fill:#ffffff;fill-rule:nonzero;stroke:#ffffff;stroke-width:3.66001034;stroke-linecap:butt;stroke-linejoin:miter;stroke-miterlimit:3.86400008" />
    <path
       id="path11999"
       stroke-miterlimit="3.864"
       d="m 259.81758,689.08022 c -2.93302,0.0251 -5.03878,3.18371 -5.03878,6.66824 l -2.28124,37.97888 c 0,3.45946 2.10576,6.64317 5.03878,6.66823 l 429.39943,4.66276 c 3.78535,0.0501 6.71838,-3.4344 6.71838,-7.59578 l -2.88289,-45.27382 c 0,-4.16139 -2.90795,-7.64592 -6.6933,-7.59578 l -424.26038,4.48727 z"
       style="fill:#ffffff;fill-rule:nonzero;stroke:#ffffff;stroke-width:3.66001034;stroke-linecap:butt;stroke-linejoin:miter;stroke-miterlimit:3.86400008" />
    <path
       id="path12001"
       d="m 269.16815,499.43654 c -4.96357,41.88957 -7.06933,86.86257 -7.9718,128.20063 -0.27576,12.65963 9.67646,23.81514 19.60362,24.91816 66.70744,7.99687 156.82893,17.67333 236.84779,25.79555 l 165.32718,-2.08069 c 7.87153,-0.12534 14.28908,7.14454 14.28908,16.29456 l 0.17548,2.43166 c 2.55699,0.12534 4.48727,0.20054 5.7407,0.20054 7.54564,0 9.57619,-4.11124 10.67921,-7.44536 1.10302,-5.03878 0.55151,-9.50099 0.55151,-14.53977 -2.20604,-25.1187 -3.08344,-56.50454 -6.39249,-82.17475 -0.57657,-5.03878 -5.06385,-12.08305 -11.15551,-13.76264 -141.863,-32.38859 -266.60418,-61.76894 -409.49499,-90.673 -8.27263,-1.67959 -17.09676,4.46221 -18.19978,12.83511 z m -9.35057,189.64368 c -2.93302,0.0251 -5.03878,3.18371 -5.03878,6.66824 l -2.28124,37.97888 c 0,3.45946 2.10576,6.64317 5.03878,6.66823 l 429.39943,4.66276 c 3.78535,0.0501 6.71838,-3.4344 6.71838,-7.59578 l -2.88289,-45.27382 c 0,-4.16139 -2.90795,-7.64592 -6.6933,-7.59578 l -424.26038,4.48727 z m 29.78145,-212.95745 c 141.86301,30.73406 268.25871,61.44305 408.46718,94.93465 8.84921,2.23111 14.36429,12.2836 15.46731,21.78459 2.75754,28.47789 5.28946,62.64634 5.84097,90.57272 0.55151,6.69331 -2.75754,13.73757 -9.37564,16.52018 -3.33412,1.12809 -6.09166,1.45398 -9.40071,1.20329 l -2.75754,-0.22561 2.55699,36.37448 c 0,9.15003 -6.39248,16.41991 -14.28908,16.29457 l -428.29642,-6.44262 c -5.7407,-0.0752 -10.37838,-6.44262 -10.37838,-14.18881 l 2.00548,-37.15161 c 0,-7.72112 4.63769,-14.1136 10.37839,-14.18881 l 178.31269,-2.25617 c -53.04508,-4.88837 -106.24057,-10.27811 -159.81209,-16.59539 -17.12183,-1.67959 -30.35803,-19.55348 -29.25502,-37.97887 2.75755,-40.20998 4.08618,-86.11052 8.49825,-126.3205 0.55151,-6.6933 4.28672,-12.45907 9.95222,-16.7458 6.6181,-5.01371 14.33922,-7.24481 22.0854,-5.59029"
       style="fill:#241f20;fill-rule:nonzero;stroke:none" />
    <path
       id="path12003"
       d="m 659.23501,650.97601 c -0.37603,-17.82375 -1.10302,-46.07602 -1.50412,-66.13087 -0.0251,-1.32864 -0.72698,-1.77987 -6.6181,-2.80768 -5.08891,-0.90247 -5.64042,-0.77713 -5.61535,0.77712 0.35096,18.14964 1.12808,48.18178 1.4289,63.54881 0.0752,3.1085 -0.55151,6.11673 -4.16138,5.46495 -3.73521,-0.65178 -4.387,-3.9859 -4.43713,-6.99413 -0.3259,-15.7932 -0.90247,-45.19862 -1.2785,-63.69922 -0.0251,-1.65453 -1.2785,-2.10576 -5.81591,-2.90796 -5.54015,-0.97767 -6.34234,-1.00274 -6.31728,0.77713 0.42617,20.60636 0.97768,48.0063 1.32864,66.25621 0.17548,8.14729 6.44262,16.57033 16.7458,18.37526 10.5288,1.85508 16.41991,-3.43439 16.24443,-12.65962"
       style="fill:#241f20;fill-rule:nonzero;stroke:none" />
    <path
       id="path12005"
       d="m 517.54748,595.49927 c 0,-11.65688 0.0251,-22.91266 0.0251,-31.03488 0,-9.42578 -4.51234,-14.5899 -12.18332,-15.91854 -6.69331,-1.12808 -7.29495,2.75755 -8.17235,2.60714 -0.60165,-0.10028 -0.8774,-4.13632 -7.16961,-5.21427 -2.38151,-0.42616 -5.21426,1.10302 -5.81591,2.43165 -0.40109,0.60165 -0.50137,-0.85233 -0.50137,-1.98041 0,-1.83001 -0.77712,-1.6796 -5.38974,-2.45672 -3.45946,-0.60165 -4.23659,-0.82726 -4.23659,0.0251 -0.0251,15.84333 -0.0251,25.09363 -0.0501,44.0956 0,0.85233 0.40109,1.02781 4.9385,1.80494 5.21426,0.8774 5.59029,0.85233 5.59029,-0.10028 0.0251,-10.604 0.0251,-17.84881 0.0251,-29.20487 0,-3.05837 0.10028,-5.71564 2.95809,-5.21426 2.95809,0.50137 2.95809,3.45946 2.95809,6.14179 -0.0251,11.25579 -0.0251,19.07718 -0.0251,29.48063 0,0.75206 1.17823,1.05288 5.59029,1.80494 3.76029,0.65178 5.03879,0.8774 5.03879,-0.0752 0,-11.93264 0,-18.04937 0.0251,-29.30516 0,-3.05836 -0.20054,-5.76577 2.65727,-5.26439 3.33412,0.5515 3.13357,3.48453 3.13357,6.54289 0,10.77948 -0.0251,18.9017 -0.0251,29.1046 0,0.75206 0.8774,1.00275 5.71564,1.83001 4.03603,0.70192 4.91343,0.75206 4.91343,-0.10028"
       style="fill:#241f20;fill-rule:nonzero;stroke:none" />
    <path
       id="path12007"
       d="m 456.0543,531.09813 c 0.32589,-0.57657 -0.62672,-1.55425 -2.25617,-2.50685 -1.85508,-1.07795 -4.3118,-2.557 -6.31728,-3.78536 -1.2785,-0.77712 -1.93028,-1.00274 -2.18097,-0.37602 -0.25068,0.65178 -0.70192,1.83 -1.10301,2.25617 -0.57658,0.65178 0.52644,1.65452 0.77712,1.88014 3.28398,2.00548 4.58755,2.65727 8.57345,5.23933 1.15315,0.67685 1.42891,0.35096 1.55425,-0.17548 0.12534,-0.60165 0.70192,-1.95535 0.95261,-2.53193"
       style="fill:#241f20;fill-rule:nonzero;stroke:none" />
    <path
       id="path12009"
       d="m 450.89017,555.3645 c 0,0.50138 -0.32589,1.22836 -4.11124,0.57658 -3.38426,-0.57658 -3.88563,-1.45398 -3.88563,-2.1559 l 0,-2.48178 c 0,-2.18097 1.02781,-4.28673 3.9859,-3.78536 2.98316,0.50137 4.01097,2.85782 4.01097,5.16413 l 0,2.68233 z m 10.95497,17.87389 c 0,-1.37877 -1.02782,-1.55425 -5.64043,-2.35645 -4.21152,-0.70191 -5.13906,-0.77712 -5.13906,-0.27575 0,2.58206 -1.12808,4.387 -4.08617,3.88563 -2.78261,-0.4763 -4.11125,-2.00549 -4.11125,-4.98865 -0.10027,-1.80493 -0.10027,-3.5096 -0.10027,-5.38974 0,-1.37877 0.62671,-1.47904 1.42891,-1.3537 l 15.59264,2.68234 c 2.1559,0.35096 2.05563,-0.15041 2.05563,-1.15316 l 0,-10.32825 c 0.0251,-8.67372 -6.1418,-15.29182 -14.84059,-16.77087 -8.52332,-1.45397 -14.86566,3.0333 -14.89073,11.68196 l 0,19.27772 c -0.0251,8.8492 6.24207,15.3921 14.84059,16.87115 8.82413,1.50411 14.86566,-2.23111 14.89073,-11.78223"
       style="fill:#241f20;fill-rule:nonzero;stroke:none" />
    <path
       id="path12011"
       d="m 552.81895,590.00926 c 0,-1.2785 -0.9526,-1.45398 -5.18919,-2.1559 -3.86056,-0.67685 -4.71289,-0.72699 -4.71289,-0.27575 0,2.38151 -1.02781,4.03604 -3.76028,3.55973 -2.557,-0.42616 -3.76029,-1.83 -3.76029,-4.56247 -0.10027,-1.65453 -0.10027,-3.20878 -0.10027,-4.96358 0,-1.2785 0.57657,-1.3537 1.32863,-1.22836 4.33686,0.75206 9.12496,1.55425 14.31415,2.45672 1.98042,0.32589 1.88014,-0.15041 1.88014,-1.05288 0,-2.55699 0,-5.28947 0,-9.50099 0,-7.94673 -5.64042,-14.01332 -13.63729,-15.39209 -7.8214,-1.32864 -13.66237,2.78261 -13.66237,10.72934 0,10.57894 0,7.11947 -0.0251,17.72348 0,8.12221 5.7407,14.1136 13.66237,15.4673 8.09714,1.40384 13.6373,-2.03055 13.66236,-10.80455 z m -10.07756,-16.41991 c 0,0.45123 -0.27575,1.12809 -3.76028,0.52644 -3.10851,-0.52644 -3.58481,-1.32863 -3.58481,-1.98042 0,-0.90247 0,-1.27849 0,-2.28124 0,-2.00548 0.95261,-3.93576 3.68508,-3.48453 2.73247,0.47631 3.66001,2.65727 3.66001,4.73796 0,1.37877 0,1.65453 0,2.48179"
       style="fill:#241f20;fill-rule:nonzero;stroke:none" />
    <path
       id="path12013"
       d="m 337.5552,627.26115 c -9.22524,-0.92754 -37.00121,-4.13632 -46.35178,-4.66276 -2.30631,-0.12534 -2.28124,-3.35919 -2.03055,-7.37016 0.27575,-4.36193 0.8774,-8.19742 3.38425,-8.19742 1.77987,0 6.0666,0.60165 8.79907,0.77713 1.25343,0.0752 2.30631,0.17548 3.23384,-0.32589 0.92754,-0.50137 1.07795,-3.00823 1.20329,-5.03878 1.90522,-29.63105 2.0807,-38.53039 3.98591,-68.1865 0.0752,-1.3537 0.62671,-4.96357 -0.27576,-4.96357 -1.95535,0 -6.04152,1.72973 -7.8966,2.88288 -1.50411,1.17822 -4.76302,3.25892 -4.91343,1.52918 -0.30083,-3.35918 -1.07795,-8.87427 -0.15042,-12.40893 0.30083,-1.6796 5.74071,-3.78536 8.92441,-6.1418 2.98316,-2.1559 3.96084,-6.36742 5.59029,-6.69331 4.53741,-1.3537 15.04114,1.85507 18.60088,1.85507 2.30631,0 1.7548,3.18371 1.62945,5.03879 -2.2311,35.17119 -2.6322,53.27069 -4.98864,90.44737 -0.12534,1.83001 -0.25069,3.86056 0.25069,4.51235 0.65178,0.85233 2.25617,0.75205 2.95809,0.85233 3.55973,0.50137 6.09166,0.50137 9.02468,1.00274 1.57932,0.25069 1.7548,3.18371 1.47904,7.54564 -0.25068,3.68508 -0.85233,7.69605 -2.45671,7.54564"
       style="fill:#241f20;fill-rule:nonzero;stroke:none" />
    <path
       id="path12015"
       d="m 384.18272,634.88199 c -13.58716,0 -27.02391,-11.15551 -26.02117,-27.22446 0.17548,-2.78261 0.0752,-7.34509 0.4011,-9.95222 0.20055,-1.72973 4.33686,-1.40384 10.85469,-0.95261 4.41207,0.32589 8.67372,1.05288 8.59852,3.53467 -0.10028,2.95809 -0.12535,3.88563 -0.20055,5.7407 -0.12534,3.88563 1.12808,10.82962 6.11673,11.05524 4.36193,0.17548 6.46769,-2.70741 6.59303,-6.74345 0.35096,-9.77674 0.35096,-9.77674 0.65178,-19.378 0.12535,-3.40932 -1.02781,-10.1277 -4.83823,-11.15551 -1.7548,-0.45123 -2.53192,-0.62671 -3.71015,-0.37602 -2.7074,0.65178 -2.3063,2.08069 -3.30905,1.32863 -0.85233,-0.65178 -11.4814,-10.17784 -10.80455,-11.13044 10.50373,-14.71525 13.96319,-17.24718 21.43362,-27.45008 1.50412,-2.08069 1.22836,-2.6322 0.45124,-3.71015 -0.62672,-0.92754 -17.07169,-4.06111 -24.51706,-5.28947 -1.62945,-0.25068 -2.03055,-3.25891 -1.88014,-7.59577 0.15041,-4.63768 0.62671,-8.12221 2.40658,-7.74619 11.70702,2.53193 33.34119,6.74345 43.143,8.52332 1.93028,0.37602 2.25617,1.40383 2.1559,4.51234 -0.10028,3.40932 -0.0501,11.30592 -1.62946,14.1136 -6.66824,10.67921 -9.70153,12.23346 -16.3447,22.46143 -0.50137,0.62672 -1.17823,1.20329 0.45123,1.50412 2.98316,0.4763 6.41755,1.27849 9.32551,3.76028 3.71014,3.1085 6.46769,9.92715 6.16686,18.30005 -0.35096,10.70428 -0.37602,11.78223 -0.72698,22.16061 -0.45124,12.88524 -10.85469,21.70938 -24.76775,21.70938"
       style="fill:#241f20;fill-rule:nonzero;stroke:none" />
    <path
       id="path12017"
       d="m 607.46842,658.72219 c -6.24207,-0.57657 -6.51782,-0.52644 -6.56796,-2.83274 -0.27575,-10.32825 -0.65178,-23.31377 -0.80219,-29.17981 -0.12535,-4.46221 -1.7548,-8.22249 -4.91344,-8.59852 -4.43714,-0.50137 -4.93851,-0.70192 -4.91344,1.10302 0.27575,13.3114 0.45123,21.50882 0.75206,35.7227 0.0501,2.43165 -1.45398,2.33138 -7.94674,1.67959 -5.31453,-0.52644 -5.89111,-0.62671 -5.94125,-3.45946 -0.32589,-25.49473 -0.72699,-57.85824 -1.00274,-82.72626 -0.0251,-1.2785 0.0752,-2.55699 0.45123,-3.15864 0.72699,-0.92754 1.57932,-0.55151 3.18371,-0.32589 2.80768,0.4011 8.82413,1.25343 12.15825,1.70466 5.2644,0.72699 10.70428,3.0333 14.5147,7.21975 3.81042,4.06111 5.36468,9.35057 5.54016,14.66511 0.17548,4.96357 0.22561,6.11673 0.37602,10.80455 0.15042,3.68508 -0.27575,5.61536 -1.83,7.69605 -2.1559,3.15864 -6.04153,3.45946 -6.04153,3.83549 0.0251,0.52644 4.06111,1.25343 6.56797,4.71289 1.72973,2.48179 2.45672,5.16412 2.58206,8.69879 0.42617,11.83236 0.75206,19.82924 1.15315,31.13516 0.0752,2.03055 -1.00274,1.88014 -7.32002,1.30356 z m -8.72386,-67.23389 c -0.0752,-2.68233 -0.25068,-5.11398 -1.90521,-7.24481 -0.90247,-1.12809 -1.65452,-1.7548 -4.51234,-2.13083 -1.10302,-0.15041 -1.98042,-0.27575 -2.45672,0.30082 -0.22562,0.50138 -0.35096,0.97768 -0.32589,1.62946 0.22562,11.90757 0.22562,11.90757 0.37603,19.10225 0.0251,1.15315 0.0501,2.03055 0.67685,2.6322 0.52644,0.45123 1.2785,0.32589 2.28124,0.45123 1.12808,0.15041 3.13357,0.0752 4.48727,-1.2785 1.57932,-1.60438 1.65453,-3.48453 1.62946,-4.76302 -0.10028,-3.20878 -0.17548,-5.76577 -0.25069,-8.6988"
       style="fill:#241f20;fill-rule:nonzero;stroke:none" />
    <path
       id="path12019"
       d="m 697.96594,670.90552 c -4.56248,-0.30083 -16.99649,-1.52919 -21.55897,-1.83001 -1.70466,-0.12534 -3.78535,-0.12534 -4.53741,-0.90247 -0.8774,-0.90247 -0.72698,-2.68233 -0.77712,-4.11124 -0.8774,-28.77871 -1.52918,-47.15397 -2.33138,-75.93268 -0.0501,-1.57932 -0.15041,-1.62946 0.4011,-2.53193 0.55151,-0.90247 1.40384,-0.8774 2.35644,-0.77712 5.21427,0.52644 16.64553,3.03329 22.4113,3.96083 1.12809,0.17548 1.12809,0.77713 1.40384,5.43988 0.30082,5.36467 0.35096,6.1418 -0.90247,5.94125 -2.7074,-0.37603 -9.37564,-1.95535 -11.20565,-2.13083 -0.77712,-0.0752 -1.93028,-0.0752 -2.18096,0.37603 -0.45124,0.80219 -0.45124,0.67685 -0.4011,2.2311 0.35096,8.02194 0.27576,7.69605 0.62672,15.71799 0.0501,1.07795 -0.0752,2.35645 0.72698,3.15864 0.52644,0.52644 1.32864,0.60164 2.20604,0.67685 1.70466,0.12534 4.28672,0.37603 5.18919,0.45123 1.20329,0.10028 1.32863,0.82727 1.62946,6.0666 0.27575,5.01371 0.32589,5.7407 -1.00275,5.61536 -0.80219,-0.0752 -3.13357,-0.25069 -4.96357,-0.4011 -1.00274,-0.10028 -2.10576,-0.0752 -2.50686,0.15041 -0.8774,0.62671 -0.60164,1.85507 -0.55151,3.40932 0.42617,9.55113 0.37603,8.24756 0.8022,17.79868 0.0752,1.55426 0.17548,3.81043 0.72699,4.21152 0.52644,0.4011 2.00548,0.60165 3.15864,0.72699 2.83274,0.27576 7.44536,0.70192 10.40345,1.02781 1.25343,0.12535 1.40384,0.57658 1.7548,5.79084 0.35096,5.49002 0.27575,5.94125 -0.8774,5.86605"
       style="fill:#241f20;fill-rule:nonzero;stroke:none" />
    <path
       id="path12021"
       d="m 715.61421,712.69481 c -0.20055,1.32864 -1.17822,2.00549 -2.30631,2.00549 -1.60439,0 -2.65727,-1.20329 -2.65727,-2.73248 0,-1.57932 1.00275,-2.75754 2.6322,-2.75754 1.15316,0 2.05562,0.67685 2.28124,1.95535 l -1.2785,0 c -0.10027,-0.4763 -0.4763,-0.72699 -1.05287,-0.72699 -0.75206,0 -1.15316,0.57658 -1.15316,1.50411 0,0.8774 0.45124,1.55426 1.17822,1.55426 0.57658,0 1.00275,-0.25069 1.02781,-0.8022 l 1.32864,0"
       style="fill:#241f20;fill-rule:nonzero;stroke:none" />
    <path
       id="path12023"
       d="m 713.18256,716.55537 c 2.50685,0 4.387,-1.77987 4.387,-4.61262 0,-2.80767 -1.88015,-4.58754 -4.387,-4.58754 -2.53193,0 -4.41207,1.77987 -4.41207,4.58754 0,2.83275 1.88014,4.61262 4.41207,4.61262 z m 0,-10.40345 c 3.20877,0 5.8159,2.60713 5.8159,5.8159 0,3.23385 -2.60713,5.84098 -5.8159,5.84098 -3.23385,0 -5.84098,-2.60713 -5.84098,-5.84098 0,-3.20877 2.60713,-5.8159 5.84098,-5.8159"
       style="fill:#241f20;fill-rule:nonzero;stroke:none" />
    <path
       id="path12025"
       d="m 268.51637,728.53814 c 0,-1.85507 -0.0501,-2.08069 -0.52644,-2.08069 -0.82726,0 -2.50686,0 -3.33412,0 -0.37603,-0.0251 -0.82726,-0.0501 -1.00274,-0.20055 -0.25069,-0.22561 -0.22562,-0.97767 -0.22562,-1.52918 0,-6.64317 0,-14.74031 0,-24.2413 0,-0.70192 -0.22562,-0.72699 -2.13083,-0.72699 -1.65452,0 -1.85507,0.12535 -1.85507,0.72699 0,10.62907 0,17.82375 0,28.47789 0,0.55151 -0.0251,1.22836 0.20055,1.52918 0.17548,0.25069 0.70192,0.25069 1.20329,0.27576 1.07795,0 5.36467,0.0251 7.16961,0.0251 0.45123,0 0.50137,-0.12534 0.50137,-2.25617"
       style="fill:#241f20;fill-rule:nonzero;stroke:none" />
    <path
       id="path12027"
       d="m 282.98093,730.44335 c -1.50411,-11.65688 -2.35644,-18.60087 -3.81042,-30.03213 -0.0752,-0.75206 -1.07795,-0.77713 -2.00549,-0.77713 -0.85233,0 -1.88014,0.0501 -1.98041,0.67685 -1.22836,10.72935 -2.20604,18.5006 -3.58481,30.13241 -0.0501,0.4011 1.25343,0.4011 1.83001,0.4011 1.20329,0 2.00548,0.0501 2.08069,-0.42616 0.15041,-2.58207 0.32589,-4.23659 0.55151,-6.74345 0.0251,-0.45123 0.40109,-0.32589 1.12808,-0.32589 0.57658,0 1.02781,-0.10027 1.07795,0.35096 0.32589,2.45672 0.45124,4.13631 0.77713,6.6181 0.0501,0.65178 0.77712,0.57658 1.88014,0.57658 1.00274,0 2.13083,0.0501 2.05562,-0.45124 z m -5.01371,-10.75441 c 0.0251,0.4011 -0.32589,0.30082 -0.8022,0.30082 -0.57657,0 -0.82726,-0.0501 -0.77712,-0.35096 0.15041,-2.85781 0.32589,-5.08891 0.4763,-8.57345 0,-0.15041 0.10028,-1.27849 0.30082,-1.27849 0.25069,0 0.3259,0.97767 0.3259,1.20329 0.17548,3.5096 0.27575,5.38974 0.4763,8.69879"
       style="fill:#241f20;fill-rule:nonzero;stroke:none" />
    <path
       id="path12029"
       d="m 305.39223,724.70265 c 0,-0.57657 0,-1.65452 0,-2.3063 0,-0.82727 -0.35096,-0.8774 -1.95535,-0.8774 -1.70466,0 -2.03055,-0.0501 -2.03055,0.57657 0,1.05288 0,1.72973 0,2.33138 0,0.72699 -0.30083,1.80494 -1.42891,1.80494 -1.17822,0 -1.42891,-1.32864 -1.42891,-2.557 0,-5.8159 0,-11.20565 0,-16.94635 0,-1.15315 0.25069,-2.55699 1.42891,-2.55699 1.00274,0 1.42891,1.25343 1.42891,1.88014 0,0.45124 0,1.70466 0,2.33138 0,0.57658 0.65178,0.50137 1.90521,0.50137 1.77986,0 2.08069,-0.12534 2.08069,-0.57658 0,-0.52644 0,-1.93028 0,-2.45672 0,-3.28398 -1.80494,-6.34234 -5.41481,-6.31727 -3.4344,0.0251 -5.54016,2.90795 -5.54016,6.34234 0,6.74345 0,12.08305 0,18.80143 0,3.40932 2.10576,6.2922 5.54016,6.31727 3.55973,0.0251 5.41481,-2.55699 5.41481,-6.29221"
       style="fill:#241f20;fill-rule:nonzero;stroke:none" />
    <path
       id="path12031"
       d="m 320.98487,730.14253 c 0,-11.15551 0,-19.22759 0,-29.95693 0,-0.72699 -0.10027,-0.72699 -2.10576,-0.70192 -1.83,0 -2.05562,-0.0752 -2.05562,0.67685 0,3.25891 0,7.0944 0,10.90482 0,0.67686 0,1.15316 -0.32589,1.30357 -0.42616,0.15041 -1.77987,0.0501 -2.13083,0 -0.50137,-0.17548 -0.50137,-0.67685 -0.50137,-1.42891 0,-3.66001 0,-6.86878 0,-10.57893 0,-0.70192 -0.12534,-0.85233 -2.15589,-0.85233 -1.85508,0.0251 -1.98042,0.15041 -1.98042,0.82726 0,10.82962 0,18.70115 0,30.05721 0,0.60164 0.10027,0.60164 1.98042,0.62671 2.00548,0 2.13082,0 2.13082,-0.72699 0,-4.36193 0,-7.64591 0,-12.03291 0,-0.57657 0,-1.00274 0.30083,-1.15315 0.15041,-0.0251 1.85507,-0.10028 2.3063,0 0.37603,0.0501 0.37603,0.50137 0.37603,1.07795 0,4.28672 0,7.64591 0,11.9577 0,0.85233 0.0752,0.92754 2.13083,0.92754 2.03055,0.0251 2.03055,-0.0501 2.03055,-0.92754"
       style="fill:#241f20;fill-rule:nonzero;stroke:none" />
    <path
       id="path12033"
       d="m 337.07889,730.74418 c -1.57932,-11.8825 -2.45672,-18.97691 -3.96083,-30.60872 -0.0752,-0.80219 -1.15315,-0.82726 -2.13083,-0.82726 -0.8774,0 -1.95535,0.0752 -2.03055,0.70192 -1.2785,10.95496 -2.30631,18.9017 -3.76029,30.73406 -0.0251,0.40109 1.32864,0.40109 1.90521,0.40109 1.2785,0.0251 2.10576,0.0752 2.18097,-0.42616 0.17548,-2.6322 0.32589,-4.31179 0.57658,-6.86879 0.0251,-0.45123 0.42616,-0.37603 1.17822,-0.35096 0.62671,0 1.10302,-0.10027 1.12808,0.37603 0.30083,2.50686 0.47631,4.21152 0.77713,6.76851 0.10027,0.62672 0.82726,0.55151 1.98042,0.55151 1.05288,0 2.2311,0.0501 2.15589,-0.45123 z m -5.21426,-10.98003 c 0.0251,0.40109 -0.37603,0.32589 -0.8774,0.32589 -0.60164,0 -0.82726,-0.0501 -0.77712,-0.37603 0.15041,-2.90795 0.30082,-5.18919 0.50137,-8.72386 0,-0.17548 0.0752,-1.32863 0.27575,-1.32863 0.27576,0 0.35096,1.02781 0.35096,1.25342 0.20055,3.58481 0.32589,5.49002 0.52644,8.84921"
       style="fill:#241f20;fill-rule:nonzero;stroke:none" />
    <path
       id="path12035"
       d="m 345.55207,730.49349 c 0,-11.63181 0,-23.03801 0,-30.3831 0,-0.72699 -0.15041,-0.80219 -2.23111,-0.77712 -1.83,0 -2.00548,0.0752 -2.00548,0.75205 0,10.9299 0,19.02704 0,30.45831 0,0.65178 0.0752,0.65178 2.00548,0.65178 2.18097,0.0251 2.23111,-0.0251 2.23111,-0.70192"
       style="fill:#241f20;fill-rule:nonzero;stroke:none" />
    <path
       id="path12037"
       d="m 362.99979,730.01719 c 0,-11.4814 0,-22.61185 0,-30.05721 0,-0.75206 -0.0501,-0.77712 -2.08069,-0.77712 -1.98042,0.0251 -2.13083,0.10027 -2.13083,0.82726 0,5.28947 0,9.15002 0,14.01333 0,0.50137 0,1.37877 -0.27576,1.37877 -0.22561,0 -0.40109,-0.72699 -0.4763,-1.17823 -1.22836,-4.88837 -2.38151,-9.77674 -3.23384,-13.53702 -0.30083,-1.2785 -0.50137,-1.45398 -2.20604,-1.45398 -1.77986,0 -1.83,0 -1.83,0.65179 0,10.92989 0,19.20252 0,30.63378 0,0.67685 0,0.75206 1.95535,0.80219 2.08069,0 2.20603,-0.10027 2.20603,-0.82726 0,-6.29221 0,-9.12496 0,-15.09127 0,-0.60165 0,-1.55425 0.27575,-1.55425 0.27576,0 0.62672,1.67959 0.85234,2.7074 1.40383,5.76577 1.88014,8.22249 3.1837,13.53702 0.27576,1.15316 0.72699,1.25343 1.77987,1.2785 2.00549,0 1.98042,-0.15041 1.98042,-1.3537"
       style="fill:#241f20;fill-rule:nonzero;stroke:none" />
    <path
       id="path12039"
       d="m 378.46709,729.13979 c 0,-2.05562 -0.0501,-2.20603 -0.52644,-2.20603 -1.10302,-0.0251 -2.75754,-0.0251 -3.86056,-0.0251 -0.45123,0 -1.00274,-0.0501 -1.20329,-0.20055 -0.20055,-0.15041 -0.20055,-1.00274 -0.20055,-1.60439 0,-3.71015 0,-3.18371 0,-6.86879 0,-0.62671 -0.0752,-1.07794 0.30083,-1.3537 0.12534,-0.0752 0.57657,-0.12534 1.00274,-0.12534 0.70192,0 1.47904,0 1.80494,0 0.52644,0 0.52644,-0.30082 0.52644,-2.2311 0,-2.00549 -0.0251,-2.30631 -0.52644,-2.30631 -0.37603,0 -1.25343,0 -1.95535,0 -0.30083,0 -0.57658,0.0251 -0.85233,-0.20055 -0.35096,-0.27575 -0.25069,-0.77713 -0.25069,-1.17822 0,-3.1085 0,-2.98316 0,-6.11673 0,-0.57658 0,-0.52644 0.17548,-0.85233 0.12534,-0.17548 0.62671,-0.22562 0.92754,-0.22562 0.80219,0 2.95809,-0.0251 4.0611,-0.0251 0.52644,0 0.52644,-0.30082 0.52644,-2.35644 0,-1.80494 0,-2.18097 -0.4763,-2.18097 -2.25617,0 -6.1418,0.0501 -8.3729,0.0501 -0.37603,0.0251 -0.67685,0.0251 -0.92754,0.37603 -0.25068,0.37603 -0.27575,0.42616 -0.27575,1.02781 0,11.05523 0,18.04936 0,29.1046 0,0.55151 -0.0752,1.25343 0.25069,1.57932 0.27575,0.27575 0.9526,0.17548 1.60438,0.20055 1.72973,0 6.01646,0.0251 7.74619,0.0251 0.45123,0 0.50137,-0.17548 0.50137,-2.30631"
       style="fill:#241f20;fill-rule:nonzero;stroke:none" />
    <path
       id="path12041"
       d="m 402.65826,731.14527 c -1.65453,-12.18332 -2.557,-19.47827 -4.16139,-31.38584 -0.0752,-0.80219 -1.20329,-0.82726 -2.20603,-0.82726 -0.90247,0 -2.05562,0.0501 -2.13083,0.70192 -1.3537,11.20565 -2.40658,19.35293 -3.93576,31.48612 -0.0501,0.42616 1.37877,0.42616 2.00548,0.42616 1.30357,0 2.20604,0.0501 2.25617,-0.45123 0.20055,-2.70741 0.37603,-4.41207 0.62672,-7.0192 0.0251,-0.4763 0.45123,-0.37603 1.20329,-0.37603 0.67685,0 1.15315,-0.10027 1.20329,0.37603 0.35096,2.55699 0.4763,4.31179 0.82726,6.91892 0.0752,0.67685 0.85233,0.60165 2.03056,0.60165 1.12808,0 2.35644,0.0501 2.28124,-0.45124 z m -5.46495,-11.25578 c 0.0501,0.42616 -0.37603,0.30082 -0.90247,0.30082 -0.62671,0 -0.8774,-0.0251 -0.80219,-0.35096 0.15041,-2.98316 0.30082,-5.31453 0.52644,-8.94948 0,-0.17548 0.0752,-1.3537 0.27575,-1.3537 0.27575,0 0.37603,1.02781 0.37603,1.25343 0.17548,3.68508 0.32589,5.64043 0.52644,9.09989"
       style="fill:#241f20;fill-rule:nonzero;stroke:none" />
    <path
       id="path12043"
       d="m 418.47652,725.12882 c 0,-0.62671 0.0251,-1.72973 0.0251,-2.43165 0,-0.8774 -0.37603,-0.90247 -2.10576,-0.90247 -1.85507,-0.0251 -2.2311,-0.0501 -2.2311,0.60165 0,1.07794 0,1.77986 0,2.43165 0,0.75205 -0.32589,1.88014 -1.52919,1.88014 -1.30356,-0.0251 -1.57932,-1.37877 -1.57932,-2.68234 0,-6.04152 0,-11.65688 0,-17.64827 0,-1.22836 0.27576,-2.68233 1.57932,-2.68233 1.07795,0 1.52919,1.32863 1.52919,1.95535 0,0.4763 0,1.80493 0,2.45671 0,0.60165 0.70192,0.50138 2.08069,0.50138 1.90521,0 2.25617,-0.15042 2.25617,-0.62672 0,-0.50137 0,-1.95535 0,-2.50685 0,-3.4344 -1.95535,-6.61811 -5.86605,-6.61811 -3.73521,0.0501 -6.01645,3.0333 -6.01645,6.64317 0,7.0192 0,12.55935 0,19.57855 0,3.55974 2.28124,6.56797 6.01645,6.56797 3.86056,0.0251 5.84098,-2.6322 5.84098,-6.51783"
       style="fill:#241f20;fill-rule:nonzero;stroke:none" />
    <path
       id="path12045"
       d="m 434.39506,700.96272 c 0,-1.77986 -0.0501,-2.20603 -0.55151,-2.20603 -2.6322,0.0251 -8.44811,0.0501 -11.08031,0.0501 -0.50137,0 -0.60164,0.35096 -0.60164,2.3063 0,2.00549 0.15041,2.30631 0.75206,2.30631 0.40109,0 1.00274,0 1.55425,0 0.4763,0 1.00274,0 1.22836,0.0752 0.37602,0.35096 0.27575,1.15315 0.27575,1.7548 0,10.35331 0,15.71799 0,25.9961 0,0.4763 0.4011,0.4763 2.1559,0.52644 1.98041,0 2.43165,-0.0752 2.43165,-0.50137 0,-10.27811 0,-15.61772 0,-26.02117 0,-0.62672 -0.0752,-1.45398 0.30082,-1.7548 0.20055,-0.10028 0.75206,-0.10028 1.20329,-0.10028 0.72699,0 1.32864,0 1.83001,0 0.45123,0 0.50137,-0.27575 0.50137,-2.43165"
       style="fill:#241f20;fill-rule:nonzero;stroke:none" />
    <path
       id="path12047"
       d="m 443.49495,731.01993 c 0,-12.00784 0,-23.8402 0,-31.48611 0,-0.75206 -0.15041,-0.77713 -2.38152,-0.77713 -2.00548,0.0251 -2.15589,0.0501 -2.15589,0.77713 0,11.35605 0,19.70389 0,31.58639 0,0.65178 0.0752,0.65178 2.15589,0.67685 2.33138,0 2.38152,-0.0752 2.38152,-0.77713"
       style="fill:#241f20;fill-rule:nonzero;stroke:none" />
    <path
       id="path12049"
       d="m 461.26856,725.07868 c 0,-7.0944 0,-12.65962 0,-19.67882 0,-4.13631 -2.58206,-6.79358 -6.29221,-6.76851 -3.53467,0 -6.16687,2.68233 -6.16687,6.84372 0,7.04426 0,12.45907 0,19.57854 0,3.86056 2.2311,6.81865 6.16687,6.84372 4.18645,0.0251 6.29221,-2.80768 6.29221,-6.81865 z m -4.66275,-1.07795 c 0,1.35371 -0.12535,2.88289 -1.62946,2.88289 -1.57932,-0.0251 -1.60439,-1.55425 -1.60439,-2.85782 0,-6.19193 0,-11.50647 0,-17.64827 0,-1.32863 0.35096,-2.85781 1.60439,-2.85781 1.25343,0 1.62946,1.52918 1.62946,2.83274 0,6.16687 0,11.48141 0,17.64827"
       style="fill:#241f20;fill-rule:nonzero;stroke:none" />
    <path
       id="path12051"
       d="m 479.99478,730.66897 c 0,-11.98277 0,-23.61459 0,-31.38584 0,-0.75206 -0.0501,-0.80219 -2.25618,-0.77713 -2.15589,0 -2.3063,0.10028 -2.3063,0.8774 0,5.49002 0,9.50099 0,14.58991 0,0.52644 0,1.45397 -0.30083,1.45397 -0.25068,0 -0.42616,-0.77712 -0.50137,-1.25342 -1.3537,-5.08892 -2.6322,-10.20291 -3.5096,-14.08854 -0.37602,-1.3537 -0.57657,-1.55425 -2.45672,-1.52918 -1.88014,0 -1.98041,0 -1.98041,0.67685 0,11.4062 0,20.00472 0,31.93735 0,0.70192 0,0.8022 2.15589,0.8022 2.28124,0.0501 2.38152,-0.0752 2.38152,-0.82727 0,-6.54289 0,-9.52605 0,-15.71799 0,-0.65178 0,-1.62945 0.30082,-1.62945 0.32589,0 0.65178,1.77987 0.90247,2.80768 1.52918,6.04152 2.05562,8.54838 3.48453,14.13867 0.30082,1.17822 0.77713,1.30356 1.90521,1.30356 2.2311,0.0251 2.18097,-0.15041 2.18097,-1.37877"
       style="fill:#241f20;fill-rule:nonzero;stroke:none" />
    <path
       id="path12053"
       d="m 505.71512,729.79157 c 0,-2.13083 -0.0501,-2.33137 -0.60164,-2.33137 -1.17823,0 -2.98316,-0.0251 -4.16138,-0.0251 -0.52644,0 -1.12809,-0.0501 -1.35371,-0.20055 -0.20055,-0.12534 -0.20055,-1.05288 -0.20055,-1.6796 0,-3.86055 0,-3.33411 0,-7.19467 0,-0.62672 -0.10027,-1.10302 0.30083,-1.37877 0.17548,-0.12535 0.65178,-0.17548 1.10301,-0.17548 0.77713,0.0251 1.62946,0.0251 2.00549,0.0251 0.55151,0 0.55151,-0.30082 0.55151,-2.33137 0,-2.13083 -0.0251,-2.40658 -0.55151,-2.40658 -0.4011,0 -1.37877,0 -2.1559,0 -0.32589,0 -0.62671,0.0501 -0.9526,-0.20055 -0.35096,-0.27576 -0.27576,-0.82727 -0.27576,-1.25343 0,-3.23385 0,-3.15864 0,-6.39248 0,-0.60165 0,-0.55151 0.22562,-0.92754 0.15041,-0.15041 0.67685,-0.20055 1.00274,-0.20055 0.85233,0 3.23385,-0.0501 4.43714,-0.0501 0.57658,0 0.57658,-0.27575 0.57658,-2.45672 0,-1.88014 0,-2.28124 -0.55151,-2.28124 -2.40659,0.0251 -6.69331,0.0251 -9.09989,0.0501 -0.45124,0 -0.77713,0 -1.05288,0.4011 -0.25069,0.4011 -0.30082,0.42616 -0.30082,1.07795 0,11.5566 0,18.87663 0,30.43323 0,0.60165 -0.0752,1.32864 0.27575,1.65453 0.30082,0.30082 1.07795,0.20055 1.77987,0.20055 1.88014,0 6.56796,0.0251 8.47317,0.0501 0.47631,0 0.52644,-0.20054 0.52644,-2.40658"
       style="fill:#241f20;fill-rule:nonzero;stroke:none" />
    <path
       id="path12055"
       d="m 523.28819,700.51149 c 0,-1.85507 -0.0251,-2.28124 -0.60165,-2.28124 -2.80768,0.0251 -8.97455,0.0501 -11.78222,0.0752 -0.52644,0 -0.62672,0.32589 -0.62672,2.38151 0,2.03055 0.15041,2.35644 0.8022,2.35644 0.42616,0 1.02781,0 1.65452,0 0.50137,0 1.05288,0 1.2785,0.10028 0.40109,0.32589 0.32589,1.17822 0.32589,1.77987 0,10.70427 0,16.21936 0,26.84843 0,0.50137 0.4011,0.50137 2.25617,0.50137 2.10576,0.0251 2.60713,-0.0251 2.60713,-0.4763 0,-10.65414 0,-16.14416 0,-26.89857 0,-0.60165 -0.0752,-1.45398 0.32589,-1.77987 0.22562,-0.10027 0.8022,-0.10027 1.2785,-0.10027 0.75205,0 1.40384,-0.0251 1.95535,-0.0251 0.50137,0 0.52644,-0.22562 0.52644,-2.48179"
       style="fill:#241f20;fill-rule:nonzero;stroke:none" />
    <path
       id="path12057"
       d="m 549.78566,723.9506 c 0,-7.99688 -8.74893,-11.98278 -8.74893,-17.72348 0,-0.65178 0.0752,-1.22836 0.15041,-1.98041 0.0752,-0.77713 0.72699,-1.55426 1.55425,-1.55426 0.77713,-0.0251 1.65453,0.8022 1.65453,2.18097 0,0.45123 0,1.62946 0,2.25617 0,0.35096 0.8774,0.35096 2.6322,0.32589 1.52918,0 2.18096,0.0501 2.18096,-0.27575 0,-0.85233 0,-1.6796 0,-2.40658 0,-3.60988 -2.60713,-6.69331 -6.46769,-6.66824 -3.1085,0.0251 -4.71289,2.08069 -5.31453,3.23384 -0.57658,1.12809 -1.12809,3.35919 -1.12809,4.73796 0,7.32002 8.59852,13.26127 8.59852,17.548 0,0.67685 -0.0501,1.40383 -0.12534,2.2311 -0.0752,0.85233 -0.37603,1.80493 -1.62946,1.80493 -1.3537,0 -1.6796,-1.05288 -1.6796,-2.88288 0,-0.4763 0,-1.42891 0,-2.05562 0,-0.4011 -0.85233,-0.4011 -2.68233,-0.4011 -1.80494,-0.0251 -2.2311,0.0251 -2.2311,0.4763 0,0.62672 0,2.20604 0,2.73248 0,4.4622 2.88288,6.86878 6.59303,6.89385 3.28398,0 4.33686,-1.05288 5.86604,-4.03604 0.57658,-1.07795 0.77713,-2.95809 0.77713,-4.43713"
       style="fill:#241f20;fill-rule:nonzero;stroke:none" />
    <path
       id="path12059"
       d="m 568.26119,725.63019 c 0,-7.87153 0,-18.0243 0,-26.92364 0,-0.60164 -0.27575,-0.72699 -2.68234,-0.72699 -2.08069,0.0251 -2.3063,0.10028 -2.3063,0.8022 0,8.04701 0,18.95183 0,25.77048 0,1.37877 -0.27576,2.75754 -1.7548,2.75754 -1.52919,0 -1.7548,-1.45397 -1.7548,-2.75754 0,-7.0192 0,-17.52292 0,-25.72034 0,-0.72699 -0.50137,-0.8022 -2.35645,-0.8022 -2.2311,0.0251 -2.55699,0.0501 -2.55699,0.82726 0,9.12496 0,18.72622 0,26.77323 0,3.60987 2.48179,6.89386 6.66824,6.91892 4.28672,0 6.74344,-2.78261 6.74344,-6.91892"
       style="fill:#241f20;fill-rule:nonzero;stroke:none" />
    <path
       id="path12061"
       d="m 586.96234,724.07594 c 0,-8.12222 -8.92441,-12.13319 -8.92441,-17.99923 0,-0.65178 0.0251,-1.22836 0.15041,-1.95535 0.0752,-0.82726 0.72699,-1.60439 1.55425,-1.60439 0.8022,0 1.6796,0.85234 1.6796,2.20604 0,0.45123 0,1.65452 0,2.30631 0,0.35096 0.92753,0.35096 2.73247,0.35096 1.57932,0 2.25617,0.0251 2.25617,-0.3259 0,-0.82726 0,-1.67959 0,-2.43165 0,-3.60987 -2.68234,-6.74344 -6.66824,-6.74344 -3.15864,0.0251 -4.81316,2.13083 -5.43988,3.25891 -0.62671,1.15316 -1.15315,3.4344 -1.15315,4.83824 0,7.39522 8.79907,13.41168 8.79907,17.72347 0,0.70192 -0.0501,1.45398 -0.10028,2.30631 -0.0752,0.85233 -0.42616,1.83 -1.67959,1.83 -1.40384,0 -1.70466,-1.10301 -1.70466,-2.95809 0,-0.4763 0,-1.4289 0,-2.08069 0,-0.37603 -0.90247,-0.37603 -2.75755,-0.37603 -1.88014,0 -2.28124,0.0251 -2.28124,0.47631 0,0.65178 0,2.2311 0,2.78261 0,4.51234 2.93303,6.94399 6.74345,6.94399 3.35919,0.0251 4.43713,-1.05288 6.04152,-4.06111 0.55151,-1.10301 0.75206,-3.00823 0.75206,-4.48727"
       style="fill:#241f20;fill-rule:nonzero;stroke:none" />
    <path
       id="path12063"
       d="m 606.26513,711.86755 c 0,-4.8633 0,-1.65453 0,-6.56796 0,-2.50686 -0.72699,-4.41207 -2.33137,-5.79084 -1.42891,-1.22836 -3.30905,-1.72973 -5.21427,-1.72973 -1.25342,0.0251 -3.68507,0.0251 -4.78809,0.0251 -0.57658,0.0251 -0.95261,-0.0251 -1.17822,0.30083 -0.20055,0.25068 -0.25069,0.67685 -0.25069,1.27849 0,9.62633 0,22.36116 0,32.23818 0,1.10301 0.27576,1.10301 2.40658,1.12808 2.1559,0 2.6322,0.0501 2.6322,-0.80219 0,-2.93302 0,-8.32276 0,-10.87976 0,-1.25343 0.4011,-1.55425 1.02781,-1.55425 1.7548,0 3.81043,-0.37603 5.31454,-1.83 1.80494,-1.7548 2.38151,-3.78536 2.38151,-5.81591 z m -5.13905,-0.70192 c 0,0.9526 0.0752,1.70466 -0.55151,2.55699 -0.52644,0.62672 -1.17822,0.8022 -1.70466,0.8022 -0.47631,0 -0.8022,0 -1.05288,-0.0501 -0.32589,-0.15041 -0.27576,-0.55151 -0.27576,-1.05288 0,-4.88837 0,-4.51234 0,-9.47592 0,-0.30082 0,-0.50137 0.15041,-0.70192 0.17548,-0.22561 0.70192,-0.22561 1.2785,-0.22561 0.75206,0 1.17822,0.20054 1.55425,0.60164 0.55151,0.75206 0.60165,1.70466 0.60165,2.73247 0,1.85508 0,2.93303 0,4.81317"
       style="fill:#241f20;fill-rule:nonzero;stroke:none" />
    <path
       id="path12065"
       d="m 623.86326,730.36815 c 0,-2.20603 -0.0501,-2.40658 -0.65178,-2.40658 -1.27849,-0.0251 -3.23384,-0.0251 -4.53741,-0.0251 -0.52644,0 -1.20329,-0.0501 -1.42891,-0.20055 -0.25068,-0.15041 -0.25068,-1.10302 -0.25068,-1.7548 0,-4.01097 0,-3.48453 0,-7.4955 0,-0.65178 -0.10028,-1.15315 0.32589,-1.45398 0.20055,-0.10027 0.72699,-0.15041 1.20329,-0.15041 0.8774,0 1.77987,0 2.18097,0 0.60164,0 0.60164,-0.30082 0.60164,-2.40658 0,-2.2311 -0.0501,-2.53193 -0.60164,-2.53193 -0.45124,0 -1.50412,0 -2.30631,0 -0.4011,0 -0.72699,0.0501 -1.07795,-0.20054 -0.35096,-0.30083 -0.27575,-0.82727 -0.27575,-1.2785 0,-3.35919 0,-3.28398 0,-6.66824 0,-0.62671 0,-0.57658 0.25068,-0.9526 0.15041,-0.17548 0.70192,-0.25069 1.10302,-0.25069 0.90247,0 3.48453,-0.0251 4.78809,-0.0251 0.62672,0 0.62672,-0.30082 0.62672,-2.55699 0,-1.95535 0,-2.38152 -0.60165,-2.38152 -2.6322,0.0251 -7.26988,0.0501 -9.90208,0.0501 -0.4763,0.0501 -0.80219,0.0501 -1.07795,0.42617 -0.30082,0.40109 -0.35096,0.45123 -0.35096,1.10301 0,12.03291 0,19.67883 0,31.71174 0,0.62671 -0.0752,1.3537 0.27576,1.70466 0.35096,0.32589 1.15315,0.20055 1.90521,0.22562 2.08069,0 7.16961,0.0251 9.22523,0.0501 0.52644,0 0.57657,-0.22561 0.57657,-2.53192"
       style="fill:#241f20;fill-rule:nonzero;stroke:none" />
    <path
       id="path12067"
       d="m 644.14373,731.5213 c 0,-12.65962 0.0251,-24.94322 0.0251,-33.14064 0,-0.80219 -0.0752,-0.85233 -2.53192,-0.82726 -2.45672,0 -2.58207,0.10027 -2.58207,0.92754 0,5.8159 0,10.07756 0,15.44223 0,0.55151 0,1.50411 -0.35096,1.50411 -0.27575,0 -0.4763,-0.80219 -0.57657,-1.32863 -1.47905,-5.3396 -2.88289,-10.77948 -3.9107,-14.89073 -0.37603,-1.4289 -0.62671,-1.62945 -2.7074,-1.60438 -2.13083,0 -2.23111,0 -2.23111,0.70192 0,12.05798 0,21.15786 0,33.76735 0,0.75206 0,0.8774 2.40659,0.8774 2.53192,0.0251 2.68233,-0.10027 2.68233,-0.90247 0,-6.91892 0,-10.05249 0,-16.62046 0,-0.67685 0,-1.70466 0.32589,-1.70466 0.35096,0 0.72699,1.85508 1.02782,2.95809 1.67959,6.36742 2.25617,9.07482 3.86055,14.94087 0.35096,1.25343 0.8774,1.37877 2.13083,1.37877 2.50686,0.0251 2.43165,-0.15041 2.43165,-1.47905"
       style="fill:#241f20;fill-rule:nonzero;stroke:none" />
    <path
       id="path12069"
       d="m 664.19858,724.30156 c 0,-8.32277 -9.40071,-12.43401 -9.40071,-18.45047 0,-0.67685 0.0501,-1.25342 0.12535,-2.05562 0.12534,-0.80219 0.80219,-1.60439 1.70466,-1.60439 0.82726,0 1.7548,0.85233 1.7548,2.28124 0,0.45124 0,1.65453 0,2.33138 0,0.37603 0.97767,0.37603 2.85781,0.35096 1.65453,0 2.35645,0.0501 2.35645,-0.32589 0,-0.85233 0,-1.70466 0,-2.48179 0,-3.73522 -2.80768,-6.94399 -6.96906,-6.91892 -3.35919,0.0251 -5.11399,2.20603 -5.76577,3.35918 -0.62672,1.17823 -1.20329,3.5096 -1.20329,4.93851 0,7.62084 9.2503,13.76264 9.2503,18.19978 0,0.72699 -0.0501,1.47904 -0.0752,2.35644 -0.10027,0.8774 -0.45123,1.88015 -1.77987,1.88015 -1.47904,-0.0251 -1.80493,-1.15316 -1.80493,-3.0333 0,-0.50137 0,-1.45398 0,-2.13083 0,-0.37603 -0.92754,-0.37603 -2.90796,-0.42616 -1.95534,0 -2.40658,0.0752 -2.40658,0.52644 0,0.65178 0,2.28123 0,2.85781 0,4.58755 3.08343,7.11947 7.11947,7.14454 3.55974,0 4.66276,-1.07795 6.36742,-4.21152 0.57658,-1.10301 0.77712,-3.05836 0.77712,-4.58754"
       style="fill:#241f20;fill-rule:nonzero;stroke:none" />
    <path
       id="path12071"
       d="m 682.47357,730.66897 c 0,-2.25617 -0.0752,-2.45672 -0.65179,-2.48179 -1.3537,0 -3.40932,0 -4.73795,0 -0.55151,0 -1.25343,-0.0501 -1.50412,-0.22561 -0.25068,-0.12535 -0.25068,-1.10302 -0.25068,-1.77987 0,-4.11125 0,-3.53467 0,-7.64591 0,-0.65179 -0.0752,-1.17823 0.37602,-1.47905 0.20055,-0.0752 0.72699,-0.15041 1.22836,-0.15041 0.90247,0 1.85508,0 2.25618,0 0.62671,0 0.62671,-0.30082 0.62671,-2.45672 0,-2.25617 -0.0501,-2.55699 -0.62671,-2.55699 -0.45124,0 -1.55426,0 -2.38152,0 -0.42616,0 -0.77712,0.0501 -1.10302,-0.20055 -0.42616,-0.30082 -0.30082,-0.8774 -0.30082,-1.3537 0,-3.40933 0,-3.33412 0,-6.74345 0,-0.67685 0,-0.62671 0.25069,-1.00274 0.12534,-0.17548 0.72699,-0.25069 1.15315,-0.25069 0.90247,0 3.60987,0 4.96358,-0.0251 0.62671,0 0.62671,-0.30083 0.62671,-2.60713 0,-1.98042 0,-2.40659 -0.57658,-2.40659 -2.75754,0.0251 -7.5707,0.0501 -10.30318,0.0501 -0.50137,0 -0.85233,0 -1.15315,0.42617 -0.27575,0.42616 -0.32589,0.4763 -0.32589,1.12808 0,12.2836 0,20.05485 0,32.31338 0,0.62671 -0.12534,1.37877 0.30082,1.7548 0.32589,0.30082 1.17822,0.22562 1.95535,0.22562 2.1559,0 7.4203,0.0251 9.57619,0.0501 0.52644,0 0.60165,-0.20054 0.60165,-2.58206"
       style="fill:#241f20;fill-rule:nonzero;stroke:none" />
  </g>
</svg>
