<?xml version="1.0" encoding="UTF-8" ?>
<!DOCTYPE svg PUBLIC "-//W3C//DTD SVG 1.1//EN" "http://www.w3.org/Graphics/SVG/1.1/DTD/svg11.dtd">
<svg width="301pt" height="85pt" viewBox="0 0 301 85" version="1.1" xmlns="http://www.w3.org/2000/svg">
<g id="#ffffffff">
<path fill="#ffffff" opacity="1.00" d=" M 253.20 14.01 C 258.13 13.98 263.06 14.00 268.00 14.00 C 268.04 19.24 267.90 24.48 268.09 29.72 C 274.33 29.70 280.56 29.62 286.79 29.77 C 286.77 34.69 286.83 39.61 286.74 44.53 C 280.49 44.72 274.22 44.26 267.98 44.80 C 267.95 51.07 268.14 57.35 267.87 63.62 C 263.03 63.50 258.20 63.57 253.37 63.57 C 253.01 57.31 253.33 51.04 253.18 44.78 C 246.95 44.30 240.69 44.68 234.45 44.55 C 234.55 39.58 234.19 34.58 234.64 29.62 C 240.78 29.81 246.92 29.61 253.07 29.73 C 253.37 24.50 253.15 19.25 253.20 14.01 Z" />
<path fill="#ffffff" opacity="1.00" d=" M 47.76 16.78 C 54.87 14.80 62.92 14.84 69.51 18.47 C 73.80 20.82 76.59 24.99 78.97 29.13 C 74.96 30.65 71.10 32.58 67.01 33.91 C 64.65 31.31 62.96 27.40 59.01 26.80 C 52.74 25.13 46.35 29.76 44.90 35.85 C 42.10 43.62 45.91 54.56 54.87 55.88 C 60.25 57.18 65.81 53.55 66.60 48.04 C 63.14 47.99 59.67 47.99 56.21 48.00 C 56.21 44.73 56.21 41.47 56.21 38.21 C 64.59 38.21 72.97 38.21 81.35 38.21 C 81.41 44.75 80.48 51.57 76.68 57.07 C 69.38 67.05 54.78 69.01 44.02 63.93 C 38.21 61.19 33.67 55.97 31.79 49.82 C 30.39 44.70 30.31 39.24 31.40 34.05 C 33.19 25.88 39.73 19.05 47.76 16.78 Z" />
<path fill="#ffffff" opacity="1.00" d=" M 96.67 23.61 C 103.60 16.42 114.57 14.58 123.99 16.93 C 132.80 19.06 140.41 26.21 142.40 35.14 C 143.59 41.00 143.22 47.28 140.72 52.76 C 137.60 58.83 131.97 63.53 125.49 65.63 C 115.07 68.69 102.62 66.53 95.30 58.05 C 86.84 48.48 87.61 32.52 96.67 23.61 M 113.50 28.59 C 107.08 29.90 101.86 36.39 102.93 43.04 C 103.74 50.05 110.82 55.57 117.83 54.53 C 125.07 53.83 130.99 46.35 129.42 39.13 C 128.31 31.93 120.53 26.90 113.50 28.59 Z" />
<path fill="#ffffff" opacity="1.00" d=" M 152.00 17.00 C 156.26 17.00 160.53 17.00 164.79 17.01 C 164.79 26.11 164.78 35.20 164.80 44.30 C 164.80 46.83 164.81 49.36 164.80 51.89 C 164.80 52.41 164.79 53.47 164.79 53.99 C 169.79 54.00 174.79 54.00 179.79 54.01 C 179.79 57.60 179.79 61.19 179.79 64.79 C 170.53 64.79 161.27 64.78 152.01 64.79 C 152.00 62.91 151.99 61.03 152.00 59.15 C 151.99 55.90 152.00 52.66 151.99 49.41 C 152.01 38.61 152.00 27.81 152.00 17.00 Z" />
<path fill="#ffffff" opacity="1.00" d=" M 187.00 17.00 C 196.33 17.00 205.67 17.00 215.00 17.00 C 215.00 20.60 215.00 24.20 214.99 27.79 C 209.99 27.78 205.00 27.79 200.00 27.79 C 200.00 30.34 200.00 32.89 200.00 35.44 C 204.52 35.44 209.04 35.44 213.56 35.45 C 213.53 38.93 213.50 42.42 213.73 45.90 C 209.16 46.06 204.58 46.00 200.00 46.00 C 200.00 52.27 200.01 58.53 199.99 64.79 C 195.66 64.79 191.33 64.79 187.01 64.79 C 186.99 55.07 187.01 45.34 187.00 35.61 C 186.99 34.33 186.99 33.05 186.99 31.76 C 187.00 26.84 187.00 21.92 187.00 17.00 Z" />
</g>
<g id="#282327ff">
<path fill="#282327" opacity="1.00" d=" M 15.01 0.00 L 301.00 0.00 L 301.00 85.00 L 15.02 85.00 C 15.01 80.10 15.00 75.19 15.04 70.29 C 37.11 76.36 60.15 79.10 83.02 77.84 C 106.97 76.50 130.71 70.26 152.00 59.15 C 151.99 61.03 152.00 62.91 152.01 64.79 C 161.27 64.78 170.53 64.79 179.79 64.79 C 179.79 61.19 179.79 57.60 179.79 54.01 C 174.79 54.00 169.79 54.00 164.79 53.99 C 164.79 53.47 164.80 52.41 164.80 51.89 C 172.63 47.08 179.97 41.52 187.00 35.61 C 187.01 45.34 186.99 55.07 187.01 64.79 C 191.33 64.79 195.66 64.79 199.99 64.79 C 200.01 58.53 200.00 52.27 200.00 46.00 C 204.58 46.00 209.16 46.06 213.73 45.90 C 213.50 42.42 213.53 38.93 213.56 35.45 C 209.04 35.44 204.52 35.44 200.00 35.44 C 200.00 32.89 200.00 30.34 200.00 27.79 C 205.00 27.79 209.99 27.78 214.99 27.79 C 215.00 24.20 215.00 20.60 215.00 17.00 C 205.67 17.00 196.33 17.00 187.00 17.00 C 187.00 21.92 187.00 26.84 186.99 31.76 C 179.94 36.53 172.50 40.67 164.80 44.30 C 164.78 35.20 164.79 26.11 164.79 17.01 C 160.53 17.00 156.26 17.00 152.00 17.00 C 152.00 27.81 152.01 38.61 151.99 49.41 C 148.25 50.58 144.49 51.69 140.72 52.76 C 143.22 47.28 143.59 41.00 142.40 35.14 C 140.41 26.21 132.80 19.06 123.99 16.93 C 114.57 14.58 103.60 16.42 96.67 23.61 C 87.61 32.52 86.84 48.48 95.30 58.05 C 89.08 58.01 82.88 57.50 76.68 57.07 C 80.48 51.57 81.41 44.75 81.35 38.21 C 72.97 38.21 64.59 38.21 56.21 38.21 C 56.21 41.47 56.21 44.73 56.21 48.00 C 59.67 47.99 63.14 47.99 66.60 48.04 C 65.81 53.55 60.25 57.18 54.87 55.88 C 45.91 54.56 42.10 43.62 44.90 35.85 C 46.35 29.76 52.74 25.13 59.01 26.80 C 62.96 27.40 64.65 31.31 67.01 33.91 C 71.10 32.58 74.96 30.65 78.97 29.13 C 76.59 24.99 73.80 20.82 69.51 18.47 C 62.92 14.84 54.87 14.80 47.76 16.78 C 39.73 19.05 33.19 25.88 31.40 34.05 C 30.31 39.24 30.39 44.70 31.79 49.82 C 31.27 49.00 30.54 48.47 29.59 48.23 C 24.74 46.82 19.82 45.62 15.05 43.93 C 14.94 29.29 15.02 14.64 15.01 0.00 M 253.20 14.01 C 253.15 19.25 253.37 24.50 253.07 29.73 C 246.92 29.61 240.78 29.81 234.64 29.62 C 234.19 34.58 234.55 39.58 234.45 44.55 C 240.69 44.68 246.95 44.30 253.18 44.78 C 253.33 51.04 253.01 57.31 253.37 63.57 C 258.20 63.57 263.03 63.50 267.87 63.62 C 268.14 57.35 267.95 51.07 267.98 44.80 C 274.22 44.26 280.49 44.72 286.74 44.53 C 286.83 39.61 286.77 34.69 286.79 29.77 C 280.56 29.62 274.33 29.70 268.09 29.72 C 267.90 24.48 268.04 19.24 268.00 14.00 C 263.06 14.00 258.13 13.98 253.20 14.01 Z" />
<path fill="#282327" opacity="1.00" d=" M 113.50 28.59 C 120.53 26.90 128.31 31.93 129.42 39.13 C 130.99 46.35 125.07 53.83 117.83 54.53 C 110.82 55.57 103.74 50.05 102.93 43.04 C 101.86 36.39 107.08 29.90 113.50 28.59 Z" />
<path fill="#282327" opacity="1.00" d=" M 3.98 39.97 C 4.54 40.17 5.65 40.57 6.21 40.77 C 5.65 40.57 4.54 40.17 3.98 39.97 Z" />
<path fill="#282327" opacity="1.00" d=" M 6.72 68.18 C 7.29 68.36 8.43 68.70 9.00 68.87 C 8.43 68.70 7.29 68.36 6.72 68.18 Z" />
</g>
<g id="#b0c700ff">
<path fill="#b0c700" opacity="1.00" d=" M 164.80 44.30 C 172.50 40.67 179.94 36.53 186.99 31.76 C 186.99 33.05 186.99 34.33 187.00 35.61 C 179.97 41.52 172.63 47.08 164.80 51.89 C 164.81 49.36 164.80 46.83 164.80 44.30 Z" />
<path fill="#b0c700" opacity="1.00" d=" M 0.99 38.73 C 2.00 39.12 3.00 39.53 3.98 39.97 C 4.54 40.17 5.65 40.57 6.21 40.77 C 6.81 41.01 8.02 41.49 8.62 41.73 C 9.63 42.04 10.63 42.37 11.62 42.72 C 12.06 42.86 12.92 43.14 13.35 43.28 C 13.78 43.44 14.63 43.77 15.05 43.93 C 19.82 45.62 24.74 46.82 29.59 48.23 C 30.54 48.47 31.27 49.00 31.79 49.82 C 33.67 55.97 38.21 61.19 44.02 63.93 C 54.78 69.01 69.38 67.05 76.68 57.07 C 82.88 57.50 89.08 58.01 95.30 58.05 C 102.62 66.53 115.07 68.69 125.49 65.63 C 131.97 63.53 137.60 58.83 140.72 52.76 C 144.49 51.69 148.25 50.58 151.99 49.41 C 152.00 52.66 151.99 55.90 152.00 59.15 C 130.71 70.26 106.97 76.50 83.02 77.84 C 60.15 79.10 37.11 76.36 15.04 70.29 C 13.89 70.07 12.72 69.95 11.56 69.81 C 10.92 69.57 9.64 69.10 9.00 68.87 C 8.43 68.70 7.29 68.36 6.72 68.18 C 5.55 67.97 4.43 67.64 3.33 67.18 C 2.75 67.12 1.58 67.00 1.00 66.95 C 1.00 57.54 1.01 48.13 0.99 38.73 Z" />
</g>
</svg>
