<?xml version="1.0" encoding="UTF-8" standalone="no"?>
<!-- Generator: Adobe Illustrator 12.0.0, SVG Export Plug-In . SVG Version: 6.00 Build 51448)  -->
<svg
   xmlns:dc="http://purl.org/dc/elements/1.1/"
   xmlns:cc="http://creativecommons.org/ns#"
   xmlns:rdf="http://www.w3.org/1999/02/22-rdf-syntax-ns#"
   xmlns:svg="http://www.w3.org/2000/svg"
   xmlns="http://www.w3.org/2000/svg"
   xmlns:sodipodi="http://sodipodi.sourceforge.net/DTD/sodipodi-0.dtd"
   xmlns:inkscape="http://www.inkscape.org/namespaces/inkscape"
   version="1.0"
   id="Calque_1"
   width="432.38461"
   height="51.20285"
   viewBox="0 0 322.953 93.61"
   style="overflow:visible"
   xml:space="preserve"
   sodipodi:version="0.32"
   inkscape:version="0.46"
   sodipodi:docname="Canal_Plus_Bleu.svg"
   inkscape:output_extension="org.inkscape.output.svg.inkscape"><metadata
   id="metadata22"><rdf:RDF><cc:Work
       rdf:about=""><dc:format>image/svg+xml</dc:format><dc:type
         rdf:resource="http://purl.org/dc/dcmitype/StillImage" /></cc:Work></rdf:RDF></metadata><defs
   id="defs20" /><sodipodi:namedview
   inkscape:window-height="1138"
   inkscape:window-width="1916"
   inkscape:pageshadow="2"
   inkscape:pageopacity="0.0"
   guidetolerance="10.0"
   gridtolerance="10.0"
   objecttolerance="10.0"
   borderopacity="1.0"
   bordercolor="#666666"
   pagecolor="#ffffff"
   id="base"
   showgrid="false"
   inkscape:zoom="2"
   inkscape:cx="200.59267"
   inkscape:cy="-137.00851"
   inkscape:window-x="0"
   inkscape:window-y="24"
   inkscape:current-layer="Calque_1"
   borderlayer="false" />


<path
   d="M -234.57991,8.3266727e-16 L -234.57991,93.783384 L 161.46394,93.783384 L 161.46394,8.3266727e-16 L -234.57991,8.3266727e-16 z M -177.98432,14.524529 L -174.22798,14.900163 L -170.47163,15.526221 L -166.8405,16.778335 L -164.96233,17.654815 L -163.45979,18.280873 L -164.96233,31.428076 L -165.46317,35.560053 L -167.71698,33.306248 L -169.97079,31.803711 L -172.47502,30.676808 L -175.10446,29.925538 L -177.7339,29.549904 L -180.48855,29.549904 L -183.24321,30.175962 L -186.37349,31.052442 L -188.75251,32.304557 L -191.13153,33.932306 L -193.26012,35.810476 L -195.01308,37.939071 L -196.64083,40.693724 L -197.64253,43.323163 L -198.26858,46.077814 L -198.519,48.832469 L -198.14337,52.213182 L -197.3921,54.717408 L -196.39041,56.846002 L -194.88787,58.974595 L -192.50885,61.103193 L -190.12984,62.355308 L -187.62561,63.356998 L -184.74574,63.857844 L -180.98939,63.983056 L -178.23474,63.607423 L -175.35488,62.730941 L -172.72544,61.604038 L -170.22121,59.851077 L -168.09262,58.098117 L -169.97079,75.377297 L -175.73051,77.631099 L -179.61207,78.507589 L -184.62053,79.133643 L -188.25166,79.258851 L -191.8828,78.883218 L -195.26351,78.257161 L -198.64422,77.130262 L -201.89971,75.627722 L -205.65606,72.998287 L -208.16029,70.619265 L -210.4141,67.864614 L -212.41748,64.859534 L -213.79481,61.72925 L -215.04692,58.098117 L -215.67298,54.5922 L -215.9234,50.961066 L -215.79819,47.204717 L -215.29734,43.573588 L -214.29565,39.942454 L -212.91832,36.186111 L -211.16536,32.805403 L -209.03677,29.675116 L -206.65775,26.67004 L -203.9031,23.915389 L -200.89802,21.536371 L -197.51731,19.282565 L -193.88618,17.529604 L -190.12984,16.277489 L -186.24828,15.275798 L -181.99109,14.64974 L -177.98432,14.524529 z M -88.458124,15.526221 L -72.180638,15.526221 L -46.387068,54.091351 L -42.129877,15.526221 L -25.351557,15.526221 L -32.363403,78.257161 L -49.01651,78.257161 L -74.058803,40.192879 L -78.315994,78.257161 L -95.46997,78.257161 L -88.458124,15.526221 z M 1.5689073,15.526221 L 21.227118,15.526221 L 38.631507,78.382373 L 20.726269,78.382373 L 17.846401,66.988128 L -5.5681431,66.988128 L -10.827024,78.382373 L -28.481845,78.382373 L 1.5689073,15.526221 z M 49.399694,15.526221 L 66.55367,15.526221 L 61.294789,63.356998 L 61.419997,63.356998 L 80.452138,63.356998 L 78.699181,78.257161 L 42.387852,78.257161 L 49.399694,15.526221 z M -136.28892,15.651432 L -116.63072,15.651432 L -99.226311,78.382373 L -117.13156,78.382373 L -120.13664,66.988128 L -143.55117,66.988128 L -148.68483,78.382373 L -166.46487,78.382373 L -136.28892,15.651432 z M 104.61794,15.651432 L 120.5198,15.651432 L 120.5198,38.565129 L 142.80744,38.565129 L 142.80744,54.091351 L 120.5198,54.091351 L 120.5198,77.25547 L 104.61794,77.25547 L 104.61794,54.091351 L 82.330319,54.091351 L 82.330319,38.565129 L 104.61794,38.565129 L 104.61794,15.651432 z M -128.02496,31.803711 L -130.52918,37.438226 L -137.91667,54.216563 L -130.52918,54.216563 L -123.14171,54.216563 L -128.02496,31.803711 z M 9.8328723,31.803711 L 7.4538542,37.438226 L -0.058840888,54.216563 L 7.4538542,54.216563 L 14.716117,54.216563 L 9.8328723,31.803711 z"
   id="polygon5" /><path
   style="fill:#5ab532"
   d="M 161.46001,2.61e-07 L 161.46001,93.798412 L 557.5047,93.798412 L 557.5047,2.61e-07 L 161.46001,2.61e-07 z M 181.93536,15.591324 L 199.40519,15.591324 L 208.23399,57.168188 L 227.3318,15.591324 L 245.80344,15.591324 L 212.80495,78.332316 L 198.09023,78.332316 L 181.93536,15.591324 z M 252.00241,15.591324 L 288.00649,15.591324 L 286.00278,30.180796 L 266.21618,30.180796 L 264.52559,40.575014 L 283.05983,40.575014 L 280.99351,53.661707 L 262.7097,53.661707 L 261.1443,65.370855 L 280.42998,65.370855 L 278.42626,78.332316 L 242.10913,78.332316 C 245.55848,57.439863 248.82059,36.527009 252.00241,15.591324 z M 299.59036,15.591324 L 324.3862,15.591324 C 333.5803,15.591324 342.80565,23.48937 343.35879,32.748043 C 344.06781,44.613731 336.86182,51.760946 326.51513,53.724321 L 341.04202,78.332316 L 322.44513,78.332316 L 310.17247,54.788793 L 306.47809,78.332316 L 289.69708,78.332316 C 293.14639,57.439863 296.40858,36.527011 299.59036,15.591324 z M 352.25023,15.591324 L 396.45693,15.591324 L 394.32803,30.180796 L 380.80302,30.180796 L 373.16389,78.332316 L 356.32024,78.332316 L 363.89675,30.180796 L 349.99608,30.180796 L 352.25023,15.591324 z M 314.3677,27.926629 C 313.42952,33.326279 312.73443,38.788094 311.92567,44.206727 L 315.49479,44.206727 C 317.6268,44.204852 320.37009,43.913487 321.56851,43.580568 C 325.91207,42.37395 328.31331,37.299401 326.76561,32.685427 C 325.71708,29.559558 323.68157,28.345257 318.68818,27.926629 L 314.3677,27.926629 z"
   id="path2441" /></svg>