<?xml version="1.0" encoding="UTF-8" standalone="no"?>
<!-- Created with Inkscape (http://www.inkscape.org/) -->
<svg
   xmlns:dc="http://purl.org/dc/elements/1.1/"
   xmlns:cc="http://web.resource.org/cc/"
   xmlns:rdf="http://www.w3.org/1999/02/22-rdf-syntax-ns#"
   xmlns:svg="http://www.w3.org/2000/svg"
   xmlns="http://www.w3.org/2000/svg"
   xmlns:sodipodi="http://sodipodi.sourceforge.net/DTD/sodipodi-0.dtd"
   xmlns:inkscape="http://www.inkscape.org/namespaces/inkscape"
   width="545"
   height="85"
   id="svg2"
   sodipodi:version="0.32"
   inkscape:version="0.45.1"
   version="1.0"
   inkscape:output_extension="org.inkscape.output.svg.inkscape">
  <g
     inkscape:label="Layer 1"
     inkscape:groupmode="layer"
     id="layer1"
     transform="translate(-525.16654,-586.10205)">
    <path
       id="path18072"
       d="M 1013.6542,671.1019 C 1031.2404,671.1019 1056.5055,669.3707 1061.5277,640.06041 L 1070.1665,586.10205 L 563.98982,586.10205 L 525.16654,671.1019 L 1013.6542,671.1019"
       style="fill:#003a63;fill-rule:nonzero;stroke:none" />
    <path
       id="path18074"
       d="M 640.38512,627.20502 C 640.36798,627.18788 640.36798,627.1536 640.35084,627.13646 C 640.36798,627.11932 640.38512,627.10218 640.40226,627.0679 L 640.38512,627.20502 z M 1047.8153,601.69993 C 1040.822,600.46581 1031.0005,599.5745 1024.4528,599.5745 C 1019.4135,599.5745 1007.8265,599.60878 999.06766,605.12803 C 996.32518,602.89976 991.88578,600.86004 984.77247,600.86004 L 890.96239,600.86004 L 850.63075,594.80944 L 820.29203,600.86004 L 768.99045,600.86004 L 768.52765,603.48254 C 763.24837,600.89432 756.34074,599.5745 747.83904,599.5745 C 738.82313,599.5745 731.77838,600.98003 726.25913,603.27685 L 726.68764,600.86004 L 719.54004,600.86004 L 687.77866,600.86004 C 687.77866,600.86004 684.88191,607.08205 684.38484,608.14476 C 684.35055,607.81909 683.49353,600.86004 683.49353,600.86004 L 645.0302,600.86004 L 644.17317,605.71081 C 643.81322,605.07661 643.40185,604.45955 642.93906,603.91105 C 640.29942,600.7572 636.27139,599.16313 630.95783,599.16313 L 608.41805,599.16313 L 603.39587,599.16313 L 598.76793,625.42241 L 596.23114,599.16313 L 572.47437,599.16313 L 546.31794,656.60102 L 568.97771,656.60102 C 568.97771,656.60102 572.6115,648.69924 574.137,645.39112 L 579.09062,645.39112 C 579.382,648.305 580.23903,656.60102 580.23903,656.60102 L 593.26583,656.60102 L 601.75038,656.60102 L 618.05102,656.60102 C 626.79268,656.60102 632.51762,654.16706 636.23711,650.72182 L 635.19154,656.60102 L 716.86612,656.60102 L 717.46604,653.15577 C 722.81388,656.30963 730.13289,657.9037 739.66302,657.9037 C 759.42604,657.9037 769.33326,650.94464 774.44113,643.57422 C 773.2413,650.32759 772.1443,656.60102 772.1443,656.60102 L 812.32168,656.60102 L 840.74067,662.24025 L 888.49416,654.04708 C 894.80187,657.40662 902.92648,657.9037 909.13135,657.9037 C 912.16522,657.9037 917.59876,657.86941 923.35798,656.60102 L 993.68554,656.60102 C 999.78756,657.66373 1005.8553,657.9037 1013.6542,657.9037 C 1022.3445,657.9037 1045.3985,657.9037 1049.0666,637.12938 C 1049.3751,635.38105 1049.5294,633.73556 1049.5294,632.19291 C 1049.5294,629.7761 1049.0323,627.7021 1048.261,625.7995 C 1048.8437,625.86806 1049.7522,625.9709 1049.7522,625.9709 L 1053.7288,602.72836 L 1047.8153,601.69993"
       style="fill:#ffffff;fill-rule:nonzero;stroke:none" />
    <path
       id="path18076"
       d="M 590.78045,605.16231 L 576.33099,605.16231 L 555.64238,650.60183 L 565.13823,650.60183 L 570.29753,639.39193 L 584.50702,639.39193 L 585.65543,650.60183 L 595.15128,650.60183 L 590.78045,605.16231 z M 582.21019,611.4186 L 582.33017,611.4186 L 584.21563,630.94166 L 573.38282,630.94166 L 582.21019,611.4186 z "
       style="fill:#003a63;fill-rule:nonzero;stroke:none" />
    <path
       id="path18078"
       d="M 600.41342,650.60183 L 618.05102,650.60183 C 627.78684,650.60183 634.79731,647.36227 636.51136,637.62646 C 638.03687,628.98764 632.65474,627.58211 625.18148,627.20502 L 625.19862,627.08504 C 632.60332,626.77651 638.3454,623.41697 639.66522,615.9437 C 641.34499,606.37929 635.19154,605.16231 630.95783,605.16231 L 608.41805,605.16231 L 600.41342,650.60183 z M 616.19984,613.25264 L 624.70154,613.25264 C 629.05523,613.25264 630.6493,614.96669 629.99796,618.63476 C 629.26092,622.79991 626.20991,624.08545 622.49041,624.08545 L 614.2801,624.08545 L 616.19984,613.25264 M 612.97743,631.43873 L 621.49626,631.43873 C 626.44987,631.43873 628.09536,633.27277 627.3926,637.19795 C 626.72412,641.05456 624.44443,642.8886 619.47368,642.8886 L 610.95484,642.8886 L 612.97743,631.43873"
       style="fill:#003a63;fill-rule:nonzero;stroke:none" />
    <path
       id="path18080"
       d="M 1020.3219,636.70087 C 1020.0134,638.48349 1016.8081,638.53491 1009.9519,638.53491 C 1004.3127,638.53491 997.8164,638.17496 993.70268,637.19795 L 991.97148,646.9509 L 982.38993,632.53572 C 986.84647,632.17577 991.44013,630.59885 994.59398,627.2393 C 996.05093,633.06708 1002.7015,634.62687 1009.472,634.62687 L 1015.5397,634.62687 C 1018.7793,634.62687 1020.6647,634.72971 1020.3219,636.70087 M 975.60229,622.73135 C 975.03665,625.9709 973.64827,627.63354 968.60895,627.63354 L 961.82131,627.63354 L 963.36396,618.87473 L 970.52869,618.87473 C 974.45387,618.87473 976.09936,619.97172 975.60229,622.73135 M 887.36289,624.5311 L 866.21148,623.86262 L 867.46274,617.00641 L 888.39132,618.66904 L 887.36289,624.5311 M 885.44315,635.41533 C 885.22032,636.71801 885.1689,637.88357 885.20318,638.9977 L 862.97192,641.84303 L 864.29174,634.23264 L 885.95736,632.57001 L 885.44315,635.41533 M 751.13002,629.29617 C 750.15301,634.86684 747.53051,638.53491 742.02841,638.53491 C 736.50916,638.53491 735.18934,634.86684 736.18349,629.29617 C 737.1605,623.70836 739.76586,620.04028 745.28511,620.04028 C 750.80435,620.04028 752.10703,623.70836 751.13002,629.29617 M 1025.3441,617.58919 C 1031.6518,617.58919 1040.6506,618.99471 1044.6957,619.35466 L 1046.7697,607.59627 C 1040.4792,606.49927 1030.8976,605.57368 1024.4528,605.57368 C 1014.2027,605.57368 1003.6099,606.96207 998.05637,613.93826 C 996.68513,609.3446 992.05719,606.85922 984.77247,606.85922 L 943.53237,606.85922 L 943.36097,606.85922 L 921.9696,606.85922 L 917.15311,634.19835 C 916.43321,638.29494 913.96497,639.0834 911.70243,639.0834 C 909.37131,639.0834 907.05734,638.29494 907.77725,634.19835 L 912.59373,606.85922 L 890.51674,606.85922 L 850.76787,600.89432 L 820.89194,606.85922 L 774.01262,606.85922 L 772.6071,614.82957 C 768.56193,607.83623 758.79184,605.57368 747.83904,605.57368 C 735.56643,605.57368 723.79089,608.43615 717.65459,617.58919 L 719.54004,606.85922 L 691.60099,606.85922 L 681.05957,629.46757 L 680.93959,629.46757 L 678.17997,606.85922 L 650.06951,606.85922 L 642.33914,650.60183 L 663.11345,650.60183 L 667.22717,627.25644 L 667.3643,627.25644 L 671.01523,650.60183 L 683.28784,650.60183 L 695.04624,627.25644 L 695.16622,627.25644 L 691.0525,650.60183 L 711.82681,650.60183 L 713.78083,639.51192 C 715.68343,646.21386 722.09398,651.90451 739.66302,651.90451 C 767.60206,651.90451 772.40141,637.5579 774.16688,627.51355 C 774.38971,626.29657 774.49255,625.1653 774.54398,624.08545 L 783.97126,624.08545 L 779.2919,650.60183 L 801.40317,650.60183 L 806.08253,624.08545 L 817.68667,624.08545 L 812.90446,650.60183 L 840.82637,656.13822 L 884.31187,648.6821 L 885.58027,641.68876 C 887.7057,650.13904 898.65849,651.90451 909.13135,651.90451 C 921.48966,651.90451 934.20793,649.69339 937.85886,638.05497 L 935.64773,650.60183 L 957.759,650.60183 L 960.26152,636.52947 L 960.36436,636.52947 L 968.23186,650.60183 L 994.16547,650.60183 C 1000.2675,651.69883 1006.301,651.90451 1013.6542,651.90451 C 1026.2182,651.90451 1040.6677,650.17332 1043.1531,636.08381 C 1044.7986,626.77651 1041.2676,621.8229 1028.3265,621.8229 L 1022.2759,621.8229 C 1018.2308,621.8229 1017.4766,620.82875 1017.648,619.85174 C 1017.9051,618.44622 1019.7048,617.58919 1025.3441,617.58919"
       style="fill:#c5003e;fill-rule:nonzero;stroke:none" />
  </g>
</svg>
