<?xml version="1.0" encoding="UTF-8" ?>
<!DOCTYPE svg PUBLIC "-//W3C//DTD SVG 1.1//EN" "http://www.w3.org/Graphics/SVG/1.1/DTD/svg11.dtd">
<svg width="294pt" height="508pt" viewBox="0 0 294 508" version="1.1" xmlns="http://www.w3.org/2000/svg">
<g id="#ffffffff">
<path fill="#ffffff" opacity="1.00" d=" M 286.76 0.00 L 294.00 0.00 L 294.00 7.30 C 293.76 3.33 290.82 0.11 286.76 0.00 Z" />
<path fill="#ffffff" opacity="1.00" d=" M 83.94 69.95 C 87.36 67.28 91.98 68.14 96.00 67.99 C 96.00 70.21 96.00 72.44 96.00 74.66 C 94.26 74.77 92.51 74.86 90.77 74.94 C 90.66 76.87 90.55 78.80 90.41 80.74 C 92.28 80.75 94.14 80.75 96.00 80.76 C 96.00 82.68 96.00 84.60 96.00 86.52 C 94.17 86.52 92.35 86.52 90.52 86.52 C 90.52 95.85 90.52 105.19 90.52 114.52 C 87.57 114.52 84.62 114.52 81.67 114.52 C 81.65 105.19 81.68 95.86 81.66 86.53 C 80.14 86.52 78.63 86.52 77.12 86.52 C 77.12 84.60 77.12 82.68 77.12 80.76 C 78.62 80.75 80.12 80.75 81.62 80.75 C 81.83 77.14 80.91 72.65 83.94 69.95 Z" />
<path fill="#ffffff" opacity="1.00" d=" M 117.62 80.76 C 120.44 79.51 123.62 80.12 126.61 80.03 C 126.63 82.54 126.64 85.05 126.65 87.57 C 123.81 87.63 120.91 87.33 118.15 88.08 C 115.31 89.10 114.48 92.40 114.34 95.10 C 114.15 101.57 114.35 108.04 114.27 114.52 C 111.32 114.51 108.37 114.52 105.43 114.52 C 105.42 103.26 105.42 92.01 105.43 80.75 C 108.08 80.73 110.73 80.79 113.38 80.78 C 113.34 82.87 113.28 84.96 113.17 87.05 C 114.26 84.75 115.09 81.90 117.62 80.76 Z" />
<path fill="#ffffff" opacity="1.00" d=" M 135.22 83.25 C 139.56 79.52 145.76 79.80 151.13 80.11 C 155.12 80.36 159.41 82.64 160.29 86.85 C 161.62 93.54 160.15 100.46 161.12 107.19 C 161.66 107.50 162.72 108.14 163.26 108.45 C 163.28 110.49 163.27 112.53 163.27 114.56 C 161.19 114.54 159.10 114.61 157.03 114.34 C 155.03 114.16 154.17 112.10 152.92 110.84 C 151.33 112.70 149.60 114.81 146.98 115.09 C 141.93 115.82 135.31 115.49 132.47 110.53 C 129.98 105.82 130.38 98.16 136.06 96.00 C 141.26 94.25 146.92 94.88 152.17 93.26 C 151.82 91.05 153.02 87.73 150.29 86.71 C 147.90 85.82 145.13 85.93 142.75 86.77 C 140.82 87.43 140.88 89.77 140.30 91.38 C 137.60 91.39 134.90 91.38 132.20 91.35 C 132.63 88.51 132.78 85.21 135.22 83.25 M 142.76 100.61 C 139.78 101.49 139.06 105.75 141.09 107.89 C 143.79 109.69 147.67 109.12 150.17 107.21 C 152.71 105.05 152.06 101.37 152.38 98.42 C 149.22 99.34 145.91 99.67 142.76 100.61 Z" />
<path fill="#ffffff" opacity="1.00" d=" M 180.39 84.99 C 181.60 82.85 183.15 80.55 185.81 80.25 C 189.88 79.76 194.52 79.49 198.07 81.93 C 200.95 83.93 201.47 87.70 201.52 90.95 C 201.55 98.81 201.50 106.66 201.52 114.52 C 198.55 114.52 195.58 114.52 192.61 114.52 C 192.57 107.32 192.65 100.12 192.60 92.93 C 192.56 91.00 192.43 88.57 190.45 87.60 C 187.73 86.26 184.62 87.00 181.88 87.87 C 181.30 89.86 180.80 91.90 180.86 94.00 C 180.88 100.84 180.89 107.68 180.88 114.52 C 177.92 114.52 174.96 114.52 172.00 114.52 C 172.00 103.26 172.00 92.01 172.00 80.75 C 174.88 80.75 177.76 80.76 180.64 80.76 C 180.57 82.17 180.48 83.58 180.39 84.99 Z" />
<path fill="#ffffff" opacity="1.00" d=" M 211.29 90.91 C 212.41 85.31 217.34 81.06 222.92 80.29 C 228.30 79.65 234.51 79.46 238.92 83.14 C 241.68 85.36 242.44 88.97 242.99 92.29 C 240.12 92.32 237.25 92.31 234.38 92.31 C 233.95 90.83 233.49 89.36 233.01 87.90 C 229.76 86.70 225.91 85.90 222.74 87.77 C 219.71 89.71 219.36 93.72 219.30 96.98 C 219.38 100.26 219.45 103.86 221.49 106.61 C 223.81 109.40 228.03 109.20 231.19 108.20 C 233.86 107.37 233.87 104.23 234.40 102.00 C 237.34 102.00 240.28 101.99 243.22 102.02 C 242.89 107.16 240.11 112.41 234.96 114.10 C 228.24 116.32 219.55 116.10 214.46 110.56 C 210.03 105.15 209.92 97.45 211.29 90.91 Z" />
<path fill="#ffffff" opacity="1.00" d=" M 251.19 88.30 C 252.99 83.52 257.85 80.53 262.81 80.11 C 268.08 79.63 274.16 79.84 278.15 83.81 C 282.53 88.10 282.62 94.72 282.64 100.45 C 274.51 100.48 266.38 100.40 258.26 100.49 C 258.77 102.99 258.84 106.20 261.42 107.56 C 265.47 109.49 271.93 109.54 273.62 104.49 C 276.45 104.46 279.29 104.49 282.13 104.51 C 281.17 107.69 280.02 111.18 276.94 112.93 C 272.14 115.68 266.26 115.75 260.93 114.91 C 256.00 114.20 251.76 110.37 250.61 105.53 C 249.23 99.91 249.21 93.78 251.19 88.30 M 261.75 87.73 C 259.37 88.98 259.22 91.90 258.58 94.18 C 263.56 94.22 268.54 94.21 273.52 94.19 C 273.13 91.79 273.08 88.75 270.62 87.46 C 267.87 86.23 264.43 86.38 261.75 87.73 Z" />
<path fill="#ffffff" opacity="1.00" d=" M 185.91 135.42 C 206.09 135.41 226.27 135.41 246.45 135.41 C 246.46 193.27 246.46 251.13 246.45 308.99 C 262.30 309.10 278.15 309.07 294.00 309.07 L 294.00 370.27 C 278.15 370.21 262.31 370.25 246.46 370.25 C 246.45 388.93 246.46 407.62 246.45 426.31 C 225.88 426.31 205.31 426.33 184.74 426.30 C 184.70 407.82 184.74 389.34 184.72 370.86 C 142.86 370.86 100.99 370.86 59.12 370.86 C 59.18 352.87 59.01 334.88 59.08 316.89 C 59.07 311.28 60.89 305.73 64.22 301.21 C 104.77 245.94 145.36 190.69 185.91 135.42 M 125.86 302.89 C 124.47 304.65 123.85 306.82 123.20 308.93 C 143.70 309.09 164.20 308.97 184.71 308.99 C 184.75 280.52 184.72 252.05 184.72 223.58 C 165.05 249.98 145.49 276.46 125.86 302.89 Z" />
<path fill="#ffffff" opacity="1.00" d=" M 286.77 508.00 C 290.83 507.85 293.79 504.63 294.00 500.64 L 294.00 508.00 L 286.77 508.00 Z" />
</g>
<g id="#71266cff">
<path fill="#71266c" opacity="1.00" d=" M 285.33 0.00 L 286.76 0.00 C 290.82 0.11 293.76 3.33 294.00 7.30 L 294.00 309.07 C 278.15 309.07 262.30 309.10 246.45 308.99 C 246.46 251.13 246.46 193.27 246.45 135.41 C 226.27 135.41 206.09 135.41 185.91 135.42 C 145.36 190.69 104.77 245.94 64.22 301.21 C 60.89 305.73 59.07 311.28 59.08 316.89 C 59.01 334.88 59.18 352.87 59.12 370.86 C 100.99 370.86 142.86 370.86 184.72 370.86 C 184.74 389.34 184.70 407.82 184.74 426.30 C 205.31 426.33 225.88 426.31 246.45 426.31 C 246.46 407.62 246.45 388.93 246.46 370.25 C 262.31 370.25 278.15 370.21 294.00 370.27 L 294.00 500.64 C 293.79 504.63 290.83 507.85 286.77 508.00 L 285.13 508.00 C 243.05 499.29 201.10 489.88 159.07 480.90 C 111.72 470.67 64.37 460.38 17.01 450.18 C 12.47 449.14 7.52 448.31 3.99 445.03 C 1.11 442.47 0.49 438.43 0.00 434.83 L 0.00 74.53 C 0.30 70.68 0.76 66.45 3.44 63.44 C 6.20 60.40 10.34 59.28 14.21 58.40 C 76.95 44.86 139.69 31.27 202.44 17.72 C 230.08 11.87 257.63 5.53 285.33 0.00 M 83.94 69.95 C 80.91 72.65 81.83 77.14 81.62 80.75 C 80.12 80.75 78.62 80.75 77.12 80.76 C 77.12 82.68 77.12 84.60 77.12 86.52 C 78.63 86.52 80.14 86.52 81.66 86.53 C 81.68 95.86 81.65 105.19 81.67 114.52 C 84.62 114.52 87.57 114.52 90.52 114.52 C 90.52 105.19 90.52 95.85 90.52 86.52 C 92.35 86.52 94.17 86.52 96.00 86.52 C 96.00 84.60 96.00 82.68 96.00 80.76 C 94.14 80.75 92.28 80.75 90.41 80.74 C 90.55 78.80 90.66 76.87 90.77 74.94 C 92.51 74.86 94.26 74.77 96.00 74.66 C 96.00 72.44 96.00 70.21 96.00 67.99 C 91.98 68.14 87.36 67.28 83.94 69.95 M 117.62 80.76 C 115.09 81.90 114.26 84.75 113.17 87.05 C 113.28 84.96 113.34 82.87 113.38 80.78 C 110.73 80.79 108.08 80.73 105.43 80.75 C 105.42 92.01 105.42 103.26 105.43 114.52 C 108.37 114.52 111.32 114.51 114.27 114.52 C 114.35 108.04 114.15 101.57 114.34 95.10 C 114.48 92.40 115.31 89.10 118.15 88.08 C 120.91 87.33 123.81 87.63 126.65 87.57 C 126.64 85.05 126.63 82.54 126.61 80.03 C 123.62 80.12 120.44 79.51 117.62 80.76 M 135.22 83.25 C 132.78 85.21 132.63 88.51 132.20 91.35 C 134.90 91.38 137.60 91.39 140.30 91.38 C 140.88 89.77 140.82 87.43 142.75 86.77 C 145.13 85.93 147.90 85.82 150.29 86.71 C 153.02 87.73 151.82 91.05 152.17 93.26 C 146.92 94.88 141.26 94.25 136.06 96.00 C 130.38 98.16 129.98 105.82 132.47 110.53 C 135.31 115.49 141.93 115.82 146.98 115.09 C 149.60 114.81 151.33 112.70 152.92 110.84 C 154.17 112.10 155.03 114.16 157.03 114.34 C 159.10 114.61 161.19 114.54 163.27 114.56 C 163.27 112.53 163.28 110.49 163.26 108.45 C 162.72 108.14 161.66 107.50 161.12 107.19 C 160.15 100.46 161.62 93.54 160.29 86.85 C 159.41 82.64 155.12 80.36 151.13 80.11 C 145.76 79.80 139.56 79.52 135.22 83.25 M 180.39 84.99 C 180.48 83.58 180.57 82.17 180.64 80.76 C 177.76 80.76 174.88 80.75 172.00 80.75 C 172.00 92.01 172.00 103.26 172.00 114.52 C 174.96 114.52 177.92 114.52 180.88 114.52 C 180.89 107.68 180.88 100.84 180.86 94.00 C 180.80 91.90 181.30 89.86 181.88 87.87 C 184.62 87.00 187.73 86.26 190.45 87.60 C 192.43 88.57 192.56 91.00 192.60 92.93 C 192.65 100.12 192.57 107.32 192.61 114.52 C 195.58 114.52 198.55 114.52 201.52 114.52 C 201.50 106.66 201.55 98.81 201.52 90.95 C 201.47 87.70 200.95 83.93 198.07 81.93 C 194.52 79.49 189.88 79.76 185.81 80.25 C 183.15 80.55 181.60 82.85 180.39 84.99 M 211.29 90.91 C 209.92 97.45 210.03 105.15 214.46 110.56 C 219.55 116.10 228.24 116.32 234.96 114.10 C 240.11 112.41 242.89 107.16 243.22 102.02 C 240.28 101.99 237.34 102.00 234.40 102.00 C 233.87 104.23 233.86 107.37 231.19 108.20 C 228.03 109.20 223.81 109.40 221.49 106.61 C 219.45 103.86 219.38 100.26 219.30 96.98 C 219.36 93.72 219.71 89.71 222.74 87.77 C 225.91 85.90 229.76 86.70 233.01 87.90 C 233.49 89.36 233.95 90.83 234.38 92.31 C 237.25 92.31 240.12 92.32 242.99 92.29 C 242.44 88.97 241.68 85.36 238.92 83.14 C 234.51 79.46 228.30 79.65 222.92 80.29 C 217.34 81.06 212.41 85.31 211.29 90.91 M 251.19 88.30 C 249.21 93.78 249.23 99.91 250.61 105.53 C 251.76 110.37 256.00 114.20 260.93 114.91 C 266.26 115.75 272.14 115.68 276.94 112.93 C 280.02 111.18 281.17 107.69 282.13 104.51 C 279.29 104.49 276.45 104.46 273.62 104.49 C 271.93 109.54 265.47 109.49 261.42 107.56 C 258.84 106.20 258.77 102.99 258.26 100.49 C 266.38 100.40 274.51 100.48 282.64 100.45 C 282.62 94.72 282.53 88.10 278.15 83.81 C 274.16 79.84 268.08 79.63 262.81 80.11 C 257.85 80.53 252.99 83.52 251.19 88.30 Z" />
<path fill="#71266c" opacity="1.00" d=" M 261.75 87.73 C 264.43 86.38 267.87 86.23 270.62 87.46 C 273.08 88.75 273.13 91.79 273.52 94.19 C 268.54 94.21 263.56 94.22 258.58 94.18 C 259.22 91.90 259.37 88.98 261.75 87.73 Z" />
<path fill="#71266c" opacity="1.00" d=" M 142.76 100.61 C 145.91 99.67 149.22 99.34 152.38 98.42 C 152.06 101.37 152.71 105.05 150.17 107.21 C 147.67 109.12 143.79 109.69 141.09 107.89 C 139.06 105.75 139.78 101.49 142.76 100.61 Z" />
<path fill="#71266c" opacity="1.00" d=" M 125.86 302.89 C 145.49 276.46 165.05 249.98 184.72 223.58 C 184.72 252.05 184.75 280.52 184.71 308.99 C 164.20 308.97 143.70 309.09 123.20 308.93 C 123.85 306.82 124.47 304.65 125.86 302.89 Z" />
</g>
</svg>
