<?xml version="1.0" encoding="UTF-8" standalone="no"?>
<!-- Created with Inkscape (http://www.inkscape.org/) -->
<svg
   xmlns:svg="http://www.w3.org/2000/svg"
   xmlns="http://www.w3.org/2000/svg"
   xmlns:xlink="http://www.w3.org/1999/xlink"
   version="1.0"
   width="751.42859"
   height="751.42859"
   id="svg2">
  <defs
     id="defs4">
    <linearGradient
       id="linearGradient3334">
      <stop
         id="stop3336"
         style="stop-color:#e6fdff;stop-opacity:1"
         offset="0" />
      <stop
         id="stop3342"
         style="stop-color:#94fdff;stop-opacity:1"
         offset="0.55555558" />
      <stop
         id="stop3338"
         style="stop-color:#94fdff;stop-opacity:0"
         offset="1" />
    </linearGradient>
    <linearGradient
       id="linearGradient3211">
      <stop
         id="stop3229"
         style="stop-color:#ffffff;stop-opacity:1"
         offset="0" />
      <stop
         id="stop3233"
         style="stop-color:#f6f6f9;stop-opacity:1"
         offset="0.35824272" />
      <stop
         id="stop3235"
         style="stop-color:#f3defc;stop-opacity:1"
         offset="0.38994017" />
      <stop
         id="stop3306"
         style="stop-color:#67a1d6;stop-opacity:1"
         offset="0.53108156" />
      <stop
         id="stop3273"
         style="stop-color:#053978;stop-opacity:1"
         offset="0.6178605" />
      <stop
         id="stop3231"
         style="stop-color:#0a2d7d;stop-opacity:1"
         offset="1" />
    </linearGradient>
    <radialGradient
       cx="599.31964"
       cy="567.35248"
       r="327.88159"
       fx="599.31964"
       fy="567.35248"
       id="radialGradient3227"
       xlink:href="#linearGradient3211"
       gradientUnits="userSpaceOnUse"
       gradientTransform="matrix(1.6803341,-0.2199102,0.213256,1.6294893,-530.9057,-235.17931)" />
    <radialGradient
       cx="-747.57416"
       cy="665.47375"
       r="55.707199"
       fx="-747.57416"
       fy="665.47375"
       id="radialGradient3340"
       xlink:href="#linearGradient3334"
       gradientUnits="userSpaceOnUse"
       gradientTransform="matrix(1.1253766,-0.2385669,0.10917,0.3933514,18.507028,232.09094)" />
    <radialGradient
       cx="-747.57416"
       cy="665.47375"
       r="55.707199"
       fx="-747.57416"
       fy="665.47375"
       id="radialGradient3346"
       xlink:href="#linearGradient3334"
       gradientUnits="userSpaceOnUse"
       gradientTransform="matrix(1.5384972,-0.3721783,0.1714629,0.6813178,513.76535,608.65364)" />
    <radialGradient
       cx="-747.57416"
       cy="665.47375"
       r="55.707199"
       fx="-747.57416"
       fy="665.47375"
       id="radialGradient3351"
       xlink:href="#linearGradient3334"
       gradientUnits="userSpaceOnUse"
       gradientTransform="matrix(1.5384972,-0.3721783,0.1714629,0.6813178,513.76535,608.65364)" />
  </defs>
  <g
     transform="translate(1051.1428,-621.50505)"
     id="layer1">
    <path
       d="M 922.85718,583.79077 A 325.71429,325.71429 0 1 1 271.42859,583.79077 A 325.71429,325.71429 0 1 1 922.85718,583.79077 z"
       transform="matrix(1.1535088,0,0,1.1535088,-1364.2381,323.81156)"
       id="path2383"
       style="opacity:1;fill:url(#radialGradient3227);fill-opacity:1;fill-rule:nonzero;stroke:none;stroke-width:4.33460093;stroke-linecap:round;stroke-linejoin:round;stroke-miterlimit:4;stroke-dasharray:none;stroke-opacity:1" />
    <path
       d="M -861.1875,846.28125 C -936.01977,846.28125 -981.91673,865.57385 -992.84375,884.5 C -1003.8705,903.59886 -1011.1823,922.41727 -1008.8438,945.21875 L -940.71875,945.21875 C -931.98093,922.5646 -931.38841,908.78125 -869.28125,908.78125 C -806.81696,908.78123 -791.94461,920.53568 -791.78125,938.375 L -791.4375,977.375 C -806.45517,956.66517 -962.53245,931.53578 -999.57265,977.375 C -1036.9148,1023.588 -1015.5523,1080.8057 -998.5625,1100.2188 C -981.75044,1119.4287 -937.79662,1132.1562 -888.5625,1132.1562 C -842.4739,1132.1562 -787.23732,1111.429 -783.53125,1107.875 L -782.84375,1123.7812 C -773.34246,1123.7813 -719.35733,1123.7812 -710.71875,1123.7812 C -702.16944,1123.7813 -697.58317,1119.9025 -698.5625,1102.5 C -699.56283,1084.7247 -673.83085,933.47549 -722.15625,884.5 C -742.71978,863.65984 -794.4574,846.28125 -861.1875,846.28125 z M -873.03125,1012.9578 C -816.10619,1012.9578 -784.28125,1025.9127 -784.28125,1043.0625 C -784.28127,1060.2121 -797.89731,1074.9273 -869.09375,1074.9273 C -914.92949,1074.9273 -946.32852,1065.009 -946.32852,1042.7188 C -946.32855,1025.569 -934.59782,1012.9578 -873.03125,1012.9578 z"
       id="path2411"
       style="opacity:1;fill:#020c2b;fill-opacity:1;fill-rule:evenodd;stroke:none;stroke-width:1px;stroke-linecap:butt;stroke-linejoin:miter;stroke-opacity:1" />
    <path
       d="M -561.64482,946.80124 C -581.77974,946.80124 -638.94318,947.20423 -648.51794,940.10898 C -659.92604,856.47043 -605.80003,853.64591 -574.27172,849.80629 C -542.71212,845.96286 -454.24139,846.83516 -425.27422,850.31137 C -396.52478,853.76145 -357.97205,861.0653 -342.94679,876.09056 C -327.79749,891.23986 -311.80244,980.74179 -331.83511,1007.9155 C -351.89838,1035.1307 -378.98905,1031.6947 -405.57625,1031.6947 L -540.93669,1035.6947 C -560.27427,1036.5786 -563.81011,1052.1449 -563.64482,1067.4942 L -324.76404,1065.4942 L -324.76404,1128.6287 L -453.55849,1128.6287 C -477.87604,1128.6287 -565.76934,1118.0556 -653.5687,1119.5373 C -653.5687,1023.8284 -651.74728,982.66225 -556.84659,978.11597 C -461.95831,973.57028 -418.66202,977.39778 -405.11788,969.2985 C -390.87682,960.78246 -392.44247,926.02657 -402.29325,918.0119 C -412.01923,910.09876 -426.82168,908.92052 -529.82501,908.92052 C -563.74784,911.18569 -554.12294,933.43988 -561.64482,946.80124 z"
       id="path3209"
       style="opacity:1;fill:#020c2b;fill-opacity:1;fill-rule:evenodd;stroke:none;stroke-width:1px;stroke-linecap:butt;stroke-linejoin:miter;stroke-opacity:1" />
    <path
       d="M -874.79211,972.56012 A 9.0913725,11.111678 0 1 1 -892.97486,972.56012 A 9.0913725,11.111678 0 1 1 -874.79211,972.56012 z"
       id="path3269"
       style="opacity:1;fill:none;fill-opacity:0;fill-rule:nonzero;stroke:none;stroke-width:1;stroke-linecap:round;stroke-linejoin:round;stroke-miterlimit:4;stroke-dasharray:none;stroke-opacity:1" />
    <g
       transform="translate(0,920)"
       id="g3301">
      <path
         d="M -610.13216,270.50412 C -610.13216,307.306 -652.0477,337.17419 -696.09843,337.17419 C -740.14916,337.17419 -769.73625,307.306 -769.73625,270.50412 C -769.73625,233.70224 -733.98493,203.83405 -689.9342,203.83405 C -645.88347,203.83405 -610.13216,233.70224 -610.13216,270.50412 z"
         transform="matrix(1.3797468,0,0,1.5378788,335.74148,-108.62786)"
         id="path3275"
         style="fill:none;fill-opacity:1;fill-rule:nonzero;stroke:#000000;stroke-width:0.68649799;stroke-linecap:round;stroke-linejoin:round;stroke-miterlimit:4;stroke-opacity:1" />
      <path
         d="M -523.375,252.40625 C -523.90293,251.6352 -524.35699,250.81936 -524.90625,250.0625 C -526.88559,247.33503 -529.0055,244.68847 -531.25,242.15625 C -533.4945,239.62403 -535.85259,237.19475 -538.34375,234.875 C -540.83491,232.55525 -543.43692,230.37131 -546.15625,228.28125 C -548.87558,226.19119 -551.72724,224.21815 -554.65625,222.375 C -557.58526,220.53185 -560.59856,218.79776 -563.71875,217.21875 C -566.83894,215.63974 -570.05087,214.2039 -573.34375,212.90625 C -576.63663,211.6086 -580.02168,210.46782 -583.46875,209.46875 C -586.91582,208.46968 -590.41723,207.62077 -594,206.9375 C -597.58277,206.25423 -601.23753,205.72525 -604.9375,205.375 C -608.63747,205.02475 -612.38882,204.84375 -616.1875,204.84375 C -619.98618,204.84375 -623.73753,205.02475 -627.4375,205.375 C -631.13747,205.72525 -634.79223,206.25423 -638.375,206.9375 C -638.60754,206.98185 -638.83049,207.04804 -639.0625,207.09375 L -648.53125,220.25 C -618.63291,228.26123 -562.46891,209.59272 -523.375,252.40625 z"
         id="path3290"
         style="opacity:1;fill:#020c2b;fill-opacity:1;fill-rule:nonzero;stroke:none;stroke-width:2;stroke-linecap:round;stroke-linejoin:round;stroke-miterlimit:4;stroke-opacity:1" />
      <path
         d="M -648.0625,209.25 C -648.34972,209.33083 -648.65127,209.38579 -648.9375,209.46875 C -652.38457,210.46782 -655.73837,211.6086 -659.03125,212.90625 C -662.32413,214.2039 -665.53606,215.63974 -668.65625,217.21875 C -671.77644,218.79776 -674.82099,220.53185 -677.75,222.375 C -680.67901,224.21815 -683.49942,226.19119 -686.21875,228.28125 C -688.93808,230.37131 -691.54009,232.55525 -694.03125,234.875 C -696.52241,237.19475 -698.91175,239.62403 -701.15625,242.15625 C -703.40075,244.68847 -705.52066,247.33503 -707.5,250.0625 C -709.39077,252.66793 -711.11769,255.35677 -712.75,258.125 C -696.08746,241.5089 -673.30992,222.95082 -648.0625,209.25 z"
         id="path3299"
         style="opacity:1;fill:#020c2b;fill-opacity:1;fill-rule:nonzero;stroke:none;stroke-width:2;stroke-linecap:round;stroke-linejoin:round;stroke-miterlimit:4;stroke-opacity:1" />
    </g>
    <g
       transform="translate(0,920)"
       id="g3326">
      <path
         d="M -615.00002,-107.63782 A 60.17857,57.857143 0 1 1 -735.35716,-107.63782 A 60.17857,57.857143 0 1 1 -615.00002,-107.63782 z"
         transform="matrix(1.0415431,0,0,1.0061728,16.263249,-8.9784262)"
         id="path3308"
         style="opacity:1;fill:none;fill-opacity:1;fill-rule:nonzero;stroke:#000000;stroke-width:0.97684377;stroke-linecap:round;stroke-linejoin:round;stroke-miterlimit:4;stroke-dasharray:none;stroke-opacity:1" />
      <path
         d="M -748.34375,-105.40625 C -747.93221,-103.56562 -747.40654,-101.74138 -746.8125,-99.96875 C -746.20175,-98.146256 -745.51203,-96.365971 -744.71875,-94.625 C -743.92547,-92.884029 -743.02777,-91.18092 -742.0625,-89.53125 C -741.09723,-87.88158 -740.06425,-86.298591 -738.9375,-84.75 C -737.81075,-83.201409 -736.59019,-81.687734 -735.3125,-80.25 C -734.03481,-78.812266 -732.69935,-77.442098 -731.28125,-76.125 C -729.86315,-74.807902 -728.36049,-73.561685 -726.8125,-72.375 C -725.26451,-71.188315 -723.66735,-70.046493 -722,-69 C -720.33265,-67.953507 -718.61993,-66.990273 -716.84375,-66.09375 C -715.06757,-65.197227 -713.21823,-64.393025 -711.34375,-63.65625 C -709.46927,-62.919475 -707.55601,-62.254748 -705.59375,-61.6875 C -703.63149,-61.120252 -701.63325,-60.637944 -699.59375,-60.25 C -697.55425,-59.862056 -695.48122,-59.573861 -693.375,-59.375 C -693.26175,-59.364308 -693.14468,-59.353881 -693.03125,-59.34375 C -719.38687,-68.592771 -735.63439,-85.106462 -748.34375,-105.40625 z"
         id="rect3310"
         style="opacity:1;fill:#020c2b;fill-opacity:1;fill-rule:nonzero;stroke:none;stroke-width:1;stroke-linecap:round;stroke-linejoin:round;stroke-miterlimit:4;stroke-opacity:1" />
      <path
         d="M -670.03125,-61.28125 C -669.47281,-61.426918 -668.89578,-61.52792 -668.34375,-61.6875 C -666.38149,-62.254748 -664.43698,-62.919475 -662.5625,-63.65625 C -660.68802,-64.393025 -658.86993,-65.197227 -657.09375,-66.09375 C -655.31757,-66.990273 -653.60485,-67.953507 -651.9375,-69 C -650.27015,-70.046493 -648.64174,-71.188315 -647.09375,-72.375 C -645.54576,-73.561685 -644.07435,-74.807902 -642.65625,-76.125 C -641.23815,-77.442098 -639.87144,-78.812266 -638.59375,-80.25 C -637.31606,-81.687734 -636.12675,-83.201409 -635,-84.75 C -633.87325,-86.298591 -632.80902,-87.88158 -631.84375,-89.53125 C -630.87848,-91.18092 -630.01203,-92.884029 -629.21875,-94.625 C -628.71364,-95.733536 -628.30688,-96.888943 -627.875,-98.03125 C -638.8584,-85.061082 -651.85958,-72.560061 -670.03125,-61.28125 z"
         id="rect3318"
         style="opacity:1;fill:#020c2b;fill-opacity:1;fill-rule:nonzero;stroke:none;stroke-width:1;stroke-linecap:round;stroke-linejoin:round;stroke-miterlimit:4;stroke-opacity:1" />
    </g>
    <path
       d="M -690.21142,649.83236 C -684.25751,660.21139 -706.2759,678.65678 -739.35974,691.00513 C -772.44334,703.35343 -804.12593,704.95168 -810.07973,694.57265 C -816.03367,684.19361 -794.01526,665.74822 -760.93153,653.39991 C -727.84782,641.05157 -696.16523,639.45333 -690.21142,649.83236 z"
       id="path3331"
       style="fill:url(#radialGradient3340);fill-opacity:1;fill-rule:nonzero;stroke:none;stroke-width:1;stroke-linecap:round;stroke-linejoin:round;stroke-miterlimit:4;stroke-opacity:1" />
    <path
       d="M -472.6875,1291.2812 C -490.77962,1291.3596 -514.27976,1296.8368 -538.15625,1307.5312 C -575.32125,1324.1778 -601.79528,1348.2476 -604.90625,1366.3125 C -546.81946,1355.2655 -493.4596,1330.8292 -448.15625,1296.3438 C -454.0232,1292.9221 -462.49285,1291.2371 -472.6875,1291.2812 z"
       id="path3344"
       style="fill:url(#radialGradient3351);fill-opacity:1;fill-rule:nonzero;stroke:none;stroke-width:1;stroke-linecap:round;stroke-linejoin:round;stroke-miterlimit:4;stroke-opacity:1" />
  </g>
</svg>
