<?xml version="1.0" encoding="utf-8"?>
<!-- Generator: Adobe Illustrator 15.0.0, SVG Export Plug-In . SVG Version: 6.00 Build 0)  -->
<!DOCTYPE svg PUBLIC "-//W3C//DTD SVG 1.1//EN" "http://www.w3.org/Graphics/SVG/1.1/DTD/svg11.dtd">
<svg version="1.1" xmlns="http://www.w3.org/2000/svg" xmlns:xlink="http://www.w3.org/1999/xlink" x="0px" y="0px" width="720px"
	 height="576px" viewBox="0 0 720 576" enable-background="new 0 0 720 576" xml:space="preserve">
<g id="Noir">
	<rect width="720" height="576"/>
</g>
<g id="Calque_6" display="none">
	<g id="Calque_5" display="inline">
		<rect fill="#8C8C8C" width="720" height="576"/>
	</g>
	<g display="inline">
		<rect x="80" y="473" fill="#4D4D4D" width="560" height="2"/>
		<rect x="80" y="451" fill="#4D4D4D" width="560" height="2"/>
	</g>
	<g display="inline">
		<rect x="80" y="385" fill="#4D4D4D" width="560" height="2"/>
		<rect x="80" y="363" fill="#4D4D4D" width="560" height="2"/>
		<rect x="80" y="429" fill="#4D4D4D" width="560" height="2"/>
		<rect x="80" y="407" fill="#4D4D4D" width="560" height="2"/>
		<rect x="80" y="297" fill="#4D4D4D" width="560" height="2"/>
		<rect x="80" y="275" fill="#4D4D4D" width="560" height="2"/>
		<rect x="80" y="341" fill="#4D4D4D" width="560" height="2"/>
		<rect x="80" y="319" fill="#4D4D4D" width="560" height="2"/>
		<rect x="80" y="209" fill="#4D4D4D" width="560" height="2"/>
		<rect x="80" y="187" fill="#4D4D4D" width="560" height="2"/>
		<rect x="80" y="253" fill="#4D4D4D" width="560" height="2"/>
		<rect x="80" y="231" fill="#4D4D4D" width="560" height="2"/>
		<rect x="80" y="121" fill="#4D4D4D" width="560" height="2"/>
		<rect x="80" y="99" fill="#4D4D4D" width="560" height="2"/>
		<rect x="80" y="165" fill="#4D4D4D" width="560" height="2"/>
		<rect x="80" y="143" fill="#4D4D4D" width="560" height="2"/>
	</g>
</g>
<g id="Calque_1">
	<g>
		<linearGradient id="SVGID_1_" gradientUnits="userSpaceOnUse" x1="350.9517" y1="460.916" x2="393.9518" y2="293.916">
			<stop  offset="0" style="stop-color:#2D303B"/>
			<stop  offset="1" style="stop-color:#555A6E"/>
		</linearGradient>
		<path fill="url(#SVGID_1_)" d="M401.784,364.732c0,0,14.125-26.435,31.834-60.128c-23.351,8.085-44.967,15.081-65.048,21.026
			l0.031-0.008c0,0-50.37,23.796-87.007,28.259L214.19,469.39H483.35V364.732h-67.991H401.784z"/>
		<path fill="#555A6E" d="M339.191,202.289c15.217,8.96,14.006,28.164-0.369,53.524l-44.544,76.334
			c51.327-12.864,100.87-27.212,146.763-41.691c3.771-7.204,7.632-14.6,11.492-22.027c25.376-48.811,26.482-69.68,22.35-98.06
			c-6.793-46.658-58.529-69.966-100.87-69.966c-98.015,0-136.984,62.266-136.984,62.266s14.353,79.794,14.369,79.781
			C298.486,207.744,322.065,192.204,339.191,202.289z"/>
	</g>
	<g id="Calque_9">
		<radialGradient id="SVGID_2_" cx="259" cy="173" r="118.8024" gradientUnits="userSpaceOnUse">
			<stop  offset="0.2" style="stop-color:#8C64A0"/>
			<stop  offset="0.85" style="stop-color:#8C64A0;stop-opacity:0"/>
		</radialGradient>
		<path fill="url(#SVGID_2_)" d="M415.358,364.732h-13.574c0,0,14.125-26.435,31.834-60.128
			c-23.186,8.028-44.657,14.979-64.618,20.897v-13.396c24.782-7.067,48.878-14.342,72.041-21.649
			c3.771-7.204,7.632-14.6,11.492-22.027c25.376-48.811,26.482-69.68,22.35-98.06c-6.793-46.658-58.529-69.966-100.87-69.966
			c-98.015,0-136.984,62.266-136.984,62.266s14.353,79.794,14.369,79.781c47.088-34.706,70.667-50.246,87.794-40.161
			c15.217,8.96,14.006,28.164-0.369,53.524l-44.544,76.334c25.283-6.337,50.129-13.034,74.324-19.93v13.403
			c-0.011,0.004-0.021,0.007-0.031,0.01l0.031-0.008c0,0-50.37,23.796-87.007,28.259L214.19,469.39H483.35V364.732H415.358z"/>
		<radialGradient id="SVGID_3_" cx="367.7373" cy="165.2109" r="50.9901" gradientUnits="userSpaceOnUse">
			<stop  offset="0" style="stop-color:#7896D7;stop-opacity:0.6"/>
			<stop  offset="0.8" style="stop-color:#7896D7;stop-opacity:0"/>
		</radialGradient>
		<path fill="url(#SVGID_3_)" d="M415.358,364.732h-13.574c0,0,14.125-26.435,31.834-60.128
			c-23.186,8.028-44.657,14.979-64.618,20.897v-13.396c24.782-7.067,48.878-14.342,72.041-21.649
			c3.771-7.204,7.632-14.6,11.492-22.027c25.376-48.811,26.482-69.68,22.35-98.06c-6.793-46.658-58.529-69.966-100.87-69.966
			c-98.015,0-136.984,62.266-136.984,62.266s14.353,79.794,14.369,79.781c47.088-34.706,70.667-50.246,87.794-40.161
			c15.217,8.96,14.006,28.164-0.369,53.524l-44.544,76.334c25.283-6.337,50.129-13.034,74.324-19.93v13.403
			c-0.011,0.004-0.021,0.007-0.031,0.01l0.031-0.008c0,0-50.37,23.796-87.007,28.259L214.19,469.39H483.35V364.732H415.358z"/>
		<radialGradient id="SVGID_4_" cx="423" cy="256" r="52.1729" gradientUnits="userSpaceOnUse">
			<stop  offset="0" style="stop-color:#AA91BE;stop-opacity:0.85"/>
			<stop  offset="1" style="stop-color:#AA91BE;stop-opacity:0"/>
		</radialGradient>
		<path fill="url(#SVGID_4_)" d="M415.358,364.732h-13.574c0,0,14.125-26.435,31.834-60.128
			c-23.186,8.028-44.657,14.979-64.618,20.897v-13.396c24.782-7.067,48.878-14.342,72.041-21.649
			c3.771-7.204,7.632-14.6,11.492-22.027c25.376-48.811,26.482-69.68,22.35-98.06c-6.793-46.658-58.529-69.966-100.87-69.966
			c-98.015,0-136.984,62.266-136.984,62.266s14.353,79.794,14.369,79.781c47.088-34.706,70.667-50.246,87.794-40.161
			c15.217,8.96,14.006,28.164-0.369,53.524l-44.544,76.334c25.283-6.337,50.129-13.034,74.324-19.93v13.403
			c-0.011,0.004-0.021,0.007-0.031,0.01l0.031-0.008c0,0-50.37,23.796-87.007,28.259L214.19,469.39H483.35V364.732H415.358z"/>
		<radialGradient id="SVGID_5_" cx="339" cy="244" r="109" gradientUnits="userSpaceOnUse">
			<stop  offset="0" style="stop-color:#8C64A0"/>
			<stop  offset="0.5" style="stop-color:#8C64A0;stop-opacity:0"/>
		</radialGradient>
		<path fill="url(#SVGID_5_)" d="M415.358,364.732h-13.574c0,0,14.125-26.435,31.834-60.128
			c-23.186,8.028-44.657,14.979-64.618,20.897v-13.396c24.782-7.067,48.878-14.342,72.041-21.649
			c3.771-7.204,7.632-14.6,11.492-22.027c25.376-48.811,26.482-69.68,22.35-98.06c-6.793-46.658-58.529-69.966-100.87-69.966
			c-98.015,0-136.984,62.266-136.984,62.266s14.353,79.794,14.369,79.781c47.088-34.706,70.667-50.246,87.794-40.161
			c15.217,8.96,14.006,28.164-0.369,53.524l-44.544,76.334c25.283-6.337,50.129-13.034,74.324-19.93v13.403
			c-0.011,0.004-0.021,0.007-0.031,0.01l0.031-0.008c0,0-50.37,23.796-87.007,28.259L214.19,469.39H483.35V364.732H415.358z"/>
		<radialGradient id="SVGID_6_" cx="419" cy="332" r="76.0592" gradientUnits="userSpaceOnUse">
			<stop  offset="0" style="stop-color:#AA91BE"/>
			<stop  offset="1" style="stop-color:#AA91BE;stop-opacity:0"/>
		</radialGradient>
		<path fill="url(#SVGID_6_)" d="M415.358,364.732h-13.574c0,0,14.125-26.435,31.834-60.128
			c-23.186,8.028-45.056,15.099-65.017,21.017v-13.403c24.782-7.067,49.276-14.454,72.439-21.762
			c3.771-7.204,7.632-14.6,11.492-22.027c25.376-48.811,26.482-69.68,22.35-98.06c-6.793-46.658-58.529-69.966-100.87-69.966
			c-98.015,0-136.984,62.266-136.984,62.266s14.353,79.794,14.369,79.781c47.088-34.706,70.667-50.246,87.794-40.161
			c15.217,8.96,14.006,28.164-0.369,53.524l-44.544,76.334c25.283-6.337,50.129-13.034,74.324-19.93v13.403
			c-0.011,0.004-0.021,0.007-0.031,0.01l0.031-0.008c0,0-50.37,23.796-87.007,28.259L214.19,469.39H483.35V364.732H415.358z"/>
		<radialGradient id="SVGID_7_" cx="369" cy="364" r="89.4539" gradientUnits="userSpaceOnUse">
			<stop  offset="0" style="stop-color:#7896D7"/>
			<stop  offset="0.8" style="stop-color:#7896D7;stop-opacity:0.1"/>
			<stop  offset="1" style="stop-color:#7896D7;stop-opacity:0"/>
		</radialGradient>
		<path fill="url(#SVGID_7_)" d="M415.358,364.732h-13.574c0,0,14.125-26.435,31.834-60.128
			c-23.186,8.028-45.056,15.099-65.017,21.017v-13.403c24.782-7.067,49.276-14.454,72.439-21.762
			c3.771-7.204,7.632-14.6,11.492-22.027c25.376-48.811,26.482-69.68,22.35-98.06c-6.793-46.658-58.529-69.966-100.87-69.966
			c-98.015,0-136.984,62.266-136.984,62.266s14.353,79.794,14.369,79.781c47.088-34.706,70.667-50.246,87.794-40.161
			c15.217,8.96,14.006,28.164-0.369,53.524l-44.544,76.334c25.283-6.337,50.129-13.034,74.324-19.93v13.403
			c-0.011,0.004-0.021,0.007-0.031,0.01l0.031-0.008c0,0-50.37,23.796-87.007,28.259L214.19,469.39H483.35V364.732H415.358z"/>
		<radialGradient id="SVGID_8_" cx="480" cy="98" r="78.4919" gradientUnits="userSpaceOnUse">
			<stop  offset="0" style="stop-color:#FFFFFF;stop-opacity:0.5"/>
			<stop  offset="1" style="stop-color:#FFFFFF;stop-opacity:0"/>
		</radialGradient>
		<path fill="url(#SVGID_8_)" d="M415.358,364.732h-13.574c0,0,14.125-26.435,31.834-60.128
			c-23.186,8.028-44.657,14.979-64.618,20.897v-13.396c24.782-7.067,48.878-14.342,72.041-21.649
			c3.771-7.204,7.632-14.6,11.492-22.027c25.376-48.811,26.482-69.68,22.35-98.06c-6.793-46.658-58.529-69.966-100.87-69.966
			c-98.015,0-136.984,62.266-136.984,62.266s14.353,79.794,14.369,79.781c47.088-34.706,70.667-50.246,87.794-40.161
			c15.217,8.96,14.006,28.164-0.369,53.524l-44.544,76.334c25.283-6.337,50.129-13.034,74.324-19.93v13.403
			c-0.011,0.004-0.021,0.007-0.031,0.01l0.031-0.008c0,0-50.37,23.796-87.007,28.259L214.19,469.39H483.35V364.732H415.358z"/>
	</g>
	<linearGradient id="SVGID_9_" gradientUnits="userSpaceOnUse" x1="106.2334" y1="271.2124" x2="709" y2="271.2124">
		<stop  offset="0.05" style="stop-color:#B4CD00"/>
		<stop  offset="0.15" style="stop-color:#E69100"/>
		<stop  offset="0.5" style="stop-color:#E6506E"/>
	</linearGradient>
	<path fill="url(#SVGID_9_)" d="M228.357,221.287c4.783-3.627,8.008-12.799,7.198-16.663c-4.048-19.31-33.509,4.614-36.484,6.663
		c-16.961,11.677-100.206,95.528-92.311,129.739c2.563,11.106,11.876,10.318,19.079,9.868c10.526-0.658,66.513-60.52,65.79-59.21
		c-13.816,25,15.789,66.447,83.552,55.921c90.187-14.01,220.541-61.524,433.819-151.844v-4.447c0,0-200.139,88.951-431.9,145.066
		c0,0-30.917,4.228-48.844,1.107c-11.593-2.017-31.776-11.675-24.046-41.471c7.729-29.793,17.63-41.924,18.464-49.018l-8.588-4.529
		c0,0,0,0-21.47,23.665c-13.552,14.937-45.517,54.644-62.263,68.737c-16.747,14.093-10.307-6.039-10.307-6.039
		s30.793-58.202,91.463-111.326c0,0,15.646-11.35,12.357-2.797C221.012,222.13,228.357,221.287,228.357,221.287z"/>
</g>
<g id="Calque_2" display="none">
	<g display="inline">
		<path fill="#4D4D4D" d="M480.814,361.062H421.6h-11.823c0,0,22.102-39.271,44.199-79.635c22.1-40.363,23.064-57.621,19.465-81.088
			c-5.917-38.583-50.975-57.856-87.851-57.856c-85.363,0-119.302,51.489-119.302,51.489s12.5,65.984,12.514,65.973
			c41.01-28.699,61.546-41.549,76.462-33.209c13.252,7.409,12.197,23.289-0.322,44.261L246.398,447.605h234.417V361.062z"/>
	</g>
	<path display="inline" fill="#E43222" stroke="#E43222" stroke-width="2" d="M231.649,233.128
		c4.783-3.627,8.008-12.799,7.198-16.663c-4.048-19.31-33.509,4.614-36.484,6.663c-16.961,11.677-100.206,95.528-92.311,129.739
		c2.563,11.106,11.876,10.318,19.079,9.868c10.526-0.658,66.513-60.52,65.79-59.21c-13.816,25,15.789,66.447,83.552,55.921
		C368.66,345.437,496.237,295.043,709,198v-3.684c0,0-196.846,97.791-428.608,153.906c0,0-30.917,4.228-48.844,1.107
		c-11.593-2.017-31.776-11.675-24.046-41.471c7.729-29.793,17.63-41.924,18.464-49.018l-8.588-4.529c0,0,0,0-21.47,23.665
		c-13.552,14.937-45.517,54.644-62.263,68.737c-16.747,14.093-10.307-6.039-10.307-6.039s30.793-58.202,91.463-111.326
		c0,0,15.646-11.35,12.357-2.797C224.304,233.971,231.649,233.128,231.649,233.128z"/>
</g>
</svg>
