<?xml version="1.0" encoding="utf-8"?>
<!-- Generator: Adobe Illustrator 15.0.0, SVG Export Plug-In . SVG Version: 6.00 Build 0)  -->
<!DOCTYPE svg PUBLIC "-//W3C//DTD SVG 1.1//EN" "http://www.w3.org/Graphics/SVG/1.1/DTD/svg11.dtd">
<svg version="1.1" xmlns="http://www.w3.org/2000/svg" xmlns:xlink="http://www.w3.org/1999/xlink" x="0px" y="0px" width="720px"
	 height="576px" viewBox="0 0 720 576" enable-background="new 0 0 720 576" xml:space="preserve">
<g id="Calque_6">
	<g id="Calque_5">
		<rect fill="#8C8C8C" width="720" height="576"/>
	</g>
	<g>
		<rect x="80" y="473" fill="#4D4D4D" width="560" height="2"/>
		<rect x="80" y="451" fill="#4D4D4D" width="560" height="2"/>
		<rect x="80" y="385" fill="#4D4D4D" width="560" height="2"/>
		<rect x="80" y="363" fill="#4D4D4D" width="560" height="2"/>
		<rect x="80" y="429" fill="#4D4D4D" width="560" height="2"/>
		<rect x="80" y="407" fill="#4D4D4D" width="560" height="2"/>
		<rect x="80" y="297" fill="#4D4D4D" width="560" height="2"/>
		<rect x="80" y="275" fill="#4D4D4D" width="560" height="2"/>
		<rect x="80" y="341" fill="#4D4D4D" width="560" height="2"/>
		<rect x="80" y="319" fill="#4D4D4D" width="560" height="2"/>
		<rect x="80" y="209" fill="#4D4D4D" width="560" height="2"/>
		<rect x="80" y="187" fill="#4D4D4D" width="560" height="2"/>
		<rect x="80" y="253" fill="#4D4D4D" width="560" height="2"/>
		<rect x="80" y="231" fill="#4D4D4D" width="560" height="2"/>
		<rect x="80" y="121" fill="#4D4D4D" width="560" height="2"/>
		<rect x="80" y="99" fill="#4D4D4D" width="560" height="2"/>
		<rect x="80" y="165" fill="#4D4D4D" width="560" height="2"/>
		<rect x="80" y="143" fill="#4D4D4D" width="560" height="2"/>
	</g>
</g>
<g id="Calque_2">
	<g>
		<path fill="#4D4D4D" d="M480.814,361.062H421.6h-11.823c0,0,22.102-39.271,44.199-79.635c22.1-40.363,23.064-57.621,19.465-81.088
			c-5.917-38.583-50.975-57.856-87.851-57.856c-85.363,0-119.302,51.489-119.302,51.489s12.5,65.984,12.514,65.973
			c41.01-28.699,61.546-41.549,76.462-33.209c13.252,7.409,12.197,23.289-0.322,44.261L246.398,447.605h234.417V361.062z"/>
	</g>
	<path fill="#E43222" stroke="#E43222" stroke-width="2" d="M231.649,233.128c4.783-3.627,8.008-12.799,7.198-16.663
		c-4.048-19.31-33.509,4.614-36.484,6.663c-16.961,11.677-100.206,95.528-92.311,129.739c2.563,11.106,11.876,10.318,19.079,9.868
		c10.526-0.658,66.513-60.52,65.79-59.21c-13.816,25,15.789,66.447,83.552,55.921C368.66,345.437,507.237,290.043,720,193v-5
		c0,0-207.846,104.106-439.608,160.222c0,0-30.917,4.228-48.844,1.107c-11.593-2.017-31.776-11.675-24.046-41.471
		c7.729-29.793,17.63-41.924,18.464-49.018l-8.588-4.529c0,0,0,0-21.47,23.665c-13.552,14.937-45.517,54.644-62.263,68.737
		c-16.747,14.093-10.307-6.039-10.307-6.039s30.793-58.202,91.463-111.326c0,0,15.646-11.35,12.357-2.797
		C224.304,233.971,231.649,233.128,231.649,233.128z"/>
</g>
</svg>
