<?xml version="1.0" encoding="UTF-8" standalone="no"?>
<!-- Created with Inkscape (http://www.inkscape.org/) -->
<svg
   xmlns:dc="http://purl.org/dc/elements/1.1/"
   xmlns:cc="http://web.resource.org/cc/"
   xmlns:rdf="http://www.w3.org/1999/02/22-rdf-syntax-ns#"
   xmlns:svg="http://www.w3.org/2000/svg"
   xmlns="http://www.w3.org/2000/svg"
   xmlns:sodipodi="http://sodipodi.sourceforge.net/DTD/sodipodi-0.dtd"
   xmlns:inkscape="http://www.inkscape.org/namespaces/inkscape"
   width="238"
   height="311"
   id="svg2"
   sodipodi:version="0.32"
   inkscape:version="0.45.1">
  <g
     inkscape:label="Layer 1"
     inkscape:groupmode="layer"
     id="layer1"
     transform="translate(-307.85063,-309.23477)">
    <path
       d="M 384.78489,422.72289 C 399.89144,422.72289 412.13977,410.47456 412.13977,395.36801 C 412.13977,380.26146 399.89144,368.01314 384.78489,368.01314 C 369.67834,368.01314 357.43001,380.26146 357.43001,395.36801 C 357.43001,410.47456 369.67834,422.72289 384.78489,422.72289"
       class="ps01"
       id="path2202"
       style="fill:#d93346;fill-opacity:1" />
    <path
       d="M 309.0228,426.60039 C 309.0228,361.7828 361.57083,309.23477 426.38418,309.23477 C 491.20177,309.23477 543.74555,361.7828 543.74555,426.60039 C 543.74555,491.41373 491.20177,543.95752 426.38418,543.95752 C 361.57083,543.95752 309.0228,491.41373 309.0228,426.60039 z M 426.38418,530.0826 C 483.56568,530.0826 529.92159,483.72668 529.92159,426.54518 C 529.92159,369.36793 483.56568,323.01201 426.38418,323.01201 C 369.20692,323.01201 322.85101,369.36793 322.85101,426.54518 C 322.85101,483.72668 369.20692,530.0826 426.38418,530.0826 z M 493.66927,439.88923 C 493.66927,477.10562 463.49864,507.2805 426.278,507.2805 C 390.98125,507.2805 362.02526,480.14646 359.12456,445.60143 C 359.34116,445.60143 353.77335,443.88565 353.77335,443.88565 L 353.77335,431.78597 L 417.52495,431.78597 L 417.52495,443.6733 L 413.78335,446.51878 C 416.21263,450.95264 420.92679,454.61355 426.34171,454.61355 C 434.24111,454.61355 440.64982,447.55505 440.64982,439.65564 L 440.64982,382.29577 C 440.64982,382.29577 434.81446,379.48426 434.59786,379.48426 C 434.38126,379.48426 434.59786,367.38458 434.59786,367.38458 L 498.13711,367.38458 L 498.13711,379.48426 L 493.65228,381.21279 L 493.66927,439.88923"
       class="ps02"
       id="path2204"
       style="fill:#1d72b3;fill-opacity:1" />
    <path
       d="M 479.74763,439.90622 C 479.74763,469.46953 455.77761,493.4353 426.21854,493.4353 C 398.74051,493.4353 375.87895,472.51037 372.82536,445.852 L 398.48993,445.91996 C 401.1443,458.84355 412.8023,468.78151 426.51583,468.78151 C 442.19148,468.78151 454.68613,454.84713 454.68613,439.74483 L 454.68613,381.86258 L 479.76887,381.86258 L 479.74763,439.90622"
       class="ps03"
       id="path2206"
       style="fill:#fbd651;fill-opacity:1" />
    <path
       d="M 341.23623,580.57933 L 345.55967,570.31435 C 335.54526,562.53386 307.85063,564.83998 307.85063,587.27684 C 307.85063,607.91849 336.62825,607.52055 344.69753,600.35205 L 341.45283,589.33238 C 335.80008,592.96356 324.38417,595.20725 324.38417,585.65449 C 324.38417,577.01186 336.70045,578.30719 341.23623,580.57933"
       class="ps02"
       id="path2208"
       style="fill:#1d72b3;fill-opacity:1" />
    <path
       d="M 374.62608,604.78294 L 374.30331,602.19015 C 371.16903,604.02655 348.91055,607.37615 348.91055,593.22263 C 348.91055,578.52379 366.95602,578.20102 374.19289,580.14614 C 374.51991,574.2046 372.03542,573.33821 368.03475,573.33821 C 364.7943,573.33821 359.82532,575.06674 356.79721,577.01186 L 354.42314,568.58583 C 356.47444,567.39667 360.25426,564.04579 371.38563,564.04579 C 382.51275,564.04579 390.62026,568.04221 390.62026,574.74396 L 390.50983,604.45974 L 374.62608,604.78294 z M 374.40949,590.84431 C 374.40949,587.38301 372.68521,586.6313 369.6571,586.6313 C 366.63325,586.6313 364.68812,588.466 364.68812,590.95049 C 364.68812,593.43498 366.63325,594.84243 369.44051,594.84243 C 372.25202,594.84243 374.40949,594.08604 374.40949,590.84431"
       class="ps02"
       id="path2210"
       style="fill:#1d72b3;fill-opacity:1" />
    <path
       d="M 396.5618,604.02655 L 412.2332,604.02655 L 412.66215,586.30428 C 412.66215,582.20168 415.36748,579.5006 417.74155,579.5006 C 419.93724,579.5006 421.63179,580.79593 421.63179,584.25298 L 421.63179,604.02655 L 437.29895,604.02655 L 437.29895,574.63779 C 437.29895,570.63712 432.86933,567.18007 426.17183,567.18007 C 419.94149,567.18007 414.85784,570.27613 413.31193,571.39309 L 412.98916,567.06965 L 396.5618,566.74688 L 396.5618,604.02655"
       class="ps02"
       id="path2212"
       style="fill:#1d72b3;fill-opacity:1" />
    <path
       d="M 467.98771,604.78294 L 467.66494,602.19015 C 464.53066,604.02655 442.27217,607.37615 442.27217,593.22263 C 442.27217,578.52379 460.3134,578.20102 467.55452,580.14614 C 467.87729,574.2046 465.39704,573.33821 461.39638,573.33821 C 458.15592,573.33821 453.1827,575.06674 450.15884,577.01186 L 447.78052,568.58583 C 449.83182,567.39667 453.61589,564.04579 464.74725,564.04579 C 475.87437,564.04579 483.98188,568.04221 483.98188,574.74396 L 483.87146,604.45974 L 467.98771,604.78294 z M 467.77111,590.84431 C 467.77111,587.38301 466.04259,586.6313 463.01873,586.6313 C 459.99062,586.6313 458.0455,588.466 458.0455,590.95049 C 458.0455,593.43498 459.99062,594.84243 462.80213,594.84243 C 465.60939,594.84243 467.77111,594.08604 467.77111,590.84431"
       class="ps02"
       id="path2214"
       style="fill:#1d72b3;fill-opacity:1" />
    <path
       d="M 490.35662,549.3512 L 506.77973,548.48481 L 505.701,603.8108 L 490.35662,604.45974 L 490.35662,549.3512"
       class="ps02"
       id="path2216"
       style="fill:#1d72b3;fill-opacity:1" />
    <path
       d="M 535.4172,548.26822 C 529.79843,549.1346 526.88075,554.10358 527.95948,558.21042 C 529.04247,562.31727 534.22804,563.6126 537.90169,562.96706 C 542.1317,562.21959 546.78215,559.17449 545.67793,553.88699 C 544.5992,548.70141 540.05916,547.62267 535.4172,548.26822"
       class="ps02"
       id="path2218"
       style="fill:#1d72b3;fill-opacity:1" />
    <path
       d="M 518.23387,609.32212 C 518.23387,609.32212 516.19107,618.02676 516.28875,618.07475 C 519.5292,619.69413 524.39201,620.23477 527.42012,620.23477 C 531.22542,620.23477 541.73248,619.38367 542.3313,605.32401 C 542.97685,590.2285 543.19344,568.79818 543.19344,568.79818 L 527.52629,568.79818 L 526.98692,603.48591 C 526.85527,608.27354 522.54032,610.37071 518.23387,609.32212"
       class="ps02"
       id="path2220"
       style="fill:#1d72b3;fill-opacity:1" />
  </g>
</svg>
