<?xml version="1.0" encoding="UTF-8" standalone="no"?>
<!-- Created with Inkscape (http://www.inkscape.org/) -->
<svg
   xmlns:dc="http://purl.org/dc/elements/1.1/"
   xmlns:cc="http://web.resource.org/cc/"
   xmlns:rdf="http://www.w3.org/1999/02/22-rdf-syntax-ns#"
   xmlns:svg="http://www.w3.org/2000/svg"
   xmlns="http://www.w3.org/2000/svg"
   xmlns:xlink="http://www.w3.org/1999/xlink"
   xmlns:sodipodi="http://sodipodi.sourceforge.net/DTD/sodipodi-0.dtd"
   xmlns:inkscape="http://www.inkscape.org/namespaces/inkscape"
   width="325"
   height="279"
   id="svg2"
   sodipodi:version="0.32"
   inkscape:version="0.45.1"
   version="1.0"
   inkscape:output_extension="org.inkscape.output.svg.inkscape">
  <g
     inkscape:label="Layer 1"
     inkscape:groupmode="layer"
     id="layer1"
     transform="translate(-297.17468,-308.36943)">
    <path
       id="path68804"
       d="M 369.85005,496.05433 C 369.85005,445.69032 409.86954,404.79746 459.24374,404.79746 C 508.61794,404.79746 548.61803,445.69032 548.61803,496.05433 C 548.61803,546.43775 508.61794,587.36943 459.24374,587.36943 C 409.86954,587.36943 369.85005,546.43775 369.85005,496.05433"
       style="fill:#d77330;fill-rule:nonzero;stroke:none" />
    <path
       id="path68806"
       d="M 489.48156,486.40851 C 489.48156,491.10527 489.48156,508.37847 489.48156,508.37847 C 489.48156,525.18589 476.12878,538.86859 459.6319,538.86859 C 444.2801,538.86859 431.56779,526.93261 429.97633,511.71667 C 425.78418,511.71667 413.01365,511.71667 408.39453,511.71667 C 410.06362,539.06267 432.40234,560.83856 459.6319,560.83856 C 488.00654,560.83856 511.06336,537.33535 511.06336,508.37847 C 511.06336,508.37847 511.06336,491.10527 511.06336,486.40851 C 501.88333,486.40851 498.66158,486.40851 489.48156,486.40851"
       style="fill:#ffffff;fill-rule:nonzero;stroke:none" />
    <path
       id="path68808"
       d="M 483.96966,460.71219 C 483.96966,451.47393 491.34473,443.90478 500.40831,443.90478 C 509.51071,443.90478 516.9052,451.47393 516.9052,460.71219 C 516.9052,470.04748 509.51071,477.61664 500.40831,477.61664 C 491.34473,477.61664 483.96966,470.04748 483.96966,460.71219"
       style="fill:#ffffff;fill-rule:nonzero;stroke:none" />
    <path
       id="path68810"
       d="M 519.73878,315.92778 L 499.30205,366.07831 C 496.93426,372.25008 499.8843,379.237 505.92021,381.68242 C 512.03376,384.10843 518.8266,381.04195 521.19439,374.88958 L 541.68934,324.79728 C 544.05712,318.56728 541.10709,311.56096 535.07117,309.19317 C 528.97703,306.80598 522.16479,309.77542 519.73878,315.92778"
       style="fill:#008cd3;fill-rule:nonzero;stroke:none" />
    <path
       id="path68812"
       d="M 298.27298,417.70384 C 295.57526,423.68154 298.00127,430.86253 303.86252,433.69612 L 344.94946,453.72527 C 350.79129,456.61708 357.85584,454.05521 360.68942,448.07752 C 363.44537,442.0416 360.92232,434.91883 355.09989,432.02702 L 313.99354,411.99786 C 308.1517,409.16428 301.08716,411.66793 298.27298,417.70384"
       style="fill:#d77330;fill-rule:nonzero;stroke:none" />
    <path
       id="path68814"
       d="M 605.38671,412.11431 L 568.97712,429.44574 C 563.07706,432.27933 560.57341,439.4215 563.32936,445.45742 C 566.02709,451.47393 573.03341,454.05521 578.93347,451.27985 L 615.34306,433.96783 C 621.24313,431.13425 623.8244,423.99207 621.06845,417.95615 C 618.29309,411.93964 611.30618,409.30014 605.38671,412.11431"
       style="fill:#d77330;fill-rule:nonzero;stroke:none" />
    <path
       id="path68816"
       d="M 402.35861,352.6479 C 396.32269,355.17096 393.48911,362.2161 395.99275,368.32965 L 405.05633,391.83285 C 407.54057,397.92699 414.41104,400.87702 420.44695,398.31516 C 426.42465,395.81151 429.33586,388.74696 426.81281,382.5946 L 417.74923,359.14962 C 415.26499,353.05547 408.39453,350.08603 402.35861,352.6479"
       style="fill:#d77330;fill-rule:nonzero;stroke:none" />
    <path
       id="path68818"
       d="M 400.43721,461.11976 C 399.4668,459.0625 397.85593,458.61611 397.09901,458.61611 C 394.07135,458.61611 392.9845,460.9839 392.9845,464.12801 C 392.9845,467.2139 394.26543,469.6011 397.09901,469.6011 C 398.69048,469.6011 399.97141,468.99944 400.80596,466.94219 L 404.53231,468.883 C 402.92144,471.83303 400.02964,473.75443 396.57499,473.75443 C 391.23777,473.75443 387.53082,470.28038 387.53082,464.12801 C 387.53082,458.03387 391.43185,454.5016 396.38091,454.5016 C 399.79674,454.5016 402.72736,455.78253 404.47409,458.92664 L 400.43721,461.11976"
       style="fill:#ffffff;fill-rule:nonzero;stroke:none" />
    <path
       id="path68820"
       d="M 417.57456,464.32209 L 414.04228,465.35072 C 412.76135,465.73888 411.51923,466.24349 411.51923,467.71851 C 411.51923,469.19353 412.68372,469.83399 413.96465,469.83399 C 416.02191,469.83399 417.57456,468.43661 417.57456,465.60303 L 417.57456,464.32209 z M 422.64007,469.46524 C 422.64007,470.68795 422.69829,472.16296 423.16409,473.24982 L 418.27325,473.24982 C 418.07917,472.60935 417.94331,471.96888 417.94331,471.38664 L 417.88509,471.38664 C 416.99231,472.80343 414.35281,473.75443 412.48963,473.75443 C 409.03499,473.75443 406.53135,471.83303 406.53135,468.30075 C 406.53135,463.93393 409.92777,462.32306 415.69197,461.56614 L 417.57456,461.25561 L 417.57456,459.76119 C 417.57456,458.3444 416.54593,457.78156 415.12914,457.78156 C 413.46004,457.78156 412.62549,458.42203 412.35378,460.20758 L 407.30767,460.20758 C 407.48235,454.94798 412.23733,454.5016 414.68275,454.5016 C 419.55418,454.5016 422.64007,455.66608 422.64007,459.76119 L 422.64007,469.46524"
       style="fill:#ffffff;fill-rule:nonzero;stroke:none" />
    <path
       id="path68822"
       d="M 427.5115,454.94798 L 432.7711,454.94798 L 432.7711,456.55885 C 434.12966,454.94798 436.30337,454.5016 437.93365,454.5016 C 442.22284,454.5016 443.38732,457.00524 443.38732,459.76119 L 443.38732,473.24982 L 438.12773,473.24982 L 438.12773,461.81845 C 438.12773,460.0135 437.54549,458.79079 435.54645,458.79079 C 433.43097,458.79079 432.7711,460.20758 432.7711,461.89608 L 432.7711,473.24982 L 427.5115,473.24982 L 427.5115,454.94798"
       style="fill:#ffffff;fill-rule:nonzero;stroke:none" />
    <path
       id="path68824"
       d="M 458.13748,464.32209 L 454.62461,465.35072 C 453.32427,465.73888 452.10156,466.24349 452.10156,467.71851 C 452.10156,469.19353 453.28545,469.83399 454.56639,469.83399 C 456.62365,469.83399 458.13748,468.43661 458.13748,465.60303 L 458.13748,464.32209 z M 463.2224,469.46524 C 463.2224,470.68795 463.2224,472.16296 463.66879,473.24982 L 458.85558,473.24982 C 458.6615,472.60935 458.54505,471.96888 458.46742,471.38664 L 458.40919,471.38664 C 457.57464,472.80343 454.93514,473.75443 453.01374,473.75443 C 449.61732,473.75443 447.05546,471.83303 447.05546,468.30075 C 447.05546,463.93393 450.5101,462.32306 456.21608,461.56614 L 458.13748,461.25561 L 458.13748,459.76119 C 458.13748,458.3444 457.05063,457.78156 455.65324,457.78156 C 453.98415,457.78156 453.1496,458.42203 452.87788,460.20758 L 447.81237,460.20758 C 448.00645,454.94798 452.81966,454.5016 455.20686,454.5016 C 460.15592,454.5016 463.16418,455.66608 463.2224,459.76119 L 463.2224,469.46524"
       style="fill:#ffffff;fill-rule:nonzero;stroke:none" />
    <path
       id="path68826"
       d="M 473.31461,448.77621 L 473.31461,473.24982 L 468.05502,473.24982 L 468.05502,448.77621 L 473.31461,448.77621 z "
       style="fill:#ffffff;fill-rule:nonzero;stroke:none" />
  </g>
</svg>
