<?xml version="1.0" encoding="UTF-8" standalone="no"?>
<!-- Created with Inkscape (http://www.inkscape.org/) -->
<svg
   xmlns:dc="http://purl.org/dc/elements/1.1/"
   xmlns:cc="http://web.resource.org/cc/"
   xmlns:rdf="http://www.w3.org/1999/02/22-rdf-syntax-ns#"
   xmlns:svg="http://www.w3.org/2000/svg"
   xmlns="http://www.w3.org/2000/svg"
   xmlns:sodipodi="http://sodipodi.sourceforge.net/DTD/sodipodi-0.dtd"
   xmlns:inkscape="http://www.inkscape.org/namespaces/inkscape"
   width="301"
   height="312"
   id="svg2"
   sodipodi:version="0.32"
   inkscape:version="0.45.1"
   version="1.0">
  <g
     inkscape:label="Layer 1"
     inkscape:groupmode="layer"
     id="layer1"
     transform="translate(-297.79731,-300.48699)">
    <path
       style="fill:#005294;fill-opacity:1"
       d="M 472.85951,300.48708 C 441.30074,300.51972 409.2073,310.02223 384.54576,326.11958 C 344.50855,352.25498 312.13977,398.03056 318.91545,450.57239 C 324.55561,494.31519 361.89642,527.16077 403.14857,535.62802 C 468.55951,549.06255 530.79302,522.75915 568.36763,470.09583 C 589.62922,440.30156 597.68059,393.75966 579.4517,359.72708 C 570.54053,343.10099 558.41422,329.7552 542.74138,319.56833 C 522.40172,306.34889 497.79755,300.46129 472.85951,300.48708 z M 472.02201,329.69364 C 488.49415,329.63171 504.91599,333.00909 520.08732,340.54958 C 535.69006,348.30187 550.68055,363.06811 556.50763,379.97458 C 567.86739,412.94639 553.85838,446.89474 530.73232,469.91333 C 496.15769,504.31973 442.53177,520.66554 394.52263,502.19833 C 372.77039,493.82921 354.17673,475.23118 349.79357,454.96958 C 335.43711,388.58315 404.1568,329.9488 472.02201,329.69364 z "
       id="path2202" />
    <path
       d="M 509.45189,449.4556 C 508.10143,455.74529 504.70425,461.292 501.89585,466.98823 C 481.98005,496.32923 443.77461,492.77317 411.13456,489.39001 C 402.21404,486.71245 392.1253,483.14704 387.63466,473.46017 C 382.55992,462.6004 384.68608,447.96495 386.78887,436.55379 L 434.97091,436.60051 C 434.49427,444.2173 428.8728,455.79669 437.63445,460.96489 C 443.62975,463.18918 451.10168,462.05368 455.95213,457.97893 C 460.36799,454.04436 462.0035,448.92756 462.61565,443.5117 L 479.25109,365.5354 C 495.79775,366.05876 510.44722,364.95596 526.99387,365.47465 L 509.45189,449.4556"
       class="ps01"
       id="path2206"
       style="fill:#f7c600;fill-opacity:1" />
    <path
       d="M 447.47085,396.42779 C 441.61107,410.7782 427.1672,420.3903 412.19998,420.85759 C 402.83553,421.15198 393.46641,418.07256 388.67671,409.46979 C 384.31692,401.62403 386.69541,391.03996 391.58324,384.44186 C 401.31685,371.30173 418.17191,363.49335 434.27932,368.54006 C 444.45217,371.72696 451.59233,386.32503 447.47085,396.42779"
       class="ps01"
       id="path2208"
       style="fill:#c60425;fill-opacity:1" />
    <path
       d="M 332.94331,574.96908 C 333.21901,573.24946 332.78443,571.90834 331.82649,570.93638 C 330.88257,569.88966 329.3779,569.3663 327.31717,569.3663 C 320.32187,569.3663 317.87795,575.41767 316.89665,580.05317 C 315.64432,585.95501 317.51347,589.84284 322.98541,589.84284 C 327.82651,589.84284 330.29379,587.0765 331.4807,584.01109 L 350.30772,584.01109 C 346.18157,595.89422 333.77041,600.30168 320.77047,600.30168 C 305.61773,600.30168 295.4631,593.20264 298.26122,579.9784 C 301.09064,566.59995 314.01816,558.90372 329.52744,558.90372 C 342.08346,558.90372 352.96659,563.38969 351.86379,574.96908 L 332.94331,574.96908"
       class="ps01"
       id="path2210"
       style="fill:#005294;fill-opacity:1" />
    <path
       d="M 385.11598,599.18112 L 385.10664,594.99703 C 378.94778,599.10589 373.31697,600.30168 366.32167,600.30168 C 357.4432,600.30168 350.33109,596.64188 352.0507,588.49705 C 355.81237,570.71208 387.55055,578.78214 389.10195,571.45507 C 389.70007,568.61864 385.65804,568.24481 383.68608,568.24481 C 381.08329,568.24481 377.49452,568.6934 376.33097,572.05787 L 358.40114,572.05787 C 360.15347,563.76352 368.26559,558.90372 386.82626,558.90372 C 409.0598,558.90372 408.95233,565.77753 406.9757,575.11861 L 403.10189,593.42694 C 402.62993,595.66992 402.48039,596.79141 404.55515,598.43626 L 404.39627,599.18112 L 385.11598,599.18112 z M 386.90569,581.84288 C 380.28423,584.31016 372.47118,583.1139 371.39174,588.19799 C 370.98053,590.14191 372.93846,591.48302 376.61602,591.48302 C 383.15805,591.48302 386.21411,587.22603 386.90569,581.84288"
       class="ps01"
       id="path2212"
       style="fill:#005294;fill-opacity:1" />
    <path
       d="M 416.35884,560.02522 L 433.39615,560.02522 L 432.09709,566.15136 C 437.30735,561.44577 442.41947,558.90372 449.50355,558.90372 C 461.87733,558.90372 466.42404,564.9551 464.14835,575.71674 L 459.18108,599.18112 L 440.53163,599.18112 L 444.91012,578.48308 C 445.73254,574.59525 445.20451,571.16068 439.91481,571.16068 C 434.17652,571.16068 432.00363,574.22142 430.94756,579.23074 L 426.72328,599.18112 L 408.07383,599.18112 L 416.35884,560.02522"
       class="ps01"
       id="path2214"
       style="fill:#005294;fill-opacity:1" />
    <path
       d="M 497.55942,599.18112 L 497.55008,594.99703 C 491.38655,599.10589 485.75573,600.30168 478.76044,600.30168 C 469.88664,600.30168 462.76985,596.64188 464.49414,588.49705 C 468.25581,570.71208 499.99399,578.78214 501.54071,571.45507 C 502.14351,568.61864 498.0968,568.24481 496.12485,568.24481 C 493.52673,568.24481 489.93329,568.6934 488.77441,572.05787 L 470.83991,572.05787 C 472.59691,563.76352 480.70435,558.90372 499.26502,558.90372 C 521.50324,558.90372 521.39577,565.77753 519.41914,575.11861 L 515.54533,593.42694 C 515.06869,595.66992 514.92383,596.79141 516.99392,598.43626 L 516.83504,599.18112 L 497.55942,599.18112 z M 499.34446,581.84288 C 492.72767,584.31016 484.90994,583.1139 483.83518,588.19799 C 483.42397,590.14191 485.3819,591.48302 489.05946,591.48302 C 495.60149,591.48302 498.65288,587.22603 499.34446,581.84288"
       class="ps01"
       id="path2216"
       style="fill:#005294;fill-opacity:1" />
    <path
       d="M 521.7696,599.18112 L 533.15273,545.38042 L 551.80218,545.38042 L 540.41905,599.18112 L 521.7696,599.18112"
       class="ps01"
       id="path2218"
       style="fill:#005294;fill-opacity:1" />
    <path
       d="M 595.40012,560.02522 L 587.90483,595.44562 C 585.85343,605.15913 583.13382,612.482 565.74137,612.482 C 563.13858,612.482 560.55448,612.40723 557.26945,612.2577 L 559.61056,601.19793 C 566.96099,601.19793 568.11987,600.82551 569.25537,595.44562 L 576.75067,560.02522 L 595.40012,560.02522 z M 577.80674,555.02056 L 580.14785,543.95986 L 598.7973,543.95986 L 596.46086,555.02056 L 577.80674,555.02056"
       class="ps01"
       id="path2220"
       style="fill:#005294;fill-opacity:1" />
  </g>
</svg>
