<?xml version="1.0" encoding="UTF-8" ?>
<!DOCTYPE svg PUBLIC "-//W3C//DTD SVG 1.1//EN" "http://www.w3.org/Graphics/SVG/1.1/DTD/svg11.dtd">
<svg width="347pt" height="600pt" viewBox="0 0 347 600" version="1.1" xmlns="http://www.w3.org/2000/svg">
<g id="#ffffffff">
<path fill="#ffffff" opacity="1.00" d=" M 341.58 0.00 L 347.00 0.00 L 347.00 6.83 C 345.85 4.09 343.76 1.95 341.58 0.00 Z" />
<path fill="#ffffff" opacity="1.00" d=" M 99.90 83.81 C 103.94 80.44 109.59 81.34 114.45 81.09 C 114.50 83.71 114.50 86.32 114.38 88.94 C 112.31 89.14 110.24 89.33 108.18 89.52 C 107.99 91.72 107.85 93.93 107.82 96.15 C 110.08 96.15 112.34 96.13 114.60 96.11 C 114.47 98.40 114.30 100.70 114.08 102.99 C 112.04 102.99 109.99 103.00 107.94 103.01 C 107.91 113.93 107.98 124.86 107.91 135.79 C 104.40 135.78 100.89 135.78 97.39 135.74 C 97.40 124.83 97.41 113.92 97.39 103.01 C 95.63 102.99 93.87 102.99 92.11 102.98 C 92.12 100.72 92.14 98.47 92.16 96.21 C 93.85 96.16 95.54 96.13 97.22 96.08 C 97.61 91.99 96.73 87.03 99.90 83.81 Z" />
<path fill="#ffffff" opacity="1.00" d=" M 138.91 96.78 C 142.21 94.72 146.28 95.32 149.98 95.19 C 150.07 98.15 150.09 101.11 150.06 104.07 C 145.80 104.38 140.16 103.33 137.33 107.38 C 134.41 116.54 136.26 126.33 135.72 135.76 C 132.26 135.78 128.79 135.78 125.33 135.75 C 125.33 122.56 125.36 109.38 125.31 96.20 C 128.42 96.16 131.52 96.14 134.63 96.08 C 134.61 98.40 134.57 100.72 134.43 103.04 C 135.85 100.92 136.92 98.45 138.91 96.78 Z" />
<path fill="#ffffff" opacity="1.00" d=" M 160.32 99.27 C 165.15 95.05 172.06 94.93 178.12 95.32 C 182.69 95.60 187.95 97.67 189.50 102.38 C 191.32 109.95 189.78 117.80 190.65 125.46 C 190.72 127.07 192.13 128.00 193.15 129.04 C 193.27 131.39 193.29 133.74 193.27 136.09 C 188.84 136.33 184.15 135.48 180.97 132.14 C 176.20 137.55 168.02 137.86 161.72 135.29 C 154.25 131.78 153.01 119.56 160.01 114.97 C 165.68 112.08 172.34 113.05 178.33 111.30 C 181.67 109.94 181.07 104.62 178.09 103.16 C 174.92 102.28 171.62 102.82 168.43 103.30 C 167.60 105.13 166.75 106.94 165.89 108.75 C 162.92 108.70 159.94 108.69 156.97 108.65 C 157.40 105.38 157.54 101.53 160.32 99.27 M 166.24 120.28 C 166.12 122.48 165.69 124.73 166.18 126.92 C 168.45 130.59 173.63 129.73 177.01 128.30 C 181.17 126.11 180.26 120.64 180.86 116.75 C 175.91 117.57 171.07 118.92 166.24 120.28 Z" />
<path fill="#ffffff" opacity="1.00" d=" M 213.44 99.79 C 217.70 95.52 224.18 93.94 229.93 95.78 C 234.78 96.51 238.21 101.25 238.02 106.04 C 238.09 115.96 238.40 125.89 238.07 135.81 C 234.64 135.76 231.22 135.76 227.79 135.79 C 227.49 125.86 228.67 115.81 226.92 105.98 C 224.07 101.83 218.24 103.48 214.38 105.09 C 213.79 115.31 214.09 125.56 213.96 135.79 C 210.45 135.78 206.93 135.87 203.43 135.58 C 203.71 122.43 203.37 109.27 203.60 96.12 C 207.04 96.16 210.48 96.16 213.92 96.14 C 213.80 97.05 213.56 98.88 213.44 99.79 Z" />
<path fill="#ffffff" opacity="1.00" d=" M 254.22 100.29 C 257.71 96.53 263.00 95.49 267.91 95.19 C 273.08 94.92 278.55 96.11 282.63 99.45 C 285.52 101.96 286.08 105.96 287.17 109.43 C 284.04 109.53 280.92 109.57 277.80 109.58 C 275.80 102.64 265.71 100.59 261.33 106.34 C 258.34 112.02 258.58 119.03 260.73 124.96 C 263.13 130.00 270.37 130.38 274.63 127.58 C 276.15 125.74 276.44 123.23 277.20 121.03 C 280.55 121.07 283.90 121.10 287.25 121.16 C 286.75 127.24 283.22 133.73 277.02 135.50 C 270.47 137.38 262.93 137.49 256.94 133.87 C 251.27 130.36 248.91 123.35 248.92 116.97 C 248.82 111.08 249.73 104.54 254.22 100.29 Z" />
<path fill="#ffffff" opacity="1.00" d=" M 299.64 100.55 C 303.12 96.38 308.85 95.50 313.96 95.16 C 320.17 94.82 327.08 97.06 330.52 102.57 C 333.66 107.58 333.14 113.72 333.41 119.37 C 323.93 119.40 314.45 119.45 304.97 119.34 C 305.45 122.07 305.64 125.33 307.83 127.30 C 311.85 129.75 316.72 128.72 321.08 128.03 C 321.70 126.66 322.43 125.34 323.08 123.99 C 326.47 124.01 329.86 124.08 333.25 124.20 C 331.84 129.13 328.64 134.10 323.45 135.59 C 316.87 136.95 309.60 137.70 303.39 134.59 C 298.31 132.13 295.84 126.42 295.16 121.09 C 294.59 114.08 294.75 106.14 299.64 100.55 M 309.84 103.82 C 306.40 104.96 305.90 109.08 304.79 112.03 C 311.01 112.30 317.24 112.35 323.47 112.13 C 322.78 109.51 322.55 106.48 320.53 104.47 C 317.44 102.35 313.23 102.66 309.84 103.82 Z" />
<path fill="#ffffff" opacity="1.00" d=" M 120.59 165.43 C 196.06 165.29 271.53 165.48 347.00 165.23 L 347.00 242.00 C 294.71 241.85 242.41 241.81 190.12 241.87 C 187.87 262.41 185.50 282.95 183.65 303.53 C 203.57 290.14 228.24 284.69 252.02 287.00 C 277.05 288.71 302.80 296.14 321.68 313.35 C 333.97 324.22 341.80 339.13 347.00 354.49 L 347.00 427.45 C 343.49 436.21 340.28 445.20 335.14 453.18 C 322.85 472.63 302.62 485.97 281.02 493.08 C 260.41 499.75 238.65 502.53 217.03 502.33 C 197.41 502.51 177.63 500.70 158.74 495.20 C 137.90 489.17 117.89 477.78 104.83 460.10 C 92.66 443.69 87.51 423.04 87.19 402.84 C 116.67 402.75 146.16 402.58 175.64 402.92 C 176.83 409.21 178.56 415.53 181.93 421.03 C 186.46 428.36 193.86 433.70 202.08 436.16 C 214.03 439.80 227.08 439.67 239.02 436.00 C 245.96 433.84 252.38 429.58 256.42 423.45 C 262.66 414.28 264.13 402.84 264.40 392.00 C 264.46 380.41 261.89 367.94 253.68 359.28 C 244.58 350.42 231.20 348.57 219.04 348.41 C 202.89 347.97 186.96 355.48 176.62 367.83 C 151.42 363.76 126.25 359.49 101.02 355.57 C 107.46 292.18 114.23 228.83 120.59 165.43 Z" />
</g>
<g id="#80c342ff">
<path fill="#80c342" opacity="1.00" d=" M 334.67 0.00 L 341.58 0.00 C 343.76 1.95 345.85 4.09 347.00 6.83 L 347.00 165.23 C 271.53 165.48 196.06 165.29 120.59 165.43 C 114.23 228.83 107.46 292.18 101.02 355.57 C 126.25 359.49 151.42 363.76 176.62 367.83 C 186.96 355.48 202.89 347.97 219.04 348.41 C 231.20 348.57 244.58 350.42 253.68 359.28 C 261.89 367.94 264.46 380.41 264.40 392.00 C 264.13 402.84 262.66 414.28 256.42 423.45 C 252.38 429.58 245.96 433.84 239.02 436.00 C 227.08 439.67 214.03 439.80 202.08 436.16 C 193.86 433.70 186.46 428.36 181.93 421.03 C 178.56 415.53 176.83 409.21 175.64 402.92 C 146.16 402.58 116.67 402.75 87.19 402.84 C 87.51 423.04 92.66 443.69 104.83 460.10 C 117.89 477.78 137.90 489.17 158.74 495.20 C 177.63 500.70 197.41 502.51 217.03 502.33 C 238.65 502.53 260.41 499.75 281.02 493.08 C 302.62 485.97 322.85 472.63 335.14 453.18 C 340.28 445.20 343.49 436.21 347.00 427.45 L 347.00 592.54 C 345.81 594.93 344.50 597.65 341.84 598.68 C 338.02 600.36 333.86 599.01 329.99 598.26 C 225.46 575.62 120.88 553.24 16.37 530.52 C 11.80 529.35 6.92 527.91 3.73 524.21 C 1.49 521.52 0.80 517.96 0.00 514.66 L 0.00 84.46 C 1.08 80.54 2.00 76.06 5.44 73.46 C 9.66 70.29 14.97 69.22 20.01 68.06 C 89.31 53.09 158.62 38.16 227.93 23.19 C 263.50 15.42 299.16 8.05 334.67 0.00 M 99.90 83.81 C 96.73 87.03 97.61 91.99 97.22 96.08 C 95.54 96.13 93.85 96.16 92.16 96.21 C 92.14 98.47 92.12 100.72 92.11 102.98 C 93.87 102.99 95.63 102.99 97.39 103.01 C 97.41 113.92 97.40 124.83 97.39 135.74 C 100.89 135.78 104.40 135.78 107.91 135.79 C 107.98 124.86 107.91 113.93 107.94 103.01 C 109.99 103.00 112.04 102.99 114.08 102.99 C 114.30 100.70 114.47 98.40 114.60 96.11 C 112.34 96.13 110.08 96.15 107.82 96.15 C 107.85 93.93 107.99 91.72 108.18 89.52 C 110.24 89.33 112.31 89.14 114.38 88.94 C 114.50 86.32 114.50 83.71 114.45 81.09 C 109.59 81.34 103.94 80.44 99.90 83.81 M 138.91 96.78 C 136.92 98.45 135.85 100.92 134.43 103.04 C 134.57 100.72 134.61 98.40 134.63 96.08 C 131.52 96.14 128.42 96.16 125.31 96.20 C 125.36 109.38 125.33 122.56 125.33 135.75 C 128.79 135.78 132.26 135.78 135.72 135.76 C 136.26 126.33 134.41 116.54 137.33 107.38 C 140.16 103.33 145.80 104.38 150.06 104.07 C 150.09 101.11 150.07 98.15 149.98 95.19 C 146.28 95.32 142.21 94.72 138.91 96.78 M 160.32 99.27 C 157.54 101.53 157.40 105.38 156.97 108.65 C 159.94 108.69 162.92 108.70 165.89 108.75 C 166.75 106.94 167.60 105.13 168.43 103.30 C 171.62 102.82 174.92 102.28 178.09 103.16 C 181.07 104.62 181.67 109.94 178.33 111.30 C 172.34 113.05 165.68 112.08 160.01 114.97 C 153.01 119.56 154.25 131.78 161.72 135.29 C 168.02 137.86 176.20 137.55 180.97 132.14 C 184.15 135.48 188.84 136.33 193.27 136.09 C 193.29 133.74 193.27 131.39 193.15 129.04 C 192.13 128.00 190.72 127.07 190.65 125.46 C 189.78 117.80 191.32 109.95 189.50 102.38 C 187.95 97.67 182.69 95.60 178.12 95.32 C 172.06 94.93 165.15 95.05 160.32 99.27 M 213.44 99.79 C 213.56 98.88 213.80 97.05 213.92 96.14 C 210.48 96.16 207.04 96.16 203.60 96.12 C 203.37 109.27 203.71 122.43 203.43 135.58 C 206.93 135.87 210.45 135.78 213.96 135.79 C 214.09 125.56 213.79 115.31 214.38 105.09 C 218.24 103.48 224.07 101.83 226.92 105.98 C 228.67 115.81 227.49 125.86 227.79 135.79 C 231.22 135.76 234.64 135.76 238.07 135.81 C 238.40 125.89 238.09 115.96 238.02 106.04 C 238.21 101.25 234.78 96.51 229.93 95.78 C 224.18 93.94 217.70 95.52 213.44 99.79 M 254.22 100.29 C 249.73 104.54 248.82 111.08 248.92 116.97 C 248.91 123.35 251.27 130.36 256.94 133.87 C 262.93 137.49 270.47 137.38 277.02 135.50 C 283.22 133.73 286.75 127.24 287.25 121.16 C 283.90 121.10 280.55 121.07 277.20 121.03 C 276.44 123.23 276.15 125.74 274.63 127.58 C 270.37 130.38 263.13 130.00 260.73 124.96 C 258.58 119.03 258.34 112.02 261.33 106.34 C 265.71 100.59 275.80 102.64 277.80 109.58 C 280.92 109.57 284.04 109.53 287.17 109.43 C 286.08 105.96 285.52 101.96 282.63 99.45 C 278.55 96.11 273.08 94.92 267.91 95.19 C 263.00 95.49 257.71 96.53 254.22 100.29 M 299.64 100.55 C 294.75 106.14 294.59 114.08 295.16 121.09 C 295.84 126.42 298.31 132.13 303.39 134.59 C 309.60 137.70 316.87 136.95 323.45 135.59 C 328.64 134.10 331.84 129.13 333.25 124.20 C 329.86 124.08 326.47 124.01 323.08 123.99 C 322.43 125.34 321.70 126.66 321.08 128.03 C 316.72 128.72 311.85 129.75 307.83 127.30 C 305.64 125.33 305.45 122.07 304.97 119.34 C 314.45 119.45 323.93 119.40 333.41 119.37 C 333.14 113.72 333.66 107.58 330.52 102.57 C 327.08 97.06 320.17 94.82 313.96 95.16 C 308.85 95.50 303.12 96.38 299.64 100.55 Z" />
<path fill="#80c342" opacity="1.00" d=" M 309.84 103.82 C 313.23 102.66 317.44 102.35 320.53 104.47 C 322.55 106.48 322.78 109.51 323.47 112.13 C 317.24 112.35 311.01 112.30 304.79 112.03 C 305.90 109.08 306.40 104.96 309.84 103.82 Z" />
<path fill="#80c342" opacity="1.00" d=" M 166.24 120.28 C 171.07 118.92 175.91 117.57 180.86 116.75 C 180.26 120.64 181.17 126.11 177.01 128.30 C 173.63 129.73 168.45 130.59 166.18 126.92 C 165.69 124.73 166.12 122.48 166.24 120.28 Z" />
<path fill="#80c342" opacity="1.00" d=" M 190.12 241.87 C 242.41 241.81 294.71 241.85 347.00 242.00 L 347.00 354.49 C 341.80 339.13 333.97 324.22 321.68 313.35 C 302.80 296.14 277.05 288.71 252.02 287.00 C 228.24 284.69 203.57 290.14 183.65 303.53 C 185.50 282.95 187.87 262.41 190.12 241.87 Z" />
</g>
</svg>
