<svg xmlns="http://www.w3.org/2000/svg" viewBox="0 0 231.5 39"><rect width="231.5" height="39" style="fill:#D60000"/><path d="M16.59,6H29L18.5,30.08h9.2l-1.85,4.28H7.5L17.8,10.5H14.61l2-4.55" style="fill:#fff"/><path d="M30.83,10.5l2-4.55h9S40.53,11,38,13a34.38,34.38,0,0,1-6.19,3.55L34.5,10.5H30.83" style="fill:#fff"/><path d="M46.31,6h7.36l1-2.19h5.65L59.32,6h8.57l-2,4.55H56.72l-3.11,7.18h9.18l-1.53,3.55H52.07l-3.83,8.82h9.2l-1.86,4.28H37.19L47.5,10.5H44.34l2-4.55" style="fill:#fff"/><path d="M75.3,29.67L74.5,28.3l3.73-2,1.27,2.28a8.8,8.8,0,0,0,1.17-2.41l5.2-12c0.88-2,.1-4-3-4-2.32,0-3.24,1.48-4.34,4l-5.2,12c-0.82,1.9,0,3.46,1.82,3.63l0.23-.13H75.3Zm3.92,6.68-1.16-1.56c-0.57.06-2,.19-2.56,0.19-7.35,0-12.76-5.64-9.86-14.62,2.44-7.55,8-14.66,17.45-14.66,11,0,12.86,7.27,10.64,14.77C92,26.13,88.17,32.31,82.32,33.74L84,36.36h-4.8" style="fill:#fff"/><path d="M129.5,6h11.39L128.58,34.36h-9.24L129.68,10.5h-2.94l2-4.55h0.76" style="fill:#fff"/><path d="M98.16,10.5l2-4.55h12.68l-8,18.55s-2.94,5.18,1.61,5.18A5.57,5.57,0,0,0,111.19,27l9.2-21h5.11L116,28.05a12.88,12.88,0,0,1-11.63,6.63c-8.38,0-10.95-5.79-8.54-11.33,3.12-7.18,5.56-12.83,5.56-12.83H98.22" style="fill:#fff"/><path d="M172.13,6h21.58l-2,4.55H182.5l-3.11,7.18h9.18L187,21.26h-9.18L174,30.08h9.2l-1.85,4.28H163L173.34,10.5h-3.19l2-4.55" style="fill:#fff"/><path d="M154.93,10.5l-4,9.28h3.94c1.55,0,2.87-1.82,3.85-4.1s1.6-5.18-1.28-5.18h-2.51ZM162,6a6.48,6.48,0,0,1,6.5,7.25c-2,11.89-9.91,11.24-9.91,11.24h-9.66l-4.3,9.92h-9.18L145.74,10.5h-3.19l2-4.55H162" style="fill:#fff"/><polygon points="215.98 15.35 221.86 5.98 228.64 5.98 217.57 21.98 210.13 21.98 210.59 10.73 207.94 10.73 203.14 21.98 196.67 21.98 201.47 10.73 195.7 10.73 197.73 5.98 217.12 5.98 215.98 15.35" style="fill:#fff"/></svg>