<svg xmlns="http://www.w3.org/2000/svg" viewBox="0 0 261.5 45.5"><rect width="261.5" height="45.5" style="fill:#D60000"/><path d="M9.22,4.16h6.1V33.73H33V39H9.22V4.16Z" style="fill:#fff"/><path d="M33.47,15.09c2.34-.34,3-2.2,3-4.34h-3V4.16h6.1v6.59a6.9,6.9,0,0,1-6.1,7.17V15.09Z" style="fill:#fff"/><path d="M44.76,4.16H69.83V9.43h-19v9.12H68.42v5H50.86v10.2H70.18V39H44.76V4.16Z" style="fill:#fff"/><path d="M105.35,38.85l-3,3.32L97.3,37.73a16.16,16.16,0,0,1-8.2,2.1c-10.39,0-16.68-8.24-16.68-18.24S78.71,3.33,89.1,3.33s16.68,8.34,16.68,18.24c0,4.68-1.41,10.15-4.93,13.37Zm-15.85-7.9,2.93-3.37,4.24,3.71a15.15,15.15,0,0,0,3-9.71c0-6.68-3.12-13.27-10.59-13.27S78.51,14.9,78.51,21.58,81.64,34.85,89.1,34.85A9.07,9.07,0,0,0,93,34Z" style="fill:#fff"/><path d="M109.73,4.16h6.1V24.46c0,4.68.29,10.1,8.2,10.1s8.2-5.42,8.2-10.1V4.16h6.1V26.46c0,8.93-5.71,13.37-14.29,13.37s-14.29-4.44-14.29-13.37V4.16Z" style="fill:#fff"/><path d="M144.12,4.16h6.1V39h-6.1V4.16Z" style="fill:#fff"/><path d="M156.46,4.16h15.37c10,0,11.85,6.44,11.85,10.78s-1.9,10.68-11.85,10.68h-9.27V39h-6.1V4.16Zm6.1,16.49h8.93c2.73,0,6.1-1.37,6.1-5.76,0-4.59-2.78-5.76-6-5.76h-9V20.65Z" style="fill:#fff"/><path d="M187.78,4.16h25.07V9.43h-19v9.12h17.56v5H193.88v10.2H213.2V39H187.78V4.16Z" style="fill:#fff"/><polygon points="239.37 4.16 243.16 18.57 243.22 18.57 247.01 4.16 252.28 4.16 246.01 23.53 240.21 23.53 235.47 8.5 230.14 8.5 230.14 23.53 225.09 23.53 225.09 8.5 219.31 8.5 219.31 4.16 239.37 4.16" style="fill:#fff"/></svg>