<?xml version="1.0" encoding="UTF-8" ?>
<!DOCTYPE svg PUBLIC "-//W3C//DTD SVG 1.1//EN" "http://www.w3.org/Graphics/SVG/1.1/DTD/svg11.dtd">
<svg width="375pt" height="200pt" viewBox="0 0 375 200" version="1.1" xmlns="http://www.w3.org/2000/svg">
<g id="#ffffffff">
<path fill="#ffffff" opacity="1.00" d=" M 20.29 44.36 C 29.24 34.57 45.36 33.81 56.18 40.83 C 55.46 44.59 54.77 48.35 54.00 52.09 C 48.40 48.28 40.82 46.37 34.48 49.50 C 26.17 53.25 24.51 66.48 31.96 71.89 C 37.45 75.88 44.75 74.55 50.55 72.01 C 49.90 75.99 49.21 79.96 48.48 83.93 C 39.96 87.43 29.45 86.63 22.10 80.87 C 11.27 72.14 11.46 54.43 20.29 44.36 Z" />
<path fill="#ffffff" opacity="1.00" d=" M 257.73 37.14 C 262.24 37.13 266.75 37.13 271.27 37.14 C 271.32 42.34 271.28 47.53 271.29 52.73 C 277.02 52.74 282.75 52.72 288.47 52.75 C 288.54 57.32 288.62 61.90 288.43 66.47 C 282.72 66.49 277.02 66.42 271.32 66.51 C 271.25 72.55 271.33 78.59 271.27 84.63 C 266.74 84.67 262.21 84.75 257.68 84.57 C 257.72 78.54 257.72 72.52 257.68 66.50 C 251.85 66.41 246.02 66.54 240.20 66.41 C 240.16 61.90 240.17 57.39 240.19 52.88 C 246.03 52.84 251.86 52.89 257.70 52.85 C 257.73 47.62 257.68 42.38 257.73 37.14 Z" />
<path fill="#ffffff" opacity="1.00" d=" M 75.19 38.08 C 80.36 38.06 85.53 38.05 90.71 38.09 C 94.07 53.57 97.34 69.07 100.61 84.57 C 96.61 84.62 92.60 84.58 88.60 84.63 C 87.92 81.91 87.26 79.19 86.59 76.47 C 81.17 76.55 75.74 76.31 70.33 76.56 C 68.32 78.75 67.62 81.95 66.19 84.55 C 61.50 84.63 56.80 84.64 52.11 84.54 C 59.74 69.02 67.49 53.56 75.19 38.08 M 81.02 51.42 C 78.78 56.36 76.61 61.33 74.44 66.31 C 77.76 66.33 81.07 66.34 84.38 66.39 C 83.27 61.40 82.20 56.40 81.02 51.42 Z" />
<path fill="#ffffff" opacity="1.00" d=" M 112.37 38.17 C 116.89 38.10 121.42 38.13 125.95 38.15 C 131.06 46.95 135.92 55.90 141.16 64.63 C 142.71 55.83 143.75 46.95 145.15 38.13 C 149.41 38.19 153.67 38.21 157.93 38.29 C 155.71 53.77 153.57 69.25 151.27 84.72 C 147.11 84.74 142.95 84.76 138.79 84.70 C 133.37 75.03 127.96 65.35 122.45 55.73 C 121.03 65.35 119.73 74.97 118.30 84.58 C 114.18 84.60 110.06 84.63 105.94 84.55 C 107.93 69.07 110.16 53.62 112.37 38.17 Z" />
<path fill="#ffffff" opacity="1.00" d=" M 180.25 38.09 C 185.36 38.05 190.47 38.04 195.58 38.10 C 198.88 53.63 202.06 69.18 205.29 84.72 C 201.18 84.74 197.08 84.74 192.98 84.72 C 192.37 81.96 191.79 79.18 191.22 76.41 C 185.90 76.19 180.56 76.18 175.25 76.36 C 173.18 78.66 172.42 82.00 170.88 84.71 C 166.22 84.74 161.57 84.76 156.92 84.69 C 164.66 69.14 172.46 53.62 180.25 38.09 M 186.01 51.20 C 183.73 56.25 181.46 61.31 179.32 66.42 C 182.65 66.41 185.97 66.40 189.30 66.39 C 188.22 61.32 187.16 56.25 186.01 51.20 Z" />
<path fill="#ffffff" opacity="1.00" d=" M 217.19 38.08 C 221.55 38.06 225.91 38.06 230.27 38.07 C 228.65 50.09 226.92 62.09 225.30 74.11 C 230.02 74.16 234.74 74.12 239.46 74.15 C 239.07 77.68 238.58 81.20 238.07 84.71 C 228.89 84.67 219.71 84.90 210.54 84.59 C 212.67 69.08 214.96 53.58 217.19 38.08 Z" />
<path fill="#ffffff" opacity="1.00" d=" M 160.63 115.63 C 164.46 112.06 169.94 110.97 175.01 111.59 C 181.68 112.54 187.31 118.18 187.56 125.03 C 188.58 133.08 183.09 141.30 175.00 142.84 C 169.78 143.58 164.01 142.65 160.08 138.89 C 153.59 132.89 154.05 121.39 160.63 115.63 M 166.95 120.00 C 162.10 123.10 161.75 131.19 166.55 134.50 C 169.01 136.36 172.23 136.08 175.05 135.40 C 181.51 132.21 181.55 122.03 175.02 118.91 C 172.30 118.43 169.30 118.29 166.95 120.00 Z" />
<path fill="#ffffff" opacity="1.00" d=" M 135.72 115.74 C 141.05 111.04 149.12 110.90 155.21 114.19 C 154.99 116.58 154.71 118.97 154.43 121.37 C 150.52 118.72 144.87 117.92 140.97 121.01 C 136.93 124.05 136.76 131.00 140.94 134.00 C 144.49 136.57 149.15 135.45 152.90 133.95 C 152.63 136.38 152.42 138.81 152.22 141.25 C 146.39 143.54 139.00 143.17 134.39 138.54 C 128.19 132.43 129.03 121.18 135.72 115.74 Z" />
<path fill="#ffffff" opacity="1.00" d=" M 192.09 112.46 C 194.78 112.46 197.47 112.46 200.17 112.48 C 203.97 119.14 208.19 125.56 211.55 132.47 C 212.01 125.77 213.03 119.14 213.82 112.48 C 216.30 112.46 218.78 112.46 221.26 112.48 C 220.06 122.34 218.85 132.20 217.63 142.06 C 214.86 142.09 212.09 142.08 209.33 141.99 C 205.54 135.16 200.96 128.75 197.94 121.52 C 197.92 128.42 196.67 135.22 195.93 142.06 C 193.44 142.07 190.94 142.07 188.45 142.06 C 189.65 132.19 190.85 122.32 192.09 112.46 Z" />
<path fill="#ffffff" opacity="1.00" d=" M 223.77 112.48 C 229.39 112.45 235.01 112.47 240.64 112.47 C 240.64 114.64 240.64 116.82 240.65 118.99 C 237.57 119.00 234.49 119.00 231.41 119.01 C 231.40 120.65 231.40 122.28 231.41 123.92 C 234.21 123.93 237.02 123.93 239.82 123.94 C 239.82 126.09 239.82 128.24 239.82 130.40 C 237.02 130.40 234.21 130.40 231.41 130.41 C 231.41 134.29 231.41 138.17 231.40 142.06 C 228.86 142.07 226.31 142.07 223.77 142.06 C 223.76 132.20 223.77 122.34 223.77 112.48 Z" />
<path fill="#ffffff" opacity="1.00" d=" M 254.14 112.11 C 260.52 110.32 268.42 112.01 272.25 117.77 C 277.10 125.15 274.87 136.55 267.00 140.93 C 259.42 145.31 248.07 142.97 244.17 134.74 C 239.80 126.19 244.67 114.43 254.14 112.11 M 255.25 119.35 C 248.95 121.99 248.49 132.28 254.82 135.16 C 260.36 138.08 267.63 133.30 267.11 127.05 C 267.54 121.01 260.61 116.47 255.25 119.35 Z" />
<path fill="#ffffff" opacity="1.00" d=" M 300.95 112.47 C 307.71 112.47 314.47 112.45 321.23 112.48 C 321.23 114.65 321.23 116.82 321.23 118.99 C 319.11 119.00 317.00 119.00 314.88 119.01 C 314.87 126.69 314.89 134.38 314.88 142.06 C 312.31 142.07 309.74 142.07 307.18 142.06 C 307.17 134.38 307.18 126.69 307.17 119.01 C 305.09 119.00 303.02 119.00 300.94 118.99 C 300.94 116.82 300.94 114.64 300.95 112.47 Z" />
<path fill="#ffffff" opacity="1.00" d=" M 276.17 142.06 C 277.38 132.20 278.58 122.33 279.81 112.47 C 285.20 112.78 291.01 111.52 296.07 113.90 C 302.28 117.71 300.67 128.61 293.66 130.69 C 296.07 134.48 298.46 138.27 300.85 142.06 C 297.95 142.07 295.05 142.07 292.15 142.06 C 289.78 138.17 287.45 134.26 285.08 130.36 C 284.61 134.26 284.14 138.16 283.66 142.06 C 281.16 142.07 278.67 142.07 276.17 142.06 M 285.59 125.75 C 288.12 125.48 291.90 125.33 292.29 122.06 C 292.47 118.93 288.77 118.90 286.59 118.71 C 286.23 121.05 285.89 123.40 285.59 125.75 Z" />
</g>
<g id="#ee1c23ff">
<path fill="#ee1c23" opacity="1.00" d=" M 125.00 0.00 L 325.00 0.00 C 325.00 16.67 325.00 33.33 325.00 50.00 C 316.67 50.00 308.33 50.00 300.00 50.00 C 300.00 41.67 300.01 33.34 300.00 25.00 C 241.66 24.99 183.33 25.00 125.00 25.00 C 125.00 16.67 125.00 8.33 125.00 0.00 Z" />
</g>
<g id="#100b0cff">
<path fill="#100b0c" opacity="1.00" d=" M 0.00 25.00 C 41.67 25.00 83.33 25.00 125.00 25.00 C 183.33 25.00 241.66 24.99 300.00 25.00 C 300.01 33.34 300.00 41.67 300.00 50.00 C 300.00 66.66 300.00 83.33 300.00 100.00 C 258.33 100.00 216.66 100.00 175.00 100.00 C 158.33 100.00 141.67 100.00 125.00 100.00 C 83.33 100.00 41.67 100.00 0.00 100.00 L 0.00 25.00 M 20.29 44.36 C 11.46 54.43 11.27 72.14 22.10 80.87 C 29.45 86.63 39.96 87.43 48.48 83.93 C 49.21 79.96 49.90 75.99 50.55 72.01 C 44.75 74.55 37.45 75.88 31.96 71.89 C 24.51 66.48 26.17 53.25 34.48 49.50 C 40.82 46.37 48.40 48.28 54.00 52.09 C 54.77 48.35 55.46 44.59 56.18 40.83 C 45.36 33.81 29.24 34.57 20.29 44.36 M 257.73 37.14 C 257.68 42.38 257.73 47.62 257.70 52.85 C 251.86 52.89 246.03 52.84 240.19 52.88 C 240.17 57.39 240.16 61.90 240.20 66.41 C 246.02 66.54 251.85 66.41 257.68 66.50 C 257.72 72.52 257.72 78.54 257.68 84.57 C 262.21 84.75 266.74 84.67 271.27 84.63 C 271.33 78.59 271.25 72.55 271.32 66.51 C 277.02 66.42 282.72 66.49 288.43 66.47 C 288.62 61.90 288.54 57.32 288.47 52.75 C 282.75 52.72 277.02 52.74 271.29 52.73 C 271.28 47.53 271.32 42.34 271.27 37.14 C 266.75 37.13 262.24 37.13 257.73 37.14 M 75.19 38.08 C 67.49 53.56 59.74 69.02 52.11 84.54 C 56.80 84.64 61.50 84.63 66.19 84.55 C 67.62 81.95 68.32 78.75 70.33 76.56 C 75.74 76.31 81.17 76.55 86.59 76.47 C 87.26 79.19 87.92 81.91 88.60 84.63 C 92.60 84.58 96.61 84.62 100.61 84.57 C 97.34 69.07 94.07 53.57 90.71 38.09 C 85.53 38.05 80.36 38.06 75.19 38.08 M 112.37 38.17 C 110.16 53.62 107.93 69.07 105.94 84.55 C 110.06 84.63 114.18 84.60 118.30 84.58 C 119.73 74.97 121.03 65.35 122.45 55.73 C 127.96 65.35 133.37 75.03 138.79 84.70 C 142.95 84.76 147.11 84.74 151.27 84.72 C 153.57 69.25 155.71 53.77 157.93 38.29 C 153.67 38.21 149.41 38.19 145.15 38.13 C 143.75 46.95 142.71 55.83 141.16 64.63 C 135.92 55.90 131.06 46.95 125.95 38.15 C 121.42 38.13 116.89 38.10 112.37 38.17 M 180.25 38.09 C 172.46 53.62 164.66 69.14 156.92 84.69 C 161.57 84.76 166.22 84.74 170.88 84.71 C 172.42 82.00 173.18 78.66 175.25 76.36 C 180.56 76.18 185.90 76.19 191.22 76.41 C 191.79 79.18 192.37 81.96 192.98 84.72 C 197.08 84.74 201.18 84.74 205.29 84.72 C 202.06 69.18 198.88 53.63 195.58 38.10 C 190.47 38.04 185.36 38.05 180.25 38.09 M 217.19 38.08 C 214.96 53.58 212.67 69.08 210.54 84.59 C 219.71 84.90 228.89 84.67 238.07 84.71 C 238.58 81.20 239.07 77.68 239.46 74.15 C 234.74 74.12 230.02 74.16 225.30 74.11 C 226.92 62.09 228.65 50.09 230.27 38.07 C 225.91 38.06 221.55 38.06 217.19 38.08 Z" />
<path fill="#100b0c" opacity="1.00" d=" M 81.02 51.42 C 82.20 56.40 83.27 61.40 84.38 66.39 C 81.07 66.34 77.76 66.33 74.44 66.31 C 76.61 61.33 78.78 56.36 81.02 51.42 Z" />
<path fill="#100b0c" opacity="1.00" d=" M 186.01 51.20 C 187.16 56.25 188.22 61.32 189.30 66.39 C 185.97 66.40 182.65 66.41 179.32 66.42 C 181.46 61.31 183.73 56.25 186.01 51.20 Z" />
</g>
<g id="#f57115ff">
<path fill="#f57115" opacity="1.00" d=" M 300.00 50.00 C 308.33 50.00 316.67 50.00 325.00 50.00 C 324.99 83.33 325.02 116.66 324.99 149.98 C 274.99 150.02 225.00 149.99 175.00 150.00 C 175.00 147.61 175.00 145.23 175.00 142.84 C 183.09 141.30 188.58 133.08 187.56 125.03 C 187.31 118.18 181.68 112.54 175.01 111.59 C 175.00 107.73 175.00 103.86 175.00 100.00 C 216.66 100.00 258.33 100.00 300.00 100.00 C 300.00 83.33 300.00 66.66 300.00 50.00 M 192.09 112.46 C 190.85 122.32 189.65 132.19 188.45 142.06 C 190.94 142.07 193.44 142.07 195.93 142.06 C 196.67 135.22 197.92 128.42 197.94 121.52 C 200.96 128.75 205.54 135.16 209.33 141.99 C 212.09 142.08 214.86 142.09 217.63 142.06 C 218.85 132.20 220.06 122.34 221.26 112.48 C 218.78 112.46 216.30 112.46 213.82 112.48 C 213.03 119.14 212.01 125.77 211.55 132.47 C 208.19 125.56 203.97 119.14 200.17 112.48 C 197.47 112.46 194.78 112.46 192.09 112.46 M 223.77 112.48 C 223.77 122.34 223.76 132.20 223.77 142.06 C 226.31 142.07 228.86 142.07 231.40 142.06 C 231.41 138.17 231.41 134.29 231.41 130.41 C 234.21 130.40 237.02 130.40 239.82 130.40 C 239.82 128.24 239.82 126.09 239.82 123.94 C 237.02 123.93 234.21 123.93 231.41 123.92 C 231.40 122.28 231.40 120.65 231.41 119.01 C 234.49 119.00 237.57 119.00 240.65 118.99 C 240.64 116.82 240.64 114.64 240.64 112.47 C 235.01 112.47 229.39 112.45 223.77 112.48 M 254.14 112.11 C 244.67 114.43 239.80 126.19 244.17 134.74 C 248.07 142.97 259.42 145.31 267.00 140.93 C 274.87 136.55 277.10 125.15 272.25 117.77 C 268.42 112.01 260.52 110.32 254.14 112.11 M 300.95 112.47 C 300.94 114.64 300.94 116.82 300.94 118.99 C 303.02 119.00 305.09 119.00 307.17 119.01 C 307.18 126.69 307.17 134.38 307.18 142.06 C 309.74 142.07 312.31 142.07 314.88 142.06 C 314.89 134.38 314.87 126.69 314.88 119.01 C 317.00 119.00 319.11 119.00 321.23 118.99 C 321.23 116.82 321.23 114.65 321.23 112.48 C 314.47 112.45 307.71 112.47 300.95 112.47 M 276.17 142.06 C 278.67 142.07 281.16 142.07 283.66 142.06 C 284.14 138.16 284.61 134.26 285.08 130.36 C 287.45 134.26 289.78 138.17 292.15 142.06 C 295.05 142.07 297.95 142.07 300.85 142.06 C 298.46 138.27 296.07 134.48 293.66 130.69 C 300.67 128.61 302.28 117.71 296.07 113.90 C 291.01 111.52 285.20 112.78 279.81 112.47 C 278.58 122.33 277.38 132.20 276.17 142.06 Z" />
<path fill="#f57115" opacity="1.00" d=" M 175.02 118.91 C 181.55 122.03 181.51 132.21 175.05 135.40 C 174.97 129.90 174.99 124.41 175.02 118.91 Z" />
<path fill="#f57115" opacity="1.00" d=" M 255.25 119.35 C 260.61 116.47 267.54 121.01 267.11 127.05 C 267.63 133.30 260.36 138.08 254.82 135.16 C 248.49 132.28 248.95 121.99 255.25 119.35 Z" />
<path fill="#f57115" opacity="1.00" d=" M 285.59 125.75 C 285.89 123.40 286.23 121.05 286.59 118.71 C 288.77 118.90 292.47 118.93 292.29 122.06 C 291.90 125.33 288.12 125.48 285.59 125.75 Z" />
</g>
<g id="#fddc04ff">
<path fill="#fddc04" opacity="1.00" d=" M 325.00 50.00 C 341.67 50.00 358.33 50.00 375.00 50.00 L 375.00 200.00 L 175.00 200.00 C 175.00 183.33 175.00 166.67 175.00 150.00 C 225.00 149.99 274.99 150.02 324.99 149.98 C 325.02 116.66 324.99 83.33 325.00 50.00 Z" />
</g>
<g id="#ec222bff">
<path fill="#ec222b" opacity="1.00" d=" M 125.00 100.00 C 141.67 100.00 158.33 100.00 175.00 100.00 C 175.00 103.86 175.00 107.73 175.01 111.59 C 169.94 110.97 164.46 112.06 160.63 115.63 C 154.05 121.39 153.59 132.89 160.08 138.89 C 164.01 142.65 169.78 143.58 175.00 142.84 C 175.00 145.23 175.00 147.61 175.00 150.00 C 158.33 150.00 141.67 150.00 125.00 150.00 C 125.00 133.33 125.00 116.67 125.00 100.00 M 135.72 115.74 C 129.03 121.18 128.19 132.43 134.39 138.54 C 139.00 143.17 146.39 143.54 152.22 141.25 C 152.42 138.81 152.63 136.38 152.90 133.95 C 149.15 135.45 144.49 136.57 140.94 134.00 C 136.76 131.00 136.93 124.05 140.97 121.01 C 144.87 117.92 150.52 118.72 154.43 121.37 C 154.71 118.97 154.99 116.58 155.21 114.19 C 149.12 110.90 141.05 111.04 135.72 115.74 Z" />
<path fill="#ec222b" opacity="1.00" d=" M 166.95 120.00 C 169.30 118.29 172.30 118.43 175.02 118.91 C 174.99 124.41 174.97 129.90 175.05 135.40 C 172.23 136.08 169.01 136.36 166.55 134.50 C 161.75 131.19 162.10 123.10 166.95 120.00 Z" />
</g>
</svg>
