<?xml version="1.0" encoding="UTF-8" standalone="no"?>
<!-- Created with Inkscape (http://www.inkscape.org/) -->
<svg
   xmlns:dc="http://purl.org/dc/elements/1.1/"
   xmlns:cc="http://web.resource.org/cc/"
   xmlns:rdf="http://www.w3.org/1999/02/22-rdf-syntax-ns#"
   xmlns:svg="http://www.w3.org/2000/svg"
   xmlns="http://www.w3.org/2000/svg"
   xmlns:xlink="http://www.w3.org/1999/xlink"
   xmlns:sodipodi="http://sodipodi.sourceforge.net/DTD/sodipodi-0.dtd"
   xmlns:inkscape="http://www.inkscape.org/namespaces/inkscape"
   width="744"
   height="151"
   id="svg2"
   sodipodi:version="0.32"
   inkscape:version="0.45.1"
   version="1.0"
   inkscape:output_extension="org.inkscape.output.svg.inkscape">
  <g
     inkscape:label="Layer 1"
     inkscape:groupmode="layer"
     id="layer1"
     transform="translate(-5.6518333,-424.3132)">
    <g
       id="g4470"
       transform="matrix(4.5990315,0,0,4.5990315,-256.09206,-1686.7909)">
      <g
         transform="matrix(1,0,0,-1,-29.544171,940.21332)"
         clip-path="url(#id183)"
         id="g2560">
        <path
           style="fill:#1c62b7;fill-rule:nonzero;stroke:none"
           d="M 165.686,461.579 L 248.135,461.579 L 248.135,481.181 L 165.686,481.181 L 165.686,461.579 z "
           id="path2562" />
      </g>
      <path
         style="fill:#1c62b7;fill-rule:nonzero;stroke:none"
         d="M 127.32283,491.86532 L 153.78183,491.86532 L 153.78183,472.02132 L 127.32283,472.02132 L 127.32283,491.86532 z "
         id="path2564" />
      <g
         transform="matrix(1,0,0,-1,-29.544171,940.21332)"
         clip-path="url(#id184)"
         id="g2566">
        <path
           style="fill:#4dbc37;fill-rule:nonzero;stroke:none"
           d="M 174.503,461.58 L 174.509,461.58 L 174.509,468.1935 L 174.503,468.1935 L 174.503,461.58 z "
           id="path2568" />
        <path
           style="fill:#1a458d;fill-rule:nonzero;stroke:none"
           d="M 183.324,468.19 L 248.135,468.19 L 248.135,481.181 L 183.324,481.181 L 183.324,468.19 z "
           id="path2570" />
        <path
           style="fill:#76aee2;fill-rule:nonzero;stroke:none"
           d="M 245.056,468.19 L 248.135,468.19 L 248.135,481.181 L 245.056,481.181 L 245.056,468.19 z "
           id="path2572" />
        <path
           style="fill:#76aee2;fill-rule:nonzero;stroke:none"
           d="M 165.686,468.19 L 174.504,468.19 L 174.504,481.181 L 165.686,481.181 L 165.686,468.19 z "
           id="path2574" />
      </g>
      <path
         style="fill:#76aee2;fill-rule:nonzero;stroke:none"
         d="M 189.05483,478.63432 L 218.59083,478.63432 L 218.59083,472.02032 L 189.05483,472.02032 L 189.05483,478.63432 z "
         id="path2576" />
      <path
         style="fill:#221e1f;fill-rule:nonzero;stroke:none"
         d="M 136.14983,478.63332 L 153.78183,478.63332 L 153.78183,472.01982 L 136.14983,472.01982 L 136.14983,478.63332 z "
         id="path2578" />
      <path
         style="fill:#ffffff;fill-rule:nonzero;stroke:none"
         d="M 156.00583,474.42932 L 159.21883,474.42932 L 159.21883,462.07632 L 156.00583,462.07632 L 156.00583,474.42932 z "
         id="path2580" />
      <path
         style="fill:#ffffff;fill-rule:nonzero;stroke:none"
         d="M 173.61783,474.42932 L 170.19183,474.42932 L 166.89783,468.89432 C 166.74883,468.63332 166.56783,468.31932 166.36983,467.92232 C 165.95883,467.14932 165.79483,466.80532 165.38283,465.83332 L 165.38283,466.39432 C 165.38283,467.29932 165.35183,467.97532 165.25183,468.72932 L 164.55983,474.42932 L 161.42883,474.42932 L 162.94683,462.07732 L 166.32183,462.07732 L 169.84683,468.03832 L 170.37383,469.02932 L 170.84983,469.98332 L 171.09983,470.44532 C 171.09983,470.21332 171.09983,470.04932 171.11483,469.93132 C 171.13283,469.45732 171.18283,468.84532 171.24683,468.31932 L 172.01983,462.07732 L 175.13383,462.07732 L 173.61783,474.42932"
         id="path2582" />
      <path
         style="fill:#ffffff;fill-rule:nonzero;stroke:none"
         d="M 184.44783,464.79632 L 180.64283,464.79632 L 180.64283,466.85132 L 184.24883,466.85132 L 184.24883,469.57332 L 180.64283,469.57332 L 180.64283,471.71232 L 184.44783,471.71232 L 184.44783,474.42932 L 177.43083,474.42932 L 177.43083,462.07732 L 178.49983,462.07732 L 178.68383,461.56532 L 183.55883,461.56532 L 183.37783,462.07732 L 184.44783,462.07732 L 184.44783,464.79632"
         id="path2584" />
      <path
         style="fill:#ffffff;fill-rule:nonzero;stroke:none"
         d="M 188.45083,462.07732 L 191.63083,462.07732 L 194.13383,468.66732 L 196.78683,462.07732 L 199.96283,462.07732 L 201.84183,474.42932 L 198.63083,474.42932 L 197.70783,467.31432 L 194.72683,474.42932 L 193.44283,474.42932 L 190.60983,467.31432 L 189.55583,474.42932 L 186.35883,474.42932 L 188.45083,462.07732"
         id="path2586" />
      <path
         style="fill:#ffffff;fill-rule:nonzero;stroke:none"
         d="M 208.78883,465.89732 L 207.44083,469.83732 L 210.11083,469.83732 L 208.78883,465.89732 z M 206.95383,472.28932 L 206.11383,474.42932 L 202.71883,474.42932 L 207.46583,462.07732 L 210.95583,462.07732 L 215.61783,474.42932 L 212.19083,474.42932 L 211.38383,472.28932 L 206.95383,472.28932"
         id="path2588" />
      <path
         style="fill:#ffffff;fill-rule:nonzero;stroke:none"
         d="M 152.34883,474.13432 C 151.75583,474.42932 150.40383,474.67732 149.45083,474.67732 C 145.87683,474.67732 143.30683,472.10932 143.30683,468.53132 C 143.30683,464.77832 146.26983,461.82832 150.07583,461.82832 C 151.04783,461.82832 152.00283,462.02832 153.02583,462.45332 C 153.56683,462.68732 153.76683,462.83532 153.76683,463.01432 L 153.76683,463.06332 L 153.46683,465.48532 C 153.43583,465.78532 153.41983,465.80132 153.35383,465.80132 C 153.32083,465.80132 153.28683,465.78532 153.23883,465.75032 L 153.05583,465.60232 C 152.46283,465.10632 151.34183,464.79632 150.37183,464.79632 C 148.13083,464.79632 146.51783,466.31032 146.51783,468.38632 C 146.51783,470.32932 147.91983,471.71232 149.89483,471.71232 C 150.89683,471.71232 152.21883,471.38332 152.61083,471.03632 C 152.64283,470.98932 152.69483,470.97332 152.70983,470.97332 C 152.75983,470.97332 152.77683,471.00332 152.77683,471.05432 C 152.77683,471.10332 152.77683,471.15332 152.75983,471.23532 L 152.53083,473.91732 C 152.53083,474.00032 152.46283,474.08332 152.34883,474.13432"
         id="path2590" />
      <path
         style="fill:#221e1f;fill-rule:nonzero;stroke:none"
         d="M 121.32883,485.25032 L 140.54983,485.25032 L 140.54983,465.40832 L 121.32883,465.40832 L 121.32883,485.25032 z "
         id="path2592" />
      <g
         transform="matrix(1,0,0,-1,-29.544171,940.21332)"
         clip-path="url(#id185)"
         id="g2594">
        <path
           style="fill:#ffffff;fill-rule:nonzero;stroke:none"
           d="M 166.824,464.01 C 166.824,464.01 166.808,463.975 166.757,463.975 L 162.473,463.975 C 162.408,463.975 162.374,463.943 162.374,463.943 C 162.374,463.943 162.324,463.927 162.324,463.843 L 162.324,459.28 C 162.324,459.21 162.291,459.195 162.291,459.195 C 162.291,459.195 162.273,459.16 162.223,459.16 L 158.827,459.16 C 158.778,459.16 158.744,459.195 158.744,459.195 C 158.744,459.195 158.727,459.21 158.727,459.293 L 158.727,463.859 C 158.727,463.909 158.678,463.943 158.678,463.943 C 158.678,463.943 158.661,463.975 158.609,463.975 L 154.228,463.975 C 154.144,463.975 154.126,463.993 154.126,463.993 C 154.126,463.993 154.093,464.026 154.093,464.127 L 154.093,467.471 C 154.093,467.504 154.126,467.553 154.126,467.553 C 154.126,467.553 154.144,467.571 154.177,467.571 L 158.661,467.571 C 158.695,467.571 158.695,467.589 158.695,467.589 C 158.695,467.589 158.727,467.604 158.727,467.638 L 158.727,471.633 C 158.727,471.683 158.744,471.718 158.744,471.718 C 158.744,471.718 158.778,471.734 158.877,471.734 L 162.208,471.734 C 162.273,471.734 162.291,471.718 162.291,471.718 C 162.291,471.718 162.324,471.683 162.324,471.618 L 162.324,467.604 L 166.674,467.604 C 166.79,467.604 166.824,467.589 166.824,467.589 C 166.824,467.589 166.874,467.571 166.874,467.471 L 166.874,464.094 C 166.874,464.06 166.824,464.01 166.824,464.01"
           id="path2596" />
        <path
           style="fill:#a7a5a5;fill-rule:nonzero;stroke:none"
           d="M 86.457,454.963 L 150.873,454.963 L 150.873,474.803 L 86.457,474.803 L 86.457,454.963 z "
           id="path2598" />
      </g>
      <path
         style="fill:#ffffff;fill-rule:nonzero;stroke:none"
         d="M 119.55683,480.90432 C 119.54083,481.00732 119.52383,481.03932 119.52383,481.03932 C 119.52383,481.03932 119.50583,481.07332 119.42283,481.07332 L 112.53683,481.07332 C 112.33483,481.07332 112.28683,481.02032 112.28683,481.02032 C 112.28683,481.02032 112.25283,480.95532 112.26983,480.80532 L 113.97383,468.93732 C 113.98983,468.78632 114.02483,468.73832 114.02483,468.73832 C 114.02483,468.73832 114.04183,468.73832 114.20783,468.73832 L 117.33383,468.73832 C 117.41683,468.73832 117.45183,468.75432 117.45183,468.75432 C 117.45183,468.75432 117.46683,468.80132 117.45183,468.87132 L 116.16383,478.14732 C 116.14783,478.24832 116.19683,478.26432 116.19683,478.26432 C 116.19683,478.26432 116.23083,478.28132 116.36483,478.28132 L 119.77383,478.28132 C 119.84183,478.28132 119.87483,478.31432 119.87483,478.31432 C 119.87483,478.31432 119.89283,478.33232 119.89283,478.41432 L 119.55683,480.90432 z M 110.78183,481.09032 L 107.72283,481.09032 C 107.65683,481.12332 107.60483,481.05532 107.60483,481.05532 C 107.60483,481.05532 107.58883,481.03932 107.57283,480.93932 L 107.16883,479.05032 C 107.13583,478.95032 107.10383,478.90032 107.10383,478.90032 C 107.10383,478.90032 107.01983,478.84932 106.91983,478.84932 L 102.94183,478.84932 C 102.85883,478.84932 102.80683,478.90032 102.80683,478.90032 C 102.80683,478.90032 102.74083,478.96632 102.70783,479.06832 L 101.80483,480.98832 C 101.78883,481.03932 101.75483,481.05532 101.75483,481.05532 C 101.75483,481.05532 101.68883,481.07332 101.65483,481.07332 L 98.209829,481.07332 C 98.127829,481.09032 98.092829,481.03932 98.092829,481.03932 C 98.092829,481.03932 98.077829,481.00732 98.127829,480.93932 L 104.19583,468.82032 C 104.22883,468.80132 104.26183,468.75432 104.26183,468.75432 C 104.26183,468.75432 104.29583,468.73832 104.39583,468.73832 L 108.15683,468.73832 C 108.23983,468.73832 108.28883,468.78632 108.28883,468.78632 C 108.28883,468.78632 108.30683,468.80132 108.32483,468.85132 L 110.84783,481.02032 C 110.84783,481.05532 110.83083,481.07332 110.83083,481.07332 C 110.83083,481.07332 110.83083,481.09032 110.78183,481.09032 z M 96.455829,481.07332 L 93.397829,481.07332 C 93.345829,481.07332 93.296829,481.07332 93.296829,481.07332 C 93.296829,481.07332 93.279829,481.05532 93.262829,481.03932 L 89.016829,473.50132 C 88.983829,473.46832 88.967829,473.46832 88.967829,473.46832 C 88.967829,473.46832 88.932829,473.46832 88.932829,473.51732 L 87.880829,480.92332 C 87.862829,481.00732 87.847829,481.02032 87.847829,481.02032 C 87.847829,481.02032 87.812829,481.03932 87.762829,481.03932 L 84.720829,481.03932 C 84.669829,481.03932 84.637829,481.00732 84.637829,481.00732 C 84.637829,481.00732 84.570829,480.93932 84.586829,480.87132 L 86.258829,468.88832 C 86.274829,468.82032 86.307829,468.80132 86.307829,468.80132 C 86.307829,468.80132 86.358829,468.75432 86.409829,468.75432 L 89.801829,468.75432 C 89.852829,468.75432 89.885829,468.78632 89.885829,468.78632 C 89.885829,468.78632 89.919829,468.80132 89.936829,468.85132 L 93.765829,475.57432 C 93.831829,475.70632 93.880829,475.69132 93.880829,475.69132 C 93.880829,475.69132 93.931829,475.69132 93.963829,475.54032 L 94.934829,468.85132 C 94.934829,468.80132 94.968829,468.78632 94.968829,468.78632 C 94.968829,468.78632 94.985829,468.75432 95.035829,468.75432 L 98.227829,468.78632 C 98.293829,468.78632 98.310829,468.80132 98.310829,468.80132 C 98.310829,468.80132 98.327829,468.82032 98.327829,468.85132 L 96.606829,480.93932 C 96.588829,481.00732 96.555829,481.05532 96.555829,481.05532 C 96.555829,481.05532 96.539829,481.07332 96.455829,481.07332 z M 83.082829,481.03932 L 80.107829,481.05532 C 80.040829,481.05532 79.991829,481.02032 79.991829,481.02032 C 79.991829,481.02032 79.973829,481.00732 79.956829,480.88932 L 79.489829,478.96632 C 79.489829,478.91532 79.456829,478.90032 79.456829,478.90032 C 79.456829,478.90032 79.438829,478.90032 79.405829,478.90032 L 75.207829,478.90032 C 75.124829,478.90032 75.076829,478.96632 75.076829,478.96632 C 75.076829,478.96632 75.008829,479.01732 74.958829,479.13332 L 74.123829,480.92332 C 74.089829,480.98832 74.073829,481.00732 74.073829,481.00732 C 74.073829,481.00732 74.023829,481.03932 73.973829,481.03932 L 70.512829,481.03932 C 70.412829,481.05532 70.395829,481.00732 70.395829,481.00732 C 70.395829,481.00732 70.378829,480.95532 70.412829,480.88932 L 76.412829,468.82032 C 76.447829,468.75432 76.496829,468.73832 76.496829,468.73832 C 76.496829,468.73832 76.531829,468.73832 76.614829,468.73832 L 80.442829,468.73832 C 80.507829,468.73832 80.558829,468.78632 80.558829,468.78632 C 80.558829,468.78632 80.575829,468.80132 80.592829,468.85132 L 83.165829,480.95532 C 83.165829,481.00732 83.132829,481.02032 83.132829,481.02032 C 83.132829,481.02032 83.116829,481.03932 83.082829,481.03932 z M 105.74883,472.23032 C 105.74883,472.23032 105.73183,472.23032 105.71683,472.29632 L 104.04483,476.07532 C 104.01083,476.19232 104.02883,476.20832 104.02883,476.20832 C 104.02883,476.20832 104.07783,476.24332 104.11183,476.24332 L 106.58483,476.22632 C 106.60383,476.22632 106.61883,476.22632 106.61883,476.22632 C 106.61883,476.22632 106.63583,476.20832 106.61883,476.16032 L 105.78483,472.28132 C 105.76583,472.23032 105.74883,472.23032 105.74883,472.23032 z M 78.002829,472.28132 C 78.002829,472.28132 77.984829,472.28132 77.967829,472.31432 L 76.295829,476.10832 C 76.261829,476.16032 76.280829,476.19232 76.280829,476.19232 C 76.280829,476.19232 76.295829,476.20832 76.379829,476.20832 L 78.837829,476.22632 C 78.853829,476.22632 78.870829,476.20832 78.870829,476.20832 C 78.870829,476.20832 78.886829,476.19232 78.870829,476.14232 L 78.017829,472.31432 C 78.017829,472.28132 78.002829,472.28132 78.002829,472.28132 z M 69.441829,480.62232 C 69.425829,480.75432 69.359829,480.85632 69.359829,480.85632 C 69.359829,480.85632 69.291829,480.92332 69.175829,480.95532 C 67.571829,481.61032 65.782829,481.39032 65.782829,481.39032 C 62.890829,481.07332 61.051829,479.30032 60.464829,477.01032 C 59.597829,473.58632 61.319829,471.14432 61.736829,470.62532 C 62.755829,469.40532 64.343829,468.53732 65.899829,468.33632 C 67.887829,468.05132 69.359829,468.51932 69.961829,468.72032 C 69.961829,468.72032 70.629829,468.93732 71.130829,469.27232 C 71.382829,469.43832 71.415829,469.50732 71.415829,469.50732 C 71.415829,469.50732 71.431829,469.53732 71.365829,469.80532 L 70.897829,472.26232 C 70.879829,472.36532 70.813829,472.41732 70.813829,472.41732 C 70.813829,472.41732 70.779829,472.43132 70.545829,472.28132 C 69.041829,471.21232 67.286829,471.34632 67.286829,471.34632 C 65.947829,471.42832 64.394829,472.13132 63.926829,473.90032 C 63.507829,475.47432 63.942829,476.79532 64.878829,477.58132 C 65.514829,478.13232 66.499829,478.41432 67.536829,478.36532 C 68.672829,478.28132 69.576829,477.83132 69.508829,477.86332 C 69.508829,477.86332 69.560829,477.84532 69.610829,477.83132 C 69.843829,477.71532 69.893829,477.73032 69.893829,477.73032 C 69.893829,477.73032 69.944829,477.78032 69.910829,477.92832 L 69.441829,480.62232"
         id="path2600" />
    </g>
  </g>
</svg>
