<svg version="1.2" xmlns="http://www.w3.org/2000/svg" viewBox="0 0 5043 2021" width="5043" height="2021">
	<title>Canal+ Live</title>
	<defs>
		<linearGradient id="g1" x2="1" gradientUnits="userSpaceOnUse" gradientTransform="matrix(1562,0,0,17,2983,1932.5)">
			<stop offset="0" stop-color="#f2f3f7"/>
			<stop offset="1" stop-color="#bababa"/>
		</linearGradient>
		<linearGradient id="g2" x2="1" gradientUnits="userSpaceOnUse" gradientTransform="matrix(1562,0,0,17,2983,1852.5)">
			<stop offset="0" stop-color="#f2f3f7"/>
			<stop offset="1" stop-color="#bababa"/>
		</linearGradient>
		<linearGradient id="g3" x2="1" gradientUnits="userSpaceOnUse" gradientTransform="matrix(1562,0,0,17,2983,1763.5)">
			<stop offset="0" stop-color="#f2f3f7"/>
			<stop offset="1" stop-color="#bababa"/>
		</linearGradient>
		<linearGradient id="g4" x2="1" gradientUnits="userSpaceOnUse" gradientTransform="matrix(1562,0,0,17,2983,1683.5)">
			<stop offset="0" stop-color="#f2f3f7"/>
			<stop offset="1" stop-color="#bababa"/>
		</linearGradient>
		<linearGradient id="g5" x2="1" gradientUnits="userSpaceOnUse" gradientTransform="matrix(1562,0,0,17,2983,1595.5)">
			<stop offset="0" stop-color="#f2f3f7"/>
			<stop offset="1" stop-color="#bababa"/>
		</linearGradient>
		<linearGradient id="g6" x2="1" gradientUnits="userSpaceOnUse" gradientTransform="matrix(1562,0,0,17,2983,1515.5)">
			<stop offset="0" stop-color="#f2f3f7"/>
			<stop offset="1" stop-color="#bababa"/>
		</linearGradient>
		<linearGradient id="g7" x2="1" gradientUnits="userSpaceOnUse" gradientTransform="matrix(1562,0,0,17,2983,1426.5)">
			<stop offset="0" stop-color="#f2f3f7"/>
			<stop offset="1" stop-color="#bababa"/>
		</linearGradient>
		<linearGradient id="g8" x2="1" gradientUnits="userSpaceOnUse" gradientTransform="matrix(1562,0,0,17,2983,1346.5)">
			<stop offset="0" stop-color="#f2f3f7"/>
			<stop offset="1" stop-color="#bababa"/>
		</linearGradient>
	</defs>
	<style>
		.s0 { fill: #000000 } 
		.s1 { fill: #ffffff } 
		.s2 { fill: url(#g1) } 
		.s3 { fill: url(#g2) } 
		.s4 { fill: url(#g3) } 
		.s5 { fill: url(#g4) } 
		.s6 { fill: url(#g5) } 
		.s7 { fill: url(#g6) } 
		.s8 { fill: url(#g7) } 
		.s9 { fill: url(#g8) } 
	</style>
	<g id="Dossier 1">
		<path id="path2502" class="s0" d="m5042.6 0v1260.6h-5041.7v-1260.6z"/>
		<path id="path2503" class="s1" d="m4827.4 685.7c0 0-1 2-4 2h-272c-4.6 0-6.6 2.3-6.6 2.3 0 0-3 1-3 6.3v289.9c0 4.3-2 5.3-2 5.3 0 0-1.3 2-4.6 2h-215.8c-3.3 0-5.3-2-5.3-2 0 0-0.6-1-0.6-6.3v-289.9c0-3.3-3.4-5.3-3.4-5.3 0 0-1.3-2.3-4.3-2.3h-278.3c-5.3 0-6.6-0.6-6.6-0.6 0 0-2-2.4-2-9v-212.1c0-2.3 2-5.6 2-5.6 0 0 1.3-0.7 3.3-0.7h284.6c2.3 0 2.3-1.3 2.3-1.3 0 0 2.4-1 2.4-3v-254.2c0-2.6 0.6-4.9 0.6-4.9 0 0 2-1.4 8.6-1.4h211.5c4.3 0 5.6 1.4 5.6 1.4 0 0 2 2.3 2 6.3v254.8h276c7.3 0 9.6 1 9.6 1 0 0 3.3 1.3 3.3 7.6v214.4c0 2.4-3.3 5.3-3.3 5.3z"/>
		<path id="path2505" fill-rule="evenodd" class="s1" d="m3985 986.2c-1.4 6.3-2.4 8.3-2.4 8.3 0 0-1 2.3-6.3 2.3h-437.5c-12.9 0-16.2-3.3-16.2-3.3 0 0-2-4.6-1-13.9l108.6-753.9c0.6-9.6 3.3-12.6 3.3-12.6h210.1c5.3 0 7.3 1 7.3 1 0 0 1 3 0 7.3l-81.7 589.4c-1 6.6 2 7.3 2 7.3 0 0 2.3 1.3 10.6 1.3h216.7c4.3 0 6.6 2 6.6 2 0 0 1 1 1 6.3zm-557.9 11.2h-194.3c-4.3 2.7-7.6-2-7.6-2 0 0-1-0.9-2-7.2l-25.5-119.8c-2-6.7-4.3-10-4.3-10 0 0-5.3-2.9-11.6-2.9h-253.2c-4.9 0-8.2 2.9-8.2 2.9 0 0-4.3 4.3-6.3 10.6l-57.6 122.1c-1.3 3.4-3 4.3-3 4.3 0 0-4.3 1.4-6.6 1.4h-218.8c-5.2 0.6-7.2-2.3-7.2-2.3 0 0-1.4-2 2-6.3l385.5-770.1c2-1 4.3-4 4.3-4 0 0 2.3-1 8.6-1h239c5.3 0 8.6 3 8.6 3 0 0 1 1 1.9 4.3l160.6 773.1c0 1.9-1 3.3-1 3.3 0 0 0 0.6-3.3 0.6zm-910.5-0.6h-200.9c0 0-1-1.4-2-2.3l-269.7-478.9c-2.3-2.3-3.3-2.3-3.3-2.3 0 0-2 0-2 3.3l-66.8 470.6c-1.3 5.3-2.3 6.3-2.3 6.3 0 0-2.4 1-5.3 1h-193.6c-3.3 0-5-2-5-2 0 0-4.3-4.3-3.6-8.6l106.5-761.5c1-4.3 3-5.3 3-5.3 0 0 3.3-3 6.6-3h215.8c3 0 5 2 5 2 0 0 2.3 1 3.3 4.3l243.2 426.6c4.3 8.9 7.3 7.6 7.3 7.6 0 0 3.6 0 5.6-9.6l61.6-424.6c0-3.3 2.3-4.3 2.3-4.3 0 0 1-2 4-2l203.2 2c3.9 0 5.3 1 5.3 1 0 0 0.6 1 0.6 3.3l-109.2 767.8c-1 4.3-3 7.2-3 7.2 0 0-1.3 1.4-6.6 1.4zm-849.9-2.3l-189.3 0.9c-4.3 0-7.2-1.9-7.2-1.9 0 0-1.4-1-2.4-8.6l-29.4-122.2c0-2.9-2.3-4.3-2.3-4.3h-269.4c-5.6 0-8.6 4.3-8.6 4.3 0 0-4.3 3.3-7.6 11l-53 113.5c-2.3 3.9-3.3 5.3-3.3 5.3 0 0-3.3 2-6.3 2h-220.1c-6.2 0.9-7.2-2-7.2-2 0 0-1-3.7 1-7.6l381.2-766.8c2.3-4 5.3-5 5.3-5h250.9c3.9 0 7.2 3 7.2 3 0 0 1.4 1 2 4.3l163.8 768.4c0 3.7-1.9 4.7-1.9 4.7 0 0-1.4 1-3.4 1zm1440.3-559.7c0 0-0.6 0-1.6 4l-106.3 240.6c-2.3 7.3-1.3 8.3-1.3 8.3 0 0 3.3 2 5.6 2l157.2-1h2c0 0 1-1 0-4l-53.3-246.9c-0.9-3-2.3-3-2.3-3zm-1763.3 3c0 0-1.3 0-2.3 2.3l-105.9 240.9c-2 3.7-1.3 5.7-1.3 5.7 0 0 1.3 1 6.6 1l155.9 1c1.3 0 2.3-1 2.3-1 0 0 1-1 0-4l-54.3-243.6c0-2.3-1-2.3-1-2.3zm-544 530.2c-1 8.6-5 14.9-5 14.9 0 0-4.3 4.3-11.9 5.9-101.9 41.7-215.5 27.8-215.5 27.8-184-19.8-300.8-132.7-338.2-278-55.3-217.7 54.3-372.9 80.8-405.7 64.8-77.5 166.1-132.7 264.7-145.6 126.4-18.2 220.1 11.6 258.2 24.5 0 0 42.7 13.9 74.8 35 15.8 11 17.5 15.3 17.5 15.3 0 0 1 1.6-3 18.8l-29.8 155.9c-1.3 6.6-5.3 9.9-5.3 9.9 0 0-2.3 0.7-16.8-8.9-95.7-67.8-207.2-59.2-207.2-59.2-85.1 5.3-184 49.9-213.8 162.5-26.5 99.9 1.3 183.6 60.6 233.9 40.7 34.5 103.2 52.7 169.1 49.7 72.1-5.3 129.4-34.1 125.4-32.1 0 0 3-1 6.3-2 14.9-7.6 18.2-6.6 18.2-6.6 0 0 3 3.3 1 13.2z"/>
		<path id="path2507" class="s1" d="m4543.3 1260.1v760.6h-1559.1v-760.6z"/>
		<path id="Forme 1" class="s2" d="m4545 1924v17h-1562v-17z"/>
		<path id="Forme 1 copy" class="s3" d="m4545 1844v17h-1562v-17z"/>
		<path id="Forme 1 copy 2" class="s4" d="m4545 1755v17h-1562v-17z"/>
		<path id="Forme 1 copy 3" class="s5" d="m4545 1675v17h-1562v-17z"/>
		<path id="Forme 1 copy 4" class="s6" d="m4545 1587v17h-1562v-17z"/>
		<path id="Forme 1 copy 5" class="s7" d="m4545 1507v17h-1562v-17z"/>
		<path id="Forme 1 copy 6" class="s8" d="m4545 1418v17h-1562v-17z"/>
		<path id="Forme 1 copy 7" class="s9" d="m4545 1338v17h-1562v-17z"/>
		<path id="Live" class="s0" d="m3395.5 1757.5h-151.2l45.5-370.3h-120.2l-58.3 474.8h271.6zm226.6-370.3h-120.3l-58.2 474.8h120.3zm529.8 0h-134.8l-121.5 238c-5.7 11.4-14.6 30.4-19 41.1-1.9 5.7-4.5 13.3-8.3 24.1-3.1-39.3-5.7-50.7-14.5-86.7l-54.5-216.5h-127.8l124 474.7h102zm309.5 0h-260.2l-58.2 474.8h265.2l13.3-104.4h-145.6l9.5-79.8h135.5l12.7-104.4h-134.9l10.2-81.7h139.9z"/>
	</g>
</svg>