<?xml version="1.0" encoding="utf-8"?>
<!-- Generator: Adobe Illustrator 15.0.0, SVG Export Plug-In . SVG Version: 6.00 Build 0)  -->
<!DOCTYPE svg PUBLIC "-//W3C//DTD SVG 1.1//EN" "http://www.w3.org/Graphics/SVG/1.1/DTD/svg11.dtd">
<svg version="1.1" xmlns="http://www.w3.org/2000/svg" xmlns:xlink="http://www.w3.org/1999/xlink" x="0px" y="0px" width="400px"
	 height="220px" viewBox="0 0 400 220" enable-background="new 0 0 400 220" xml:space="preserve">
<g id="Calque_5">
	<rect width="400" height="220"/>
</g>
<g id="Calque_3">
	<path display="none" fill="#808080" d="M323.499,86.578c-5.487-24.193-47.665-36.287-94.207-27.01
		c-46.542,9.276-79.824,36.409-74.337,60.603c5.487,24.194,47.665,36.287,94.209,27.011
		C295.703,137.906,328.986,110.773,323.499,86.578z"/>
	<path display="none" fill="#999999" d="M379.023,84.302c-3.031-15.041-13.54-27.162-31.293-35.622
		c-28.749-15.908-75.584-21.04-125.501-11.091c-75.866,15.12-130.599,59.444-121.173,98.785
		c11.147,46.522,94.002,59.175,157.663,46.488C316.539,171.338,389.292,135.247,379.023,84.302z M249.164,147.182
		c-46.544,9.276-88.722-2.816-94.209-27.011c-5.487-24.194,27.795-51.326,74.337-60.603c46.542-9.277,88.72,2.816,94.207,27.01
		C328.986,110.773,295.703,137.906,249.164,147.182z"/>
	<path fill="#FCEE21" d="M332.558,155.867l-29.166-31.474c-5.832,4.408-12.737,8.466-20.478,12.015l15.283,35.311
		C310.188,167.314,321.907,162.004,332.558,155.867z"/>
	<path fill="#0071BC" d="M379.996,93.547L324,93.827c-0.535,6.789-3.823,13.646-9.354,20.132l57.937,5.791
		C377.38,111.615,380.074,102.859,379.996,93.547z"/>
	<path fill="#2E5A80" d="M349.394,49.515L306.566,66.54c6.185,3.472,10.967,7.77,13.965,12.77l52.678-9.484
		C368.124,61.761,360.168,54.933,349.394,49.515z"/>
	<path fill="#000019" d="M229.202,59.588c0.029-0.007,0.06-0.014,0.09-0.02c2.969-0.592,5.918-1.094,8.844-1.514l-0.817-23.025
		c-4.109,0.58-8.251,1.264-12.414,2.051L229.202,59.588z"/>
	<path fill="#F04637" d="M118.514,88.186l42.223,8.596c2.929-4.208,6.798-8.303,11.479-12.169l-37.729-10.459
		C128.455,78.635,123.096,83.336,118.514,88.186z"/>
	<path fill="#F04637" d="M160.298,181.845l20.216-37.646c-4.657-1.754-8.802-3.872-12.361-6.306l-22.183,39.679
		C150.535,179.204,155.324,180.626,160.298,181.845z"/>
	
		<linearGradient id="SVGID_1_" gradientUnits="userSpaceOnUse" x1="149.0776" y1="172.4385" x2="309.383" y2="144.1723" gradientTransform="matrix(0.9994 -0.0349 0.0349 0.9994 -3.6157 8.5127)">
		<stop  offset="0.2727" style="stop-color:#F04637"/>
		<stop  offset="0.85" style="stop-color:#FCEE21"/>
	</linearGradient>
	<path fill="url(#SVGID_1_)" d="M258.72,182.862c18.456-3.681,38.431-9.864,56.745-18.232l-24.017-32.515
		c-11.834,6.57-26.273,11.876-42.284,15.066c-29.945,5.969-58.065,3.164-75.788-6.092c-0.115-0.061-0.231-0.09-0.346-0.09h-0.025
		l-20.748,38.727C183.639,189.244,224.028,189.776,258.72,182.862z"/>
	
		<linearGradient id="SVGID_2_" gradientUnits="userSpaceOnUse" x1="304.2148" y1="158.1924" x2="364.4418" y2="95.8255" gradientTransform="matrix(0.9994 -0.0349 0.0349 0.9994 -3.6157 8.5127)">
		<stop  offset="0.1333" style="stop-color:#FCEE21"/>
		<stop  offset="0.4485" style="stop-color:#009245"/>
		<stop  offset="0.6909" style="stop-color:#0071BC"/>
	</linearGradient>
	<path fill="url(#SVGID_2_)" d="M378.71,104.851l-57.198-1.326c-0.345,0.766-0.78,1.557-1.28,2.361
		c-5.085,9.408-14.96,18.434-28.173,25.877c-0.315,0.222-0.5,0.348-0.5,0.348l23.948,32.499
		C346.493,150.441,372.71,130.016,378.71,104.851z"/>
	
		<linearGradient id="SVGID_3_" gradientUnits="userSpaceOnUse" x1="346.3613" y1="108.2559" x2="350.3859" y2="62.2543" gradientTransform="matrix(0.9994 -0.0349 0.0349 0.9994 -3.6157 8.5127)">
		<stop  offset="0.2606" style="stop-color:#0071BC"/>
		<stop  offset="0.5" style="stop-color:#2E5A80"/>
	</linearGradient>
	<path fill="url(#SVGID_3_)" d="M379.023,84.302c-1.932-9.581-6.907-17.971-14.847-24.991L314.82,72.406
		c4.452,4.066,7.461,8.71,8.675,14.06c1.267,5.582,0.464,11.815-2.105,16.844l0.114-0.004l57.201,1.436
		C380.266,98.201,380.465,91.455,379.023,84.302z"/>
	
		<linearGradient id="SVGID_4_" gradientUnits="userSpaceOnUse" x1="241.4756" y1="20.917" x2="346.7075" y2="91.8968" gradientTransform="matrix(0.9994 -0.0349 0.0349 0.9994 -3.6157 8.5127)">
		<stop  offset="0.2667" style="stop-color:#000019"/>
		<stop  offset="0.6667" style="stop-color:#2E5A80"/>
	</linearGradient>
	<path fill="url(#SVGID_4_)" d="M364.177,59.311c-4.525-4-10.001-7.56-16.446-10.631c-27.437-15.18-71.533-20.534-118.875-12.345
		L233,58.817v0.002c35-6.029,66.543-0.192,81.635,13.591l0,0L364.177,59.311L364.177,59.311z"/>
	
		<linearGradient id="SVGID_5_" gradientUnits="userSpaceOnUse" x1="128.252" y1="82.0996" x2="235.2505" y2="47.3337" gradientTransform="matrix(0.9994 -0.0349 0.0349 0.9994 -3.6157 8.5127)">
		<stop  offset="0.4848" style="stop-color:#F04637"/>
		<stop  offset="0.903" style="stop-color:#000019"/>
	</linearGradient>
	<path fill="url(#SVGID_5_)" d="M167.645,88.708c13.221-12.919,35.306-23.89,61.647-29.14c1.362-0.271,2.719-0.521,4.072-0.755
		l0.005-0.003l-4.328-22.479l0,0c-2.266,0.393-4.533,0.804-6.812,1.258c-40.296,8.031-74.63,24.301-96.556,43.688L167.645,88.708z"
		/>
	<path fill="#F04637" d="M154.955,120.171c-2.382-10.501,2.548-21.556,12.689-31.463l-41.971-7.431l0,0
		c-19.353,17.112-29.037,36.652-24.617,55.097c5.073,21.171,24.996,35.324,51.201,43.271l0,0l21.119-38.637
		C163.553,135.878,156.912,128.8,154.955,120.171z"/>
</g>
<g id="Calque_6">
	<path id="path27" fill="#FFFFFF" d="M76.379,79.457c0-0.642-0.158-0.795-0.729-1.196c-5.263-3.359-13.122-5.435-20.569-5.435
		C34.745,72.826,20,86.813,20,106.156c0,18.712,13.365,31.344,32.966,31.344c5.43,0,9.805-0.962,12.886-2.803
		c0.811-0.474,0.89-0.643,1.131-2.313l1.62-11.036c0.083-0.722,0.083-1.034,0.083-1.195c0-0.484-0.083-0.718-0.241-0.718
		c-0.164,0-0.407,0.074-0.726,0.233c-0.489,0.243-1.056,0.398-1.787,0.646c-4.298,1.195-8.265,1.996-11.422,1.996
		c-9.481,0-16.362-7.037-16.362-16.708c0-10.48,7.772-17.747,18.949-17.747c4.705,0,10.293,1.434,13.94,3.675
		c1.462,0.958,1.859,1.117,2.185,1.117c0.483,0,0.57-0.075,0.889-1.753l2.021-9.997C76.3,80.098,76.379,79.775,76.379,79.457
		 M121.504,74.901h-18.713c-1.137,0-1.376,0.159-1.865,1.119l-28.837,57.552c-0.081,0.249-0.162,0.482-0.162,0.724
		c0,0.328,0.241,0.566,0.649,0.566h15.712c1.054,0,1.62-0.324,1.945-0.962l4.052-8.231c0.405-0.801,0.728-0.963,1.62-0.963h19.764
		c0.649,0,1.216,0.405,1.302,1.04l2.104,8.309c0.16,0.483,0.563,0.808,1.135,0.808h14.014c0.485,0,0.727-0.238,0.727-0.729v-0.313
		l-12.076-57.637C122.635,75.223,122.313,74.901,121.504,74.901 M109.107,92.411c0.086,0,0.325,0.321,0.407,0.802l4.131,17.021
		c0.078,0.326,0.162,0.559,0.162,0.721c0,0.163-0.245,0.32-0.814,0.32h-11.744c-0.323,0-0.568-0.079-0.568-0.243
		c0.083-0.239,0.083-0.239,0.166-0.472l7.856-17.588C108.864,92.647,109.03,92.411,109.107,92.411 M142.65,134.055
		c0,0.725,0.157,0.808,1.376,0.808h13.523c0.812,0,1.212-0.324,1.297-1.122l4.859-34.22c0.084-0.559,0.16-1.033,0.248-1.033
		c0.076,0,0.319,0.318,0.644,0.798l19.846,34.456c0.485,0.884,0.976,1.122,1.946,1.122h13.851c1.055,0,1.459-0.238,1.535-0.962
		l8.105-57.88v-0.241c0-0.719-0.243-0.878-1.053-0.878h-14.339c-1.215,0-1.457,0.241-1.621,1.197l-4.369,31.015
		c-0.088,0.73-0.247,1.205-0.404,1.205c-0.167,0-0.407-0.32-0.735-0.881L169.218,76.02c-0.571-1.038-0.729-1.119-1.946-1.119
		h-15.387c-0.735,0-1.219,0.321-1.299,1.033l-7.935,57.806V134.055z M208.828,134.461c0,0.236,0.241,0.401,0.643,0.401h15.557
		c0.895,0,1.384-0.238,1.705-0.889l4.372-8.391c0.411-0.797,0.647-0.877,1.707-0.877h18.708c1.304,0,1.46,0.162,1.698,1.277
		l1.544,7.757c0.161,0.884,0.57,1.122,1.539,1.122h13.851c0.732,0,0.975-0.083,0.975-0.483c0-0.245,0-0.558-0.081-0.807
		l-12.234-57.474c-0.24-1.038-0.41-1.197-1.459-1.197h-17.822c-1.051,0-1.371,0.159-1.775,1.033l-28.685,57.806
		C208.904,134.055,208.828,134.296,208.828,134.461 M245.769,91.687c0.087,0,0.243,0.325,0.322,0.724l3.896,17.505
		c0,0.241,0.078,0.559,0.078,0.8c0,0.316-0.324,0.56-0.893,0.56h-10.936c-0.807,0-1.049-0.157-1.049-0.482
		c0-0.233,0.074-0.476,0.158-0.719l7.937-17.663C245.528,91.936,245.69,91.687,245.769,91.687 M286.274,76.184l-8.426,57.637v0.402
		c0,0.474,0.164,0.639,0.732,0.639h34.02c0.81,0,1.131-0.238,1.215-0.962l1.617-11.431v-0.325c0-0.635-0.156-0.796-0.805-0.796
		h-16.276c-0.735,0-0.979-0.241-0.979-0.879v-0.155l6.075-44.38v-0.316c0-0.558-0.164-0.717-0.812-0.717h-15.311
		C286.683,74.901,286.434,75.223,286.274,76.184 M359.025,111.196h20.087c0.564,0,0.888-0.324,0.888-0.962V93.928
		c0-0.8-0.243-1.04-0.888-1.04H358.78c-0.648,0-0.813-0.241-0.813-1.121V73.303c0-0.562-0.325-0.803-1.06-0.803h-16.518
		c-0.486,0-0.818,0.326-0.818,0.803v18.465c0,0.804-0.234,1.121-0.971,1.121h-21.708c-0.569,0-0.893,0.239-0.893,0.877v16.391
		c0,0.715,0.323,1.04,0.976,1.04h21.546c0.737,0,1.05,0.32,1.05,1.196V133.9c0,0.638,0.332,0.962,0.899,0.962h16.602
		c0.656,0,0.895-0.324,0.895-1.122v-21.501C357.968,111.359,358.132,111.196,359.025,111.196"/>
</g>
</svg>
