<?xml version="1.0" encoding="UTF-8" standalone="no"?>
<!-- Created with Inkscape (http://www.inkscape.org/) -->

<svg
   xmlns:dc="http://purl.org/dc/elements/1.1/"
   xmlns:cc="http://creativecommons.org/ns#"
   xmlns:rdf="http://www.w3.org/1999/02/22-rdf-syntax-ns#"
   xmlns:svg="http://www.w3.org/2000/svg"
   xmlns="http://www.w3.org/2000/svg"
   xmlns:xlink="http://www.w3.org/1999/xlink"
   xmlns:sodipodi="http://sodipodi.sourceforge.net/DTD/sodipodi-0.dtd"
   xmlns:inkscape="http://www.inkscape.org/namespaces/inkscape"
   width="540"
   height="186"
   id="svg2"
   version="1.1"
   inkscape:version="0.47 r22583">
  <g
     inkscape:label="Layer 1"
     inkscape:groupmode="layer"
     id="layer1"
     transform="translate(-428.31545,-131.64578)">
    <path
       id="path2892"
       d="m 935.88987,213.24607 c -0.40456,-8.41406 -1.11643,-23.30107 -1.64547,-34.29031 l 22.97043,-1.13977 -2.00724,-42.24535 -87.77775,4.24787 c -5.84278,-3.42319 -12.66972,-5.57825 -20.31356,-6.19676 -19.42275,-1.57545 -37.10278,8.96255 -45.71523,25.30442 l -60.27548,-2.97195 -0.56016,11.53772 c -8.2429,-5.37986 -16.82812,-6.05283 -23.06379,-5.99448 -0.0272,0 -36.20808,0.42401 -36.20808,0.42401 l 0.0895,7.88891 c -6.31346,-3.98724 -13.67333,-6.05283 -20.85815,-6.05672 -11.44437,0 -23.3322,5.19314 -30.71152,15.10874 -0.0389,-0.0506 -0.0778,-0.0973 -0.12059,-0.14004 -4.97919,-5.46933 -14.23349,-11.87616 -30.06189,-11.36657 l -21.14601,0.66519 -0.49792,-9.20762 -53.93479,2.96807 -1.37706,-25.78289 -92.53911,5.04532 9.44102,173.33432 92.51577,-5.09978 -0.96472,-15.77783 255.46769,0 -1.19812,14.58749 93.19652,7.7372 4.29455,-47.97532 20.65588,46.13146 30.90212,-1.31093 32.04579,-100.5525 -30.6026,1.1281"
       style="fill:#231f20;fill-rule:nonzero;stroke:none" />
    <path
       style="fill:none;stroke:#ffffff;stroke-width:3.64103603;stroke-linecap:butt;stroke-linejoin:miter;stroke-miterlimit:4"
       d="m 935.88987,213.24607 c -0.40456,-8.41406 -1.11643,-23.30107 -1.64547,-34.29031 l 22.97043,-1.13977 -2.00724,-42.24535 -87.77775,4.24787 c -5.84278,-3.42319 -12.66972,-5.57825 -20.31356,-6.19676 -19.42275,-1.57545 -37.10278,8.96255 -45.71523,25.30442 l -60.27548,-2.97195 -0.56016,11.53772 c -8.2429,-5.37986 -16.82812,-6.05283 -23.06379,-5.99448 -0.0272,0 -36.20808,0.42401 -36.20808,0.42401 l 0.0895,7.88891 c -6.31346,-3.98724 -13.67333,-6.05283 -20.85815,-6.05672 -11.44437,0 -23.3322,5.19314 -30.71152,15.10874 -0.0389,-0.0506 -0.0778,-0.0973 -0.12059,-0.14004 -4.97919,-5.46933 -14.23349,-11.87616 -30.06189,-11.36657 l -21.14601,0.66519 -0.49792,-9.20762 -53.93479,2.96807 -1.37706,-25.78289 -92.53911,5.04532 9.44102,173.33432 92.51577,-5.09978 -0.96472,-15.77783 255.46769,0 -1.19812,14.58749 93.19652,7.7372 4.29455,-47.97532 20.65588,46.13146 30.90212,-1.31093 32.04579,-100.5525 -30.6026,1.1281 z"
       stroke-miterlimit="4"
       id="path2896" />
    <path
       id="path2898"
       d="m 515.50582,288.96484 -0.56016,-10.34739 c -0.0778,-1.46653 -0.72354,-2.80858 -1.82052,-3.78885 -1.10087,-0.98417 -2.50516,-1.48209 -3.96391,-1.40429 l -30.06577,1.65714 c -1.14366,0.0583 -2.24842,-0.32676 -3.10422,-1.10087 -0.85969,-0.76633 -1.36928,-1.81663 -1.42763,-2.96029 l -1.73105,-31.47007 c -0.0661,-1.13976 0.32287,-2.24452 1.0892,-3.10421 0.77411,-0.85969 1.8283,-1.35761 2.96807,-1.41596 l 24.95432,-1.34983 c 1.45875,-0.0817 2.80469,-0.72743 3.78886,-1.82441 0.98417,-1.09309 1.48209,-2.50126 1.40429,-3.96001 l -0.5057,-9.19595 c -0.0778,-1.46264 -0.72354,-2.80858 -1.81663,-3.78886 -1.09698,-0.98806 -2.50905,-1.48209 -3.9678,-1.40429 l -24.96599,1.37317 c -1.13977,0.0661 -2.24842,-0.32676 -3.10422,-1.09309 -0.85968,-0.77022 -1.36927,-1.8244 -1.43151,-2.96417 l -1.7116,-31.44673 c -0.12837,-2.36901 1.69604,-4.39958 4.06115,-4.53962 l 30.07356,-1.6338 c 3.02642,-0.15949 5.36041,-2.7619 5.19314,-5.78832 l -0.48236,-9.15705 c -0.0817,-1.46652 -0.72353,-2.80468 -1.82051,-3.79274 -1.09698,-0.97639 -2.50127,-1.4782 -3.96391,-1.4004 l -50.20039,2.73467 c -3.03031,0.17116 -5.36042,2.76578 -5.19315,5.79998 l 7.1148,130.74276 c 0.0778,1.46263 0.72743,2.80857 1.8283,3.79274 1.0892,0.98028 2.50127,1.4782 3.96391,1.39651 l 50.20817,-2.77746 c 3.02642,-0.17116 5.35653,-2.77356 5.18926,-5.78831"
       style="fill:#ffffff;fill-rule:nonzero;stroke:none" />
    <path
       id="path2900"
       d="m 650.59759,255.52255 c 0.0117,6.90085 4.51239,10.16456 9.73277,10.16067 5.24371,0 9.73666,-3.27149 9.76,-10.17234 l -0.035,-53.12567 c 0,-6.90864 -4.52018,-10.15678 -9.74444,-10.15289 -5.22038,0.008 -9.76389,3.24425 -9.73666,10.15289 l 0.0233,53.13734 z m -14.45134,-53.114 c 0.0117,-16.38078 12.4441,-24.59256 24.15299,-24.59256 11.72833,0.008 24.14909,8.18844 24.17243,24.58089 l 0.0117,53.09066 c -0.008,16.39244 -12.42854,24.60033 -24.15687,24.60033 -11.72056,0 -24.1491,-8.18066 -24.1491,-24.57699 l -0.0311,-53.10233"
       style="fill:#ffffff;fill-rule:nonzero;stroke:none" />
    <path
       id="path2902"
       d="m 600.69283,226.32813 -4.87027,0.15949 c -1.76217,-0.0389 -3.2676,-1.40818 -3.4232,-3.20147 l -0.004,0 -0.80523,-24.72092 c 0.0428,-1.75828 1.40818,-3.25593 3.20147,-3.41153 l 0,-0.004 4.18563,-0.14393 c 10.58468,-0.33454 12.44021,5.12702 12.79031,15.27602 0.31509,10.0323 -1.04252,15.71558 -11.07482,16.04623 z m 29.52896,51.06786 0.004,0 -14.74697,-39.35119 c -0.73132,-1.94111 -0.0973,-2.94084 1.29536,-3.90167 l -0.008,-0.008 c 7.2743,-5.41098 9.72499,-13.45938 9.39434,-24.04406 -0.63017,-19.46554 -9.27375,-29.21776 -26.35472,-28.66927 l -19.85064,0.63018 c -1.79718,0.1556 -3.16257,1.66492 -3.19758,3.42708 l 3.04587,93.92395 c 0.1556,1.78551 1.65324,3.15868 3.4193,3.19369 l 7.77221,-0.25285 c 1.79718,-0.14782 3.15868,-1.65325 3.19758,-3.41542 l -1.17478,-36.53484 c 0.14393,-1.66492 1.47042,-3.04198 3.18591,-3.19758 l 2.4857,-0.0856 -0.004,0 c 0.0233,0 0.0389,0 0.0622,0 l 0.46291,-0.0195 c 1.61046,0.008 2.61797,0.83245 3.44265,3.20146 l 12.53357,35.97079 c 0.59906,1.71938 1.7466,3.06143 3.37651,3.18591 l 9.84558,-0.33065 c 1.78162,-0.23729 2.62964,-1.63769 1.81274,-3.72273"
       style="fill:#ffffff;fill-rule:nonzero;stroke:none" />
    <path
       id="path2904"
       d="m 568.50701,254.3361 c 0.74299,13.50995 -9.43713,24.72481 -22.66312,25.45613 -13.23765,0.7391 -24.55754,-9.32432 -25.3122,-22.84205 l -4.18174,-76.62125 c -0.10892,-1.9839 1.42762,-3.69939 3.41152,-3.80831 l 7.61272,-0.42012 c 1.97612,-0.1167 3.6955,1.41596 3.80053,3.39986 l 3.90945,71.59148 c 0.10503,1.97612 0.83245,5.0959 1.61434,6.92419 0,0 3.09255,7.22373 8.33626,6.94754 5.22816,-0.28786 8.95088,-3.99114 8.56577,-11.26154 l -4.10783,-75.2014 c -0.10503,-1.9839 1.42763,-3.69549 3.40764,-3.8083 l 7.62439,-0.42012 c 1.98,-0.10503 3.6916,1.42374 3.80052,3.40763 l 4.18175,76.65626"
       style="fill:#ffffff;fill-rule:nonzero;stroke:none" />
    <path
       id="path2906"
       d="m 717.92174,188.70798 -4.23231,0.0584 c -1.90999,0.0778 -3.45821,1.57156 -3.60992,3.47377 0,0.0156 0.32676,28.50589 0.32676,28.50589 0.0856,1.96833 1.68437,3.55545 3.64493,3.62547 0.008,0 3.70327,-0.0389 3.70327,-0.0389 12.38964,-0.12837 12.31573,-7.53881 12.21848,-17.79284 -0.1167,-9.66275 -0.22562,-17.96789 -12.05121,-17.83174 z m -21.47666,87.62604 c 0,-0.16338 -1.0892,-96.34741 -1.10087,-97.31991 0.17116,-1.69604 1.59879,-3.0342 3.31038,-3.10811 0.004,0 18.81202,-0.21005 18.81202,-0.21005 8.64746,-0.0856 14.40466,2.0189 19.2477,7.02533 4.98309,5.15813 6.81138,11.48715 6.95531,24.20355 0.10114,8.84974 -0.51736,15.08929 -3.96779,20.81926 -4.31012,7.30152 -11.29266,10.89977 -21.3483,10.98924 l -4.04948,0.0467 c -2.07726,0.0856 -3.69939,1.84385 -3.62159,3.92111 -0.0233,-0.0156 0.34621,33.46174 0.34621,33.46174 -0.0661,1.70771 -1.41985,3.13145 -3.14312,3.29094 0.008,0 -8.3207,0.0972 -8.3207,0.0972 -1.65713,-0.1556 -3.01085,-1.54433 -3.11977,-3.21703"
       style="fill:#ffffff;fill-rule:nonzero;stroke:none" />
    <path
       id="path2908"
       d="m 759.09346,171.13298 39.38231,1.88276 c 1.94889,0.0934 3.45432,1.75828 3.36485,3.71494 l -0.34621,7.1965 c -0.0467,0.94526 -0.45513,1.81273 -1.15922,2.45458 -0.70409,0.63796 -1.61046,0.96472 -2.55184,0.91804 l -23.59671,-1.14755 c -1.11254,-0.0545 -2.17062,0.33065 -2.98363,1.07753 -0.82856,0.74688 -1.31092,1.76606 -1.36149,2.86693 l -1.18256,24.68202 c -0.11281,2.27954 1.65714,4.22843 3.93667,4.33735 l 19.59002,0.95305 c 0.94916,0.0467 1.80885,0.45513 2.44681,1.15921 0.64185,0.70409 0.96861,1.61046 0.92971,2.55573 l -0.35788,7.15759 c -0.10114,1.94889 -1.75828,3.46599 -3.71106,3.36874 l -19.58224,-0.92971 c -2.28731,-0.10892 -4.23231,1.66492 -4.34512,3.94446 l -1.18256,24.68202 c -0.0545,1.09698 0.32676,2.16284 1.06586,2.98752 0.74688,0.8169 1.76995,1.29536 2.87082,1.34982 l 23.60838,1.15533 c 0.93749,0.0389 1.80885,0.45902 2.4507,1.16311 0.63407,0.70798 0.96083,1.61046 0.91415,2.55184 l -0.39289,8.09508 c -0.0973,1.96056 -1.76995,3.46988 -3.72273,3.38041 l -39.37454,-1.90221 c -1.96055,-0.0973 -3.46987,-1.76217 -3.37651,-3.71884 l 4.95585,-102.56362 c 0.0973,-1.95278 1.75828,-3.4621 3.71106,-3.37263"
       style="fill:#ffffff;fill-rule:nonzero;stroke:none" />
    <path
       id="path2910"
       d="m 804.0657,271.30815 46.78887,-65.18077 c 4.61742,-6.57409 5.15813,-10.60413 6.24344,-18.5086 0.99584,-7.29763 2.17062,-15.98788 -7.9317,-17.3805 -6.08785,-0.81301 -10.63525,2.27565 -11.52606,8.97811 l -1.62213,11.72445 -20.6442,-2.80858 1.54821,-11.3549 c 2.34178,-17.186 18.04569,-29.48227 35.23947,-27.15217 21.46111,2.9175 28.24915,21.16547 25.63897,40.40928 -1.90221,13.95341 -2.8008,17.53221 -10.95812,29.01548 l -38.32424,54.35102 37.23115,5.06866 -2.82414,20.64421 -61.52028,-8.3596 2.66076,-19.44609"
       style="fill:#eb2d2e;fill-rule:nonzero;stroke:none" />
    <path
       id="path2912"
       d="m 941.87658,153.64745 c -0.0895,-1.91388 -1.73105,-3.39986 -3.64493,-3.3065 l -53.70917,2.50127 c -1.90999,0.0934 -3.40375,1.73105 -3.31039,3.64104 l 0.36955,7.32875 c 0.0856,1.91388 1.73105,3.40374 3.63326,3.31038 l 20.31745,-0.94137 2.61407,54.61165 c 0.0934,1.90609 1.73494,3.39596 3.64104,3.29482 l 7.33264,-0.35399 c 1.91388,-0.0934 3.39597,-1.73494 3.31039,-3.64492 l -2.61408,-54.58831 19.11544,-0.88303 c 1.91388,-0.0895 3.39986,-1.72716 3.31039,-3.63715 l -0.36566,-7.33264"
       style="fill:#ffffff;fill-rule:nonzero;stroke:none" />
    <path
       id="path2914"
       d="m 943.58817,226.75603 -7.94726,0.0233 c -2.76578,-0.0895 -3.60991,0.63018 -4.38013,3.05754 l -13.26489,41.65407 c -0.28008,0.87525 -1.2059,0.90248 -1.57545,0.0195 l -16.54415,-40.40928 c -0.96861,-2.36511 -1.8672,-3.01474 -4.61353,-2.69576 l -7.92781,0.61073 c -2.28343,0.24896 -2.61797,2.76967 -1.89832,4.54351 l 25.77122,62.95958 c 0.5446,1.48209 1.52488,2.88638 3.13145,2.97974 0,0 8.0095,-0.41623 8.00172,-0.41623 1.61046,-0.20228 2.40012,-1.55211 2.86303,-3.16257 l 0.0117,0.035 c 0,0 20.58197,-64.52725 20.61698,-64.78788 l 0.0117,-0.0389 c 0.5835,-1.82051 0.0389,-4.314 -2.2562,-4.37235"
       style="fill:#ffffff;fill-rule:nonzero;stroke:none" />
  </g>
</svg>
