<?xml version="1.0" encoding="utf-8"?>
<!-- Generator: Adobe Illustrator 15.0.0, SVG Export Plug-In . SVG Version: 6.00 Build 0)  -->
<!DOCTYPE svg PUBLIC "-//W3C//DTD SVG 1.1//EN" "http://www.w3.org/Graphics/SVG/1.1/DTD/svg11.dtd">
<svg version="1.1" xmlns="http://www.w3.org/2000/svg" xmlns:xlink="http://www.w3.org/1999/xlink" x="0px" y="0px" width="675px"
	 height="515px" viewBox="0 0 675 515" enable-background="new 0 0 675 515" xml:space="preserve">
<g id="Calque_9">
	<rect x="0.437" y="0.254" width="675" height="515"/>
</g>
<g id="Calque_7">
	<g id="Calque_6">
		<g id="Calque_2">
			
				<ellipse fill="none" stroke="#FFFFFF" stroke-width="2" stroke-miterlimit="10" cx="337.5" cy="254.194" rx="287.774" ry="81.541"/>
			<path fill="none" stroke="#FFFFFF" stroke-width="2" stroke-miterlimit="10" d="M596.834,122.894
				c16.712,36.52-85.816,124.979-229.003,197.581C224.642,393.076,95.02,422.326,78.308,385.811
				c-16.712-36.52,85.817-124.982,229.005-197.583C450.501,115.626,580.123,86.375,596.834,122.894z"/>
			<path fill="none" stroke="#FFFFFF" stroke-width="2" stroke-miterlimit="10" d="M78.309,122.894
				c-16.713,36.52,85.816,124.979,229.003,197.581c143.189,72.602,272.811,101.852,289.522,65.336
				c16.711-36.52-85.816-124.982-229.004-197.583C224.641,115.626,95.018,86.375,78.309,122.894z"/>
		</g>
		<g id="Calque_4">
			<path fill="#FFFFFF" d="M340.542,35.3c-12.718,0-23.777,3.061-33.732,9.798c-42.579,30.015-62.486,91.269-62.486,184.372
				c0,74.118,25.991,182.538,94.005,182.538c14.932,0,27.097-6.127,38.155-15.314c25.991-20.828,54.191-73.504,54.191-179.471
				C430.676,146.169,407.453,35.3,340.542,35.3z M336.034,405.967c0,0-69.789,6.041-69.789-182.351
				c0-121.368,31.246-182.35,69.789-182.35c38.544,0,69.791,46.871,69.791,182.35C405.825,324.324,379.609,417.152,336.034,405.967z
				"/>
		</g>
	</g>
	<g id="Calque_8">
		<path fill="#FFFFFF" d="M132.93,137.62c11.137,2.783,13.921,5.899,14.681,13.689c0.254,6.118,0.254,11.567,0.254,68.586
			c0,42.276-0.761,60.296-1.267,69.477c-0.507,8.9-3.036,11.892-14.681,14.396c-3.094,0.732-5.03,2.486-5.471,3.486h64.025
			c-0.439-1-1.926-2.633-5.131-3.514c-11.39-3.334-13.904-7.473-14.904-18.041v-65.914c56,87.041,92.508,108.765,91.061,106.753
			c-34.531-48.01-57.569-109.675-57.316-109.675c15.187-6.117,41.615-17.381,41.615-41.023c0-8.426,1.369-23.427-11.448-34.754
			c0,0-6.155-6.832-19.544-6.832H126.86C126.907,135.254,128.445,136.525,132.93,137.62z M170.437,144.934
			c20-17.024,54.086,3.522,51.368,33.41c-1.836,20.209-32.368,38.52-51.368,26.272V144.934z"/>
		<path fill="#FFFFFF" d="M293.882,144.254h33.555v133.659c-2,14.74-2.26,22.771-16.05,26.107c-2.396,0.238-4.716,2.234-5.187,3.234
			h59.766c-0.276-1-1.555-2.771-4.039-3.514c-13.789-4.172-15.49-6.916-15.49-30.556v-128.93h31.761c0,0,16.521,21.152,19.112,23.09
			l-4.38-33.09H279.676l-4.113,31.173c0.155,0.171,0.329-0.09,0.533-0.09C277.294,165.337,293.882,144.254,293.882,144.254z"/>
		<path fill="#FFFFFF" d="M434.007,134.254c0.33,1,24.43,12.544,24.43,12.544v148.788c0,0-7.271,5.928-20.247,8.713
			c-2.855,0.889-4.275,1.955-4.778,2.955h71.316c-0.822-1-4.594-3.938-7.551-4.436c-13.742-2.783-15.74-7.232-15.74-7.232v-83.332
			h43.112l9.888,21.804v-60.411l-9.888,29.607h-43.112v-56.456c-1-6.003,38.018-4.475,38.018-4.475
			c13.488,1.389,34.203,5.608,37.095,26.917l4.135-34.986H434.007z"/>
	</g>
	<g>
		<path fill="#FFFFFF" d="M182.524,429.457c-1.762-6.578,0.165-11.695,5.784-15.351c4.662-2.989,10.594-4.485,17.792-4.485
			c3.799,0,8.154,0.335,13.065,1.001c2.838,0.399,7.234,1.133,13.185,2.198c2.168-0.864,4.648-1.614,7.445-2.249
			c2.795-0.633,5.394-0.95,7.793-0.95c1.865,0,3.594,0.234,5.186,0.701c2.397,0.733,3.791,1.833,4.184,3.299
			c0.5,1.866-1.301,3.232-5.4,4.097c-1.644,0.336-3.199,0.501-4.665,0.501c-2.666,0-5.381-0.183-8.144-0.549
			c-2.765-0.366-5.744-0.915-8.94-1.65c-5.362,3.866-10.17,7.933-14.426,12.197c-5.236,5.332-8.919,10.362-11.051,15.095
			c4.864,0,8.888-0.466,12.071-1.399c3.182-0.933,6.248-2.732,9.2-5.399c2.071-2.465,4.142-4.931,6.215-7.398h0.7l0.262,0.604
			c-0.199,1.746-0.427,3.137-0.68,4.179c-0.256,1.039-0.705,2.096-1.351,3.168c-1.999,3.488-5.96,5.735-11.89,6.741
			c-3.055,0.538-8.249,0.806-15.579,0.806c-2.394,3.256-4.402,7.076-6.026,11.462c-2.005,5.449-2.544,9.9-1.619,13.355
			c0.801,2.99,2.581,5.282,5.342,6.879c2.439,1.396,5.224,2.092,8.358,2.092c6.331,0,12.229-1.864,17.695-5.597
			c6.302-4.332,8.669-9.431,7.097-15.296c-0.499-1.864-1.618-3.299-3.351-4.299c-1.734-0.999-3.568-1.5-5.5-1.5
			c-5.265,0-9.823,2.268-13.673,6.798c-3.198,3.734-5.49,8.364-6.873,13.896h-0.799c-0.504-5.354,1.431-10.409,5.805-15.163
			c4.375-4.753,9.254-7.131,14.639-7.131c2.659,0,5.072,0.699,7.242,2.101c2.168,1.399,3.602,3.397,4.299,5.997
			c1.607,5.999-0.957,11.23-7.69,15.696c-5.83,3.865-12.042,5.798-18.641,5.798c-4.199,0-7.834-1.002-10.902-3.008
			c-3.39-2.205-5.649-5.411-6.778-9.623c-0.985-3.675-0.98-7.886,0.015-12.63c0.884-4.412,2.289-8.119,4.216-11.128
			c-3.85-1.928-6.695-3.721-8.541-5.384C185.121,435.669,183.433,432.846,182.524,429.457z M227.174,415.52
			c-3.234-0.876-7.379-1.61-12.437-2.206c-5.059-0.595-9.387-0.892-12.985-0.892c-5.933,0-10.622,1.398-14.07,4.197
			c-3.941,3.199-5.152,7.633-3.635,13.296c0.769,2.866,2.413,5.399,4.935,7.599c2.082,1.799,4.774,3.397,8.083,4.799
			c4.427-6.111,8.824-11.216,13.193-15.311C215.688,421.899,221.326,418.073,227.174,415.52z M250.667,415.52
			c1.666,0,2.805-0.166,3.416-0.499c0.61-0.333,0.908-0.9,0.894-1.701c-0.474-1.021-1.317-1.679-2.526-1.966
			c-1.211-0.286-2.649-0.432-4.315-0.432c-2.733,0-4.877,0.143-6.432,0.431c-1.557,0.287-3.373,0.911-5.447,1.868
			C241.13,414.754,245.934,415.52,250.667,415.52z"/>
		<path fill="#FFFFFF" d="M243.739,475.101c0.268,1.001,0.785,1.751,1.552,2.249c0.767,0.501,1.683,0.75,2.75,0.75
			c3.464,0,7.525-1.632,12.183-4.897c1.958-1.4,5.297-4.231,10.02-8.497l1.148,1.299c-3.787,3.533-7.282,6.398-10.493,8.598
			c-4.972,3.333-9.292,4.998-12.956,4.998c-3.799,0-6.269-2.132-7.412-6.397c-1.5-5.599,0.605-11.48,6.319-17.645
			c5.712-6.163,11.434-9.247,17.166-9.247c2.399,0,3.894,1.1,4.483,3.3c0.75,2.798-1.983,6.032-8.199,9.695
			c-2.77,1.6-7.173,3.699-13.208,6.299c-0.847,1.066-1.655,2.534-2.42,4.398C243.746,472.27,243.436,473.969,243.739,475.101z
			 M266.438,449.01c-0.25-0.932-0.976-1.4-2.175-1.4c-2.934,0-6.711,2.935-11.339,8.797c-2.134,2.734-3.726,4.999-4.776,6.799
			c2.932,0,6.785-1.664,11.557-4.999C264.872,454.607,267.117,451.544,266.438,449.01z M267.021,425.816h8.497l-5.938,5.445
			l-4.998,4.852h-2.299L267.021,425.816z"/>
		<path fill="#FFFFFF" d="M291.458,465.904c-2.96,3.133-4.785,5.032-5.471,5.698c-5.06,4.997-9.021,7.497-11.887,7.497
			c-2.533,0-4.191-1.467-4.979-4.404c-0.983-3.671,0.401-9.443,4.156-17.321c1.651-3.536,4.619-8.878,8.904-16.018
			c4.771-7.809,8.859-13.816,12.266-18.021c6.518-8.009,12.143-12.014,16.875-12.014c1.532,0,2.532,0.87,2.998,2.608
			c0.717,2.673-1.145,6.918-5.586,12.734c-4.439,5.814-10.959,12.701-19.557,20.653l-7.697,6.718
			c-0.784,0.805-1.933,2.861-3.445,6.17c-1.513,3.308-2.502,5.463-2.965,6.466c-1.108,2.34-1.958,4.328-2.552,5.965
			c-0.594,1.64-0.836,2.659-0.729,3.059c0.376,1.404,1.197,2.105,2.463,2.105c2.065,0,4.955-1.778,8.667-5.339
			c1.961-1.878,4.384-4.53,7.265-7.956L291.458,465.904z M312.199,414.22c-0.286-1.064-0.929-1.6-1.93-1.6
			c-2.798,0-6.168,2.6-10.105,7.798c-2.994,3.999-6.264,9.332-9.809,15.996c-0.76,1.399-2.946,5.798-6.563,13.196
			c2.455-1.532,6.031-4.601,10.732-9.198c5.223-5.132,9.444-9.896,12.664-14.295C311.189,420.652,312.859,416.687,312.199,414.22z"
			/>
		<path fill="#FFFFFF" d="M294.822,475.101c0.268,1.001,0.784,1.751,1.552,2.249c0.768,0.501,1.684,0.75,2.751,0.75
			c3.464,0,7.525-1.632,12.183-4.897c1.957-1.4,5.297-4.231,10.02-8.497l1.147,1.299c-3.785,3.533-7.282,6.398-10.492,8.598
			c-4.973,3.333-9.292,4.998-12.957,4.998c-3.799,0-6.27-2.132-7.412-6.397c-1.5-5.599,0.606-11.48,6.319-17.645
			c5.712-6.163,11.434-9.247,17.166-9.247c2.399,0,3.894,1.1,4.483,3.3c0.75,2.798-1.982,6.032-8.199,9.695
			c-2.77,1.6-7.174,3.699-13.208,6.299c-0.848,1.066-1.655,2.534-2.42,4.398C294.828,472.27,294.518,473.969,294.822,475.101z
			 M317.521,449.01c-0.25-0.932-0.976-1.4-2.174-1.4c-2.935,0-6.712,2.935-11.34,8.797c-2.133,2.734-3.726,4.999-4.775,6.799
			c2.932,0,6.784-1.664,11.557-4.999C315.955,454.607,318.2,451.544,317.521,449.01z M318.104,425.816h8.497l-5.938,5.445
			l-4.998,4.852h-2.299L318.104,425.816z"/>
		<path fill="#FFFFFF" d="M334.74,447.609c-0.546,1.198-1.939,3.954-4.182,8.271c-2.659,5.248-4.551,9.133-5.674,11.657
			c-1.86,4.252-2.674,6.811-2.443,7.673c0.498,1.859,1.779,2.788,3.847,2.788c3.731,0,7.829-3.111,12.292-9.342
			c1.596-2.251,3.195-4.87,4.795-7.853c-0.75-2.798-0.916-5.53-0.498-8.195c0.508-3.334,1.863-5.232,4.072-5.699
			c0.719,0.199,1.213,0.8,1.48,1.8c0.412,1.533,0.135,3.731-0.83,6.597c-0.652,1.8-1.521,3.9-2.611,6.299
			c1.061,0.968,1.631,1.488,1.717,1.555c1.088,0.83,2.197,1.244,3.332,1.244h2.398l0.35,1.301l-2.74,0.1
			c-1.094,0-2.102-0.25-3.021-0.75s-1.959-1.25-3.113-2.249c-1.445,3.245-3.75,6.623-6.909,10.136
			c-3.894,4.239-7.263,6.358-10.104,6.358c-3.706,0-6.093-1.992-7.161-5.979c-0.872-3.256,0.698-8.835,4.712-16.741
			c1.531-2.99,3.062-5.979,4.595-8.97H334.74z"/>
		<path fill="#FFFFFF" d="M367.702,447.51c-2.691,4.881-4.279,7.789-4.762,8.725c-2.799,5.218-4.863,9.329-6.189,12.338
			c-2,4.479-2.846,7.288-2.541,8.424c0.107,0.402,0.367,0.688,0.779,0.854c0.408,0.167,0.926,0.285,1.543,0.35
			c2.254-0.536,5.023-2.384,8.313-5.54c2.551-2.417,8.096-7.569,10.045-10.256l1.045,1.222c-3.346,3.933-8.844,9.211-10.449,10.676
			c-3.738,3.466-6.875,5.197-9.406,5.197c-2.334,0-3.855-1.331-4.57-3.998c-1.035-3.864,0.578-10.03,4.842-18.494
			c2.695-4.865,4.445-8.031,5.252-9.497H367.702z M370.978,429.515c0.732,0,1.48,0.301,2.24,0.9s1.248,1.3,1.463,2.1
			c0.303,1.135,0.072,2.134-0.695,2.999c-0.768,0.866-1.719,1.3-2.85,1.3c-0.736,0-1.432-0.232-2.088-0.7
			c-0.66-0.465-1.096-1.101-1.311-1.899c-0.32-1.199-0.16-2.281,0.479-3.249C368.858,430,369.778,429.515,370.978,429.515z"/>
		<path fill="#FFFFFF" d="M375.935,463.626l-1.045-1.222l14.551-15.095c0.16-1.64,0.359-2.887,0.598-3.739
			c0.475-1.706,1.18-2.559,2.113-2.559l0.781,0.299l0.42,1.197c0.125,0.465-0.24,1.395-1.094,2.791
			c-0.621,0.997-1.23,1.896-1.836,2.691l0.828,3.092c0.25,0.932,0.738,2.51,1.469,4.738c0.73,2.228,1.123,3.439,1.176,3.638
			c1.229,4.585,0.113,9.005-3.344,13.262c-3.459,4.255-7.488,6.38-12.086,6.38c-3.199,0-5.191-1.464-5.979-4.398
			c-0.34-1.266-0.27-2.314,0.207-3.149c0.477-0.832,1.346-1.249,2.613-1.249c0.666,0,1.242,0.284,1.727,0.851
			c0.484,0.565,0.828,1.215,1.023,1.948c0.143,0.534-0.09,1.033-0.697,1.5c-0.609,0.466-1.221,0.801-1.832,1l-0.113,0.699l0.107,0.4
			c0.268,0.999,1.068,1.499,2.402,1.499c4.664,0,8.18-3.664,10.549-10.992c2.098-6.594,2.461-12.456,1.088-17.585l-0.121-0.5
			L375.935,463.626z"/>
		<path fill="#FFFFFF" d="M414.386,447.51c-2.689,4.881-4.279,7.789-4.76,8.725c-2.801,5.218-4.865,9.329-6.191,12.338
			c-1.998,4.479-2.846,7.288-2.541,8.424c0.107,0.402,0.367,0.688,0.779,0.854c0.408,0.167,0.926,0.285,1.543,0.35
			c2.254-0.536,5.025-2.384,8.313-5.54c2.551-2.417,4.799-4.969,6.746-7.655l1.32,1.199c-3.346,3.933-5.82,6.633-7.428,8.098
			c-3.736,3.466-6.871,5.197-9.404,5.197c-2.332,0-3.855-1.331-4.57-3.998c-1.035-3.864,0.578-10.03,4.844-18.494
			c2.693-4.865,4.445-8.031,5.25-9.497H414.386z M417.663,429.515c0.73,0,1.479,0.301,2.238,0.9c0.762,0.6,1.25,1.3,1.463,2.1
			c0.305,1.135,0.072,2.134-0.695,2.999c-0.768,0.866-1.719,1.3-2.85,1.3c-0.736,0-1.43-0.232-2.088-0.7
			c-0.66-0.465-1.096-1.101-1.309-1.899c-0.322-1.199-0.162-2.281,0.479-3.249C415.542,430,416.462,429.515,417.663,429.515z"/>
		<path fill="#FFFFFF" d="M450.868,463.905l0.822,1.2l-2.92,0.3c-0.6,0-1.313-0.166-2.133-0.501
			c-0.822-0.333-1.705-0.765-2.648-1.299c-1.654,3.774-3.947,7.152-6.881,10.133c-3.672,3.707-7.375,5.562-11.105,5.562
			c-1.668,0-3.133-0.548-4.389-1.644c-1.262-1.098-2.125-2.509-2.586-4.236c-1.531-5.715,0.406-11.662,5.816-17.841
			c5.408-6.18,11.045-9.269,16.91-9.269c1.133,0,2.174,0.4,3.119,1.199c0.949,0.8,1.574,1.766,1.877,2.899
			c0.395,1.467,0.363,3.466-0.092,5.997c-0.33,2.001-0.855,3.9-1.572,5.699c0.779,0.668,1.42,1.134,1.926,1.399
			c0.504,0.268,1.121,0.4,1.855,0.4H450.868z M445.063,451.908c0.148-0.664,0.16-1.231,0.035-1.699
			c-0.463-1.733-1.559-2.6-3.285-2.6c-3.389,0-7.73,3.753-13.025,11.261c-5.295,7.507-7.498,12.92-6.607,16.24
			c0.25,0.932,0.789,1.645,1.623,2.145c0.832,0.496,1.75,0.744,2.75,0.744c3.266,0,6.598-1.985,10-5.96
			c2.336-2.714,4.465-6.094,6.381-10.134c-0.643-2.398-0.852-4.398-0.625-5.998C442.532,454.309,443.452,452.976,445.063,451.908z"
			/>
		<path fill="#FFFFFF" d="M457.972,447.51h5.197l-5.902,12.297c5.564-5.599,9.152-8.999,10.766-10.196
			c2.941-2.2,5.379-3.3,7.313-3.3c1.064,0,2.031,0.251,2.9,0.753c0.867,0.501,1.445,1.286,1.73,2.355
			c0.807,3.009,0.002,6.854-2.408,11.534c-2.688,5.148-5.346,10.262-7.982,15.343c0.268,1.003,1.1,1.504,2.5,1.504
			c1.932,0,5.031-1.745,9.293-5.238c3.393-2.754,6.076-5.307,8.047-7.657l1.014,0.801c-2.941,3.198-5.752,5.897-8.428,8.097
			c-4.318,3.534-7.678,5.298-10.076,5.298c-2.535,0-4.111-1.162-4.734-3.488c-1.121-4.185,0.389-9.365,4.531-15.545
			c4.145-6.178,6.055-9.865,5.734-11.061c-0.25-0.932-0.941-1.396-2.072-1.396c-2.867,0-7.293,3.256-13.279,9.766
			c-2.389,2.524-4.416,4.917-6.076,7.176c-1.482,1.926-2.928,4.118-4.336,6.574c-1.113,2.062-2.297,4.485-3.549,7.274l-5.77,0.101
			c2.613-4.665,5.313-9.763,8.096-15.295C453.022,458.274,455.521,453.043,457.972,447.51z"/>
	</g>
</g>
</svg>
