<?xml version="1.0" encoding="utf-8"?>
<!-- Generator: Adobe Illustrator 15.0.0, SVG Export Plug-In . SVG Version: 6.00 Build 0)  -->
<!DOCTYPE svg PUBLIC "-//W3C//DTD SVG 1.1//EN" "http://www.w3.org/Graphics/SVG/1.1/DTD/svg11.dtd">
<svg version="1.1" id="Calque_1" xmlns="http://www.w3.org/2000/svg" xmlns:xlink="http://www.w3.org/1999/xlink" x="0px" y="0px"
	 width="524.289px" height="246.249px" viewBox="0 0 524.289 246.249" enable-background="new 0 0 524.289 246.249"
	 xml:space="preserve">
<polygon fill="#2A398B" points="0,246 294.289,246 363.908,171.047 316.753,123 363.908,74.953 294.522,0.249 0,0 "/>
<polygon fill="#F7CE3E" points="476.289,123 524.289,74.953 453.822,0 294.289,0 363.908,74.953 316.753,123 363.908,171.047 
	294.289,246 453.822,246 524.289,171.047 "/>
<g id="F">
	<polygon fill="#FFFFFF" points="72.706,151.537 114.252,151.537 123.989,101.896 81.793,101.896 93.478,41.15 148.008,41.15 
		155.75,0.249 43.449,0.249 0,246.249 55.177,246.249 	"/>
</g>
<g id="R">
	<path fill="#FFFFFF" d="M196.776,158.07l11.684,88.179h57.129l-10.388-101.898c24.058-22.053,39.36-48.762,37.933-96.284
		c-2.131-23.582-9.939-45.292-39.102-47.818h-83.919l-47.34,246h56.475L196.776,158.07z M218.198,43.109
		c4.545,0,22.797,0.775,20.125,34.292c-5.192,33.643-33.107,34.293-33.107,34.293L218.198,43.109z"/>
</g>
</svg>
