<?xml version="1.0" encoding="UTF-8" ?>
<!DOCTYPE svg PUBLIC "-//W3C//DTD SVG 1.1//EN" "http://www.w3.org/Graphics/SVG/1.1/DTD/svg11.dtd">
<svg width="664pt" height="311pt" viewBox="0 0 664 311" version="1.1" xmlns="http://www.w3.org/2000/svg">
<g id="#219cd3ff">
<path fill="#219cd3" opacity="1.00" d=" M 0.00 0.00 L 664.00 0.00 L 664.00 205.20 C 580.73 205.20 497.46 205.21 414.19 205.19 C 379.02 240.49 343.58 275.52 308.61 311.00 L 308.28 311.00 C 308.58 275.74 308.33 240.46 308.41 205.20 C 205.60 205.22 102.80 205.17 0.00 205.22 L 0.00 0.00 M 548.41 17.49 C 537.19 21.69 526.46 28.87 520.65 39.63 C 515.51 49.10 514.51 60.60 517.31 70.95 C 519.83 80.32 526.39 88.72 535.35 92.67 C 537.31 93.58 539.54 93.99 541.29 95.33 C 532.30 97.15 523.86 101.84 518.04 108.99 C 502.59 127.48 506.01 158.25 524.72 173.29 C 536.81 183.23 552.58 187.33 567.89 188.82 C 587.73 190.55 608.67 188.24 626.20 178.21 C 637.50 171.82 646.46 160.93 649.21 148.10 C 652.18 134.50 650.24 118.97 640.86 108.18 C 635.02 101.20 626.47 97.17 617.74 95.18 C 623.70 93.28 629.53 90.46 633.70 85.66 C 646.90 71.39 646.56 47.49 634.19 32.81 C 626.31 23.35 614.72 17.75 602.96 14.78 C 585.05 10.36 565.76 11.13 548.41 17.49 M 163.10 34.22 C 156.77 35.43 151.43 40.63 150.10 46.93 C 147.70 56.12 154.67 66.21 164.09 67.24 C 174.01 68.99 183.88 60.07 183.16 50.03 C 183.10 40.06 172.82 31.93 163.10 34.22 M 29.63 40.45 C 29.68 81.90 29.62 123.35 29.66 164.80 C 47.10 164.79 64.55 164.82 81.99 164.79 C 95.40 164.82 109.35 162.33 120.61 154.65 C 132.94 146.49 140.40 132.50 142.71 118.12 C 145.52 101.07 144.40 82.57 135.82 67.23 C 128.65 54.31 115.43 45.39 101.09 42.37 C 90.57 39.81 79.67 40.49 68.94 40.40 C 55.84 40.43 42.73 40.34 29.63 40.45 M 448.00 47.00 C 447.99 56.13 448.00 65.26 448.00 74.40 C 443.01 74.40 438.03 74.44 433.05 74.35 C 432.82 80.73 432.99 87.11 432.94 93.49 C 437.96 93.58 442.98 93.51 448.00 93.54 C 448.01 107.69 447.98 121.84 448.01 136.00 C 448.19 142.80 448.59 150.01 452.13 156.02 C 454.75 160.47 459.59 163.07 464.50 164.21 C 474.81 166.56 485.44 165.39 495.88 164.78 C 495.88 157.53 495.89 150.27 495.87 143.02 C 491.17 143.08 486.23 144.04 481.71 142.32 C 478.77 141.21 477.54 137.91 477.62 134.98 C 477.54 121.17 477.61 107.35 477.59 93.54 C 483.68 93.53 489.77 93.52 495.86 93.54 C 495.90 87.16 495.89 80.78 495.87 74.39 C 489.77 74.41 483.68 74.41 477.60 74.40 C 477.59 65.28 477.56 56.16 477.62 47.05 C 467.75 46.94 457.87 47.02 448.00 47.00 M 287.80 72.78 C 275.22 75.12 263.97 82.74 256.68 93.19 C 256.61 86.55 256.66 79.91 256.65 73.27 C 249.41 72.07 241.64 72.51 235.03 75.93 C 228.97 78.83 224.90 84.47 222.19 90.44 C 222.16 85.12 222.15 79.81 222.21 74.49 C 212.62 74.29 203.01 74.45 193.41 74.41 C 193.40 104.53 193.42 134.66 193.40 164.78 C 203.28 164.82 213.17 164.79 223.05 164.80 C 223.09 149.85 223.03 134.91 223.07 119.96 C 222.98 113.04 226.25 105.97 232.17 102.18 C 238.33 98.09 246.14 98.11 253.17 99.35 C 247.65 113.40 247.79 129.78 254.52 143.39 C 260.22 155.00 271.69 163.04 284.19 165.77 C 298.47 168.89 314.31 167.74 327.01 160.04 C 335.27 155.08 341.20 146.76 343.65 137.48 C 334.40 137.51 325.14 137.34 315.89 137.57 C 311.00 148.11 296.07 150.05 287.02 143.94 C 281.43 140.17 279.12 133.27 278.73 126.81 C 300.56 126.77 322.39 126.84 344.22 126.78 C 345.32 135.01 348.06 143.16 353.21 149.76 C 360.73 159.73 372.73 165.73 385.03 167.00 C 398.70 168.54 413.52 165.33 423.89 155.88 C 431.47 149.10 435.75 139.27 436.87 129.27 C 427.32 129.25 417.77 129.28 408.22 129.25 C 407.42 132.98 406.36 136.84 403.76 139.75 C 399.50 144.70 392.06 145.67 386.05 143.96 C 378.48 141.54 374.74 133.38 373.96 126.00 C 373.28 118.30 373.48 110.05 377.03 103.01 C 381.75 93.42 396.61 91.39 403.83 99.18 C 405.98 101.38 406.89 104.41 407.33 107.39 C 416.89 107.56 426.45 107.44 436.01 107.45 C 435.26 100.54 433.09 93.66 428.82 88.10 C 422.27 79.29 411.72 74.22 401.05 72.54 C 388.57 70.60 375.07 72.27 364.36 79.32 C 352.80 86.71 346.06 99.89 344.44 113.27 C 343.02 100.61 336.97 88.09 326.57 80.43 C 315.58 72.32 301.00 70.36 287.80 72.78 M 151.89 74.35 C 151.62 104.50 151.81 134.66 151.79 164.81 C 161.66 164.80 171.52 164.79 181.39 164.81 C 181.45 134.69 181.38 104.56 181.43 74.44 C 171.58 74.33 161.73 74.49 151.89 74.35 Z" />
<path fill="#219cd3" opacity="1.00" d=" M 574.17 43.29 C 583.00 42.50 592.83 43.30 599.96 49.14 C 608.25 55.85 608.07 70.13 599.84 76.82 C 592.59 82.80 582.51 83.83 573.49 82.76 C 566.28 81.91 558.54 78.67 555.20 71.81 C 552.01 64.88 552.57 55.73 558.06 50.10 C 562.27 45.80 568.32 43.95 574.17 43.29 Z" />
<path fill="#219cd3" opacity="1.00" d=" M 62.08 68.26 C 74.29 68.59 87.64 66.63 98.60 73.36 C 107.41 78.56 111.32 89.08 111.61 98.90 C 111.87 108.11 111.34 118.10 105.93 125.92 C 101.32 132.53 93.17 135.38 85.48 136.30 C 77.71 137.26 69.87 136.73 62.06 136.87 C 62.06 114.00 62.04 91.13 62.08 68.26 Z" />
<path fill="#219cd3" opacity="1.00" d=" M 285.52 96.54 C 291.57 90.72 302.03 90.08 308.51 95.55 C 312.94 99.10 315.17 104.71 315.63 110.26 C 303.34 110.26 291.05 110.28 278.76 110.25 C 279.78 105.21 281.67 100.11 285.52 96.54 Z" />
<path fill="#219cd3" opacity="1.00" d=" M 576.34 109.38 C 584.65 108.73 593.57 110.38 600.13 115.81 C 610.99 124.54 611.24 143.62 600.09 152.21 C 593.34 157.40 584.41 158.80 576.10 158.21 C 567.96 157.61 559.38 154.50 554.50 147.62 C 549.10 139.70 549.16 128.37 554.52 120.44 C 559.42 113.42 568.05 110.03 576.34 109.38 Z" />
</g>
<g id="#ffffffff">
<path fill="#ffffff" opacity="1.00" d=" M 548.41 17.49 C 565.76 11.13 585.05 10.36 602.96 14.78 C 614.72 17.75 626.31 23.35 634.19 32.81 C 646.56 47.49 646.90 71.39 633.70 85.66 C 629.53 90.46 623.70 93.28 617.74 95.18 C 626.47 97.17 635.02 101.20 640.86 108.18 C 650.24 118.97 652.18 134.50 649.21 148.10 C 646.46 160.93 637.50 171.82 626.20 178.21 C 608.67 188.24 587.73 190.55 567.89 188.82 C 552.58 187.33 536.81 183.23 524.72 173.29 C 506.01 158.25 502.59 127.48 518.04 108.99 C 523.86 101.84 532.30 97.15 541.29 95.33 C 539.54 93.99 537.31 93.58 535.35 92.67 C 526.39 88.72 519.83 80.32 517.31 70.95 C 514.51 60.60 515.51 49.10 520.65 39.63 C 526.46 28.87 537.19 21.69 548.41 17.49 M 574.17 43.29 C 568.32 43.95 562.27 45.80 558.06 50.10 C 552.57 55.73 552.01 64.88 555.20 71.81 C 558.54 78.67 566.28 81.91 573.49 82.76 C 582.51 83.83 592.59 82.80 599.84 76.82 C 608.07 70.13 608.25 55.85 599.96 49.14 C 592.83 43.30 583.00 42.50 574.17 43.29 M 576.34 109.38 C 568.05 110.03 559.42 113.42 554.52 120.44 C 549.16 128.37 549.10 139.70 554.50 147.62 C 559.38 154.50 567.96 157.61 576.10 158.21 C 584.41 158.80 593.34 157.40 600.09 152.21 C 611.24 143.62 610.99 124.54 600.13 115.81 C 593.57 110.38 584.65 108.73 576.34 109.38 Z" />
<path fill="#ffffff" opacity="1.00" d=" M 163.10 34.22 C 172.82 31.93 183.10 40.06 183.16 50.03 C 183.88 60.07 174.01 68.99 164.09 67.24 C 154.67 66.21 147.70 56.12 150.10 46.93 C 151.43 40.63 156.77 35.43 163.10 34.22 Z" />
<path fill="#ffffff" opacity="1.00" d=" M 29.63 40.45 C 42.73 40.34 55.84 40.43 68.94 40.40 C 79.67 40.49 90.57 39.81 101.09 42.37 C 115.43 45.39 128.65 54.31 135.82 67.23 C 144.40 82.57 145.52 101.07 142.71 118.12 C 140.40 132.50 132.94 146.49 120.61 154.65 C 109.35 162.33 95.40 164.82 81.99 164.79 C 64.55 164.82 47.10 164.79 29.66 164.80 C 29.62 123.35 29.68 81.90 29.63 40.45 M 62.08 68.26 C 62.04 91.13 62.06 114.00 62.06 136.87 C 69.87 136.73 77.71 137.26 85.48 136.30 C 93.17 135.38 101.32 132.53 105.93 125.92 C 111.34 118.10 111.87 108.11 111.61 98.90 C 111.32 89.08 107.41 78.56 98.60 73.36 C 87.64 66.63 74.29 68.59 62.08 68.26 Z" />
<path fill="#ffffff" opacity="1.00" d=" M 448.00 47.00 C 457.87 47.02 467.75 46.94 477.62 47.05 C 477.56 56.16 477.59 65.28 477.60 74.40 C 483.68 74.41 489.77 74.41 495.87 74.39 C 495.89 80.78 495.90 87.16 495.86 93.54 C 489.77 93.52 483.68 93.53 477.59 93.54 C 477.61 107.35 477.54 121.17 477.62 134.98 C 477.54 137.91 478.77 141.21 481.71 142.32 C 486.23 144.04 491.17 143.08 495.87 143.02 C 495.89 150.27 495.88 157.53 495.88 164.78 C 485.44 165.39 474.81 166.56 464.50 164.21 C 459.59 163.07 454.75 160.47 452.13 156.02 C 448.59 150.01 448.19 142.80 448.01 136.00 C 447.98 121.84 448.01 107.69 448.00 93.54 C 442.98 93.51 437.96 93.58 432.94 93.49 C 432.99 87.11 432.82 80.73 433.05 74.35 C 438.03 74.44 443.01 74.40 448.00 74.40 C 448.00 65.26 447.99 56.13 448.00 47.00 Z" />
<path fill="#ffffff" opacity="1.00" d=" M 287.80 72.78 C 301.00 70.36 315.58 72.32 326.57 80.43 C 336.97 88.09 343.02 100.61 344.44 113.27 C 346.06 99.89 352.80 86.71 364.36 79.32 C 375.07 72.27 388.57 70.60 401.05 72.54 C 411.72 74.22 422.27 79.29 428.82 88.10 C 433.09 93.66 435.26 100.54 436.01 107.45 C 426.45 107.44 416.89 107.56 407.33 107.39 C 406.89 104.41 405.98 101.38 403.83 99.18 C 396.61 91.39 381.75 93.42 377.03 103.01 C 373.48 110.05 373.28 118.30 373.96 126.00 C 374.74 133.38 378.48 141.54 386.05 143.96 C 392.06 145.67 399.50 144.70 403.76 139.75 C 406.36 136.84 407.42 132.98 408.22 129.25 C 417.77 129.28 427.32 129.25 436.87 129.27 C 435.75 139.27 431.47 149.10 423.89 155.88 C 413.52 165.33 398.70 168.54 385.03 167.00 C 372.73 165.73 360.73 159.73 353.21 149.76 C 348.06 143.16 345.32 135.01 344.22 126.78 C 322.39 126.84 300.56 126.77 278.73 126.81 C 279.12 133.27 281.43 140.17 287.02 143.94 C 296.07 150.05 311.00 148.11 315.89 137.57 C 325.14 137.34 334.40 137.51 343.65 137.48 C 341.20 146.76 335.27 155.08 327.01 160.04 C 314.31 167.74 298.47 168.89 284.19 165.77 C 271.69 163.04 260.22 155.00 254.52 143.39 C 247.79 129.78 247.65 113.40 253.17 99.35 C 246.14 98.11 238.33 98.09 232.17 102.18 C 226.25 105.97 222.98 113.04 223.07 119.96 C 223.03 134.91 223.09 149.85 223.05 164.80 C 213.17 164.79 203.28 164.82 193.40 164.78 C 193.42 134.66 193.40 104.53 193.41 74.41 C 203.01 74.45 212.62 74.29 222.21 74.49 C 222.15 79.81 222.16 85.12 222.19 90.44 C 224.90 84.47 228.97 78.83 235.03 75.93 C 241.64 72.51 249.41 72.07 256.65 73.27 C 256.66 79.91 256.61 86.55 256.68 93.19 C 263.97 82.74 275.22 75.12 287.80 72.78 M 285.52 96.54 C 281.67 100.11 279.78 105.21 278.76 110.25 C 291.05 110.28 303.34 110.26 315.63 110.26 C 315.17 104.71 312.94 99.10 308.51 95.55 C 302.03 90.08 291.57 90.72 285.52 96.54 Z" />
<path fill="#ffffff" opacity="1.00" d=" M 151.89 74.35 C 161.73 74.49 171.58 74.33 181.43 74.44 C 181.38 104.56 181.45 134.69 181.39 164.81 C 171.52 164.79 161.66 164.80 151.79 164.81 C 151.81 134.66 151.62 104.50 151.89 74.35 Z" />
</g>
</svg>
