<?xml version="1.0" encoding="UTF-8" standalone="no"?>
<!-- Created with Inkscape (http://www.inkscape.org/) -->
<svg
   xmlns:dc="http://purl.org/dc/elements/1.1/"
   xmlns:cc="http://web.resource.org/cc/"
   xmlns:rdf="http://www.w3.org/1999/02/22-rdf-syntax-ns#"
   xmlns:svg="http://www.w3.org/2000/svg"
   xmlns="http://www.w3.org/2000/svg"
   xmlns:sodipodi="http://sodipodi.sourceforge.net/DTD/sodipodi-0.dtd"
   xmlns:inkscape="http://www.inkscape.org/namespaces/inkscape"
   width="640"
   height="150"
   id="svg2"
   sodipodi:version="0.32"
   inkscape:version="0.45.1"
   version="1.0"
   inkscape:output_extension="org.inkscape.output.svg.inkscape">
  <g
     inkscape:label="Layer 1"
     inkscape:groupmode="layer"
     id="layer1"
     transform="translate(-41.57538,-661.43425)">
    <path
       style="fill:#4dbc37;fill-rule:nonzero;stroke:none"
       id="path4772"
       d="M 361.56257,661.43425 L 361.56257,691.43581 L 401.54978,691.43581 L 401.54978,721.43437 L 441.59459,721.43437 L 441.59459,751.43594 L 681.57537,751.43594 L 681.57537,661.43425 L 361.56257,661.43425" />
    <path
       style="fill:#8f8580;fill-rule:nonzero;stroke:none"
       id="path4774"
       d="M 401.56897,751.42094 L 401.56897,781.41951 L 321.55617,781.41951 L 321.55617,811.42707 L 441.57537,811.42707 L 441.57537,751.42094 L 401.56897,751.42094" />
    <path
       style="fill:#8f8580;fill-rule:nonzero;stroke:none"
       id="path4776"
       d="M 401.56897,751.42094 L 401.57987,751.42094 L 401.57987,721.41938 L 401.56897,721.41938 L 401.56897,751.42094 z " />
    <path
       style="fill:#4dbc37;fill-rule:nonzero;stroke:none"
       id="path4778"
       d="M 441.57537,751.42094 L 441.60736,751.42094 L 441.60736,721.41938 L 441.57537,721.41938 L 441.57537,751.42094 z " />
    <path
       style="fill:#575500;fill-rule:nonzero;stroke:none"
       id="path4780"
       d="M 401.57539,751.42094 L 441.57025,751.42094 L 441.57025,721.41938 L 401.57539,721.41938 L 401.57539,751.42094 z " />
    <path
       style="fill:#221e1f;fill-rule:nonzero;stroke:none"
       id="path4782"
       d="M 41.57538,781.4285 L 401.55616,781.4285 L 401.55616,691.42082 L 41.57538,691.42082 L 41.57538,781.4285 z " />
    <path
       style="fill:#ffffff;fill-rule:nonzero;stroke:none"
       id="path4784"
       d="M 99.04738,760.41152 C 98.9757,761.01598 98.676806,761.47347 98.676806,761.47347 C 98.676806,761.47347 98.371528,761.77946 97.837767,761.92645 C 90.552004,764.88431 82.435527,763.89284 82.435527,763.89284 C 69.303369,762.46042 60.959714,754.41778 58.302409,744.0308 C 54.356824,728.48104 62.171233,717.40406 64.070104,715.05217 C 68.699232,709.51296 75.904988,705.57563 82.964808,704.66667 C 91.999061,703.37673 98.676806,705.50363 101.40449,706.41259 C 101.40449,706.41259 104.43554,707.39954 106.71458,708.91447 C 107.85379,709.67343 108.00738,709.97342 108.00738,709.97342 C 108.00738,709.97342 108.08417,710.12792 107.77699,711.34286 L 105.65218,722.48881 C 105.57474,722.9433 105.27268,723.17277 105.27268,723.17277 C 105.27268,723.17277 105.12547,723.24029 104.06049,722.5668 C 97.23363,717.71456 89.264995,718.31601 89.264995,718.31601 C 83.192021,718.69551 76.132836,721.87684 74.013772,729.92248 C 72.109785,737.05314 74.086088,743.04233 78.335046,746.60468 C 81.218259,749.11104 85.698274,750.39797 90.397142,750.16999 C 95.559396,749.78752 99.657302,747.7461 99.352024,747.88862 C 99.352024,747.88862 99.580506,747.8241 99.813469,747.7461 C 100.87267,747.20913 101.09984,747.29164 101.09984,747.29164 C 101.09984,747.29164 101.32706,747.51363 101.17731,748.19608 L 99.04738,760.41152 z M 137.90177,722.5668 C 137.90177,722.5668 137.82497,722.5668 137.74818,722.71532 L 130.15777,739.93148 C 130.01057,740.15799 130.08736,740.31098 130.08736,740.31098 C 130.08736,740.31098 130.15777,740.38598 130.54817,740.38598 L 141.69697,740.46397 C 141.77377,740.46397 141.85056,740.38598 141.85056,740.38598 C 141.85056,740.38598 141.9274,740.31098 141.85056,740.08899 L 137.97857,722.71532 C 137.97857,722.5668 137.90177,722.5668 137.90177,722.5668 z M 263.86659,722.33433 C 263.86659,722.33433 263.7898,722.33433 263.71296,722.64632 L 256.12259,739.78449 C 255.97539,740.31098 256.05218,740.38598 256.05218,740.38598 C 256.05218,740.38598 256.27619,740.54045 256.42978,740.54045 L 267.65537,740.46397 C 267.73859,740.46397 267.80897,740.46397 267.80897,740.46397 C 267.80897,740.46397 267.88576,740.38598 267.80897,740.15799 L 264.02018,722.5668 C 263.94339,722.33433 263.86659,722.33433 263.86659,722.33433 z M 160.97379,762.30292 L 147.46336,762.38391 C 147.15618,762.38391 146.93218,762.23092 146.93218,762.23092 C 146.93218,762.23092 146.85538,762.15592 146.77859,761.62047 L 144.65377,752.90888 C 144.65377,752.67638 144.50656,752.59839 144.50656,752.59839 C 144.50656,752.59839 144.42977,752.59839 144.27618,752.59839 L 125.22979,752.59839 C 124.85219,752.59839 124.62177,752.90888 124.62177,752.90888 C 124.62177,752.90888 124.32097,753.13084 124.09697,753.65882 L 120.29538,761.77946 C 120.14179,762.07793 120.07138,762.15592 120.07138,762.15592 C 120.07138,762.15592 119.84738,762.30292 119.61699,762.30292 L 103.90817,762.30292 C 103.45124,762.38391 103.37377,762.15592 103.37377,762.15592 C 103.37377,762.15592 103.30145,761.92645 103.45124,761.62047 L 130.68899,706.86708 C 130.84897,706.56258 131.07297,706.49058 131.07297,706.49058 C 131.07297,706.49058 131.22656,706.49058 131.60419,706.49058 L 148.9802,706.49058 C 149.28738,706.49058 149.51138,706.71557 149.51138,706.71557 C 149.51138,706.71557 149.58818,706.79057 149.66497,707.01708 L 161.35138,761.92645 C 161.35138,762.15592 161.19779,762.23092 161.19779,762.23092 C 161.19779,762.23092 161.12738,762.30292 160.97379,762.30292 z M 221.67139,762.46042 L 207.79618,762.46042 C 207.55937,762.46042 207.33537,762.46042 207.33537,762.46042 C 207.33537,762.46042 207.25857,762.38391 207.18177,762.30292 L 187.91138,728.10305 C 187.75779,727.94858 187.67457,727.94858 187.67457,727.94858 C 187.67457,727.94858 187.52737,727.94858 187.52737,728.18105 L 182.74659,761.77946 C 182.67618,762.15592 182.593,762.23092 182.593,762.23092 C 182.593,762.23092 182.44579,762.30292 182.21537,762.30292 L 168.40418,762.30292 C 168.17379,762.30292 168.02659,762.15592 168.02659,762.15592 C 168.02659,762.15592 167.72579,761.84846 167.79616,761.54847 L 175.38657,707.17307 C 175.46337,706.86708 175.61699,706.79057 175.61699,706.79057 C 175.61699,706.79057 175.84099,706.56258 176.07138,706.56258 L 191.47616,706.56258 C 191.70016,706.56258 191.85379,706.71557 191.85379,706.71557 C 191.85379,706.71557 192.00738,706.79057 192.07779,707.01708 L 209.46018,737.5046 C 209.76098,738.11209 209.99137,738.03409 209.99137,738.03409 C 209.99137,738.03409 210.21537,738.03409 210.369,737.35312 L 214.77218,707.01708 C 214.77218,706.79057 214.92577,706.71557 214.92577,706.71557 C 214.92577,706.71557 214.99618,706.56258 215.22019,706.56258 L 229.71618,706.71557 C 230.02337,706.71557 230.09378,706.79057 230.09378,706.79057 C 230.09378,706.79057 230.17057,706.86708 230.17057,707.01708 L 222.36259,761.84846 C 222.28579,762.15592 222.13216,762.38391 222.13216,762.38391 C 222.13216,762.38391 222.05537,762.46042 221.67139,762.46042 z M 286.70176,762.52491 L 272.82017,762.52491 C 272.51298,762.6839 272.28898,762.38391 272.28898,762.38391 C 272.28898,762.38391 272.21219,762.30292 272.13539,761.84846 L 270.31137,753.28083 C 270.16417,752.82186 270.01058,752.59839 270.01058,752.59839 C 270.01058,752.59839 269.62656,752.37188 269.17859,752.37188 L 251.11778,752.37188 C 250.74018,752.37188 250.50979,752.59839 250.50979,752.59839 C 250.50979,752.59839 250.21538,752.90888 250.06179,753.36335 L 245.95937,762.07793 C 245.88257,762.30292 245.72898,762.38391 245.72898,762.38391 C 245.72898,762.38391 245.42176,762.46042 245.27459,762.46042 L 229.64577,762.46042 C 229.26179,762.52491 229.11459,762.30292 229.11459,762.30292 C 229.11459,762.30292 229.03137,762.15592 229.26179,761.84846 L 256.80737,706.86708 C 256.95458,706.79057 257.11459,706.56258 257.11459,706.56258 C 257.11459,706.56258 257.26176,706.49058 257.71619,706.49058 L 274.78497,706.49058 C 275.17537,706.49058 275.39937,706.71557 275.39937,706.71557 C 275.39937,706.71557 275.47617,706.79057 275.55296,707.01708 L 287.00256,762.23092 C 287.00256,762.38391 286.93219,762.46042 286.93219,762.46042 C 286.93219,762.46042 286.93219,762.52491 286.70176,762.52491 z M 326.54177,761.69846 C 326.47139,762.15592 326.39459,762.30292 326.39459,762.30292 C 326.39459,762.30292 326.31776,762.46042 325.94017,762.46042 L 294.66976,762.46042 C 293.76098,762.46042 293.53698,762.23092 293.53698,762.23092 C 293.53698,762.23092 293.38339,761.92645 293.45377,761.24397 L 301.19776,707.39954 C 301.27459,706.71557 301.42177,706.49058 301.42177,706.49058 C 301.42177,706.49058 301.50498,706.49058 302.26017,706.49058 L 316.45537,706.49058 C 316.82658,706.49058 316.98017,706.56258 316.98017,706.56258 C 316.98017,706.56258 317.06339,706.79057 316.98017,707.09507 L 311.14337,749.18903 C 311.06658,749.64353 311.29058,749.71553 311.29058,749.71553 C 311.29058,749.71553 311.43778,749.78752 312.04577,749.78752 L 327.53376,749.78752 C 327.83456,749.78752 327.98177,749.94799 327.98177,749.94799 C 327.98177,749.94799 328.05856,750.01999 328.05856,750.39797 L 326.54177,761.69846 z M 386.72099,740.38598 C 386.72099,740.38598 386.64419,740.54045 386.41377,740.54045 L 366.99617,740.54045 C 366.68898,740.54045 366.53539,740.69044 366.53539,740.69044 C 366.53539,740.69044 366.31139,740.76244 366.31139,741.14494 L 366.31139,761.84846 C 366.31139,762.15592 366.15776,762.23092 366.15776,762.23092 C 366.15776,762.23092 366.08097,762.38391 365.85058,762.38391 L 350.43938,762.38391 C 350.22176,762.38391 350.06817,762.23092 350.06817,762.23092 C 350.06817,762.23092 349.99138,762.15592 349.99138,761.77946 L 349.99138,741.06843 C 349.99138,740.84644 349.76737,740.69044 349.76737,740.69044 C 349.76737,740.69044 349.69058,740.54045 349.45377,740.54045 L 329.57539,740.54045 C 329.19777,740.54045 329.12097,740.46397 329.12097,740.46397 C 329.12097,740.46397 328.96738,740.31098 328.96738,739.85349 L 328.96738,724.6847 C 328.96738,724.53471 329.12097,724.30972 329.12097,724.30972 C 329.12097,724.30972 329.19777,724.23324 329.34497,724.23324 L 349.69058,724.23324 C 349.84417,724.23324 349.84417,724.15525 349.84417,724.15525 C 349.84417,724.15525 349.99138,724.08325 349.99138,723.93026 L 349.99138,705.80813 C 349.99138,705.57563 350.06817,705.42264 350.06817,705.42264 C 350.06817,705.42264 350.22176,705.35064 350.66977,705.35064 L 365.78017,705.35064 C 366.08097,705.35064 366.15776,705.42264 366.15776,705.42264 C 366.15776,705.42264 366.31139,705.57563 366.31139,705.87861 L 366.31139,724.08325 L 386.04259,724.08325 C 386.56736,724.08325 386.72099,724.15525 386.72099,724.15525 C 386.72099,724.15525 386.94499,724.23324 386.94499,724.6847 L 386.94499,740.008 C 386.94499,740.15799 386.72099,740.38598 386.72099,740.38598" />
    <path
       style="fill:#ffffff;fill-rule:nonzero;stroke:none"
       id="path4786"
       d="M 627.49537,732.27137 L 610.97696,732.27137 L 597.60736,710.08743 L 594.91937,732.27137 L 580.72417,732.27137 L 587.59777,676.23852 L 605.83136,676.23852 C 619.12417,676.23852 625.62659,681.83778 625.62659,693.28071 C 625.62659,699.17095 624.12898,703.28375 620.69219,706.49058 C 618.89378,708.20799 617.40898,709.02248 613.74179,710.5209 L 627.49537,732.27137 z M 598.58017,701.04436 L 601.12738,701.04436 C 607.09216,701.04436 611.19458,698.19899 611.19458,693.93169 C 611.19458,690.27336 608.29539,688.25748 603.06019,688.25748 L 600.36577,688.25748 L 598.58017,701.04436" />
    <path
       style="fill:#ffffff;fill-rule:nonzero;stroke:none"
       id="path4788"
       d="M 658.11296,732.27137 L 643.54658,732.27137 L 643.54658,688.56794 L 631.75139,688.56794 L 631.75139,676.23852 L 670.22176,676.23852 L 670.22176,688.56794 L 658.11296,688.56794 L 658.11296,732.27137" />
    <path
       style="fill:#ffffff;fill-rule:nonzero;stroke:none"
       id="path4790"
       d="M 448.26338,690.82084 C 445.21059,688.20195 442.23457,687.00652 439.04096,687.00652 C 435.55298,687.00652 432.93536,689.09292 432.93536,691.8618 C 432.93536,692.90724 433.37056,693.87769 434.24738,694.62617 C 435.19458,695.5201 436.50018,696.19359 437.88257,696.64205 C 438.67617,696.93904 440.34656,697.39354 442.74657,698.13751 C 447.75777,699.70641 450.30498,701.12383 452.62176,703.74121 C 455.09218,706.4291 456.10978,709.41845 456.10978,713.74576 C 456.10978,717.18658 455.23296,721.51688 454.07457,723.91526 C 451.02178,729.96298 443.68738,733.77727 434.90658,733.77727 C 430.61219,733.77727 426.98338,732.95234 422.55459,731.0789 C 419.64259,729.89098 418.55457,729.21901 415.94979,727.34861 L 421.96576,715.69864 C 426.32418,719.57445 430.32416,721.37289 434.46496,721.37289 C 438.67617,721.37289 441.29376,719.2025 441.29376,715.84415 C 441.29376,714.72668 440.85856,713.60324 440.12898,712.85328 C 438.67617,711.35786 437.37057,710.7684 432.79457,709.41845 C 428.28898,708.07151 426.54176,707.40254 424.51297,706.28062 C 420.22496,704.04119 418.11937,699.8534 418.11937,693.8072 C 418.11937,682.52023 425.60099,674.8991 436.64738,674.8991 C 442.38816,674.8991 448.48096,676.47255 453.93378,679.45739 L 448.26338,690.82084" />
    <path
       style="fill:#ffffff;fill-rule:nonzero;stroke:none"
       id="path4792"
       d="M 479.54017,732.27885 L 465.36419,732.27885 L 465.36419,676.24604 L 487.89218,676.24604 C 494.27936,676.24604 497.91459,677.51647 501.46656,680.95133 C 505.03138,684.38763 506.77856,689.02244 506.77856,694.85116 C 506.77856,707.03055 500.30817,713.67376 488.39779,713.67376 L 479.54017,713.67376 L 479.54017,732.27885 z M 484.18658,701.95031 C 489.55619,701.95031 491.96257,699.77992 491.96257,694.99816 C 491.96257,690.29287 489.41536,687.97848 484.26338,687.97848 L 479.54017,687.97848 L 479.54017,701.95031 L 484.18658,701.95031" />
    <path
       style="fill:#ffffff;fill-rule:nonzero;stroke:none"
       id="path4794"
       d="M 512.74338,704.81666 C 512.74338,721.45536 526.40739,734.37124 544.03297,734.37124 C 561.86978,734.37124 575.32257,721.45536 575.32257,704.29469 C 575.32257,687.05453 561.86978,674.29164 543.73217,674.29164 C 525.95939,674.29164 512.74338,687.356 512.74338,704.81666" />
    <path
       style="fill:#4dbc37;fill-rule:nonzero;stroke:none"
       id="path4796"
       d="M 527.50818,703.49822 C 527.50818,694.61266 535.02179,687.284 544.03297,687.284 C 553.19136,687.284 560.55138,694.61266 560.55138,703.65122 C 560.55138,712.76928 553.19136,720.09643 544.03297,720.09643 C 534.86816,720.09643 527.50818,712.69129 527.50818,703.49822" />
  </g>
</svg>
