<?xml version="1.0" encoding="UTF-8" standalone="no"?>
<!-- Created with Inkscape (http://www.inkscape.org/) -->
<svg
   xmlns:dc="http://purl.org/dc/elements/1.1/"
   xmlns:cc="http://web.resource.org/cc/"
   xmlns:rdf="http://www.w3.org/1999/02/22-rdf-syntax-ns#"
   xmlns:svg="http://www.w3.org/2000/svg"
   xmlns="http://www.w3.org/2000/svg"
   xmlns:sodipodi="http://sodipodi.sourceforge.net/DTD/sodipodi-0.dtd"
   xmlns:inkscape="http://www.inkscape.org/namespaces/inkscape"
   width="308"
   height="100"
   id="svg2"
   sodipodi:version="0.32"
   inkscape:version="0.45.1"
   version="1.0"
   inkscape:output_extension="org.inkscape.output.svg.inkscape">
  <g
     inkscape:label="Layer 1"
     inkscape:groupmode="layer"
     id="layer1"
     transform="translate(-107.98201,-506.63725)">
    <g
       clip-path="url(#id87)"
       id="g7078"
       transform="matrix(11.206598,0,0,-11.206598,-361.58105,4553.6209)">
      <g
         transform="matrix(0.1927032,0,0,-0.1927032,-586.31165,139.83687)"
         id="g7080">
        <g
           clip-path="url(#id88)"
           id="g7082">
          <g
             clip-path="url(#id89)"
             id="g7084">
            <g
               clip-path="url(#id90)"
               id="g7086">
              <path
                 style="fill:#78b63f;fill-rule:nonzero;stroke:none"
                 d="M 3280.792,-1112.496 L 3395.038,-1112.496 L 3395.038,-1143.566 L 3280.792,-1143.566 L 3280.792,-1112.496 z "
                 id="path7088" />
              <path
                 style="fill:#39791f;fill-rule:nonzero;stroke:none"
                 d="M 3345.212,-1143.566 L 3280.792,-1143.566 L 3280.792,-1112.496 L 3288.241,-1112.496 L 3285.975,-1138.384 L 3345.212,-1143.566 z "
                 id="path7090" />
              <path
                 style="fill:#39791f;fill-rule:nonzero;stroke:none"
                 d="M 3395.039,-1116.734 L 3346.568,-1112.496 L 3395.039,-1112.496 L 3395.039,-1116.734 z "
                 id="path7092" />
              <path
                 style="fill:#dde069;fill-rule:nonzero;stroke:none"
                 d="M 3395.039,-1116.734 L 3402.493,-1117.388 L 3399.786,-1148.337 L 3345.212,-1143.566 L 3395.039,-1143.566 L 3395.039,-1116.734 z "
                 id="path7094" />
              <path
                 style="fill:#dde069;fill-rule:nonzero;stroke:none"
                 d="M 3288.683,-1107.431 L 3346.568,-1112.496 L 3288.241,-1112.496 L 3288.683,-1107.431 z "
                 id="path7096" />
              <path
                 style="fill:#000000;fill-rule:nonzero;stroke:none"
                 d="M 3259.999,-1102.031 L 3291.147,-1102.031 L 3291.147,-1133.178 L 3259.999,-1133.178 L 3259.999,-1102.031 z "
                 id="path7098" />
              <path
                 style="fill:#ffffff;fill-rule:nonzero;stroke:none"
                 d="M 3285.499,-1116.072 C 3285.499,-1116.072 3285.474,-1116.021 3285.395,-1116.021 L 3278.671,-1116.021 C 3278.569,-1116.021 3278.513,-1115.967 3278.513,-1115.967 C 3278.513,-1115.967 3278.439,-1115.941 3278.439,-1115.812 L 3278.439,-1108.646 C 3278.439,-1108.542 3278.384,-1108.511 3278.384,-1108.511 C 3278.384,-1108.511 3278.355,-1108.459 3278.279,-1108.459 L 3272.946,-1108.459 C 3272.871,-1108.459 3272.816,-1108.511 3272.816,-1108.511 C 3272.816,-1108.511 3272.789,-1108.542 3272.789,-1108.671 L 3272.789,-1115.839 C 3272.789,-1115.915 3272.711,-1115.967 3272.711,-1115.967 C 3272.711,-1115.967 3272.684,-1116.021 3272.607,-1116.021 L 3265.727,-1116.021 C 3265.597,-1116.021 3265.569,-1116.049 3265.569,-1116.049 C 3265.569,-1116.049 3265.515,-1116.099 3265.515,-1116.259 L 3265.515,-1121.508 C 3265.515,-1121.56 3265.569,-1121.64 3265.569,-1121.64 C 3265.569,-1121.64 3265.597,-1121.664 3265.648,-1121.664 L 3272.684,-1121.664 C 3272.742,-1121.664 3272.742,-1121.691 3272.742,-1121.691 C 3272.742,-1121.691 3272.789,-1121.717 3272.789,-1121.77 L 3272.789,-1128.041 C 3272.789,-1128.121 3272.816,-1128.176 3272.816,-1128.176 C 3272.816,-1128.176 3272.871,-1128.197 3273.024,-1128.197 L 3278.254,-1128.197 C 3278.355,-1128.197 3278.384,-1128.176 3278.384,-1128.176 C 3278.384,-1128.176 3278.439,-1128.121 3278.439,-1128.019 L 3278.439,-1121.717 L 3285.267,-1121.717 C 3285.445,-1121.717 3285.499,-1121.691 3285.499,-1121.691 C 3285.499,-1121.691 3285.58,-1121.664 3285.58,-1121.508 L 3285.58,-1116.206 C 3285.58,-1116.152 3285.499,-1116.072 3285.499,-1116.072"
                 id="path7100" />
              <path
                 style="fill:#ffffff;fill-rule:nonzero;stroke:none"
                 d="M 3360.267,-1129.84 L 3361.144,-1129.84 C 3363.199,-1129.84 3364.608,-1130.815 3364.608,-1132.286 C 3364.608,-1133.546 3363.612,-1134.239 3361.81,-1134.239 L 3360.885,-1134.239 L 3360.267,-1129.84 z M 3370.223,-1119.095 L 3364.537,-1119.095 L 3359.93,-1126.731 L 3359.008,-1119.095 L 3354.122,-1119.095 L 3356.49,-1138.376 L 3362.764,-1138.376 C 3367.341,-1138.376 3369.577,-1136.446 3369.577,-1132.513 C 3369.577,-1130.486 3369.061,-1129.067 3367.879,-1127.964 C 3367.265,-1127.371 3366.75,-1127.093 3365.487,-1126.581 L 3370.223,-1119.095"
                 id="path7102" />
              <path
                 style="fill:#ffffff;fill-rule:nonzero;stroke:none"
                 d="M 3381.05,-1119.095 L 3376.04,-1119.095 L 3376.04,-1134.134 L 3371.979,-1134.134 L 3371.979,-1138.376 L 3385.22,-1138.376 L 3385.22,-1134.134 L 3381.05,-1134.134 L 3381.05,-1119.095 z "
                 id="path7104" />
              <path
                 style="fill:#ffffff;fill-rule:nonzero;stroke:none"
                 d="M 3308.315,-1133.357 C 3307.262,-1134.261 3306.241,-1134.674 3305.139,-1134.674 C 3303.937,-1134.674 3303.042,-1133.952 3303.042,-1133.002 C 3303.042,-1132.641 3303.19,-1132.303 3303.492,-1132.048 C 3303.815,-1131.74 3304.262,-1131.504 3304.741,-1131.355 C 3305.014,-1131.249 3305.59,-1131.094 3306.415,-1130.84 C 3308.139,-1130.298 3309.017,-1129.813 3309.814,-1128.913 C 3310.664,-1127.983 3311.013,-1126.955 3311.013,-1125.469 C 3311.013,-1124.283 3310.711,-1122.797 3310.312,-1121.967 C 3309.264,-1119.887 3306.737,-1118.574 3303.715,-1118.574 C 3302.238,-1118.574 3300.99,-1118.859 3299.463,-1119.502 C 3298.464,-1119.914 3298.088,-1120.145 3297.19,-1120.79 L 3299.263,-1124.793 C 3300.763,-1123.468 3302.138,-1122.84 3303.565,-1122.84 C 3305.014,-1122.84 3305.915,-1123.59 3305.915,-1124.748 C 3305.915,-1125.133 3305.766,-1125.52 3305.514,-1125.775 C 3305.014,-1126.288 3304.565,-1126.491 3302.99,-1126.955 C 3301.438,-1127.418 3300.839,-1127.649 3300.139,-1128.038 C 3298.665,-1128.809 3297.941,-1130.25 3297.941,-1132.33 C 3297.941,-1136.215 3300.514,-1138.839 3304.313,-1138.839 C 3306.29,-1138.839 3308.388,-1138.293 3310.263,-1137.267 L 3308.315,-1133.357"
                 id="path7106" />
              <path
                 style="fill:#ffffff;fill-rule:nonzero;stroke:none"
                 d="M 3320.968,-1129.527 C 3322.819,-1129.527 3323.644,-1130.271 3323.644,-1131.921 C 3323.644,-1133.537 3322.769,-1134.336 3320.996,-1134.336 L 3319.371,-1134.336 L 3319.371,-1129.527 L 3320.968,-1129.527 z M 3319.371,-1119.09 L 3314.493,-1119.09 L 3314.493,-1138.372 L 3322.245,-1138.372 C 3324.445,-1138.372 3325.695,-1137.938 3326.916,-1136.752 C 3328.145,-1135.573 3328.745,-1133.973 3328.745,-1131.976 C 3328.745,-1127.777 3326.518,-1125.491 3322.421,-1125.491 L 3319.371,-1125.491 L 3319.371,-1119.09"
                 id="path7108" />
              <path
                 style="fill:#ffffff;fill-rule:nonzero;stroke:none"
                 d="M 3341.469,-1123.283 C 3338.311,-1123.283 3335.779,-1125.832 3335.779,-1128.997 C 3335.779,-1132.052 3338.37,-1134.574 3341.469,-1134.574 C 3344.62,-1134.574 3347.157,-1132.052 3347.157,-1128.944 C 3347.157,-1125.803 3344.62,-1123.283 3341.469,-1123.283 M 3341.364,-1139.047 C 3335.249,-1139.047 3330.703,-1134.551 3330.703,-1128.541 C 3330.703,-1122.811 3335.403,-1118.366 3341.469,-1118.366 C 3347.607,-1118.366 3352.241,-1122.811 3352.241,-1128.719 C 3352.241,-1134.651 3347.607,-1139.047 3341.364,-1139.047"
                 id="path7110" />
            </g>
          </g>
        </g>
      </g>
    </g>
  </g>
</svg>
